G04 (created by PCBNEW (2013-02-13 BZR 3947)-testing) date 11/23/2013 4:30:54 PM*
%MOIN*%
G04 Gerber Fmt 3.4, Leading zero omitted, Abs format*
%FSLAX34Y34*%
G01*
G70*
G90*
G04 APERTURE LIST*
%ADD10C,0*%
%ADD11C,0.00390157*%
%ADD12C,0.00787402*%
%ADD13C,0.00393701*%
%ADD14C,0.00984252*%
%ADD15C,0.0177165*%
%ADD16C,0.012*%
%ADD17C,0.015*%
%ADD18C,0.00590551*%
%ADD19C,0.008*%
%ADD20C,0.0788661*%
%ADD21C,0.0709921*%
%ADD22C,0.098*%
%ADD23C,0.165*%
%ADD24C,0.075*%
%ADD25O,0.083X0.093*%
%ADD26R,0.083X0.093*%
%ADD27O,0.068X0.05*%
%ADD28C,0.0473701*%
%ADD29C,0.2049*%
%ADD30C,0.0434331*%
%ADD31C,0.0670551*%
%ADD32C,0.128*%
G04 APERTURE END LIST*
G54D10*
G54D11*
X89452Y-29823D02*
X302Y-29823D01*
X89452Y-29823D02*
G75*
G03X89752Y-29523I0J300D01*
G74*
G01*
X89752Y-273D02*
X89752Y-29523D01*
X89752Y-273D02*
G75*
G03X89452Y26I-300J0D01*
G74*
G01*
X302Y26D02*
X89452Y26D01*
X302Y26D02*
G75*
G03X2Y-273I0J-300D01*
G74*
G01*
X2Y-29523D02*
X2Y-273D01*
X2Y-29523D02*
G75*
G03X302Y-29823I299J0D01*
G74*
G01*
G54D12*
X87753Y-13186D02*
X87438Y-13186D01*
X87543Y-13036D02*
X87753Y-13036D01*
X87573Y-13036D02*
X87558Y-13021D01*
X87543Y-12991D01*
X87543Y-12946D01*
X87558Y-12916D01*
X87588Y-12901D01*
X87753Y-12901D01*
X87543Y-12796D02*
X87543Y-12676D01*
X87438Y-12751D02*
X87708Y-12751D01*
X87738Y-12736D01*
X87753Y-12706D01*
X87753Y-12676D01*
X87738Y-12451D02*
X87753Y-12481D01*
X87753Y-12541D01*
X87738Y-12571D01*
X87708Y-12586D01*
X87588Y-12586D01*
X87558Y-12571D01*
X87543Y-12541D01*
X87543Y-12481D01*
X87558Y-12451D01*
X87588Y-12436D01*
X87618Y-12436D01*
X87648Y-12586D01*
X87753Y-12301D02*
X87543Y-12301D01*
X87603Y-12301D02*
X87573Y-12286D01*
X87558Y-12271D01*
X87543Y-12241D01*
X87543Y-12211D01*
X87738Y-11971D02*
X87753Y-12001D01*
X87753Y-12061D01*
X87738Y-12091D01*
X87723Y-12106D01*
X87693Y-12121D01*
X87603Y-12121D01*
X87573Y-12106D01*
X87558Y-12091D01*
X87543Y-12061D01*
X87543Y-12001D01*
X87558Y-11971D01*
X87753Y-11791D02*
X87738Y-11821D01*
X87723Y-11836D01*
X87693Y-11851D01*
X87603Y-11851D01*
X87573Y-11836D01*
X87558Y-11821D01*
X87543Y-11791D01*
X87543Y-11746D01*
X87558Y-11716D01*
X87573Y-11701D01*
X87603Y-11686D01*
X87693Y-11686D01*
X87723Y-11701D01*
X87738Y-11716D01*
X87753Y-11746D01*
X87753Y-11791D01*
X87543Y-11551D02*
X87753Y-11551D01*
X87573Y-11551D02*
X87558Y-11536D01*
X87543Y-11506D01*
X87543Y-11461D01*
X87558Y-11431D01*
X87588Y-11416D01*
X87753Y-11416D01*
X87543Y-11266D02*
X87753Y-11266D01*
X87573Y-11266D02*
X87558Y-11251D01*
X87543Y-11221D01*
X87543Y-11176D01*
X87558Y-11146D01*
X87588Y-11131D01*
X87753Y-11131D01*
X87738Y-10861D02*
X87753Y-10891D01*
X87753Y-10951D01*
X87738Y-10981D01*
X87708Y-10996D01*
X87588Y-10996D01*
X87558Y-10981D01*
X87543Y-10951D01*
X87543Y-10891D01*
X87558Y-10861D01*
X87588Y-10846D01*
X87618Y-10846D01*
X87648Y-10996D01*
X87738Y-10576D02*
X87753Y-10606D01*
X87753Y-10666D01*
X87738Y-10696D01*
X87723Y-10711D01*
X87693Y-10726D01*
X87603Y-10726D01*
X87573Y-10711D01*
X87558Y-10696D01*
X87543Y-10666D01*
X87543Y-10606D01*
X87558Y-10576D01*
X87543Y-10486D02*
X87543Y-10366D01*
X87438Y-10441D02*
X87708Y-10441D01*
X87738Y-10426D01*
X87753Y-10396D01*
X87753Y-10366D01*
X87753Y-10021D02*
X87438Y-10021D01*
X87438Y-9901D01*
X87453Y-9871D01*
X87468Y-9856D01*
X87498Y-9841D01*
X87543Y-9841D01*
X87573Y-9856D01*
X87588Y-9871D01*
X87603Y-9901D01*
X87603Y-10021D01*
X87753Y-9571D02*
X87588Y-9571D01*
X87558Y-9586D01*
X87543Y-9616D01*
X87543Y-9676D01*
X87558Y-9706D01*
X87738Y-9571D02*
X87753Y-9601D01*
X87753Y-9676D01*
X87738Y-9706D01*
X87708Y-9721D01*
X87678Y-9721D01*
X87648Y-9706D01*
X87633Y-9676D01*
X87633Y-9601D01*
X87618Y-9571D01*
X87753Y-9286D02*
X87438Y-9286D01*
X87738Y-9286D02*
X87753Y-9316D01*
X87753Y-9376D01*
X87738Y-9406D01*
X87723Y-9421D01*
X87693Y-9436D01*
X87603Y-9436D01*
X87573Y-9421D01*
X87558Y-9406D01*
X87543Y-9376D01*
X87543Y-9316D01*
X87558Y-9286D01*
X87738Y-9151D02*
X87753Y-9121D01*
X87753Y-9061D01*
X87738Y-9031D01*
X87708Y-9016D01*
X87693Y-9016D01*
X87663Y-9031D01*
X87648Y-9061D01*
X87648Y-9106D01*
X87633Y-9136D01*
X87603Y-9151D01*
X87588Y-9151D01*
X87558Y-9136D01*
X87543Y-9106D01*
X87543Y-9061D01*
X87558Y-9031D01*
X88273Y-13216D02*
X87958Y-13216D01*
X87958Y-13096D01*
X87973Y-13066D01*
X87988Y-13051D01*
X88018Y-13036D01*
X88063Y-13036D01*
X88093Y-13051D01*
X88108Y-13066D01*
X88123Y-13096D01*
X88123Y-13216D01*
X88273Y-12901D02*
X88063Y-12901D01*
X87958Y-12901D02*
X87973Y-12916D01*
X87988Y-12901D01*
X87973Y-12886D01*
X87958Y-12901D01*
X87988Y-12901D01*
X88063Y-12751D02*
X88273Y-12751D01*
X88093Y-12751D02*
X88078Y-12736D01*
X88063Y-12706D01*
X88063Y-12661D01*
X88078Y-12631D01*
X88108Y-12616D01*
X88273Y-12616D01*
X88273Y-12421D02*
X88258Y-12451D01*
X88243Y-12466D01*
X88213Y-12481D01*
X88123Y-12481D01*
X88093Y-12466D01*
X88078Y-12451D01*
X88063Y-12421D01*
X88063Y-12376D01*
X88078Y-12346D01*
X88093Y-12331D01*
X88123Y-12316D01*
X88213Y-12316D01*
X88243Y-12331D01*
X88258Y-12346D01*
X88273Y-12376D01*
X88273Y-12421D01*
X88063Y-12046D02*
X88273Y-12046D01*
X88063Y-12181D02*
X88228Y-12181D01*
X88258Y-12166D01*
X88273Y-12136D01*
X88273Y-12091D01*
X88258Y-12061D01*
X88243Y-12046D01*
X88063Y-11941D02*
X88063Y-11821D01*
X87958Y-11896D02*
X88228Y-11896D01*
X88258Y-11881D01*
X88273Y-11851D01*
X88273Y-11821D01*
X88273Y-11431D02*
X88258Y-11461D01*
X88243Y-11476D01*
X88213Y-11491D01*
X88123Y-11491D01*
X88093Y-11476D01*
X88078Y-11461D01*
X88063Y-11431D01*
X88063Y-11386D01*
X88078Y-11356D01*
X88093Y-11341D01*
X88123Y-11326D01*
X88213Y-11326D01*
X88243Y-11341D01*
X88258Y-11356D01*
X88273Y-11386D01*
X88273Y-11431D01*
X88063Y-11191D02*
X88273Y-11191D01*
X88093Y-11191D02*
X88078Y-11176D01*
X88063Y-11146D01*
X88063Y-11101D01*
X88078Y-11071D01*
X88108Y-11056D01*
X88273Y-11056D01*
X88273Y-10486D02*
X88123Y-10591D01*
X88273Y-10666D02*
X87958Y-10666D01*
X87958Y-10546D01*
X87973Y-10516D01*
X87988Y-10501D01*
X88018Y-10486D01*
X88063Y-10486D01*
X88093Y-10501D01*
X88108Y-10516D01*
X88123Y-10546D01*
X88123Y-10666D01*
X88258Y-10231D02*
X88273Y-10261D01*
X88273Y-10321D01*
X88258Y-10351D01*
X88228Y-10366D01*
X88108Y-10366D01*
X88078Y-10351D01*
X88063Y-10321D01*
X88063Y-10261D01*
X88078Y-10231D01*
X88108Y-10216D01*
X88138Y-10216D01*
X88168Y-10366D01*
X88063Y-10111D02*
X88273Y-10036D01*
X88063Y-9961D01*
X88258Y-9721D02*
X88273Y-9751D01*
X88273Y-9811D01*
X88258Y-9841D01*
X88228Y-9856D01*
X88108Y-9856D01*
X88078Y-9841D01*
X88063Y-9811D01*
X88063Y-9751D01*
X88078Y-9721D01*
X88108Y-9706D01*
X88138Y-9706D01*
X88168Y-9856D01*
X88273Y-9571D02*
X88063Y-9571D01*
X88123Y-9571D02*
X88093Y-9556D01*
X88078Y-9541D01*
X88063Y-9511D01*
X88063Y-9481D01*
X88258Y-9391D02*
X88273Y-9361D01*
X88273Y-9301D01*
X88258Y-9271D01*
X88228Y-9256D01*
X88213Y-9256D01*
X88183Y-9271D01*
X88168Y-9301D01*
X88168Y-9346D01*
X88153Y-9376D01*
X88123Y-9391D01*
X88108Y-9391D01*
X88078Y-9376D01*
X88063Y-9346D01*
X88063Y-9301D01*
X88078Y-9271D01*
X88258Y-9001D02*
X88273Y-9031D01*
X88273Y-9091D01*
X88258Y-9121D01*
X88228Y-9136D01*
X88108Y-9136D01*
X88078Y-9121D01*
X88063Y-9091D01*
X88063Y-9031D01*
X88078Y-9001D01*
X88108Y-8986D01*
X88138Y-8986D01*
X88168Y-9136D01*
X73189Y-15586D02*
X73189Y-15271D01*
X73369Y-15586D01*
X73369Y-15271D01*
X73564Y-15586D02*
X73534Y-15571D01*
X73519Y-15556D01*
X73504Y-15526D01*
X73504Y-15436D01*
X73519Y-15406D01*
X73534Y-15391D01*
X73564Y-15376D01*
X73609Y-15376D01*
X73639Y-15391D01*
X73654Y-15406D01*
X73669Y-15436D01*
X73669Y-15526D01*
X73654Y-15556D01*
X73639Y-15571D01*
X73609Y-15586D01*
X73564Y-15586D01*
X73759Y-15376D02*
X73879Y-15376D01*
X73804Y-15271D02*
X73804Y-15541D01*
X73819Y-15571D01*
X73849Y-15586D01*
X73879Y-15586D01*
X74104Y-15571D02*
X74074Y-15586D01*
X74014Y-15586D01*
X73984Y-15571D01*
X73969Y-15541D01*
X73969Y-15421D01*
X73984Y-15391D01*
X74014Y-15376D01*
X74074Y-15376D01*
X74104Y-15391D01*
X74119Y-15421D01*
X74119Y-15451D01*
X73969Y-15481D01*
X74644Y-15586D02*
X74494Y-15586D01*
X74494Y-15271D01*
X74749Y-15421D02*
X74854Y-15421D01*
X74899Y-15586D02*
X74749Y-15586D01*
X74749Y-15271D01*
X74899Y-15271D01*
X75034Y-15586D02*
X75034Y-15271D01*
X75109Y-15271D01*
X75154Y-15286D01*
X75184Y-15316D01*
X75199Y-15346D01*
X75214Y-15406D01*
X75214Y-15451D01*
X75199Y-15511D01*
X75184Y-15541D01*
X75154Y-15571D01*
X75109Y-15586D01*
X75034Y-15586D01*
X75769Y-15586D02*
X75664Y-15436D01*
X75589Y-15586D02*
X75589Y-15271D01*
X75709Y-15271D01*
X75739Y-15286D01*
X75754Y-15301D01*
X75769Y-15331D01*
X75769Y-15376D01*
X75754Y-15406D01*
X75739Y-15421D01*
X75709Y-15436D01*
X75589Y-15436D01*
X75949Y-15586D02*
X75919Y-15571D01*
X75904Y-15556D01*
X75889Y-15526D01*
X75889Y-15436D01*
X75904Y-15406D01*
X75919Y-15391D01*
X75949Y-15376D01*
X75994Y-15376D01*
X76024Y-15391D01*
X76039Y-15406D01*
X76054Y-15436D01*
X76054Y-15526D01*
X76039Y-15556D01*
X76024Y-15571D01*
X75994Y-15586D01*
X75949Y-15586D01*
X76144Y-15376D02*
X76264Y-15376D01*
X76189Y-15271D02*
X76189Y-15541D01*
X76204Y-15571D01*
X76234Y-15586D01*
X76264Y-15586D01*
X76504Y-15586D02*
X76504Y-15421D01*
X76489Y-15391D01*
X76459Y-15376D01*
X76399Y-15376D01*
X76369Y-15391D01*
X76504Y-15571D02*
X76474Y-15586D01*
X76399Y-15586D01*
X76369Y-15571D01*
X76354Y-15541D01*
X76354Y-15511D01*
X76369Y-15481D01*
X76399Y-15466D01*
X76474Y-15466D01*
X76504Y-15451D01*
X76609Y-15376D02*
X76729Y-15376D01*
X76654Y-15271D02*
X76654Y-15541D01*
X76669Y-15571D01*
X76699Y-15586D01*
X76729Y-15586D01*
X76834Y-15586D02*
X76834Y-15376D01*
X76834Y-15271D02*
X76819Y-15286D01*
X76834Y-15301D01*
X76849Y-15286D01*
X76834Y-15271D01*
X76834Y-15301D01*
X77029Y-15586D02*
X76999Y-15571D01*
X76984Y-15556D01*
X76969Y-15526D01*
X76969Y-15436D01*
X76984Y-15406D01*
X76999Y-15391D01*
X77029Y-15376D01*
X77074Y-15376D01*
X77104Y-15391D01*
X77119Y-15406D01*
X77134Y-15436D01*
X77134Y-15526D01*
X77119Y-15556D01*
X77104Y-15571D01*
X77074Y-15586D01*
X77029Y-15586D01*
X77269Y-15376D02*
X77269Y-15586D01*
X77269Y-15406D02*
X77284Y-15391D01*
X77314Y-15376D01*
X77359Y-15376D01*
X77389Y-15391D01*
X77404Y-15421D01*
X77404Y-15586D01*
X77749Y-15376D02*
X77869Y-15376D01*
X77794Y-15586D02*
X77794Y-15316D01*
X77809Y-15286D01*
X77839Y-15271D01*
X77869Y-15271D01*
X78019Y-15586D02*
X77989Y-15571D01*
X77974Y-15556D01*
X77959Y-15526D01*
X77959Y-15436D01*
X77974Y-15406D01*
X77989Y-15391D01*
X78019Y-15376D01*
X78064Y-15376D01*
X78094Y-15391D01*
X78109Y-15406D01*
X78124Y-15436D01*
X78124Y-15526D01*
X78109Y-15556D01*
X78094Y-15571D01*
X78064Y-15586D01*
X78019Y-15586D01*
X78259Y-15586D02*
X78259Y-15376D01*
X78259Y-15436D02*
X78274Y-15406D01*
X78289Y-15391D01*
X78319Y-15376D01*
X78349Y-15376D01*
X78679Y-15496D02*
X78829Y-15496D01*
X78649Y-15586D02*
X78754Y-15271D01*
X78859Y-15586D01*
X79009Y-15586D02*
X78979Y-15571D01*
X78964Y-15541D01*
X78964Y-15271D01*
X79084Y-15376D02*
X79204Y-15376D01*
X79129Y-15271D02*
X79129Y-15541D01*
X79144Y-15571D01*
X79174Y-15586D01*
X79204Y-15586D01*
X79429Y-15571D02*
X79399Y-15586D01*
X79339Y-15586D01*
X79309Y-15571D01*
X79294Y-15541D01*
X79294Y-15421D01*
X79309Y-15391D01*
X79339Y-15376D01*
X79399Y-15376D01*
X79429Y-15391D01*
X79444Y-15421D01*
X79444Y-15451D01*
X79294Y-15481D01*
X79579Y-15586D02*
X79579Y-15376D01*
X79579Y-15436D02*
X79594Y-15406D01*
X79609Y-15391D01*
X79639Y-15376D01*
X79669Y-15376D01*
X79774Y-15376D02*
X79774Y-15586D01*
X79774Y-15406D02*
X79789Y-15391D01*
X79819Y-15376D01*
X79864Y-15376D01*
X79894Y-15391D01*
X79909Y-15421D01*
X79909Y-15586D01*
X80193Y-15586D02*
X80193Y-15421D01*
X80178Y-15391D01*
X80148Y-15376D01*
X80088Y-15376D01*
X80058Y-15391D01*
X80193Y-15571D02*
X80163Y-15586D01*
X80088Y-15586D01*
X80058Y-15571D01*
X80044Y-15541D01*
X80044Y-15511D01*
X80058Y-15481D01*
X80088Y-15466D01*
X80163Y-15466D01*
X80193Y-15451D01*
X80298Y-15376D02*
X80418Y-15376D01*
X80343Y-15271D02*
X80343Y-15541D01*
X80358Y-15571D01*
X80388Y-15586D01*
X80418Y-15586D01*
X80643Y-15571D02*
X80613Y-15586D01*
X80553Y-15586D01*
X80523Y-15571D01*
X80508Y-15541D01*
X80508Y-15421D01*
X80523Y-15391D01*
X80553Y-15376D01*
X80613Y-15376D01*
X80643Y-15391D01*
X80658Y-15421D01*
X80658Y-15451D01*
X80508Y-15481D01*
X81018Y-15571D02*
X81063Y-15586D01*
X81138Y-15586D01*
X81168Y-15571D01*
X81183Y-15556D01*
X81198Y-15526D01*
X81198Y-15496D01*
X81183Y-15466D01*
X81168Y-15451D01*
X81138Y-15436D01*
X81078Y-15421D01*
X81048Y-15406D01*
X81033Y-15391D01*
X81018Y-15361D01*
X81018Y-15331D01*
X81033Y-15301D01*
X81048Y-15286D01*
X81078Y-15271D01*
X81153Y-15271D01*
X81198Y-15286D01*
X81483Y-15271D02*
X81333Y-15271D01*
X81318Y-15421D01*
X81333Y-15406D01*
X81363Y-15391D01*
X81438Y-15391D01*
X81468Y-15406D01*
X81483Y-15421D01*
X81498Y-15451D01*
X81498Y-15526D01*
X81483Y-15556D01*
X81468Y-15571D01*
X81438Y-15586D01*
X81363Y-15586D01*
X81333Y-15571D01*
X81318Y-15556D01*
X81603Y-15271D02*
X81798Y-15271D01*
X81693Y-15391D01*
X81738Y-15391D01*
X81768Y-15406D01*
X81783Y-15421D01*
X81798Y-15451D01*
X81798Y-15526D01*
X81783Y-15556D01*
X81768Y-15571D01*
X81738Y-15586D01*
X81648Y-15586D01*
X81618Y-15571D01*
X81603Y-15556D01*
X82098Y-15586D02*
X81918Y-15586D01*
X82008Y-15586D02*
X82008Y-15271D01*
X81978Y-15316D01*
X81948Y-15346D01*
X81918Y-15361D01*
X82728Y-15586D02*
X82713Y-15586D01*
X82683Y-15571D01*
X82638Y-15526D01*
X82563Y-15436D01*
X82533Y-15391D01*
X82518Y-15346D01*
X82518Y-15316D01*
X82533Y-15286D01*
X82563Y-15271D01*
X82578Y-15271D01*
X82608Y-15286D01*
X82623Y-15316D01*
X82623Y-15331D01*
X82608Y-15361D01*
X82593Y-15376D01*
X82503Y-15436D01*
X82488Y-15451D01*
X82473Y-15481D01*
X82473Y-15526D01*
X82488Y-15556D01*
X82503Y-15571D01*
X82533Y-15586D01*
X82578Y-15586D01*
X82608Y-15571D01*
X82623Y-15556D01*
X82668Y-15496D01*
X82683Y-15451D01*
X82683Y-15421D01*
X83088Y-15571D02*
X83133Y-15586D01*
X83208Y-15586D01*
X83238Y-15571D01*
X83253Y-15556D01*
X83268Y-15526D01*
X83268Y-15496D01*
X83253Y-15466D01*
X83238Y-15451D01*
X83208Y-15436D01*
X83148Y-15421D01*
X83118Y-15406D01*
X83103Y-15391D01*
X83088Y-15361D01*
X83088Y-15331D01*
X83103Y-15301D01*
X83118Y-15286D01*
X83148Y-15271D01*
X83223Y-15271D01*
X83268Y-15286D01*
X83538Y-15376D02*
X83538Y-15586D01*
X83463Y-15256D02*
X83388Y-15481D01*
X83583Y-15481D01*
X83748Y-15406D02*
X83718Y-15391D01*
X83703Y-15376D01*
X83688Y-15346D01*
X83688Y-15331D01*
X83703Y-15301D01*
X83718Y-15286D01*
X83748Y-15271D01*
X83808Y-15271D01*
X83838Y-15286D01*
X83853Y-15301D01*
X83868Y-15331D01*
X83868Y-15346D01*
X83853Y-15376D01*
X83838Y-15391D01*
X83808Y-15406D01*
X83748Y-15406D01*
X83718Y-15421D01*
X83703Y-15436D01*
X83688Y-15466D01*
X83688Y-15526D01*
X83703Y-15556D01*
X83718Y-15571D01*
X83748Y-15586D01*
X83808Y-15586D01*
X83838Y-15571D01*
X83853Y-15556D01*
X83868Y-15526D01*
X83868Y-15466D01*
X83853Y-15436D01*
X83838Y-15421D01*
X83808Y-15406D01*
X84168Y-15586D02*
X83988Y-15586D01*
X84078Y-15586D02*
X84078Y-15271D01*
X84048Y-15316D01*
X84018Y-15346D01*
X83988Y-15361D01*
X84528Y-15571D02*
X84573Y-15586D01*
X84648Y-15586D01*
X84678Y-15571D01*
X84693Y-15556D01*
X84708Y-15526D01*
X84708Y-15496D01*
X84693Y-15466D01*
X84678Y-15451D01*
X84648Y-15436D01*
X84588Y-15421D01*
X84558Y-15406D01*
X84543Y-15391D01*
X84528Y-15361D01*
X84528Y-15331D01*
X84543Y-15301D01*
X84558Y-15286D01*
X84588Y-15271D01*
X84663Y-15271D01*
X84708Y-15286D01*
X84813Y-15376D02*
X84873Y-15586D01*
X84933Y-15436D01*
X84993Y-15586D01*
X85053Y-15376D01*
X85173Y-15586D02*
X85173Y-15376D01*
X85173Y-15271D02*
X85158Y-15286D01*
X85173Y-15301D01*
X85188Y-15286D01*
X85173Y-15271D01*
X85173Y-15301D01*
X85278Y-15376D02*
X85398Y-15376D01*
X85323Y-15271D02*
X85323Y-15541D01*
X85338Y-15571D01*
X85368Y-15586D01*
X85398Y-15586D01*
X85638Y-15571D02*
X85608Y-15586D01*
X85548Y-15586D01*
X85518Y-15571D01*
X85503Y-15556D01*
X85488Y-15526D01*
X85488Y-15436D01*
X85503Y-15406D01*
X85518Y-15391D01*
X85548Y-15376D01*
X85608Y-15376D01*
X85638Y-15391D01*
X85773Y-15586D02*
X85773Y-15271D01*
X85908Y-15586D02*
X85908Y-15421D01*
X85893Y-15391D01*
X85863Y-15376D01*
X85818Y-15376D01*
X85788Y-15391D01*
X85773Y-15406D01*
X86298Y-15586D02*
X86298Y-15271D01*
X86418Y-15271D01*
X86448Y-15286D01*
X86463Y-15301D01*
X86478Y-15331D01*
X86478Y-15376D01*
X86463Y-15406D01*
X86448Y-15421D01*
X86418Y-15436D01*
X86298Y-15436D01*
X86658Y-15586D02*
X86628Y-15571D01*
X86613Y-15541D01*
X86613Y-15271D01*
X86913Y-15586D02*
X86913Y-15421D01*
X86898Y-15391D01*
X86868Y-15376D01*
X86808Y-15376D01*
X86778Y-15391D01*
X86913Y-15571D02*
X86883Y-15586D01*
X86808Y-15586D01*
X86778Y-15571D01*
X86763Y-15541D01*
X86763Y-15511D01*
X86778Y-15481D01*
X86808Y-15466D01*
X86883Y-15466D01*
X86913Y-15451D01*
X87198Y-15571D02*
X87168Y-15586D01*
X87108Y-15586D01*
X87078Y-15571D01*
X87063Y-15556D01*
X87048Y-15526D01*
X87048Y-15436D01*
X87063Y-15406D01*
X87078Y-15391D01*
X87108Y-15376D01*
X87168Y-15376D01*
X87198Y-15391D01*
X87453Y-15571D02*
X87423Y-15586D01*
X87363Y-15586D01*
X87333Y-15571D01*
X87318Y-15541D01*
X87318Y-15421D01*
X87333Y-15391D01*
X87363Y-15376D01*
X87423Y-15376D01*
X87453Y-15391D01*
X87468Y-15421D01*
X87468Y-15451D01*
X87318Y-15481D01*
X87603Y-15586D02*
X87603Y-15376D01*
X87603Y-15406D02*
X87618Y-15391D01*
X87648Y-15376D01*
X87693Y-15376D01*
X87723Y-15391D01*
X87738Y-15421D01*
X87738Y-15586D01*
X87738Y-15421D02*
X87753Y-15391D01*
X87783Y-15376D01*
X87828Y-15376D01*
X87858Y-15391D01*
X87873Y-15421D01*
X87873Y-15586D01*
X88142Y-15571D02*
X88112Y-15586D01*
X88053Y-15586D01*
X88023Y-15571D01*
X88008Y-15541D01*
X88008Y-15421D01*
X88023Y-15391D01*
X88053Y-15376D01*
X88112Y-15376D01*
X88142Y-15391D01*
X88157Y-15421D01*
X88157Y-15451D01*
X88008Y-15481D01*
X88292Y-15376D02*
X88292Y-15586D01*
X88292Y-15406D02*
X88307Y-15391D01*
X88337Y-15376D01*
X88382Y-15376D01*
X88412Y-15391D01*
X88427Y-15421D01*
X88427Y-15586D01*
X88532Y-15376D02*
X88652Y-15376D01*
X88577Y-15271D02*
X88577Y-15541D01*
X88592Y-15571D01*
X88622Y-15586D01*
X88652Y-15586D01*
X88742Y-15571D02*
X88772Y-15586D01*
X88832Y-15586D01*
X88862Y-15571D01*
X88877Y-15541D01*
X88877Y-15526D01*
X88862Y-15496D01*
X88832Y-15481D01*
X88787Y-15481D01*
X88757Y-15466D01*
X88742Y-15436D01*
X88742Y-15421D01*
X88757Y-15391D01*
X88787Y-15376D01*
X88832Y-15376D01*
X88862Y-15391D01*
X68473Y-29218D02*
X68342Y-29030D01*
X68248Y-29218D02*
X68248Y-28824D01*
X68398Y-28824D01*
X68435Y-28843D01*
X68454Y-28862D01*
X68473Y-28899D01*
X68473Y-28955D01*
X68454Y-28993D01*
X68435Y-29012D01*
X68398Y-29030D01*
X68248Y-29030D01*
X68792Y-29199D02*
X68754Y-29218D01*
X68679Y-29218D01*
X68642Y-29199D01*
X68623Y-29162D01*
X68623Y-29012D01*
X68642Y-28974D01*
X68679Y-28955D01*
X68754Y-28955D01*
X68792Y-28974D01*
X68810Y-29012D01*
X68810Y-29049D01*
X68623Y-29087D01*
X68942Y-28955D02*
X69035Y-29218D01*
X69129Y-28955D01*
X69654Y-28824D02*
X69691Y-28824D01*
X69729Y-28843D01*
X69748Y-28862D01*
X69766Y-28899D01*
X69785Y-28974D01*
X69785Y-29068D01*
X69766Y-29143D01*
X69748Y-29180D01*
X69729Y-29199D01*
X69691Y-29218D01*
X69654Y-29218D01*
X69616Y-29199D01*
X69598Y-29180D01*
X69579Y-29143D01*
X69560Y-29068D01*
X69560Y-28974D01*
X69579Y-28899D01*
X69598Y-28862D01*
X69616Y-28843D01*
X69654Y-28824D01*
X69954Y-29180D02*
X69973Y-29199D01*
X69954Y-29218D01*
X69935Y-29199D01*
X69954Y-29180D01*
X69954Y-29218D01*
X70348Y-29218D02*
X70123Y-29218D01*
X70235Y-29218D02*
X70235Y-28824D01*
X70198Y-28880D01*
X70160Y-28918D01*
X70123Y-28937D01*
X70591Y-28824D02*
X70629Y-28824D01*
X70666Y-28843D01*
X70685Y-28862D01*
X70704Y-28899D01*
X70723Y-28974D01*
X70723Y-29068D01*
X70704Y-29143D01*
X70685Y-29180D01*
X70666Y-29199D01*
X70629Y-29218D01*
X70591Y-29218D01*
X70554Y-29199D01*
X70535Y-29180D01*
X70516Y-29143D01*
X70498Y-29068D01*
X70498Y-28974D01*
X70516Y-28899D01*
X70535Y-28862D01*
X70554Y-28843D01*
X70591Y-28824D01*
G54D13*
X53786Y-28362D02*
X53842Y-28381D01*
X53936Y-28381D01*
X53973Y-28362D01*
X53992Y-28343D01*
X54011Y-28306D01*
X54011Y-28268D01*
X53992Y-28231D01*
X53973Y-28212D01*
X53936Y-28193D01*
X53861Y-28175D01*
X53823Y-28156D01*
X53805Y-28137D01*
X53786Y-28100D01*
X53786Y-28062D01*
X53805Y-28025D01*
X53823Y-28006D01*
X53861Y-27987D01*
X53955Y-27987D01*
X54011Y-28006D01*
X54180Y-28118D02*
X54180Y-28512D01*
X54180Y-28137D02*
X54217Y-28118D01*
X54292Y-28118D01*
X54329Y-28137D01*
X54348Y-28156D01*
X54367Y-28193D01*
X54367Y-28306D01*
X54348Y-28343D01*
X54329Y-28362D01*
X54292Y-28381D01*
X54217Y-28381D01*
X54180Y-28362D01*
X54686Y-28362D02*
X54648Y-28381D01*
X54573Y-28381D01*
X54536Y-28362D01*
X54517Y-28325D01*
X54517Y-28175D01*
X54536Y-28137D01*
X54573Y-28118D01*
X54648Y-28118D01*
X54686Y-28137D01*
X54704Y-28175D01*
X54704Y-28212D01*
X54517Y-28250D01*
X55042Y-28362D02*
X55004Y-28381D01*
X54929Y-28381D01*
X54892Y-28362D01*
X54873Y-28343D01*
X54854Y-28306D01*
X54854Y-28193D01*
X54873Y-28156D01*
X54892Y-28137D01*
X54929Y-28118D01*
X55004Y-28118D01*
X55042Y-28137D01*
X55211Y-28381D02*
X55211Y-28118D01*
X55211Y-27987D02*
X55192Y-28006D01*
X55211Y-28025D01*
X55229Y-28006D01*
X55211Y-27987D01*
X55211Y-28025D01*
X55567Y-28381D02*
X55567Y-28175D01*
X55548Y-28137D01*
X55511Y-28118D01*
X55436Y-28118D01*
X55398Y-28137D01*
X55567Y-28362D02*
X55529Y-28381D01*
X55436Y-28381D01*
X55398Y-28362D01*
X55379Y-28325D01*
X55379Y-28287D01*
X55398Y-28250D01*
X55436Y-28231D01*
X55529Y-28231D01*
X55567Y-28212D01*
X55811Y-28381D02*
X55773Y-28362D01*
X55754Y-28325D01*
X55754Y-27987D01*
X56204Y-28118D02*
X56354Y-28118D01*
X56260Y-27987D02*
X56260Y-28325D01*
X56279Y-28362D01*
X56317Y-28381D01*
X56354Y-28381D01*
X56485Y-28381D02*
X56485Y-27987D01*
X56654Y-28381D02*
X56654Y-28175D01*
X56635Y-28137D01*
X56598Y-28118D01*
X56542Y-28118D01*
X56504Y-28137D01*
X56485Y-28156D01*
X57010Y-28381D02*
X57010Y-28175D01*
X56992Y-28137D01*
X56954Y-28118D01*
X56879Y-28118D01*
X56842Y-28137D01*
X57010Y-28362D02*
X56973Y-28381D01*
X56879Y-28381D01*
X56842Y-28362D01*
X56823Y-28325D01*
X56823Y-28287D01*
X56842Y-28250D01*
X56879Y-28231D01*
X56973Y-28231D01*
X57010Y-28212D01*
X57198Y-28118D02*
X57198Y-28381D01*
X57198Y-28156D02*
X57217Y-28137D01*
X57254Y-28118D01*
X57310Y-28118D01*
X57348Y-28137D01*
X57367Y-28175D01*
X57367Y-28381D01*
X57554Y-28381D02*
X57554Y-27987D01*
X57592Y-28231D02*
X57704Y-28381D01*
X57704Y-28118D02*
X57554Y-28268D01*
X57854Y-28362D02*
X57892Y-28381D01*
X57967Y-28381D01*
X58004Y-28362D01*
X58023Y-28325D01*
X58023Y-28306D01*
X58004Y-28268D01*
X57967Y-28250D01*
X57910Y-28250D01*
X57873Y-28231D01*
X57854Y-28193D01*
X57854Y-28175D01*
X57873Y-28137D01*
X57910Y-28118D01*
X57967Y-28118D01*
X58004Y-28137D01*
X58435Y-28118D02*
X58585Y-28118D01*
X58491Y-27987D02*
X58491Y-28325D01*
X58510Y-28362D01*
X58548Y-28381D01*
X58585Y-28381D01*
X58773Y-28381D02*
X58735Y-28362D01*
X58716Y-28343D01*
X58698Y-28306D01*
X58698Y-28193D01*
X58716Y-28156D01*
X58735Y-28137D01*
X58773Y-28118D01*
X58829Y-28118D01*
X58866Y-28137D01*
X58885Y-28156D01*
X58904Y-28193D01*
X58904Y-28306D01*
X58885Y-28343D01*
X58866Y-28362D01*
X58829Y-28381D01*
X58773Y-28381D01*
X59373Y-28381D02*
X59373Y-27987D01*
X59410Y-28231D02*
X59523Y-28381D01*
X59523Y-28118D02*
X59373Y-28268D01*
X59748Y-28381D02*
X59710Y-28362D01*
X59691Y-28343D01*
X59673Y-28306D01*
X59673Y-28193D01*
X59691Y-28156D01*
X59710Y-28137D01*
X59748Y-28118D01*
X59804Y-28118D01*
X59841Y-28137D01*
X59860Y-28156D01*
X59879Y-28193D01*
X59879Y-28306D01*
X59860Y-28343D01*
X59841Y-28362D01*
X59804Y-28381D01*
X59748Y-28381D01*
X60048Y-28381D02*
X60048Y-28118D01*
X60048Y-28156D02*
X60066Y-28137D01*
X60104Y-28118D01*
X60160Y-28118D01*
X60198Y-28137D01*
X60216Y-28175D01*
X60216Y-28381D01*
X60216Y-28175D02*
X60235Y-28137D01*
X60272Y-28118D01*
X60329Y-28118D01*
X60366Y-28137D01*
X60385Y-28175D01*
X60385Y-28381D01*
X60741Y-28381D02*
X60741Y-28175D01*
X60722Y-28137D01*
X60685Y-28118D01*
X60610Y-28118D01*
X60572Y-28137D01*
X60741Y-28362D02*
X60704Y-28381D01*
X60610Y-28381D01*
X60572Y-28362D01*
X60554Y-28325D01*
X60554Y-28287D01*
X60572Y-28250D01*
X60610Y-28231D01*
X60704Y-28231D01*
X60741Y-28212D01*
X60929Y-28381D02*
X60929Y-28118D01*
X60929Y-28193D02*
X60947Y-28156D01*
X60966Y-28137D01*
X61004Y-28118D01*
X61041Y-28118D01*
X61247Y-27987D02*
X61285Y-27987D01*
X61322Y-28006D01*
X61341Y-28025D01*
X61360Y-28062D01*
X61379Y-28137D01*
X61379Y-28231D01*
X61360Y-28306D01*
X61341Y-28343D01*
X61322Y-28362D01*
X61285Y-28381D01*
X61247Y-28381D01*
X61210Y-28362D01*
X61191Y-28343D01*
X61172Y-28306D01*
X61154Y-28231D01*
X61154Y-28137D01*
X61172Y-28062D01*
X61191Y-28025D01*
X61210Y-28006D01*
X61247Y-27987D01*
X61622Y-27987D02*
X61660Y-27987D01*
X61697Y-28006D01*
X61716Y-28025D01*
X61735Y-28062D01*
X61754Y-28137D01*
X61754Y-28231D01*
X61735Y-28306D01*
X61716Y-28343D01*
X61697Y-28362D01*
X61660Y-28381D01*
X61622Y-28381D01*
X61585Y-28362D01*
X61566Y-28343D01*
X61547Y-28306D01*
X61529Y-28231D01*
X61529Y-28137D01*
X61547Y-28062D01*
X61566Y-28025D01*
X61585Y-28006D01*
X61622Y-27987D01*
X61885Y-27987D02*
X62147Y-27987D01*
X61979Y-28381D01*
X62316Y-28362D02*
X62316Y-28381D01*
X62297Y-28418D01*
X62278Y-28437D01*
X52989Y-28971D02*
X52989Y-28578D01*
X52989Y-28728D02*
X53027Y-28709D01*
X53102Y-28709D01*
X53139Y-28728D01*
X53158Y-28746D01*
X53177Y-28784D01*
X53177Y-28896D01*
X53158Y-28934D01*
X53139Y-28953D01*
X53102Y-28971D01*
X53027Y-28971D01*
X52989Y-28953D01*
X53345Y-28709D02*
X53345Y-29103D01*
X53345Y-28728D02*
X53383Y-28709D01*
X53458Y-28709D01*
X53495Y-28728D01*
X53514Y-28746D01*
X53533Y-28784D01*
X53533Y-28896D01*
X53514Y-28934D01*
X53495Y-28953D01*
X53458Y-28971D01*
X53383Y-28971D01*
X53345Y-28953D01*
X53701Y-28971D02*
X53701Y-28709D01*
X53701Y-28578D02*
X53683Y-28597D01*
X53701Y-28615D01*
X53720Y-28597D01*
X53701Y-28578D01*
X53701Y-28615D01*
X53889Y-28709D02*
X53889Y-29103D01*
X53889Y-28728D02*
X53926Y-28709D01*
X54001Y-28709D01*
X54039Y-28728D01*
X54058Y-28746D01*
X54076Y-28784D01*
X54076Y-28896D01*
X54058Y-28934D01*
X54039Y-28953D01*
X54001Y-28971D01*
X53926Y-28971D01*
X53889Y-28953D01*
X54245Y-28971D02*
X54245Y-28578D01*
X54414Y-28971D02*
X54414Y-28765D01*
X54395Y-28728D01*
X54358Y-28709D01*
X54301Y-28709D01*
X54264Y-28728D01*
X54245Y-28746D01*
X54770Y-28971D02*
X54770Y-28765D01*
X54751Y-28728D01*
X54714Y-28709D01*
X54639Y-28709D01*
X54601Y-28728D01*
X54770Y-28953D02*
X54733Y-28971D01*
X54639Y-28971D01*
X54601Y-28953D01*
X54583Y-28915D01*
X54583Y-28878D01*
X54601Y-28840D01*
X54639Y-28821D01*
X54733Y-28821D01*
X54770Y-28803D01*
X54958Y-28709D02*
X54958Y-28971D01*
X54958Y-28746D02*
X54976Y-28728D01*
X55014Y-28709D01*
X55070Y-28709D01*
X55108Y-28728D01*
X55126Y-28765D01*
X55126Y-28971D01*
X55276Y-28709D02*
X55370Y-28971D01*
X55464Y-28709D02*
X55370Y-28971D01*
X55332Y-29065D01*
X55314Y-29084D01*
X55276Y-29103D01*
X55632Y-28953D02*
X55632Y-28971D01*
X55614Y-29009D01*
X55595Y-29028D01*
X56101Y-28971D02*
X56101Y-28578D01*
X56195Y-28578D01*
X56251Y-28597D01*
X56289Y-28634D01*
X56307Y-28671D01*
X56326Y-28746D01*
X56326Y-28803D01*
X56307Y-28878D01*
X56289Y-28915D01*
X56251Y-28953D01*
X56195Y-28971D01*
X56101Y-28971D01*
X56551Y-28971D02*
X56514Y-28953D01*
X56495Y-28934D01*
X56476Y-28896D01*
X56476Y-28784D01*
X56495Y-28746D01*
X56514Y-28728D01*
X56551Y-28709D01*
X56607Y-28709D01*
X56645Y-28728D01*
X56664Y-28746D01*
X56682Y-28784D01*
X56682Y-28896D01*
X56664Y-28934D01*
X56645Y-28953D01*
X56607Y-28971D01*
X56551Y-28971D01*
X56814Y-28971D02*
X57020Y-28709D01*
X56814Y-28709D02*
X57020Y-28971D01*
X57189Y-28953D02*
X57189Y-28971D01*
X57170Y-29009D01*
X57151Y-29028D01*
X57657Y-28709D02*
X57657Y-29046D01*
X57638Y-29084D01*
X57601Y-29103D01*
X57582Y-29103D01*
X57657Y-28578D02*
X57638Y-28597D01*
X57657Y-28615D01*
X57676Y-28597D01*
X57657Y-28578D01*
X57657Y-28615D01*
X58013Y-28971D02*
X58013Y-28578D01*
X58013Y-28953D02*
X57976Y-28971D01*
X57901Y-28971D01*
X57863Y-28953D01*
X57845Y-28934D01*
X57826Y-28896D01*
X57826Y-28784D01*
X57845Y-28746D01*
X57863Y-28728D01*
X57901Y-28709D01*
X57976Y-28709D01*
X58013Y-28728D01*
X58370Y-28953D02*
X58332Y-28971D01*
X58257Y-28971D01*
X58220Y-28953D01*
X58201Y-28934D01*
X58182Y-28896D01*
X58182Y-28784D01*
X58201Y-28746D01*
X58220Y-28728D01*
X58257Y-28709D01*
X58332Y-28709D01*
X58370Y-28728D01*
X58707Y-28971D02*
X58707Y-28765D01*
X58688Y-28728D01*
X58651Y-28709D01*
X58576Y-28709D01*
X58538Y-28728D01*
X58707Y-28953D02*
X58670Y-28971D01*
X58576Y-28971D01*
X58538Y-28953D01*
X58520Y-28915D01*
X58520Y-28878D01*
X58538Y-28840D01*
X58576Y-28821D01*
X58670Y-28821D01*
X58707Y-28803D01*
X58895Y-28971D02*
X58895Y-28709D01*
X58895Y-28784D02*
X58913Y-28746D01*
X58932Y-28728D01*
X58970Y-28709D01*
X59007Y-28709D01*
X59138Y-28709D02*
X59138Y-29103D01*
X59138Y-28728D02*
X59176Y-28709D01*
X59251Y-28709D01*
X59288Y-28728D01*
X59307Y-28746D01*
X59326Y-28784D01*
X59326Y-28896D01*
X59307Y-28934D01*
X59288Y-28953D01*
X59251Y-28971D01*
X59176Y-28971D01*
X59138Y-28953D01*
X59644Y-28953D02*
X59607Y-28971D01*
X59532Y-28971D01*
X59494Y-28953D01*
X59476Y-28915D01*
X59476Y-28765D01*
X59494Y-28728D01*
X59532Y-28709D01*
X59607Y-28709D01*
X59644Y-28728D01*
X59663Y-28765D01*
X59663Y-28803D01*
X59476Y-28840D01*
X60301Y-28971D02*
X60301Y-28765D01*
X60282Y-28728D01*
X60244Y-28709D01*
X60169Y-28709D01*
X60132Y-28728D01*
X60301Y-28953D02*
X60263Y-28971D01*
X60169Y-28971D01*
X60132Y-28953D01*
X60113Y-28915D01*
X60113Y-28878D01*
X60132Y-28840D01*
X60169Y-28821D01*
X60263Y-28821D01*
X60301Y-28803D01*
X60488Y-28709D02*
X60488Y-28971D01*
X60488Y-28746D02*
X60507Y-28728D01*
X60544Y-28709D01*
X60601Y-28709D01*
X60638Y-28728D01*
X60657Y-28765D01*
X60657Y-28971D01*
X61013Y-28971D02*
X61013Y-28578D01*
X61013Y-28953D02*
X60976Y-28971D01*
X60901Y-28971D01*
X60863Y-28953D01*
X60844Y-28934D01*
X60826Y-28896D01*
X60826Y-28784D01*
X60844Y-28746D01*
X60863Y-28728D01*
X60901Y-28709D01*
X60976Y-28709D01*
X61013Y-28728D01*
X61725Y-28971D02*
X61594Y-28784D01*
X61500Y-28971D02*
X61500Y-28578D01*
X61650Y-28578D01*
X61688Y-28597D01*
X61707Y-28615D01*
X61725Y-28653D01*
X61725Y-28709D01*
X61707Y-28746D01*
X61688Y-28765D01*
X61650Y-28784D01*
X61500Y-28784D01*
X62044Y-28953D02*
X62007Y-28971D01*
X61932Y-28971D01*
X61894Y-28953D01*
X61875Y-28915D01*
X61875Y-28765D01*
X61894Y-28728D01*
X61932Y-28709D01*
X62007Y-28709D01*
X62044Y-28728D01*
X62063Y-28765D01*
X62063Y-28803D01*
X61875Y-28840D01*
X62400Y-28709D02*
X62400Y-29028D01*
X62382Y-29065D01*
X62363Y-29084D01*
X62325Y-29103D01*
X62269Y-29103D01*
X62232Y-29084D01*
X62400Y-28953D02*
X62363Y-28971D01*
X62288Y-28971D01*
X62250Y-28953D01*
X62232Y-28934D01*
X62213Y-28896D01*
X62213Y-28784D01*
X62232Y-28746D01*
X62250Y-28728D01*
X62288Y-28709D01*
X62363Y-28709D01*
X62400Y-28728D01*
X62757Y-28971D02*
X62757Y-28765D01*
X62738Y-28728D01*
X62700Y-28709D01*
X62625Y-28709D01*
X62588Y-28728D01*
X62757Y-28953D02*
X62719Y-28971D01*
X62625Y-28971D01*
X62588Y-28953D01*
X62569Y-28915D01*
X62569Y-28878D01*
X62588Y-28840D01*
X62625Y-28821D01*
X62719Y-28821D01*
X62757Y-28803D01*
X63113Y-28953D02*
X63075Y-28971D01*
X63000Y-28971D01*
X62963Y-28953D01*
X62944Y-28934D01*
X62925Y-28896D01*
X62925Y-28784D01*
X62944Y-28746D01*
X62963Y-28728D01*
X63000Y-28709D01*
X63075Y-28709D01*
X63113Y-28728D01*
X63281Y-28971D02*
X63281Y-28578D01*
X63319Y-28821D02*
X63431Y-28971D01*
X63431Y-28709D02*
X63281Y-28859D01*
G54D12*
X51069Y-27321D02*
X51069Y-26993D01*
X51069Y-26829D02*
X51041Y-26852D01*
X51069Y-26875D01*
X51097Y-26852D01*
X51069Y-26829D01*
X51069Y-26875D01*
X51350Y-26993D02*
X51350Y-27321D01*
X51350Y-27040D02*
X51378Y-27016D01*
X51435Y-26993D01*
X51519Y-26993D01*
X51575Y-27016D01*
X51603Y-27063D01*
X51603Y-27321D01*
X52334Y-27321D02*
X52334Y-26993D01*
X52334Y-27086D02*
X52363Y-27040D01*
X52391Y-27016D01*
X52447Y-26993D01*
X52503Y-26993D01*
X52925Y-27297D02*
X52869Y-27321D01*
X52756Y-27321D01*
X52700Y-27297D01*
X52672Y-27250D01*
X52672Y-27063D01*
X52700Y-27016D01*
X52756Y-26993D01*
X52869Y-26993D01*
X52925Y-27016D01*
X52953Y-27063D01*
X52953Y-27110D01*
X52672Y-27157D01*
X53206Y-27321D02*
X53206Y-26993D01*
X53206Y-27040D02*
X53234Y-27016D01*
X53291Y-26993D01*
X53375Y-26993D01*
X53431Y-27016D01*
X53459Y-27063D01*
X53459Y-27321D01*
X53459Y-27063D02*
X53487Y-27016D01*
X53544Y-26993D01*
X53628Y-26993D01*
X53684Y-27016D01*
X53712Y-27063D01*
X53712Y-27321D01*
X54219Y-27297D02*
X54162Y-27321D01*
X54050Y-27321D01*
X53994Y-27297D01*
X53965Y-27250D01*
X53965Y-27063D01*
X53994Y-27016D01*
X54050Y-26993D01*
X54162Y-26993D01*
X54219Y-27016D01*
X54247Y-27063D01*
X54247Y-27110D01*
X53965Y-27157D01*
X54500Y-27321D02*
X54500Y-26993D01*
X54500Y-27040D02*
X54528Y-27016D01*
X54584Y-26993D01*
X54668Y-26993D01*
X54725Y-27016D01*
X54753Y-27063D01*
X54753Y-27321D01*
X54753Y-27063D02*
X54781Y-27016D01*
X54837Y-26993D01*
X54922Y-26993D01*
X54978Y-27016D01*
X55006Y-27063D01*
X55006Y-27321D01*
X55287Y-27321D02*
X55287Y-26829D01*
X55287Y-27016D02*
X55343Y-26993D01*
X55456Y-26993D01*
X55512Y-27016D01*
X55540Y-27040D01*
X55568Y-27086D01*
X55568Y-27227D01*
X55540Y-27274D01*
X55512Y-27297D01*
X55456Y-27321D01*
X55343Y-27321D01*
X55287Y-27297D01*
X55821Y-27321D02*
X55821Y-26993D01*
X55821Y-27086D02*
X55850Y-27040D01*
X55878Y-27016D01*
X55934Y-26993D01*
X55990Y-26993D01*
X56440Y-27321D02*
X56440Y-27063D01*
X56412Y-27016D01*
X56356Y-26993D01*
X56243Y-26993D01*
X56187Y-27016D01*
X56440Y-27297D02*
X56384Y-27321D01*
X56243Y-27321D01*
X56187Y-27297D01*
X56159Y-27250D01*
X56159Y-27204D01*
X56187Y-27157D01*
X56243Y-27133D01*
X56384Y-27133D01*
X56440Y-27110D01*
X56721Y-26993D02*
X56721Y-27321D01*
X56721Y-27040D02*
X56749Y-27016D01*
X56806Y-26993D01*
X56890Y-26993D01*
X56946Y-27016D01*
X56974Y-27063D01*
X56974Y-27321D01*
X57509Y-27297D02*
X57453Y-27321D01*
X57340Y-27321D01*
X57284Y-27297D01*
X57256Y-27274D01*
X57228Y-27227D01*
X57228Y-27086D01*
X57256Y-27040D01*
X57284Y-27016D01*
X57340Y-26993D01*
X57453Y-26993D01*
X57509Y-27016D01*
X57987Y-27297D02*
X57931Y-27321D01*
X57818Y-27321D01*
X57762Y-27297D01*
X57734Y-27250D01*
X57734Y-27063D01*
X57762Y-27016D01*
X57818Y-26993D01*
X57931Y-26993D01*
X57987Y-27016D01*
X58015Y-27063D01*
X58015Y-27110D01*
X57734Y-27157D01*
X58802Y-27321D02*
X58746Y-27297D01*
X58718Y-27274D01*
X58690Y-27227D01*
X58690Y-27086D01*
X58718Y-27040D01*
X58746Y-27016D01*
X58802Y-26993D01*
X58887Y-26993D01*
X58943Y-27016D01*
X58971Y-27040D01*
X58999Y-27086D01*
X58999Y-27227D01*
X58971Y-27274D01*
X58943Y-27297D01*
X58887Y-27321D01*
X58802Y-27321D01*
X59168Y-26993D02*
X59393Y-26993D01*
X59252Y-27321D02*
X59252Y-26899D01*
X59280Y-26852D01*
X59337Y-26829D01*
X59393Y-26829D01*
X60040Y-27321D02*
X60040Y-26829D01*
X60377Y-27321D01*
X60377Y-26829D01*
X60911Y-27321D02*
X60911Y-27063D01*
X60883Y-27016D01*
X60827Y-26993D01*
X60715Y-26993D01*
X60658Y-27016D01*
X60911Y-27297D02*
X60855Y-27321D01*
X60715Y-27321D01*
X60658Y-27297D01*
X60630Y-27250D01*
X60630Y-27204D01*
X60658Y-27157D01*
X60715Y-27133D01*
X60855Y-27133D01*
X60911Y-27110D01*
X61108Y-26993D02*
X61333Y-26993D01*
X61193Y-26829D02*
X61193Y-27250D01*
X61221Y-27297D01*
X61277Y-27321D01*
X61333Y-27321D01*
X61755Y-27297D02*
X61699Y-27321D01*
X61586Y-27321D01*
X61530Y-27297D01*
X61502Y-27250D01*
X61502Y-27063D01*
X61530Y-27016D01*
X61586Y-26993D01*
X61699Y-26993D01*
X61755Y-27016D01*
X61783Y-27063D01*
X61783Y-27110D01*
X61502Y-27157D01*
X62430Y-26829D02*
X62571Y-27321D01*
X62683Y-26969D01*
X62796Y-27321D01*
X62936Y-26829D01*
X63414Y-27321D02*
X63414Y-27063D01*
X63386Y-27016D01*
X63330Y-26993D01*
X63217Y-26993D01*
X63161Y-27016D01*
X63414Y-27297D02*
X63358Y-27321D01*
X63217Y-27321D01*
X63161Y-27297D01*
X63133Y-27250D01*
X63133Y-27204D01*
X63161Y-27157D01*
X63217Y-27133D01*
X63358Y-27133D01*
X63414Y-27110D01*
X63780Y-27321D02*
X63724Y-27297D01*
X63695Y-27250D01*
X63695Y-26829D01*
X63920Y-26993D02*
X64145Y-26993D01*
X64005Y-26829D02*
X64005Y-27250D01*
X64033Y-27297D01*
X64089Y-27321D01*
X64145Y-27321D01*
X64567Y-27297D02*
X64511Y-27321D01*
X64399Y-27321D01*
X64342Y-27297D01*
X64314Y-27250D01*
X64314Y-27063D01*
X64342Y-27016D01*
X64399Y-26993D01*
X64511Y-26993D01*
X64567Y-27016D01*
X64595Y-27063D01*
X64595Y-27110D01*
X64314Y-27157D01*
X64848Y-27321D02*
X64848Y-26993D01*
X64848Y-27086D02*
X64877Y-27040D01*
X64905Y-27016D01*
X64961Y-26993D01*
X65017Y-26993D01*
G54D14*
X55633Y-25930D02*
X55867Y-25930D01*
X55568Y-26071D02*
X55794Y-25579D01*
X55897Y-26071D01*
X56687Y-25743D02*
X56646Y-26071D01*
X56594Y-25555D02*
X56433Y-25907D01*
X56737Y-25907D01*
X57060Y-25579D02*
X57106Y-25579D01*
X57150Y-25602D01*
X57171Y-25625D01*
X57188Y-25672D01*
X57200Y-25766D01*
X57185Y-25883D01*
X57150Y-25977D01*
X57121Y-26024D01*
X57095Y-26047D01*
X57045Y-26071D01*
X56998Y-26071D01*
X56954Y-26047D01*
X56934Y-26024D01*
X56916Y-25977D01*
X56904Y-25883D01*
X56919Y-25766D01*
X56954Y-25672D01*
X56983Y-25625D01*
X57010Y-25602D01*
X57060Y-25579D01*
X57350Y-26071D02*
X57786Y-25579D01*
X57481Y-25579D02*
X57525Y-25602D01*
X57543Y-25649D01*
X57514Y-25696D01*
X57464Y-25719D01*
X57420Y-25696D01*
X57402Y-25649D01*
X57432Y-25602D01*
X57481Y-25579D01*
X57704Y-26047D02*
X57733Y-26000D01*
X57716Y-25954D01*
X57672Y-25930D01*
X57622Y-25954D01*
X57593Y-26000D01*
X57610Y-26047D01*
X57654Y-26071D01*
X57704Y-26047D01*
X58310Y-26071D02*
X58372Y-25579D01*
X58489Y-25579D01*
X58556Y-25602D01*
X58597Y-25649D01*
X58615Y-25696D01*
X58627Y-25790D01*
X58618Y-25860D01*
X58583Y-25954D01*
X58553Y-26000D01*
X58501Y-26047D01*
X58427Y-26071D01*
X58310Y-26071D01*
X58993Y-26047D02*
X58943Y-26071D01*
X58849Y-26071D01*
X58805Y-26047D01*
X58788Y-26000D01*
X58811Y-25813D01*
X58841Y-25766D01*
X58890Y-25743D01*
X58984Y-25743D01*
X59028Y-25766D01*
X59046Y-25813D01*
X59040Y-25860D01*
X58800Y-25907D01*
X59204Y-26047D02*
X59248Y-26071D01*
X59341Y-26071D01*
X59391Y-26047D01*
X59421Y-26000D01*
X59423Y-25977D01*
X59406Y-25930D01*
X59362Y-25907D01*
X59292Y-25907D01*
X59248Y-25883D01*
X59230Y-25836D01*
X59233Y-25813D01*
X59262Y-25766D01*
X59312Y-25743D01*
X59382Y-25743D01*
X59426Y-25766D01*
X59623Y-26071D02*
X59664Y-25743D01*
X59684Y-25579D02*
X59658Y-25602D01*
X59678Y-25625D01*
X59705Y-25602D01*
X59684Y-25579D01*
X59678Y-25625D01*
X60109Y-25743D02*
X60059Y-26141D01*
X60030Y-26188D01*
X60003Y-26211D01*
X59954Y-26235D01*
X59883Y-26235D01*
X59839Y-26211D01*
X60071Y-26047D02*
X60021Y-26071D01*
X59927Y-26071D01*
X59883Y-26047D01*
X59863Y-26024D01*
X59845Y-25977D01*
X59863Y-25836D01*
X59892Y-25790D01*
X59919Y-25766D01*
X59968Y-25743D01*
X60062Y-25743D01*
X60106Y-25766D01*
X60343Y-25743D02*
X60302Y-26071D01*
X60337Y-25790D02*
X60364Y-25766D01*
X60414Y-25743D01*
X60484Y-25743D01*
X60528Y-25766D01*
X60545Y-25813D01*
X60513Y-26071D01*
G54D15*
X51095Y-23669D02*
X51545Y-23669D01*
X51173Y-24850D02*
X51320Y-23669D01*
X51660Y-24850D02*
X51808Y-23669D01*
X51998Y-24850D02*
X52075Y-24231D01*
X52052Y-24118D01*
X51984Y-24062D01*
X51871Y-24062D01*
X51789Y-24118D01*
X51745Y-24175D01*
X52680Y-24793D02*
X52598Y-24850D01*
X52448Y-24850D01*
X52380Y-24793D01*
X52356Y-24681D01*
X52412Y-24231D01*
X52464Y-24118D01*
X52546Y-24062D01*
X52696Y-24062D01*
X52764Y-24118D01*
X52787Y-24231D01*
X52773Y-24343D01*
X52384Y-24456D01*
X53617Y-24793D02*
X53722Y-24850D01*
X53910Y-24850D01*
X53992Y-24793D01*
X54036Y-24737D01*
X54088Y-24625D01*
X54102Y-24512D01*
X54079Y-24400D01*
X54048Y-24343D01*
X53980Y-24287D01*
X53837Y-24231D01*
X53769Y-24175D01*
X53739Y-24118D01*
X53715Y-24006D01*
X53730Y-23893D01*
X53781Y-23781D01*
X53826Y-23725D01*
X53908Y-23669D01*
X54095Y-23669D01*
X54201Y-23725D01*
X54397Y-24850D02*
X54496Y-24062D01*
X54482Y-24175D02*
X54526Y-24118D01*
X54608Y-24062D01*
X54721Y-24062D01*
X54789Y-24118D01*
X54812Y-24231D01*
X54735Y-24850D01*
X54812Y-24231D02*
X54864Y-24118D01*
X54946Y-24062D01*
X55058Y-24062D01*
X55126Y-24118D01*
X55150Y-24231D01*
X55072Y-24850D01*
X55785Y-24850D02*
X55862Y-24231D01*
X55839Y-24118D01*
X55771Y-24062D01*
X55621Y-24062D01*
X55539Y-24118D01*
X55792Y-24793D02*
X55710Y-24850D01*
X55522Y-24850D01*
X55454Y-24793D01*
X55431Y-24681D01*
X55445Y-24568D01*
X55496Y-24456D01*
X55578Y-24400D01*
X55766Y-24400D01*
X55848Y-24343D01*
X56272Y-24850D02*
X56204Y-24793D01*
X56181Y-24681D01*
X56307Y-23669D01*
X56685Y-24850D02*
X56617Y-24793D01*
X56593Y-24681D01*
X56720Y-23669D01*
X57324Y-24231D02*
X57062Y-24231D01*
X56985Y-24850D02*
X57132Y-23669D01*
X57507Y-23669D01*
X57659Y-24850D02*
X57758Y-24062D01*
X57730Y-24287D02*
X57781Y-24175D01*
X57826Y-24118D01*
X57908Y-24062D01*
X57983Y-24062D01*
X58170Y-24062D02*
X58259Y-24850D01*
X58545Y-24062D02*
X58259Y-24850D01*
X58149Y-25131D01*
X58105Y-25187D01*
X58023Y-25243D01*
X59347Y-24850D02*
X59494Y-23669D01*
X59797Y-24850D02*
X59544Y-24175D01*
X59944Y-23669D02*
X59410Y-24343D01*
X60441Y-24793D02*
X60359Y-24850D01*
X60209Y-24850D01*
X60141Y-24793D01*
X60118Y-24681D01*
X60174Y-24231D01*
X60226Y-24118D01*
X60308Y-24062D01*
X60458Y-24062D01*
X60526Y-24118D01*
X60549Y-24231D01*
X60535Y-24343D01*
X60146Y-24456D01*
X60833Y-24062D02*
X60922Y-24850D01*
X61207Y-24062D02*
X60922Y-24850D01*
X60811Y-25131D01*
X60767Y-25187D01*
X60685Y-25243D01*
X61409Y-24850D02*
X61557Y-23669D01*
X61500Y-24118D02*
X61582Y-24062D01*
X61732Y-24062D01*
X61800Y-24118D01*
X61831Y-24175D01*
X61854Y-24287D01*
X61812Y-24625D01*
X61761Y-24737D01*
X61716Y-24793D01*
X61634Y-24850D01*
X61484Y-24850D01*
X61416Y-24793D01*
X62234Y-24850D02*
X62166Y-24793D01*
X62135Y-24737D01*
X62112Y-24625D01*
X62154Y-24287D01*
X62206Y-24175D01*
X62250Y-24118D01*
X62332Y-24062D01*
X62445Y-24062D01*
X62513Y-24118D01*
X62543Y-24175D01*
X62567Y-24287D01*
X62525Y-24625D01*
X62473Y-24737D01*
X62428Y-24793D01*
X62346Y-24850D01*
X62234Y-24850D01*
X63171Y-24850D02*
X63249Y-24231D01*
X63225Y-24118D01*
X63157Y-24062D01*
X63007Y-24062D01*
X62925Y-24118D01*
X63178Y-24793D02*
X63096Y-24850D01*
X62909Y-24850D01*
X62841Y-24793D01*
X62817Y-24681D01*
X62831Y-24568D01*
X62883Y-24456D01*
X62965Y-24400D01*
X63153Y-24400D01*
X63235Y-24343D01*
X63546Y-24850D02*
X63645Y-24062D01*
X63617Y-24287D02*
X63668Y-24175D01*
X63713Y-24118D01*
X63795Y-24062D01*
X63870Y-24062D01*
X64371Y-24850D02*
X64519Y-23669D01*
X64378Y-24793D02*
X64296Y-24850D01*
X64146Y-24850D01*
X64078Y-24793D01*
X64048Y-24737D01*
X64024Y-24625D01*
X64066Y-24287D01*
X64118Y-24175D01*
X64163Y-24118D01*
X64245Y-24062D01*
X64395Y-24062D01*
X64463Y-24118D01*
G54D16*
X25738Y-10509D02*
X25738Y-8934D01*
X26113Y-8934D01*
X26338Y-9009D01*
X26488Y-9159D01*
X26563Y-9309D01*
X26638Y-9609D01*
X26638Y-9834D01*
X26563Y-10134D01*
X26488Y-10284D01*
X26338Y-10434D01*
X26113Y-10509D01*
X25738Y-10509D01*
X18201Y-10434D02*
X18426Y-10509D01*
X18801Y-10509D01*
X18951Y-10434D01*
X19026Y-10359D01*
X19101Y-10209D01*
X19101Y-10059D01*
X19026Y-9909D01*
X18951Y-9834D01*
X18801Y-9759D01*
X18501Y-9684D01*
X18351Y-9609D01*
X18276Y-9534D01*
X18201Y-9384D01*
X18201Y-9234D01*
X18276Y-9084D01*
X18351Y-9009D01*
X18501Y-8934D01*
X18876Y-8934D01*
X19101Y-9009D01*
X10651Y-10046D02*
X11401Y-10046D01*
X10501Y-10496D02*
X11026Y-8921D01*
X11551Y-10496D01*
X16285Y-1421D02*
X16641Y-2996D01*
X16926Y-1871D01*
X17211Y-2996D01*
X17567Y-1421D01*
G54D17*
X7051Y-28622D02*
X6351Y-28622D01*
X2751Y-28622D02*
X2051Y-28622D01*
X2051Y-28622D02*
X2051Y-27922D01*
X2051Y-24322D02*
X2051Y-23622D01*
X2051Y-23622D02*
X2751Y-23622D01*
X6351Y-23622D02*
X7051Y-23622D01*
X7051Y-23622D02*
X7051Y-24322D01*
X7051Y-27922D02*
X7051Y-28622D01*
X7051Y-13622D02*
X6351Y-13622D01*
X2751Y-13622D02*
X2051Y-13622D01*
X2051Y-13622D02*
X2051Y-12922D01*
X2051Y-9322D02*
X2051Y-8622D01*
X2051Y-8622D02*
X2751Y-8622D01*
X6351Y-8622D02*
X7051Y-8622D01*
X7051Y-8622D02*
X7051Y-9322D01*
X7051Y-12922D02*
X7051Y-13622D01*
X8901Y-21122D02*
X8201Y-21122D01*
X4601Y-21122D02*
X3901Y-21122D01*
X3901Y-21122D02*
X3901Y-20422D01*
X3901Y-16822D02*
X3901Y-16122D01*
X3901Y-16122D02*
X4601Y-16122D01*
X8201Y-16122D02*
X8901Y-16122D01*
X8901Y-16122D02*
X8901Y-16822D01*
X8901Y-20422D02*
X8901Y-21122D01*
X88601Y-21122D02*
X87901Y-21122D01*
X84301Y-21122D02*
X83601Y-21122D01*
X83601Y-21122D02*
X83601Y-20422D01*
X83601Y-16822D02*
X83601Y-16122D01*
X83601Y-16122D02*
X84301Y-16122D01*
X87901Y-16122D02*
X88601Y-16122D01*
X88601Y-16122D02*
X88601Y-16822D01*
X88601Y-20422D02*
X88601Y-21122D01*
X53001Y-13622D02*
X52301Y-13622D01*
X48701Y-13622D02*
X48001Y-13622D01*
X48001Y-13622D02*
X48001Y-12922D01*
X48001Y-9322D02*
X48001Y-8622D01*
X48001Y-8622D02*
X48701Y-8622D01*
X52301Y-8622D02*
X53001Y-8622D01*
X53001Y-8622D02*
X53001Y-9322D01*
X53001Y-12922D02*
X53001Y-13622D01*
X73601Y-6122D02*
X72901Y-6122D01*
X69301Y-6122D02*
X68601Y-6122D01*
X68601Y-6122D02*
X68601Y-5422D01*
X68601Y-1822D02*
X68601Y-1122D01*
X68601Y-1122D02*
X69301Y-1122D01*
X72901Y-1122D02*
X73601Y-1122D01*
X73601Y-1122D02*
X73601Y-1822D01*
X73601Y-5422D02*
X73601Y-6122D01*
X36101Y-6122D02*
X35401Y-6122D01*
X31801Y-6122D02*
X31101Y-6122D01*
X31101Y-6122D02*
X31101Y-5422D01*
X31101Y-1822D02*
X31101Y-1122D01*
X31101Y-1122D02*
X31801Y-1122D01*
X35401Y-1122D02*
X36101Y-1122D01*
X36101Y-1122D02*
X36101Y-1822D01*
X36101Y-5422D02*
X36101Y-6122D01*
X87651Y-28622D02*
X86951Y-28622D01*
X83351Y-28622D02*
X82651Y-28622D01*
X82651Y-28622D02*
X82651Y-27922D01*
X82651Y-24322D02*
X82651Y-23622D01*
X82651Y-23622D02*
X83351Y-23622D01*
X86951Y-23622D02*
X87651Y-23622D01*
X87651Y-23622D02*
X87651Y-24322D01*
X87651Y-27922D02*
X87651Y-28622D01*
X78301Y-28622D02*
X77601Y-28622D01*
X74001Y-28622D02*
X73301Y-28622D01*
X73301Y-28622D02*
X73301Y-27922D01*
X73301Y-24322D02*
X73301Y-23622D01*
X73301Y-23622D02*
X74001Y-23622D01*
X77601Y-23622D02*
X78301Y-23622D01*
X78301Y-23622D02*
X78301Y-24322D01*
X78301Y-27922D02*
X78301Y-28622D01*
X23001Y-28622D02*
X22301Y-28622D01*
X18701Y-28622D02*
X18001Y-28622D01*
X18001Y-28622D02*
X18001Y-27922D01*
X18001Y-24322D02*
X18001Y-23622D01*
X18001Y-23622D02*
X18701Y-23622D01*
X22301Y-23622D02*
X23001Y-23622D01*
X23001Y-23622D02*
X23001Y-24322D01*
X23001Y-27922D02*
X23001Y-28622D01*
X15501Y-28622D02*
X14801Y-28622D01*
X11201Y-28622D02*
X10501Y-28622D01*
X10501Y-28622D02*
X10501Y-27922D01*
X10501Y-24322D02*
X10501Y-23622D01*
X10501Y-23622D02*
X11201Y-23622D01*
X14801Y-23622D02*
X15501Y-23622D01*
X15501Y-23622D02*
X15501Y-24322D01*
X15501Y-27922D02*
X15501Y-28622D01*
X80151Y-21122D02*
X79451Y-21122D01*
X75851Y-21122D02*
X75151Y-21122D01*
X75151Y-21122D02*
X75151Y-20422D01*
X75151Y-16822D02*
X75151Y-16122D01*
X75151Y-16122D02*
X75851Y-16122D01*
X79451Y-16122D02*
X80151Y-16122D01*
X80151Y-16122D02*
X80151Y-16822D01*
X80151Y-20422D02*
X80151Y-21122D01*
X71701Y-21122D02*
X71001Y-21122D01*
X67401Y-21122D02*
X66701Y-21122D01*
X66701Y-21122D02*
X66701Y-20422D01*
X66701Y-16822D02*
X66701Y-16122D01*
X66701Y-16122D02*
X67401Y-16122D01*
X71001Y-16122D02*
X71701Y-16122D01*
X71701Y-16122D02*
X71701Y-16822D01*
X71701Y-20422D02*
X71701Y-21122D01*
X30501Y-13622D02*
X29801Y-13622D01*
X26201Y-13622D02*
X25501Y-13622D01*
X25501Y-13622D02*
X25501Y-12922D01*
X25501Y-9322D02*
X25501Y-8622D01*
X25501Y-8622D02*
X26201Y-8622D01*
X29801Y-8622D02*
X30501Y-8622D01*
X30501Y-8622D02*
X30501Y-9322D01*
X30501Y-12922D02*
X30501Y-13622D01*
X23001Y-13622D02*
X22301Y-13622D01*
X18701Y-13622D02*
X18001Y-13622D01*
X18001Y-13622D02*
X18001Y-12922D01*
X18001Y-9322D02*
X18001Y-8622D01*
X18001Y-8622D02*
X18701Y-8622D01*
X22301Y-8622D02*
X23001Y-8622D01*
X23001Y-8622D02*
X23001Y-9322D01*
X23001Y-12922D02*
X23001Y-13622D01*
X15501Y-13622D02*
X14801Y-13622D01*
X11201Y-13622D02*
X10501Y-13622D01*
X10501Y-13622D02*
X10501Y-12922D01*
X10501Y-9322D02*
X10501Y-8622D01*
X10501Y-8622D02*
X11201Y-8622D01*
X14801Y-8622D02*
X15501Y-8622D01*
X15501Y-8622D02*
X15501Y-9322D01*
X15501Y-12922D02*
X15501Y-13622D01*
X88601Y-6122D02*
X87901Y-6122D01*
X84301Y-6122D02*
X83601Y-6122D01*
X83601Y-6122D02*
X83601Y-5422D01*
X83601Y-1822D02*
X83601Y-1122D01*
X83601Y-1122D02*
X84301Y-1122D01*
X87901Y-1122D02*
X88601Y-1122D01*
X88601Y-1122D02*
X88601Y-1822D01*
X88601Y-5422D02*
X88601Y-6122D01*
X66101Y-6122D02*
X65401Y-6122D01*
X61801Y-6122D02*
X61101Y-6122D01*
X61101Y-6122D02*
X61101Y-5422D01*
X61101Y-1822D02*
X61101Y-1122D01*
X61101Y-1122D02*
X61801Y-1122D01*
X65401Y-1122D02*
X66101Y-1122D01*
X66101Y-1122D02*
X66101Y-1822D01*
X66101Y-5422D02*
X66101Y-6122D01*
X58601Y-6122D02*
X57901Y-6122D01*
X54301Y-6122D02*
X53601Y-6122D01*
X53601Y-6122D02*
X53601Y-5422D01*
X53601Y-1822D02*
X53601Y-1122D01*
X53601Y-1122D02*
X54301Y-1122D01*
X57901Y-1122D02*
X58601Y-1122D01*
X58601Y-1122D02*
X58601Y-1822D01*
X58601Y-5422D02*
X58601Y-6122D01*
X51101Y-6122D02*
X50401Y-6122D01*
X46801Y-6122D02*
X46101Y-6122D01*
X46101Y-6122D02*
X46101Y-5422D01*
X46101Y-1822D02*
X46101Y-1122D01*
X46101Y-1122D02*
X46801Y-1122D01*
X50401Y-1122D02*
X51101Y-1122D01*
X51101Y-1122D02*
X51101Y-1822D01*
X51101Y-5422D02*
X51101Y-6122D01*
X43601Y-6122D02*
X42901Y-6122D01*
X39301Y-6122D02*
X38601Y-6122D01*
X38601Y-6122D02*
X38601Y-5422D01*
X38601Y-1822D02*
X38601Y-1122D01*
X38601Y-1122D02*
X39301Y-1122D01*
X42901Y-1122D02*
X43601Y-1122D01*
X43601Y-1122D02*
X43601Y-1822D01*
X43601Y-5422D02*
X43601Y-6122D01*
X28601Y-6122D02*
X27901Y-6122D01*
X24301Y-6122D02*
X23601Y-6122D01*
X23601Y-6122D02*
X23601Y-5422D01*
X23601Y-1822D02*
X23601Y-1122D01*
X23601Y-1122D02*
X24301Y-1122D01*
X27901Y-1122D02*
X28601Y-1122D01*
X28601Y-1122D02*
X28601Y-1822D01*
X28601Y-5422D02*
X28601Y-6122D01*
X21101Y-6122D02*
X20401Y-6122D01*
X16801Y-6122D02*
X16101Y-6122D01*
X16101Y-6122D02*
X16101Y-5422D01*
X16101Y-1822D02*
X16101Y-1122D01*
X16101Y-1122D02*
X16801Y-1122D01*
X20401Y-1122D02*
X21101Y-1122D01*
X21101Y-1122D02*
X21101Y-1822D01*
X21101Y-5422D02*
X21101Y-6122D01*
X13601Y-6122D02*
X12901Y-6122D01*
X9301Y-6122D02*
X8601Y-6122D01*
X8601Y-6122D02*
X8601Y-5422D01*
X8601Y-1822D02*
X8601Y-1122D01*
X8601Y-1122D02*
X9301Y-1122D01*
X12901Y-1122D02*
X13601Y-1122D01*
X13601Y-1122D02*
X13601Y-1822D01*
X13601Y-5422D02*
X13601Y-6122D01*
X64201Y-21122D02*
X63501Y-21122D01*
X59901Y-21122D02*
X59201Y-21122D01*
X59201Y-21122D02*
X59201Y-20422D01*
X59201Y-16822D02*
X59201Y-16122D01*
X59201Y-16122D02*
X59901Y-16122D01*
X63501Y-16122D02*
X64201Y-16122D01*
X64201Y-16122D02*
X64201Y-16822D01*
X64201Y-20422D02*
X64201Y-21122D01*
X56701Y-21122D02*
X56001Y-21122D01*
X52401Y-21122D02*
X51701Y-21122D01*
X51701Y-21122D02*
X51701Y-20422D01*
X51701Y-16822D02*
X51701Y-16122D01*
X51701Y-16122D02*
X52401Y-16122D01*
X56001Y-16122D02*
X56701Y-16122D01*
X56701Y-16122D02*
X56701Y-16822D01*
X56701Y-20422D02*
X56701Y-21122D01*
X49201Y-21122D02*
X48501Y-21122D01*
X44901Y-21122D02*
X44201Y-21122D01*
X44201Y-21122D02*
X44201Y-20422D01*
X44201Y-16822D02*
X44201Y-16122D01*
X44201Y-16122D02*
X44901Y-16122D01*
X48501Y-16122D02*
X49201Y-16122D01*
X49201Y-16122D02*
X49201Y-16822D01*
X49201Y-20422D02*
X49201Y-21122D01*
X41701Y-21122D02*
X41001Y-21122D01*
X37401Y-21122D02*
X36701Y-21122D01*
X36701Y-21122D02*
X36701Y-20422D01*
X36701Y-16822D02*
X36701Y-16122D01*
X36701Y-16122D02*
X37401Y-16122D01*
X41001Y-16122D02*
X41701Y-16122D01*
X41701Y-16122D02*
X41701Y-16822D01*
X41701Y-20422D02*
X41701Y-21122D01*
X34201Y-21122D02*
X33501Y-21122D01*
X29901Y-21122D02*
X29201Y-21122D01*
X29201Y-21122D02*
X29201Y-20422D01*
X29201Y-16822D02*
X29201Y-16122D01*
X29201Y-16122D02*
X29901Y-16122D01*
X33501Y-16122D02*
X34201Y-16122D01*
X34201Y-16122D02*
X34201Y-16822D01*
X34201Y-20422D02*
X34201Y-21122D01*
X26701Y-21122D02*
X26001Y-21122D01*
X22401Y-21122D02*
X21701Y-21122D01*
X21701Y-21122D02*
X21701Y-20422D01*
X21701Y-16822D02*
X21701Y-16122D01*
X21701Y-16122D02*
X22401Y-16122D01*
X26001Y-16122D02*
X26701Y-16122D01*
X26701Y-16122D02*
X26701Y-16822D01*
X26701Y-20422D02*
X26701Y-21122D01*
X19201Y-21122D02*
X18501Y-21122D01*
X14901Y-21122D02*
X14201Y-21122D01*
X14201Y-21122D02*
X14201Y-20422D01*
X14201Y-16822D02*
X14201Y-16122D01*
X14201Y-16122D02*
X14901Y-16122D01*
X18501Y-16122D02*
X19201Y-16122D01*
X19201Y-16122D02*
X19201Y-16822D01*
X19201Y-20422D02*
X19201Y-21122D01*
X85801Y-13622D02*
X85101Y-13622D01*
X81501Y-13622D02*
X80801Y-13622D01*
X80801Y-13622D02*
X80801Y-12922D01*
X80801Y-9322D02*
X80801Y-8622D01*
X80801Y-8622D02*
X81501Y-8622D01*
X85101Y-8622D02*
X85801Y-8622D01*
X85801Y-8622D02*
X85801Y-9322D01*
X85801Y-12922D02*
X85801Y-13622D01*
X75501Y-13622D02*
X74801Y-13622D01*
X71201Y-13622D02*
X70501Y-13622D01*
X70501Y-13622D02*
X70501Y-12922D01*
X70501Y-9322D02*
X70501Y-8622D01*
X70501Y-8622D02*
X71201Y-8622D01*
X74801Y-8622D02*
X75501Y-8622D01*
X75501Y-8622D02*
X75501Y-9322D01*
X75501Y-12922D02*
X75501Y-13622D01*
X68001Y-13622D02*
X67301Y-13622D01*
X63701Y-13622D02*
X63001Y-13622D01*
X63001Y-13622D02*
X63001Y-12922D01*
X63001Y-9322D02*
X63001Y-8622D01*
X63001Y-8622D02*
X63701Y-8622D01*
X67301Y-8622D02*
X68001Y-8622D01*
X68001Y-8622D02*
X68001Y-9322D01*
X68001Y-12922D02*
X68001Y-13622D01*
X60501Y-13622D02*
X59801Y-13622D01*
X56201Y-13622D02*
X55501Y-13622D01*
X55501Y-13622D02*
X55501Y-12922D01*
X55501Y-9322D02*
X55501Y-8622D01*
X55501Y-8622D02*
X56201Y-8622D01*
X59801Y-8622D02*
X60501Y-8622D01*
X60501Y-8622D02*
X60501Y-9322D01*
X60501Y-12922D02*
X60501Y-13622D01*
X45501Y-13622D02*
X44801Y-13622D01*
X41201Y-13622D02*
X40501Y-13622D01*
X40501Y-13622D02*
X40501Y-12922D01*
X40501Y-9322D02*
X40501Y-8622D01*
X40501Y-8622D02*
X41201Y-8622D01*
X44801Y-8622D02*
X45501Y-8622D01*
X45501Y-8622D02*
X45501Y-9322D01*
X45501Y-12922D02*
X45501Y-13622D01*
X38001Y-13622D02*
X37301Y-13622D01*
X33701Y-13622D02*
X33001Y-13622D01*
X33001Y-13622D02*
X33001Y-12922D01*
X33001Y-9322D02*
X33001Y-8622D01*
X33001Y-8622D02*
X33701Y-8622D01*
X37301Y-8622D02*
X38001Y-8622D01*
X38001Y-8622D02*
X38001Y-9322D01*
X38001Y-12922D02*
X38001Y-13622D01*
X81101Y-6122D02*
X80401Y-6122D01*
X76801Y-6122D02*
X76101Y-6122D01*
X76101Y-6122D02*
X76101Y-5422D01*
X76101Y-1822D02*
X76101Y-1122D01*
X76101Y-1122D02*
X76801Y-1122D01*
X80401Y-1122D02*
X81101Y-1122D01*
X81101Y-1122D02*
X81101Y-1822D01*
X81101Y-5422D02*
X81101Y-6122D01*
X6101Y-6122D02*
X5401Y-6122D01*
X1801Y-6122D02*
X1101Y-6122D01*
X1101Y-6122D02*
X1101Y-5422D01*
X1101Y-1822D02*
X1101Y-1122D01*
X1101Y-1122D02*
X1801Y-1122D01*
X5401Y-1122D02*
X6101Y-1122D01*
X6101Y-1122D02*
X6101Y-1822D01*
X6101Y-5422D02*
X6101Y-6122D01*
X87701Y-21122D02*
X87001Y-21122D01*
X83401Y-21122D02*
X82701Y-21122D01*
X82701Y-21122D02*
X82701Y-20422D01*
X82701Y-16822D02*
X82701Y-16122D01*
X82701Y-16122D02*
X83401Y-16122D01*
X87001Y-16122D02*
X87701Y-16122D01*
X87701Y-16122D02*
X87701Y-16822D01*
X87701Y-20422D02*
X87701Y-21122D01*
X79201Y-21122D02*
X78501Y-21122D01*
X74901Y-21122D02*
X74201Y-21122D01*
X74201Y-21122D02*
X74201Y-20422D01*
X74201Y-16822D02*
X74201Y-16122D01*
X74201Y-16122D02*
X74901Y-16122D01*
X78501Y-16122D02*
X79201Y-16122D01*
X79201Y-16122D02*
X79201Y-16822D01*
X79201Y-20422D02*
X79201Y-21122D01*
X50102Y-28623D02*
X49402Y-28623D01*
X45802Y-28623D02*
X45102Y-28623D01*
X45102Y-28623D02*
X45102Y-27923D01*
X45102Y-24323D02*
X45102Y-23623D01*
X45102Y-23623D02*
X45802Y-23623D01*
X49402Y-23623D02*
X50102Y-23623D01*
X50102Y-23623D02*
X50102Y-24323D01*
X50102Y-27923D02*
X50102Y-28623D01*
G54D18*
X36849Y-29702D02*
X36849Y-29348D01*
X36984Y-29348D01*
X37018Y-29365D01*
X37035Y-29381D01*
X37052Y-29415D01*
X37052Y-29466D01*
X37035Y-29500D01*
X37018Y-29516D01*
X36984Y-29533D01*
X36849Y-29533D01*
X37389Y-29702D02*
X37187Y-29702D01*
X37288Y-29702D02*
X37288Y-29348D01*
X37254Y-29398D01*
X37221Y-29432D01*
X37187Y-29449D01*
X37269Y-28165D02*
X36915Y-28165D01*
X37168Y-28047D01*
X36915Y-27929D01*
X37269Y-27929D01*
X37269Y-27760D02*
X36915Y-27760D01*
X37252Y-27609D02*
X37269Y-27558D01*
X37269Y-27474D01*
X37252Y-27440D01*
X37236Y-27423D01*
X37202Y-27406D01*
X37168Y-27406D01*
X37134Y-27423D01*
X37117Y-27440D01*
X37101Y-27474D01*
X37084Y-27541D01*
X37067Y-27575D01*
X37050Y-27592D01*
X37016Y-27609D01*
X36982Y-27609D01*
X36949Y-27592D01*
X36932Y-27575D01*
X36915Y-27541D01*
X36915Y-27457D01*
X36932Y-27406D01*
X36915Y-27187D02*
X36915Y-27119D01*
X36932Y-27085D01*
X36966Y-27052D01*
X37033Y-27035D01*
X37151Y-27035D01*
X37219Y-27052D01*
X37252Y-27085D01*
X37269Y-27119D01*
X37269Y-27187D01*
X37252Y-27220D01*
X37219Y-27254D01*
X37151Y-27271D01*
X37033Y-27271D01*
X36966Y-27254D01*
X36932Y-27220D01*
X36915Y-27187D01*
X34849Y-29702D02*
X34849Y-29348D01*
X34984Y-29348D01*
X35018Y-29365D01*
X35035Y-29381D01*
X35052Y-29415D01*
X35052Y-29466D01*
X35035Y-29500D01*
X35018Y-29516D01*
X34984Y-29533D01*
X34849Y-29533D01*
X35170Y-29348D02*
X35389Y-29348D01*
X35271Y-29483D01*
X35322Y-29483D01*
X35356Y-29500D01*
X35372Y-29516D01*
X35389Y-29550D01*
X35389Y-29634D01*
X35372Y-29668D01*
X35356Y-29685D01*
X35322Y-29702D01*
X35221Y-29702D01*
X35187Y-29685D01*
X35170Y-29668D01*
X35252Y-28214D02*
X35269Y-28164D01*
X35269Y-28079D01*
X35252Y-28045D01*
X35236Y-28029D01*
X35202Y-28012D01*
X35168Y-28012D01*
X35134Y-28029D01*
X35117Y-28045D01*
X35101Y-28079D01*
X35084Y-28147D01*
X35067Y-28180D01*
X35050Y-28197D01*
X35016Y-28214D01*
X34982Y-28214D01*
X34949Y-28197D01*
X34932Y-28180D01*
X34915Y-28147D01*
X34915Y-28062D01*
X34932Y-28012D01*
X35236Y-27657D02*
X35252Y-27674D01*
X35269Y-27725D01*
X35269Y-27759D01*
X35252Y-27809D01*
X35219Y-27843D01*
X35185Y-27860D01*
X35117Y-27877D01*
X35067Y-27877D01*
X34999Y-27860D01*
X34966Y-27843D01*
X34932Y-27809D01*
X34915Y-27759D01*
X34915Y-27725D01*
X34932Y-27674D01*
X34949Y-27657D01*
X35269Y-27505D02*
X34915Y-27505D01*
X35269Y-27303D02*
X35067Y-27455D01*
X34915Y-27303D02*
X35117Y-27505D01*
X32849Y-29702D02*
X32849Y-29348D01*
X32984Y-29348D01*
X33018Y-29365D01*
X33035Y-29381D01*
X33052Y-29415D01*
X33052Y-29466D01*
X33035Y-29500D01*
X33018Y-29516D01*
X32984Y-29533D01*
X32849Y-29533D01*
X33372Y-29348D02*
X33204Y-29348D01*
X33187Y-29516D01*
X33204Y-29500D01*
X33237Y-29483D01*
X33322Y-29483D01*
X33356Y-29500D01*
X33372Y-29516D01*
X33389Y-29550D01*
X33389Y-29634D01*
X33372Y-29668D01*
X33356Y-29685D01*
X33322Y-29702D01*
X33237Y-29702D01*
X33204Y-29685D01*
X33187Y-29668D01*
X33269Y-27978D02*
X33101Y-28096D01*
X33269Y-28180D02*
X32915Y-28180D01*
X32915Y-28045D01*
X32932Y-28012D01*
X32949Y-27995D01*
X32982Y-27978D01*
X33033Y-27978D01*
X33067Y-27995D01*
X33084Y-28012D01*
X33101Y-28045D01*
X33101Y-28180D01*
X33084Y-27826D02*
X33084Y-27708D01*
X33269Y-27657D02*
X33269Y-27826D01*
X32915Y-27826D01*
X32915Y-27657D01*
X33252Y-27522D02*
X33269Y-27472D01*
X33269Y-27387D01*
X33252Y-27354D01*
X33236Y-27337D01*
X33202Y-27320D01*
X33168Y-27320D01*
X33134Y-27337D01*
X33117Y-27354D01*
X33101Y-27387D01*
X33084Y-27455D01*
X33067Y-27489D01*
X33050Y-27505D01*
X33016Y-27522D01*
X32982Y-27522D01*
X32949Y-27505D01*
X32932Y-27489D01*
X32915Y-27455D01*
X32915Y-27370D01*
X32932Y-27320D01*
X35849Y-29702D02*
X35849Y-29348D01*
X35984Y-29348D01*
X36018Y-29365D01*
X36035Y-29381D01*
X36052Y-29415D01*
X36052Y-29466D01*
X36035Y-29500D01*
X36018Y-29516D01*
X35984Y-29533D01*
X35849Y-29533D01*
X36187Y-29381D02*
X36204Y-29365D01*
X36237Y-29348D01*
X36322Y-29348D01*
X36356Y-29365D01*
X36372Y-29381D01*
X36389Y-29415D01*
X36389Y-29449D01*
X36372Y-29500D01*
X36170Y-29702D01*
X36389Y-29702D01*
X35915Y-28180D02*
X36269Y-28062D01*
X35915Y-27944D01*
X36252Y-27674D02*
X36269Y-27708D01*
X36269Y-27775D01*
X36252Y-27809D01*
X36236Y-27826D01*
X36202Y-27843D01*
X36101Y-27843D01*
X36067Y-27826D01*
X36050Y-27809D01*
X36033Y-27775D01*
X36033Y-27708D01*
X36050Y-27674D01*
X36252Y-27370D02*
X36269Y-27404D01*
X36269Y-27472D01*
X36252Y-27505D01*
X36236Y-27522D01*
X36202Y-27539D01*
X36101Y-27539D01*
X36067Y-27522D01*
X36050Y-27505D01*
X36033Y-27472D01*
X36033Y-27404D01*
X36050Y-27370D01*
X33849Y-29702D02*
X33849Y-29348D01*
X33984Y-29348D01*
X34018Y-29365D01*
X34035Y-29381D01*
X34052Y-29415D01*
X34052Y-29466D01*
X34035Y-29500D01*
X34018Y-29516D01*
X33984Y-29533D01*
X33849Y-29533D01*
X34356Y-29466D02*
X34356Y-29702D01*
X34271Y-29331D02*
X34187Y-29584D01*
X34406Y-29584D01*
X34269Y-28215D02*
X33915Y-28215D01*
X34168Y-28097D01*
X33915Y-27979D01*
X34269Y-27979D01*
X33915Y-27743D02*
X33915Y-27675D01*
X33932Y-27642D01*
X33966Y-27608D01*
X34033Y-27591D01*
X34151Y-27591D01*
X34219Y-27608D01*
X34252Y-27642D01*
X34269Y-27675D01*
X34269Y-27743D01*
X34252Y-27777D01*
X34219Y-27810D01*
X34151Y-27827D01*
X34033Y-27827D01*
X33966Y-27810D01*
X33932Y-27777D01*
X33915Y-27743D01*
X34252Y-27456D02*
X34269Y-27405D01*
X34269Y-27321D01*
X34252Y-27287D01*
X34236Y-27270D01*
X34202Y-27254D01*
X34168Y-27254D01*
X34134Y-27270D01*
X34117Y-27287D01*
X34101Y-27321D01*
X34084Y-27389D01*
X34067Y-27422D01*
X34050Y-27439D01*
X34016Y-27456D01*
X33982Y-27456D01*
X33949Y-27439D01*
X33932Y-27422D01*
X33915Y-27389D01*
X33915Y-27304D01*
X33932Y-27254D01*
X34269Y-27102D02*
X33915Y-27102D01*
X37849Y-29702D02*
X37849Y-29348D01*
X37984Y-29348D01*
X38018Y-29365D01*
X38035Y-29381D01*
X38052Y-29415D01*
X38052Y-29466D01*
X38035Y-29500D01*
X38018Y-29516D01*
X37984Y-29533D01*
X37849Y-29533D01*
X38356Y-29348D02*
X38288Y-29348D01*
X38254Y-29365D01*
X38237Y-29381D01*
X38204Y-29432D01*
X38187Y-29500D01*
X38187Y-29634D01*
X38204Y-29668D01*
X38221Y-29685D01*
X38254Y-29702D01*
X38322Y-29702D01*
X38356Y-29685D01*
X38372Y-29668D01*
X38389Y-29634D01*
X38389Y-29550D01*
X38372Y-29516D01*
X38356Y-29500D01*
X38322Y-29483D01*
X38254Y-29483D01*
X38221Y-29500D01*
X38204Y-29516D01*
X38187Y-29550D01*
X37907Y-27992D02*
X37890Y-28025D01*
X37890Y-28076D01*
X37907Y-28127D01*
X37941Y-28160D01*
X37974Y-28177D01*
X38042Y-28194D01*
X38092Y-28194D01*
X38160Y-28177D01*
X38194Y-28160D01*
X38227Y-28127D01*
X38244Y-28076D01*
X38244Y-28042D01*
X38227Y-27992D01*
X38211Y-27975D01*
X38092Y-27975D01*
X38092Y-28042D01*
X38244Y-27823D02*
X37890Y-27823D01*
X38244Y-27620D01*
X37890Y-27620D01*
X38244Y-27452D02*
X37890Y-27452D01*
X37890Y-27367D01*
X37907Y-27317D01*
X37941Y-27283D01*
X37974Y-27266D01*
X38042Y-27249D01*
X38092Y-27249D01*
X38160Y-27266D01*
X38194Y-27283D01*
X38227Y-27317D01*
X38244Y-27367D01*
X38244Y-27452D01*
G54D19*
X3808Y-25162D02*
X3894Y-25186D01*
X4037Y-25186D01*
X4094Y-25162D01*
X4122Y-25138D01*
X4151Y-25091D01*
X4151Y-25043D01*
X4122Y-24995D01*
X4094Y-24972D01*
X4037Y-24948D01*
X3922Y-24924D01*
X3865Y-24900D01*
X3837Y-24876D01*
X3808Y-24829D01*
X3808Y-24781D01*
X3837Y-24734D01*
X3865Y-24710D01*
X3922Y-24686D01*
X4065Y-24686D01*
X4151Y-24710D01*
X4522Y-24686D02*
X4579Y-24686D01*
X4637Y-24710D01*
X4665Y-24734D01*
X4694Y-24781D01*
X4722Y-24876D01*
X4722Y-24995D01*
X4694Y-25091D01*
X4665Y-25138D01*
X4637Y-25162D01*
X4579Y-25186D01*
X4522Y-25186D01*
X4465Y-25162D01*
X4437Y-25138D01*
X4408Y-25091D01*
X4379Y-24995D01*
X4379Y-24876D01*
X4408Y-24781D01*
X4437Y-24734D01*
X4465Y-24710D01*
X4522Y-24686D01*
X5237Y-24853D02*
X5237Y-25186D01*
X5094Y-24662D02*
X4951Y-25019D01*
X5322Y-25019D01*
X3808Y-10187D02*
X3894Y-10211D01*
X4037Y-10211D01*
X4094Y-10187D01*
X4122Y-10163D01*
X4151Y-10116D01*
X4151Y-10068D01*
X4122Y-10020D01*
X4094Y-9997D01*
X4037Y-9973D01*
X3922Y-9949D01*
X3865Y-9925D01*
X3837Y-9901D01*
X3808Y-9854D01*
X3808Y-9806D01*
X3837Y-9759D01*
X3865Y-9735D01*
X3922Y-9711D01*
X4065Y-9711D01*
X4151Y-9735D01*
X4522Y-9711D02*
X4579Y-9711D01*
X4637Y-9735D01*
X4665Y-9759D01*
X4694Y-9806D01*
X4722Y-9901D01*
X4722Y-10020D01*
X4694Y-10116D01*
X4665Y-10163D01*
X4637Y-10187D01*
X4579Y-10211D01*
X4522Y-10211D01*
X4465Y-10187D01*
X4437Y-10163D01*
X4408Y-10116D01*
X4379Y-10020D01*
X4379Y-9901D01*
X4408Y-9806D01*
X4437Y-9759D01*
X4465Y-9735D01*
X4522Y-9711D01*
X4951Y-9759D02*
X4979Y-9735D01*
X5037Y-9711D01*
X5179Y-9711D01*
X5237Y-9735D01*
X5265Y-9759D01*
X5294Y-9806D01*
X5294Y-9854D01*
X5265Y-9925D01*
X4922Y-10211D01*
X5294Y-10211D01*
X5658Y-17687D02*
X5744Y-17711D01*
X5887Y-17711D01*
X5944Y-17687D01*
X5972Y-17663D01*
X6001Y-17616D01*
X6001Y-17568D01*
X5972Y-17520D01*
X5944Y-17497D01*
X5887Y-17473D01*
X5772Y-17449D01*
X5715Y-17425D01*
X5687Y-17401D01*
X5658Y-17354D01*
X5658Y-17306D01*
X5687Y-17259D01*
X5715Y-17235D01*
X5772Y-17211D01*
X5915Y-17211D01*
X6001Y-17235D01*
X6372Y-17211D02*
X6429Y-17211D01*
X6487Y-17235D01*
X6515Y-17259D01*
X6544Y-17306D01*
X6572Y-17401D01*
X6572Y-17520D01*
X6544Y-17616D01*
X6515Y-17663D01*
X6487Y-17687D01*
X6429Y-17711D01*
X6372Y-17711D01*
X6315Y-17687D01*
X6287Y-17663D01*
X6258Y-17616D01*
X6229Y-17520D01*
X6229Y-17401D01*
X6258Y-17306D01*
X6287Y-17259D01*
X6315Y-17235D01*
X6372Y-17211D01*
X6772Y-17211D02*
X7144Y-17211D01*
X6944Y-17401D01*
X7029Y-17401D01*
X7087Y-17425D01*
X7115Y-17449D01*
X7144Y-17497D01*
X7144Y-17616D01*
X7115Y-17663D01*
X7087Y-17687D01*
X7029Y-17711D01*
X6858Y-17711D01*
X6801Y-17687D01*
X6772Y-17663D01*
X85383Y-17687D02*
X85469Y-17711D01*
X85612Y-17711D01*
X85669Y-17687D01*
X85697Y-17663D01*
X85726Y-17616D01*
X85726Y-17568D01*
X85697Y-17520D01*
X85669Y-17497D01*
X85612Y-17473D01*
X85497Y-17449D01*
X85440Y-17425D01*
X85412Y-17401D01*
X85383Y-17354D01*
X85383Y-17306D01*
X85412Y-17259D01*
X85440Y-17235D01*
X85497Y-17211D01*
X85640Y-17211D01*
X85726Y-17235D01*
X86269Y-17211D02*
X85983Y-17211D01*
X85954Y-17449D01*
X85983Y-17425D01*
X86040Y-17401D01*
X86183Y-17401D01*
X86240Y-17425D01*
X86269Y-17449D01*
X86297Y-17497D01*
X86297Y-17616D01*
X86269Y-17663D01*
X86240Y-17687D01*
X86183Y-17711D01*
X86040Y-17711D01*
X85983Y-17687D01*
X85954Y-17663D01*
X86497Y-17211D02*
X86869Y-17211D01*
X86669Y-17401D01*
X86754Y-17401D01*
X86812Y-17425D01*
X86840Y-17449D01*
X86869Y-17497D01*
X86869Y-17616D01*
X86840Y-17663D01*
X86812Y-17687D01*
X86754Y-17711D01*
X86583Y-17711D01*
X86526Y-17687D01*
X86497Y-17663D01*
X49758Y-10187D02*
X49844Y-10211D01*
X49987Y-10211D01*
X50044Y-10187D01*
X50072Y-10163D01*
X50101Y-10116D01*
X50101Y-10068D01*
X50072Y-10020D01*
X50044Y-9997D01*
X49987Y-9973D01*
X49872Y-9949D01*
X49815Y-9925D01*
X49787Y-9901D01*
X49758Y-9854D01*
X49758Y-9806D01*
X49787Y-9759D01*
X49815Y-9735D01*
X49872Y-9711D01*
X50015Y-9711D01*
X50101Y-9735D01*
X50301Y-9711D02*
X50672Y-9711D01*
X50472Y-9901D01*
X50558Y-9901D01*
X50615Y-9925D01*
X50644Y-9949D01*
X50672Y-9997D01*
X50672Y-10116D01*
X50644Y-10163D01*
X50615Y-10187D01*
X50558Y-10211D01*
X50387Y-10211D01*
X50329Y-10187D01*
X50301Y-10163D01*
X50901Y-9759D02*
X50929Y-9735D01*
X50987Y-9711D01*
X51129Y-9711D01*
X51187Y-9735D01*
X51215Y-9759D01*
X51244Y-9806D01*
X51244Y-9854D01*
X51215Y-9925D01*
X50872Y-10211D01*
X51244Y-10211D01*
X70383Y-2637D02*
X70469Y-2661D01*
X70612Y-2661D01*
X70669Y-2637D01*
X70697Y-2613D01*
X70726Y-2566D01*
X70726Y-2518D01*
X70697Y-2470D01*
X70669Y-2447D01*
X70612Y-2423D01*
X70497Y-2399D01*
X70440Y-2375D01*
X70412Y-2351D01*
X70383Y-2304D01*
X70383Y-2256D01*
X70412Y-2209D01*
X70440Y-2185D01*
X70497Y-2161D01*
X70640Y-2161D01*
X70726Y-2185D01*
X71240Y-2328D02*
X71240Y-2661D01*
X71097Y-2137D02*
X70954Y-2494D01*
X71326Y-2494D01*
X71812Y-2161D02*
X71697Y-2161D01*
X71640Y-2185D01*
X71612Y-2209D01*
X71554Y-2280D01*
X71526Y-2375D01*
X71526Y-2566D01*
X71554Y-2613D01*
X71583Y-2637D01*
X71640Y-2661D01*
X71754Y-2661D01*
X71812Y-2637D01*
X71840Y-2613D01*
X71869Y-2566D01*
X71869Y-2447D01*
X71840Y-2399D01*
X71812Y-2375D01*
X71754Y-2351D01*
X71640Y-2351D01*
X71583Y-2375D01*
X71554Y-2399D01*
X71526Y-2447D01*
X32883Y-2637D02*
X32969Y-2661D01*
X33112Y-2661D01*
X33169Y-2637D01*
X33197Y-2613D01*
X33226Y-2566D01*
X33226Y-2518D01*
X33197Y-2470D01*
X33169Y-2447D01*
X33112Y-2423D01*
X32997Y-2399D01*
X32940Y-2375D01*
X32912Y-2351D01*
X32883Y-2304D01*
X32883Y-2256D01*
X32912Y-2209D01*
X32940Y-2185D01*
X32997Y-2161D01*
X33140Y-2161D01*
X33226Y-2185D01*
X33454Y-2209D02*
X33483Y-2185D01*
X33540Y-2161D01*
X33683Y-2161D01*
X33740Y-2185D01*
X33769Y-2209D01*
X33797Y-2256D01*
X33797Y-2304D01*
X33769Y-2375D01*
X33426Y-2661D01*
X33797Y-2661D01*
X34369Y-2661D02*
X34026Y-2661D01*
X34197Y-2661D02*
X34197Y-2161D01*
X34140Y-2232D01*
X34083Y-2280D01*
X34026Y-2304D01*
X84408Y-25187D02*
X84494Y-25211D01*
X84637Y-25211D01*
X84694Y-25187D01*
X84722Y-25163D01*
X84751Y-25116D01*
X84751Y-25068D01*
X84722Y-25020D01*
X84694Y-24997D01*
X84637Y-24973D01*
X84522Y-24949D01*
X84465Y-24925D01*
X84437Y-24901D01*
X84408Y-24854D01*
X84408Y-24806D01*
X84437Y-24759D01*
X84465Y-24735D01*
X84522Y-24711D01*
X84665Y-24711D01*
X84751Y-24735D01*
X85265Y-24878D02*
X85265Y-25211D01*
X85122Y-24687D02*
X84979Y-25044D01*
X85351Y-25044D01*
X85608Y-25211D02*
X85722Y-25211D01*
X85779Y-25187D01*
X85808Y-25163D01*
X85865Y-25092D01*
X85894Y-24997D01*
X85894Y-24806D01*
X85865Y-24759D01*
X85837Y-24735D01*
X85779Y-24711D01*
X85665Y-24711D01*
X85608Y-24735D01*
X85579Y-24759D01*
X85551Y-24806D01*
X85551Y-24925D01*
X85579Y-24973D01*
X85608Y-24997D01*
X85665Y-25020D01*
X85779Y-25020D01*
X85837Y-24997D01*
X85865Y-24973D01*
X85894Y-24925D01*
X75058Y-25187D02*
X75144Y-25211D01*
X75287Y-25211D01*
X75344Y-25187D01*
X75372Y-25163D01*
X75401Y-25116D01*
X75401Y-25068D01*
X75372Y-25020D01*
X75344Y-24997D01*
X75287Y-24973D01*
X75172Y-24949D01*
X75115Y-24925D01*
X75087Y-24901D01*
X75058Y-24854D01*
X75058Y-24806D01*
X75087Y-24759D01*
X75115Y-24735D01*
X75172Y-24711D01*
X75315Y-24711D01*
X75401Y-24735D01*
X75915Y-24878D02*
X75915Y-25211D01*
X75772Y-24687D02*
X75629Y-25044D01*
X76001Y-25044D01*
X76487Y-24878D02*
X76487Y-25211D01*
X76344Y-24687D02*
X76201Y-25044D01*
X76572Y-25044D01*
X19758Y-25162D02*
X19844Y-25186D01*
X19987Y-25186D01*
X20044Y-25162D01*
X20072Y-25138D01*
X20101Y-25091D01*
X20101Y-25043D01*
X20072Y-24995D01*
X20044Y-24972D01*
X19987Y-24948D01*
X19872Y-24924D01*
X19815Y-24900D01*
X19787Y-24876D01*
X19758Y-24829D01*
X19758Y-24781D01*
X19787Y-24734D01*
X19815Y-24710D01*
X19872Y-24686D01*
X20015Y-24686D01*
X20101Y-24710D01*
X20672Y-25186D02*
X20329Y-25186D01*
X20501Y-25186D02*
X20501Y-24686D01*
X20444Y-24757D01*
X20387Y-24805D01*
X20329Y-24829D01*
X21187Y-24853D02*
X21187Y-25186D01*
X21044Y-24662D02*
X20901Y-25019D01*
X21272Y-25019D01*
X12258Y-25187D02*
X12344Y-25211D01*
X12487Y-25211D01*
X12544Y-25187D01*
X12572Y-25163D01*
X12601Y-25116D01*
X12601Y-25068D01*
X12572Y-25020D01*
X12544Y-24997D01*
X12487Y-24973D01*
X12372Y-24949D01*
X12315Y-24925D01*
X12287Y-24901D01*
X12258Y-24854D01*
X12258Y-24806D01*
X12287Y-24759D01*
X12315Y-24735D01*
X12372Y-24711D01*
X12515Y-24711D01*
X12601Y-24735D01*
X12972Y-24711D02*
X13029Y-24711D01*
X13087Y-24735D01*
X13115Y-24759D01*
X13144Y-24806D01*
X13172Y-24901D01*
X13172Y-25020D01*
X13144Y-25116D01*
X13115Y-25163D01*
X13087Y-25187D01*
X13029Y-25211D01*
X12972Y-25211D01*
X12915Y-25187D01*
X12887Y-25163D01*
X12858Y-25116D01*
X12829Y-25020D01*
X12829Y-24901D01*
X12858Y-24806D01*
X12887Y-24759D01*
X12915Y-24735D01*
X12972Y-24711D01*
X13458Y-25211D02*
X13572Y-25211D01*
X13629Y-25187D01*
X13658Y-25163D01*
X13715Y-25092D01*
X13744Y-24997D01*
X13744Y-24806D01*
X13715Y-24759D01*
X13687Y-24735D01*
X13629Y-24711D01*
X13515Y-24711D01*
X13458Y-24735D01*
X13429Y-24759D01*
X13401Y-24806D01*
X13401Y-24925D01*
X13429Y-24973D01*
X13458Y-24997D01*
X13515Y-25020D01*
X13629Y-25020D01*
X13687Y-24997D01*
X13715Y-24973D01*
X13744Y-24925D01*
X76933Y-17687D02*
X77019Y-17711D01*
X77162Y-17711D01*
X77219Y-17687D01*
X77247Y-17663D01*
X77276Y-17616D01*
X77276Y-17568D01*
X77247Y-17520D01*
X77219Y-17497D01*
X77162Y-17473D01*
X77047Y-17449D01*
X76990Y-17425D01*
X76962Y-17401D01*
X76933Y-17354D01*
X76933Y-17306D01*
X76962Y-17259D01*
X76990Y-17235D01*
X77047Y-17211D01*
X77190Y-17211D01*
X77276Y-17235D01*
X77790Y-17378D02*
X77790Y-17711D01*
X77647Y-17187D02*
X77504Y-17544D01*
X77876Y-17544D01*
X78190Y-17425D02*
X78133Y-17401D01*
X78104Y-17378D01*
X78076Y-17330D01*
X78076Y-17306D01*
X78104Y-17259D01*
X78133Y-17235D01*
X78190Y-17211D01*
X78304Y-17211D01*
X78362Y-17235D01*
X78390Y-17259D01*
X78419Y-17306D01*
X78419Y-17330D01*
X78390Y-17378D01*
X78362Y-17401D01*
X78304Y-17425D01*
X78190Y-17425D01*
X78133Y-17449D01*
X78104Y-17473D01*
X78076Y-17520D01*
X78076Y-17616D01*
X78104Y-17663D01*
X78133Y-17687D01*
X78190Y-17711D01*
X78304Y-17711D01*
X78362Y-17687D01*
X78390Y-17663D01*
X78419Y-17616D01*
X78419Y-17520D01*
X78390Y-17473D01*
X78362Y-17449D01*
X78304Y-17425D01*
X68458Y-17687D02*
X68544Y-17711D01*
X68687Y-17711D01*
X68744Y-17687D01*
X68772Y-17663D01*
X68801Y-17616D01*
X68801Y-17568D01*
X68772Y-17520D01*
X68744Y-17497D01*
X68687Y-17473D01*
X68572Y-17449D01*
X68515Y-17425D01*
X68487Y-17401D01*
X68458Y-17354D01*
X68458Y-17306D01*
X68487Y-17259D01*
X68515Y-17235D01*
X68572Y-17211D01*
X68715Y-17211D01*
X68801Y-17235D01*
X69315Y-17378D02*
X69315Y-17711D01*
X69172Y-17187D02*
X69029Y-17544D01*
X69401Y-17544D01*
X69572Y-17211D02*
X69944Y-17211D01*
X69744Y-17401D01*
X69829Y-17401D01*
X69887Y-17425D01*
X69915Y-17449D01*
X69944Y-17497D01*
X69944Y-17616D01*
X69915Y-17663D01*
X69887Y-17687D01*
X69829Y-17711D01*
X69658Y-17711D01*
X69601Y-17687D01*
X69572Y-17663D01*
X27258Y-10162D02*
X27344Y-10186D01*
X27487Y-10186D01*
X27544Y-10162D01*
X27572Y-10138D01*
X27601Y-10091D01*
X27601Y-10043D01*
X27572Y-9995D01*
X27544Y-9972D01*
X27487Y-9948D01*
X27372Y-9924D01*
X27315Y-9900D01*
X27287Y-9876D01*
X27258Y-9829D01*
X27258Y-9781D01*
X27287Y-9734D01*
X27315Y-9710D01*
X27372Y-9686D01*
X27515Y-9686D01*
X27601Y-9710D01*
X28172Y-10186D02*
X27829Y-10186D01*
X28001Y-10186D02*
X28001Y-9686D01*
X27944Y-9757D01*
X27887Y-9805D01*
X27829Y-9829D01*
X28372Y-9686D02*
X28772Y-9686D01*
X28515Y-10186D01*
X19758Y-10162D02*
X19844Y-10186D01*
X19987Y-10186D01*
X20044Y-10162D01*
X20072Y-10138D01*
X20101Y-10091D01*
X20101Y-10043D01*
X20072Y-9995D01*
X20044Y-9972D01*
X19987Y-9948D01*
X19872Y-9924D01*
X19815Y-9900D01*
X19787Y-9876D01*
X19758Y-9829D01*
X19758Y-9781D01*
X19787Y-9734D01*
X19815Y-9710D01*
X19872Y-9686D01*
X20015Y-9686D01*
X20101Y-9710D01*
X20672Y-10186D02*
X20329Y-10186D01*
X20501Y-10186D02*
X20501Y-9686D01*
X20444Y-9757D01*
X20387Y-9805D01*
X20329Y-9829D01*
X20901Y-9734D02*
X20929Y-9710D01*
X20987Y-9686D01*
X21129Y-9686D01*
X21187Y-9710D01*
X21215Y-9734D01*
X21244Y-9781D01*
X21244Y-9829D01*
X21215Y-9900D01*
X20872Y-10186D01*
X21244Y-10186D01*
X12258Y-10187D02*
X12344Y-10211D01*
X12487Y-10211D01*
X12544Y-10187D01*
X12572Y-10163D01*
X12601Y-10116D01*
X12601Y-10068D01*
X12572Y-10020D01*
X12544Y-9997D01*
X12487Y-9973D01*
X12372Y-9949D01*
X12315Y-9925D01*
X12287Y-9901D01*
X12258Y-9854D01*
X12258Y-9806D01*
X12287Y-9759D01*
X12315Y-9735D01*
X12372Y-9711D01*
X12515Y-9711D01*
X12601Y-9735D01*
X12972Y-9711D02*
X13029Y-9711D01*
X13087Y-9735D01*
X13115Y-9759D01*
X13144Y-9806D01*
X13172Y-9901D01*
X13172Y-10020D01*
X13144Y-10116D01*
X13115Y-10163D01*
X13087Y-10187D01*
X13029Y-10211D01*
X12972Y-10211D01*
X12915Y-10187D01*
X12887Y-10163D01*
X12858Y-10116D01*
X12829Y-10020D01*
X12829Y-9901D01*
X12858Y-9806D01*
X12887Y-9759D01*
X12915Y-9735D01*
X12972Y-9711D01*
X13372Y-9711D02*
X13772Y-9711D01*
X13515Y-10211D01*
X85383Y-2687D02*
X85469Y-2711D01*
X85612Y-2711D01*
X85669Y-2687D01*
X85697Y-2663D01*
X85726Y-2616D01*
X85726Y-2568D01*
X85697Y-2520D01*
X85669Y-2497D01*
X85612Y-2473D01*
X85497Y-2449D01*
X85440Y-2425D01*
X85412Y-2401D01*
X85383Y-2354D01*
X85383Y-2306D01*
X85412Y-2259D01*
X85440Y-2235D01*
X85497Y-2211D01*
X85640Y-2211D01*
X85726Y-2235D01*
X86269Y-2211D02*
X85983Y-2211D01*
X85954Y-2449D01*
X85983Y-2425D01*
X86040Y-2401D01*
X86183Y-2401D01*
X86240Y-2425D01*
X86269Y-2449D01*
X86297Y-2497D01*
X86297Y-2616D01*
X86269Y-2663D01*
X86240Y-2687D01*
X86183Y-2711D01*
X86040Y-2711D01*
X85983Y-2687D01*
X85954Y-2663D01*
X86812Y-2211D02*
X86697Y-2211D01*
X86640Y-2235D01*
X86612Y-2259D01*
X86554Y-2330D01*
X86526Y-2425D01*
X86526Y-2616D01*
X86554Y-2663D01*
X86583Y-2687D01*
X86640Y-2711D01*
X86754Y-2711D01*
X86812Y-2687D01*
X86840Y-2663D01*
X86869Y-2616D01*
X86869Y-2497D01*
X86840Y-2449D01*
X86812Y-2425D01*
X86754Y-2401D01*
X86640Y-2401D01*
X86583Y-2425D01*
X86554Y-2449D01*
X86526Y-2497D01*
X62883Y-2687D02*
X62969Y-2711D01*
X63112Y-2711D01*
X63169Y-2687D01*
X63197Y-2663D01*
X63226Y-2616D01*
X63226Y-2568D01*
X63197Y-2520D01*
X63169Y-2497D01*
X63112Y-2473D01*
X62997Y-2449D01*
X62940Y-2425D01*
X62912Y-2401D01*
X62883Y-2354D01*
X62883Y-2306D01*
X62912Y-2259D01*
X62940Y-2235D01*
X62997Y-2211D01*
X63140Y-2211D01*
X63226Y-2235D01*
X63740Y-2378D02*
X63740Y-2711D01*
X63597Y-2187D02*
X63454Y-2544D01*
X63826Y-2544D01*
X64369Y-2711D02*
X64026Y-2711D01*
X64197Y-2711D02*
X64197Y-2211D01*
X64140Y-2282D01*
X64083Y-2330D01*
X64026Y-2354D01*
X55383Y-2687D02*
X55469Y-2711D01*
X55612Y-2711D01*
X55669Y-2687D01*
X55697Y-2663D01*
X55726Y-2616D01*
X55726Y-2568D01*
X55697Y-2520D01*
X55669Y-2497D01*
X55612Y-2473D01*
X55497Y-2449D01*
X55440Y-2425D01*
X55412Y-2401D01*
X55383Y-2354D01*
X55383Y-2306D01*
X55412Y-2259D01*
X55440Y-2235D01*
X55497Y-2211D01*
X55640Y-2211D01*
X55726Y-2235D01*
X55926Y-2211D02*
X56297Y-2211D01*
X56097Y-2401D01*
X56183Y-2401D01*
X56240Y-2425D01*
X56269Y-2449D01*
X56297Y-2497D01*
X56297Y-2616D01*
X56269Y-2663D01*
X56240Y-2687D01*
X56183Y-2711D01*
X56012Y-2711D01*
X55954Y-2687D01*
X55926Y-2663D01*
X56812Y-2211D02*
X56697Y-2211D01*
X56640Y-2235D01*
X56612Y-2259D01*
X56554Y-2330D01*
X56526Y-2425D01*
X56526Y-2616D01*
X56554Y-2663D01*
X56583Y-2687D01*
X56640Y-2711D01*
X56754Y-2711D01*
X56812Y-2687D01*
X56840Y-2663D01*
X56869Y-2616D01*
X56869Y-2497D01*
X56840Y-2449D01*
X56812Y-2425D01*
X56754Y-2401D01*
X56640Y-2401D01*
X56583Y-2425D01*
X56554Y-2449D01*
X56526Y-2497D01*
X47883Y-2637D02*
X47969Y-2661D01*
X48112Y-2661D01*
X48169Y-2637D01*
X48197Y-2613D01*
X48226Y-2566D01*
X48226Y-2518D01*
X48197Y-2470D01*
X48169Y-2447D01*
X48112Y-2423D01*
X47997Y-2399D01*
X47940Y-2375D01*
X47912Y-2351D01*
X47883Y-2304D01*
X47883Y-2256D01*
X47912Y-2209D01*
X47940Y-2185D01*
X47997Y-2161D01*
X48140Y-2161D01*
X48226Y-2185D01*
X48426Y-2161D02*
X48797Y-2161D01*
X48597Y-2351D01*
X48683Y-2351D01*
X48740Y-2375D01*
X48769Y-2399D01*
X48797Y-2447D01*
X48797Y-2566D01*
X48769Y-2613D01*
X48740Y-2637D01*
X48683Y-2661D01*
X48512Y-2661D01*
X48454Y-2637D01*
X48426Y-2613D01*
X49369Y-2661D02*
X49026Y-2661D01*
X49197Y-2661D02*
X49197Y-2161D01*
X49140Y-2232D01*
X49083Y-2280D01*
X49026Y-2304D01*
X40383Y-2637D02*
X40469Y-2661D01*
X40612Y-2661D01*
X40669Y-2637D01*
X40697Y-2613D01*
X40726Y-2566D01*
X40726Y-2518D01*
X40697Y-2470D01*
X40669Y-2447D01*
X40612Y-2423D01*
X40497Y-2399D01*
X40440Y-2375D01*
X40412Y-2351D01*
X40383Y-2304D01*
X40383Y-2256D01*
X40412Y-2209D01*
X40440Y-2185D01*
X40497Y-2161D01*
X40640Y-2161D01*
X40726Y-2185D01*
X40954Y-2209D02*
X40983Y-2185D01*
X41040Y-2161D01*
X41183Y-2161D01*
X41240Y-2185D01*
X41269Y-2209D01*
X41297Y-2256D01*
X41297Y-2304D01*
X41269Y-2375D01*
X40926Y-2661D01*
X41297Y-2661D01*
X41812Y-2161D02*
X41697Y-2161D01*
X41640Y-2185D01*
X41612Y-2209D01*
X41554Y-2280D01*
X41526Y-2375D01*
X41526Y-2566D01*
X41554Y-2613D01*
X41583Y-2637D01*
X41640Y-2661D01*
X41754Y-2661D01*
X41812Y-2637D01*
X41840Y-2613D01*
X41869Y-2566D01*
X41869Y-2447D01*
X41840Y-2399D01*
X41812Y-2375D01*
X41754Y-2351D01*
X41640Y-2351D01*
X41583Y-2375D01*
X41554Y-2399D01*
X41526Y-2447D01*
X25383Y-2637D02*
X25469Y-2661D01*
X25612Y-2661D01*
X25669Y-2637D01*
X25697Y-2613D01*
X25726Y-2566D01*
X25726Y-2518D01*
X25697Y-2470D01*
X25669Y-2447D01*
X25612Y-2423D01*
X25497Y-2399D01*
X25440Y-2375D01*
X25412Y-2351D01*
X25383Y-2304D01*
X25383Y-2256D01*
X25412Y-2209D01*
X25440Y-2185D01*
X25497Y-2161D01*
X25640Y-2161D01*
X25726Y-2185D01*
X26297Y-2661D02*
X25954Y-2661D01*
X26126Y-2661D02*
X26126Y-2161D01*
X26069Y-2232D01*
X26012Y-2280D01*
X25954Y-2304D01*
X26812Y-2161D02*
X26697Y-2161D01*
X26640Y-2185D01*
X26612Y-2209D01*
X26554Y-2280D01*
X26526Y-2375D01*
X26526Y-2566D01*
X26554Y-2613D01*
X26583Y-2637D01*
X26640Y-2661D01*
X26754Y-2661D01*
X26812Y-2637D01*
X26840Y-2613D01*
X26869Y-2566D01*
X26869Y-2447D01*
X26840Y-2399D01*
X26812Y-2375D01*
X26754Y-2351D01*
X26640Y-2351D01*
X26583Y-2375D01*
X26554Y-2399D01*
X26526Y-2447D01*
X17883Y-2637D02*
X17969Y-2661D01*
X18112Y-2661D01*
X18169Y-2637D01*
X18197Y-2613D01*
X18226Y-2566D01*
X18226Y-2518D01*
X18197Y-2470D01*
X18169Y-2447D01*
X18112Y-2423D01*
X17997Y-2399D01*
X17940Y-2375D01*
X17912Y-2351D01*
X17883Y-2304D01*
X17883Y-2256D01*
X17912Y-2209D01*
X17940Y-2185D01*
X17997Y-2161D01*
X18140Y-2161D01*
X18226Y-2185D01*
X18797Y-2661D02*
X18454Y-2661D01*
X18626Y-2661D02*
X18626Y-2161D01*
X18569Y-2232D01*
X18512Y-2280D01*
X18454Y-2304D01*
X19369Y-2661D02*
X19026Y-2661D01*
X19197Y-2661D02*
X19197Y-2161D01*
X19140Y-2232D01*
X19083Y-2280D01*
X19026Y-2304D01*
X10333Y-2687D02*
X10419Y-2711D01*
X10562Y-2711D01*
X10619Y-2687D01*
X10647Y-2663D01*
X10676Y-2616D01*
X10676Y-2568D01*
X10647Y-2520D01*
X10619Y-2497D01*
X10562Y-2473D01*
X10447Y-2449D01*
X10390Y-2425D01*
X10362Y-2401D01*
X10333Y-2354D01*
X10333Y-2306D01*
X10362Y-2259D01*
X10390Y-2235D01*
X10447Y-2211D01*
X10590Y-2211D01*
X10676Y-2235D01*
X11047Y-2211D02*
X11104Y-2211D01*
X11162Y-2235D01*
X11190Y-2259D01*
X11219Y-2306D01*
X11247Y-2401D01*
X11247Y-2520D01*
X11219Y-2616D01*
X11190Y-2663D01*
X11162Y-2687D01*
X11104Y-2711D01*
X11047Y-2711D01*
X10990Y-2687D01*
X10962Y-2663D01*
X10933Y-2616D01*
X10904Y-2520D01*
X10904Y-2401D01*
X10933Y-2306D01*
X10962Y-2259D01*
X10990Y-2235D01*
X11047Y-2211D01*
X11762Y-2211D02*
X11647Y-2211D01*
X11590Y-2235D01*
X11562Y-2259D01*
X11504Y-2330D01*
X11476Y-2425D01*
X11476Y-2616D01*
X11504Y-2663D01*
X11533Y-2687D01*
X11590Y-2711D01*
X11704Y-2711D01*
X11762Y-2687D01*
X11790Y-2663D01*
X11819Y-2616D01*
X11819Y-2497D01*
X11790Y-2449D01*
X11762Y-2425D01*
X11704Y-2401D01*
X11590Y-2401D01*
X11533Y-2425D01*
X11504Y-2449D01*
X11476Y-2497D01*
X60958Y-17662D02*
X61044Y-17686D01*
X61187Y-17686D01*
X61244Y-17662D01*
X61272Y-17638D01*
X61301Y-17591D01*
X61301Y-17543D01*
X61272Y-17495D01*
X61244Y-17472D01*
X61187Y-17448D01*
X61072Y-17424D01*
X61015Y-17400D01*
X60987Y-17376D01*
X60958Y-17329D01*
X60958Y-17281D01*
X60987Y-17234D01*
X61015Y-17210D01*
X61072Y-17186D01*
X61215Y-17186D01*
X61301Y-17210D01*
X61501Y-17186D02*
X61872Y-17186D01*
X61672Y-17376D01*
X61758Y-17376D01*
X61815Y-17400D01*
X61844Y-17424D01*
X61872Y-17472D01*
X61872Y-17591D01*
X61844Y-17638D01*
X61815Y-17662D01*
X61758Y-17686D01*
X61587Y-17686D01*
X61529Y-17662D01*
X61501Y-17638D01*
X62215Y-17400D02*
X62158Y-17376D01*
X62129Y-17353D01*
X62101Y-17305D01*
X62101Y-17281D01*
X62129Y-17234D01*
X62158Y-17210D01*
X62215Y-17186D01*
X62329Y-17186D01*
X62387Y-17210D01*
X62415Y-17234D01*
X62444Y-17281D01*
X62444Y-17305D01*
X62415Y-17353D01*
X62387Y-17376D01*
X62329Y-17400D01*
X62215Y-17400D01*
X62158Y-17424D01*
X62129Y-17448D01*
X62101Y-17495D01*
X62101Y-17591D01*
X62129Y-17638D01*
X62158Y-17662D01*
X62215Y-17686D01*
X62329Y-17686D01*
X62387Y-17662D01*
X62415Y-17638D01*
X62444Y-17591D01*
X62444Y-17495D01*
X62415Y-17448D01*
X62387Y-17424D01*
X62329Y-17400D01*
X53458Y-17662D02*
X53544Y-17686D01*
X53687Y-17686D01*
X53744Y-17662D01*
X53772Y-17638D01*
X53801Y-17591D01*
X53801Y-17543D01*
X53772Y-17495D01*
X53744Y-17472D01*
X53687Y-17448D01*
X53572Y-17424D01*
X53515Y-17400D01*
X53487Y-17376D01*
X53458Y-17329D01*
X53458Y-17281D01*
X53487Y-17234D01*
X53515Y-17210D01*
X53572Y-17186D01*
X53715Y-17186D01*
X53801Y-17210D01*
X54001Y-17186D02*
X54372Y-17186D01*
X54172Y-17376D01*
X54258Y-17376D01*
X54315Y-17400D01*
X54344Y-17424D01*
X54372Y-17472D01*
X54372Y-17591D01*
X54344Y-17638D01*
X54315Y-17662D01*
X54258Y-17686D01*
X54087Y-17686D01*
X54029Y-17662D01*
X54001Y-17638D01*
X54572Y-17186D02*
X54944Y-17186D01*
X54744Y-17376D01*
X54829Y-17376D01*
X54887Y-17400D01*
X54915Y-17424D01*
X54944Y-17472D01*
X54944Y-17591D01*
X54915Y-17638D01*
X54887Y-17662D01*
X54829Y-17686D01*
X54658Y-17686D01*
X54601Y-17662D01*
X54572Y-17638D01*
X45958Y-17687D02*
X46044Y-17711D01*
X46187Y-17711D01*
X46244Y-17687D01*
X46272Y-17663D01*
X46301Y-17616D01*
X46301Y-17568D01*
X46272Y-17520D01*
X46244Y-17497D01*
X46187Y-17473D01*
X46072Y-17449D01*
X46015Y-17425D01*
X45987Y-17401D01*
X45958Y-17354D01*
X45958Y-17306D01*
X45987Y-17259D01*
X46015Y-17235D01*
X46072Y-17211D01*
X46215Y-17211D01*
X46301Y-17235D01*
X46529Y-17259D02*
X46558Y-17235D01*
X46615Y-17211D01*
X46758Y-17211D01*
X46815Y-17235D01*
X46844Y-17259D01*
X46872Y-17306D01*
X46872Y-17354D01*
X46844Y-17425D01*
X46501Y-17711D01*
X46872Y-17711D01*
X47215Y-17425D02*
X47158Y-17401D01*
X47129Y-17378D01*
X47101Y-17330D01*
X47101Y-17306D01*
X47129Y-17259D01*
X47158Y-17235D01*
X47215Y-17211D01*
X47329Y-17211D01*
X47387Y-17235D01*
X47415Y-17259D01*
X47444Y-17306D01*
X47444Y-17330D01*
X47415Y-17378D01*
X47387Y-17401D01*
X47329Y-17425D01*
X47215Y-17425D01*
X47158Y-17449D01*
X47129Y-17473D01*
X47101Y-17520D01*
X47101Y-17616D01*
X47129Y-17663D01*
X47158Y-17687D01*
X47215Y-17711D01*
X47329Y-17711D01*
X47387Y-17687D01*
X47415Y-17663D01*
X47444Y-17616D01*
X47444Y-17520D01*
X47415Y-17473D01*
X47387Y-17449D01*
X47329Y-17425D01*
X38458Y-17662D02*
X38544Y-17686D01*
X38687Y-17686D01*
X38744Y-17662D01*
X38772Y-17638D01*
X38801Y-17591D01*
X38801Y-17543D01*
X38772Y-17495D01*
X38744Y-17472D01*
X38687Y-17448D01*
X38572Y-17424D01*
X38515Y-17400D01*
X38487Y-17376D01*
X38458Y-17329D01*
X38458Y-17281D01*
X38487Y-17234D01*
X38515Y-17210D01*
X38572Y-17186D01*
X38715Y-17186D01*
X38801Y-17210D01*
X39029Y-17234D02*
X39058Y-17210D01*
X39115Y-17186D01*
X39258Y-17186D01*
X39315Y-17210D01*
X39344Y-17234D01*
X39372Y-17281D01*
X39372Y-17329D01*
X39344Y-17400D01*
X39001Y-17686D01*
X39372Y-17686D01*
X39572Y-17186D02*
X39944Y-17186D01*
X39744Y-17376D01*
X39829Y-17376D01*
X39887Y-17400D01*
X39915Y-17424D01*
X39944Y-17472D01*
X39944Y-17591D01*
X39915Y-17638D01*
X39887Y-17662D01*
X39829Y-17686D01*
X39658Y-17686D01*
X39601Y-17662D01*
X39572Y-17638D01*
X30958Y-17737D02*
X31044Y-17761D01*
X31187Y-17761D01*
X31244Y-17737D01*
X31272Y-17713D01*
X31301Y-17666D01*
X31301Y-17618D01*
X31272Y-17570D01*
X31244Y-17547D01*
X31187Y-17523D01*
X31072Y-17499D01*
X31015Y-17475D01*
X30987Y-17451D01*
X30958Y-17404D01*
X30958Y-17356D01*
X30987Y-17309D01*
X31015Y-17285D01*
X31072Y-17261D01*
X31215Y-17261D01*
X31301Y-17285D01*
X31872Y-17761D02*
X31529Y-17761D01*
X31701Y-17761D02*
X31701Y-17261D01*
X31644Y-17332D01*
X31587Y-17380D01*
X31529Y-17404D01*
X32215Y-17475D02*
X32158Y-17451D01*
X32129Y-17428D01*
X32101Y-17380D01*
X32101Y-17356D01*
X32129Y-17309D01*
X32158Y-17285D01*
X32215Y-17261D01*
X32329Y-17261D01*
X32387Y-17285D01*
X32415Y-17309D01*
X32444Y-17356D01*
X32444Y-17380D01*
X32415Y-17428D01*
X32387Y-17451D01*
X32329Y-17475D01*
X32215Y-17475D01*
X32158Y-17499D01*
X32129Y-17523D01*
X32101Y-17570D01*
X32101Y-17666D01*
X32129Y-17713D01*
X32158Y-17737D01*
X32215Y-17761D01*
X32329Y-17761D01*
X32387Y-17737D01*
X32415Y-17713D01*
X32444Y-17666D01*
X32444Y-17570D01*
X32415Y-17523D01*
X32387Y-17499D01*
X32329Y-17475D01*
X23458Y-17662D02*
X23544Y-17686D01*
X23687Y-17686D01*
X23744Y-17662D01*
X23772Y-17638D01*
X23801Y-17591D01*
X23801Y-17543D01*
X23772Y-17495D01*
X23744Y-17472D01*
X23687Y-17448D01*
X23572Y-17424D01*
X23515Y-17400D01*
X23487Y-17376D01*
X23458Y-17329D01*
X23458Y-17281D01*
X23487Y-17234D01*
X23515Y-17210D01*
X23572Y-17186D01*
X23715Y-17186D01*
X23801Y-17210D01*
X24372Y-17686D02*
X24029Y-17686D01*
X24201Y-17686D02*
X24201Y-17186D01*
X24144Y-17257D01*
X24087Y-17305D01*
X24029Y-17329D01*
X24572Y-17186D02*
X24944Y-17186D01*
X24744Y-17376D01*
X24829Y-17376D01*
X24887Y-17400D01*
X24915Y-17424D01*
X24944Y-17472D01*
X24944Y-17591D01*
X24915Y-17638D01*
X24887Y-17662D01*
X24829Y-17686D01*
X24658Y-17686D01*
X24601Y-17662D01*
X24572Y-17638D01*
X15958Y-17687D02*
X16044Y-17711D01*
X16187Y-17711D01*
X16244Y-17687D01*
X16272Y-17663D01*
X16301Y-17616D01*
X16301Y-17568D01*
X16272Y-17520D01*
X16244Y-17497D01*
X16187Y-17473D01*
X16072Y-17449D01*
X16015Y-17425D01*
X15987Y-17401D01*
X15958Y-17354D01*
X15958Y-17306D01*
X15987Y-17259D01*
X16015Y-17235D01*
X16072Y-17211D01*
X16215Y-17211D01*
X16301Y-17235D01*
X16672Y-17211D02*
X16729Y-17211D01*
X16787Y-17235D01*
X16815Y-17259D01*
X16844Y-17306D01*
X16872Y-17401D01*
X16872Y-17520D01*
X16844Y-17616D01*
X16815Y-17663D01*
X16787Y-17687D01*
X16729Y-17711D01*
X16672Y-17711D01*
X16615Y-17687D01*
X16587Y-17663D01*
X16558Y-17616D01*
X16529Y-17520D01*
X16529Y-17401D01*
X16558Y-17306D01*
X16587Y-17259D01*
X16615Y-17235D01*
X16672Y-17211D01*
X17215Y-17425D02*
X17158Y-17401D01*
X17129Y-17378D01*
X17101Y-17330D01*
X17101Y-17306D01*
X17129Y-17259D01*
X17158Y-17235D01*
X17215Y-17211D01*
X17329Y-17211D01*
X17387Y-17235D01*
X17415Y-17259D01*
X17444Y-17306D01*
X17444Y-17330D01*
X17415Y-17378D01*
X17387Y-17401D01*
X17329Y-17425D01*
X17215Y-17425D01*
X17158Y-17449D01*
X17129Y-17473D01*
X17101Y-17520D01*
X17101Y-17616D01*
X17129Y-17663D01*
X17158Y-17687D01*
X17215Y-17711D01*
X17329Y-17711D01*
X17387Y-17687D01*
X17415Y-17663D01*
X17444Y-17616D01*
X17444Y-17520D01*
X17415Y-17473D01*
X17387Y-17449D01*
X17329Y-17425D01*
X82558Y-10162D02*
X82644Y-10186D01*
X82787Y-10186D01*
X82844Y-10162D01*
X82872Y-10138D01*
X82901Y-10091D01*
X82901Y-10043D01*
X82872Y-9995D01*
X82844Y-9972D01*
X82787Y-9948D01*
X82672Y-9924D01*
X82615Y-9900D01*
X82587Y-9876D01*
X82558Y-9829D01*
X82558Y-9781D01*
X82587Y-9734D01*
X82615Y-9710D01*
X82672Y-9686D01*
X82815Y-9686D01*
X82901Y-9710D01*
X83444Y-9686D02*
X83158Y-9686D01*
X83129Y-9924D01*
X83158Y-9900D01*
X83215Y-9876D01*
X83358Y-9876D01*
X83415Y-9900D01*
X83444Y-9924D01*
X83472Y-9972D01*
X83472Y-10091D01*
X83444Y-10138D01*
X83415Y-10162D01*
X83358Y-10186D01*
X83215Y-10186D01*
X83158Y-10162D01*
X83129Y-10138D01*
X83701Y-9734D02*
X83729Y-9710D01*
X83787Y-9686D01*
X83929Y-9686D01*
X83987Y-9710D01*
X84015Y-9734D01*
X84044Y-9781D01*
X84044Y-9829D01*
X84015Y-9900D01*
X83672Y-10186D01*
X84044Y-10186D01*
X72258Y-10187D02*
X72344Y-10211D01*
X72487Y-10211D01*
X72544Y-10187D01*
X72572Y-10163D01*
X72601Y-10116D01*
X72601Y-10068D01*
X72572Y-10020D01*
X72544Y-9997D01*
X72487Y-9973D01*
X72372Y-9949D01*
X72315Y-9925D01*
X72287Y-9901D01*
X72258Y-9854D01*
X72258Y-9806D01*
X72287Y-9759D01*
X72315Y-9735D01*
X72372Y-9711D01*
X72515Y-9711D01*
X72601Y-9735D01*
X73115Y-9878D02*
X73115Y-10211D01*
X72972Y-9687D02*
X72829Y-10044D01*
X73201Y-10044D01*
X73372Y-9711D02*
X73772Y-9711D01*
X73515Y-10211D01*
X64758Y-10187D02*
X64844Y-10211D01*
X64987Y-10211D01*
X65044Y-10187D01*
X65072Y-10163D01*
X65101Y-10116D01*
X65101Y-10068D01*
X65072Y-10020D01*
X65044Y-9997D01*
X64987Y-9973D01*
X64872Y-9949D01*
X64815Y-9925D01*
X64787Y-9901D01*
X64758Y-9854D01*
X64758Y-9806D01*
X64787Y-9759D01*
X64815Y-9735D01*
X64872Y-9711D01*
X65015Y-9711D01*
X65101Y-9735D01*
X65615Y-9878D02*
X65615Y-10211D01*
X65472Y-9687D02*
X65329Y-10044D01*
X65701Y-10044D01*
X65901Y-9759D02*
X65929Y-9735D01*
X65987Y-9711D01*
X66129Y-9711D01*
X66187Y-9735D01*
X66215Y-9759D01*
X66244Y-9806D01*
X66244Y-9854D01*
X66215Y-9925D01*
X65872Y-10211D01*
X66244Y-10211D01*
X57258Y-10187D02*
X57344Y-10211D01*
X57487Y-10211D01*
X57544Y-10187D01*
X57572Y-10163D01*
X57601Y-10116D01*
X57601Y-10068D01*
X57572Y-10020D01*
X57544Y-9997D01*
X57487Y-9973D01*
X57372Y-9949D01*
X57315Y-9925D01*
X57287Y-9901D01*
X57258Y-9854D01*
X57258Y-9806D01*
X57287Y-9759D01*
X57315Y-9735D01*
X57372Y-9711D01*
X57515Y-9711D01*
X57601Y-9735D01*
X57801Y-9711D02*
X58172Y-9711D01*
X57972Y-9901D01*
X58058Y-9901D01*
X58115Y-9925D01*
X58144Y-9949D01*
X58172Y-9997D01*
X58172Y-10116D01*
X58144Y-10163D01*
X58115Y-10187D01*
X58058Y-10211D01*
X57887Y-10211D01*
X57829Y-10187D01*
X57801Y-10163D01*
X58372Y-9711D02*
X58772Y-9711D01*
X58515Y-10211D01*
X42258Y-10187D02*
X42344Y-10211D01*
X42487Y-10211D01*
X42544Y-10187D01*
X42572Y-10163D01*
X42601Y-10116D01*
X42601Y-10068D01*
X42572Y-10020D01*
X42544Y-9997D01*
X42487Y-9973D01*
X42372Y-9949D01*
X42315Y-9925D01*
X42287Y-9901D01*
X42258Y-9854D01*
X42258Y-9806D01*
X42287Y-9759D01*
X42315Y-9735D01*
X42372Y-9711D01*
X42515Y-9711D01*
X42601Y-9735D01*
X42829Y-9759D02*
X42858Y-9735D01*
X42915Y-9711D01*
X43058Y-9711D01*
X43115Y-9735D01*
X43144Y-9759D01*
X43172Y-9806D01*
X43172Y-9854D01*
X43144Y-9925D01*
X42801Y-10211D01*
X43172Y-10211D01*
X43372Y-9711D02*
X43772Y-9711D01*
X43515Y-10211D01*
X34758Y-10187D02*
X34844Y-10211D01*
X34987Y-10211D01*
X35044Y-10187D01*
X35072Y-10163D01*
X35101Y-10116D01*
X35101Y-10068D01*
X35072Y-10020D01*
X35044Y-9997D01*
X34987Y-9973D01*
X34872Y-9949D01*
X34815Y-9925D01*
X34787Y-9901D01*
X34758Y-9854D01*
X34758Y-9806D01*
X34787Y-9759D01*
X34815Y-9735D01*
X34872Y-9711D01*
X35015Y-9711D01*
X35101Y-9735D01*
X35329Y-9759D02*
X35358Y-9735D01*
X35415Y-9711D01*
X35558Y-9711D01*
X35615Y-9735D01*
X35644Y-9759D01*
X35672Y-9806D01*
X35672Y-9854D01*
X35644Y-9925D01*
X35301Y-10211D01*
X35672Y-10211D01*
X35901Y-9759D02*
X35929Y-9735D01*
X35987Y-9711D01*
X36129Y-9711D01*
X36187Y-9735D01*
X36215Y-9759D01*
X36244Y-9806D01*
X36244Y-9854D01*
X36215Y-9925D01*
X35872Y-10211D01*
X36244Y-10211D01*
X77883Y-2637D02*
X77969Y-2661D01*
X78112Y-2661D01*
X78169Y-2637D01*
X78197Y-2613D01*
X78226Y-2566D01*
X78226Y-2518D01*
X78197Y-2470D01*
X78169Y-2447D01*
X78112Y-2423D01*
X77997Y-2399D01*
X77940Y-2375D01*
X77912Y-2351D01*
X77883Y-2304D01*
X77883Y-2256D01*
X77912Y-2209D01*
X77940Y-2185D01*
X77997Y-2161D01*
X78140Y-2161D01*
X78226Y-2185D01*
X78769Y-2161D02*
X78483Y-2161D01*
X78454Y-2399D01*
X78483Y-2375D01*
X78540Y-2351D01*
X78683Y-2351D01*
X78740Y-2375D01*
X78769Y-2399D01*
X78797Y-2447D01*
X78797Y-2566D01*
X78769Y-2613D01*
X78740Y-2637D01*
X78683Y-2661D01*
X78540Y-2661D01*
X78483Y-2637D01*
X78454Y-2613D01*
X79369Y-2661D02*
X79026Y-2661D01*
X79197Y-2661D02*
X79197Y-2161D01*
X79140Y-2232D01*
X79083Y-2280D01*
X79026Y-2304D01*
X2883Y-2687D02*
X2969Y-2711D01*
X3112Y-2711D01*
X3169Y-2687D01*
X3197Y-2663D01*
X3226Y-2616D01*
X3226Y-2568D01*
X3197Y-2520D01*
X3169Y-2497D01*
X3112Y-2473D01*
X2997Y-2449D01*
X2940Y-2425D01*
X2912Y-2401D01*
X2883Y-2354D01*
X2883Y-2306D01*
X2912Y-2259D01*
X2940Y-2235D01*
X2997Y-2211D01*
X3140Y-2211D01*
X3226Y-2235D01*
X3597Y-2211D02*
X3654Y-2211D01*
X3712Y-2235D01*
X3740Y-2259D01*
X3769Y-2306D01*
X3797Y-2401D01*
X3797Y-2520D01*
X3769Y-2616D01*
X3740Y-2663D01*
X3712Y-2687D01*
X3654Y-2711D01*
X3597Y-2711D01*
X3540Y-2687D01*
X3512Y-2663D01*
X3483Y-2616D01*
X3454Y-2520D01*
X3454Y-2401D01*
X3483Y-2306D01*
X3512Y-2259D01*
X3540Y-2235D01*
X3597Y-2211D01*
X4369Y-2711D02*
X4026Y-2711D01*
X4197Y-2711D02*
X4197Y-2211D01*
X4140Y-2282D01*
X4083Y-2330D01*
X4026Y-2354D01*
X82747Y-17687D02*
X82833Y-17711D01*
X82976Y-17711D01*
X83033Y-17687D01*
X83062Y-17663D01*
X83090Y-17616D01*
X83090Y-17568D01*
X83062Y-17520D01*
X83033Y-17497D01*
X82976Y-17473D01*
X82862Y-17449D01*
X82804Y-17425D01*
X82776Y-17401D01*
X82747Y-17354D01*
X82747Y-17306D01*
X82776Y-17259D01*
X82804Y-17235D01*
X82862Y-17211D01*
X83004Y-17211D01*
X83090Y-17235D01*
X83633Y-17211D02*
X83347Y-17211D01*
X83319Y-17449D01*
X83347Y-17425D01*
X83404Y-17401D01*
X83547Y-17401D01*
X83604Y-17425D01*
X83633Y-17449D01*
X83662Y-17497D01*
X83662Y-17616D01*
X83633Y-17663D01*
X83604Y-17687D01*
X83547Y-17711D01*
X83404Y-17711D01*
X83347Y-17687D01*
X83319Y-17663D01*
X83862Y-17211D02*
X84233Y-17211D01*
X84033Y-17401D01*
X84119Y-17401D01*
X84176Y-17425D01*
X84204Y-17449D01*
X84233Y-17497D01*
X84233Y-17616D01*
X84204Y-17663D01*
X84176Y-17687D01*
X84119Y-17711D01*
X83947Y-17711D01*
X83890Y-17687D01*
X83862Y-17663D01*
X84804Y-17711D02*
X84462Y-17711D01*
X84633Y-17711D02*
X84633Y-17211D01*
X84576Y-17282D01*
X84519Y-17330D01*
X84462Y-17354D01*
X74272Y-17687D02*
X74358Y-17711D01*
X74501Y-17711D01*
X74558Y-17687D01*
X74587Y-17663D01*
X74615Y-17616D01*
X74615Y-17568D01*
X74587Y-17520D01*
X74558Y-17497D01*
X74501Y-17473D01*
X74387Y-17449D01*
X74329Y-17425D01*
X74301Y-17401D01*
X74272Y-17354D01*
X74272Y-17306D01*
X74301Y-17259D01*
X74329Y-17235D01*
X74387Y-17211D01*
X74529Y-17211D01*
X74615Y-17235D01*
X75129Y-17378D02*
X75129Y-17711D01*
X74987Y-17187D02*
X74844Y-17544D01*
X75215Y-17544D01*
X75529Y-17425D02*
X75472Y-17401D01*
X75444Y-17378D01*
X75415Y-17330D01*
X75415Y-17306D01*
X75444Y-17259D01*
X75472Y-17235D01*
X75529Y-17211D01*
X75644Y-17211D01*
X75701Y-17235D01*
X75729Y-17259D01*
X75758Y-17306D01*
X75758Y-17330D01*
X75729Y-17378D01*
X75701Y-17401D01*
X75644Y-17425D01*
X75529Y-17425D01*
X75472Y-17449D01*
X75444Y-17473D01*
X75415Y-17520D01*
X75415Y-17616D01*
X75444Y-17663D01*
X75472Y-17687D01*
X75529Y-17711D01*
X75644Y-17711D01*
X75701Y-17687D01*
X75729Y-17663D01*
X75758Y-17616D01*
X75758Y-17520D01*
X75729Y-17473D01*
X75701Y-17449D01*
X75644Y-17425D01*
X76329Y-17711D02*
X75987Y-17711D01*
X76158Y-17711D02*
X76158Y-17211D01*
X76101Y-17282D01*
X76044Y-17330D01*
X75987Y-17354D01*
X46859Y-25051D02*
X46945Y-25075D01*
X47088Y-25075D01*
X47145Y-25051D01*
X47173Y-25027D01*
X47202Y-24980D01*
X47202Y-24932D01*
X47173Y-24885D01*
X47145Y-24861D01*
X47088Y-24837D01*
X46973Y-24813D01*
X46916Y-24789D01*
X46888Y-24766D01*
X46859Y-24718D01*
X46859Y-24670D01*
X46888Y-24623D01*
X46916Y-24599D01*
X46973Y-24575D01*
X47116Y-24575D01*
X47202Y-24599D01*
X47430Y-24623D02*
X47459Y-24599D01*
X47516Y-24575D01*
X47659Y-24575D01*
X47716Y-24599D01*
X47745Y-24623D01*
X47773Y-24670D01*
X47773Y-24718D01*
X47745Y-24789D01*
X47402Y-25075D01*
X47773Y-25075D01*
X48059Y-25075D02*
X48173Y-25075D01*
X48230Y-25051D01*
X48259Y-25027D01*
X48316Y-24956D01*
X48345Y-24861D01*
X48345Y-24670D01*
X48316Y-24623D01*
X48288Y-24599D01*
X48230Y-24575D01*
X48116Y-24575D01*
X48059Y-24599D01*
X48030Y-24623D01*
X48002Y-24670D01*
X48002Y-24789D01*
X48030Y-24837D01*
X48059Y-24861D01*
X48116Y-24885D01*
X48230Y-24885D01*
X48288Y-24861D01*
X48316Y-24837D01*
X48345Y-24789D01*
%LPC*%
G54D20*
X37111Y-28809D03*
X35111Y-28809D03*
X33111Y-28809D03*
X36111Y-28809D03*
X34111Y-28809D03*
X38111Y-28809D03*
G54D21*
X1376Y-13509D03*
X1376Y-10509D03*
X2701Y-16622D03*
X2701Y-19622D03*
G54D22*
X3551Y-28122D03*
X6051Y-27122D03*
G54D23*
X4551Y-26122D03*
G54D24*
X6551Y-26122D03*
X2551Y-26122D03*
G54D22*
X3551Y-13122D03*
X6051Y-12122D03*
G54D23*
X4551Y-11122D03*
G54D24*
X6551Y-11122D03*
X2551Y-11122D03*
G54D22*
X5401Y-20622D03*
X7901Y-19622D03*
G54D23*
X6401Y-18622D03*
G54D24*
X8401Y-18622D03*
X4401Y-18622D03*
G54D25*
X24701Y-16622D03*
G54D26*
X23701Y-16622D03*
G54D25*
X13501Y-24122D03*
G54D26*
X12501Y-24122D03*
G54D25*
X17201Y-16622D03*
G54D26*
X16201Y-16622D03*
G54D25*
X5051Y-9122D03*
G54D26*
X4051Y-9122D03*
G54D25*
X11601Y-1621D03*
G54D26*
X10601Y-1621D03*
G54D25*
X5051Y-24122D03*
G54D26*
X4051Y-24122D03*
G54D22*
X85101Y-20622D03*
X87601Y-19622D03*
G54D23*
X86101Y-18622D03*
G54D24*
X88101Y-18622D03*
X84101Y-18622D03*
G54D22*
X49501Y-13122D03*
X52001Y-12122D03*
G54D23*
X50501Y-11122D03*
G54D24*
X52501Y-11122D03*
X48501Y-11122D03*
G54D22*
X70101Y-5622D03*
X72601Y-4622D03*
G54D23*
X71101Y-3622D03*
G54D24*
X73101Y-3622D03*
X69101Y-3622D03*
G54D22*
X32601Y-5622D03*
X35101Y-4622D03*
G54D23*
X33601Y-3622D03*
G54D24*
X35601Y-3622D03*
X31601Y-3622D03*
G54D22*
X84151Y-28122D03*
X86651Y-27122D03*
G54D23*
X85151Y-26122D03*
G54D24*
X87151Y-26122D03*
X83151Y-26122D03*
G54D22*
X74801Y-28122D03*
X77301Y-27122D03*
G54D23*
X75801Y-26122D03*
G54D24*
X77801Y-26122D03*
X73801Y-26122D03*
G54D22*
X19501Y-28122D03*
X22001Y-27122D03*
G54D23*
X20501Y-26122D03*
G54D24*
X22501Y-26122D03*
X18501Y-26122D03*
G54D22*
X12001Y-28122D03*
X14501Y-27122D03*
G54D23*
X13001Y-26122D03*
G54D24*
X15001Y-26122D03*
X11001Y-26122D03*
G54D22*
X76651Y-20622D03*
X79151Y-19622D03*
G54D23*
X77651Y-18622D03*
G54D24*
X79651Y-18622D03*
X75651Y-18622D03*
G54D22*
X68201Y-20622D03*
X70701Y-19622D03*
G54D23*
X69201Y-18622D03*
G54D24*
X71201Y-18622D03*
X67201Y-18622D03*
G54D22*
X27001Y-13122D03*
X29501Y-12122D03*
G54D23*
X28001Y-11122D03*
G54D24*
X30001Y-11122D03*
X26001Y-11122D03*
G54D22*
X19501Y-13122D03*
X22001Y-12122D03*
G54D23*
X20501Y-11122D03*
G54D24*
X22501Y-11122D03*
X18501Y-11122D03*
G54D22*
X12001Y-13122D03*
X14501Y-12122D03*
G54D23*
X13001Y-11122D03*
G54D24*
X15001Y-11122D03*
X11001Y-11122D03*
G54D22*
X85101Y-5622D03*
X87601Y-4622D03*
G54D23*
X86101Y-3622D03*
G54D24*
X88101Y-3622D03*
X84101Y-3622D03*
G54D22*
X62601Y-5622D03*
X65101Y-4622D03*
G54D23*
X63601Y-3622D03*
G54D24*
X65601Y-3622D03*
X61601Y-3622D03*
G54D22*
X55101Y-5622D03*
X57601Y-4622D03*
G54D23*
X56101Y-3622D03*
G54D24*
X58101Y-3622D03*
X54101Y-3622D03*
G54D22*
X47601Y-5622D03*
X50101Y-4622D03*
G54D23*
X48601Y-3622D03*
G54D24*
X50601Y-3622D03*
X46601Y-3622D03*
G54D22*
X40101Y-5622D03*
X42601Y-4622D03*
G54D23*
X41101Y-3622D03*
G54D24*
X43101Y-3622D03*
X39101Y-3622D03*
G54D22*
X25101Y-5622D03*
X27601Y-4622D03*
G54D23*
X26101Y-3622D03*
G54D24*
X28101Y-3622D03*
X24101Y-3622D03*
G54D22*
X17601Y-5622D03*
X20101Y-4622D03*
G54D23*
X18601Y-3622D03*
G54D24*
X20601Y-3622D03*
X16601Y-3622D03*
G54D22*
X10101Y-5622D03*
X12601Y-4622D03*
G54D23*
X11101Y-3622D03*
G54D24*
X13101Y-3622D03*
X9101Y-3622D03*
G54D22*
X60701Y-20622D03*
X63201Y-19622D03*
G54D23*
X61701Y-18622D03*
G54D24*
X63701Y-18622D03*
X59701Y-18622D03*
G54D22*
X53201Y-20622D03*
X55701Y-19622D03*
G54D23*
X54201Y-18622D03*
G54D24*
X56201Y-18622D03*
X52201Y-18622D03*
G54D22*
X45701Y-20622D03*
X48201Y-19622D03*
G54D23*
X46701Y-18622D03*
G54D24*
X48701Y-18622D03*
X44701Y-18622D03*
G54D22*
X38201Y-20622D03*
X40701Y-19622D03*
G54D23*
X39201Y-18622D03*
G54D24*
X41201Y-18622D03*
X37201Y-18622D03*
G54D22*
X30701Y-20622D03*
X33201Y-19622D03*
G54D23*
X31701Y-18622D03*
G54D24*
X33701Y-18622D03*
X29701Y-18622D03*
G54D22*
X23201Y-20622D03*
X25701Y-19622D03*
G54D23*
X24201Y-18622D03*
G54D24*
X26201Y-18622D03*
X22201Y-18622D03*
G54D22*
X15701Y-20622D03*
X18201Y-19622D03*
G54D23*
X16701Y-18622D03*
G54D24*
X18701Y-18622D03*
X14701Y-18622D03*
G54D22*
X82301Y-13122D03*
X84801Y-12122D03*
G54D23*
X83301Y-11122D03*
G54D24*
X85301Y-11122D03*
X81301Y-11122D03*
G54D22*
X72001Y-13122D03*
X74501Y-12122D03*
G54D23*
X73001Y-11122D03*
G54D24*
X75001Y-11122D03*
X71001Y-11122D03*
G54D22*
X64501Y-13122D03*
X67001Y-12122D03*
G54D23*
X65501Y-11122D03*
G54D24*
X67501Y-11122D03*
X63501Y-11122D03*
G54D22*
X57001Y-13122D03*
X59501Y-12122D03*
G54D23*
X58001Y-11122D03*
G54D24*
X60001Y-11122D03*
X56001Y-11122D03*
G54D22*
X42001Y-13122D03*
X44501Y-12122D03*
G54D23*
X43001Y-11122D03*
G54D24*
X45001Y-11122D03*
X41001Y-11122D03*
G54D22*
X34501Y-13122D03*
X37001Y-12122D03*
G54D23*
X35501Y-11122D03*
G54D24*
X37501Y-11122D03*
X33501Y-11122D03*
G54D22*
X77601Y-5622D03*
X80101Y-4622D03*
G54D23*
X78601Y-3622D03*
G54D24*
X80601Y-3622D03*
X76601Y-3622D03*
G54D25*
X48271Y-24124D03*
G54D26*
X47271Y-24124D03*
G54D25*
X62201Y-16622D03*
G54D26*
X61201Y-16622D03*
G54D25*
X54701Y-16622D03*
G54D26*
X53701Y-16622D03*
G54D25*
X47201Y-16622D03*
G54D26*
X46201Y-16622D03*
G54D25*
X39701Y-16622D03*
G54D26*
X38701Y-16622D03*
G54D25*
X83801Y-9122D03*
G54D26*
X82801Y-9122D03*
G54D25*
X73501Y-9122D03*
G54D26*
X72501Y-9122D03*
G54D25*
X66001Y-9122D03*
G54D26*
X65001Y-9122D03*
G54D25*
X32201Y-16672D03*
G54D26*
X31201Y-16672D03*
G54D25*
X58501Y-9122D03*
G54D26*
X57501Y-9122D03*
G54D25*
X34101Y-1622D03*
G54D26*
X33101Y-1622D03*
G54D25*
X41601Y-1622D03*
G54D26*
X40601Y-1622D03*
G54D25*
X49101Y-1622D03*
G54D26*
X48101Y-1622D03*
G54D25*
X56601Y-1622D03*
G54D26*
X55601Y-1622D03*
G54D25*
X26601Y-1622D03*
G54D26*
X25601Y-1622D03*
G54D25*
X51001Y-9122D03*
G54D26*
X50001Y-9122D03*
G54D25*
X64101Y-1622D03*
G54D26*
X63101Y-1622D03*
G54D25*
X71601Y-1622D03*
G54D26*
X70601Y-1622D03*
G54D25*
X79101Y-1622D03*
G54D26*
X78101Y-1622D03*
G54D25*
X86601Y-1622D03*
G54D26*
X85601Y-1622D03*
G54D25*
X36001Y-9122D03*
G54D26*
X35001Y-9122D03*
G54D25*
X43501Y-9122D03*
G54D26*
X42501Y-9122D03*
G54D25*
X85651Y-24122D03*
G54D26*
X84651Y-24122D03*
G54D25*
X76301Y-24122D03*
G54D26*
X75301Y-24122D03*
G54D25*
X69701Y-16622D03*
G54D26*
X68701Y-16622D03*
G54D25*
X78151Y-16622D03*
G54D26*
X77151Y-16622D03*
G54D25*
X21001Y-24122D03*
G54D26*
X20001Y-24122D03*
G54D25*
X86601Y-16622D03*
G54D26*
X85601Y-16622D03*
G54D25*
X4101Y-1621D03*
G54D26*
X3101Y-1621D03*
G54D22*
X2601Y-5622D03*
X5101Y-4622D03*
G54D23*
X3601Y-3622D03*
G54D24*
X5601Y-3622D03*
X1601Y-3622D03*
G54D25*
X6901Y-16622D03*
G54D26*
X5901Y-16622D03*
G54D21*
X31301Y-12122D03*
X31301Y-9122D03*
X23851Y-12122D03*
X23851Y-9122D03*
X16301Y-13022D03*
X16301Y-10022D03*
X22001Y-4622D03*
X22001Y-1622D03*
G54D25*
X28501Y-9122D03*
G54D26*
X27501Y-9122D03*
G54D25*
X21001Y-9122D03*
G54D26*
X20001Y-9122D03*
G54D25*
X13501Y-9122D03*
G54D26*
X12501Y-9122D03*
G54D25*
X19101Y-1622D03*
G54D26*
X18101Y-1622D03*
G54D22*
X84201Y-20622D03*
X86701Y-19622D03*
G54D23*
X85201Y-18622D03*
G54D24*
X87201Y-18622D03*
X83201Y-18622D03*
G54D22*
X75701Y-20622D03*
X78201Y-19622D03*
G54D23*
X76701Y-18622D03*
G54D24*
X78701Y-18622D03*
X74701Y-18622D03*
G54D25*
X76201Y-16622D03*
G54D26*
X77201Y-16622D03*
G54D25*
X84701Y-16622D03*
G54D26*
X85701Y-16622D03*
G54D27*
X88976Y-7559D03*
X88976Y-8059D03*
X88976Y-8559D03*
X88976Y-9059D03*
X88976Y-13059D03*
X88976Y-13559D03*
X88976Y-10559D03*
X88976Y-11059D03*
X88976Y-11559D03*
X88976Y-12059D03*
X88976Y-12559D03*
G54D28*
X351Y-29472D03*
X89401Y-322D03*
X89376Y-29468D03*
X351Y-322D03*
G54D27*
X88976Y-14059D03*
X88976Y-10059D03*
X88976Y-14559D03*
X88976Y-15059D03*
G54D29*
X89071Y-22244D03*
X78701Y-11122D03*
X16801Y-7722D03*
X50472Y-18503D03*
X574Y-22244D03*
G54D30*
X6299Y-1523D03*
X8031Y-1523D03*
G54D31*
X37602Y-2123D03*
X37602Y-3123D03*
X37602Y-4123D03*
X45102Y-1123D03*
X45102Y-3123D03*
X45102Y-4123D03*
X37602Y-1123D03*
X52602Y-3123D03*
X52602Y-4123D03*
X60102Y-4123D03*
X60102Y-3123D03*
X60102Y-2123D03*
X60102Y-1123D03*
X52602Y-2123D03*
X45102Y-2123D03*
X52602Y-1123D03*
X52602Y-6123D03*
X60102Y-6123D03*
G54D22*
X46602Y-28123D03*
X49102Y-27123D03*
G54D23*
X47602Y-26123D03*
G54D24*
X49602Y-26123D03*
X45602Y-26123D03*
G54D32*
X67302Y-28873D03*
X27902Y-28873D03*
G54D23*
X67302Y-22873D03*
X27902Y-22873D03*
M02*
