M48
;DRILL file {Pcbnew (2013-02-13 BZR 3947)-testing} date 9/20/2013 1:25:51 PM
;FORMAT={3:3/ absolute / metric / keep zeros}
FMAT,2
METRIC,TZ
T1C0.400
T2C0.813
T3C0.900
T4C0.991
T5C1.499
T6C1.702
T7C2.499
T8C3.048
T9C3.988
%
G90
G05
M71
T1
X000892Y-000818
X000892Y-074859
X006227Y-039584
X015567Y-005667
X016473Y-001562
X020895Y-057382
X023022Y-053930
X024042Y-054858
X026192Y-058570
X026389Y-025614
X026389Y-037107
X043310Y-058570
X047883Y-038060
X051752Y-055872
X059313Y-057999
X059313Y-061999
X063440Y-058570
X066742Y-061936
X066742Y-067333
X073784Y-055765
X076140Y-001420
X083580Y-033330
X084903Y-067269
X094713Y-069870
X108693Y-061347
X110260Y-062262
X128070Y-067486
X131222Y-065106
X131282Y-068038
X132515Y-065741
X135350Y-060078
X135416Y-066924
X135500Y-058875
X138556Y-052528
X138709Y-056498
X139186Y-070930
X142007Y-056413
X142567Y-069711
X142620Y-068038
X143602Y-057660
X144138Y-066924
X144837Y-015172
X145581Y-057622
X148279Y-062999
X148794Y-069771
X148883Y-058614
X149070Y-061981
X149299Y-063682
X149477Y-065620
X149477Y-067596
X151128Y-057622
X152754Y-070831
X153250Y-031729
X153783Y-062074
X153794Y-064498
X153853Y-067187
X156486Y-026258
X158076Y-071192
X160964Y-067633
X177169Y-056475
X177169Y-067862
X177731Y-033831
X189742Y-038695
X193354Y-069311
X196028Y-036917
X205490Y-057935
X205490Y-065682
X205553Y-070513
X207141Y-036980
X210219Y-063427
X212157Y-057999
X227080Y-000818
X227080Y-036980
X227080Y-074859
T2
X003496Y-026693
X003496Y-034313
X006862Y-042220
X006862Y-049840
X041406Y-025456
X041406Y-033076
X055884Y-004120
X055884Y-011740
X060582Y-023170
X060582Y-030790
X079506Y-023170
X079506Y-030790
T3
X016000Y-003870
X020400Y-003870
X084103Y-073175
X086643Y-073175
X089183Y-073175
X091723Y-073175
X094263Y-073175
X094936Y-006500
X094936Y-009040
X094936Y-011580
X094936Y-014120
X096803Y-073175
X113986Y-003960
X113986Y-006500
X113986Y-009040
X113986Y-011580
X113986Y-014120
X133036Y-003960
X133036Y-006500
X133036Y-009040
X133036Y-011580
X133036Y-014120
X152086Y-003960
X152086Y-009040
X152086Y-014120
X171136Y-003960
X171136Y-006500
X171136Y-009040
X171136Y-011580
X171136Y-014120
T4
X007877Y-004119
X010291Y-023170
X010291Y-061270
X010417Y-004119
X012830Y-023170
X012830Y-061270
X014989Y-042220
X017530Y-042220
X026928Y-004119
X029467Y-004119
X031753Y-023170
X031753Y-061270
X034294Y-023170
X034294Y-061270
X041152Y-042220
X043692Y-042220
X045978Y-004120
X048518Y-004120
X050804Y-023170
X050804Y-061270
X053344Y-023170
X053344Y-061270
X060202Y-042220
X062742Y-042220
X065028Y-004120
X067568Y-004120
X069854Y-023170
X072394Y-023170
X079252Y-042347
X081792Y-042347
X084078Y-004120
X086618Y-004120
X088904Y-023170
X091444Y-023170
X098302Y-042220
X100842Y-042220
X103128Y-004120
X105668Y-004120
X107954Y-023170
X110494Y-023170
X117352Y-042220
X119892Y-042220
X120069Y-061275
X122178Y-004120
X122609Y-061275
X124718Y-004120
X127004Y-023170
X129544Y-023170
X136402Y-042220
X138942Y-042220
X141228Y-004120
X143768Y-004120
X146054Y-023170
X148594Y-023170
X155452Y-042220
X157992Y-042220
X160278Y-004120
X162818Y-004120
X165104Y-023170
X167644Y-023170
X174502Y-042220
X177042Y-042220
X179328Y-004120
X181868Y-004120
X184154Y-023170
X186694Y-023170
X191266Y-061270
X193552Y-042220
X193806Y-061270
X195964Y-042220
X196092Y-042220
X198378Y-004120
X198504Y-042220
X200918Y-004120
X210316Y-023170
X212856Y-023170
X215014Y-061270
X215142Y-042220
X217428Y-004120
X217428Y-042220
X217554Y-061270
X217682Y-042220
X219968Y-004120
X219968Y-042220
T5
X006608Y-014280
X009021Y-033330
X009021Y-071430
X012958Y-011740
X013719Y-052380
X015370Y-030790
X015370Y-068890
X020070Y-049840
X025658Y-014280
X030484Y-033330
X030484Y-071430
X032008Y-011740
X036834Y-030790
X036834Y-068890
X039882Y-052380
X044708Y-014280
X046232Y-049840
X049534Y-033330
X049534Y-071430
X051058Y-011740
X055884Y-030790
X055884Y-068890
X058932Y-052380
X063758Y-014280
X065282Y-049840
X068584Y-033330
X070108Y-011740
X074934Y-030790
X077982Y-052380
X082808Y-014280
X084332Y-049840
X087634Y-033330
X089158Y-011740
X093984Y-030790
X097032Y-052380
X101858Y-014280
X103382Y-049840
X106684Y-033330
X108208Y-011740
X113034Y-030790
X116082Y-052380
X118368Y-071430
X120908Y-014280
X122432Y-049840
X124718Y-068890
X125734Y-033330
X127258Y-011740
X132084Y-030790
X135132Y-052380
X139958Y-014280
X141482Y-049840
X144784Y-033330
X146308Y-011740
X151134Y-030790
X154182Y-052380
X159008Y-014280
X160532Y-049840
X163834Y-033330
X165358Y-011740
X170184Y-030790
X173232Y-052380
X178058Y-014280
X179582Y-049840
X182884Y-033330
X184408Y-011740
X189234Y-030790
X189996Y-071430
X192282Y-052380
X194694Y-052380
X196346Y-068890
X197108Y-014280
X198632Y-049840
X201044Y-049840
X203458Y-011740
X209046Y-033330
X213744Y-071430
X213872Y-052380
X215396Y-030790
X216158Y-014280
X216158Y-052380
X220094Y-068890
X220222Y-049840
X222508Y-011740
X222508Y-049840
T6
X004068Y-009200
X006481Y-028250
X006481Y-066350
X011179Y-047300
X014227Y-009200
X016641Y-028250
X016641Y-066350
X021340Y-047300
X023118Y-009200
X027944Y-028250
X027944Y-066350
X033278Y-009200
X037342Y-047300
X038103Y-028250
X038103Y-066350
X042168Y-009200
X046994Y-028250
X046994Y-066350
X047502Y-047300
X052328Y-009200
X056392Y-047300
X057154Y-028250
X057154Y-066350
X061218Y-009200
X066044Y-028250
X066552Y-047300
X071378Y-009200
X075442Y-047300
X076204Y-028250
X080268Y-009200
X085094Y-028250
X085602Y-047300
X090428Y-009200
X094492Y-047300
X095254Y-028250
X099318Y-009200
X104144Y-028250
X104652Y-047300
X109478Y-009200
X113542Y-047300
X114304Y-028250
X115828Y-066350
X118368Y-009200
X123194Y-028250
X123702Y-047300
X125988Y-066350
X128528Y-009200
X132592Y-047300
X133354Y-028250
X137418Y-009200
X142244Y-028250
X142752Y-047300
X147578Y-009200
X151642Y-047300
X152404Y-028250
X156468Y-009200
X161294Y-028250
X161802Y-047300
X166628Y-009200
X170692Y-047300
X171454Y-028250
X175518Y-009200
X180344Y-028250
X180852Y-047300
X185678Y-009200
X187456Y-066350
X189742Y-047300
X190504Y-028250
X192154Y-047300
X194568Y-009200
X197616Y-066350
X199902Y-047300
X202314Y-047300
X204728Y-009200
X206506Y-028250
X211204Y-066350
X211332Y-047300
X213618Y-009200
X213618Y-047300
X216666Y-028250
X221364Y-066350
X221492Y-047300
X223778Y-009200
X223778Y-047300
T8
X070870Y-073208
X170946Y-073208
T9
X009148Y-009200
X011561Y-028250
X011561Y-066350
X016260Y-047300
X028197Y-009200
X033024Y-028250
X033024Y-066350
X042422Y-047300
X047248Y-009200
X052074Y-028250
X052074Y-066350
X061472Y-047300
X066298Y-009200
X070870Y-057968
X071124Y-028250
X080522Y-047300
X085348Y-009200
X090174Y-028250
X099572Y-047300
X104398Y-009200
X109224Y-028250
X118622Y-047300
X120908Y-066350
X123448Y-009200
X128274Y-028250
X137672Y-047300
X142498Y-009200
X147324Y-028250
X156722Y-047300
X161548Y-009200
X166374Y-028250
X170946Y-057968
X175772Y-047300
X180598Y-009200
X185424Y-028250
X192536Y-066350
X194822Y-047300
X197234Y-047300
X199648Y-009200
X211586Y-028250
X216284Y-066350
X216412Y-047300
X218698Y-009200
X218698Y-047300
T7
X-000792Y-056501G85X003709Y-056501
G05
X041425Y-019614G85X043927Y-019614
G05
X126949Y-047000G85X129451Y-047000
G05
X198651Y-028250G85X201153Y-028250
G05
X223991Y-056500G85X228491Y-056500
G05
T0
M30
