G04 (created by PCBNEW (2013-02-13 BZR 3947)-testing) date 10/16/2013 3:34:32 PM*
%MOIN*%
G04 Gerber Fmt 3.4, Leading zero omitted, Abs format*
%FSLAX34Y34*%
G01*
G70*
G90*
G04 APERTURE LIST*
%ADD10C,0*%
%ADD11C,0.0354331*%
%ADD12C,0.0708661*%
%ADD13C,0.0629921*%
%ADD14C,0.09*%
%ADD15C,0.157*%
%ADD16C,0.067*%
%ADD17O,0.075X0.085*%
%ADD18R,0.075X0.085*%
%ADD19C,0.12*%
%ADD20O,0.06X0.042*%
%ADD21O,0.393701X0.19685*%
%ADD22C,0.0984252*%
%ADD23C,0.275591*%
%ADD24C,0.0393701*%
%ADD25C,0.016*%
%ADD26C,0.02*%
%ADD27C,0.01*%
G04 APERTURE END LIST*
G54D10*
G54D11*
X6299Y-1523D03*
X8031Y-1523D03*
G54D12*
X37111Y-28809D03*
X35111Y-28809D03*
X33111Y-28809D03*
X36111Y-28809D03*
X34111Y-28809D03*
X38111Y-28809D03*
G54D13*
X1376Y-13509D03*
X1376Y-10509D03*
X2701Y-16622D03*
X2701Y-19622D03*
G54D14*
X3551Y-28122D03*
X6051Y-27122D03*
G54D15*
X4551Y-26122D03*
G54D16*
X6551Y-26122D03*
X2551Y-26122D03*
G54D14*
X3551Y-13122D03*
X6051Y-12122D03*
G54D15*
X4551Y-11122D03*
G54D16*
X6551Y-11122D03*
X2551Y-11122D03*
G54D14*
X5401Y-20622D03*
X7901Y-19622D03*
G54D15*
X6401Y-18622D03*
G54D16*
X8401Y-18622D03*
X4401Y-18622D03*
G54D17*
X24701Y-16622D03*
G54D18*
X23701Y-16622D03*
G54D17*
X13501Y-24122D03*
G54D18*
X12501Y-24122D03*
G54D17*
X17201Y-16622D03*
G54D18*
X16201Y-16622D03*
G54D17*
X5051Y-9122D03*
G54D18*
X4051Y-9122D03*
G54D17*
X11601Y-1621D03*
G54D18*
X10601Y-1621D03*
G54D17*
X5051Y-24122D03*
G54D18*
X4051Y-24122D03*
G54D14*
X85101Y-20622D03*
X87601Y-19622D03*
G54D15*
X86101Y-18622D03*
G54D16*
X88101Y-18622D03*
X84101Y-18622D03*
G54D14*
X49501Y-13122D03*
X52001Y-12122D03*
G54D15*
X50501Y-11122D03*
G54D16*
X52501Y-11122D03*
X48501Y-11122D03*
G54D14*
X70101Y-5622D03*
X72601Y-4622D03*
G54D15*
X71101Y-3622D03*
G54D16*
X73101Y-3622D03*
X69101Y-3622D03*
G54D14*
X32601Y-5622D03*
X35101Y-4622D03*
G54D15*
X33601Y-3622D03*
G54D16*
X35601Y-3622D03*
X31601Y-3622D03*
G54D14*
X84151Y-28122D03*
X86651Y-27122D03*
G54D15*
X85151Y-26122D03*
G54D16*
X87151Y-26122D03*
X83151Y-26122D03*
G54D14*
X74801Y-28122D03*
X77301Y-27122D03*
G54D15*
X75801Y-26122D03*
G54D16*
X77801Y-26122D03*
X73801Y-26122D03*
G54D14*
X19501Y-28122D03*
X22001Y-27122D03*
G54D15*
X20501Y-26122D03*
G54D16*
X22501Y-26122D03*
X18501Y-26122D03*
G54D14*
X12001Y-28122D03*
X14501Y-27122D03*
G54D15*
X13001Y-26122D03*
G54D16*
X15001Y-26122D03*
X11001Y-26122D03*
G54D14*
X76651Y-20622D03*
X79151Y-19622D03*
G54D15*
X77651Y-18622D03*
G54D16*
X79651Y-18622D03*
X75651Y-18622D03*
G54D14*
X68201Y-20622D03*
X70701Y-19622D03*
G54D15*
X69201Y-18622D03*
G54D16*
X71201Y-18622D03*
X67201Y-18622D03*
G54D14*
X27001Y-13122D03*
X29501Y-12122D03*
G54D15*
X28001Y-11122D03*
G54D16*
X30001Y-11122D03*
X26001Y-11122D03*
G54D14*
X19501Y-13122D03*
X22001Y-12122D03*
G54D15*
X20501Y-11122D03*
G54D16*
X22501Y-11122D03*
X18501Y-11122D03*
G54D14*
X12001Y-13122D03*
X14501Y-12122D03*
G54D15*
X13001Y-11122D03*
G54D16*
X15001Y-11122D03*
X11001Y-11122D03*
G54D14*
X85101Y-5622D03*
X87601Y-4622D03*
G54D15*
X86101Y-3622D03*
G54D16*
X88101Y-3622D03*
X84101Y-3622D03*
G54D14*
X62601Y-5622D03*
X65101Y-4622D03*
G54D15*
X63601Y-3622D03*
G54D16*
X65601Y-3622D03*
X61601Y-3622D03*
G54D14*
X55101Y-5622D03*
X57601Y-4622D03*
G54D15*
X56101Y-3622D03*
G54D16*
X58101Y-3622D03*
X54101Y-3622D03*
G54D14*
X47601Y-5622D03*
X50101Y-4622D03*
G54D15*
X48601Y-3622D03*
G54D16*
X50601Y-3622D03*
X46601Y-3622D03*
G54D14*
X40101Y-5622D03*
X42601Y-4622D03*
G54D15*
X41101Y-3622D03*
G54D16*
X43101Y-3622D03*
X39101Y-3622D03*
G54D14*
X25101Y-5622D03*
X27601Y-4622D03*
G54D15*
X26101Y-3622D03*
G54D16*
X28101Y-3622D03*
X24101Y-3622D03*
G54D14*
X17601Y-5622D03*
X20101Y-4622D03*
G54D15*
X18601Y-3622D03*
G54D16*
X20601Y-3622D03*
X16601Y-3622D03*
G54D14*
X10101Y-5622D03*
X12601Y-4622D03*
G54D15*
X11101Y-3622D03*
G54D16*
X13101Y-3622D03*
X9101Y-3622D03*
G54D14*
X60701Y-20622D03*
X63201Y-19622D03*
G54D15*
X61701Y-18622D03*
G54D16*
X63701Y-18622D03*
X59701Y-18622D03*
G54D14*
X53201Y-20622D03*
X55701Y-19622D03*
G54D15*
X54201Y-18622D03*
G54D16*
X56201Y-18622D03*
X52201Y-18622D03*
G54D14*
X45701Y-20622D03*
X48201Y-19622D03*
G54D15*
X46701Y-18622D03*
G54D16*
X48701Y-18622D03*
X44701Y-18622D03*
G54D14*
X38201Y-20622D03*
X40701Y-19622D03*
G54D15*
X39201Y-18622D03*
G54D16*
X41201Y-18622D03*
X37201Y-18622D03*
G54D14*
X30701Y-20622D03*
X33201Y-19622D03*
G54D15*
X31701Y-18622D03*
G54D16*
X33701Y-18622D03*
X29701Y-18622D03*
G54D14*
X23201Y-20622D03*
X25701Y-19622D03*
G54D15*
X24201Y-18622D03*
G54D16*
X26201Y-18622D03*
X22201Y-18622D03*
G54D14*
X15701Y-20622D03*
X18201Y-19622D03*
G54D15*
X16701Y-18622D03*
G54D16*
X18701Y-18622D03*
X14701Y-18622D03*
G54D14*
X82301Y-13122D03*
X84801Y-12122D03*
G54D15*
X83301Y-11122D03*
G54D16*
X85301Y-11122D03*
X81301Y-11122D03*
G54D14*
X72001Y-13122D03*
X74501Y-12122D03*
G54D15*
X73001Y-11122D03*
G54D16*
X75001Y-11122D03*
X71001Y-11122D03*
G54D14*
X64501Y-13122D03*
X67001Y-12122D03*
G54D15*
X65501Y-11122D03*
G54D16*
X67501Y-11122D03*
X63501Y-11122D03*
G54D14*
X57001Y-13122D03*
X59501Y-12122D03*
G54D15*
X58001Y-11122D03*
G54D16*
X60001Y-11122D03*
X56001Y-11122D03*
G54D14*
X42001Y-13122D03*
X44501Y-12122D03*
G54D15*
X43001Y-11122D03*
G54D16*
X45001Y-11122D03*
X41001Y-11122D03*
G54D14*
X34501Y-13122D03*
X37001Y-12122D03*
G54D15*
X35501Y-11122D03*
G54D16*
X37501Y-11122D03*
X33501Y-11122D03*
G54D14*
X77601Y-5622D03*
X80101Y-4622D03*
G54D15*
X78601Y-3622D03*
G54D16*
X80601Y-3622D03*
X76601Y-3622D03*
G54D17*
X48271Y-24124D03*
G54D18*
X47271Y-24124D03*
G54D17*
X62201Y-16622D03*
G54D18*
X61201Y-16622D03*
G54D17*
X54701Y-16622D03*
G54D18*
X53701Y-16622D03*
G54D17*
X47201Y-16622D03*
G54D18*
X46201Y-16622D03*
G54D17*
X39701Y-16622D03*
G54D18*
X38701Y-16622D03*
G54D17*
X83801Y-9122D03*
G54D18*
X82801Y-9122D03*
G54D17*
X73501Y-9122D03*
G54D18*
X72501Y-9122D03*
G54D17*
X66001Y-9122D03*
G54D18*
X65001Y-9122D03*
G54D17*
X32201Y-16672D03*
G54D18*
X31201Y-16672D03*
G54D17*
X58501Y-9122D03*
G54D18*
X57501Y-9122D03*
G54D17*
X34101Y-1622D03*
G54D18*
X33101Y-1622D03*
G54D17*
X41601Y-1622D03*
G54D18*
X40601Y-1622D03*
G54D17*
X49101Y-1622D03*
G54D18*
X48101Y-1622D03*
G54D17*
X56601Y-1622D03*
G54D18*
X55601Y-1622D03*
G54D17*
X26601Y-1622D03*
G54D18*
X25601Y-1622D03*
G54D17*
X51001Y-9122D03*
G54D18*
X50001Y-9122D03*
G54D17*
X64101Y-1622D03*
G54D18*
X63101Y-1622D03*
G54D17*
X71601Y-1622D03*
G54D18*
X70601Y-1622D03*
G54D17*
X79101Y-1622D03*
G54D18*
X78101Y-1622D03*
G54D17*
X86601Y-1622D03*
G54D18*
X85601Y-1622D03*
G54D17*
X36001Y-9122D03*
G54D18*
X35001Y-9122D03*
G54D17*
X43501Y-9122D03*
G54D18*
X42501Y-9122D03*
G54D17*
X85651Y-24122D03*
G54D18*
X84651Y-24122D03*
G54D17*
X76301Y-24122D03*
G54D18*
X75301Y-24122D03*
G54D17*
X69701Y-16622D03*
G54D18*
X68701Y-16622D03*
G54D17*
X78151Y-16622D03*
G54D18*
X77151Y-16622D03*
G54D17*
X21001Y-24122D03*
G54D18*
X20001Y-24122D03*
G54D17*
X86601Y-16622D03*
G54D18*
X85601Y-16622D03*
G54D17*
X4101Y-1621D03*
G54D18*
X3101Y-1621D03*
G54D14*
X2601Y-5622D03*
X5101Y-4622D03*
G54D15*
X3601Y-3622D03*
G54D16*
X5601Y-3622D03*
X1601Y-3622D03*
G54D17*
X6901Y-16622D03*
G54D18*
X5901Y-16622D03*
G54D13*
X31301Y-12122D03*
X31301Y-9122D03*
X23851Y-12122D03*
X23851Y-9122D03*
X16301Y-13022D03*
X16301Y-10022D03*
X22001Y-4622D03*
X22001Y-1622D03*
G54D17*
X28501Y-9122D03*
G54D18*
X27501Y-9122D03*
G54D17*
X21001Y-9122D03*
G54D18*
X20001Y-9122D03*
G54D17*
X13501Y-9122D03*
G54D18*
X12501Y-9122D03*
G54D17*
X19101Y-1622D03*
G54D18*
X18101Y-1622D03*
G54D14*
X46601Y-28122D03*
X49101Y-27122D03*
G54D15*
X47601Y-26122D03*
G54D16*
X49601Y-26122D03*
X45601Y-26122D03*
G54D19*
X67301Y-28822D03*
X27901Y-28822D03*
G54D15*
X67301Y-22822D03*
X27901Y-22822D03*
G54D14*
X84201Y-20622D03*
X86701Y-19622D03*
G54D15*
X85201Y-18622D03*
G54D16*
X87201Y-18622D03*
X83201Y-18622D03*
G54D14*
X75701Y-20622D03*
X78201Y-19622D03*
G54D15*
X76701Y-18622D03*
G54D16*
X78701Y-18622D03*
X74701Y-18622D03*
G54D17*
X76201Y-16622D03*
G54D18*
X77201Y-16622D03*
G54D17*
X84701Y-16622D03*
G54D18*
X85701Y-16622D03*
G54D20*
X88976Y-8059D03*
X88976Y-8559D03*
X88976Y-9059D03*
X88976Y-9559D03*
X88976Y-10059D03*
X88976Y-14059D03*
X88976Y-14559D03*
G54D21*
X89071Y-22244D03*
G54D22*
X88171Y-22244D03*
X88771Y-22244D03*
X89371Y-22244D03*
X89971Y-22244D03*
G54D23*
X78701Y-11122D03*
G54D22*
X79201Y-11122D03*
X78201Y-11122D03*
X78701Y-11122D03*
G54D23*
X16801Y-7722D03*
G54D22*
X17301Y-7722D03*
X16301Y-7722D03*
X16801Y-7722D03*
G54D23*
X50472Y-18503D03*
G54D22*
X50972Y-18503D03*
X49972Y-18503D03*
X50472Y-18503D03*
G54D21*
X574Y-22244D03*
G54D22*
X-325Y-22244D03*
X274Y-22244D03*
X874Y-22244D03*
X1474Y-22244D03*
G54D20*
X88976Y-11559D03*
X88976Y-12059D03*
X88976Y-12559D03*
X88976Y-13059D03*
X88976Y-13559D03*
G54D24*
X351Y-29472D03*
X89401Y-322D03*
X89376Y-29468D03*
X351Y-322D03*
X24976Y-23059D03*
X29876Y-359D03*
G54D20*
X88976Y-15059D03*
X88976Y-11059D03*
X37476Y-2059D03*
X37476Y-2559D03*
X37476Y-3059D03*
X44876Y-1559D03*
X44876Y-2559D03*
X44876Y-3059D03*
X37476Y-1559D03*
X52476Y-2559D03*
X52476Y-3059D03*
X59876Y-1559D03*
X59876Y-2059D03*
X59876Y-2559D03*
X59876Y-3059D03*
X52476Y-2059D03*
X44876Y-2059D03*
X52476Y-1559D03*
G54D24*
X49204Y-8476D03*
X53210Y-15772D03*
X57020Y-16929D03*
X56946Y-20202D03*
X85222Y-14913D03*
X67656Y-16638D03*
X60292Y-27898D03*
X83016Y-24998D03*
X59504Y-22178D03*
X45875Y-21977D03*
X82507Y-17946D03*
X82300Y-15273D03*
X11775Y-6705D03*
X48108Y-15769D03*
X45153Y-16947D03*
X36384Y-3059D03*
X28764Y-23755D03*
X58463Y-24409D03*
X8226Y-23583D03*
X53789Y-24390D03*
X63201Y-29529D03*
X56916Y-29529D03*
X86191Y-23675D03*
X57349Y-29129D03*
X80910Y-22139D03*
X81247Y-18159D03*
X66721Y-20551D03*
X21479Y-25407D03*
X54196Y-25604D03*
X30937Y-22800D03*
X55126Y-22800D03*
X36453Y-21572D03*
X50030Y-21572D03*
X44001Y-21198D03*
X49412Y-21212D03*
X57858Y-20447D03*
X61793Y-21939D03*
X46390Y-22341D03*
X58349Y-22199D03*
X68376Y-23909D03*
X60371Y-24167D03*
X64078Y-26585D03*
X58933Y-26407D03*
X64074Y-25736D03*
X60415Y-26912D03*
X53037Y-25478D03*
X58515Y-26842D03*
X59365Y-27929D03*
X82122Y-26028D03*
X64596Y-15160D03*
X29691Y-24809D03*
X58924Y-24636D03*
X61574Y-24607D03*
X52919Y-28633D03*
X7795Y-3267D03*
X33126Y-23824D03*
X62632Y-28378D03*
X10311Y-22759D03*
X59451Y-23498D03*
X57257Y-23068D03*
X18466Y-5755D03*
X50543Y-7231D03*
X8811Y-8315D03*
X50173Y-7978D03*
X62370Y-26222D03*
X58938Y-25630D03*
X62759Y-26542D03*
X60496Y-26438D03*
X7464Y-9122D03*
X55364Y-28301D03*
X61158Y-28669D03*
X57661Y-22702D03*
X62248Y-23472D03*
X72439Y-14834D03*
X66195Y-22176D03*
X56132Y-22702D03*
G54D25*
X30684Y-12739D02*
X31301Y-12122D01*
X27618Y-12739D02*
X30684Y-12739D01*
X27001Y-12122D02*
X27618Y-12739D01*
X23851Y-12122D02*
X27001Y-12122D01*
X16816Y-12507D02*
X16301Y-13022D01*
X19859Y-12507D02*
X16816Y-12507D01*
X20095Y-12743D02*
X19859Y-12507D01*
X23230Y-12743D02*
X20095Y-12743D01*
X23851Y-12122D02*
X23230Y-12743D01*
X88976Y-11559D02*
X89436Y-11559D01*
X49023Y-8296D02*
X49204Y-8476D01*
X34777Y-8296D02*
X49023Y-8296D01*
X31301Y-11772D02*
X34777Y-8296D01*
X31301Y-12122D02*
X31301Y-11772D01*
X89436Y-7899D02*
X89436Y-11559D01*
X89207Y-7670D02*
X89436Y-7899D01*
X53549Y-7670D02*
X89207Y-7670D01*
X52742Y-8476D02*
X53549Y-7670D01*
X49204Y-8476D02*
X52742Y-8476D01*
X52766Y-15329D02*
X53210Y-15772D01*
X3196Y-15329D02*
X52766Y-15329D01*
X1376Y-13509D02*
X3196Y-15329D01*
X86860Y-12059D02*
X88976Y-12059D01*
X84568Y-14351D02*
X86860Y-12059D01*
X73588Y-14351D02*
X84568Y-14351D01*
X72600Y-15338D02*
X73588Y-14351D01*
X66283Y-15338D02*
X72600Y-15338D01*
X66104Y-15517D02*
X66283Y-15338D01*
X53466Y-15517D02*
X66104Y-15517D01*
X53210Y-15772D02*
X53466Y-15517D01*
X86717Y-12559D02*
X88976Y-12559D01*
X84665Y-14610D02*
X86717Y-12559D01*
X82023Y-14610D02*
X84665Y-14610D01*
X81055Y-15578D02*
X82023Y-14610D01*
X66382Y-15578D02*
X81055Y-15578D01*
X66204Y-15757D02*
X66382Y-15578D01*
X58193Y-15757D02*
X66204Y-15757D01*
X57020Y-16929D02*
X58193Y-15757D01*
X88976Y-13059D02*
X88516Y-13059D01*
X88516Y-15541D02*
X88516Y-13059D01*
X86396Y-17661D02*
X88516Y-15541D01*
X83298Y-17661D02*
X86396Y-17661D01*
X82655Y-18303D02*
X83298Y-17661D01*
X82260Y-18303D02*
X82655Y-18303D01*
X81632Y-17676D02*
X82260Y-18303D01*
X63913Y-17676D02*
X81632Y-17676D01*
X62665Y-18924D02*
X63913Y-17676D01*
X62665Y-18995D02*
X62665Y-18924D01*
X61810Y-19850D02*
X62665Y-18995D01*
X57299Y-19850D02*
X61810Y-19850D01*
X56946Y-20202D02*
X57299Y-19850D01*
X82060Y-14913D02*
X85222Y-14913D01*
X81155Y-15818D02*
X82060Y-14913D01*
X68475Y-15818D02*
X81155Y-15818D01*
X67656Y-16638D02*
X68475Y-15818D01*
X84206Y-26187D02*
X83016Y-24998D01*
X84206Y-27292D02*
X84206Y-26187D01*
X84773Y-27860D02*
X84206Y-27292D01*
X84773Y-28381D02*
X84773Y-27860D01*
X84410Y-28744D02*
X84773Y-28381D01*
X73375Y-28744D02*
X84410Y-28744D01*
X72412Y-27781D02*
X73375Y-28744D01*
X60409Y-27781D02*
X72412Y-27781D01*
X60292Y-27898D02*
X60409Y-27781D01*
X88976Y-14559D02*
X89436Y-14559D01*
X59622Y-22296D02*
X59504Y-22178D01*
X63041Y-22296D02*
X59622Y-22296D01*
X63556Y-21782D02*
X63041Y-22296D01*
X86306Y-21782D02*
X63556Y-21782D01*
X89436Y-18651D02*
X86306Y-21782D01*
X89436Y-14559D02*
X89436Y-18651D01*
X58025Y-21977D02*
X45875Y-21977D01*
X58179Y-21822D02*
X58025Y-21977D01*
X59148Y-21822D02*
X58179Y-21822D01*
X59504Y-22178D02*
X59148Y-21822D01*
X4051Y-9122D02*
X3516Y-9122D01*
X4051Y-22246D02*
X4051Y-24122D01*
X656Y-18851D02*
X4051Y-22246D01*
X656Y-11982D02*
X656Y-18851D01*
X3516Y-9122D02*
X656Y-11982D01*
X44876Y-1559D02*
X45336Y-1559D01*
X5521Y-7651D02*
X4051Y-9122D01*
X11715Y-7651D02*
X5521Y-7651D01*
X14382Y-4985D02*
X11715Y-7651D01*
X18541Y-4985D02*
X14382Y-4985D01*
X18798Y-5243D02*
X18541Y-4985D01*
X23691Y-5243D02*
X18798Y-5243D01*
X23929Y-5004D02*
X23691Y-5243D01*
X26147Y-5004D02*
X23929Y-5004D01*
X26386Y-5243D02*
X26147Y-5004D01*
X28873Y-5243D02*
X26386Y-5243D01*
X29109Y-5007D02*
X28873Y-5243D01*
X32959Y-5007D02*
X29109Y-5007D01*
X33195Y-5243D02*
X32959Y-5007D01*
X35889Y-5243D02*
X33195Y-5243D01*
X36139Y-4992D02*
X35889Y-5243D01*
X40429Y-4992D02*
X36139Y-4992D01*
X40679Y-5243D02*
X40429Y-4992D01*
X43311Y-5243D02*
X40679Y-5243D01*
X45336Y-3217D02*
X43311Y-5243D01*
X45336Y-1559D02*
X45336Y-3217D01*
X69477Y-1033D02*
X70066Y-1622D01*
X61435Y-1033D02*
X69477Y-1033D01*
X60409Y-2059D02*
X61435Y-1033D01*
X59876Y-2059D02*
X60409Y-2059D01*
X70601Y-1622D02*
X70066Y-1622D01*
X77151Y-16622D02*
X77201Y-16622D01*
X81967Y-17406D02*
X82507Y-17946D01*
X77986Y-17406D02*
X81967Y-17406D01*
X77201Y-16622D02*
X77986Y-17406D01*
X76821Y-2366D02*
X77566Y-1622D01*
X60528Y-2366D02*
X76821Y-2366D01*
X60336Y-2559D02*
X60528Y-2366D01*
X59876Y-2559D02*
X60336Y-2559D01*
X78101Y-1622D02*
X77566Y-1622D01*
X84252Y-15273D02*
X85601Y-16622D01*
X82300Y-15273D02*
X84252Y-15273D01*
X85601Y-16622D02*
X85701Y-16622D01*
X84081Y-2607D02*
X85066Y-1622D01*
X61833Y-2607D02*
X84081Y-2607D01*
X61381Y-3059D02*
X61833Y-2607D01*
X59876Y-3059D02*
X61381Y-3059D01*
X85601Y-1622D02*
X85066Y-1622D01*
X11775Y-4284D02*
X11775Y-6705D01*
X12065Y-3995D02*
X11775Y-4284D01*
X12065Y-3085D02*
X12065Y-3995D01*
X10601Y-1621D02*
X12065Y-3085D01*
X11431Y-791D02*
X10601Y-1621D01*
X42801Y-791D02*
X11431Y-791D01*
X44068Y-2059D02*
X42801Y-791D01*
X44876Y-2059D02*
X44068Y-2059D01*
X24554Y-15769D02*
X23701Y-16622D01*
X48108Y-15769D02*
X24554Y-15769D01*
X43726Y-3059D02*
X44876Y-3059D01*
X43340Y-2673D02*
X43726Y-3059D01*
X39274Y-2673D02*
X43340Y-2673D01*
X38518Y-3429D02*
X39274Y-2673D01*
X36251Y-3429D02*
X38518Y-3429D01*
X35480Y-2659D02*
X36251Y-3429D01*
X26639Y-2659D02*
X35480Y-2659D01*
X25601Y-1622D02*
X26639Y-2659D01*
X45478Y-16622D02*
X45153Y-16947D01*
X46201Y-16622D02*
X45478Y-16622D01*
X49038Y-2559D02*
X48101Y-1622D01*
X52476Y-2559D02*
X49038Y-2559D01*
X34101Y-1622D02*
X34636Y-1622D01*
X34699Y-1559D02*
X37476Y-1559D01*
X34636Y-1622D02*
X34699Y-1559D01*
X37628Y-1036D02*
X41601Y-1036D01*
X37476Y-1188D02*
X37628Y-1036D01*
X37476Y-1559D02*
X37476Y-1188D01*
X41601Y-1622D02*
X41601Y-1036D01*
X50221Y-1036D02*
X56601Y-1036D01*
X49636Y-1622D02*
X50221Y-1036D01*
X49101Y-1622D02*
X49636Y-1622D01*
X56601Y-1622D02*
X56601Y-1036D01*
X72721Y-1036D02*
X72136Y-1622D01*
X79101Y-1036D02*
X72721Y-1036D01*
X79101Y-1622D02*
X79101Y-1036D01*
X71601Y-1622D02*
X72136Y-1622D01*
X12721Y-1036D02*
X12136Y-1621D01*
X26601Y-1036D02*
X12721Y-1036D01*
X26601Y-1622D02*
X26601Y-1036D01*
X11601Y-1621D02*
X12136Y-1621D01*
X80238Y-9122D02*
X73501Y-9122D01*
X80823Y-9707D02*
X80238Y-9122D01*
X83801Y-9707D02*
X80823Y-9707D01*
X83801Y-9122D02*
X83801Y-9707D01*
X51001Y-9122D02*
X51001Y-9647D01*
X43501Y-9122D02*
X44036Y-9122D01*
X37121Y-8536D02*
X43501Y-8536D01*
X36536Y-9122D02*
X37121Y-8536D01*
X36001Y-9122D02*
X36536Y-9122D01*
X43501Y-9122D02*
X43501Y-8536D01*
X50941Y-9707D02*
X51001Y-9647D01*
X44621Y-9707D02*
X50941Y-9707D01*
X44036Y-9122D02*
X44621Y-9707D01*
X58501Y-9122D02*
X58501Y-9707D01*
X51061Y-9707D02*
X58501Y-9707D01*
X51001Y-9647D02*
X51061Y-9707D01*
X58501Y-9707D02*
X66001Y-9707D01*
X66001Y-9122D02*
X66001Y-9705D01*
X66001Y-9705D02*
X66001Y-9707D01*
X66001Y-9707D02*
X73501Y-9707D01*
X73501Y-9122D02*
X73501Y-9707D01*
X84701Y-16622D02*
X84166Y-16622D01*
X78151Y-16622D02*
X78686Y-16622D01*
X69701Y-16622D02*
X69701Y-16914D01*
X76201Y-16622D02*
X75666Y-16622D01*
X39969Y-16622D02*
X39864Y-16622D01*
X39969Y-16622D02*
X40236Y-16622D01*
X47201Y-16729D02*
X47201Y-16716D01*
X47201Y-16622D02*
X47201Y-16716D01*
X25871Y-17257D02*
X25236Y-16622D01*
X32201Y-17257D02*
X25871Y-17257D01*
X62201Y-16622D02*
X62201Y-17207D01*
X75373Y-16914D02*
X69701Y-16914D01*
X75666Y-16622D02*
X75373Y-16914D01*
X47201Y-16729D02*
X47201Y-16907D01*
X47201Y-16907D02*
X47201Y-17207D01*
X52173Y-17207D02*
X54701Y-17207D01*
X51874Y-16907D02*
X52173Y-17207D01*
X47201Y-16907D02*
X51874Y-16907D01*
X54701Y-16622D02*
X54701Y-17207D01*
X24969Y-16622D02*
X24864Y-16622D01*
X24701Y-16622D02*
X24864Y-16622D01*
X24969Y-16622D02*
X25236Y-16622D01*
X18321Y-17207D02*
X17736Y-16622D01*
X24279Y-17207D02*
X18321Y-17207D01*
X24864Y-16622D02*
X24279Y-17207D01*
X17201Y-16622D02*
X17736Y-16622D01*
X3204Y-16036D02*
X17201Y-16036D01*
X896Y-13728D02*
X3204Y-16036D01*
X896Y-13303D02*
X896Y-13728D01*
X1625Y-12574D02*
X896Y-13303D01*
X1827Y-12574D02*
X1625Y-12574D01*
X3233Y-11169D02*
X1827Y-12574D01*
X3233Y-11075D02*
X3233Y-11169D01*
X4601Y-9707D02*
X3233Y-11075D01*
X5051Y-9707D02*
X4601Y-9707D01*
X5051Y-9122D02*
X5051Y-9707D01*
X17201Y-16622D02*
X17201Y-16036D01*
X39701Y-16622D02*
X39783Y-16622D01*
X39783Y-16622D02*
X39864Y-16622D01*
X39198Y-17207D02*
X32201Y-17207D01*
X39783Y-16622D02*
X39198Y-17207D01*
X32201Y-16672D02*
X32201Y-17207D01*
X32201Y-17207D02*
X32201Y-17257D01*
X62104Y-17304D02*
X62201Y-17207D01*
X54798Y-17304D02*
X62104Y-17304D01*
X54701Y-17207D02*
X54798Y-17304D01*
X69409Y-17207D02*
X69701Y-16914D01*
X62201Y-17207D02*
X69409Y-17207D01*
X78686Y-16622D02*
X84166Y-16622D01*
X47104Y-17304D02*
X47201Y-17207D01*
X40918Y-17304D02*
X47104Y-17304D01*
X40236Y-16622D02*
X40918Y-17304D01*
X6171Y-24707D02*
X13501Y-24707D01*
X5586Y-24122D02*
X6171Y-24707D01*
X5051Y-24122D02*
X5586Y-24122D01*
X13501Y-24122D02*
X13501Y-24707D01*
X37476Y-3059D02*
X36384Y-3059D01*
X21001Y-24707D02*
X13501Y-24707D01*
X21001Y-24122D02*
X21001Y-24707D01*
X21001Y-24122D02*
X21536Y-24122D01*
X76301Y-24122D02*
X76301Y-24707D01*
X48271Y-24124D02*
X48271Y-24709D01*
X85651Y-24122D02*
X85651Y-24707D01*
X82681Y-24707D02*
X76301Y-24707D01*
X82752Y-24635D02*
X82681Y-24707D01*
X83159Y-24635D02*
X82752Y-24635D01*
X83230Y-24707D02*
X83159Y-24635D01*
X85651Y-24707D02*
X83230Y-24707D01*
X48045Y-24934D02*
X48271Y-24709D01*
X30655Y-24934D02*
X48045Y-24934D01*
X30423Y-25166D02*
X30655Y-24934D01*
X22581Y-25166D02*
X30423Y-25166D01*
X21536Y-24122D02*
X22581Y-25166D01*
X75997Y-25010D02*
X76301Y-24707D01*
X53565Y-25010D02*
X75997Y-25010D01*
X53195Y-24640D02*
X53565Y-25010D01*
X48542Y-24640D02*
X53195Y-24640D01*
X48540Y-24638D02*
X48542Y-24640D01*
X48341Y-24638D02*
X48540Y-24638D01*
X48271Y-24709D02*
X48341Y-24638D01*
X48271Y-24709D02*
X48271Y-24709D01*
X28735Y-23785D02*
X28764Y-23755D01*
X25050Y-23785D02*
X28735Y-23785D01*
X24471Y-23206D02*
X25050Y-23785D01*
X6285Y-23206D02*
X24471Y-23206D01*
X2701Y-19622D02*
X6285Y-23206D01*
X54681Y-24409D02*
X58463Y-24409D01*
X53318Y-23046D02*
X54681Y-24409D01*
X46530Y-23046D02*
X53318Y-23046D01*
X45395Y-24181D02*
X46530Y-23046D01*
X29190Y-24181D02*
X45395Y-24181D01*
X28764Y-23755D02*
X29190Y-24181D01*
X8287Y-23521D02*
X8226Y-23583D01*
X22262Y-23521D02*
X8287Y-23521D01*
X23186Y-24445D02*
X22262Y-23521D01*
X45471Y-24445D02*
X23186Y-24445D01*
X46623Y-23293D02*
X45471Y-24445D01*
X52692Y-23293D02*
X46623Y-23293D01*
X53789Y-24390D02*
X52692Y-23293D01*
X63201Y-29529D02*
X56916Y-29529D01*
X86191Y-26418D02*
X86191Y-23675D01*
X85814Y-26795D02*
X86191Y-26418D01*
X85814Y-27679D02*
X85814Y-26795D01*
X84509Y-28984D02*
X85814Y-27679D01*
X73255Y-28984D02*
X84509Y-28984D01*
X72292Y-28021D02*
X73255Y-28984D01*
X62312Y-28021D02*
X72292Y-28021D01*
X61203Y-29129D02*
X62312Y-28021D01*
X57349Y-29129D02*
X61203Y-29129D01*
X84654Y-22139D02*
X86191Y-23675D01*
X80910Y-22139D02*
X84654Y-22139D01*
X81247Y-18398D02*
X81247Y-18159D01*
X79403Y-20243D02*
X81247Y-18398D01*
X77135Y-20243D02*
X79403Y-20243D01*
X76900Y-20008D02*
X77135Y-20243D01*
X71295Y-20008D02*
X76900Y-20008D01*
X71051Y-20252D02*
X71295Y-20008D01*
X69845Y-20252D02*
X71051Y-20252D01*
X69585Y-19992D02*
X69845Y-20252D01*
X67280Y-19992D02*
X69585Y-19992D01*
X66721Y-20551D02*
X67280Y-19992D01*
X53818Y-25604D02*
X54196Y-25604D01*
X53335Y-25121D02*
X53818Y-25604D01*
X52644Y-25121D02*
X53335Y-25121D01*
X52589Y-25175D02*
X52644Y-25121D01*
X30754Y-25175D02*
X52589Y-25175D01*
X30522Y-25407D02*
X30754Y-25175D01*
X21479Y-25407D02*
X30522Y-25407D01*
X30937Y-22800D02*
X55126Y-22800D01*
X50030Y-21572D02*
X36453Y-21572D01*
X49392Y-21232D02*
X49412Y-21212D01*
X44034Y-21232D02*
X49392Y-21232D01*
X44001Y-21198D02*
X44034Y-21232D01*
X60100Y-21939D02*
X61793Y-21939D01*
X58607Y-20447D02*
X60100Y-21939D01*
X57858Y-20447D02*
X58607Y-20447D01*
X58207Y-22341D02*
X58349Y-22199D01*
X46390Y-22341D02*
X58207Y-22341D01*
X60628Y-23909D02*
X68376Y-23909D01*
X60371Y-24167D02*
X60628Y-23909D01*
X85101Y-5622D02*
X77601Y-5622D01*
X77601Y-5622D02*
X70101Y-5622D01*
X10101Y-5622D02*
X2601Y-5622D01*
X40101Y-5622D02*
X47601Y-5622D01*
X32601Y-5622D02*
X40101Y-5622D01*
X25101Y-5622D02*
X32601Y-5622D01*
X55101Y-5622D02*
X47601Y-5622D01*
X17825Y-5398D02*
X17601Y-5622D01*
X18614Y-5398D02*
X17825Y-5398D01*
X18838Y-5622D02*
X18614Y-5398D01*
X25101Y-5622D02*
X18838Y-5622D01*
X70101Y-5622D02*
X62601Y-5622D01*
X62601Y-5622D02*
X55101Y-5622D01*
X59795Y-27270D02*
X58933Y-26407D01*
X63393Y-27270D02*
X59795Y-27270D01*
X64078Y-26585D02*
X63393Y-27270D01*
X12001Y-13122D02*
X3551Y-13122D01*
X42001Y-13122D02*
X34501Y-13122D01*
X34501Y-13122D02*
X27001Y-13122D01*
X42001Y-13122D02*
X49501Y-13122D01*
X57001Y-13122D02*
X49501Y-13122D01*
X72001Y-13122D02*
X64501Y-13122D01*
X64501Y-13122D02*
X57001Y-13122D01*
X27001Y-13122D02*
X19501Y-13122D01*
X12383Y-13504D02*
X12001Y-13122D01*
X19119Y-13504D02*
X12383Y-13504D01*
X19501Y-13122D02*
X19119Y-13504D01*
X82638Y-13122D02*
X82301Y-13122D01*
X84265Y-11495D02*
X82638Y-13122D01*
X84265Y-11432D02*
X84265Y-11495D01*
X87138Y-8559D02*
X84265Y-11432D01*
X88976Y-8559D02*
X87138Y-8559D01*
X82301Y-13122D02*
X72001Y-13122D01*
X62898Y-26912D02*
X60415Y-26912D01*
X64074Y-25736D02*
X62898Y-26912D01*
X75701Y-20622D02*
X76651Y-20622D01*
X15701Y-20622D02*
X23201Y-20622D01*
X23201Y-20622D02*
X30701Y-20622D01*
X30701Y-20622D02*
X38201Y-20622D01*
X38201Y-20622D02*
X45701Y-20622D01*
X5401Y-20622D02*
X15701Y-20622D01*
X85101Y-20622D02*
X84201Y-20622D01*
X75701Y-20622D02*
X68201Y-20622D01*
X53201Y-20622D02*
X45701Y-20622D01*
X76651Y-20622D02*
X84201Y-20622D01*
X67915Y-20908D02*
X68201Y-20622D01*
X60987Y-20908D02*
X67915Y-20908D01*
X60701Y-20622D02*
X60987Y-20908D01*
X57178Y-20622D02*
X53201Y-20622D01*
X57710Y-20090D02*
X57178Y-20622D01*
X60169Y-20090D02*
X57710Y-20090D01*
X60701Y-20622D02*
X60169Y-20090D01*
X54402Y-26842D02*
X58515Y-26842D01*
X53037Y-25478D02*
X54402Y-26842D01*
X19574Y-28048D02*
X19501Y-28122D01*
X46528Y-28048D02*
X19574Y-28048D01*
X46601Y-28122D02*
X46528Y-28048D01*
X46794Y-27929D02*
X46601Y-28122D01*
X59365Y-27929D02*
X46794Y-27929D01*
X74220Y-27541D02*
X74801Y-28122D01*
X59752Y-27541D02*
X74220Y-27541D01*
X59365Y-27929D02*
X59752Y-27541D01*
X82122Y-26028D02*
X82122Y-27891D01*
X83920Y-27891D02*
X82122Y-27891D01*
X84151Y-28122D02*
X83920Y-27891D01*
X75031Y-27891D02*
X74801Y-28122D01*
X82122Y-27891D02*
X75031Y-27891D01*
X19501Y-28122D02*
X12001Y-28122D01*
X12001Y-28122D02*
X3551Y-28122D01*
X66024Y-13732D02*
X64596Y-15160D01*
X84373Y-13732D02*
X66024Y-13732D01*
X88046Y-10059D02*
X84373Y-13732D01*
X88976Y-10059D02*
X88046Y-10059D01*
X58794Y-24766D02*
X58924Y-24636D01*
X53660Y-24766D02*
X58794Y-24766D01*
X52427Y-23533D02*
X53660Y-24766D01*
X46722Y-23533D02*
X52427Y-23533D01*
X45570Y-24685D02*
X46722Y-23533D01*
X29815Y-24685D02*
X45570Y-24685D01*
X29691Y-24809D02*
X29815Y-24685D01*
X58953Y-24607D02*
X58924Y-24636D01*
X61574Y-24607D02*
X58953Y-24607D01*
G54D26*
X52744Y-28809D02*
X52919Y-28633D01*
X38111Y-28809D02*
X52744Y-28809D01*
X29913Y-322D02*
X89401Y-322D01*
X29876Y-359D02*
X29913Y-322D01*
X7518Y-3267D02*
X7795Y-3267D01*
X4573Y-322D02*
X7518Y-3267D01*
X351Y-322D02*
X4573Y-322D01*
X24676Y-22759D02*
X10311Y-22759D01*
X24976Y-23059D02*
X24676Y-22759D01*
X63860Y-29606D02*
X62632Y-28378D01*
X89239Y-29606D02*
X63860Y-29606D01*
X89376Y-29468D02*
X89239Y-29606D01*
X26178Y-21856D02*
X24976Y-23059D01*
X28301Y-21856D02*
X26178Y-21856D01*
X30268Y-23824D02*
X28301Y-21856D01*
X33126Y-23824D02*
X30268Y-23824D01*
G54D25*
X19101Y-1622D02*
X22001Y-1622D01*
X15401Y-9122D02*
X16301Y-10022D01*
X13501Y-9122D02*
X15401Y-9122D01*
X21001Y-9122D02*
X23851Y-9122D01*
X28501Y-9122D02*
X31301Y-9122D01*
X1376Y-5126D02*
X1376Y-10509D01*
X2283Y-4219D02*
X1376Y-5126D01*
X2283Y-3582D02*
X2283Y-4219D01*
X3659Y-2206D02*
X2283Y-3582D01*
X4101Y-2206D02*
X3659Y-2206D01*
X4101Y-1621D02*
X4101Y-2206D01*
X57686Y-23498D02*
X57257Y-23068D01*
X59451Y-23498D02*
X57686Y-23498D01*
X19943Y-7231D02*
X50543Y-7231D01*
X18466Y-5755D02*
X19943Y-7231D01*
X18898Y-7978D02*
X50173Y-7978D01*
X17611Y-9264D02*
X18898Y-7978D01*
X16119Y-9264D02*
X17611Y-9264D01*
X15170Y-8315D02*
X16119Y-9264D01*
X8811Y-8315D02*
X15170Y-8315D01*
X61777Y-25630D02*
X58938Y-25630D01*
X62370Y-26222D02*
X61777Y-25630D01*
X60637Y-26579D02*
X60496Y-26438D01*
X62721Y-26579D02*
X60637Y-26579D01*
X62759Y-26542D02*
X62721Y-26579D01*
X78201Y-19622D02*
X79151Y-19622D01*
X87601Y-19622D02*
X86701Y-19622D01*
G54D26*
X20606Y-9727D02*
X20001Y-9122D01*
X26341Y-9727D02*
X20606Y-9727D01*
X26946Y-9122D02*
X26341Y-9727D01*
X27501Y-9122D02*
X26946Y-9122D01*
X12501Y-9122D02*
X7464Y-9122D01*
X55732Y-28669D02*
X61158Y-28669D01*
X55364Y-28301D02*
X55732Y-28669D01*
X54314Y-29350D02*
X55364Y-28301D01*
X36652Y-29350D02*
X54314Y-29350D01*
X36111Y-28809D02*
X36652Y-29350D01*
X73282Y-13992D02*
X72439Y-14834D01*
X84559Y-13992D02*
X73282Y-13992D01*
X87492Y-11059D02*
X84559Y-13992D01*
X88976Y-11059D02*
X87492Y-11059D01*
X65669Y-22702D02*
X62248Y-22702D01*
X66195Y-22176D02*
X65669Y-22702D01*
X62248Y-23472D02*
X62248Y-22702D01*
X62248Y-22702D02*
X57661Y-22702D01*
X56156Y-22677D02*
X56132Y-22702D01*
X57637Y-22677D02*
X56156Y-22677D01*
X57661Y-22702D02*
X57637Y-22677D01*
G54D10*
G36*
X29444Y-241D02*
X29424Y-301D01*
X29435Y-461D01*
X11431Y-461D01*
X11304Y-487D01*
X11197Y-558D01*
X10809Y-946D01*
X10176Y-946D01*
X10084Y-984D01*
X10014Y-1054D01*
X9976Y-1146D01*
X9976Y-1246D01*
X9976Y-2096D01*
X10014Y-2188D01*
X10084Y-2258D01*
X10176Y-2296D01*
X10275Y-2296D01*
X10809Y-2296D01*
X11100Y-2587D01*
X10896Y-2586D01*
X10515Y-2744D01*
X10224Y-3035D01*
X10066Y-3415D01*
X10066Y-3827D01*
X10223Y-4207D01*
X10514Y-4498D01*
X10894Y-4656D01*
X11306Y-4657D01*
X11445Y-4599D01*
X11445Y-6404D01*
X11397Y-6452D01*
X11328Y-6616D01*
X11328Y-6794D01*
X11396Y-6958D01*
X11522Y-7084D01*
X11686Y-7152D01*
X11748Y-7152D01*
X11578Y-7321D01*
X10801Y-7321D01*
X10801Y-5483D01*
X10695Y-5226D01*
X10498Y-5028D01*
X10241Y-4922D01*
X9962Y-4921D01*
X9705Y-5028D01*
X9686Y-5047D01*
X9686Y-3506D01*
X9597Y-3291D01*
X9433Y-3126D01*
X9218Y-3037D01*
X8985Y-3036D01*
X8770Y-3125D01*
X8605Y-3290D01*
X8516Y-3505D01*
X8516Y-3737D01*
X8605Y-3952D01*
X8769Y-4117D01*
X8984Y-4206D01*
X9217Y-4207D01*
X9432Y-4118D01*
X9597Y-3953D01*
X9686Y-3738D01*
X9686Y-3506D01*
X9686Y-5047D01*
X9508Y-5225D01*
X9480Y-5292D01*
X8458Y-5292D01*
X8458Y-1439D01*
X8393Y-1281D01*
X8273Y-1161D01*
X8116Y-1096D01*
X7946Y-1096D01*
X7789Y-1161D01*
X7669Y-1281D01*
X7604Y-1438D01*
X7604Y-1608D01*
X7669Y-1765D01*
X7789Y-1885D01*
X7946Y-1950D01*
X8116Y-1950D01*
X8273Y-1885D01*
X8393Y-1765D01*
X8458Y-1608D01*
X8458Y-1439D01*
X8458Y-5292D01*
X6726Y-5292D01*
X6726Y-1439D01*
X6661Y-1281D01*
X6541Y-1161D01*
X6384Y-1096D01*
X6214Y-1096D01*
X6057Y-1161D01*
X5937Y-1281D01*
X5872Y-1438D01*
X5871Y-1608D01*
X5936Y-1765D01*
X6056Y-1885D01*
X6213Y-1950D01*
X6383Y-1950D01*
X6540Y-1885D01*
X6661Y-1765D01*
X6726Y-1608D01*
X6726Y-1439D01*
X6726Y-5292D01*
X5312Y-5292D01*
X5497Y-5215D01*
X5694Y-5019D01*
X5801Y-4761D01*
X5801Y-4483D01*
X5695Y-4226D01*
X5676Y-4207D01*
X5717Y-4207D01*
X5932Y-4118D01*
X6097Y-3953D01*
X6186Y-3738D01*
X6186Y-3506D01*
X6097Y-3291D01*
X5933Y-3126D01*
X5718Y-3037D01*
X5485Y-3036D01*
X5270Y-3125D01*
X5105Y-3290D01*
X5016Y-3505D01*
X5016Y-3737D01*
X5092Y-3922D01*
X4962Y-3921D01*
X4705Y-4028D01*
X4508Y-4225D01*
X4401Y-4482D01*
X4401Y-4760D01*
X4507Y-5018D01*
X4704Y-5215D01*
X4889Y-5292D01*
X3222Y-5292D01*
X3195Y-5226D01*
X2998Y-5028D01*
X2741Y-4922D01*
X2462Y-4921D01*
X2205Y-5028D01*
X2008Y-5225D01*
X1901Y-5482D01*
X1901Y-5760D01*
X2007Y-6018D01*
X2204Y-6215D01*
X2461Y-6321D01*
X2740Y-6322D01*
X2997Y-6215D01*
X3194Y-6019D01*
X3222Y-5952D01*
X9480Y-5952D01*
X9507Y-6018D01*
X9704Y-6215D01*
X9961Y-6321D01*
X10240Y-6322D01*
X10497Y-6215D01*
X10694Y-6019D01*
X10801Y-5761D01*
X10801Y-5483D01*
X10801Y-7321D01*
X5521Y-7321D01*
X5521Y-7321D01*
X5496Y-7326D01*
X5395Y-7347D01*
X5288Y-7418D01*
X5288Y-7418D01*
X5288Y-7418D01*
X4259Y-8447D01*
X3626Y-8447D01*
X3534Y-8484D01*
X3464Y-8555D01*
X3426Y-8647D01*
X3426Y-8746D01*
X3426Y-8809D01*
X3389Y-8817D01*
X3282Y-8888D01*
X1892Y-10279D01*
X1855Y-10189D01*
X1706Y-10039D01*
X1706Y-5262D01*
X2516Y-4452D01*
X2588Y-4345D01*
X2588Y-4345D01*
X2613Y-4219D01*
X2613Y-3940D01*
X2723Y-4207D01*
X3014Y-4498D01*
X3394Y-4656D01*
X3806Y-4657D01*
X4186Y-4499D01*
X4478Y-4209D01*
X4636Y-3828D01*
X4636Y-3417D01*
X4479Y-3036D01*
X4188Y-2745D01*
X3808Y-2587D01*
X3745Y-2587D01*
X3795Y-2536D01*
X4101Y-2536D01*
X4227Y-2511D01*
X4334Y-2440D01*
X4406Y-2332D01*
X4431Y-2206D01*
X4431Y-2201D01*
X4543Y-2126D01*
X4678Y-1923D01*
X4726Y-1684D01*
X4726Y-1558D01*
X4678Y-1319D01*
X4543Y-1116D01*
X4340Y-980D01*
X4101Y-933D01*
X3862Y-980D01*
X3702Y-1087D01*
X3688Y-1055D01*
X3618Y-984D01*
X3526Y-946D01*
X3426Y-946D01*
X2676Y-946D01*
X2584Y-984D01*
X2514Y-1054D01*
X2476Y-1146D01*
X2476Y-1246D01*
X2476Y-2096D01*
X2514Y-2188D01*
X2584Y-2258D01*
X2676Y-2296D01*
X2775Y-2296D01*
X3102Y-2296D01*
X2100Y-3298D01*
X2097Y-3291D01*
X1933Y-3126D01*
X1718Y-3037D01*
X1485Y-3036D01*
X1270Y-3125D01*
X1105Y-3290D01*
X1016Y-3505D01*
X1016Y-3737D01*
X1105Y-3952D01*
X1269Y-4117D01*
X1484Y-4206D01*
X1717Y-4207D01*
X1906Y-4128D01*
X1143Y-4892D01*
X1071Y-4999D01*
X1046Y-5126D01*
X1046Y-10040D01*
X897Y-10188D01*
X811Y-10396D01*
X811Y-10620D01*
X897Y-10828D01*
X1055Y-10987D01*
X1146Y-11025D01*
X422Y-11748D01*
X351Y-11855D01*
X326Y-11982D01*
X326Y-18851D01*
X351Y-18978D01*
X422Y-19085D01*
X3721Y-22383D01*
X3721Y-23447D01*
X3626Y-23447D01*
X3534Y-23484D01*
X3464Y-23555D01*
X3426Y-23647D01*
X3426Y-23746D01*
X3426Y-24596D01*
X3464Y-24688D01*
X3534Y-24758D01*
X3626Y-24797D01*
X3725Y-24797D01*
X4475Y-24797D01*
X4567Y-24759D01*
X4638Y-24688D01*
X4651Y-24655D01*
X4812Y-24762D01*
X5051Y-24810D01*
X5290Y-24762D01*
X5493Y-24627D01*
X5546Y-24548D01*
X5938Y-24940D01*
X6045Y-25012D01*
X6045Y-25012D01*
X6171Y-25037D01*
X13501Y-25037D01*
X21001Y-25037D01*
X21127Y-25012D01*
X21234Y-24940D01*
X21306Y-24833D01*
X21331Y-24707D01*
X21331Y-24702D01*
X21443Y-24627D01*
X21496Y-24548D01*
X22025Y-25077D01*
X21781Y-25077D01*
X21733Y-25028D01*
X21568Y-24960D01*
X21391Y-24960D01*
X21226Y-25028D01*
X21101Y-25153D01*
X21066Y-25236D01*
X20708Y-25087D01*
X20296Y-25086D01*
X19916Y-25244D01*
X19624Y-25535D01*
X19466Y-25915D01*
X19466Y-26327D01*
X19623Y-26707D01*
X19914Y-26998D01*
X20294Y-27156D01*
X20706Y-27157D01*
X21087Y-26999D01*
X21378Y-26709D01*
X21536Y-26328D01*
X21536Y-25917D01*
X21510Y-25853D01*
X21568Y-25853D01*
X21732Y-25786D01*
X21781Y-25737D01*
X22059Y-25737D01*
X22005Y-25790D01*
X21916Y-26005D01*
X21916Y-26237D01*
X21992Y-26422D01*
X21862Y-26421D01*
X21605Y-26528D01*
X21408Y-26725D01*
X21301Y-26982D01*
X21301Y-27260D01*
X21407Y-27518D01*
X21604Y-27715D01*
X21613Y-27718D01*
X20088Y-27718D01*
X19898Y-27528D01*
X19641Y-27422D01*
X19362Y-27421D01*
X19105Y-27528D01*
X19086Y-27547D01*
X19086Y-26006D01*
X18997Y-25791D01*
X18833Y-25626D01*
X18618Y-25537D01*
X18385Y-25536D01*
X18170Y-25625D01*
X18005Y-25790D01*
X17916Y-26005D01*
X17916Y-26237D01*
X18005Y-26452D01*
X18169Y-26617D01*
X18384Y-26706D01*
X18617Y-26707D01*
X18832Y-26618D01*
X18997Y-26453D01*
X19086Y-26238D01*
X19086Y-26006D01*
X19086Y-27547D01*
X18908Y-27725D01*
X18880Y-27792D01*
X14712Y-27792D01*
X14897Y-27715D01*
X15094Y-27519D01*
X15201Y-27261D01*
X15201Y-26983D01*
X15095Y-26726D01*
X15076Y-26707D01*
X15117Y-26707D01*
X15332Y-26618D01*
X15497Y-26453D01*
X15586Y-26238D01*
X15586Y-26006D01*
X15497Y-25791D01*
X15333Y-25626D01*
X15118Y-25537D01*
X14885Y-25536D01*
X14670Y-25625D01*
X14505Y-25790D01*
X14416Y-26005D01*
X14416Y-26237D01*
X14492Y-26422D01*
X14362Y-26421D01*
X14105Y-26528D01*
X14036Y-26596D01*
X14036Y-25917D01*
X13879Y-25536D01*
X13588Y-25245D01*
X13208Y-25087D01*
X12796Y-25086D01*
X12415Y-25244D01*
X12124Y-25535D01*
X11966Y-25915D01*
X11966Y-26327D01*
X12123Y-26707D01*
X12414Y-26998D01*
X12794Y-27156D01*
X13206Y-27157D01*
X13586Y-26999D01*
X13878Y-26709D01*
X14036Y-26328D01*
X14036Y-25917D01*
X14036Y-26596D01*
X13908Y-26725D01*
X13801Y-26982D01*
X13801Y-27260D01*
X13907Y-27518D01*
X14104Y-27715D01*
X14289Y-27792D01*
X12622Y-27792D01*
X12595Y-27726D01*
X12398Y-27528D01*
X12141Y-27422D01*
X11862Y-27421D01*
X11605Y-27528D01*
X11586Y-27547D01*
X11586Y-26006D01*
X11497Y-25791D01*
X11333Y-25626D01*
X11118Y-25537D01*
X10885Y-25536D01*
X10670Y-25625D01*
X10505Y-25790D01*
X10416Y-26005D01*
X10416Y-26237D01*
X10505Y-26452D01*
X10669Y-26617D01*
X10884Y-26706D01*
X11117Y-26707D01*
X11332Y-26618D01*
X11497Y-26453D01*
X11586Y-26238D01*
X11586Y-26006D01*
X11586Y-27547D01*
X11408Y-27725D01*
X11380Y-27792D01*
X6262Y-27792D01*
X6447Y-27715D01*
X6644Y-27519D01*
X6751Y-27261D01*
X6751Y-26983D01*
X6645Y-26726D01*
X6626Y-26707D01*
X6667Y-26707D01*
X6882Y-26618D01*
X7047Y-26453D01*
X7136Y-26238D01*
X7136Y-26006D01*
X7047Y-25791D01*
X6883Y-25626D01*
X6668Y-25537D01*
X6435Y-25536D01*
X6220Y-25625D01*
X6055Y-25790D01*
X5966Y-26005D01*
X5966Y-26237D01*
X6042Y-26422D01*
X5912Y-26421D01*
X5655Y-26528D01*
X5586Y-26596D01*
X5586Y-25917D01*
X5429Y-25536D01*
X5138Y-25245D01*
X4758Y-25087D01*
X4346Y-25086D01*
X3965Y-25244D01*
X3674Y-25535D01*
X3516Y-25915D01*
X3516Y-26327D01*
X3673Y-26707D01*
X3964Y-26998D01*
X4344Y-27156D01*
X4756Y-27157D01*
X5136Y-26999D01*
X5428Y-26709D01*
X5586Y-26328D01*
X5586Y-25917D01*
X5586Y-26596D01*
X5458Y-26725D01*
X5351Y-26982D01*
X5351Y-27260D01*
X5457Y-27518D01*
X5654Y-27715D01*
X5839Y-27792D01*
X4172Y-27792D01*
X4145Y-27726D01*
X3948Y-27528D01*
X3691Y-27422D01*
X3412Y-27421D01*
X3155Y-27528D01*
X3136Y-27547D01*
X3136Y-26006D01*
X3047Y-25791D01*
X2883Y-25626D01*
X2668Y-25537D01*
X2435Y-25536D01*
X2220Y-25625D01*
X2055Y-25790D01*
X1966Y-26005D01*
X1966Y-26237D01*
X2055Y-26452D01*
X2219Y-26617D01*
X2434Y-26706D01*
X2667Y-26707D01*
X2882Y-26618D01*
X3047Y-26453D01*
X3136Y-26238D01*
X3136Y-26006D01*
X3136Y-27547D01*
X2958Y-27725D01*
X2851Y-27982D01*
X2851Y-28260D01*
X2957Y-28518D01*
X3154Y-28715D01*
X3411Y-28821D01*
X3690Y-28822D01*
X3947Y-28715D01*
X4144Y-28519D01*
X4172Y-28452D01*
X11380Y-28452D01*
X11407Y-28518D01*
X11604Y-28715D01*
X11861Y-28821D01*
X12140Y-28822D01*
X12397Y-28715D01*
X12594Y-28519D01*
X12622Y-28452D01*
X18880Y-28452D01*
X18907Y-28518D01*
X19104Y-28715D01*
X19361Y-28821D01*
X19640Y-28822D01*
X19897Y-28715D01*
X20094Y-28519D01*
X20152Y-28378D01*
X27165Y-28378D01*
X27051Y-28652D01*
X27051Y-28990D01*
X27180Y-29302D01*
X27419Y-29542D01*
X27444Y-29552D01*
X795Y-29552D01*
X803Y-29529D01*
X790Y-29351D01*
X747Y-29246D01*
X662Y-29231D01*
X422Y-29472D01*
X427Y-29477D01*
X356Y-29548D01*
X351Y-29542D01*
X345Y-29548D01*
X275Y-29477D01*
X280Y-29472D01*
X275Y-29466D01*
X345Y-29395D01*
X351Y-29401D01*
X591Y-29160D01*
X577Y-29076D01*
X408Y-29020D01*
X270Y-29029D01*
X270Y-23478D01*
X1602Y-23478D01*
X2074Y-23384D01*
X2474Y-23117D01*
X2742Y-22716D01*
X2836Y-22244D01*
X2742Y-21772D01*
X2474Y-21371D01*
X2074Y-21104D01*
X1602Y-21010D01*
X270Y-21010D01*
X270Y-766D01*
X294Y-774D01*
X471Y-761D01*
X577Y-717D01*
X591Y-633D01*
X351Y-392D01*
X345Y-398D01*
X275Y-327D01*
X280Y-322D01*
X275Y-316D01*
X345Y-245D01*
X351Y-251D01*
X356Y-245D01*
X427Y-316D01*
X422Y-322D01*
X662Y-562D01*
X747Y-547D01*
X803Y-379D01*
X793Y-241D01*
X29444Y-241D01*
X29444Y-241D01*
G37*
G54D27*
X29444Y-241D02*
X29424Y-301D01*
X29435Y-461D01*
X11431Y-461D01*
X11304Y-487D01*
X11197Y-558D01*
X10809Y-946D01*
X10176Y-946D01*
X10084Y-984D01*
X10014Y-1054D01*
X9976Y-1146D01*
X9976Y-1246D01*
X9976Y-2096D01*
X10014Y-2188D01*
X10084Y-2258D01*
X10176Y-2296D01*
X10275Y-2296D01*
X10809Y-2296D01*
X11100Y-2587D01*
X10896Y-2586D01*
X10515Y-2744D01*
X10224Y-3035D01*
X10066Y-3415D01*
X10066Y-3827D01*
X10223Y-4207D01*
X10514Y-4498D01*
X10894Y-4656D01*
X11306Y-4657D01*
X11445Y-4599D01*
X11445Y-6404D01*
X11397Y-6452D01*
X11328Y-6616D01*
X11328Y-6794D01*
X11396Y-6958D01*
X11522Y-7084D01*
X11686Y-7152D01*
X11748Y-7152D01*
X11578Y-7321D01*
X10801Y-7321D01*
X10801Y-5483D01*
X10695Y-5226D01*
X10498Y-5028D01*
X10241Y-4922D01*
X9962Y-4921D01*
X9705Y-5028D01*
X9686Y-5047D01*
X9686Y-3506D01*
X9597Y-3291D01*
X9433Y-3126D01*
X9218Y-3037D01*
X8985Y-3036D01*
X8770Y-3125D01*
X8605Y-3290D01*
X8516Y-3505D01*
X8516Y-3737D01*
X8605Y-3952D01*
X8769Y-4117D01*
X8984Y-4206D01*
X9217Y-4207D01*
X9432Y-4118D01*
X9597Y-3953D01*
X9686Y-3738D01*
X9686Y-3506D01*
X9686Y-5047D01*
X9508Y-5225D01*
X9480Y-5292D01*
X8458Y-5292D01*
X8458Y-1439D01*
X8393Y-1281D01*
X8273Y-1161D01*
X8116Y-1096D01*
X7946Y-1096D01*
X7789Y-1161D01*
X7669Y-1281D01*
X7604Y-1438D01*
X7604Y-1608D01*
X7669Y-1765D01*
X7789Y-1885D01*
X7946Y-1950D01*
X8116Y-1950D01*
X8273Y-1885D01*
X8393Y-1765D01*
X8458Y-1608D01*
X8458Y-1439D01*
X8458Y-5292D01*
X6726Y-5292D01*
X6726Y-1439D01*
X6661Y-1281D01*
X6541Y-1161D01*
X6384Y-1096D01*
X6214Y-1096D01*
X6057Y-1161D01*
X5937Y-1281D01*
X5872Y-1438D01*
X5871Y-1608D01*
X5936Y-1765D01*
X6056Y-1885D01*
X6213Y-1950D01*
X6383Y-1950D01*
X6540Y-1885D01*
X6661Y-1765D01*
X6726Y-1608D01*
X6726Y-1439D01*
X6726Y-5292D01*
X5312Y-5292D01*
X5497Y-5215D01*
X5694Y-5019D01*
X5801Y-4761D01*
X5801Y-4483D01*
X5695Y-4226D01*
X5676Y-4207D01*
X5717Y-4207D01*
X5932Y-4118D01*
X6097Y-3953D01*
X6186Y-3738D01*
X6186Y-3506D01*
X6097Y-3291D01*
X5933Y-3126D01*
X5718Y-3037D01*
X5485Y-3036D01*
X5270Y-3125D01*
X5105Y-3290D01*
X5016Y-3505D01*
X5016Y-3737D01*
X5092Y-3922D01*
X4962Y-3921D01*
X4705Y-4028D01*
X4508Y-4225D01*
X4401Y-4482D01*
X4401Y-4760D01*
X4507Y-5018D01*
X4704Y-5215D01*
X4889Y-5292D01*
X3222Y-5292D01*
X3195Y-5226D01*
X2998Y-5028D01*
X2741Y-4922D01*
X2462Y-4921D01*
X2205Y-5028D01*
X2008Y-5225D01*
X1901Y-5482D01*
X1901Y-5760D01*
X2007Y-6018D01*
X2204Y-6215D01*
X2461Y-6321D01*
X2740Y-6322D01*
X2997Y-6215D01*
X3194Y-6019D01*
X3222Y-5952D01*
X9480Y-5952D01*
X9507Y-6018D01*
X9704Y-6215D01*
X9961Y-6321D01*
X10240Y-6322D01*
X10497Y-6215D01*
X10694Y-6019D01*
X10801Y-5761D01*
X10801Y-5483D01*
X10801Y-7321D01*
X5521Y-7321D01*
X5521Y-7321D01*
X5496Y-7326D01*
X5395Y-7347D01*
X5288Y-7418D01*
X5288Y-7418D01*
X5288Y-7418D01*
X4259Y-8447D01*
X3626Y-8447D01*
X3534Y-8484D01*
X3464Y-8555D01*
X3426Y-8647D01*
X3426Y-8746D01*
X3426Y-8809D01*
X3389Y-8817D01*
X3282Y-8888D01*
X1892Y-10279D01*
X1855Y-10189D01*
X1706Y-10039D01*
X1706Y-5262D01*
X2516Y-4452D01*
X2588Y-4345D01*
X2588Y-4345D01*
X2613Y-4219D01*
X2613Y-3940D01*
X2723Y-4207D01*
X3014Y-4498D01*
X3394Y-4656D01*
X3806Y-4657D01*
X4186Y-4499D01*
X4478Y-4209D01*
X4636Y-3828D01*
X4636Y-3417D01*
X4479Y-3036D01*
X4188Y-2745D01*
X3808Y-2587D01*
X3745Y-2587D01*
X3795Y-2536D01*
X4101Y-2536D01*
X4227Y-2511D01*
X4334Y-2440D01*
X4406Y-2332D01*
X4431Y-2206D01*
X4431Y-2201D01*
X4543Y-2126D01*
X4678Y-1923D01*
X4726Y-1684D01*
X4726Y-1558D01*
X4678Y-1319D01*
X4543Y-1116D01*
X4340Y-980D01*
X4101Y-933D01*
X3862Y-980D01*
X3702Y-1087D01*
X3688Y-1055D01*
X3618Y-984D01*
X3526Y-946D01*
X3426Y-946D01*
X2676Y-946D01*
X2584Y-984D01*
X2514Y-1054D01*
X2476Y-1146D01*
X2476Y-1246D01*
X2476Y-2096D01*
X2514Y-2188D01*
X2584Y-2258D01*
X2676Y-2296D01*
X2775Y-2296D01*
X3102Y-2296D01*
X2100Y-3298D01*
X2097Y-3291D01*
X1933Y-3126D01*
X1718Y-3037D01*
X1485Y-3036D01*
X1270Y-3125D01*
X1105Y-3290D01*
X1016Y-3505D01*
X1016Y-3737D01*
X1105Y-3952D01*
X1269Y-4117D01*
X1484Y-4206D01*
X1717Y-4207D01*
X1906Y-4128D01*
X1143Y-4892D01*
X1071Y-4999D01*
X1046Y-5126D01*
X1046Y-10040D01*
X897Y-10188D01*
X811Y-10396D01*
X811Y-10620D01*
X897Y-10828D01*
X1055Y-10987D01*
X1146Y-11025D01*
X422Y-11748D01*
X351Y-11855D01*
X326Y-11982D01*
X326Y-18851D01*
X351Y-18978D01*
X422Y-19085D01*
X3721Y-22383D01*
X3721Y-23447D01*
X3626Y-23447D01*
X3534Y-23484D01*
X3464Y-23555D01*
X3426Y-23647D01*
X3426Y-23746D01*
X3426Y-24596D01*
X3464Y-24688D01*
X3534Y-24758D01*
X3626Y-24797D01*
X3725Y-24797D01*
X4475Y-24797D01*
X4567Y-24759D01*
X4638Y-24688D01*
X4651Y-24655D01*
X4812Y-24762D01*
X5051Y-24810D01*
X5290Y-24762D01*
X5493Y-24627D01*
X5546Y-24548D01*
X5938Y-24940D01*
X6045Y-25012D01*
X6045Y-25012D01*
X6171Y-25037D01*
X13501Y-25037D01*
X21001Y-25037D01*
X21127Y-25012D01*
X21234Y-24940D01*
X21306Y-24833D01*
X21331Y-24707D01*
X21331Y-24702D01*
X21443Y-24627D01*
X21496Y-24548D01*
X22025Y-25077D01*
X21781Y-25077D01*
X21733Y-25028D01*
X21568Y-24960D01*
X21391Y-24960D01*
X21226Y-25028D01*
X21101Y-25153D01*
X21066Y-25236D01*
X20708Y-25087D01*
X20296Y-25086D01*
X19916Y-25244D01*
X19624Y-25535D01*
X19466Y-25915D01*
X19466Y-26327D01*
X19623Y-26707D01*
X19914Y-26998D01*
X20294Y-27156D01*
X20706Y-27157D01*
X21087Y-26999D01*
X21378Y-26709D01*
X21536Y-26328D01*
X21536Y-25917D01*
X21510Y-25853D01*
X21568Y-25853D01*
X21732Y-25786D01*
X21781Y-25737D01*
X22059Y-25737D01*
X22005Y-25790D01*
X21916Y-26005D01*
X21916Y-26237D01*
X21992Y-26422D01*
X21862Y-26421D01*
X21605Y-26528D01*
X21408Y-26725D01*
X21301Y-26982D01*
X21301Y-27260D01*
X21407Y-27518D01*
X21604Y-27715D01*
X21613Y-27718D01*
X20088Y-27718D01*
X19898Y-27528D01*
X19641Y-27422D01*
X19362Y-27421D01*
X19105Y-27528D01*
X19086Y-27547D01*
X19086Y-26006D01*
X18997Y-25791D01*
X18833Y-25626D01*
X18618Y-25537D01*
X18385Y-25536D01*
X18170Y-25625D01*
X18005Y-25790D01*
X17916Y-26005D01*
X17916Y-26237D01*
X18005Y-26452D01*
X18169Y-26617D01*
X18384Y-26706D01*
X18617Y-26707D01*
X18832Y-26618D01*
X18997Y-26453D01*
X19086Y-26238D01*
X19086Y-26006D01*
X19086Y-27547D01*
X18908Y-27725D01*
X18880Y-27792D01*
X14712Y-27792D01*
X14897Y-27715D01*
X15094Y-27519D01*
X15201Y-27261D01*
X15201Y-26983D01*
X15095Y-26726D01*
X15076Y-26707D01*
X15117Y-26707D01*
X15332Y-26618D01*
X15497Y-26453D01*
X15586Y-26238D01*
X15586Y-26006D01*
X15497Y-25791D01*
X15333Y-25626D01*
X15118Y-25537D01*
X14885Y-25536D01*
X14670Y-25625D01*
X14505Y-25790D01*
X14416Y-26005D01*
X14416Y-26237D01*
X14492Y-26422D01*
X14362Y-26421D01*
X14105Y-26528D01*
X14036Y-26596D01*
X14036Y-25917D01*
X13879Y-25536D01*
X13588Y-25245D01*
X13208Y-25087D01*
X12796Y-25086D01*
X12415Y-25244D01*
X12124Y-25535D01*
X11966Y-25915D01*
X11966Y-26327D01*
X12123Y-26707D01*
X12414Y-26998D01*
X12794Y-27156D01*
X13206Y-27157D01*
X13586Y-26999D01*
X13878Y-26709D01*
X14036Y-26328D01*
X14036Y-25917D01*
X14036Y-26596D01*
X13908Y-26725D01*
X13801Y-26982D01*
X13801Y-27260D01*
X13907Y-27518D01*
X14104Y-27715D01*
X14289Y-27792D01*
X12622Y-27792D01*
X12595Y-27726D01*
X12398Y-27528D01*
X12141Y-27422D01*
X11862Y-27421D01*
X11605Y-27528D01*
X11586Y-27547D01*
X11586Y-26006D01*
X11497Y-25791D01*
X11333Y-25626D01*
X11118Y-25537D01*
X10885Y-25536D01*
X10670Y-25625D01*
X10505Y-25790D01*
X10416Y-26005D01*
X10416Y-26237D01*
X10505Y-26452D01*
X10669Y-26617D01*
X10884Y-26706D01*
X11117Y-26707D01*
X11332Y-26618D01*
X11497Y-26453D01*
X11586Y-26238D01*
X11586Y-26006D01*
X11586Y-27547D01*
X11408Y-27725D01*
X11380Y-27792D01*
X6262Y-27792D01*
X6447Y-27715D01*
X6644Y-27519D01*
X6751Y-27261D01*
X6751Y-26983D01*
X6645Y-26726D01*
X6626Y-26707D01*
X6667Y-26707D01*
X6882Y-26618D01*
X7047Y-26453D01*
X7136Y-26238D01*
X7136Y-26006D01*
X7047Y-25791D01*
X6883Y-25626D01*
X6668Y-25537D01*
X6435Y-25536D01*
X6220Y-25625D01*
X6055Y-25790D01*
X5966Y-26005D01*
X5966Y-26237D01*
X6042Y-26422D01*
X5912Y-26421D01*
X5655Y-26528D01*
X5586Y-26596D01*
X5586Y-25917D01*
X5429Y-25536D01*
X5138Y-25245D01*
X4758Y-25087D01*
X4346Y-25086D01*
X3965Y-25244D01*
X3674Y-25535D01*
X3516Y-25915D01*
X3516Y-26327D01*
X3673Y-26707D01*
X3964Y-26998D01*
X4344Y-27156D01*
X4756Y-27157D01*
X5136Y-26999D01*
X5428Y-26709D01*
X5586Y-26328D01*
X5586Y-25917D01*
X5586Y-26596D01*
X5458Y-26725D01*
X5351Y-26982D01*
X5351Y-27260D01*
X5457Y-27518D01*
X5654Y-27715D01*
X5839Y-27792D01*
X4172Y-27792D01*
X4145Y-27726D01*
X3948Y-27528D01*
X3691Y-27422D01*
X3412Y-27421D01*
X3155Y-27528D01*
X3136Y-27547D01*
X3136Y-26006D01*
X3047Y-25791D01*
X2883Y-25626D01*
X2668Y-25537D01*
X2435Y-25536D01*
X2220Y-25625D01*
X2055Y-25790D01*
X1966Y-26005D01*
X1966Y-26237D01*
X2055Y-26452D01*
X2219Y-26617D01*
X2434Y-26706D01*
X2667Y-26707D01*
X2882Y-26618D01*
X3047Y-26453D01*
X3136Y-26238D01*
X3136Y-26006D01*
X3136Y-27547D01*
X2958Y-27725D01*
X2851Y-27982D01*
X2851Y-28260D01*
X2957Y-28518D01*
X3154Y-28715D01*
X3411Y-28821D01*
X3690Y-28822D01*
X3947Y-28715D01*
X4144Y-28519D01*
X4172Y-28452D01*
X11380Y-28452D01*
X11407Y-28518D01*
X11604Y-28715D01*
X11861Y-28821D01*
X12140Y-28822D01*
X12397Y-28715D01*
X12594Y-28519D01*
X12622Y-28452D01*
X18880Y-28452D01*
X18907Y-28518D01*
X19104Y-28715D01*
X19361Y-28821D01*
X19640Y-28822D01*
X19897Y-28715D01*
X20094Y-28519D01*
X20152Y-28378D01*
X27165Y-28378D01*
X27051Y-28652D01*
X27051Y-28990D01*
X27180Y-29302D01*
X27419Y-29542D01*
X27444Y-29552D01*
X795Y-29552D01*
X803Y-29529D01*
X790Y-29351D01*
X747Y-29246D01*
X662Y-29231D01*
X422Y-29472D01*
X427Y-29477D01*
X356Y-29548D01*
X351Y-29542D01*
X345Y-29548D01*
X275Y-29477D01*
X280Y-29472D01*
X275Y-29466D01*
X345Y-29395D01*
X351Y-29401D01*
X591Y-29160D01*
X577Y-29076D01*
X408Y-29020D01*
X270Y-29029D01*
X270Y-23478D01*
X1602Y-23478D01*
X2074Y-23384D01*
X2474Y-23117D01*
X2742Y-22716D01*
X2836Y-22244D01*
X2742Y-21772D01*
X2474Y-21371D01*
X2074Y-21104D01*
X1602Y-21010D01*
X270Y-21010D01*
X270Y-766D01*
X294Y-774D01*
X471Y-761D01*
X577Y-717D01*
X591Y-633D01*
X351Y-392D01*
X345Y-398D01*
X275Y-327D01*
X280Y-322D01*
X275Y-316D01*
X345Y-245D01*
X351Y-251D01*
X356Y-245D01*
X427Y-316D01*
X422Y-322D01*
X662Y-562D01*
X747Y-547D01*
X803Y-379D01*
X793Y-241D01*
X29444Y-241D01*
G54D10*
G36*
X29952Y-364D02*
X29881Y-435D01*
X29876Y-429D01*
X29870Y-435D01*
X29800Y-364D01*
X29805Y-359D01*
X29800Y-353D01*
X29870Y-282D01*
X29876Y-288D01*
X29881Y-282D01*
X29952Y-353D01*
X29947Y-359D01*
X29952Y-364D01*
X29952Y-364D01*
G37*
G54D27*
X29952Y-364D02*
X29881Y-435D01*
X29876Y-429D01*
X29870Y-435D01*
X29800Y-364D01*
X29805Y-359D01*
X29800Y-353D01*
X29870Y-282D01*
X29876Y-288D01*
X29881Y-282D01*
X29952Y-353D01*
X29947Y-359D01*
X29952Y-364D01*
G54D10*
G36*
X38187Y-28814D02*
X38116Y-28885D01*
X38111Y-28879D01*
X38105Y-28885D01*
X38035Y-28814D01*
X38040Y-28809D01*
X38035Y-28803D01*
X38105Y-28732D01*
X38111Y-28738D01*
X38116Y-28732D01*
X38187Y-28803D01*
X38182Y-28809D01*
X38187Y-28814D01*
X38187Y-28814D01*
G37*
G54D27*
X38187Y-28814D02*
X38116Y-28885D01*
X38111Y-28879D01*
X38105Y-28885D01*
X38035Y-28814D01*
X38040Y-28809D01*
X38035Y-28803D01*
X38105Y-28732D01*
X38111Y-28738D01*
X38116Y-28732D01*
X38187Y-28803D01*
X38182Y-28809D01*
X38187Y-28814D01*
G54D10*
G36*
X49436Y-17237D02*
X49093Y-17580D01*
X48891Y-18067D01*
X48818Y-18037D01*
X48585Y-18036D01*
X48370Y-18125D01*
X48205Y-18290D01*
X48116Y-18505D01*
X48116Y-18737D01*
X48192Y-18922D01*
X48062Y-18921D01*
X47805Y-19028D01*
X47608Y-19225D01*
X47501Y-19482D01*
X47501Y-19760D01*
X47607Y-20018D01*
X47804Y-20215D01*
X47989Y-20292D01*
X46322Y-20292D01*
X46295Y-20226D01*
X46098Y-20028D01*
X45841Y-19922D01*
X45562Y-19921D01*
X45305Y-20028D01*
X45286Y-20047D01*
X45286Y-18506D01*
X45197Y-18291D01*
X45033Y-18126D01*
X44818Y-18037D01*
X44585Y-18036D01*
X44370Y-18125D01*
X44205Y-18290D01*
X44116Y-18505D01*
X44116Y-18737D01*
X44205Y-18952D01*
X44369Y-19117D01*
X44584Y-19206D01*
X44817Y-19207D01*
X45032Y-19118D01*
X45197Y-18953D01*
X45286Y-18738D01*
X45286Y-18506D01*
X45286Y-20047D01*
X45108Y-20225D01*
X45080Y-20292D01*
X40913Y-20292D01*
X41097Y-20215D01*
X41294Y-20019D01*
X41401Y-19761D01*
X41401Y-19483D01*
X41295Y-19226D01*
X41276Y-19207D01*
X41317Y-19207D01*
X41532Y-19118D01*
X41697Y-18953D01*
X41786Y-18738D01*
X41786Y-18506D01*
X41697Y-18291D01*
X41533Y-18126D01*
X41318Y-18037D01*
X41085Y-18036D01*
X40870Y-18125D01*
X40705Y-18290D01*
X40616Y-18505D01*
X40616Y-18737D01*
X40692Y-18922D01*
X40562Y-18921D01*
X40305Y-19028D01*
X40236Y-19096D01*
X40236Y-18417D01*
X40079Y-18036D01*
X39788Y-17745D01*
X39408Y-17587D01*
X38996Y-17586D01*
X38616Y-17744D01*
X38324Y-18035D01*
X38166Y-18415D01*
X38166Y-18827D01*
X38323Y-19207D01*
X38614Y-19498D01*
X38994Y-19656D01*
X39406Y-19657D01*
X39787Y-19499D01*
X40078Y-19209D01*
X40236Y-18828D01*
X40236Y-18417D01*
X40236Y-19096D01*
X40108Y-19225D01*
X40001Y-19482D01*
X40001Y-19760D01*
X40107Y-20018D01*
X40304Y-20215D01*
X40489Y-20292D01*
X38822Y-20292D01*
X38795Y-20226D01*
X38598Y-20028D01*
X38341Y-19922D01*
X38062Y-19921D01*
X37805Y-20028D01*
X37786Y-20047D01*
X37786Y-18506D01*
X37697Y-18291D01*
X37533Y-18126D01*
X37318Y-18037D01*
X37085Y-18036D01*
X36870Y-18125D01*
X36705Y-18290D01*
X36616Y-18505D01*
X36616Y-18737D01*
X36705Y-18952D01*
X36869Y-19117D01*
X37084Y-19206D01*
X37317Y-19207D01*
X37532Y-19118D01*
X37697Y-18953D01*
X37786Y-18738D01*
X37786Y-18506D01*
X37786Y-20047D01*
X37608Y-20225D01*
X37580Y-20292D01*
X33413Y-20292D01*
X33597Y-20215D01*
X33794Y-20019D01*
X33901Y-19761D01*
X33901Y-19483D01*
X33795Y-19226D01*
X33776Y-19207D01*
X33817Y-19207D01*
X34032Y-19118D01*
X34197Y-18953D01*
X34286Y-18738D01*
X34286Y-18506D01*
X34197Y-18291D01*
X34033Y-18126D01*
X33818Y-18037D01*
X33585Y-18036D01*
X33370Y-18125D01*
X33205Y-18290D01*
X33116Y-18505D01*
X33116Y-18737D01*
X33192Y-18922D01*
X33062Y-18921D01*
X32805Y-19028D01*
X32608Y-19225D01*
X32501Y-19482D01*
X32501Y-19760D01*
X32607Y-20018D01*
X32804Y-20215D01*
X32989Y-20292D01*
X31322Y-20292D01*
X31295Y-20226D01*
X31098Y-20028D01*
X30841Y-19922D01*
X30562Y-19921D01*
X30305Y-20028D01*
X30286Y-20047D01*
X30286Y-18506D01*
X30197Y-18291D01*
X30033Y-18126D01*
X29818Y-18037D01*
X29585Y-18036D01*
X29370Y-18125D01*
X29205Y-18290D01*
X29116Y-18505D01*
X29116Y-18737D01*
X29205Y-18952D01*
X29369Y-19117D01*
X29584Y-19206D01*
X29817Y-19207D01*
X30032Y-19118D01*
X30197Y-18953D01*
X30286Y-18738D01*
X30286Y-18506D01*
X30286Y-20047D01*
X30108Y-20225D01*
X30080Y-20292D01*
X25913Y-20292D01*
X26097Y-20215D01*
X26294Y-20019D01*
X26401Y-19761D01*
X26401Y-19483D01*
X26295Y-19226D01*
X26276Y-19207D01*
X26317Y-19207D01*
X26532Y-19118D01*
X26697Y-18953D01*
X26786Y-18738D01*
X26786Y-18506D01*
X26697Y-18291D01*
X26533Y-18126D01*
X26318Y-18037D01*
X26085Y-18036D01*
X25870Y-18125D01*
X25705Y-18290D01*
X25616Y-18505D01*
X25616Y-18737D01*
X25692Y-18922D01*
X25562Y-18921D01*
X25305Y-19028D01*
X25236Y-19096D01*
X25236Y-18417D01*
X25079Y-18036D01*
X24788Y-17745D01*
X24408Y-17587D01*
X23996Y-17586D01*
X23616Y-17744D01*
X23324Y-18035D01*
X23166Y-18415D01*
X23166Y-18827D01*
X23323Y-19207D01*
X23614Y-19498D01*
X23994Y-19656D01*
X24406Y-19657D01*
X24787Y-19499D01*
X25078Y-19209D01*
X25236Y-18828D01*
X25236Y-18417D01*
X25236Y-19096D01*
X25108Y-19225D01*
X25001Y-19482D01*
X25001Y-19760D01*
X25107Y-20018D01*
X25304Y-20215D01*
X25489Y-20292D01*
X23822Y-20292D01*
X23795Y-20226D01*
X23598Y-20028D01*
X23341Y-19922D01*
X23062Y-19921D01*
X22805Y-20028D01*
X22786Y-20047D01*
X22786Y-18506D01*
X22697Y-18291D01*
X22533Y-18126D01*
X22318Y-18037D01*
X22085Y-18036D01*
X21870Y-18125D01*
X21705Y-18290D01*
X21616Y-18505D01*
X21616Y-18737D01*
X21705Y-18952D01*
X21869Y-19117D01*
X22084Y-19206D01*
X22317Y-19207D01*
X22532Y-19118D01*
X22697Y-18953D01*
X22786Y-18738D01*
X22786Y-18506D01*
X22786Y-20047D01*
X22608Y-20225D01*
X22580Y-20292D01*
X18413Y-20292D01*
X18597Y-20215D01*
X18794Y-20019D01*
X18901Y-19761D01*
X18901Y-19483D01*
X18795Y-19226D01*
X18776Y-19207D01*
X18817Y-19207D01*
X19032Y-19118D01*
X19197Y-18953D01*
X19286Y-18738D01*
X19286Y-18506D01*
X19197Y-18291D01*
X19033Y-18126D01*
X18818Y-18037D01*
X18585Y-18036D01*
X18370Y-18125D01*
X18205Y-18290D01*
X18116Y-18505D01*
X18116Y-18737D01*
X18192Y-18922D01*
X18062Y-18921D01*
X17805Y-19028D01*
X17736Y-19096D01*
X17736Y-18417D01*
X17579Y-18036D01*
X17288Y-17745D01*
X16908Y-17587D01*
X16496Y-17586D01*
X16116Y-17744D01*
X15824Y-18035D01*
X15666Y-18415D01*
X15666Y-18827D01*
X15823Y-19207D01*
X16114Y-19498D01*
X16494Y-19656D01*
X16906Y-19657D01*
X17287Y-19499D01*
X17578Y-19209D01*
X17736Y-18828D01*
X17736Y-18417D01*
X17736Y-19096D01*
X17608Y-19225D01*
X17501Y-19482D01*
X17501Y-19760D01*
X17607Y-20018D01*
X17804Y-20215D01*
X17989Y-20292D01*
X16322Y-20292D01*
X16295Y-20226D01*
X16098Y-20028D01*
X15841Y-19922D01*
X15562Y-19921D01*
X15305Y-20028D01*
X15286Y-20047D01*
X15286Y-18506D01*
X15197Y-18291D01*
X15033Y-18126D01*
X14818Y-18037D01*
X14585Y-18036D01*
X14370Y-18125D01*
X14205Y-18290D01*
X14116Y-18505D01*
X14116Y-18737D01*
X14205Y-18952D01*
X14369Y-19117D01*
X14584Y-19206D01*
X14817Y-19207D01*
X15032Y-19118D01*
X15197Y-18953D01*
X15286Y-18738D01*
X15286Y-18506D01*
X15286Y-20047D01*
X15108Y-20225D01*
X15080Y-20292D01*
X8112Y-20292D01*
X8297Y-20215D01*
X8494Y-20019D01*
X8601Y-19761D01*
X8601Y-19483D01*
X8495Y-19226D01*
X8476Y-19207D01*
X8517Y-19207D01*
X8732Y-19118D01*
X8897Y-18953D01*
X8986Y-18738D01*
X8986Y-18506D01*
X8897Y-18291D01*
X8733Y-18126D01*
X8518Y-18037D01*
X8285Y-18036D01*
X8070Y-18125D01*
X7905Y-18290D01*
X7816Y-18505D01*
X7816Y-18737D01*
X7892Y-18922D01*
X7762Y-18921D01*
X7505Y-19028D01*
X7436Y-19096D01*
X7436Y-18417D01*
X7279Y-18036D01*
X6988Y-17745D01*
X6608Y-17587D01*
X6196Y-17586D01*
X5815Y-17744D01*
X5524Y-18035D01*
X5366Y-18415D01*
X5366Y-18827D01*
X5523Y-19207D01*
X5814Y-19498D01*
X6194Y-19656D01*
X6606Y-19657D01*
X6986Y-19499D01*
X7278Y-19209D01*
X7436Y-18828D01*
X7436Y-18417D01*
X7436Y-19096D01*
X7308Y-19225D01*
X7201Y-19482D01*
X7201Y-19760D01*
X7307Y-20018D01*
X7504Y-20215D01*
X7689Y-20292D01*
X6022Y-20292D01*
X5995Y-20226D01*
X5798Y-20028D01*
X5541Y-19922D01*
X5262Y-19921D01*
X5005Y-20028D01*
X4986Y-20047D01*
X4986Y-18506D01*
X4897Y-18291D01*
X4733Y-18126D01*
X4518Y-18037D01*
X4285Y-18036D01*
X4070Y-18125D01*
X3905Y-18290D01*
X3816Y-18505D01*
X3816Y-18737D01*
X3905Y-18952D01*
X4069Y-19117D01*
X4284Y-19206D01*
X4517Y-19207D01*
X4732Y-19118D01*
X4897Y-18953D01*
X4986Y-18738D01*
X4986Y-18506D01*
X4986Y-20047D01*
X4808Y-20225D01*
X4701Y-20482D01*
X4701Y-20760D01*
X4807Y-21018D01*
X5004Y-21215D01*
X5261Y-21321D01*
X5540Y-21322D01*
X5797Y-21215D01*
X5994Y-21019D01*
X6022Y-20952D01*
X15080Y-20952D01*
X15107Y-21018D01*
X15304Y-21215D01*
X15561Y-21321D01*
X15840Y-21322D01*
X16097Y-21215D01*
X16294Y-21019D01*
X16322Y-20952D01*
X22580Y-20952D01*
X22607Y-21018D01*
X22804Y-21215D01*
X23061Y-21321D01*
X23340Y-21322D01*
X23597Y-21215D01*
X23794Y-21019D01*
X23822Y-20952D01*
X30080Y-20952D01*
X30107Y-21018D01*
X30304Y-21215D01*
X30561Y-21321D01*
X30840Y-21322D01*
X31097Y-21215D01*
X31294Y-21019D01*
X31322Y-20952D01*
X37580Y-20952D01*
X37607Y-21018D01*
X37804Y-21215D01*
X37870Y-21242D01*
X36755Y-21242D01*
X36706Y-21194D01*
X36542Y-21125D01*
X36364Y-21125D01*
X36200Y-21193D01*
X36074Y-21319D01*
X36006Y-21483D01*
X36006Y-21661D01*
X36074Y-21825D01*
X36199Y-21951D01*
X36363Y-22019D01*
X36541Y-22019D01*
X36706Y-21951D01*
X36755Y-21902D01*
X45428Y-21902D01*
X45428Y-22065D01*
X45496Y-22229D01*
X45621Y-22355D01*
X45785Y-22423D01*
X45943Y-22423D01*
X45943Y-22430D01*
X45960Y-22470D01*
X31239Y-22470D01*
X31190Y-22421D01*
X31026Y-22353D01*
X30849Y-22353D01*
X30684Y-22421D01*
X30558Y-22546D01*
X30490Y-22710D01*
X30490Y-22888D01*
X30558Y-23052D01*
X30684Y-23178D01*
X30848Y-23246D01*
X31026Y-23247D01*
X31190Y-23179D01*
X31239Y-23130D01*
X45980Y-23130D01*
X45258Y-23851D01*
X29327Y-23851D01*
X29211Y-23736D01*
X29211Y-23667D01*
X29143Y-23503D01*
X29018Y-23377D01*
X28854Y-23309D01*
X28819Y-23309D01*
X28936Y-23028D01*
X28936Y-22617D01*
X28779Y-22236D01*
X28488Y-21945D01*
X28108Y-21787D01*
X27696Y-21786D01*
X27316Y-21944D01*
X27024Y-22235D01*
X26866Y-22615D01*
X26866Y-23027D01*
X27023Y-23407D01*
X27071Y-23455D01*
X25428Y-23455D01*
X25428Y-23116D01*
X25415Y-22938D01*
X25372Y-22833D01*
X25287Y-22818D01*
X25216Y-22889D01*
X25216Y-22747D01*
X25202Y-22663D01*
X25033Y-22607D01*
X24856Y-22619D01*
X24750Y-22663D01*
X24736Y-22747D01*
X24976Y-22988D01*
X25216Y-22747D01*
X25216Y-22889D01*
X25047Y-23059D01*
X25287Y-23299D01*
X25372Y-23284D01*
X25428Y-23116D01*
X25428Y-23455D01*
X25201Y-23455D01*
X25202Y-23454D01*
X25216Y-23370D01*
X24976Y-23129D01*
X24970Y-23135D01*
X24900Y-23064D01*
X24905Y-23059D01*
X24665Y-22818D01*
X24580Y-22833D01*
X24560Y-22893D01*
X24471Y-22876D01*
X6422Y-22876D01*
X3266Y-19720D01*
X3266Y-19510D01*
X3180Y-19302D01*
X3021Y-19143D01*
X2814Y-19057D01*
X2589Y-19056D01*
X2381Y-19142D01*
X2222Y-19301D01*
X2136Y-19509D01*
X2136Y-19733D01*
X2222Y-19941D01*
X2380Y-20100D01*
X2588Y-20186D01*
X2799Y-20187D01*
X6052Y-23439D01*
X6052Y-23439D01*
X6159Y-23511D01*
X6159Y-23511D01*
X6285Y-23536D01*
X7779Y-23536D01*
X7779Y-23671D01*
X7847Y-23836D01*
X7972Y-23962D01*
X8137Y-24030D01*
X8314Y-24030D01*
X8479Y-23962D01*
X8589Y-23851D01*
X11876Y-23851D01*
X11876Y-24377D01*
X6308Y-24377D01*
X5819Y-23888D01*
X5712Y-23817D01*
X5614Y-23797D01*
X5493Y-23616D01*
X5290Y-23481D01*
X5051Y-23433D01*
X4812Y-23481D01*
X4652Y-23588D01*
X4638Y-23555D01*
X4568Y-23485D01*
X4476Y-23447D01*
X4381Y-23447D01*
X4381Y-22246D01*
X4356Y-22120D01*
X4356Y-22120D01*
X4284Y-22013D01*
X986Y-18715D01*
X986Y-14285D01*
X2758Y-16057D01*
X2589Y-16056D01*
X2381Y-16142D01*
X2222Y-16301D01*
X2136Y-16509D01*
X2136Y-16733D01*
X2222Y-16941D01*
X2380Y-17100D01*
X2588Y-17186D01*
X2813Y-17187D01*
X3020Y-17101D01*
X3180Y-16942D01*
X3266Y-16734D01*
X3266Y-16510D01*
X3207Y-16366D01*
X5276Y-16366D01*
X5276Y-17096D01*
X5314Y-17188D01*
X5384Y-17258D01*
X5476Y-17297D01*
X5575Y-17297D01*
X6325Y-17297D01*
X6417Y-17259D01*
X6488Y-17188D01*
X6501Y-17155D01*
X6662Y-17262D01*
X6901Y-17310D01*
X7140Y-17262D01*
X7343Y-17127D01*
X7478Y-16924D01*
X7526Y-16685D01*
X7526Y-16558D01*
X7488Y-16366D01*
X15576Y-16366D01*
X15576Y-17096D01*
X15614Y-17188D01*
X15684Y-17258D01*
X15776Y-17297D01*
X15876Y-17297D01*
X16626Y-17297D01*
X16718Y-17259D01*
X16788Y-17188D01*
X16802Y-17155D01*
X16962Y-17262D01*
X17201Y-17310D01*
X17440Y-17262D01*
X17643Y-17127D01*
X17696Y-17048D01*
X18088Y-17440D01*
X18088Y-17440D01*
X18195Y-17512D01*
X18195Y-17512D01*
X18321Y-17537D01*
X24279Y-17537D01*
X24406Y-17512D01*
X24406Y-17512D01*
X24513Y-17440D01*
X24653Y-17300D01*
X24701Y-17310D01*
X24940Y-17262D01*
X25143Y-17127D01*
X25196Y-17048D01*
X25638Y-17490D01*
X25745Y-17562D01*
X25745Y-17562D01*
X25871Y-17587D01*
X31495Y-17587D01*
X31116Y-17744D01*
X30824Y-18035D01*
X30666Y-18415D01*
X30666Y-18827D01*
X30823Y-19207D01*
X31114Y-19498D01*
X31494Y-19656D01*
X31906Y-19657D01*
X32287Y-19499D01*
X32578Y-19209D01*
X32736Y-18828D01*
X32736Y-18417D01*
X32579Y-18036D01*
X32288Y-17745D01*
X31908Y-17587D01*
X31837Y-17587D01*
X32201Y-17587D01*
X32327Y-17562D01*
X32365Y-17537D01*
X39198Y-17537D01*
X39324Y-17512D01*
X39324Y-17512D01*
X39431Y-17440D01*
X39584Y-17287D01*
X39701Y-17310D01*
X39940Y-17262D01*
X40143Y-17127D01*
X40196Y-17048D01*
X40685Y-17537D01*
X40792Y-17609D01*
X40792Y-17609D01*
X40918Y-17634D01*
X46381Y-17634D01*
X46116Y-17744D01*
X45824Y-18035D01*
X45666Y-18415D01*
X45666Y-18827D01*
X45823Y-19207D01*
X46114Y-19498D01*
X46494Y-19656D01*
X46906Y-19657D01*
X47287Y-19499D01*
X47578Y-19209D01*
X47736Y-18828D01*
X47736Y-18417D01*
X47579Y-18036D01*
X47288Y-17745D01*
X47021Y-17634D01*
X47104Y-17634D01*
X47230Y-17609D01*
X47230Y-17609D01*
X47337Y-17537D01*
X47434Y-17440D01*
X47434Y-17440D01*
X47434Y-17440D01*
X47506Y-17333D01*
X47506Y-17333D01*
X47525Y-17237D01*
X49436Y-17237D01*
X49436Y-17237D01*
G37*
G54D27*
X49436Y-17237D02*
X49093Y-17580D01*
X48891Y-18067D01*
X48818Y-18037D01*
X48585Y-18036D01*
X48370Y-18125D01*
X48205Y-18290D01*
X48116Y-18505D01*
X48116Y-18737D01*
X48192Y-18922D01*
X48062Y-18921D01*
X47805Y-19028D01*
X47608Y-19225D01*
X47501Y-19482D01*
X47501Y-19760D01*
X47607Y-20018D01*
X47804Y-20215D01*
X47989Y-20292D01*
X46322Y-20292D01*
X46295Y-20226D01*
X46098Y-20028D01*
X45841Y-19922D01*
X45562Y-19921D01*
X45305Y-20028D01*
X45286Y-20047D01*
X45286Y-18506D01*
X45197Y-18291D01*
X45033Y-18126D01*
X44818Y-18037D01*
X44585Y-18036D01*
X44370Y-18125D01*
X44205Y-18290D01*
X44116Y-18505D01*
X44116Y-18737D01*
X44205Y-18952D01*
X44369Y-19117D01*
X44584Y-19206D01*
X44817Y-19207D01*
X45032Y-19118D01*
X45197Y-18953D01*
X45286Y-18738D01*
X45286Y-18506D01*
X45286Y-20047D01*
X45108Y-20225D01*
X45080Y-20292D01*
X40913Y-20292D01*
X41097Y-20215D01*
X41294Y-20019D01*
X41401Y-19761D01*
X41401Y-19483D01*
X41295Y-19226D01*
X41276Y-19207D01*
X41317Y-19207D01*
X41532Y-19118D01*
X41697Y-18953D01*
X41786Y-18738D01*
X41786Y-18506D01*
X41697Y-18291D01*
X41533Y-18126D01*
X41318Y-18037D01*
X41085Y-18036D01*
X40870Y-18125D01*
X40705Y-18290D01*
X40616Y-18505D01*
X40616Y-18737D01*
X40692Y-18922D01*
X40562Y-18921D01*
X40305Y-19028D01*
X40236Y-19096D01*
X40236Y-18417D01*
X40079Y-18036D01*
X39788Y-17745D01*
X39408Y-17587D01*
X38996Y-17586D01*
X38616Y-17744D01*
X38324Y-18035D01*
X38166Y-18415D01*
X38166Y-18827D01*
X38323Y-19207D01*
X38614Y-19498D01*
X38994Y-19656D01*
X39406Y-19657D01*
X39787Y-19499D01*
X40078Y-19209D01*
X40236Y-18828D01*
X40236Y-18417D01*
X40236Y-19096D01*
X40108Y-19225D01*
X40001Y-19482D01*
X40001Y-19760D01*
X40107Y-20018D01*
X40304Y-20215D01*
X40489Y-20292D01*
X38822Y-20292D01*
X38795Y-20226D01*
X38598Y-20028D01*
X38341Y-19922D01*
X38062Y-19921D01*
X37805Y-20028D01*
X37786Y-20047D01*
X37786Y-18506D01*
X37697Y-18291D01*
X37533Y-18126D01*
X37318Y-18037D01*
X37085Y-18036D01*
X36870Y-18125D01*
X36705Y-18290D01*
X36616Y-18505D01*
X36616Y-18737D01*
X36705Y-18952D01*
X36869Y-19117D01*
X37084Y-19206D01*
X37317Y-19207D01*
X37532Y-19118D01*
X37697Y-18953D01*
X37786Y-18738D01*
X37786Y-18506D01*
X37786Y-20047D01*
X37608Y-20225D01*
X37580Y-20292D01*
X33413Y-20292D01*
X33597Y-20215D01*
X33794Y-20019D01*
X33901Y-19761D01*
X33901Y-19483D01*
X33795Y-19226D01*
X33776Y-19207D01*
X33817Y-19207D01*
X34032Y-19118D01*
X34197Y-18953D01*
X34286Y-18738D01*
X34286Y-18506D01*
X34197Y-18291D01*
X34033Y-18126D01*
X33818Y-18037D01*
X33585Y-18036D01*
X33370Y-18125D01*
X33205Y-18290D01*
X33116Y-18505D01*
X33116Y-18737D01*
X33192Y-18922D01*
X33062Y-18921D01*
X32805Y-19028D01*
X32608Y-19225D01*
X32501Y-19482D01*
X32501Y-19760D01*
X32607Y-20018D01*
X32804Y-20215D01*
X32989Y-20292D01*
X31322Y-20292D01*
X31295Y-20226D01*
X31098Y-20028D01*
X30841Y-19922D01*
X30562Y-19921D01*
X30305Y-20028D01*
X30286Y-20047D01*
X30286Y-18506D01*
X30197Y-18291D01*
X30033Y-18126D01*
X29818Y-18037D01*
X29585Y-18036D01*
X29370Y-18125D01*
X29205Y-18290D01*
X29116Y-18505D01*
X29116Y-18737D01*
X29205Y-18952D01*
X29369Y-19117D01*
X29584Y-19206D01*
X29817Y-19207D01*
X30032Y-19118D01*
X30197Y-18953D01*
X30286Y-18738D01*
X30286Y-18506D01*
X30286Y-20047D01*
X30108Y-20225D01*
X30080Y-20292D01*
X25913Y-20292D01*
X26097Y-20215D01*
X26294Y-20019D01*
X26401Y-19761D01*
X26401Y-19483D01*
X26295Y-19226D01*
X26276Y-19207D01*
X26317Y-19207D01*
X26532Y-19118D01*
X26697Y-18953D01*
X26786Y-18738D01*
X26786Y-18506D01*
X26697Y-18291D01*
X26533Y-18126D01*
X26318Y-18037D01*
X26085Y-18036D01*
X25870Y-18125D01*
X25705Y-18290D01*
X25616Y-18505D01*
X25616Y-18737D01*
X25692Y-18922D01*
X25562Y-18921D01*
X25305Y-19028D01*
X25236Y-19096D01*
X25236Y-18417D01*
X25079Y-18036D01*
X24788Y-17745D01*
X24408Y-17587D01*
X23996Y-17586D01*
X23616Y-17744D01*
X23324Y-18035D01*
X23166Y-18415D01*
X23166Y-18827D01*
X23323Y-19207D01*
X23614Y-19498D01*
X23994Y-19656D01*
X24406Y-19657D01*
X24787Y-19499D01*
X25078Y-19209D01*
X25236Y-18828D01*
X25236Y-18417D01*
X25236Y-19096D01*
X25108Y-19225D01*
X25001Y-19482D01*
X25001Y-19760D01*
X25107Y-20018D01*
X25304Y-20215D01*
X25489Y-20292D01*
X23822Y-20292D01*
X23795Y-20226D01*
X23598Y-20028D01*
X23341Y-19922D01*
X23062Y-19921D01*
X22805Y-20028D01*
X22786Y-20047D01*
X22786Y-18506D01*
X22697Y-18291D01*
X22533Y-18126D01*
X22318Y-18037D01*
X22085Y-18036D01*
X21870Y-18125D01*
X21705Y-18290D01*
X21616Y-18505D01*
X21616Y-18737D01*
X21705Y-18952D01*
X21869Y-19117D01*
X22084Y-19206D01*
X22317Y-19207D01*
X22532Y-19118D01*
X22697Y-18953D01*
X22786Y-18738D01*
X22786Y-18506D01*
X22786Y-20047D01*
X22608Y-20225D01*
X22580Y-20292D01*
X18413Y-20292D01*
X18597Y-20215D01*
X18794Y-20019D01*
X18901Y-19761D01*
X18901Y-19483D01*
X18795Y-19226D01*
X18776Y-19207D01*
X18817Y-19207D01*
X19032Y-19118D01*
X19197Y-18953D01*
X19286Y-18738D01*
X19286Y-18506D01*
X19197Y-18291D01*
X19033Y-18126D01*
X18818Y-18037D01*
X18585Y-18036D01*
X18370Y-18125D01*
X18205Y-18290D01*
X18116Y-18505D01*
X18116Y-18737D01*
X18192Y-18922D01*
X18062Y-18921D01*
X17805Y-19028D01*
X17736Y-19096D01*
X17736Y-18417D01*
X17579Y-18036D01*
X17288Y-17745D01*
X16908Y-17587D01*
X16496Y-17586D01*
X16116Y-17744D01*
X15824Y-18035D01*
X15666Y-18415D01*
X15666Y-18827D01*
X15823Y-19207D01*
X16114Y-19498D01*
X16494Y-19656D01*
X16906Y-19657D01*
X17287Y-19499D01*
X17578Y-19209D01*
X17736Y-18828D01*
X17736Y-18417D01*
X17736Y-19096D01*
X17608Y-19225D01*
X17501Y-19482D01*
X17501Y-19760D01*
X17607Y-20018D01*
X17804Y-20215D01*
X17989Y-20292D01*
X16322Y-20292D01*
X16295Y-20226D01*
X16098Y-20028D01*
X15841Y-19922D01*
X15562Y-19921D01*
X15305Y-20028D01*
X15286Y-20047D01*
X15286Y-18506D01*
X15197Y-18291D01*
X15033Y-18126D01*
X14818Y-18037D01*
X14585Y-18036D01*
X14370Y-18125D01*
X14205Y-18290D01*
X14116Y-18505D01*
X14116Y-18737D01*
X14205Y-18952D01*
X14369Y-19117D01*
X14584Y-19206D01*
X14817Y-19207D01*
X15032Y-19118D01*
X15197Y-18953D01*
X15286Y-18738D01*
X15286Y-18506D01*
X15286Y-20047D01*
X15108Y-20225D01*
X15080Y-20292D01*
X8112Y-20292D01*
X8297Y-20215D01*
X8494Y-20019D01*
X8601Y-19761D01*
X8601Y-19483D01*
X8495Y-19226D01*
X8476Y-19207D01*
X8517Y-19207D01*
X8732Y-19118D01*
X8897Y-18953D01*
X8986Y-18738D01*
X8986Y-18506D01*
X8897Y-18291D01*
X8733Y-18126D01*
X8518Y-18037D01*
X8285Y-18036D01*
X8070Y-18125D01*
X7905Y-18290D01*
X7816Y-18505D01*
X7816Y-18737D01*
X7892Y-18922D01*
X7762Y-18921D01*
X7505Y-19028D01*
X7436Y-19096D01*
X7436Y-18417D01*
X7279Y-18036D01*
X6988Y-17745D01*
X6608Y-17587D01*
X6196Y-17586D01*
X5815Y-17744D01*
X5524Y-18035D01*
X5366Y-18415D01*
X5366Y-18827D01*
X5523Y-19207D01*
X5814Y-19498D01*
X6194Y-19656D01*
X6606Y-19657D01*
X6986Y-19499D01*
X7278Y-19209D01*
X7436Y-18828D01*
X7436Y-18417D01*
X7436Y-19096D01*
X7308Y-19225D01*
X7201Y-19482D01*
X7201Y-19760D01*
X7307Y-20018D01*
X7504Y-20215D01*
X7689Y-20292D01*
X6022Y-20292D01*
X5995Y-20226D01*
X5798Y-20028D01*
X5541Y-19922D01*
X5262Y-19921D01*
X5005Y-20028D01*
X4986Y-20047D01*
X4986Y-18506D01*
X4897Y-18291D01*
X4733Y-18126D01*
X4518Y-18037D01*
X4285Y-18036D01*
X4070Y-18125D01*
X3905Y-18290D01*
X3816Y-18505D01*
X3816Y-18737D01*
X3905Y-18952D01*
X4069Y-19117D01*
X4284Y-19206D01*
X4517Y-19207D01*
X4732Y-19118D01*
X4897Y-18953D01*
X4986Y-18738D01*
X4986Y-18506D01*
X4986Y-20047D01*
X4808Y-20225D01*
X4701Y-20482D01*
X4701Y-20760D01*
X4807Y-21018D01*
X5004Y-21215D01*
X5261Y-21321D01*
X5540Y-21322D01*
X5797Y-21215D01*
X5994Y-21019D01*
X6022Y-20952D01*
X15080Y-20952D01*
X15107Y-21018D01*
X15304Y-21215D01*
X15561Y-21321D01*
X15840Y-21322D01*
X16097Y-21215D01*
X16294Y-21019D01*
X16322Y-20952D01*
X22580Y-20952D01*
X22607Y-21018D01*
X22804Y-21215D01*
X23061Y-21321D01*
X23340Y-21322D01*
X23597Y-21215D01*
X23794Y-21019D01*
X23822Y-20952D01*
X30080Y-20952D01*
X30107Y-21018D01*
X30304Y-21215D01*
X30561Y-21321D01*
X30840Y-21322D01*
X31097Y-21215D01*
X31294Y-21019D01*
X31322Y-20952D01*
X37580Y-20952D01*
X37607Y-21018D01*
X37804Y-21215D01*
X37870Y-21242D01*
X36755Y-21242D01*
X36706Y-21194D01*
X36542Y-21125D01*
X36364Y-21125D01*
X36200Y-21193D01*
X36074Y-21319D01*
X36006Y-21483D01*
X36006Y-21661D01*
X36074Y-21825D01*
X36199Y-21951D01*
X36363Y-22019D01*
X36541Y-22019D01*
X36706Y-21951D01*
X36755Y-21902D01*
X45428Y-21902D01*
X45428Y-22065D01*
X45496Y-22229D01*
X45621Y-22355D01*
X45785Y-22423D01*
X45943Y-22423D01*
X45943Y-22430D01*
X45960Y-22470D01*
X31239Y-22470D01*
X31190Y-22421D01*
X31026Y-22353D01*
X30849Y-22353D01*
X30684Y-22421D01*
X30558Y-22546D01*
X30490Y-22710D01*
X30490Y-22888D01*
X30558Y-23052D01*
X30684Y-23178D01*
X30848Y-23246D01*
X31026Y-23247D01*
X31190Y-23179D01*
X31239Y-23130D01*
X45980Y-23130D01*
X45258Y-23851D01*
X29327Y-23851D01*
X29211Y-23736D01*
X29211Y-23667D01*
X29143Y-23503D01*
X29018Y-23377D01*
X28854Y-23309D01*
X28819Y-23309D01*
X28936Y-23028D01*
X28936Y-22617D01*
X28779Y-22236D01*
X28488Y-21945D01*
X28108Y-21787D01*
X27696Y-21786D01*
X27316Y-21944D01*
X27024Y-22235D01*
X26866Y-22615D01*
X26866Y-23027D01*
X27023Y-23407D01*
X27071Y-23455D01*
X25428Y-23455D01*
X25428Y-23116D01*
X25415Y-22938D01*
X25372Y-22833D01*
X25287Y-22818D01*
X25216Y-22889D01*
X25216Y-22747D01*
X25202Y-22663D01*
X25033Y-22607D01*
X24856Y-22619D01*
X24750Y-22663D01*
X24736Y-22747D01*
X24976Y-22988D01*
X25216Y-22747D01*
X25216Y-22889D01*
X25047Y-23059D01*
X25287Y-23299D01*
X25372Y-23284D01*
X25428Y-23116D01*
X25428Y-23455D01*
X25201Y-23455D01*
X25202Y-23454D01*
X25216Y-23370D01*
X24976Y-23129D01*
X24970Y-23135D01*
X24900Y-23064D01*
X24905Y-23059D01*
X24665Y-22818D01*
X24580Y-22833D01*
X24560Y-22893D01*
X24471Y-22876D01*
X6422Y-22876D01*
X3266Y-19720D01*
X3266Y-19510D01*
X3180Y-19302D01*
X3021Y-19143D01*
X2814Y-19057D01*
X2589Y-19056D01*
X2381Y-19142D01*
X2222Y-19301D01*
X2136Y-19509D01*
X2136Y-19733D01*
X2222Y-19941D01*
X2380Y-20100D01*
X2588Y-20186D01*
X2799Y-20187D01*
X6052Y-23439D01*
X6052Y-23439D01*
X6159Y-23511D01*
X6159Y-23511D01*
X6285Y-23536D01*
X7779Y-23536D01*
X7779Y-23671D01*
X7847Y-23836D01*
X7972Y-23962D01*
X8137Y-24030D01*
X8314Y-24030D01*
X8479Y-23962D01*
X8589Y-23851D01*
X11876Y-23851D01*
X11876Y-24377D01*
X6308Y-24377D01*
X5819Y-23888D01*
X5712Y-23817D01*
X5614Y-23797D01*
X5493Y-23616D01*
X5290Y-23481D01*
X5051Y-23433D01*
X4812Y-23481D01*
X4652Y-23588D01*
X4638Y-23555D01*
X4568Y-23485D01*
X4476Y-23447D01*
X4381Y-23447D01*
X4381Y-22246D01*
X4356Y-22120D01*
X4356Y-22120D01*
X4284Y-22013D01*
X986Y-18715D01*
X986Y-14285D01*
X2758Y-16057D01*
X2589Y-16056D01*
X2381Y-16142D01*
X2222Y-16301D01*
X2136Y-16509D01*
X2136Y-16733D01*
X2222Y-16941D01*
X2380Y-17100D01*
X2588Y-17186D01*
X2813Y-17187D01*
X3020Y-17101D01*
X3180Y-16942D01*
X3266Y-16734D01*
X3266Y-16510D01*
X3207Y-16366D01*
X5276Y-16366D01*
X5276Y-17096D01*
X5314Y-17188D01*
X5384Y-17258D01*
X5476Y-17297D01*
X5575Y-17297D01*
X6325Y-17297D01*
X6417Y-17259D01*
X6488Y-17188D01*
X6501Y-17155D01*
X6662Y-17262D01*
X6901Y-17310D01*
X7140Y-17262D01*
X7343Y-17127D01*
X7478Y-16924D01*
X7526Y-16685D01*
X7526Y-16558D01*
X7488Y-16366D01*
X15576Y-16366D01*
X15576Y-17096D01*
X15614Y-17188D01*
X15684Y-17258D01*
X15776Y-17297D01*
X15876Y-17297D01*
X16626Y-17297D01*
X16718Y-17259D01*
X16788Y-17188D01*
X16802Y-17155D01*
X16962Y-17262D01*
X17201Y-17310D01*
X17440Y-17262D01*
X17643Y-17127D01*
X17696Y-17048D01*
X18088Y-17440D01*
X18088Y-17440D01*
X18195Y-17512D01*
X18195Y-17512D01*
X18321Y-17537D01*
X24279Y-17537D01*
X24406Y-17512D01*
X24406Y-17512D01*
X24513Y-17440D01*
X24653Y-17300D01*
X24701Y-17310D01*
X24940Y-17262D01*
X25143Y-17127D01*
X25196Y-17048D01*
X25638Y-17490D01*
X25745Y-17562D01*
X25745Y-17562D01*
X25871Y-17587D01*
X31495Y-17587D01*
X31116Y-17744D01*
X30824Y-18035D01*
X30666Y-18415D01*
X30666Y-18827D01*
X30823Y-19207D01*
X31114Y-19498D01*
X31494Y-19656D01*
X31906Y-19657D01*
X32287Y-19499D01*
X32578Y-19209D01*
X32736Y-18828D01*
X32736Y-18417D01*
X32579Y-18036D01*
X32288Y-17745D01*
X31908Y-17587D01*
X31837Y-17587D01*
X32201Y-17587D01*
X32327Y-17562D01*
X32365Y-17537D01*
X39198Y-17537D01*
X39324Y-17512D01*
X39324Y-17512D01*
X39431Y-17440D01*
X39584Y-17287D01*
X39701Y-17310D01*
X39940Y-17262D01*
X40143Y-17127D01*
X40196Y-17048D01*
X40685Y-17537D01*
X40792Y-17609D01*
X40792Y-17609D01*
X40918Y-17634D01*
X46381Y-17634D01*
X46116Y-17744D01*
X45824Y-18035D01*
X45666Y-18415D01*
X45666Y-18827D01*
X45823Y-19207D01*
X46114Y-19498D01*
X46494Y-19656D01*
X46906Y-19657D01*
X47287Y-19499D01*
X47578Y-19209D01*
X47736Y-18828D01*
X47736Y-18417D01*
X47579Y-18036D01*
X47288Y-17745D01*
X47021Y-17634D01*
X47104Y-17634D01*
X47230Y-17609D01*
X47230Y-17609D01*
X47337Y-17537D01*
X47434Y-17440D01*
X47434Y-17440D01*
X47434Y-17440D01*
X47506Y-17333D01*
X47506Y-17333D01*
X47525Y-17237D01*
X49436Y-17237D01*
G54D10*
G36*
X54911Y-28259D02*
X54169Y-29000D01*
X38684Y-29000D01*
X38720Y-28903D01*
X38710Y-28663D01*
X38637Y-28488D01*
X38536Y-28454D01*
X38581Y-28409D01*
X38551Y-28378D01*
X45950Y-28378D01*
X46007Y-28518D01*
X46204Y-28715D01*
X46461Y-28821D01*
X46740Y-28822D01*
X46997Y-28715D01*
X47194Y-28519D01*
X47301Y-28261D01*
X47301Y-28259D01*
X54911Y-28259D01*
X54911Y-28259D01*
G37*
G54D27*
X54911Y-28259D02*
X54169Y-29000D01*
X38684Y-29000D01*
X38720Y-28903D01*
X38710Y-28663D01*
X38637Y-28488D01*
X38536Y-28454D01*
X38581Y-28409D01*
X38551Y-28378D01*
X45950Y-28378D01*
X46007Y-28518D01*
X46204Y-28715D01*
X46461Y-28821D01*
X46740Y-28822D01*
X46997Y-28715D01*
X47194Y-28519D01*
X47301Y-28261D01*
X47301Y-28259D01*
X54911Y-28259D01*
G54D10*
G36*
X66844Y-29552D02*
X63648Y-29552D01*
X63648Y-29440D01*
X63580Y-29276D01*
X63454Y-29150D01*
X63290Y-29082D01*
X63112Y-29082D01*
X62948Y-29150D01*
X62899Y-29199D01*
X61601Y-29199D01*
X62448Y-28351D01*
X66576Y-28351D01*
X66451Y-28652D01*
X66451Y-28990D01*
X66580Y-29302D01*
X66819Y-29542D01*
X66844Y-29552D01*
X66844Y-29552D01*
G37*
G54D27*
X66844Y-29552D02*
X63648Y-29552D01*
X63648Y-29440D01*
X63580Y-29276D01*
X63454Y-29150D01*
X63290Y-29082D01*
X63112Y-29082D01*
X62948Y-29150D01*
X62899Y-29199D01*
X61601Y-29199D01*
X62448Y-28351D01*
X66576Y-28351D01*
X66451Y-28652D01*
X66451Y-28990D01*
X66580Y-29302D01*
X66819Y-29542D01*
X66844Y-29552D01*
G54D10*
G36*
X89106Y-18515D02*
X88253Y-19367D01*
X88195Y-19226D01*
X88176Y-19207D01*
X88217Y-19207D01*
X88432Y-19118D01*
X88597Y-18953D01*
X88686Y-18738D01*
X88686Y-18506D01*
X88597Y-18291D01*
X88433Y-18126D01*
X88218Y-18037D01*
X87985Y-18036D01*
X87770Y-18125D01*
X87651Y-18244D01*
X87533Y-18126D01*
X87318Y-18037D01*
X87085Y-18036D01*
X86995Y-18074D01*
X86979Y-18036D01*
X86733Y-17790D01*
X88749Y-15774D01*
X88821Y-15667D01*
X88821Y-15667D01*
X88846Y-15541D01*
X88846Y-15519D01*
X88853Y-15521D01*
X88926Y-15458D01*
X88926Y-15109D01*
X88918Y-15109D01*
X88918Y-15019D01*
X89034Y-15019D01*
X89034Y-15109D01*
X89026Y-15109D01*
X89026Y-15458D01*
X89099Y-15521D01*
X89106Y-15519D01*
X89106Y-18515D01*
X89106Y-18515D01*
G37*
G54D27*
X89106Y-18515D02*
X88253Y-19367D01*
X88195Y-19226D01*
X88176Y-19207D01*
X88217Y-19207D01*
X88432Y-19118D01*
X88597Y-18953D01*
X88686Y-18738D01*
X88686Y-18506D01*
X88597Y-18291D01*
X88433Y-18126D01*
X88218Y-18037D01*
X87985Y-18036D01*
X87770Y-18125D01*
X87651Y-18244D01*
X87533Y-18126D01*
X87318Y-18037D01*
X87085Y-18036D01*
X86995Y-18074D01*
X86979Y-18036D01*
X86733Y-17790D01*
X88749Y-15774D01*
X88821Y-15667D01*
X88821Y-15667D01*
X88846Y-15541D01*
X88846Y-15519D01*
X88853Y-15521D01*
X88926Y-15458D01*
X88926Y-15109D01*
X88918Y-15109D01*
X88918Y-15019D01*
X89034Y-15019D01*
X89034Y-15109D01*
X89026Y-15109D01*
X89026Y-15458D01*
X89099Y-15521D01*
X89106Y-15519D01*
X89106Y-18515D01*
G54D10*
G36*
X89481Y-7477D02*
X89440Y-7436D01*
X89333Y-7365D01*
X89207Y-7340D01*
X88686Y-7340D01*
X88686Y-3506D01*
X88597Y-3291D01*
X88433Y-3126D01*
X88218Y-3037D01*
X87985Y-3036D01*
X87770Y-3125D01*
X87605Y-3290D01*
X87516Y-3505D01*
X87516Y-3737D01*
X87592Y-3922D01*
X87462Y-3921D01*
X87226Y-4019D01*
X87226Y-1685D01*
X87226Y-1558D01*
X87178Y-1319D01*
X87043Y-1116D01*
X86840Y-981D01*
X86601Y-933D01*
X86362Y-981D01*
X86202Y-1088D01*
X86188Y-1055D01*
X86118Y-985D01*
X86026Y-947D01*
X85927Y-947D01*
X85177Y-947D01*
X85085Y-984D01*
X85014Y-1055D01*
X84976Y-1147D01*
X84976Y-1246D01*
X84976Y-1309D01*
X84940Y-1317D01*
X84833Y-1388D01*
X84833Y-1388D01*
X83944Y-2277D01*
X79268Y-2277D01*
X79340Y-2262D01*
X79543Y-2127D01*
X79678Y-1924D01*
X79726Y-1685D01*
X79726Y-1558D01*
X79678Y-1319D01*
X79543Y-1116D01*
X79431Y-1042D01*
X79431Y-1036D01*
X79406Y-910D01*
X79334Y-803D01*
X79227Y-732D01*
X79101Y-706D01*
X72721Y-706D01*
X72595Y-732D01*
X72488Y-803D01*
X72096Y-1195D01*
X72043Y-1116D01*
X71840Y-981D01*
X71601Y-933D01*
X71362Y-981D01*
X71202Y-1088D01*
X71188Y-1055D01*
X71118Y-985D01*
X71026Y-947D01*
X70927Y-947D01*
X70177Y-947D01*
X70085Y-984D01*
X70014Y-1055D01*
X70000Y-1089D01*
X69710Y-799D01*
X69603Y-728D01*
X69477Y-703D01*
X61435Y-703D01*
X61309Y-728D01*
X61202Y-799D01*
X60435Y-1566D01*
X60437Y-1559D01*
X60402Y-1383D01*
X60302Y-1233D01*
X60153Y-1134D01*
X59977Y-1099D01*
X59775Y-1099D01*
X59599Y-1134D01*
X59450Y-1233D01*
X59350Y-1383D01*
X59315Y-1559D01*
X59350Y-1735D01*
X59400Y-1809D01*
X59350Y-1883D01*
X59315Y-2059D01*
X59350Y-2235D01*
X59400Y-2309D01*
X59350Y-2383D01*
X59315Y-2559D01*
X59350Y-2735D01*
X59400Y-2809D01*
X59350Y-2883D01*
X59315Y-3059D01*
X59350Y-3235D01*
X59450Y-3384D01*
X59599Y-3484D01*
X59775Y-3519D01*
X59977Y-3519D01*
X60153Y-3484D01*
X60295Y-3389D01*
X61064Y-3389D01*
X61016Y-3505D01*
X61016Y-3737D01*
X61105Y-3952D01*
X61269Y-4117D01*
X61484Y-4206D01*
X61717Y-4207D01*
X61932Y-4118D01*
X62097Y-3953D01*
X62186Y-3738D01*
X62186Y-3506D01*
X62097Y-3291D01*
X61933Y-3126D01*
X61825Y-3081D01*
X61970Y-2937D01*
X62822Y-2937D01*
X62724Y-3035D01*
X62566Y-3415D01*
X62566Y-3827D01*
X62723Y-4207D01*
X63014Y-4498D01*
X63394Y-4656D01*
X63806Y-4657D01*
X64187Y-4499D01*
X64478Y-4209D01*
X64636Y-3828D01*
X64636Y-3417D01*
X64479Y-3036D01*
X64380Y-2937D01*
X70322Y-2937D01*
X70224Y-3035D01*
X70066Y-3415D01*
X70066Y-3827D01*
X70223Y-4207D01*
X70514Y-4498D01*
X70894Y-4656D01*
X71306Y-4657D01*
X71687Y-4499D01*
X71978Y-4209D01*
X72136Y-3828D01*
X72136Y-3417D01*
X71979Y-3036D01*
X71880Y-2937D01*
X77822Y-2937D01*
X77724Y-3035D01*
X77566Y-3415D01*
X77566Y-3827D01*
X77723Y-4207D01*
X78014Y-4498D01*
X78394Y-4656D01*
X78806Y-4657D01*
X79187Y-4499D01*
X79478Y-4209D01*
X79636Y-3828D01*
X79636Y-3417D01*
X79479Y-3036D01*
X79380Y-2937D01*
X84081Y-2937D01*
X84207Y-2912D01*
X84207Y-2912D01*
X84314Y-2840D01*
X85000Y-2154D01*
X85014Y-2188D01*
X85084Y-2258D01*
X85176Y-2297D01*
X85276Y-2297D01*
X86026Y-2297D01*
X86118Y-2259D01*
X86188Y-2188D01*
X86202Y-2155D01*
X86362Y-2262D01*
X86601Y-2310D01*
X86840Y-2262D01*
X87043Y-2127D01*
X87178Y-1924D01*
X87226Y-1685D01*
X87226Y-4019D01*
X87205Y-4028D01*
X87136Y-4096D01*
X87136Y-3417D01*
X86979Y-3036D01*
X86688Y-2745D01*
X86308Y-2587D01*
X85896Y-2586D01*
X85516Y-2744D01*
X85224Y-3035D01*
X85066Y-3415D01*
X85066Y-3827D01*
X85223Y-4207D01*
X85514Y-4498D01*
X85894Y-4656D01*
X86306Y-4657D01*
X86687Y-4499D01*
X86978Y-4209D01*
X87136Y-3828D01*
X87136Y-3417D01*
X87136Y-4096D01*
X87008Y-4225D01*
X86901Y-4482D01*
X86901Y-4760D01*
X87007Y-5018D01*
X87204Y-5215D01*
X87461Y-5321D01*
X87740Y-5322D01*
X87997Y-5215D01*
X88194Y-5019D01*
X88301Y-4761D01*
X88301Y-4483D01*
X88195Y-4226D01*
X88176Y-4207D01*
X88217Y-4207D01*
X88432Y-4118D01*
X88597Y-3953D01*
X88686Y-3738D01*
X88686Y-3506D01*
X88686Y-7340D01*
X53549Y-7340D01*
X53549Y-7340D01*
X53524Y-7345D01*
X53423Y-7365D01*
X53316Y-7436D01*
X53316Y-7436D01*
X53316Y-7436D01*
X52606Y-8146D01*
X50587Y-8146D01*
X50620Y-8067D01*
X50620Y-7889D01*
X50552Y-7725D01*
X50505Y-7678D01*
X50632Y-7678D01*
X50796Y-7610D01*
X50922Y-7485D01*
X50990Y-7321D01*
X50990Y-7143D01*
X50922Y-6979D01*
X50797Y-6853D01*
X50632Y-6785D01*
X50455Y-6784D01*
X50290Y-6852D01*
X50241Y-6901D01*
X20079Y-6901D01*
X19130Y-5952D01*
X24480Y-5952D01*
X24507Y-6018D01*
X24704Y-6215D01*
X24961Y-6321D01*
X25240Y-6322D01*
X25497Y-6215D01*
X25694Y-6019D01*
X25722Y-5952D01*
X31980Y-5952D01*
X32007Y-6018D01*
X32204Y-6215D01*
X32461Y-6321D01*
X32740Y-6322D01*
X32997Y-6215D01*
X33194Y-6019D01*
X33222Y-5952D01*
X39480Y-5952D01*
X39507Y-6018D01*
X39704Y-6215D01*
X39961Y-6321D01*
X40240Y-6322D01*
X40497Y-6215D01*
X40694Y-6019D01*
X40722Y-5952D01*
X46980Y-5952D01*
X47007Y-6018D01*
X47204Y-6215D01*
X47461Y-6321D01*
X47740Y-6322D01*
X47997Y-6215D01*
X48194Y-6019D01*
X48222Y-5952D01*
X54480Y-5952D01*
X54507Y-6018D01*
X54704Y-6215D01*
X54961Y-6321D01*
X55240Y-6322D01*
X55497Y-6215D01*
X55694Y-6019D01*
X55722Y-5952D01*
X61980Y-5952D01*
X62007Y-6018D01*
X62204Y-6215D01*
X62461Y-6321D01*
X62740Y-6322D01*
X62997Y-6215D01*
X63194Y-6019D01*
X63222Y-5952D01*
X69480Y-5952D01*
X69507Y-6018D01*
X69704Y-6215D01*
X69961Y-6321D01*
X70240Y-6322D01*
X70497Y-6215D01*
X70694Y-6019D01*
X70722Y-5952D01*
X76980Y-5952D01*
X77007Y-6018D01*
X77204Y-6215D01*
X77461Y-6321D01*
X77740Y-6322D01*
X77997Y-6215D01*
X78194Y-6019D01*
X78222Y-5952D01*
X84480Y-5952D01*
X84507Y-6018D01*
X84704Y-6215D01*
X84961Y-6321D01*
X85240Y-6322D01*
X85497Y-6215D01*
X85694Y-6019D01*
X85801Y-5761D01*
X85801Y-5483D01*
X85695Y-5226D01*
X85498Y-5028D01*
X85241Y-4922D01*
X84962Y-4921D01*
X84705Y-5028D01*
X84686Y-5047D01*
X84686Y-3506D01*
X84597Y-3291D01*
X84433Y-3126D01*
X84218Y-3037D01*
X83985Y-3036D01*
X83770Y-3125D01*
X83605Y-3290D01*
X83516Y-3505D01*
X83516Y-3737D01*
X83605Y-3952D01*
X83769Y-4117D01*
X83984Y-4206D01*
X84217Y-4207D01*
X84432Y-4118D01*
X84597Y-3953D01*
X84686Y-3738D01*
X84686Y-3506D01*
X84686Y-5047D01*
X84508Y-5225D01*
X84480Y-5292D01*
X80313Y-5292D01*
X80497Y-5215D01*
X80694Y-5019D01*
X80801Y-4761D01*
X80801Y-4483D01*
X80695Y-4226D01*
X80676Y-4207D01*
X80717Y-4207D01*
X80932Y-4118D01*
X81097Y-3953D01*
X81186Y-3738D01*
X81186Y-3506D01*
X81097Y-3291D01*
X80933Y-3126D01*
X80718Y-3037D01*
X80485Y-3036D01*
X80270Y-3125D01*
X80105Y-3290D01*
X80016Y-3505D01*
X80016Y-3737D01*
X80092Y-3922D01*
X79962Y-3921D01*
X79705Y-4028D01*
X79508Y-4225D01*
X79401Y-4482D01*
X79401Y-4760D01*
X79507Y-5018D01*
X79704Y-5215D01*
X79889Y-5292D01*
X78222Y-5292D01*
X78195Y-5226D01*
X77998Y-5028D01*
X77741Y-4922D01*
X77462Y-4921D01*
X77205Y-5028D01*
X77186Y-5047D01*
X77186Y-3506D01*
X77097Y-3291D01*
X76933Y-3126D01*
X76718Y-3037D01*
X76485Y-3036D01*
X76270Y-3125D01*
X76105Y-3290D01*
X76016Y-3505D01*
X76016Y-3737D01*
X76105Y-3952D01*
X76269Y-4117D01*
X76484Y-4206D01*
X76717Y-4207D01*
X76932Y-4118D01*
X77097Y-3953D01*
X77186Y-3738D01*
X77186Y-3506D01*
X77186Y-5047D01*
X77008Y-5225D01*
X76980Y-5292D01*
X72813Y-5292D01*
X72997Y-5215D01*
X73194Y-5019D01*
X73301Y-4761D01*
X73301Y-4483D01*
X73195Y-4226D01*
X73176Y-4207D01*
X73217Y-4207D01*
X73432Y-4118D01*
X73597Y-3953D01*
X73686Y-3738D01*
X73686Y-3506D01*
X73597Y-3291D01*
X73433Y-3126D01*
X73218Y-3037D01*
X72985Y-3036D01*
X72770Y-3125D01*
X72605Y-3290D01*
X72516Y-3505D01*
X72516Y-3737D01*
X72592Y-3922D01*
X72462Y-3921D01*
X72205Y-4028D01*
X72008Y-4225D01*
X71901Y-4482D01*
X71901Y-4760D01*
X72007Y-5018D01*
X72204Y-5215D01*
X72389Y-5292D01*
X70722Y-5292D01*
X70695Y-5226D01*
X70498Y-5028D01*
X70241Y-4922D01*
X69962Y-4921D01*
X69705Y-5028D01*
X69686Y-5047D01*
X69686Y-3506D01*
X69597Y-3291D01*
X69433Y-3126D01*
X69218Y-3037D01*
X68985Y-3036D01*
X68770Y-3125D01*
X68605Y-3290D01*
X68516Y-3505D01*
X68516Y-3737D01*
X68605Y-3952D01*
X68769Y-4117D01*
X68984Y-4206D01*
X69217Y-4207D01*
X69432Y-4118D01*
X69597Y-3953D01*
X69686Y-3738D01*
X69686Y-3506D01*
X69686Y-5047D01*
X69508Y-5225D01*
X69480Y-5292D01*
X65313Y-5292D01*
X65497Y-5215D01*
X65694Y-5019D01*
X65801Y-4761D01*
X65801Y-4483D01*
X65695Y-4226D01*
X65676Y-4207D01*
X65717Y-4207D01*
X65932Y-4118D01*
X66097Y-3953D01*
X66186Y-3738D01*
X66186Y-3506D01*
X66097Y-3291D01*
X65933Y-3126D01*
X65718Y-3037D01*
X65485Y-3036D01*
X65270Y-3125D01*
X65105Y-3290D01*
X65016Y-3505D01*
X65016Y-3737D01*
X65092Y-3922D01*
X64962Y-3921D01*
X64705Y-4028D01*
X64508Y-4225D01*
X64401Y-4482D01*
X64401Y-4760D01*
X64507Y-5018D01*
X64704Y-5215D01*
X64889Y-5292D01*
X63222Y-5292D01*
X63195Y-5226D01*
X62998Y-5028D01*
X62741Y-4922D01*
X62462Y-4921D01*
X62205Y-5028D01*
X62008Y-5225D01*
X61980Y-5292D01*
X57813Y-5292D01*
X57997Y-5215D01*
X58194Y-5019D01*
X58301Y-4761D01*
X58301Y-4483D01*
X58195Y-4226D01*
X58176Y-4207D01*
X58217Y-4207D01*
X58432Y-4118D01*
X58597Y-3953D01*
X58686Y-3738D01*
X58686Y-3506D01*
X58597Y-3291D01*
X58433Y-3126D01*
X58218Y-3037D01*
X57985Y-3036D01*
X57770Y-3125D01*
X57605Y-3290D01*
X57516Y-3505D01*
X57516Y-3737D01*
X57592Y-3922D01*
X57462Y-3921D01*
X57226Y-4019D01*
X57226Y-1685D01*
X57226Y-1558D01*
X57178Y-1319D01*
X57043Y-1116D01*
X56931Y-1042D01*
X56931Y-1036D01*
X56906Y-910D01*
X56834Y-803D01*
X56727Y-732D01*
X56601Y-706D01*
X50221Y-706D01*
X50095Y-732D01*
X49988Y-803D01*
X49596Y-1195D01*
X49543Y-1116D01*
X49340Y-981D01*
X49101Y-933D01*
X48862Y-981D01*
X48702Y-1088D01*
X48688Y-1055D01*
X48618Y-985D01*
X48526Y-947D01*
X48427Y-947D01*
X47677Y-947D01*
X47585Y-984D01*
X47514Y-1055D01*
X47476Y-1147D01*
X47476Y-1246D01*
X47476Y-2096D01*
X47514Y-2188D01*
X47584Y-2258D01*
X47676Y-2297D01*
X47776Y-2297D01*
X48309Y-2297D01*
X48599Y-2587D01*
X48396Y-2586D01*
X48016Y-2744D01*
X47724Y-3035D01*
X47566Y-3415D01*
X47566Y-3827D01*
X47723Y-4207D01*
X48014Y-4498D01*
X48394Y-4656D01*
X48806Y-4657D01*
X49187Y-4499D01*
X49478Y-4209D01*
X49636Y-3828D01*
X49636Y-3417D01*
X49479Y-3036D01*
X49332Y-2889D01*
X51949Y-2889D01*
X51915Y-3059D01*
X51950Y-3235D01*
X52050Y-3384D01*
X52199Y-3484D01*
X52375Y-3519D01*
X52577Y-3519D01*
X52753Y-3484D01*
X52902Y-3384D01*
X53002Y-3235D01*
X53037Y-3059D01*
X53002Y-2883D01*
X52952Y-2809D01*
X53002Y-2735D01*
X53037Y-2559D01*
X53002Y-2383D01*
X52952Y-2309D01*
X53002Y-2235D01*
X53037Y-2059D01*
X53002Y-1883D01*
X52952Y-1809D01*
X53002Y-1735D01*
X53037Y-1559D01*
X53002Y-1383D01*
X52991Y-1366D01*
X54976Y-1366D01*
X54976Y-2096D01*
X55014Y-2188D01*
X55084Y-2258D01*
X55176Y-2297D01*
X55276Y-2297D01*
X56026Y-2297D01*
X56118Y-2259D01*
X56188Y-2188D01*
X56202Y-2155D01*
X56362Y-2262D01*
X56601Y-2310D01*
X56840Y-2262D01*
X57043Y-2127D01*
X57178Y-1924D01*
X57226Y-1685D01*
X57226Y-4019D01*
X57205Y-4028D01*
X57136Y-4096D01*
X57136Y-3417D01*
X56979Y-3036D01*
X56688Y-2745D01*
X56308Y-2587D01*
X55896Y-2586D01*
X55516Y-2744D01*
X55224Y-3035D01*
X55066Y-3415D01*
X55066Y-3827D01*
X55223Y-4207D01*
X55514Y-4498D01*
X55894Y-4656D01*
X56306Y-4657D01*
X56687Y-4499D01*
X56978Y-4209D01*
X57136Y-3828D01*
X57136Y-3417D01*
X57136Y-4096D01*
X57008Y-4225D01*
X56901Y-4482D01*
X56901Y-4760D01*
X57007Y-5018D01*
X57204Y-5215D01*
X57389Y-5292D01*
X55722Y-5292D01*
X55695Y-5226D01*
X55498Y-5028D01*
X55241Y-4922D01*
X54962Y-4921D01*
X54705Y-5028D01*
X54686Y-5047D01*
X54686Y-3506D01*
X54597Y-3291D01*
X54433Y-3126D01*
X54218Y-3037D01*
X53985Y-3036D01*
X53770Y-3125D01*
X53605Y-3290D01*
X53516Y-3505D01*
X53516Y-3737D01*
X53605Y-3952D01*
X53769Y-4117D01*
X53984Y-4206D01*
X54217Y-4207D01*
X54432Y-4118D01*
X54597Y-3953D01*
X54686Y-3738D01*
X54686Y-3506D01*
X54686Y-5047D01*
X54508Y-5225D01*
X54480Y-5292D01*
X50313Y-5292D01*
X50497Y-5215D01*
X50694Y-5019D01*
X50801Y-4761D01*
X50801Y-4483D01*
X50695Y-4226D01*
X50676Y-4207D01*
X50717Y-4207D01*
X50932Y-4118D01*
X51097Y-3953D01*
X51186Y-3738D01*
X51186Y-3506D01*
X51097Y-3291D01*
X50933Y-3126D01*
X50718Y-3037D01*
X50485Y-3036D01*
X50270Y-3125D01*
X50105Y-3290D01*
X50016Y-3505D01*
X50016Y-3737D01*
X50092Y-3922D01*
X49962Y-3921D01*
X49705Y-4028D01*
X49508Y-4225D01*
X49401Y-4482D01*
X49401Y-4760D01*
X49507Y-5018D01*
X49704Y-5215D01*
X49889Y-5292D01*
X48222Y-5292D01*
X48195Y-5226D01*
X47998Y-5028D01*
X47741Y-4922D01*
X47462Y-4921D01*
X47205Y-5028D01*
X47186Y-5047D01*
X47186Y-3506D01*
X47097Y-3291D01*
X46933Y-3126D01*
X46718Y-3037D01*
X46485Y-3036D01*
X46270Y-3125D01*
X46105Y-3290D01*
X46016Y-3505D01*
X46016Y-3737D01*
X46105Y-3952D01*
X46269Y-4117D01*
X46484Y-4206D01*
X46717Y-4207D01*
X46932Y-4118D01*
X47097Y-3953D01*
X47186Y-3738D01*
X47186Y-3506D01*
X47186Y-5047D01*
X47008Y-5225D01*
X46980Y-5292D01*
X43729Y-5292D01*
X45569Y-3451D01*
X45569Y-3451D01*
X45569Y-3451D01*
X45641Y-3344D01*
X45641Y-3344D01*
X45666Y-3217D01*
X45666Y-3217D01*
X45666Y-1559D01*
X45641Y-1432D01*
X45569Y-1325D01*
X45462Y-1254D01*
X45336Y-1229D01*
X45295Y-1229D01*
X45153Y-1134D01*
X44977Y-1099D01*
X44775Y-1099D01*
X44599Y-1134D01*
X44450Y-1233D01*
X44350Y-1383D01*
X44315Y-1559D01*
X44349Y-1729D01*
X44205Y-1729D01*
X43034Y-558D01*
X42927Y-487D01*
X42801Y-461D01*
X30313Y-461D01*
X30328Y-416D01*
X30316Y-241D01*
X88957Y-241D01*
X88949Y-264D01*
X88962Y-442D01*
X89005Y-547D01*
X89090Y-562D01*
X89330Y-322D01*
X89325Y-316D01*
X89396Y-245D01*
X89401Y-251D01*
X89407Y-245D01*
X89477Y-316D01*
X89472Y-322D01*
X89477Y-327D01*
X89407Y-398D01*
X89401Y-392D01*
X89161Y-633D01*
X89175Y-717D01*
X89344Y-774D01*
X89481Y-764D01*
X89481Y-7477D01*
X89481Y-7477D01*
G37*
G54D27*
X89481Y-7477D02*
X89440Y-7436D01*
X89333Y-7365D01*
X89207Y-7340D01*
X88686Y-7340D01*
X88686Y-3506D01*
X88597Y-3291D01*
X88433Y-3126D01*
X88218Y-3037D01*
X87985Y-3036D01*
X87770Y-3125D01*
X87605Y-3290D01*
X87516Y-3505D01*
X87516Y-3737D01*
X87592Y-3922D01*
X87462Y-3921D01*
X87226Y-4019D01*
X87226Y-1685D01*
X87226Y-1558D01*
X87178Y-1319D01*
X87043Y-1116D01*
X86840Y-981D01*
X86601Y-933D01*
X86362Y-981D01*
X86202Y-1088D01*
X86188Y-1055D01*
X86118Y-985D01*
X86026Y-947D01*
X85927Y-947D01*
X85177Y-947D01*
X85085Y-984D01*
X85014Y-1055D01*
X84976Y-1147D01*
X84976Y-1246D01*
X84976Y-1309D01*
X84940Y-1317D01*
X84833Y-1388D01*
X84833Y-1388D01*
X83944Y-2277D01*
X79268Y-2277D01*
X79340Y-2262D01*
X79543Y-2127D01*
X79678Y-1924D01*
X79726Y-1685D01*
X79726Y-1558D01*
X79678Y-1319D01*
X79543Y-1116D01*
X79431Y-1042D01*
X79431Y-1036D01*
X79406Y-910D01*
X79334Y-803D01*
X79227Y-732D01*
X79101Y-706D01*
X72721Y-706D01*
X72595Y-732D01*
X72488Y-803D01*
X72096Y-1195D01*
X72043Y-1116D01*
X71840Y-981D01*
X71601Y-933D01*
X71362Y-981D01*
X71202Y-1088D01*
X71188Y-1055D01*
X71118Y-985D01*
X71026Y-947D01*
X70927Y-947D01*
X70177Y-947D01*
X70085Y-984D01*
X70014Y-1055D01*
X70000Y-1089D01*
X69710Y-799D01*
X69603Y-728D01*
X69477Y-703D01*
X61435Y-703D01*
X61309Y-728D01*
X61202Y-799D01*
X60435Y-1566D01*
X60437Y-1559D01*
X60402Y-1383D01*
X60302Y-1233D01*
X60153Y-1134D01*
X59977Y-1099D01*
X59775Y-1099D01*
X59599Y-1134D01*
X59450Y-1233D01*
X59350Y-1383D01*
X59315Y-1559D01*
X59350Y-1735D01*
X59400Y-1809D01*
X59350Y-1883D01*
X59315Y-2059D01*
X59350Y-2235D01*
X59400Y-2309D01*
X59350Y-2383D01*
X59315Y-2559D01*
X59350Y-2735D01*
X59400Y-2809D01*
X59350Y-2883D01*
X59315Y-3059D01*
X59350Y-3235D01*
X59450Y-3384D01*
X59599Y-3484D01*
X59775Y-3519D01*
X59977Y-3519D01*
X60153Y-3484D01*
X60295Y-3389D01*
X61064Y-3389D01*
X61016Y-3505D01*
X61016Y-3737D01*
X61105Y-3952D01*
X61269Y-4117D01*
X61484Y-4206D01*
X61717Y-4207D01*
X61932Y-4118D01*
X62097Y-3953D01*
X62186Y-3738D01*
X62186Y-3506D01*
X62097Y-3291D01*
X61933Y-3126D01*
X61825Y-3081D01*
X61970Y-2937D01*
X62822Y-2937D01*
X62724Y-3035D01*
X62566Y-3415D01*
X62566Y-3827D01*
X62723Y-4207D01*
X63014Y-4498D01*
X63394Y-4656D01*
X63806Y-4657D01*
X64187Y-4499D01*
X64478Y-4209D01*
X64636Y-3828D01*
X64636Y-3417D01*
X64479Y-3036D01*
X64380Y-2937D01*
X70322Y-2937D01*
X70224Y-3035D01*
X70066Y-3415D01*
X70066Y-3827D01*
X70223Y-4207D01*
X70514Y-4498D01*
X70894Y-4656D01*
X71306Y-4657D01*
X71687Y-4499D01*
X71978Y-4209D01*
X72136Y-3828D01*
X72136Y-3417D01*
X71979Y-3036D01*
X71880Y-2937D01*
X77822Y-2937D01*
X77724Y-3035D01*
X77566Y-3415D01*
X77566Y-3827D01*
X77723Y-4207D01*
X78014Y-4498D01*
X78394Y-4656D01*
X78806Y-4657D01*
X79187Y-4499D01*
X79478Y-4209D01*
X79636Y-3828D01*
X79636Y-3417D01*
X79479Y-3036D01*
X79380Y-2937D01*
X84081Y-2937D01*
X84207Y-2912D01*
X84207Y-2912D01*
X84314Y-2840D01*
X85000Y-2154D01*
X85014Y-2188D01*
X85084Y-2258D01*
X85176Y-2297D01*
X85276Y-2297D01*
X86026Y-2297D01*
X86118Y-2259D01*
X86188Y-2188D01*
X86202Y-2155D01*
X86362Y-2262D01*
X86601Y-2310D01*
X86840Y-2262D01*
X87043Y-2127D01*
X87178Y-1924D01*
X87226Y-1685D01*
X87226Y-4019D01*
X87205Y-4028D01*
X87136Y-4096D01*
X87136Y-3417D01*
X86979Y-3036D01*
X86688Y-2745D01*
X86308Y-2587D01*
X85896Y-2586D01*
X85516Y-2744D01*
X85224Y-3035D01*
X85066Y-3415D01*
X85066Y-3827D01*
X85223Y-4207D01*
X85514Y-4498D01*
X85894Y-4656D01*
X86306Y-4657D01*
X86687Y-4499D01*
X86978Y-4209D01*
X87136Y-3828D01*
X87136Y-3417D01*
X87136Y-4096D01*
X87008Y-4225D01*
X86901Y-4482D01*
X86901Y-4760D01*
X87007Y-5018D01*
X87204Y-5215D01*
X87461Y-5321D01*
X87740Y-5322D01*
X87997Y-5215D01*
X88194Y-5019D01*
X88301Y-4761D01*
X88301Y-4483D01*
X88195Y-4226D01*
X88176Y-4207D01*
X88217Y-4207D01*
X88432Y-4118D01*
X88597Y-3953D01*
X88686Y-3738D01*
X88686Y-3506D01*
X88686Y-7340D01*
X53549Y-7340D01*
X53549Y-7340D01*
X53524Y-7345D01*
X53423Y-7365D01*
X53316Y-7436D01*
X53316Y-7436D01*
X53316Y-7436D01*
X52606Y-8146D01*
X50587Y-8146D01*
X50620Y-8067D01*
X50620Y-7889D01*
X50552Y-7725D01*
X50505Y-7678D01*
X50632Y-7678D01*
X50796Y-7610D01*
X50922Y-7485D01*
X50990Y-7321D01*
X50990Y-7143D01*
X50922Y-6979D01*
X50797Y-6853D01*
X50632Y-6785D01*
X50455Y-6784D01*
X50290Y-6852D01*
X50241Y-6901D01*
X20079Y-6901D01*
X19130Y-5952D01*
X24480Y-5952D01*
X24507Y-6018D01*
X24704Y-6215D01*
X24961Y-6321D01*
X25240Y-6322D01*
X25497Y-6215D01*
X25694Y-6019D01*
X25722Y-5952D01*
X31980Y-5952D01*
X32007Y-6018D01*
X32204Y-6215D01*
X32461Y-6321D01*
X32740Y-6322D01*
X32997Y-6215D01*
X33194Y-6019D01*
X33222Y-5952D01*
X39480Y-5952D01*
X39507Y-6018D01*
X39704Y-6215D01*
X39961Y-6321D01*
X40240Y-6322D01*
X40497Y-6215D01*
X40694Y-6019D01*
X40722Y-5952D01*
X46980Y-5952D01*
X47007Y-6018D01*
X47204Y-6215D01*
X47461Y-6321D01*
X47740Y-6322D01*
X47997Y-6215D01*
X48194Y-6019D01*
X48222Y-5952D01*
X54480Y-5952D01*
X54507Y-6018D01*
X54704Y-6215D01*
X54961Y-6321D01*
X55240Y-6322D01*
X55497Y-6215D01*
X55694Y-6019D01*
X55722Y-5952D01*
X61980Y-5952D01*
X62007Y-6018D01*
X62204Y-6215D01*
X62461Y-6321D01*
X62740Y-6322D01*
X62997Y-6215D01*
X63194Y-6019D01*
X63222Y-5952D01*
X69480Y-5952D01*
X69507Y-6018D01*
X69704Y-6215D01*
X69961Y-6321D01*
X70240Y-6322D01*
X70497Y-6215D01*
X70694Y-6019D01*
X70722Y-5952D01*
X76980Y-5952D01*
X77007Y-6018D01*
X77204Y-6215D01*
X77461Y-6321D01*
X77740Y-6322D01*
X77997Y-6215D01*
X78194Y-6019D01*
X78222Y-5952D01*
X84480Y-5952D01*
X84507Y-6018D01*
X84704Y-6215D01*
X84961Y-6321D01*
X85240Y-6322D01*
X85497Y-6215D01*
X85694Y-6019D01*
X85801Y-5761D01*
X85801Y-5483D01*
X85695Y-5226D01*
X85498Y-5028D01*
X85241Y-4922D01*
X84962Y-4921D01*
X84705Y-5028D01*
X84686Y-5047D01*
X84686Y-3506D01*
X84597Y-3291D01*
X84433Y-3126D01*
X84218Y-3037D01*
X83985Y-3036D01*
X83770Y-3125D01*
X83605Y-3290D01*
X83516Y-3505D01*
X83516Y-3737D01*
X83605Y-3952D01*
X83769Y-4117D01*
X83984Y-4206D01*
X84217Y-4207D01*
X84432Y-4118D01*
X84597Y-3953D01*
X84686Y-3738D01*
X84686Y-3506D01*
X84686Y-5047D01*
X84508Y-5225D01*
X84480Y-5292D01*
X80313Y-5292D01*
X80497Y-5215D01*
X80694Y-5019D01*
X80801Y-4761D01*
X80801Y-4483D01*
X80695Y-4226D01*
X80676Y-4207D01*
X80717Y-4207D01*
X80932Y-4118D01*
X81097Y-3953D01*
X81186Y-3738D01*
X81186Y-3506D01*
X81097Y-3291D01*
X80933Y-3126D01*
X80718Y-3037D01*
X80485Y-3036D01*
X80270Y-3125D01*
X80105Y-3290D01*
X80016Y-3505D01*
X80016Y-3737D01*
X80092Y-3922D01*
X79962Y-3921D01*
X79705Y-4028D01*
X79508Y-4225D01*
X79401Y-4482D01*
X79401Y-4760D01*
X79507Y-5018D01*
X79704Y-5215D01*
X79889Y-5292D01*
X78222Y-5292D01*
X78195Y-5226D01*
X77998Y-5028D01*
X77741Y-4922D01*
X77462Y-4921D01*
X77205Y-5028D01*
X77186Y-5047D01*
X77186Y-3506D01*
X77097Y-3291D01*
X76933Y-3126D01*
X76718Y-3037D01*
X76485Y-3036D01*
X76270Y-3125D01*
X76105Y-3290D01*
X76016Y-3505D01*
X76016Y-3737D01*
X76105Y-3952D01*
X76269Y-4117D01*
X76484Y-4206D01*
X76717Y-4207D01*
X76932Y-4118D01*
X77097Y-3953D01*
X77186Y-3738D01*
X77186Y-3506D01*
X77186Y-5047D01*
X77008Y-5225D01*
X76980Y-5292D01*
X72813Y-5292D01*
X72997Y-5215D01*
X73194Y-5019D01*
X73301Y-4761D01*
X73301Y-4483D01*
X73195Y-4226D01*
X73176Y-4207D01*
X73217Y-4207D01*
X73432Y-4118D01*
X73597Y-3953D01*
X73686Y-3738D01*
X73686Y-3506D01*
X73597Y-3291D01*
X73433Y-3126D01*
X73218Y-3037D01*
X72985Y-3036D01*
X72770Y-3125D01*
X72605Y-3290D01*
X72516Y-3505D01*
X72516Y-3737D01*
X72592Y-3922D01*
X72462Y-3921D01*
X72205Y-4028D01*
X72008Y-4225D01*
X71901Y-4482D01*
X71901Y-4760D01*
X72007Y-5018D01*
X72204Y-5215D01*
X72389Y-5292D01*
X70722Y-5292D01*
X70695Y-5226D01*
X70498Y-5028D01*
X70241Y-4922D01*
X69962Y-4921D01*
X69705Y-5028D01*
X69686Y-5047D01*
X69686Y-3506D01*
X69597Y-3291D01*
X69433Y-3126D01*
X69218Y-3037D01*
X68985Y-3036D01*
X68770Y-3125D01*
X68605Y-3290D01*
X68516Y-3505D01*
X68516Y-3737D01*
X68605Y-3952D01*
X68769Y-4117D01*
X68984Y-4206D01*
X69217Y-4207D01*
X69432Y-4118D01*
X69597Y-3953D01*
X69686Y-3738D01*
X69686Y-3506D01*
X69686Y-5047D01*
X69508Y-5225D01*
X69480Y-5292D01*
X65313Y-5292D01*
X65497Y-5215D01*
X65694Y-5019D01*
X65801Y-4761D01*
X65801Y-4483D01*
X65695Y-4226D01*
X65676Y-4207D01*
X65717Y-4207D01*
X65932Y-4118D01*
X66097Y-3953D01*
X66186Y-3738D01*
X66186Y-3506D01*
X66097Y-3291D01*
X65933Y-3126D01*
X65718Y-3037D01*
X65485Y-3036D01*
X65270Y-3125D01*
X65105Y-3290D01*
X65016Y-3505D01*
X65016Y-3737D01*
X65092Y-3922D01*
X64962Y-3921D01*
X64705Y-4028D01*
X64508Y-4225D01*
X64401Y-4482D01*
X64401Y-4760D01*
X64507Y-5018D01*
X64704Y-5215D01*
X64889Y-5292D01*
X63222Y-5292D01*
X63195Y-5226D01*
X62998Y-5028D01*
X62741Y-4922D01*
X62462Y-4921D01*
X62205Y-5028D01*
X62008Y-5225D01*
X61980Y-5292D01*
X57813Y-5292D01*
X57997Y-5215D01*
X58194Y-5019D01*
X58301Y-4761D01*
X58301Y-4483D01*
X58195Y-4226D01*
X58176Y-4207D01*
X58217Y-4207D01*
X58432Y-4118D01*
X58597Y-3953D01*
X58686Y-3738D01*
X58686Y-3506D01*
X58597Y-3291D01*
X58433Y-3126D01*
X58218Y-3037D01*
X57985Y-3036D01*
X57770Y-3125D01*
X57605Y-3290D01*
X57516Y-3505D01*
X57516Y-3737D01*
X57592Y-3922D01*
X57462Y-3921D01*
X57226Y-4019D01*
X57226Y-1685D01*
X57226Y-1558D01*
X57178Y-1319D01*
X57043Y-1116D01*
X56931Y-1042D01*
X56931Y-1036D01*
X56906Y-910D01*
X56834Y-803D01*
X56727Y-732D01*
X56601Y-706D01*
X50221Y-706D01*
X50095Y-732D01*
X49988Y-803D01*
X49596Y-1195D01*
X49543Y-1116D01*
X49340Y-981D01*
X49101Y-933D01*
X48862Y-981D01*
X48702Y-1088D01*
X48688Y-1055D01*
X48618Y-985D01*
X48526Y-947D01*
X48427Y-947D01*
X47677Y-947D01*
X47585Y-984D01*
X47514Y-1055D01*
X47476Y-1147D01*
X47476Y-1246D01*
X47476Y-2096D01*
X47514Y-2188D01*
X47584Y-2258D01*
X47676Y-2297D01*
X47776Y-2297D01*
X48309Y-2297D01*
X48599Y-2587D01*
X48396Y-2586D01*
X48016Y-2744D01*
X47724Y-3035D01*
X47566Y-3415D01*
X47566Y-3827D01*
X47723Y-4207D01*
X48014Y-4498D01*
X48394Y-4656D01*
X48806Y-4657D01*
X49187Y-4499D01*
X49478Y-4209D01*
X49636Y-3828D01*
X49636Y-3417D01*
X49479Y-3036D01*
X49332Y-2889D01*
X51949Y-2889D01*
X51915Y-3059D01*
X51950Y-3235D01*
X52050Y-3384D01*
X52199Y-3484D01*
X52375Y-3519D01*
X52577Y-3519D01*
X52753Y-3484D01*
X52902Y-3384D01*
X53002Y-3235D01*
X53037Y-3059D01*
X53002Y-2883D01*
X52952Y-2809D01*
X53002Y-2735D01*
X53037Y-2559D01*
X53002Y-2383D01*
X52952Y-2309D01*
X53002Y-2235D01*
X53037Y-2059D01*
X53002Y-1883D01*
X52952Y-1809D01*
X53002Y-1735D01*
X53037Y-1559D01*
X53002Y-1383D01*
X52991Y-1366D01*
X54976Y-1366D01*
X54976Y-2096D01*
X55014Y-2188D01*
X55084Y-2258D01*
X55176Y-2297D01*
X55276Y-2297D01*
X56026Y-2297D01*
X56118Y-2259D01*
X56188Y-2188D01*
X56202Y-2155D01*
X56362Y-2262D01*
X56601Y-2310D01*
X56840Y-2262D01*
X57043Y-2127D01*
X57178Y-1924D01*
X57226Y-1685D01*
X57226Y-4019D01*
X57205Y-4028D01*
X57136Y-4096D01*
X57136Y-3417D01*
X56979Y-3036D01*
X56688Y-2745D01*
X56308Y-2587D01*
X55896Y-2586D01*
X55516Y-2744D01*
X55224Y-3035D01*
X55066Y-3415D01*
X55066Y-3827D01*
X55223Y-4207D01*
X55514Y-4498D01*
X55894Y-4656D01*
X56306Y-4657D01*
X56687Y-4499D01*
X56978Y-4209D01*
X57136Y-3828D01*
X57136Y-3417D01*
X57136Y-4096D01*
X57008Y-4225D01*
X56901Y-4482D01*
X56901Y-4760D01*
X57007Y-5018D01*
X57204Y-5215D01*
X57389Y-5292D01*
X55722Y-5292D01*
X55695Y-5226D01*
X55498Y-5028D01*
X55241Y-4922D01*
X54962Y-4921D01*
X54705Y-5028D01*
X54686Y-5047D01*
X54686Y-3506D01*
X54597Y-3291D01*
X54433Y-3126D01*
X54218Y-3037D01*
X53985Y-3036D01*
X53770Y-3125D01*
X53605Y-3290D01*
X53516Y-3505D01*
X53516Y-3737D01*
X53605Y-3952D01*
X53769Y-4117D01*
X53984Y-4206D01*
X54217Y-4207D01*
X54432Y-4118D01*
X54597Y-3953D01*
X54686Y-3738D01*
X54686Y-3506D01*
X54686Y-5047D01*
X54508Y-5225D01*
X54480Y-5292D01*
X50313Y-5292D01*
X50497Y-5215D01*
X50694Y-5019D01*
X50801Y-4761D01*
X50801Y-4483D01*
X50695Y-4226D01*
X50676Y-4207D01*
X50717Y-4207D01*
X50932Y-4118D01*
X51097Y-3953D01*
X51186Y-3738D01*
X51186Y-3506D01*
X51097Y-3291D01*
X50933Y-3126D01*
X50718Y-3037D01*
X50485Y-3036D01*
X50270Y-3125D01*
X50105Y-3290D01*
X50016Y-3505D01*
X50016Y-3737D01*
X50092Y-3922D01*
X49962Y-3921D01*
X49705Y-4028D01*
X49508Y-4225D01*
X49401Y-4482D01*
X49401Y-4760D01*
X49507Y-5018D01*
X49704Y-5215D01*
X49889Y-5292D01*
X48222Y-5292D01*
X48195Y-5226D01*
X47998Y-5028D01*
X47741Y-4922D01*
X47462Y-4921D01*
X47205Y-5028D01*
X47186Y-5047D01*
X47186Y-3506D01*
X47097Y-3291D01*
X46933Y-3126D01*
X46718Y-3037D01*
X46485Y-3036D01*
X46270Y-3125D01*
X46105Y-3290D01*
X46016Y-3505D01*
X46016Y-3737D01*
X46105Y-3952D01*
X46269Y-4117D01*
X46484Y-4206D01*
X46717Y-4207D01*
X46932Y-4118D01*
X47097Y-3953D01*
X47186Y-3738D01*
X47186Y-3506D01*
X47186Y-5047D01*
X47008Y-5225D01*
X46980Y-5292D01*
X43729Y-5292D01*
X45569Y-3451D01*
X45569Y-3451D01*
X45569Y-3451D01*
X45641Y-3344D01*
X45641Y-3344D01*
X45666Y-3217D01*
X45666Y-3217D01*
X45666Y-1559D01*
X45641Y-1432D01*
X45569Y-1325D01*
X45462Y-1254D01*
X45336Y-1229D01*
X45295Y-1229D01*
X45153Y-1134D01*
X44977Y-1099D01*
X44775Y-1099D01*
X44599Y-1134D01*
X44450Y-1233D01*
X44350Y-1383D01*
X44315Y-1559D01*
X44349Y-1729D01*
X44205Y-1729D01*
X43034Y-558D01*
X42927Y-487D01*
X42801Y-461D01*
X30313Y-461D01*
X30328Y-416D01*
X30316Y-241D01*
X88957Y-241D01*
X88949Y-264D01*
X88962Y-442D01*
X89005Y-547D01*
X89090Y-562D01*
X89330Y-322D01*
X89325Y-316D01*
X89396Y-245D01*
X89401Y-251D01*
X89407Y-245D01*
X89477Y-316D01*
X89472Y-322D01*
X89477Y-327D01*
X89407Y-398D01*
X89401Y-392D01*
X89161Y-633D01*
X89175Y-717D01*
X89344Y-774D01*
X89481Y-764D01*
X89481Y-7477D01*
G54D10*
G36*
X89481Y-29033D02*
X89433Y-29016D01*
X89256Y-29029D01*
X89150Y-29073D01*
X89136Y-29157D01*
X89376Y-29398D01*
X89381Y-29392D01*
X89452Y-29463D01*
X89447Y-29468D01*
X89452Y-29474D01*
X89381Y-29545D01*
X89376Y-29539D01*
X89370Y-29545D01*
X89300Y-29474D01*
X89305Y-29468D01*
X89065Y-29228D01*
X88980Y-29243D01*
X88924Y-29411D01*
X88934Y-29552D01*
X67759Y-29552D01*
X67782Y-29543D01*
X68021Y-29304D01*
X68151Y-28991D01*
X68151Y-28653D01*
X68026Y-28351D01*
X72155Y-28351D01*
X73022Y-29217D01*
X73022Y-29217D01*
X73129Y-29289D01*
X73129Y-29289D01*
X73230Y-29309D01*
X73255Y-29314D01*
X73255Y-29314D01*
X73255Y-29314D01*
X84509Y-29314D01*
X84636Y-29289D01*
X84636Y-29289D01*
X84743Y-29217D01*
X86048Y-27912D01*
X86119Y-27805D01*
X86119Y-27805D01*
X86144Y-27679D01*
X86144Y-27605D01*
X86254Y-27715D01*
X86511Y-27821D01*
X86789Y-27822D01*
X87047Y-27715D01*
X87244Y-27519D01*
X87351Y-27261D01*
X87351Y-26983D01*
X87244Y-26726D01*
X87226Y-26707D01*
X87267Y-26707D01*
X87482Y-26618D01*
X87646Y-26453D01*
X87736Y-26238D01*
X87736Y-26006D01*
X87647Y-25791D01*
X87482Y-25626D01*
X87268Y-25537D01*
X87035Y-25536D01*
X86820Y-25625D01*
X86655Y-25790D01*
X86566Y-26005D01*
X86566Y-26237D01*
X86642Y-26422D01*
X86520Y-26421D01*
X86521Y-26418D01*
X86521Y-26418D01*
X86521Y-26418D01*
X86521Y-23977D01*
X86569Y-23928D01*
X86637Y-23764D01*
X86637Y-23586D01*
X86570Y-23422D01*
X86444Y-23296D01*
X86280Y-23228D01*
X86210Y-23228D01*
X85094Y-22112D01*
X86306Y-22112D01*
X86432Y-22087D01*
X86432Y-22087D01*
X86539Y-22015D01*
X87144Y-21410D01*
X86903Y-21771D01*
X86809Y-22244D01*
X86903Y-22716D01*
X87170Y-23116D01*
X87571Y-23384D01*
X88043Y-23478D01*
X89481Y-23478D01*
X89481Y-29033D01*
X89481Y-29033D01*
G37*
G54D27*
X89481Y-29033D02*
X89433Y-29016D01*
X89256Y-29029D01*
X89150Y-29073D01*
X89136Y-29157D01*
X89376Y-29398D01*
X89381Y-29392D01*
X89452Y-29463D01*
X89447Y-29468D01*
X89452Y-29474D01*
X89381Y-29545D01*
X89376Y-29539D01*
X89370Y-29545D01*
X89300Y-29474D01*
X89305Y-29468D01*
X89065Y-29228D01*
X88980Y-29243D01*
X88924Y-29411D01*
X88934Y-29552D01*
X67759Y-29552D01*
X67782Y-29543D01*
X68021Y-29304D01*
X68151Y-28991D01*
X68151Y-28653D01*
X68026Y-28351D01*
X72155Y-28351D01*
X73022Y-29217D01*
X73022Y-29217D01*
X73129Y-29289D01*
X73129Y-29289D01*
X73230Y-29309D01*
X73255Y-29314D01*
X73255Y-29314D01*
X73255Y-29314D01*
X84509Y-29314D01*
X84636Y-29289D01*
X84636Y-29289D01*
X84743Y-29217D01*
X86048Y-27912D01*
X86119Y-27805D01*
X86119Y-27805D01*
X86144Y-27679D01*
X86144Y-27605D01*
X86254Y-27715D01*
X86511Y-27821D01*
X86789Y-27822D01*
X87047Y-27715D01*
X87244Y-27519D01*
X87351Y-27261D01*
X87351Y-26983D01*
X87244Y-26726D01*
X87226Y-26707D01*
X87267Y-26707D01*
X87482Y-26618D01*
X87646Y-26453D01*
X87736Y-26238D01*
X87736Y-26006D01*
X87647Y-25791D01*
X87482Y-25626D01*
X87268Y-25537D01*
X87035Y-25536D01*
X86820Y-25625D01*
X86655Y-25790D01*
X86566Y-26005D01*
X86566Y-26237D01*
X86642Y-26422D01*
X86520Y-26421D01*
X86521Y-26418D01*
X86521Y-26418D01*
X86521Y-26418D01*
X86521Y-23977D01*
X86569Y-23928D01*
X86637Y-23764D01*
X86637Y-23586D01*
X86570Y-23422D01*
X86444Y-23296D01*
X86280Y-23228D01*
X86210Y-23228D01*
X85094Y-22112D01*
X86306Y-22112D01*
X86432Y-22087D01*
X86432Y-22087D01*
X86539Y-22015D01*
X87144Y-21410D01*
X86903Y-21771D01*
X86809Y-22244D01*
X86903Y-22716D01*
X87170Y-23116D01*
X87571Y-23384D01*
X88043Y-23478D01*
X89481Y-23478D01*
X89481Y-29033D01*
M02*
