M48
;DRILL file {Pcbnew (2013-02-13 BZR 3947)-testing} date 10/16/2013 3:34:42 PM
;FORMAT={3:3/ absolute / metric / keep zeros}
FMAT,2
METRIC,TZ
T1C0.400
T2C0.711
T3C0.813
T4C0.900
T5C0.991
T6C1.499
T7C1.702
T8C2.500
T9C3.048
T10C3.988
%
G90
G05
M71
T1
X000892Y-000818
X000892Y-074859
X018960Y-023170
X019800Y-008300
X020895Y-059902
X022381Y-021121
X026192Y-057809
X029910Y-017033
X046905Y-014618
X054558Y-064534
X063440Y-058570
X073063Y-060340
X075415Y-063017
X075886Y-000912
X078581Y-057912
X084142Y-060514
X092418Y-007770
X092591Y-054795
X111763Y-053844
X114689Y-043046
X116523Y-055822
X117833Y-056748
X122197Y-040055
X124979Y-021531
X125508Y-053880
X127078Y-054795
X127440Y-020265
X128381Y-018369
X134416Y-072730
X134715Y-064714
X135155Y-040063
X136624Y-061952
X137658Y-065035
X140022Y-057912
X140625Y-071886
X142576Y-057664
X144567Y-075004
X144644Y-051315
X144832Y-043002
X145433Y-058594
X145669Y-073990
X146460Y-057664
X146960Y-051936
X148207Y-056388
X148498Y-062001
X148628Y-068181
X149669Y-062576
X149690Y-067076
X149705Y-065101
X150787Y-070940
X151008Y-059685
X151141Y-056334
X153144Y-070862
X153343Y-061385
X153455Y-068359
X153660Y-067154
X155344Y-072822
X156398Y-062503
X156956Y-055727
X158112Y-059620
X158421Y-066606
X159087Y-072082
X159408Y-067417
X160532Y-075004
X162750Y-065371
X162761Y-067527
X164076Y-038507
X168137Y-056327
X169472Y-052201
X171847Y-042261
X173676Y-060731
X183996Y-037681
X205511Y-056234
X206369Y-046125
X208590Y-066112
X209044Y-038794
X209570Y-045585
X210863Y-063496
X216465Y-037881
X218925Y-060135
X227016Y-074851
X227080Y-000818
T2
X095190Y-003960
X095190Y-005230
X095190Y-006500
X095190Y-007770
X113986Y-003960
X113986Y-005230
X113986Y-006500
X113986Y-007770
X133290Y-003960
X133290Y-005230
X133290Y-006500
X133290Y-007770
X152086Y-003960
X152086Y-005230
X152086Y-006500
X152086Y-007770
X226000Y-020470
X226000Y-021740
X226000Y-023010
X226000Y-024280
X226000Y-025550
X226000Y-028090
X226000Y-029360
X226000Y-030630
X226000Y-031900
X226000Y-033170
X226000Y-034440
X226000Y-035710
X226000Y-036980
X226000Y-038250
T3
X003496Y-026693
X003496Y-034313
X006862Y-042220
X006862Y-049840
X041406Y-025456
X041406Y-033076
X055884Y-004120
X055884Y-011740
X060582Y-023170
X060582Y-030790
X079506Y-023170
X079506Y-030790
T4
X016000Y-003870
X020400Y-003870
X084103Y-073175
X086643Y-073175
X089183Y-073175
X091723Y-073175
X094263Y-073175
X096803Y-073175
T5
X007877Y-004119
X010291Y-023170
X010291Y-061270
X010417Y-004119
X012830Y-023170
X012830Y-061270
X014989Y-042220
X017530Y-042220
X026928Y-004119
X029467Y-004119
X031753Y-023170
X031753Y-061270
X034294Y-023170
X034294Y-061270
X041152Y-042220
X043692Y-042220
X045978Y-004120
X048518Y-004120
X050804Y-023170
X050804Y-061270
X053344Y-023170
X053344Y-061270
X060202Y-042220
X062742Y-042220
X065028Y-004120
X067568Y-004120
X069854Y-023170
X072394Y-023170
X079252Y-042347
X081792Y-042347
X084078Y-004120
X086618Y-004120
X088904Y-023170
X091444Y-023170
X098302Y-042220
X100842Y-042220
X103128Y-004120
X105668Y-004120
X107954Y-023170
X110494Y-023170
X117352Y-042220
X119892Y-042220
X120069Y-061275
X122178Y-004120
X122609Y-061275
X124718Y-004120
X127004Y-023170
X129544Y-023170
X136402Y-042220
X138942Y-042220
X141228Y-004120
X143768Y-004120
X146054Y-023170
X148594Y-023170
X155452Y-042220
X157992Y-042220
X160278Y-004120
X162818Y-004120
X165104Y-023170
X167644Y-023170
X174502Y-042220
X177042Y-042220
X179328Y-004120
X181868Y-004120
X184154Y-023170
X186694Y-023170
X191266Y-061270
X193552Y-042220
X193806Y-061270
X195964Y-042220
X196092Y-042220
X198378Y-004120
X198504Y-042220
X200918Y-004120
X210316Y-023170
X212856Y-023170
X215014Y-061270
X215142Y-042220
X217428Y-004120
X217428Y-042220
X217554Y-061270
X217682Y-042220
X219968Y-004120
X219968Y-042220
T6
X006608Y-014280
X009021Y-033330
X009021Y-071430
X012958Y-011740
X013719Y-052380
X015370Y-030790
X015370Y-068890
X020070Y-049840
X025658Y-014280
X030484Y-033330
X030484Y-071430
X032008Y-011740
X036834Y-030790
X036834Y-068890
X039882Y-052380
X044708Y-014280
X046232Y-049840
X049534Y-033330
X049534Y-071430
X051058Y-011740
X055884Y-030790
X055884Y-068890
X058932Y-052380
X063758Y-014280
X065282Y-049840
X068584Y-033330
X070108Y-011740
X074934Y-030790
X077982Y-052380
X082808Y-014280
X084332Y-049840
X087634Y-033330
X089158Y-011740
X093984Y-030790
X097032Y-052380
X101858Y-014280
X103382Y-049840
X106684Y-033330
X108208Y-011740
X113034Y-030790
X116082Y-052380
X118368Y-071430
X120908Y-014280
X122432Y-049840
X124718Y-068890
X125734Y-033330
X127258Y-011740
X132084Y-030790
X135132Y-052380
X139958Y-014280
X141482Y-049840
X144784Y-033330
X146308Y-011740
X151134Y-030790
X154182Y-052380
X159008Y-014280
X160532Y-049840
X163834Y-033330
X165358Y-011740
X170184Y-030790
X173232Y-052380
X178058Y-014280
X179582Y-049840
X182884Y-033330
X184408Y-011740
X189234Y-030790
X189996Y-071430
X192282Y-052380
X194694Y-052380
X196346Y-068890
X197108Y-014280
X198632Y-049840
X201044Y-049840
X203458Y-011740
X209046Y-033330
X213744Y-071430
X213872Y-052380
X215396Y-030790
X216158Y-014280
X216158Y-052380
X220094Y-068890
X220222Y-049840
X222508Y-011740
X222508Y-049840
T7
X004068Y-009200
X006481Y-028250
X006481Y-066350
X011179Y-047300
X014227Y-009200
X016641Y-028250
X016641Y-066350
X021340Y-047300
X023118Y-009200
X027944Y-028250
X027944Y-066350
X033278Y-009200
X037342Y-047300
X038103Y-028250
X038103Y-066350
X042168Y-009200
X046994Y-028250
X046994Y-066350
X047502Y-047300
X052328Y-009200
X056392Y-047300
X057154Y-028250
X057154Y-066350
X061218Y-009200
X066044Y-028250
X066552Y-047300
X071378Y-009200
X075442Y-047300
X076204Y-028250
X080268Y-009200
X085094Y-028250
X085602Y-047300
X090428Y-009200
X094492Y-047300
X095254Y-028250
X099318Y-009200
X104144Y-028250
X104652Y-047300
X109478Y-009200
X113542Y-047300
X114304Y-028250
X115828Y-066350
X118368Y-009200
X123194Y-028250
X123702Y-047300
X125988Y-066350
X128528Y-009200
X132592Y-047300
X133354Y-028250
X137418Y-009200
X142244Y-028250
X142752Y-047300
X147578Y-009200
X151642Y-047300
X152404Y-028250
X156468Y-009200
X161294Y-028250
X161802Y-047300
X166628Y-009200
X170692Y-047300
X171454Y-028250
X175518Y-009200
X180344Y-028250
X180852Y-047300
X185678Y-009200
X187456Y-066350
X189742Y-047300
X190504Y-028250
X192154Y-047300
X194568Y-009200
X197616Y-066350
X199902Y-047300
X202314Y-047300
X204728Y-009200
X206506Y-028250
X211204Y-066350
X211332Y-047300
X213618Y-009200
X213618Y-047300
X216666Y-028250
X221364Y-066350
X221492Y-047300
X223778Y-009200
X223778Y-047300
T8
X-000827Y-056501
X000697Y-056501
X002221Y-056501
X003745Y-056501
X041406Y-019614
X042676Y-019614
X043946Y-019614
X126930Y-047000
X128200Y-047000
X129470Y-047000
X198632Y-028250
X199902Y-028250
X201172Y-028250
X223955Y-056500
X225479Y-056500
X227003Y-056500
X228527Y-056500
T9
X070870Y-073208
X170946Y-073208
T10
X009148Y-009200
X011561Y-028250
X011561Y-066350
X016260Y-047300
X028197Y-009200
X033024Y-028250
X033024Y-066350
X042422Y-047300
X047248Y-009200
X052074Y-028250
X052074Y-066350
X061472Y-047300
X066298Y-009200
X070870Y-057968
X071124Y-028250
X080522Y-047300
X085348Y-009200
X090174Y-028250
X099572Y-047300
X104398Y-009200
X109224Y-028250
X118622Y-047300
X120908Y-066350
X123448Y-009200
X128274Y-028250
X137672Y-047300
X142498Y-009200
X147324Y-028250
X156722Y-047300
X161548Y-009200
X166374Y-028250
X170946Y-057968
X175772Y-047300
X180598Y-009200
X185424Y-028250
X192536Y-066350
X194822Y-047300
X197234Y-047300
X199648Y-009200
X211586Y-028250
X216284Y-066350
X216412Y-047300
X218698Y-009200
X218698Y-047300
T8
X-000791Y-056501G85X003709Y-056501
G05
X041426Y-019614G85X043926Y-019614
G05
X126950Y-047000G85X129450Y-047000
G05
X198652Y-028250G85X201152Y-028250
G05
X223991Y-056500G85X228491Y-056500
G05
T0
M30
