G04 (created by PCBNEW (2013-02-13 BZR 3947)-testing) date 3/5/2013 9:05:35 AM*
%MOIN*%
G04 Gerber Fmt 3.4, Leading zero omitted, Abs format*
%FSLAX34Y34*%
G01*
G70*
G90*
G04 APERTURE LIST*
%ADD10C,0.08*%
%ADD11C,0.00393701*%
%ADD12C,0.009*%
%ADD13C,0.006*%
%ADD14C,0.008*%
%ADD15C,0.0001*%
%ADD16C,0.015*%
%ADD17C,0.00590551*%
%ADD18C,0.00492126*%
%ADD19O,0.0513X0.073*%
%ADD20O,0.0592X0.1025*%
%ADD21R,0.083X0.093*%
%ADD22O,0.083X0.093*%
%ADD23C,0.0634*%
%ADD24C,0.0670551*%
%ADD25C,0.073*%
%ADD26C,0.098*%
G04 APERTURE END LIST*
G54D10*
G54D11*
X82332Y-30481D02*
X82425Y-30875D01*
X82500Y-30594D01*
X82575Y-30875D01*
X82669Y-30481D01*
X82819Y-30875D02*
X82819Y-30612D01*
X82819Y-30481D02*
X82800Y-30500D01*
X82819Y-30519D01*
X82838Y-30500D01*
X82819Y-30481D01*
X82819Y-30519D01*
X82950Y-30612D02*
X83100Y-30612D01*
X83007Y-30481D02*
X83007Y-30819D01*
X83025Y-30856D01*
X83063Y-30875D01*
X83100Y-30875D01*
X83232Y-30875D02*
X83232Y-30481D01*
X83400Y-30875D02*
X83400Y-30669D01*
X83382Y-30631D01*
X83344Y-30612D01*
X83288Y-30612D01*
X83250Y-30631D01*
X83232Y-30650D01*
X83869Y-30856D02*
X83907Y-30875D01*
X83982Y-30875D01*
X84019Y-30856D01*
X84038Y-30819D01*
X84038Y-30800D01*
X84019Y-30762D01*
X83982Y-30744D01*
X83925Y-30744D01*
X83888Y-30725D01*
X83869Y-30687D01*
X83869Y-30669D01*
X83888Y-30631D01*
X83925Y-30612D01*
X83982Y-30612D01*
X84019Y-30631D01*
X84207Y-30612D02*
X84207Y-31006D01*
X84207Y-30631D02*
X84244Y-30612D01*
X84319Y-30612D01*
X84356Y-30631D01*
X84375Y-30650D01*
X84394Y-30687D01*
X84394Y-30800D01*
X84375Y-30837D01*
X84356Y-30856D01*
X84319Y-30875D01*
X84244Y-30875D01*
X84207Y-30856D01*
X84713Y-30856D02*
X84675Y-30875D01*
X84600Y-30875D01*
X84563Y-30856D01*
X84544Y-30819D01*
X84544Y-30669D01*
X84563Y-30631D01*
X84600Y-30612D01*
X84675Y-30612D01*
X84713Y-30631D01*
X84731Y-30669D01*
X84731Y-30706D01*
X84544Y-30744D01*
X85069Y-30856D02*
X85031Y-30875D01*
X84956Y-30875D01*
X84919Y-30856D01*
X84900Y-30837D01*
X84881Y-30800D01*
X84881Y-30687D01*
X84900Y-30650D01*
X84919Y-30631D01*
X84956Y-30612D01*
X85031Y-30612D01*
X85069Y-30631D01*
X85238Y-30875D02*
X85238Y-30612D01*
X85238Y-30481D02*
X85219Y-30500D01*
X85238Y-30519D01*
X85256Y-30500D01*
X85238Y-30481D01*
X85238Y-30519D01*
X85594Y-30875D02*
X85594Y-30669D01*
X85575Y-30631D01*
X85538Y-30612D01*
X85463Y-30612D01*
X85425Y-30631D01*
X85594Y-30856D02*
X85556Y-30875D01*
X85463Y-30875D01*
X85425Y-30856D01*
X85406Y-30819D01*
X85406Y-30781D01*
X85425Y-30744D01*
X85463Y-30725D01*
X85556Y-30725D01*
X85594Y-30706D01*
X85838Y-30875D02*
X85800Y-30856D01*
X85781Y-30819D01*
X85781Y-30481D01*
X86231Y-30612D02*
X86381Y-30612D01*
X86287Y-30481D02*
X86287Y-30819D01*
X86306Y-30856D01*
X86344Y-30875D01*
X86381Y-30875D01*
X86512Y-30875D02*
X86512Y-30481D01*
X86681Y-30875D02*
X86681Y-30669D01*
X86662Y-30631D01*
X86625Y-30612D01*
X86569Y-30612D01*
X86531Y-30631D01*
X86512Y-30650D01*
X87037Y-30875D02*
X87037Y-30669D01*
X87019Y-30631D01*
X86981Y-30612D01*
X86906Y-30612D01*
X86869Y-30631D01*
X87037Y-30856D02*
X87000Y-30875D01*
X86906Y-30875D01*
X86869Y-30856D01*
X86850Y-30819D01*
X86850Y-30781D01*
X86869Y-30744D01*
X86906Y-30725D01*
X87000Y-30725D01*
X87037Y-30706D01*
X87225Y-30612D02*
X87225Y-30875D01*
X87225Y-30650D02*
X87244Y-30631D01*
X87281Y-30612D01*
X87337Y-30612D01*
X87375Y-30631D01*
X87394Y-30669D01*
X87394Y-30875D01*
X87581Y-30875D02*
X87581Y-30481D01*
X87619Y-30725D02*
X87731Y-30875D01*
X87731Y-30612D02*
X87581Y-30762D01*
X87881Y-30856D02*
X87919Y-30875D01*
X87994Y-30875D01*
X88031Y-30856D01*
X88050Y-30819D01*
X88050Y-30800D01*
X88031Y-30762D01*
X87994Y-30744D01*
X87937Y-30744D01*
X87900Y-30725D01*
X87881Y-30687D01*
X87881Y-30669D01*
X87900Y-30631D01*
X87937Y-30612D01*
X87994Y-30612D01*
X88031Y-30631D01*
X88462Y-30612D02*
X88612Y-30612D01*
X88518Y-30481D02*
X88518Y-30819D01*
X88537Y-30856D01*
X88575Y-30875D01*
X88612Y-30875D01*
X88800Y-30875D02*
X88762Y-30856D01*
X88743Y-30837D01*
X88725Y-30800D01*
X88725Y-30687D01*
X88743Y-30650D01*
X88762Y-30631D01*
X88800Y-30612D01*
X88856Y-30612D01*
X88893Y-30631D01*
X88912Y-30650D01*
X88931Y-30687D01*
X88931Y-30800D01*
X88912Y-30837D01*
X88893Y-30856D01*
X88856Y-30875D01*
X88800Y-30875D01*
X82594Y-31465D02*
X82463Y-31278D01*
X82369Y-31465D02*
X82369Y-31072D01*
X82519Y-31072D01*
X82557Y-31090D01*
X82575Y-31109D01*
X82594Y-31147D01*
X82594Y-31203D01*
X82575Y-31240D01*
X82557Y-31259D01*
X82519Y-31278D01*
X82369Y-31278D01*
X82913Y-31447D02*
X82875Y-31465D01*
X82800Y-31465D01*
X82763Y-31447D01*
X82744Y-31409D01*
X82744Y-31259D01*
X82763Y-31222D01*
X82800Y-31203D01*
X82875Y-31203D01*
X82913Y-31222D01*
X82932Y-31259D01*
X82932Y-31297D01*
X82744Y-31334D01*
X83269Y-31203D02*
X83269Y-31522D01*
X83250Y-31559D01*
X83232Y-31578D01*
X83194Y-31597D01*
X83138Y-31597D01*
X83100Y-31578D01*
X83269Y-31447D02*
X83232Y-31465D01*
X83157Y-31465D01*
X83119Y-31447D01*
X83100Y-31428D01*
X83082Y-31390D01*
X83082Y-31278D01*
X83100Y-31240D01*
X83119Y-31222D01*
X83157Y-31203D01*
X83232Y-31203D01*
X83269Y-31222D01*
X83625Y-31465D02*
X83625Y-31259D01*
X83607Y-31222D01*
X83569Y-31203D01*
X83494Y-31203D01*
X83457Y-31222D01*
X83625Y-31447D02*
X83588Y-31465D01*
X83494Y-31465D01*
X83457Y-31447D01*
X83438Y-31409D01*
X83438Y-31372D01*
X83457Y-31334D01*
X83494Y-31315D01*
X83588Y-31315D01*
X83625Y-31297D01*
X83982Y-31447D02*
X83944Y-31465D01*
X83869Y-31465D01*
X83832Y-31447D01*
X83813Y-31428D01*
X83794Y-31390D01*
X83794Y-31278D01*
X83813Y-31240D01*
X83832Y-31222D01*
X83869Y-31203D01*
X83944Y-31203D01*
X83982Y-31222D01*
X84150Y-31465D02*
X84150Y-31072D01*
X84188Y-31315D02*
X84300Y-31465D01*
X84300Y-31203D02*
X84150Y-31353D01*
X84488Y-31447D02*
X84488Y-31465D01*
X84469Y-31503D01*
X84450Y-31522D01*
X84956Y-31465D02*
X84956Y-31072D01*
X84994Y-31315D02*
X85106Y-31465D01*
X85106Y-31203D02*
X84956Y-31353D01*
X85331Y-31465D02*
X85294Y-31447D01*
X85275Y-31428D01*
X85256Y-31390D01*
X85256Y-31278D01*
X85275Y-31240D01*
X85294Y-31222D01*
X85331Y-31203D01*
X85388Y-31203D01*
X85425Y-31222D01*
X85444Y-31240D01*
X85463Y-31278D01*
X85463Y-31390D01*
X85444Y-31428D01*
X85425Y-31447D01*
X85388Y-31465D01*
X85331Y-31465D01*
X85631Y-31465D02*
X85631Y-31203D01*
X85631Y-31240D02*
X85650Y-31222D01*
X85688Y-31203D01*
X85744Y-31203D01*
X85781Y-31222D01*
X85800Y-31259D01*
X85800Y-31465D01*
X85800Y-31259D02*
X85819Y-31222D01*
X85856Y-31203D01*
X85913Y-31203D01*
X85950Y-31222D01*
X85969Y-31259D01*
X85969Y-31465D01*
X86325Y-31465D02*
X86325Y-31259D01*
X86306Y-31222D01*
X86269Y-31203D01*
X86194Y-31203D01*
X86156Y-31222D01*
X86325Y-31447D02*
X86287Y-31465D01*
X86194Y-31465D01*
X86156Y-31447D01*
X86138Y-31409D01*
X86138Y-31372D01*
X86156Y-31334D01*
X86194Y-31315D01*
X86287Y-31315D01*
X86325Y-31297D01*
X86512Y-31465D02*
X86512Y-31203D01*
X86512Y-31278D02*
X86531Y-31240D01*
X86550Y-31222D01*
X86587Y-31203D01*
X86625Y-31203D01*
X86831Y-31072D02*
X86869Y-31072D01*
X86906Y-31090D01*
X86925Y-31109D01*
X86944Y-31147D01*
X86962Y-31222D01*
X86962Y-31315D01*
X86944Y-31390D01*
X86925Y-31428D01*
X86906Y-31447D01*
X86869Y-31465D01*
X86831Y-31465D01*
X86794Y-31447D01*
X86775Y-31428D01*
X86756Y-31390D01*
X86737Y-31315D01*
X86737Y-31222D01*
X86756Y-31147D01*
X86775Y-31109D01*
X86794Y-31090D01*
X86831Y-31072D01*
X87206Y-31072D02*
X87244Y-31072D01*
X87281Y-31090D01*
X87300Y-31109D01*
X87319Y-31147D01*
X87337Y-31222D01*
X87337Y-31315D01*
X87319Y-31390D01*
X87300Y-31428D01*
X87281Y-31447D01*
X87244Y-31465D01*
X87206Y-31465D01*
X87169Y-31447D01*
X87150Y-31428D01*
X87131Y-31390D01*
X87112Y-31315D01*
X87112Y-31222D01*
X87131Y-31147D01*
X87150Y-31109D01*
X87169Y-31090D01*
X87206Y-31072D01*
X87469Y-31072D02*
X87731Y-31072D01*
X87562Y-31465D01*
X87900Y-31447D02*
X87900Y-31465D01*
X87881Y-31503D01*
X87862Y-31522D01*
X82669Y-32056D02*
X82669Y-31662D01*
X82669Y-31812D02*
X82707Y-31793D01*
X82782Y-31793D01*
X82819Y-31812D01*
X82838Y-31831D01*
X82857Y-31868D01*
X82857Y-31981D01*
X82838Y-32018D01*
X82819Y-32037D01*
X82782Y-32056D01*
X82707Y-32056D01*
X82669Y-32037D01*
X83025Y-31793D02*
X83025Y-32187D01*
X83025Y-31812D02*
X83063Y-31793D01*
X83138Y-31793D01*
X83175Y-31812D01*
X83194Y-31831D01*
X83213Y-31868D01*
X83213Y-31981D01*
X83194Y-32018D01*
X83175Y-32037D01*
X83138Y-32056D01*
X83063Y-32056D01*
X83025Y-32037D01*
X83382Y-32056D02*
X83382Y-31793D01*
X83382Y-31662D02*
X83363Y-31681D01*
X83382Y-31700D01*
X83400Y-31681D01*
X83382Y-31662D01*
X83382Y-31700D01*
X83569Y-31793D02*
X83569Y-32187D01*
X83569Y-31812D02*
X83607Y-31793D01*
X83682Y-31793D01*
X83719Y-31812D01*
X83738Y-31831D01*
X83757Y-31868D01*
X83757Y-31981D01*
X83738Y-32018D01*
X83719Y-32037D01*
X83682Y-32056D01*
X83607Y-32056D01*
X83569Y-32037D01*
X83925Y-32056D02*
X83925Y-31662D01*
X84094Y-32056D02*
X84094Y-31850D01*
X84075Y-31812D01*
X84038Y-31793D01*
X83982Y-31793D01*
X83944Y-31812D01*
X83925Y-31831D01*
X84450Y-32056D02*
X84450Y-31850D01*
X84431Y-31812D01*
X84394Y-31793D01*
X84319Y-31793D01*
X84281Y-31812D01*
X84450Y-32037D02*
X84413Y-32056D01*
X84319Y-32056D01*
X84281Y-32037D01*
X84263Y-32000D01*
X84263Y-31962D01*
X84281Y-31925D01*
X84319Y-31906D01*
X84413Y-31906D01*
X84450Y-31887D01*
X84638Y-31793D02*
X84638Y-32056D01*
X84638Y-31831D02*
X84656Y-31812D01*
X84694Y-31793D01*
X84750Y-31793D01*
X84788Y-31812D01*
X84806Y-31850D01*
X84806Y-32056D01*
X84956Y-31793D02*
X85050Y-32056D01*
X85144Y-31793D02*
X85050Y-32056D01*
X85013Y-32150D01*
X84994Y-32168D01*
X84956Y-32187D01*
X85763Y-32056D02*
X85763Y-31850D01*
X85744Y-31812D01*
X85706Y-31793D01*
X85631Y-31793D01*
X85594Y-31812D01*
X85763Y-32037D02*
X85725Y-32056D01*
X85631Y-32056D01*
X85594Y-32037D01*
X85575Y-32000D01*
X85575Y-31962D01*
X85594Y-31925D01*
X85631Y-31906D01*
X85725Y-31906D01*
X85763Y-31887D01*
X85950Y-31793D02*
X85950Y-32056D01*
X85950Y-31831D02*
X85969Y-31812D01*
X86006Y-31793D01*
X86063Y-31793D01*
X86100Y-31812D01*
X86119Y-31850D01*
X86119Y-32056D01*
X86475Y-32056D02*
X86475Y-31662D01*
X86475Y-32037D02*
X86437Y-32056D01*
X86362Y-32056D01*
X86325Y-32037D01*
X86306Y-32018D01*
X86287Y-31981D01*
X86287Y-31868D01*
X86306Y-31831D01*
X86325Y-31812D01*
X86362Y-31793D01*
X86437Y-31793D01*
X86475Y-31812D01*
X86962Y-32056D02*
X86962Y-31662D01*
X87056Y-31662D01*
X87112Y-31681D01*
X87150Y-31718D01*
X87169Y-31756D01*
X87187Y-31831D01*
X87187Y-31887D01*
X87169Y-31962D01*
X87150Y-32000D01*
X87112Y-32037D01*
X87056Y-32056D01*
X86962Y-32056D01*
X87412Y-32056D02*
X87375Y-32037D01*
X87356Y-32018D01*
X87337Y-31981D01*
X87337Y-31868D01*
X87356Y-31831D01*
X87375Y-31812D01*
X87412Y-31793D01*
X87469Y-31793D01*
X87506Y-31812D01*
X87525Y-31831D01*
X87544Y-31868D01*
X87544Y-31981D01*
X87525Y-32018D01*
X87506Y-32037D01*
X87469Y-32056D01*
X87412Y-32056D01*
X87675Y-32056D02*
X87881Y-31793D01*
X87675Y-31793D02*
X87881Y-32056D01*
G54D12*
X111176Y-3741D02*
X111176Y-3661D01*
X21276Y-3661D02*
X21276Y-3741D01*
X21276Y-33641D02*
X21276Y-3741D01*
X111176Y-33641D02*
X21276Y-33641D01*
X111176Y-3741D02*
X111176Y-33641D01*
X21276Y-3661D02*
X111176Y-3661D01*
X80467Y-28656D02*
X80467Y-29189D01*
X80372Y-28351D02*
X80277Y-28923D01*
X80524Y-28923D01*
X80753Y-28389D02*
X80791Y-28389D01*
X80829Y-28427D01*
X80848Y-28466D01*
X80867Y-28542D01*
X80886Y-28694D01*
X80886Y-28885D01*
X80867Y-29037D01*
X80848Y-29113D01*
X80829Y-29151D01*
X80791Y-29189D01*
X80753Y-29189D01*
X80715Y-29151D01*
X80696Y-29113D01*
X80677Y-29037D01*
X80658Y-28885D01*
X80658Y-28694D01*
X80677Y-28542D01*
X80696Y-28466D01*
X80715Y-28427D01*
X80753Y-28389D01*
X81039Y-29189D02*
X81343Y-28389D01*
X81096Y-28389D02*
X81134Y-28427D01*
X81153Y-28504D01*
X81134Y-28580D01*
X81096Y-28618D01*
X81058Y-28580D01*
X81039Y-28504D01*
X81058Y-28427D01*
X81096Y-28389D01*
X81324Y-29151D02*
X81343Y-29075D01*
X81324Y-28999D01*
X81286Y-28961D01*
X81248Y-28999D01*
X81229Y-29075D01*
X81248Y-29151D01*
X81286Y-29189D01*
X81324Y-29151D01*
X81820Y-28656D02*
X81820Y-29456D01*
X81820Y-28694D02*
X81858Y-28656D01*
X81934Y-28656D01*
X81972Y-28694D01*
X81991Y-28732D01*
X82010Y-28808D01*
X82010Y-29037D01*
X81991Y-29113D01*
X81972Y-29151D01*
X81934Y-29189D01*
X81858Y-29189D01*
X81820Y-29151D01*
X82181Y-29189D02*
X82181Y-28656D01*
X82181Y-28808D02*
X82201Y-28732D01*
X82220Y-28694D01*
X82258Y-28656D01*
X82296Y-28656D01*
X82486Y-29189D02*
X82448Y-29151D01*
X82429Y-29113D01*
X82410Y-29037D01*
X82410Y-28808D01*
X82429Y-28732D01*
X82448Y-28694D01*
X82486Y-28656D01*
X82543Y-28656D01*
X82581Y-28694D01*
X82600Y-28732D01*
X82620Y-28808D01*
X82620Y-29037D01*
X82600Y-29113D01*
X82581Y-29151D01*
X82543Y-29189D01*
X82486Y-29189D01*
X82962Y-28656D02*
X82962Y-29304D01*
X82943Y-29380D01*
X82924Y-29418D01*
X82886Y-29456D01*
X82829Y-29456D01*
X82791Y-29418D01*
X82962Y-29151D02*
X82924Y-29189D01*
X82848Y-29189D01*
X82810Y-29151D01*
X82791Y-29113D01*
X82772Y-29037D01*
X82772Y-28808D01*
X82791Y-28732D01*
X82810Y-28694D01*
X82848Y-28656D01*
X82924Y-28656D01*
X82962Y-28694D01*
X83153Y-29189D02*
X83153Y-28656D01*
X83153Y-28808D02*
X83172Y-28732D01*
X83191Y-28694D01*
X83229Y-28656D01*
X83267Y-28656D01*
X83572Y-29189D02*
X83572Y-28770D01*
X83553Y-28694D01*
X83515Y-28656D01*
X83439Y-28656D01*
X83400Y-28694D01*
X83572Y-29151D02*
X83534Y-29189D01*
X83439Y-29189D01*
X83400Y-29151D01*
X83381Y-29075D01*
X83381Y-28999D01*
X83400Y-28923D01*
X83439Y-28885D01*
X83534Y-28885D01*
X83572Y-28846D01*
X83762Y-29189D02*
X83762Y-28656D01*
X83762Y-28732D02*
X83781Y-28694D01*
X83820Y-28656D01*
X83877Y-28656D01*
X83915Y-28694D01*
X83934Y-28770D01*
X83934Y-29189D01*
X83934Y-28770D02*
X83953Y-28694D01*
X83991Y-28656D01*
X84048Y-28656D01*
X84086Y-28694D01*
X84105Y-28770D01*
X84105Y-29189D01*
X84296Y-29189D02*
X84296Y-28656D01*
X84296Y-28732D02*
X84315Y-28694D01*
X84353Y-28656D01*
X84410Y-28656D01*
X84448Y-28694D01*
X84467Y-28770D01*
X84467Y-29189D01*
X84467Y-28770D02*
X84486Y-28694D01*
X84524Y-28656D01*
X84581Y-28656D01*
X84620Y-28694D01*
X84639Y-28770D01*
X84639Y-29189D01*
X85000Y-29189D02*
X85000Y-28770D01*
X84981Y-28694D01*
X84943Y-28656D01*
X84867Y-28656D01*
X84829Y-28694D01*
X85000Y-29151D02*
X84962Y-29189D01*
X84867Y-29189D01*
X84829Y-29151D01*
X84810Y-29075D01*
X84810Y-28999D01*
X84829Y-28923D01*
X84867Y-28885D01*
X84962Y-28885D01*
X85000Y-28846D01*
X85191Y-29189D02*
X85191Y-28389D01*
X85191Y-28694D02*
X85229Y-28656D01*
X85305Y-28656D01*
X85343Y-28694D01*
X85362Y-28732D01*
X85381Y-28808D01*
X85381Y-29037D01*
X85362Y-29113D01*
X85343Y-29151D01*
X85305Y-29189D01*
X85229Y-29189D01*
X85191Y-29151D01*
X85610Y-29189D02*
X85572Y-29151D01*
X85553Y-29075D01*
X85553Y-28389D01*
X85915Y-29151D02*
X85877Y-29189D01*
X85800Y-29189D01*
X85762Y-29151D01*
X85743Y-29075D01*
X85743Y-28770D01*
X85762Y-28694D01*
X85800Y-28656D01*
X85877Y-28656D01*
X85915Y-28694D01*
X85934Y-28770D01*
X85934Y-28846D01*
X85743Y-28923D01*
X86410Y-29189D02*
X86410Y-28389D01*
X86448Y-28885D02*
X86562Y-29189D01*
X86562Y-28656D02*
X86410Y-28961D01*
X86886Y-29151D02*
X86848Y-29189D01*
X86772Y-29189D01*
X86734Y-29151D01*
X86715Y-29075D01*
X86715Y-28770D01*
X86734Y-28694D01*
X86772Y-28656D01*
X86848Y-28656D01*
X86886Y-28694D01*
X86905Y-28770D01*
X86905Y-28846D01*
X86715Y-28923D01*
X87039Y-28656D02*
X87134Y-29189D01*
X87229Y-28656D02*
X87134Y-29189D01*
X87096Y-29380D01*
X87077Y-29418D01*
X87039Y-29456D01*
X87381Y-29189D02*
X87381Y-28389D01*
X87381Y-28694D02*
X87420Y-28656D01*
X87496Y-28656D01*
X87534Y-28694D01*
X87553Y-28732D01*
X87572Y-28808D01*
X87572Y-29037D01*
X87553Y-29113D01*
X87534Y-29151D01*
X87496Y-29189D01*
X87420Y-29189D01*
X87381Y-29151D01*
X87800Y-29189D02*
X87762Y-29151D01*
X87743Y-29113D01*
X87724Y-29037D01*
X87724Y-28808D01*
X87743Y-28732D01*
X87762Y-28694D01*
X87800Y-28656D01*
X87858Y-28656D01*
X87896Y-28694D01*
X87915Y-28732D01*
X87934Y-28808D01*
X87934Y-29037D01*
X87915Y-29113D01*
X87896Y-29151D01*
X87858Y-29189D01*
X87800Y-29189D01*
X88277Y-29189D02*
X88277Y-28770D01*
X88258Y-28694D01*
X88220Y-28656D01*
X88143Y-28656D01*
X88105Y-28694D01*
X88277Y-29151D02*
X88239Y-29189D01*
X88143Y-29189D01*
X88105Y-29151D01*
X88086Y-29075D01*
X88086Y-28999D01*
X88105Y-28923D01*
X88143Y-28885D01*
X88239Y-28885D01*
X88277Y-28846D01*
X88467Y-29189D02*
X88467Y-28656D01*
X88467Y-28808D02*
X88486Y-28732D01*
X88505Y-28694D01*
X88543Y-28656D01*
X88581Y-28656D01*
X88886Y-29189D02*
X88886Y-28389D01*
X88886Y-29151D02*
X88848Y-29189D01*
X88772Y-29189D01*
X88734Y-29151D01*
X88715Y-29113D01*
X88696Y-29037D01*
X88696Y-28808D01*
X88715Y-28732D01*
X88734Y-28694D01*
X88772Y-28656D01*
X88848Y-28656D01*
X88886Y-28694D01*
G54D11*
X89543Y-29220D02*
X89477Y-29126D01*
X89430Y-29220D02*
X89430Y-29023D01*
X89505Y-29023D01*
X89524Y-29033D01*
X89533Y-29042D01*
X89543Y-29061D01*
X89543Y-29089D01*
X89533Y-29108D01*
X89524Y-29117D01*
X89505Y-29126D01*
X89430Y-29126D01*
X89702Y-29211D02*
X89683Y-29220D01*
X89646Y-29220D01*
X89627Y-29211D01*
X89618Y-29192D01*
X89618Y-29117D01*
X89627Y-29098D01*
X89646Y-29089D01*
X89683Y-29089D01*
X89702Y-29098D01*
X89711Y-29117D01*
X89711Y-29136D01*
X89618Y-29155D01*
X89777Y-29089D02*
X89824Y-29220D01*
X89871Y-29089D01*
X90199Y-29220D02*
X90086Y-29220D01*
X90143Y-29220D02*
X90143Y-29023D01*
X90124Y-29051D01*
X90105Y-29070D01*
X90086Y-29080D01*
X90283Y-29201D02*
X90293Y-29211D01*
X90283Y-29220D01*
X90274Y-29211D01*
X90283Y-29201D01*
X90283Y-29220D01*
X90368Y-29042D02*
X90377Y-29033D01*
X90396Y-29023D01*
X90443Y-29023D01*
X90461Y-29033D01*
X90471Y-29042D01*
X90480Y-29061D01*
X90480Y-29080D01*
X90471Y-29108D01*
X90358Y-29220D01*
X90480Y-29220D01*
G54D13*
X53066Y-26420D02*
X53066Y-33420D01*
X53066Y-33420D02*
X65066Y-33420D01*
X65066Y-33420D02*
X65066Y-26420D01*
X65066Y-26420D02*
X53066Y-26420D01*
G54D14*
X67176Y-26691D02*
X69176Y-26691D01*
X69176Y-26691D02*
X69176Y-26991D01*
X69176Y-26991D02*
X69176Y-27291D01*
X69176Y-27291D02*
X67176Y-27291D01*
X67176Y-27291D02*
X67176Y-26991D01*
X67176Y-26991D02*
X67176Y-26691D01*
X69176Y-26991D02*
X69276Y-26991D01*
X67176Y-26991D02*
X67076Y-26991D01*
X68926Y-26741D02*
X68926Y-27241D01*
X94426Y-26441D02*
X94426Y-28441D01*
X94426Y-28441D02*
X94126Y-28441D01*
X94126Y-28441D02*
X93826Y-28441D01*
X93826Y-28441D02*
X93826Y-26441D01*
X93826Y-26441D02*
X94126Y-26441D01*
X94126Y-26441D02*
X94426Y-26441D01*
X94126Y-28441D02*
X94126Y-28541D01*
X94126Y-26441D02*
X94126Y-26341D01*
X94376Y-28191D02*
X93876Y-28191D01*
X91026Y-16441D02*
X91026Y-14441D01*
X91026Y-14441D02*
X91326Y-14441D01*
X91326Y-14441D02*
X91626Y-14441D01*
X91626Y-14441D02*
X91626Y-16441D01*
X91626Y-16441D02*
X91326Y-16441D01*
X91326Y-16441D02*
X91026Y-16441D01*
X91326Y-14441D02*
X91326Y-14341D01*
X91326Y-16441D02*
X91326Y-16541D01*
X91076Y-14691D02*
X91576Y-14691D01*
X72826Y-18941D02*
X72826Y-20941D01*
X72826Y-20941D02*
X72526Y-20941D01*
X72526Y-20941D02*
X72226Y-20941D01*
X72226Y-20941D02*
X72226Y-18941D01*
X72226Y-18941D02*
X72526Y-18941D01*
X72526Y-18941D02*
X72826Y-18941D01*
X72526Y-20941D02*
X72526Y-21041D01*
X72526Y-18941D02*
X72526Y-18841D01*
X72776Y-20691D02*
X72276Y-20691D01*
X68526Y-16441D02*
X68526Y-14441D01*
X68526Y-14441D02*
X68826Y-14441D01*
X68826Y-14441D02*
X69126Y-14441D01*
X69126Y-14441D02*
X69126Y-16441D01*
X69126Y-16441D02*
X68826Y-16441D01*
X68826Y-16441D02*
X68526Y-16441D01*
X68826Y-14441D02*
X68826Y-14341D01*
X68826Y-16441D02*
X68826Y-16541D01*
X68576Y-14691D02*
X69076Y-14691D01*
X74126Y-8941D02*
X74126Y-6941D01*
X74126Y-6941D02*
X74426Y-6941D01*
X74426Y-6941D02*
X74726Y-6941D01*
X74726Y-6941D02*
X74726Y-8941D01*
X74726Y-8941D02*
X74426Y-8941D01*
X74426Y-8941D02*
X74126Y-8941D01*
X74426Y-6941D02*
X74426Y-6841D01*
X74426Y-8941D02*
X74426Y-9041D01*
X74176Y-7191D02*
X74676Y-7191D01*
X81626Y-8941D02*
X81626Y-6941D01*
X81626Y-6941D02*
X81926Y-6941D01*
X81926Y-6941D02*
X82226Y-6941D01*
X82226Y-6941D02*
X82226Y-8941D01*
X82226Y-8941D02*
X81926Y-8941D01*
X81926Y-8941D02*
X81626Y-8941D01*
X81926Y-6941D02*
X81926Y-6841D01*
X81926Y-8941D02*
X81926Y-9041D01*
X81676Y-7191D02*
X82176Y-7191D01*
X76026Y-16441D02*
X76026Y-14441D01*
X76026Y-14441D02*
X76326Y-14441D01*
X76326Y-14441D02*
X76626Y-14441D01*
X76626Y-14441D02*
X76626Y-16441D01*
X76626Y-16441D02*
X76326Y-16441D01*
X76326Y-16441D02*
X76026Y-16441D01*
X76326Y-14441D02*
X76326Y-14341D01*
X76326Y-16441D02*
X76326Y-16541D01*
X76076Y-14691D02*
X76576Y-14691D01*
X80326Y-18941D02*
X80326Y-20941D01*
X80326Y-20941D02*
X80026Y-20941D01*
X80026Y-20941D02*
X79726Y-20941D01*
X79726Y-20941D02*
X79726Y-18941D01*
X79726Y-18941D02*
X80026Y-18941D01*
X80026Y-18941D02*
X80326Y-18941D01*
X80026Y-20941D02*
X80026Y-21041D01*
X80026Y-18941D02*
X80026Y-18841D01*
X80276Y-20691D02*
X79776Y-20691D01*
X53526Y-16441D02*
X53526Y-14441D01*
X53526Y-14441D02*
X53826Y-14441D01*
X53826Y-14441D02*
X54126Y-14441D01*
X54126Y-14441D02*
X54126Y-16441D01*
X54126Y-16441D02*
X53826Y-16441D01*
X53826Y-16441D02*
X53526Y-16441D01*
X53826Y-14441D02*
X53826Y-14341D01*
X53826Y-16441D02*
X53826Y-16541D01*
X53576Y-14691D02*
X54076Y-14691D01*
X87826Y-18941D02*
X87826Y-20941D01*
X87826Y-20941D02*
X87526Y-20941D01*
X87526Y-20941D02*
X87226Y-20941D01*
X87226Y-20941D02*
X87226Y-18941D01*
X87226Y-18941D02*
X87526Y-18941D01*
X87526Y-18941D02*
X87826Y-18941D01*
X87526Y-20941D02*
X87526Y-21041D01*
X87526Y-18941D02*
X87526Y-18841D01*
X87776Y-20691D02*
X87276Y-20691D01*
X83526Y-16441D02*
X83526Y-14441D01*
X83526Y-14441D02*
X83826Y-14441D01*
X83826Y-14441D02*
X84126Y-14441D01*
X84126Y-14441D02*
X84126Y-16441D01*
X84126Y-16441D02*
X83826Y-16441D01*
X83826Y-16441D02*
X83526Y-16441D01*
X83826Y-14441D02*
X83826Y-14341D01*
X83826Y-16441D02*
X83826Y-16541D01*
X83576Y-14691D02*
X84076Y-14691D01*
X89126Y-8941D02*
X89126Y-6941D01*
X89126Y-6941D02*
X89426Y-6941D01*
X89426Y-6941D02*
X89726Y-6941D01*
X89726Y-6941D02*
X89726Y-8941D01*
X89726Y-8941D02*
X89426Y-8941D01*
X89426Y-8941D02*
X89126Y-8941D01*
X89426Y-6941D02*
X89426Y-6841D01*
X89426Y-8941D02*
X89426Y-9041D01*
X89176Y-7191D02*
X89676Y-7191D01*
X23226Y-26441D02*
X23226Y-28441D01*
X23226Y-28441D02*
X22926Y-28441D01*
X22926Y-28441D02*
X22626Y-28441D01*
X22626Y-28441D02*
X22626Y-26441D01*
X22626Y-26441D02*
X22926Y-26441D01*
X22926Y-26441D02*
X23226Y-26441D01*
X22926Y-28441D02*
X22926Y-28541D01*
X22926Y-26441D02*
X22926Y-26341D01*
X23176Y-28191D02*
X22676Y-28191D01*
X96626Y-8941D02*
X96626Y-6941D01*
X96626Y-6941D02*
X96926Y-6941D01*
X96926Y-6941D02*
X97226Y-6941D01*
X97226Y-6941D02*
X97226Y-8941D01*
X97226Y-8941D02*
X96926Y-8941D01*
X96926Y-8941D02*
X96626Y-8941D01*
X96926Y-6941D02*
X96926Y-6841D01*
X96926Y-8941D02*
X96926Y-9041D01*
X96676Y-7191D02*
X97176Y-7191D01*
X101326Y-16441D02*
X101326Y-14441D01*
X101326Y-14441D02*
X101626Y-14441D01*
X101626Y-14441D02*
X101926Y-14441D01*
X101926Y-14441D02*
X101926Y-16441D01*
X101926Y-16441D02*
X101626Y-16441D01*
X101626Y-16441D02*
X101326Y-16441D01*
X101626Y-14441D02*
X101626Y-14341D01*
X101626Y-16441D02*
X101626Y-16541D01*
X101376Y-14691D02*
X101876Y-14691D01*
X95676Y-23941D02*
X95676Y-21941D01*
X95676Y-21941D02*
X95976Y-21941D01*
X95976Y-21941D02*
X96276Y-21941D01*
X96276Y-21941D02*
X96276Y-23941D01*
X96276Y-23941D02*
X95976Y-23941D01*
X95976Y-23941D02*
X95676Y-23941D01*
X95976Y-21941D02*
X95976Y-21841D01*
X95976Y-23941D02*
X95976Y-24041D01*
X95726Y-22191D02*
X96226Y-22191D01*
X103776Y-26441D02*
X103776Y-28441D01*
X103776Y-28441D02*
X103476Y-28441D01*
X103476Y-28441D02*
X103176Y-28441D01*
X103176Y-28441D02*
X103176Y-26441D01*
X103176Y-26441D02*
X103476Y-26441D01*
X103476Y-26441D02*
X103776Y-26441D01*
X103476Y-28441D02*
X103476Y-28541D01*
X103476Y-26441D02*
X103476Y-26341D01*
X103726Y-28191D02*
X103226Y-28191D01*
X104126Y-23941D02*
X104126Y-21941D01*
X104126Y-21941D02*
X104426Y-21941D01*
X104426Y-21941D02*
X104726Y-21941D01*
X104726Y-21941D02*
X104726Y-23941D01*
X104726Y-23941D02*
X104426Y-23941D01*
X104426Y-23941D02*
X104126Y-23941D01*
X104426Y-21941D02*
X104426Y-21841D01*
X104426Y-23941D02*
X104426Y-24041D01*
X104176Y-22191D02*
X104676Y-22191D01*
X104126Y-8941D02*
X104126Y-6941D01*
X104126Y-6941D02*
X104426Y-6941D01*
X104426Y-6941D02*
X104726Y-6941D01*
X104726Y-6941D02*
X104726Y-8941D01*
X104726Y-8941D02*
X104426Y-8941D01*
X104426Y-8941D02*
X104126Y-8941D01*
X104426Y-6941D02*
X104426Y-6841D01*
X104426Y-8941D02*
X104426Y-9041D01*
X104176Y-7191D02*
X104676Y-7191D01*
X24426Y-23941D02*
X24426Y-21941D01*
X24426Y-21941D02*
X24726Y-21941D01*
X24726Y-21941D02*
X25026Y-21941D01*
X25026Y-21941D02*
X25026Y-23941D01*
X25026Y-23941D02*
X24726Y-23941D01*
X24726Y-23941D02*
X24426Y-23941D01*
X24726Y-21941D02*
X24726Y-21841D01*
X24726Y-23941D02*
X24726Y-24041D01*
X24476Y-22191D02*
X24976Y-22191D01*
X59126Y-8941D02*
X59126Y-6941D01*
X59126Y-6941D02*
X59426Y-6941D01*
X59426Y-6941D02*
X59726Y-6941D01*
X59726Y-6941D02*
X59726Y-8941D01*
X59726Y-8941D02*
X59426Y-8941D01*
X59426Y-8941D02*
X59126Y-8941D01*
X59426Y-6941D02*
X59426Y-6841D01*
X59426Y-8941D02*
X59426Y-9041D01*
X59176Y-7191D02*
X59676Y-7191D01*
X35226Y-8941D02*
X35226Y-6941D01*
X35226Y-6941D02*
X35526Y-6941D01*
X35526Y-6941D02*
X35826Y-6941D01*
X35826Y-6941D02*
X35826Y-8941D01*
X35826Y-8941D02*
X35526Y-8941D01*
X35526Y-8941D02*
X35226Y-8941D01*
X35526Y-6941D02*
X35526Y-6841D01*
X35526Y-8941D02*
X35526Y-9041D01*
X35276Y-7191D02*
X35776Y-7191D01*
X36676Y-8941D02*
X36676Y-6941D01*
X36676Y-6941D02*
X36976Y-6941D01*
X36976Y-6941D02*
X37276Y-6941D01*
X37276Y-6941D02*
X37276Y-8941D01*
X37276Y-8941D02*
X36976Y-8941D01*
X36976Y-8941D02*
X36676Y-8941D01*
X36976Y-6941D02*
X36976Y-6841D01*
X36976Y-8941D02*
X36976Y-9041D01*
X36726Y-7191D02*
X37226Y-7191D01*
X22576Y-16441D02*
X22576Y-14441D01*
X22576Y-14441D02*
X22876Y-14441D01*
X22876Y-14441D02*
X23176Y-14441D01*
X23176Y-14441D02*
X23176Y-16441D01*
X23176Y-16441D02*
X22876Y-16441D01*
X22876Y-16441D02*
X22576Y-16441D01*
X22876Y-14441D02*
X22876Y-14341D01*
X22876Y-16441D02*
X22876Y-16541D01*
X22626Y-14691D02*
X23126Y-14691D01*
X31026Y-16441D02*
X31026Y-14441D01*
X31026Y-14441D02*
X31326Y-14441D01*
X31326Y-14441D02*
X31626Y-14441D01*
X31626Y-14441D02*
X31626Y-16441D01*
X31626Y-16441D02*
X31326Y-16441D01*
X31326Y-16441D02*
X31026Y-16441D01*
X31326Y-14441D02*
X31326Y-14341D01*
X31326Y-16441D02*
X31326Y-16541D01*
X31076Y-14691D02*
X31576Y-14691D01*
X34726Y-23941D02*
X34726Y-21941D01*
X34726Y-21941D02*
X35026Y-21941D01*
X35026Y-21941D02*
X35326Y-21941D01*
X35326Y-21941D02*
X35326Y-23941D01*
X35326Y-23941D02*
X35026Y-23941D01*
X35026Y-23941D02*
X34726Y-23941D01*
X35026Y-21941D02*
X35026Y-21841D01*
X35026Y-23941D02*
X35026Y-24041D01*
X34776Y-22191D02*
X35276Y-22191D01*
X38526Y-16441D02*
X38526Y-14441D01*
X38526Y-14441D02*
X38826Y-14441D01*
X38826Y-14441D02*
X39126Y-14441D01*
X39126Y-14441D02*
X39126Y-16441D01*
X39126Y-16441D02*
X38826Y-16441D01*
X38826Y-16441D02*
X38526Y-16441D01*
X38826Y-14441D02*
X38826Y-14341D01*
X38826Y-16441D02*
X38826Y-16541D01*
X38576Y-14691D02*
X39076Y-14691D01*
X42226Y-23941D02*
X42226Y-21941D01*
X42226Y-21941D02*
X42526Y-21941D01*
X42526Y-21941D02*
X42826Y-21941D01*
X42826Y-21941D02*
X42826Y-23941D01*
X42826Y-23941D02*
X42526Y-23941D01*
X42526Y-23941D02*
X42226Y-23941D01*
X42526Y-21941D02*
X42526Y-21841D01*
X42526Y-23941D02*
X42526Y-24041D01*
X42276Y-22191D02*
X42776Y-22191D01*
X31676Y-26441D02*
X31676Y-28441D01*
X31676Y-28441D02*
X31376Y-28441D01*
X31376Y-28441D02*
X31076Y-28441D01*
X31076Y-28441D02*
X31076Y-26441D01*
X31076Y-26441D02*
X31376Y-26441D01*
X31376Y-26441D02*
X31676Y-26441D01*
X31376Y-28441D02*
X31376Y-28541D01*
X31376Y-26441D02*
X31376Y-26341D01*
X31626Y-28191D02*
X31126Y-28191D01*
X39176Y-26441D02*
X39176Y-28441D01*
X39176Y-28441D02*
X38876Y-28441D01*
X38876Y-28441D02*
X38576Y-28441D01*
X38576Y-28441D02*
X38576Y-26441D01*
X38576Y-26441D02*
X38876Y-26441D01*
X38876Y-26441D02*
X39176Y-26441D01*
X38876Y-28441D02*
X38876Y-28541D01*
X38876Y-26441D02*
X38876Y-26341D01*
X39126Y-28191D02*
X38626Y-28191D01*
X57826Y-18941D02*
X57826Y-20941D01*
X57826Y-20941D02*
X57526Y-20941D01*
X57526Y-20941D02*
X57226Y-20941D01*
X57226Y-20941D02*
X57226Y-18941D01*
X57226Y-18941D02*
X57526Y-18941D01*
X57526Y-18941D02*
X57826Y-18941D01*
X57526Y-20941D02*
X57526Y-21041D01*
X57526Y-18941D02*
X57526Y-18841D01*
X57776Y-20691D02*
X57276Y-20691D01*
X61026Y-16441D02*
X61026Y-14441D01*
X61026Y-14441D02*
X61326Y-14441D01*
X61326Y-14441D02*
X61626Y-14441D01*
X61626Y-14441D02*
X61626Y-16441D01*
X61626Y-16441D02*
X61326Y-16441D01*
X61326Y-16441D02*
X61026Y-16441D01*
X61326Y-14441D02*
X61326Y-14341D01*
X61326Y-16441D02*
X61326Y-16541D01*
X61076Y-14691D02*
X61576Y-14691D01*
X64726Y-23941D02*
X64726Y-21941D01*
X64726Y-21941D02*
X65026Y-21941D01*
X65026Y-21941D02*
X65326Y-21941D01*
X65326Y-21941D02*
X65326Y-23941D01*
X65326Y-23941D02*
X65026Y-23941D01*
X65026Y-23941D02*
X64726Y-23941D01*
X65026Y-21941D02*
X65026Y-21841D01*
X65026Y-23941D02*
X65026Y-24041D01*
X64776Y-22191D02*
X65276Y-22191D01*
X44126Y-8941D02*
X44126Y-6941D01*
X44126Y-6941D02*
X44426Y-6941D01*
X44426Y-6941D02*
X44726Y-6941D01*
X44726Y-6941D02*
X44726Y-8941D01*
X44726Y-8941D02*
X44426Y-8941D01*
X44426Y-8941D02*
X44126Y-8941D01*
X44426Y-6941D02*
X44426Y-6841D01*
X44426Y-8941D02*
X44426Y-9041D01*
X44176Y-7191D02*
X44676Y-7191D01*
X46026Y-16441D02*
X46026Y-14441D01*
X46026Y-14441D02*
X46326Y-14441D01*
X46326Y-14441D02*
X46626Y-14441D01*
X46626Y-14441D02*
X46626Y-16441D01*
X46626Y-16441D02*
X46326Y-16441D01*
X46326Y-16441D02*
X46026Y-16441D01*
X46326Y-14441D02*
X46326Y-14341D01*
X46326Y-16441D02*
X46326Y-16541D01*
X46076Y-14691D02*
X46576Y-14691D01*
X50326Y-18941D02*
X50326Y-20941D01*
X50326Y-20941D02*
X50026Y-20941D01*
X50026Y-20941D02*
X49726Y-20941D01*
X49726Y-20941D02*
X49726Y-18941D01*
X49726Y-18941D02*
X50026Y-18941D01*
X50026Y-18941D02*
X50326Y-18941D01*
X50026Y-20941D02*
X50026Y-21041D01*
X50026Y-18941D02*
X50026Y-18841D01*
X50276Y-20691D02*
X49776Y-20691D01*
X51626Y-8941D02*
X51626Y-6941D01*
X51626Y-6941D02*
X51926Y-6941D01*
X51926Y-6941D02*
X52226Y-6941D01*
X52226Y-6941D02*
X52226Y-8941D01*
X52226Y-8941D02*
X51926Y-8941D01*
X51926Y-8941D02*
X51626Y-8941D01*
X51926Y-6941D02*
X51926Y-6841D01*
X51926Y-8941D02*
X51926Y-9041D01*
X51676Y-7191D02*
X52176Y-7191D01*
X66626Y-8941D02*
X66626Y-6941D01*
X66626Y-6941D02*
X66926Y-6941D01*
X66926Y-6941D02*
X67226Y-6941D01*
X67226Y-6941D02*
X67226Y-8941D01*
X67226Y-8941D02*
X66926Y-8941D01*
X66926Y-8941D02*
X66626Y-8941D01*
X66926Y-6941D02*
X66926Y-6841D01*
X66926Y-8941D02*
X66926Y-9041D01*
X66676Y-7191D02*
X67176Y-7191D01*
G54D15*
G36*
X74289Y-31695D02*
X74275Y-31787D01*
X74250Y-31915D01*
X74224Y-32027D01*
X74173Y-32218D01*
X74127Y-32348D01*
X74082Y-32422D01*
X74071Y-32432D01*
X73998Y-32469D01*
X73905Y-32488D01*
X73818Y-32487D01*
X73763Y-32464D01*
X73761Y-32460D01*
X73753Y-32398D01*
X73796Y-32346D01*
X73873Y-32324D01*
X73875Y-32324D01*
X73919Y-32321D01*
X73950Y-32303D01*
X73975Y-32258D01*
X74000Y-32174D01*
X74033Y-32039D01*
X74038Y-32016D01*
X74069Y-31877D01*
X74093Y-31761D01*
X74107Y-31684D01*
X74109Y-31666D01*
X74136Y-31636D01*
X74197Y-31624D01*
X74259Y-31632D01*
X74289Y-31652D01*
X74289Y-31695D01*
X74289Y-31695D01*
X74289Y-31695D01*
G37*
G36*
X77136Y-31770D02*
X77129Y-31883D01*
X77101Y-32010D01*
X77056Y-32125D01*
X77042Y-32150D01*
X76991Y-32219D01*
X76957Y-32237D01*
X76957Y-31881D01*
X76950Y-31819D01*
X76901Y-31793D01*
X76861Y-31791D01*
X76805Y-31804D01*
X76773Y-31856D01*
X76761Y-31910D01*
X76741Y-32003D01*
X76722Y-32072D01*
X76720Y-32076D01*
X76727Y-32113D01*
X76785Y-32124D01*
X76845Y-32110D01*
X76891Y-32057D01*
X76922Y-31988D01*
X76957Y-31881D01*
X76957Y-32237D01*
X76933Y-32250D01*
X76840Y-32257D01*
X76830Y-32257D01*
X76736Y-32262D01*
X76688Y-32283D01*
X76664Y-32332D01*
X76662Y-32341D01*
X76625Y-32398D01*
X76567Y-32426D01*
X76510Y-32422D01*
X76477Y-32382D01*
X76476Y-32366D01*
X76484Y-32310D01*
X76505Y-32206D01*
X76537Y-32072D01*
X76559Y-31981D01*
X76594Y-31843D01*
X76622Y-31731D01*
X76639Y-31659D01*
X76642Y-31641D01*
X76673Y-31635D01*
X76752Y-31632D01*
X76864Y-31634D01*
X77001Y-31644D01*
X77083Y-31665D01*
X77118Y-31693D01*
X77136Y-31770D01*
X77136Y-31770D01*
X77136Y-31770D01*
G37*
G36*
X74953Y-31482D02*
X74952Y-31523D01*
X74935Y-31613D01*
X74907Y-31736D01*
X74889Y-31807D01*
X74854Y-31949D01*
X74827Y-32073D01*
X74811Y-32161D01*
X74810Y-32183D01*
X74783Y-32256D01*
X74720Y-32286D01*
X74695Y-32278D01*
X74695Y-31825D01*
X74675Y-31795D01*
X74628Y-31791D01*
X74566Y-31808D01*
X74519Y-31871D01*
X74500Y-31915D01*
X74472Y-32004D01*
X74464Y-32071D01*
X74466Y-32081D01*
X74509Y-32119D01*
X74574Y-32117D01*
X74629Y-32078D01*
X74636Y-32066D01*
X74664Y-31991D01*
X74687Y-31899D01*
X74695Y-31825D01*
X74695Y-32278D01*
X74639Y-32263D01*
X74579Y-32244D01*
X74558Y-32258D01*
X74504Y-32285D01*
X74399Y-32275D01*
X74369Y-32268D01*
X74312Y-32222D01*
X74285Y-32133D01*
X74288Y-32016D01*
X74319Y-31887D01*
X74379Y-31763D01*
X74388Y-31750D01*
X74451Y-31675D01*
X74528Y-31638D01*
X74610Y-31624D01*
X74706Y-31607D01*
X74753Y-31579D01*
X74769Y-31532D01*
X74800Y-31472D01*
X74859Y-31457D01*
X74926Y-31467D01*
X74953Y-31482D01*
X74953Y-31482D01*
X74953Y-31482D01*
G37*
G36*
X75476Y-31691D02*
X75464Y-31734D01*
X75419Y-31753D01*
X75343Y-31757D01*
X75250Y-31765D01*
X75195Y-31799D01*
X75160Y-31856D01*
X75123Y-31954D01*
X75109Y-32042D01*
X75114Y-32096D01*
X75139Y-32120D01*
X75205Y-32122D01*
X75259Y-32119D01*
X75358Y-32116D01*
X75401Y-32133D01*
X75396Y-32180D01*
X75374Y-32226D01*
X75315Y-32274D01*
X75219Y-32293D01*
X75111Y-32286D01*
X75013Y-32251D01*
X74974Y-32222D01*
X74932Y-32167D01*
X74919Y-32101D01*
X74928Y-31998D01*
X74928Y-31997D01*
X74965Y-31835D01*
X75018Y-31715D01*
X75084Y-31649D01*
X75094Y-31645D01*
X75158Y-31632D01*
X75259Y-31625D01*
X75312Y-31624D01*
X75411Y-31627D01*
X75459Y-31643D01*
X75475Y-31677D01*
X75476Y-31691D01*
X75476Y-31691D01*
X75476Y-31691D01*
G37*
G36*
X76034Y-31732D02*
X76024Y-31834D01*
X76002Y-31962D01*
X75993Y-32006D01*
X75935Y-32282D01*
X75796Y-32282D01*
X75796Y-32010D01*
X75794Y-31970D01*
X75740Y-31957D01*
X75733Y-31957D01*
X75660Y-31980D01*
X75620Y-32033D01*
X75627Y-32094D01*
X75669Y-32118D01*
X75728Y-32122D01*
X75770Y-32106D01*
X75776Y-32093D01*
X75786Y-32037D01*
X75796Y-32010D01*
X75796Y-32282D01*
X75723Y-32282D01*
X75574Y-32274D01*
X75487Y-32249D01*
X75472Y-32236D01*
X75451Y-32170D01*
X75451Y-32071D01*
X75469Y-31966D01*
X75502Y-31884D01*
X75510Y-31873D01*
X75572Y-31839D01*
X75676Y-31824D01*
X75694Y-31824D01*
X75787Y-31817D01*
X75849Y-31799D01*
X75859Y-31791D01*
X75844Y-31769D01*
X75773Y-31758D01*
X75744Y-31757D01*
X75656Y-31752D01*
X75617Y-31730D01*
X75609Y-31691D01*
X75616Y-31653D01*
X75648Y-31633D01*
X75720Y-31625D01*
X75810Y-31624D01*
X75932Y-31629D01*
X76001Y-31645D01*
X76031Y-31676D01*
X76031Y-31677D01*
X76034Y-31732D01*
X76034Y-31732D01*
X76034Y-31732D01*
G37*
G36*
X76571Y-31660D02*
X76569Y-31682D01*
X76527Y-31732D01*
X76451Y-31751D01*
X76401Y-31758D01*
X76365Y-31775D01*
X76338Y-31814D01*
X76312Y-31886D01*
X76283Y-32002D01*
X76253Y-32141D01*
X76221Y-32235D01*
X76175Y-32278D01*
X76153Y-32284D01*
X76087Y-32279D01*
X76062Y-32263D01*
X76061Y-32218D01*
X76073Y-32125D01*
X76097Y-32000D01*
X76113Y-31927D01*
X76184Y-31624D01*
X76382Y-31624D01*
X76493Y-31626D01*
X76551Y-31637D01*
X76571Y-31660D01*
X76571Y-31660D01*
X76571Y-31660D01*
G37*
G36*
X77692Y-31974D02*
X77559Y-31980D01*
X77559Y-31810D01*
X77559Y-31807D01*
X77532Y-31774D01*
X77471Y-31763D01*
X77406Y-31773D01*
X77364Y-31805D01*
X77363Y-31807D01*
X77361Y-31844D01*
X77402Y-31854D01*
X77451Y-31851D01*
X77524Y-31835D01*
X77559Y-31810D01*
X77559Y-31980D01*
X77501Y-31984D01*
X77392Y-31992D01*
X77334Y-32008D01*
X77312Y-32036D01*
X77309Y-32063D01*
X77315Y-32104D01*
X77344Y-32121D01*
X77414Y-32120D01*
X77474Y-32114D01*
X77571Y-32104D01*
X77616Y-32108D01*
X77623Y-32133D01*
X77612Y-32167D01*
X77587Y-32209D01*
X77541Y-32233D01*
X77456Y-32246D01*
X77380Y-32250D01*
X77260Y-32253D01*
X77192Y-32242D01*
X77159Y-32217D01*
X77154Y-32207D01*
X77143Y-32120D01*
X77152Y-31999D01*
X77178Y-31871D01*
X77214Y-31764D01*
X77237Y-31724D01*
X77282Y-31676D01*
X77338Y-31651D01*
X77428Y-31641D01*
X77496Y-31641D01*
X77692Y-31641D01*
X77692Y-31807D01*
X77692Y-31974D01*
X77692Y-31974D01*
X77692Y-31974D01*
G37*
G36*
X74326Y-31528D02*
X74292Y-31566D01*
X74231Y-31585D01*
X74164Y-31584D01*
X74146Y-31556D01*
X74148Y-31535D01*
X74188Y-31484D01*
X74243Y-31474D01*
X74310Y-31491D01*
X74326Y-31528D01*
X74326Y-31528D01*
X74326Y-31528D01*
G37*
G36*
X76461Y-28231D02*
X76458Y-28270D01*
X76411Y-28329D01*
X76333Y-28396D01*
X76238Y-28459D01*
X76215Y-28471D01*
X76111Y-28531D01*
X76024Y-28594D01*
X75995Y-28620D01*
X75922Y-28679D01*
X75863Y-28684D01*
X75833Y-28649D01*
X75816Y-28632D01*
X75802Y-28666D01*
X75792Y-28734D01*
X75788Y-28820D01*
X75790Y-28907D01*
X75801Y-28979D01*
X75803Y-28985D01*
X75828Y-29103D01*
X75839Y-29220D01*
X75839Y-29224D01*
X75841Y-29336D01*
X75848Y-29436D01*
X75837Y-29532D01*
X75780Y-29581D01*
X75683Y-29580D01*
X75636Y-29565D01*
X75546Y-29545D01*
X75492Y-29559D01*
X75486Y-29603D01*
X75508Y-29640D01*
X75577Y-29676D01*
X75617Y-29671D01*
X75688Y-29671D01*
X75783Y-29697D01*
X75812Y-29709D01*
X75895Y-29752D01*
X75932Y-29799D01*
X75942Y-29877D01*
X75942Y-29906D01*
X75930Y-30025D01*
X75888Y-30089D01*
X75808Y-30108D01*
X75763Y-30104D01*
X75665Y-30110D01*
X75571Y-30164D01*
X75559Y-30174D01*
X75459Y-30259D01*
X75609Y-30234D01*
X75738Y-30217D01*
X75868Y-30208D01*
X75892Y-30208D01*
X75979Y-30213D01*
X76018Y-30235D01*
X76026Y-30274D01*
X76020Y-30309D01*
X75992Y-30328D01*
X75928Y-30333D01*
X75813Y-30329D01*
X75809Y-30329D01*
X75692Y-30325D01*
X75633Y-30331D01*
X75623Y-30348D01*
X75630Y-30357D01*
X75682Y-30380D01*
X75778Y-30399D01*
X75871Y-30408D01*
X75985Y-30417D01*
X76072Y-30430D01*
X76108Y-30440D01*
X76127Y-30483D01*
X76139Y-30570D01*
X76142Y-30642D01*
X76134Y-30771D01*
X76105Y-30854D01*
X76078Y-30888D01*
X75990Y-30941D01*
X75865Y-30974D01*
X75734Y-30983D01*
X75626Y-30963D01*
X75619Y-30960D01*
X75552Y-30937D01*
X75519Y-30936D01*
X75527Y-30967D01*
X75572Y-31014D01*
X75636Y-31059D01*
X75697Y-31088D01*
X75715Y-31091D01*
X75762Y-31112D01*
X75776Y-31179D01*
X75779Y-31240D01*
X75801Y-31242D01*
X75838Y-31211D01*
X75916Y-31177D01*
X76016Y-31202D01*
X76123Y-31272D01*
X76162Y-31306D01*
X76169Y-31330D01*
X76134Y-31353D01*
X76048Y-31384D01*
X75995Y-31402D01*
X75818Y-31448D01*
X75680Y-31449D01*
X75570Y-31407D01*
X75536Y-31382D01*
X75458Y-31281D01*
X75389Y-31113D01*
X75377Y-31075D01*
X75319Y-30923D01*
X75233Y-30747D01*
X75133Y-30576D01*
X75126Y-30565D01*
X75044Y-30432D01*
X74972Y-30305D01*
X74922Y-30205D01*
X74907Y-30170D01*
X74879Y-30096D01*
X74854Y-30076D01*
X74816Y-30100D01*
X74811Y-30105D01*
X74760Y-30145D01*
X74722Y-30146D01*
X74684Y-30101D01*
X74637Y-30016D01*
X74588Y-29888D01*
X74563Y-29733D01*
X74558Y-29633D01*
X74551Y-29494D01*
X74532Y-29395D01*
X74495Y-29313D01*
X74462Y-29262D01*
X74420Y-29182D01*
X74383Y-29081D01*
X74356Y-28974D01*
X74340Y-28876D01*
X74338Y-28802D01*
X74353Y-28767D01*
X74370Y-28771D01*
X74399Y-28819D01*
X74409Y-28886D01*
X74440Y-28988D01*
X74509Y-29074D01*
X74580Y-29165D01*
X74609Y-29252D01*
X74610Y-29255D01*
X74621Y-29326D01*
X74649Y-29416D01*
X74686Y-29506D01*
X74724Y-29579D01*
X74754Y-29615D01*
X74763Y-29614D01*
X74767Y-29572D01*
X74749Y-29496D01*
X74745Y-29484D01*
X74711Y-29345D01*
X74690Y-29172D01*
X74684Y-28994D01*
X74693Y-28837D01*
X74707Y-28764D01*
X74746Y-28621D01*
X74856Y-28689D01*
X75002Y-28745D01*
X75123Y-28757D01*
X75218Y-28763D01*
X75260Y-28780D01*
X75259Y-28791D01*
X75212Y-28819D01*
X75176Y-28824D01*
X75102Y-28848D01*
X75018Y-28906D01*
X74947Y-28980D01*
X74910Y-29050D01*
X74909Y-29062D01*
X74914Y-29100D01*
X74936Y-29092D01*
X74986Y-29038D01*
X75045Y-28980D01*
X75094Y-28970D01*
X75131Y-28985D01*
X75204Y-29003D01*
X75263Y-28974D01*
X75336Y-28935D01*
X75381Y-28925D01*
X75449Y-28902D01*
X75490Y-28871D01*
X75519Y-28833D01*
X75507Y-28800D01*
X75448Y-28754D01*
X75432Y-28743D01*
X75299Y-28683D01*
X75119Y-28647D01*
X75108Y-28646D01*
X74978Y-28627D01*
X74889Y-28596D01*
X74814Y-28544D01*
X74785Y-28517D01*
X74706Y-28432D01*
X74679Y-28380D01*
X74703Y-28365D01*
X74739Y-28373D01*
X74801Y-28374D01*
X74825Y-28358D01*
X74865Y-28337D01*
X74878Y-28342D01*
X74931Y-28344D01*
X74949Y-28336D01*
X74998Y-28325D01*
X75097Y-28316D01*
X75229Y-28309D01*
X75305Y-28308D01*
X75443Y-28303D01*
X75552Y-28293D01*
X75619Y-28280D01*
X75632Y-28271D01*
X75669Y-28254D01*
X75747Y-28250D01*
X75776Y-28251D01*
X75867Y-28253D01*
X75906Y-28233D01*
X75909Y-28218D01*
X75921Y-28195D01*
X75964Y-28185D01*
X76051Y-28185D01*
X76178Y-28195D01*
X76304Y-28207D01*
X76403Y-28219D01*
X76456Y-28229D01*
X76461Y-28231D01*
X76461Y-28231D01*
X76461Y-28231D01*
G37*
G36*
X76776Y-29199D02*
X76770Y-29332D01*
X76747Y-29428D01*
X76700Y-29517D01*
X76684Y-29541D01*
X76617Y-29659D01*
X76564Y-29790D01*
X76554Y-29824D01*
X76532Y-29900D01*
X76517Y-29930D01*
X76513Y-29921D01*
X76486Y-29859D01*
X76442Y-29807D01*
X76391Y-29731D01*
X76376Y-29664D01*
X76347Y-29580D01*
X76270Y-29482D01*
X76259Y-29472D01*
X76182Y-29386D01*
X76148Y-29305D01*
X76142Y-29234D01*
X76130Y-29125D01*
X76101Y-29030D01*
X76098Y-29023D01*
X76068Y-28933D01*
X76082Y-28874D01*
X76125Y-28857D01*
X76172Y-28830D01*
X76191Y-28799D01*
X76212Y-28759D01*
X76237Y-28774D01*
X76257Y-28799D01*
X76319Y-28848D01*
X76387Y-28852D01*
X76427Y-28822D01*
X76465Y-28806D01*
X76487Y-28819D01*
X76537Y-28850D01*
X76606Y-28857D01*
X76609Y-28857D01*
X76655Y-28879D01*
X76709Y-28924D01*
X76748Y-28980D01*
X76769Y-29060D01*
X76775Y-29184D01*
X76776Y-29199D01*
X76776Y-29199D01*
X76776Y-29199D01*
G37*
G36*
X76630Y-28791D02*
X76601Y-28774D01*
X76558Y-28745D01*
X76478Y-28705D01*
X76384Y-28675D01*
X76302Y-28652D01*
X76281Y-28624D01*
X76317Y-28583D01*
X76334Y-28570D01*
X76420Y-28528D01*
X76493Y-28547D01*
X76558Y-28630D01*
X76572Y-28657D01*
X76609Y-28737D01*
X76629Y-28785D01*
X76630Y-28791D01*
X76630Y-28791D01*
X76630Y-28791D01*
G37*
G36*
X75473Y-28009D02*
X75456Y-28063D01*
X75450Y-28069D01*
X75404Y-28073D01*
X75320Y-28065D01*
X75284Y-28059D01*
X75194Y-28047D01*
X75135Y-28047D01*
X75126Y-28051D01*
X75075Y-28069D01*
X74997Y-28072D01*
X74927Y-28060D01*
X74903Y-28045D01*
X74862Y-28034D01*
X74828Y-28055D01*
X74788Y-28079D01*
X74776Y-28047D01*
X74776Y-28028D01*
X74762Y-27968D01*
X74722Y-27968D01*
X74658Y-28028D01*
X74648Y-28041D01*
X74589Y-28107D01*
X74561Y-28116D01*
X74567Y-28067D01*
X74579Y-28029D01*
X74622Y-27944D01*
X74689Y-27847D01*
X74710Y-27821D01*
X74809Y-27707D01*
X74788Y-27807D01*
X74777Y-27873D01*
X74786Y-27881D01*
X74820Y-27841D01*
X74860Y-27795D01*
X74873Y-27805D01*
X74874Y-27849D01*
X74885Y-27903D01*
X74929Y-27911D01*
X74959Y-27904D01*
X75022Y-27899D01*
X75042Y-27931D01*
X75042Y-27937D01*
X75059Y-27985D01*
X75106Y-27976D01*
X75140Y-27949D01*
X75179Y-27924D01*
X75199Y-27949D01*
X75234Y-27983D01*
X75282Y-27988D01*
X75309Y-27960D01*
X75309Y-27955D01*
X75330Y-27936D01*
X75344Y-27942D01*
X75379Y-27932D01*
X75399Y-27891D01*
X75419Y-27844D01*
X75444Y-27859D01*
X75446Y-27863D01*
X75470Y-27931D01*
X75473Y-28009D01*
X75473Y-28009D01*
X75473Y-28009D01*
G37*
G36*
X76203Y-27694D02*
X76181Y-27717D01*
X76145Y-27756D01*
X76142Y-27777D01*
X76123Y-27819D01*
X76109Y-27824D01*
X76079Y-27851D01*
X76076Y-27874D01*
X76056Y-27919D01*
X76014Y-27913D01*
X75989Y-27886D01*
X75959Y-27880D01*
X75922Y-27928D01*
X75890Y-27973D01*
X75877Y-27969D01*
X75851Y-27948D01*
X75798Y-27950D01*
X75752Y-27969D01*
X75742Y-27987D01*
X75714Y-28005D01*
X75674Y-28010D01*
X75622Y-27991D01*
X75617Y-27958D01*
X75654Y-27917D01*
X75685Y-27912D01*
X75734Y-27896D01*
X75742Y-27876D01*
X75770Y-27846D01*
X75817Y-27841D01*
X75910Y-27825D01*
X76009Y-27775D01*
X76093Y-27706D01*
X76140Y-27632D01*
X76143Y-27610D01*
X76157Y-27605D01*
X76182Y-27639D01*
X76203Y-27694D01*
X76203Y-27694D01*
X76203Y-27694D01*
G37*
G36*
X109917Y-15812D02*
X109909Y-15841D01*
X109889Y-15814D01*
X109846Y-15742D01*
X109790Y-15639D01*
X109776Y-15612D01*
X109762Y-15587D01*
X109762Y-15391D01*
X109739Y-15291D01*
X109700Y-15150D01*
X109640Y-14969D01*
X109566Y-14767D01*
X109487Y-14564D01*
X109409Y-14380D01*
X109353Y-14262D01*
X109289Y-14136D01*
X109245Y-14062D01*
X109216Y-14031D01*
X109192Y-14033D01*
X109168Y-14059D01*
X109106Y-14158D01*
X109033Y-14304D01*
X108957Y-14480D01*
X108884Y-14668D01*
X108822Y-14852D01*
X108809Y-14894D01*
X108780Y-15004D01*
X108748Y-15140D01*
X108715Y-15288D01*
X108685Y-15436D01*
X108660Y-15568D01*
X108643Y-15671D01*
X108637Y-15731D01*
X108639Y-15741D01*
X108663Y-15720D01*
X108725Y-15662D01*
X108814Y-15578D01*
X108881Y-15515D01*
X109006Y-15404D01*
X109136Y-15299D01*
X109251Y-15219D01*
X109288Y-15197D01*
X109405Y-15142D01*
X109492Y-15131D01*
X109569Y-15169D01*
X109656Y-15260D01*
X109675Y-15283D01*
X109762Y-15391D01*
X109762Y-15587D01*
X109704Y-15487D01*
X109628Y-15374D01*
X109564Y-15296D01*
X109561Y-15293D01*
X109493Y-15236D01*
X109443Y-15222D01*
X109388Y-15242D01*
X109229Y-15343D01*
X109054Y-15487D01*
X108881Y-15657D01*
X108758Y-15798D01*
X108666Y-15911D01*
X108608Y-15977D01*
X108576Y-16001D01*
X108562Y-15990D01*
X108559Y-15949D01*
X108559Y-15946D01*
X108568Y-15821D01*
X108592Y-15649D01*
X108629Y-15446D01*
X108674Y-15229D01*
X108725Y-15015D01*
X108777Y-14821D01*
X108811Y-14711D01*
X108869Y-14553D01*
X108940Y-14387D01*
X109016Y-14225D01*
X109090Y-14082D01*
X109157Y-13970D01*
X109210Y-13903D01*
X109221Y-13894D01*
X109249Y-13913D01*
X109297Y-13983D01*
X109360Y-14091D01*
X109432Y-14228D01*
X109506Y-14381D01*
X109578Y-14541D01*
X109625Y-14656D01*
X109671Y-14783D01*
X109719Y-14938D01*
X109768Y-15109D01*
X109814Y-15286D01*
X109855Y-15456D01*
X109887Y-15608D01*
X109909Y-15731D01*
X109917Y-15812D01*
X109917Y-15812D01*
X109917Y-15812D01*
G37*
G36*
X109476Y-14815D02*
X109399Y-14851D01*
X109340Y-14902D01*
X109337Y-14947D01*
X109337Y-14999D01*
X109312Y-15001D01*
X109279Y-14953D01*
X109277Y-14950D01*
X109257Y-14916D01*
X109229Y-14929D01*
X109190Y-14975D01*
X109124Y-15058D01*
X109144Y-14969D01*
X109149Y-14899D01*
X109110Y-14864D01*
X109095Y-14859D01*
X109037Y-14826D01*
X109033Y-14792D01*
X109084Y-14775D01*
X109090Y-14775D01*
X109132Y-14761D01*
X109158Y-14712D01*
X109175Y-14616D01*
X109193Y-14485D01*
X109215Y-14355D01*
X109221Y-14325D01*
X109234Y-14265D01*
X109244Y-14248D01*
X109253Y-14280D01*
X109263Y-14367D01*
X109273Y-14468D01*
X109288Y-14605D01*
X109303Y-14691D01*
X109325Y-14740D01*
X109359Y-14767D01*
X109388Y-14780D01*
X109476Y-14815D01*
X109476Y-14815D01*
X109476Y-14815D01*
G37*
G54D16*
X32576Y-21141D02*
X32576Y-23641D01*
X32576Y-23641D02*
X31576Y-23641D01*
X31576Y-23641D02*
X31576Y-21141D01*
X31576Y-21141D02*
X32576Y-21141D01*
X32076Y-24391D02*
X32076Y-23641D01*
X32076Y-20391D02*
X32076Y-21141D01*
G54D14*
X21626Y-8941D02*
X21626Y-6941D01*
X21626Y-6941D02*
X21926Y-6941D01*
X21926Y-6941D02*
X22226Y-6941D01*
X22226Y-6941D02*
X22226Y-8941D01*
X22226Y-8941D02*
X21926Y-8941D01*
X21926Y-8941D02*
X21626Y-8941D01*
X21926Y-6941D02*
X21926Y-6841D01*
X21926Y-8941D02*
X21926Y-9041D01*
X21676Y-7191D02*
X22176Y-7191D01*
G54D16*
X25276Y-19941D02*
X25976Y-19941D01*
X29576Y-19941D02*
X30276Y-19941D01*
X30276Y-19941D02*
X30276Y-20641D01*
X30276Y-24241D02*
X30276Y-24941D01*
X30276Y-24941D02*
X29576Y-24941D01*
X25976Y-24941D02*
X25276Y-24941D01*
X25276Y-24941D02*
X25276Y-24241D01*
X25276Y-20641D02*
X25276Y-19941D01*
X102176Y-12441D02*
X102876Y-12441D01*
X106476Y-12441D02*
X107176Y-12441D01*
X107176Y-12441D02*
X107176Y-13141D01*
X107176Y-16741D02*
X107176Y-17441D01*
X107176Y-17441D02*
X106476Y-17441D01*
X102876Y-17441D02*
X102176Y-17441D01*
X102176Y-17441D02*
X102176Y-16741D01*
X102176Y-13141D02*
X102176Y-12441D01*
X23426Y-12441D02*
X24126Y-12441D01*
X27726Y-12441D02*
X28426Y-12441D01*
X28426Y-12441D02*
X28426Y-13141D01*
X28426Y-16741D02*
X28426Y-17441D01*
X28426Y-17441D02*
X27726Y-17441D01*
X24126Y-17441D02*
X23426Y-17441D01*
X23426Y-17441D02*
X23426Y-16741D01*
X23426Y-13141D02*
X23426Y-12441D01*
X104040Y-27441D02*
X104740Y-27441D01*
X108340Y-27441D02*
X109040Y-27441D01*
X109040Y-27441D02*
X109040Y-28141D01*
X109040Y-31741D02*
X109040Y-32441D01*
X109040Y-32441D02*
X108340Y-32441D01*
X104740Y-32441D02*
X104040Y-32441D01*
X104040Y-32441D02*
X104040Y-31741D01*
X104040Y-28141D02*
X104040Y-27441D01*
X23401Y-27441D02*
X24101Y-27441D01*
X27701Y-27441D02*
X28401Y-27441D01*
X28401Y-27441D02*
X28401Y-28141D01*
X28401Y-31741D02*
X28401Y-32441D01*
X28401Y-32441D02*
X27701Y-32441D01*
X24101Y-32441D02*
X23401Y-32441D01*
X23401Y-32441D02*
X23401Y-31741D01*
X23401Y-28141D02*
X23401Y-27441D01*
X37476Y-4941D02*
X38176Y-4941D01*
X41776Y-4941D02*
X42476Y-4941D01*
X42476Y-4941D02*
X42476Y-5641D01*
X42476Y-9241D02*
X42476Y-9941D01*
X42476Y-9941D02*
X41776Y-9941D01*
X38176Y-9941D02*
X37476Y-9941D01*
X37476Y-9941D02*
X37476Y-9241D01*
X37476Y-5641D02*
X37476Y-4941D01*
X74976Y-4941D02*
X75676Y-4941D01*
X79276Y-4941D02*
X79976Y-4941D01*
X79976Y-4941D02*
X79976Y-5641D01*
X79976Y-9241D02*
X79976Y-9941D01*
X79976Y-9941D02*
X79276Y-9941D01*
X75676Y-9941D02*
X74976Y-9941D01*
X74976Y-9941D02*
X74976Y-9241D01*
X74976Y-5641D02*
X74976Y-4941D01*
X89976Y-4941D02*
X90676Y-4941D01*
X94276Y-4941D02*
X94976Y-4941D01*
X94976Y-4941D02*
X94976Y-5641D01*
X94976Y-9241D02*
X94976Y-9941D01*
X94976Y-9941D02*
X94276Y-9941D01*
X90676Y-9941D02*
X89976Y-9941D01*
X89976Y-9941D02*
X89976Y-9241D01*
X89976Y-5641D02*
X89976Y-4941D01*
X29976Y-4941D02*
X30676Y-4941D01*
X34276Y-4941D02*
X34976Y-4941D01*
X34976Y-4941D02*
X34976Y-5641D01*
X34976Y-9241D02*
X34976Y-9941D01*
X34976Y-9941D02*
X34276Y-9941D01*
X30676Y-9941D02*
X29976Y-9941D01*
X29976Y-9941D02*
X29976Y-9241D01*
X29976Y-5641D02*
X29976Y-4941D01*
X22476Y-4941D02*
X23176Y-4941D01*
X26776Y-4941D02*
X27476Y-4941D01*
X27476Y-4941D02*
X27476Y-5641D01*
X27476Y-9241D02*
X27476Y-9941D01*
X27476Y-9941D02*
X26776Y-9941D01*
X23176Y-9941D02*
X22476Y-9941D01*
X22476Y-9941D02*
X22476Y-9241D01*
X22476Y-5641D02*
X22476Y-4941D01*
X44976Y-4941D02*
X45676Y-4941D01*
X49276Y-4941D02*
X49976Y-4941D01*
X49976Y-4941D02*
X49976Y-5641D01*
X49976Y-9241D02*
X49976Y-9941D01*
X49976Y-9941D02*
X49276Y-9941D01*
X45676Y-9941D02*
X44976Y-9941D01*
X44976Y-9941D02*
X44976Y-9241D01*
X44976Y-5641D02*
X44976Y-4941D01*
X59976Y-4941D02*
X60676Y-4941D01*
X64276Y-4941D02*
X64976Y-4941D01*
X64976Y-4941D02*
X64976Y-5641D01*
X64976Y-9241D02*
X64976Y-9941D01*
X64976Y-9941D02*
X64276Y-9941D01*
X60676Y-9941D02*
X59976Y-9941D01*
X59976Y-9941D02*
X59976Y-9241D01*
X59976Y-5641D02*
X59976Y-4941D01*
X52476Y-4941D02*
X53176Y-4941D01*
X56776Y-4941D02*
X57476Y-4941D01*
X57476Y-4941D02*
X57476Y-5641D01*
X57476Y-9241D02*
X57476Y-9941D01*
X57476Y-9941D02*
X56776Y-9941D01*
X53176Y-9941D02*
X52476Y-9941D01*
X52476Y-9941D02*
X52476Y-9241D01*
X52476Y-5641D02*
X52476Y-4941D01*
X67476Y-4941D02*
X68176Y-4941D01*
X71776Y-4941D02*
X72476Y-4941D01*
X72476Y-4941D02*
X72476Y-5641D01*
X72476Y-9241D02*
X72476Y-9941D01*
X72476Y-9941D02*
X71776Y-9941D01*
X68176Y-9941D02*
X67476Y-9941D01*
X67476Y-9941D02*
X67476Y-9241D01*
X67476Y-5641D02*
X67476Y-4941D01*
X43076Y-19941D02*
X43776Y-19941D01*
X47376Y-19941D02*
X48076Y-19941D01*
X48076Y-19941D02*
X48076Y-20641D01*
X48076Y-24241D02*
X48076Y-24941D01*
X48076Y-24941D02*
X47376Y-24941D01*
X43776Y-24941D02*
X43076Y-24941D01*
X43076Y-24941D02*
X43076Y-24241D01*
X43076Y-20641D02*
X43076Y-19941D01*
X82476Y-4941D02*
X83176Y-4941D01*
X86776Y-4941D02*
X87476Y-4941D01*
X87476Y-4941D02*
X87476Y-5641D01*
X87476Y-9241D02*
X87476Y-9941D01*
X87476Y-9941D02*
X86776Y-9941D01*
X83176Y-9941D02*
X82476Y-9941D01*
X82476Y-9941D02*
X82476Y-9241D01*
X82476Y-5641D02*
X82476Y-4941D01*
X39350Y-27441D02*
X40050Y-27441D01*
X43650Y-27441D02*
X44350Y-27441D01*
X44350Y-27441D02*
X44350Y-28141D01*
X44350Y-31741D02*
X44350Y-32441D01*
X44350Y-32441D02*
X43650Y-32441D01*
X40050Y-32441D02*
X39350Y-32441D01*
X39350Y-32441D02*
X39350Y-31741D01*
X39350Y-28141D02*
X39350Y-27441D01*
X31850Y-27441D02*
X32550Y-27441D01*
X36150Y-27441D02*
X36850Y-27441D01*
X36850Y-27441D02*
X36850Y-28141D01*
X36850Y-31741D02*
X36850Y-32441D01*
X36850Y-32441D02*
X36150Y-32441D01*
X32550Y-32441D02*
X31850Y-32441D01*
X31850Y-32441D02*
X31850Y-31741D01*
X31850Y-28141D02*
X31850Y-27441D01*
X88076Y-19941D02*
X88776Y-19941D01*
X92376Y-19941D02*
X93076Y-19941D01*
X93076Y-19941D02*
X93076Y-20641D01*
X93076Y-24241D02*
X93076Y-24941D01*
X93076Y-24941D02*
X92376Y-24941D01*
X88776Y-24941D02*
X88076Y-24941D01*
X88076Y-24941D02*
X88076Y-24241D01*
X88076Y-20641D02*
X88076Y-19941D01*
X80576Y-19941D02*
X81276Y-19941D01*
X84876Y-19941D02*
X85576Y-19941D01*
X85576Y-19941D02*
X85576Y-20641D01*
X85576Y-24241D02*
X85576Y-24941D01*
X85576Y-24941D02*
X84876Y-24941D01*
X81276Y-24941D02*
X80576Y-24941D01*
X80576Y-24941D02*
X80576Y-24241D01*
X80576Y-20641D02*
X80576Y-19941D01*
X73076Y-19941D02*
X73776Y-19941D01*
X77376Y-19941D02*
X78076Y-19941D01*
X78076Y-19941D02*
X78076Y-20641D01*
X78076Y-24241D02*
X78076Y-24941D01*
X78076Y-24941D02*
X77376Y-24941D01*
X73776Y-24941D02*
X73076Y-24941D01*
X73076Y-24941D02*
X73076Y-24241D01*
X73076Y-20641D02*
X73076Y-19941D01*
X65576Y-19941D02*
X66276Y-19941D01*
X69876Y-19941D02*
X70576Y-19941D01*
X70576Y-19941D02*
X70576Y-20641D01*
X70576Y-24241D02*
X70576Y-24941D01*
X70576Y-24941D02*
X69876Y-24941D01*
X66276Y-24941D02*
X65576Y-24941D01*
X65576Y-24941D02*
X65576Y-24241D01*
X65576Y-20641D02*
X65576Y-19941D01*
X58076Y-19941D02*
X58776Y-19941D01*
X62376Y-19941D02*
X63076Y-19941D01*
X63076Y-19941D02*
X63076Y-20641D01*
X63076Y-24241D02*
X63076Y-24941D01*
X63076Y-24941D02*
X62376Y-24941D01*
X58776Y-24941D02*
X58076Y-24941D01*
X58076Y-24941D02*
X58076Y-24241D01*
X58076Y-20641D02*
X58076Y-19941D01*
X50576Y-19941D02*
X51276Y-19941D01*
X54876Y-19941D02*
X55576Y-19941D01*
X55576Y-19941D02*
X55576Y-20641D01*
X55576Y-24241D02*
X55576Y-24941D01*
X55576Y-24941D02*
X54876Y-24941D01*
X51276Y-24941D02*
X50576Y-24941D01*
X50576Y-24941D02*
X50576Y-24241D01*
X50576Y-20641D02*
X50576Y-19941D01*
X97476Y-4941D02*
X98176Y-4941D01*
X101776Y-4941D02*
X102476Y-4941D01*
X102476Y-4941D02*
X102476Y-5641D01*
X102476Y-9241D02*
X102476Y-9941D01*
X102476Y-9941D02*
X101776Y-9941D01*
X98176Y-9941D02*
X97476Y-9941D01*
X97476Y-9941D02*
X97476Y-9241D01*
X97476Y-5641D02*
X97476Y-4941D01*
X35576Y-19941D02*
X36276Y-19941D01*
X39876Y-19941D02*
X40576Y-19941D01*
X40576Y-19941D02*
X40576Y-20641D01*
X40576Y-24241D02*
X40576Y-24941D01*
X40576Y-24941D02*
X39876Y-24941D01*
X36276Y-24941D02*
X35576Y-24941D01*
X35576Y-24941D02*
X35576Y-24241D01*
X35576Y-20641D02*
X35576Y-19941D01*
X91876Y-12441D02*
X92576Y-12441D01*
X96176Y-12441D02*
X96876Y-12441D01*
X96876Y-12441D02*
X96876Y-13141D01*
X96876Y-16741D02*
X96876Y-17441D01*
X96876Y-17441D02*
X96176Y-17441D01*
X92576Y-17441D02*
X91876Y-17441D01*
X91876Y-17441D02*
X91876Y-16741D01*
X91876Y-13141D02*
X91876Y-12441D01*
X84376Y-12441D02*
X85076Y-12441D01*
X88676Y-12441D02*
X89376Y-12441D01*
X89376Y-12441D02*
X89376Y-13141D01*
X89376Y-16741D02*
X89376Y-17441D01*
X89376Y-17441D02*
X88676Y-17441D01*
X85076Y-17441D02*
X84376Y-17441D01*
X84376Y-17441D02*
X84376Y-16741D01*
X84376Y-13141D02*
X84376Y-12441D01*
X76876Y-12441D02*
X77576Y-12441D01*
X81176Y-12441D02*
X81876Y-12441D01*
X81876Y-12441D02*
X81876Y-13141D01*
X81876Y-16741D02*
X81876Y-17441D01*
X81876Y-17441D02*
X81176Y-17441D01*
X77576Y-17441D02*
X76876Y-17441D01*
X76876Y-17441D02*
X76876Y-16741D01*
X76876Y-13141D02*
X76876Y-12441D01*
X69376Y-12441D02*
X70076Y-12441D01*
X73676Y-12441D02*
X74376Y-12441D01*
X74376Y-12441D02*
X74376Y-13141D01*
X74376Y-16741D02*
X74376Y-17441D01*
X74376Y-17441D02*
X73676Y-17441D01*
X70076Y-17441D02*
X69376Y-17441D01*
X69376Y-17441D02*
X69376Y-16741D01*
X69376Y-13141D02*
X69376Y-12441D01*
X61876Y-12441D02*
X62576Y-12441D01*
X66176Y-12441D02*
X66876Y-12441D01*
X66876Y-12441D02*
X66876Y-13141D01*
X66876Y-16741D02*
X66876Y-17441D01*
X66876Y-17441D02*
X66176Y-17441D01*
X62576Y-17441D02*
X61876Y-17441D01*
X61876Y-17441D02*
X61876Y-16741D01*
X61876Y-13141D02*
X61876Y-12441D01*
X54376Y-12441D02*
X55076Y-12441D01*
X58676Y-12441D02*
X59376Y-12441D01*
X59376Y-12441D02*
X59376Y-13141D01*
X59376Y-16741D02*
X59376Y-17441D01*
X59376Y-17441D02*
X58676Y-17441D01*
X55076Y-17441D02*
X54376Y-17441D01*
X54376Y-17441D02*
X54376Y-16741D01*
X54376Y-13141D02*
X54376Y-12441D01*
X46876Y-12441D02*
X47576Y-12441D01*
X51176Y-12441D02*
X51876Y-12441D01*
X51876Y-12441D02*
X51876Y-13141D01*
X51876Y-16741D02*
X51876Y-17441D01*
X51876Y-17441D02*
X51176Y-17441D01*
X47576Y-17441D02*
X46876Y-17441D01*
X46876Y-17441D02*
X46876Y-16741D01*
X46876Y-13141D02*
X46876Y-12441D01*
X39376Y-12441D02*
X40076Y-12441D01*
X43676Y-12441D02*
X44376Y-12441D01*
X44376Y-12441D02*
X44376Y-13141D01*
X44376Y-16741D02*
X44376Y-17441D01*
X44376Y-17441D02*
X43676Y-17441D01*
X40076Y-17441D02*
X39376Y-17441D01*
X39376Y-17441D02*
X39376Y-16741D01*
X39376Y-13141D02*
X39376Y-12441D01*
X31876Y-12441D02*
X32576Y-12441D01*
X36176Y-12441D02*
X36876Y-12441D01*
X36876Y-12441D02*
X36876Y-13141D01*
X36876Y-16741D02*
X36876Y-17441D01*
X36876Y-17441D02*
X36176Y-17441D01*
X32576Y-17441D02*
X31876Y-17441D01*
X31876Y-17441D02*
X31876Y-16741D01*
X31876Y-13141D02*
X31876Y-12441D01*
X104976Y-4941D02*
X105676Y-4941D01*
X109276Y-4941D02*
X109976Y-4941D01*
X109976Y-4941D02*
X109976Y-5641D01*
X109976Y-9241D02*
X109976Y-9941D01*
X109976Y-9941D02*
X109276Y-9941D01*
X105676Y-9941D02*
X104976Y-9941D01*
X104976Y-9941D02*
X104976Y-9241D01*
X104976Y-5641D02*
X104976Y-4941D01*
X94676Y-27441D02*
X95376Y-27441D01*
X98976Y-27441D02*
X99676Y-27441D01*
X99676Y-27441D02*
X99676Y-28141D01*
X99676Y-31741D02*
X99676Y-32441D01*
X99676Y-32441D02*
X98976Y-32441D01*
X95376Y-32441D02*
X94676Y-32441D01*
X94676Y-32441D02*
X94676Y-31741D01*
X94676Y-28141D02*
X94676Y-27441D01*
X104976Y-19941D02*
X105676Y-19941D01*
X109276Y-19941D02*
X109976Y-19941D01*
X109976Y-19941D02*
X109976Y-20641D01*
X109976Y-24241D02*
X109976Y-24941D01*
X109976Y-24941D02*
X109276Y-24941D01*
X105676Y-24941D02*
X104976Y-24941D01*
X104976Y-24941D02*
X104976Y-24241D01*
X104976Y-20641D02*
X104976Y-19941D01*
X96501Y-19941D02*
X97201Y-19941D01*
X100801Y-19941D02*
X101501Y-19941D01*
X101501Y-19941D02*
X101501Y-20641D01*
X101501Y-24241D02*
X101501Y-24941D01*
X101501Y-24941D02*
X100801Y-24941D01*
X97201Y-24941D02*
X96501Y-24941D01*
X96501Y-24941D02*
X96501Y-24241D01*
X96501Y-20641D02*
X96501Y-19941D01*
X66446Y-27591D02*
X67146Y-27591D01*
X70746Y-27591D02*
X71446Y-27591D01*
X71446Y-27591D02*
X71446Y-28291D01*
X71446Y-31891D02*
X71446Y-32591D01*
X71446Y-32591D02*
X70746Y-32591D01*
X67146Y-32591D02*
X66446Y-32591D01*
X66446Y-32591D02*
X66446Y-31891D01*
X66446Y-28291D02*
X66446Y-27591D01*
G54D17*
X46464Y-30584D02*
X46464Y-30230D01*
X46599Y-30230D01*
X46633Y-30246D01*
X46650Y-30263D01*
X46666Y-30297D01*
X46666Y-30348D01*
X46650Y-30381D01*
X46633Y-30398D01*
X46599Y-30415D01*
X46464Y-30415D01*
X46801Y-30263D02*
X46818Y-30246D01*
X46852Y-30230D01*
X46936Y-30230D01*
X46970Y-30246D01*
X46987Y-30263D01*
X47004Y-30297D01*
X47004Y-30331D01*
X46987Y-30381D01*
X46785Y-30584D01*
X47004Y-30584D01*
X48063Y-30634D02*
X48063Y-30280D01*
X48148Y-30280D01*
X48198Y-30296D01*
X48232Y-30330D01*
X48249Y-30364D01*
X48266Y-30431D01*
X48266Y-30482D01*
X48249Y-30550D01*
X48232Y-30583D01*
X48198Y-30617D01*
X48148Y-30634D01*
X48063Y-30634D01*
X48418Y-30499D02*
X48688Y-30499D01*
X46464Y-29584D02*
X46464Y-29230D01*
X46599Y-29230D01*
X46633Y-29246D01*
X46650Y-29263D01*
X46666Y-29297D01*
X46666Y-29348D01*
X46650Y-29381D01*
X46633Y-29398D01*
X46599Y-29415D01*
X46464Y-29415D01*
X46785Y-29230D02*
X47004Y-29230D01*
X46886Y-29365D01*
X46936Y-29365D01*
X46970Y-29381D01*
X46987Y-29398D01*
X47004Y-29432D01*
X47004Y-29516D01*
X46987Y-29550D01*
X46970Y-29567D01*
X46936Y-29584D01*
X46835Y-29584D01*
X46801Y-29567D01*
X46785Y-29550D01*
X48063Y-29584D02*
X48063Y-29230D01*
X48148Y-29230D01*
X48198Y-29246D01*
X48232Y-29280D01*
X48249Y-29314D01*
X48266Y-29381D01*
X48266Y-29432D01*
X48249Y-29500D01*
X48232Y-29533D01*
X48198Y-29567D01*
X48148Y-29584D01*
X48063Y-29584D01*
X48418Y-29449D02*
X48688Y-29449D01*
X48553Y-29584D02*
X48553Y-29314D01*
X46464Y-28584D02*
X46464Y-28230D01*
X46599Y-28230D01*
X46633Y-28246D01*
X46650Y-28263D01*
X46666Y-28297D01*
X46666Y-28348D01*
X46650Y-28381D01*
X46633Y-28398D01*
X46599Y-28415D01*
X46464Y-28415D01*
X46987Y-28230D02*
X46818Y-28230D01*
X46801Y-28398D01*
X46818Y-28381D01*
X46852Y-28365D01*
X46936Y-28365D01*
X46970Y-28381D01*
X46987Y-28398D01*
X47004Y-28432D01*
X47004Y-28516D01*
X46987Y-28550D01*
X46970Y-28567D01*
X46936Y-28584D01*
X46852Y-28584D01*
X46818Y-28567D01*
X46801Y-28550D01*
X48248Y-28246D02*
X48214Y-28230D01*
X48163Y-28230D01*
X48113Y-28246D01*
X48079Y-28280D01*
X48062Y-28314D01*
X48045Y-28381D01*
X48045Y-28432D01*
X48062Y-28500D01*
X48079Y-28533D01*
X48113Y-28567D01*
X48163Y-28584D01*
X48197Y-28584D01*
X48248Y-28567D01*
X48265Y-28550D01*
X48265Y-28432D01*
X48197Y-28432D01*
X48416Y-28348D02*
X48416Y-28584D01*
X48416Y-28381D02*
X48433Y-28365D01*
X48467Y-28348D01*
X48518Y-28348D01*
X48551Y-28365D01*
X48568Y-28398D01*
X48568Y-28584D01*
X48889Y-28584D02*
X48889Y-28230D01*
X48889Y-28567D02*
X48855Y-28584D01*
X48788Y-28584D01*
X48754Y-28567D01*
X48737Y-28550D01*
X48720Y-28516D01*
X48720Y-28415D01*
X48737Y-28381D01*
X48754Y-28365D01*
X48788Y-28348D01*
X48855Y-28348D01*
X48889Y-28365D01*
X46514Y-31584D02*
X46514Y-31230D01*
X46649Y-31230D01*
X46683Y-31246D01*
X46700Y-31263D01*
X46716Y-31297D01*
X46716Y-31348D01*
X46700Y-31381D01*
X46683Y-31398D01*
X46649Y-31415D01*
X46514Y-31415D01*
X47054Y-31584D02*
X46851Y-31584D01*
X46953Y-31584D02*
X46953Y-31230D01*
X46919Y-31280D01*
X46885Y-31314D01*
X46851Y-31331D01*
X48054Y-31230D02*
X48172Y-31584D01*
X48290Y-31230D01*
X48560Y-31567D02*
X48526Y-31584D01*
X48459Y-31584D01*
X48425Y-31567D01*
X48408Y-31550D01*
X48391Y-31516D01*
X48391Y-31415D01*
X48408Y-31381D01*
X48425Y-31365D01*
X48459Y-31348D01*
X48526Y-31348D01*
X48560Y-31365D01*
X48864Y-31567D02*
X48830Y-31584D01*
X48762Y-31584D01*
X48729Y-31567D01*
X48712Y-31550D01*
X48695Y-31516D01*
X48695Y-31415D01*
X48712Y-31381D01*
X48729Y-31365D01*
X48762Y-31348D01*
X48830Y-31348D01*
X48864Y-31365D01*
G54D14*
X31778Y-22905D02*
X31778Y-22657D01*
X31968Y-22790D01*
X31968Y-22733D01*
X31992Y-22695D01*
X32016Y-22676D01*
X32064Y-22657D01*
X32183Y-22657D01*
X32230Y-22676D01*
X32254Y-22695D01*
X32278Y-22733D01*
X32278Y-22848D01*
X32254Y-22886D01*
X32230Y-22905D01*
X31778Y-22410D02*
X31778Y-22371D01*
X31802Y-22333D01*
X31826Y-22314D01*
X31873Y-22295D01*
X31968Y-22276D01*
X32087Y-22276D01*
X32183Y-22295D01*
X32230Y-22314D01*
X32254Y-22333D01*
X32278Y-22371D01*
X32278Y-22410D01*
X32254Y-22448D01*
X32230Y-22467D01*
X32183Y-22486D01*
X32087Y-22505D01*
X31968Y-22505D01*
X31873Y-22486D01*
X31826Y-22467D01*
X31802Y-22448D01*
X31778Y-22410D01*
X31778Y-22029D02*
X31778Y-21991D01*
X31802Y-21952D01*
X31826Y-21933D01*
X31873Y-21914D01*
X31968Y-21895D01*
X32087Y-21895D01*
X32183Y-21914D01*
X32230Y-21933D01*
X32254Y-21952D01*
X32278Y-21991D01*
X32278Y-22029D01*
X32254Y-22067D01*
X32230Y-22086D01*
X32183Y-22105D01*
X32087Y-22124D01*
X31968Y-22124D01*
X31873Y-22105D01*
X31826Y-22086D01*
X31802Y-22067D01*
X31778Y-22029D01*
G54D17*
X27114Y-17784D02*
X27114Y-17430D01*
X27249Y-17430D01*
X27283Y-17446D01*
X27300Y-17463D01*
X27316Y-17497D01*
X27316Y-17548D01*
X27300Y-17581D01*
X27283Y-17598D01*
X27249Y-17615D01*
X27114Y-17615D01*
X27620Y-17430D02*
X27553Y-17430D01*
X27519Y-17446D01*
X27502Y-17463D01*
X27468Y-17514D01*
X27451Y-17581D01*
X27451Y-17716D01*
X27468Y-17750D01*
X27485Y-17767D01*
X27519Y-17784D01*
X27586Y-17784D01*
X27620Y-17767D01*
X27637Y-17750D01*
X27654Y-17716D01*
X27654Y-17632D01*
X27637Y-17598D01*
X27620Y-17581D01*
X27586Y-17565D01*
X27519Y-17565D01*
X27485Y-17581D01*
X27468Y-17598D01*
X27451Y-17632D01*
G54D18*
X27708Y-16451D02*
X27699Y-16461D01*
X27671Y-16470D01*
X27652Y-16470D01*
X27624Y-16461D01*
X27605Y-16442D01*
X27596Y-16423D01*
X27587Y-16386D01*
X27587Y-16358D01*
X27596Y-16320D01*
X27605Y-16301D01*
X27624Y-16283D01*
X27652Y-16273D01*
X27671Y-16273D01*
X27699Y-16283D01*
X27708Y-16292D01*
X27783Y-16414D02*
X27877Y-16414D01*
X27765Y-16470D02*
X27830Y-16273D01*
X27896Y-16470D01*
X27961Y-16470D02*
X27961Y-16273D01*
X28036Y-16273D01*
X28055Y-16283D01*
X28065Y-16292D01*
X28074Y-16311D01*
X28074Y-16339D01*
X28065Y-16358D01*
X28055Y-16367D01*
X28036Y-16376D01*
X27961Y-16376D01*
X28149Y-16461D02*
X28177Y-16470D01*
X28224Y-16470D01*
X28243Y-16461D01*
X28252Y-16451D01*
X28261Y-16433D01*
X28261Y-16414D01*
X28252Y-16395D01*
X28243Y-16386D01*
X28224Y-16376D01*
X28186Y-16367D01*
X28168Y-16358D01*
X28158Y-16348D01*
X28149Y-16330D01*
X28149Y-16311D01*
X28158Y-16292D01*
X28168Y-16283D01*
X28186Y-16273D01*
X28233Y-16273D01*
X28261Y-16283D01*
X28299Y-16489D02*
X28449Y-16489D01*
X28590Y-16470D02*
X28496Y-16470D01*
X28496Y-16273D01*
X28655Y-16367D02*
X28721Y-16367D01*
X28749Y-16470D02*
X28655Y-16470D01*
X28655Y-16273D01*
X28749Y-16273D01*
X28833Y-16470D02*
X28833Y-16273D01*
X28880Y-16273D01*
X28908Y-16283D01*
X28927Y-16301D01*
X28936Y-16320D01*
X28946Y-16358D01*
X28946Y-16386D01*
X28936Y-16423D01*
X28927Y-16442D01*
X28908Y-16461D01*
X28880Y-16470D01*
X28833Y-16470D01*
X28983Y-16489D02*
X29133Y-16489D01*
X29171Y-16414D02*
X29264Y-16414D01*
X29152Y-16470D02*
X29218Y-16273D01*
X29283Y-16470D01*
G54D17*
X24214Y-17834D02*
X24214Y-17480D01*
X24349Y-17480D01*
X24383Y-17496D01*
X24400Y-17513D01*
X24416Y-17547D01*
X24416Y-17598D01*
X24400Y-17631D01*
X24383Y-17648D01*
X24349Y-17665D01*
X24214Y-17665D01*
X24535Y-17480D02*
X24771Y-17480D01*
X24619Y-17834D01*
G54D18*
X22544Y-16501D02*
X22535Y-16511D01*
X22507Y-16520D01*
X22488Y-16520D01*
X22460Y-16511D01*
X22441Y-16492D01*
X22432Y-16473D01*
X22422Y-16436D01*
X22422Y-16408D01*
X22432Y-16370D01*
X22441Y-16351D01*
X22460Y-16333D01*
X22488Y-16323D01*
X22507Y-16323D01*
X22535Y-16333D01*
X22544Y-16342D01*
X22619Y-16464D02*
X22713Y-16464D01*
X22601Y-16520D02*
X22666Y-16323D01*
X22732Y-16520D01*
X22797Y-16520D02*
X22797Y-16323D01*
X22872Y-16323D01*
X22891Y-16333D01*
X22901Y-16342D01*
X22910Y-16361D01*
X22910Y-16389D01*
X22901Y-16408D01*
X22891Y-16417D01*
X22872Y-16426D01*
X22797Y-16426D01*
X22985Y-16511D02*
X23013Y-16520D01*
X23060Y-16520D01*
X23079Y-16511D01*
X23088Y-16501D01*
X23097Y-16483D01*
X23097Y-16464D01*
X23088Y-16445D01*
X23079Y-16436D01*
X23060Y-16426D01*
X23022Y-16417D01*
X23004Y-16408D01*
X22994Y-16398D01*
X22985Y-16380D01*
X22985Y-16361D01*
X22994Y-16342D01*
X23004Y-16333D01*
X23022Y-16323D01*
X23069Y-16323D01*
X23097Y-16333D01*
X23135Y-16539D02*
X23285Y-16539D01*
X23425Y-16520D02*
X23332Y-16520D01*
X23332Y-16323D01*
X23491Y-16417D02*
X23557Y-16417D01*
X23585Y-16520D02*
X23491Y-16520D01*
X23491Y-16323D01*
X23585Y-16323D01*
X23669Y-16520D02*
X23669Y-16323D01*
X23716Y-16323D01*
X23744Y-16333D01*
X23763Y-16351D01*
X23772Y-16370D01*
X23782Y-16408D01*
X23782Y-16436D01*
X23772Y-16473D01*
X23763Y-16492D01*
X23744Y-16511D01*
X23716Y-16520D01*
X23669Y-16520D01*
X23819Y-16539D02*
X23969Y-16539D01*
X24129Y-16501D02*
X24119Y-16511D01*
X24091Y-16520D01*
X24072Y-16520D01*
X24044Y-16511D01*
X24025Y-16492D01*
X24016Y-16473D01*
X24007Y-16436D01*
X24007Y-16408D01*
X24016Y-16370D01*
X24025Y-16351D01*
X24044Y-16333D01*
X24072Y-16323D01*
X24091Y-16323D01*
X24119Y-16333D01*
X24129Y-16342D01*
G54D14*
X26604Y-23869D02*
X26690Y-23893D01*
X26833Y-23893D01*
X26890Y-23869D01*
X26918Y-23845D01*
X26947Y-23798D01*
X26947Y-23750D01*
X26918Y-23702D01*
X26890Y-23679D01*
X26833Y-23655D01*
X26718Y-23631D01*
X26661Y-23607D01*
X26633Y-23583D01*
X26604Y-23536D01*
X26604Y-23488D01*
X26633Y-23441D01*
X26661Y-23417D01*
X26718Y-23393D01*
X26861Y-23393D01*
X26947Y-23417D01*
X27318Y-23393D02*
X27376Y-23393D01*
X27433Y-23417D01*
X27461Y-23441D01*
X27490Y-23488D01*
X27518Y-23583D01*
X27518Y-23702D01*
X27490Y-23798D01*
X27461Y-23845D01*
X27433Y-23869D01*
X27376Y-23893D01*
X27318Y-23893D01*
X27261Y-23869D01*
X27233Y-23845D01*
X27204Y-23798D01*
X27176Y-23702D01*
X27176Y-23583D01*
X27204Y-23488D01*
X27233Y-23441D01*
X27261Y-23417D01*
X27318Y-23393D01*
X27718Y-23393D02*
X28090Y-23393D01*
X27890Y-23583D01*
X27976Y-23583D01*
X28033Y-23607D01*
X28061Y-23631D01*
X28090Y-23679D01*
X28090Y-23798D01*
X28061Y-23845D01*
X28033Y-23869D01*
X27976Y-23893D01*
X27804Y-23893D01*
X27747Y-23869D01*
X27718Y-23845D01*
X28347Y-23845D02*
X28376Y-23869D01*
X28347Y-23893D01*
X28318Y-23869D01*
X28347Y-23845D01*
X28347Y-23893D01*
X28347Y-23583D02*
X28376Y-23607D01*
X28347Y-23631D01*
X28318Y-23607D01*
X28347Y-23583D01*
X28347Y-23631D01*
X28947Y-23893D02*
X28604Y-23893D01*
X28776Y-23893D02*
X28776Y-23393D01*
X28718Y-23464D01*
X28661Y-23512D01*
X28604Y-23536D01*
X103218Y-16369D02*
X103304Y-16393D01*
X103447Y-16393D01*
X103504Y-16369D01*
X103533Y-16345D01*
X103561Y-16298D01*
X103561Y-16250D01*
X103533Y-16202D01*
X103504Y-16179D01*
X103447Y-16155D01*
X103333Y-16131D01*
X103276Y-16107D01*
X103247Y-16083D01*
X103218Y-16036D01*
X103218Y-15988D01*
X103247Y-15941D01*
X103276Y-15917D01*
X103333Y-15893D01*
X103476Y-15893D01*
X103561Y-15917D01*
X103933Y-15893D02*
X103990Y-15893D01*
X104047Y-15917D01*
X104076Y-15941D01*
X104104Y-15988D01*
X104133Y-16083D01*
X104133Y-16202D01*
X104104Y-16298D01*
X104076Y-16345D01*
X104047Y-16369D01*
X103990Y-16393D01*
X103933Y-16393D01*
X103876Y-16369D01*
X103847Y-16345D01*
X103818Y-16298D01*
X103790Y-16202D01*
X103790Y-16083D01*
X103818Y-15988D01*
X103847Y-15941D01*
X103876Y-15917D01*
X103933Y-15893D01*
X104361Y-15941D02*
X104390Y-15917D01*
X104447Y-15893D01*
X104590Y-15893D01*
X104647Y-15917D01*
X104676Y-15941D01*
X104704Y-15988D01*
X104704Y-16036D01*
X104676Y-16107D01*
X104333Y-16393D01*
X104704Y-16393D01*
X104961Y-16345D02*
X104990Y-16369D01*
X104961Y-16393D01*
X104933Y-16369D01*
X104961Y-16345D01*
X104961Y-16393D01*
X104961Y-16083D02*
X104990Y-16107D01*
X104961Y-16131D01*
X104933Y-16107D01*
X104961Y-16083D01*
X104961Y-16131D01*
X105561Y-16393D02*
X105218Y-16393D01*
X105390Y-16393D02*
X105390Y-15893D01*
X105333Y-15964D01*
X105276Y-16012D01*
X105218Y-16036D01*
X106133Y-16393D02*
X105790Y-16393D01*
X105961Y-16393D02*
X105961Y-15893D01*
X105904Y-15964D01*
X105847Y-16012D01*
X105790Y-16036D01*
X24754Y-16369D02*
X24840Y-16393D01*
X24983Y-16393D01*
X25040Y-16369D01*
X25068Y-16345D01*
X25097Y-16298D01*
X25097Y-16250D01*
X25068Y-16202D01*
X25040Y-16179D01*
X24983Y-16155D01*
X24868Y-16131D01*
X24811Y-16107D01*
X24783Y-16083D01*
X24754Y-16036D01*
X24754Y-15988D01*
X24783Y-15941D01*
X24811Y-15917D01*
X24868Y-15893D01*
X25011Y-15893D01*
X25097Y-15917D01*
X25468Y-15893D02*
X25526Y-15893D01*
X25583Y-15917D01*
X25611Y-15941D01*
X25640Y-15988D01*
X25668Y-16083D01*
X25668Y-16202D01*
X25640Y-16298D01*
X25611Y-16345D01*
X25583Y-16369D01*
X25526Y-16393D01*
X25468Y-16393D01*
X25411Y-16369D01*
X25383Y-16345D01*
X25354Y-16298D01*
X25326Y-16202D01*
X25326Y-16083D01*
X25354Y-15988D01*
X25383Y-15941D01*
X25411Y-15917D01*
X25468Y-15893D01*
X25897Y-15941D02*
X25926Y-15917D01*
X25983Y-15893D01*
X26126Y-15893D01*
X26183Y-15917D01*
X26211Y-15941D01*
X26240Y-15988D01*
X26240Y-16036D01*
X26211Y-16107D01*
X25868Y-16393D01*
X26240Y-16393D01*
X26497Y-16345D02*
X26526Y-16369D01*
X26497Y-16393D01*
X26468Y-16369D01*
X26497Y-16345D01*
X26497Y-16393D01*
X26497Y-16083D02*
X26526Y-16107D01*
X26497Y-16131D01*
X26468Y-16107D01*
X26497Y-16083D01*
X26497Y-16131D01*
X27097Y-16393D02*
X26754Y-16393D01*
X26926Y-16393D02*
X26926Y-15893D01*
X26868Y-15964D01*
X26811Y-16012D01*
X26754Y-16036D01*
X105083Y-31369D02*
X105169Y-31393D01*
X105312Y-31393D01*
X105369Y-31369D01*
X105398Y-31345D01*
X105426Y-31298D01*
X105426Y-31250D01*
X105398Y-31202D01*
X105369Y-31179D01*
X105312Y-31155D01*
X105198Y-31131D01*
X105140Y-31107D01*
X105112Y-31083D01*
X105083Y-31036D01*
X105083Y-30988D01*
X105112Y-30941D01*
X105140Y-30917D01*
X105198Y-30893D01*
X105340Y-30893D01*
X105426Y-30917D01*
X105798Y-30893D02*
X105855Y-30893D01*
X105912Y-30917D01*
X105940Y-30941D01*
X105969Y-30988D01*
X105998Y-31083D01*
X105998Y-31202D01*
X105969Y-31298D01*
X105940Y-31345D01*
X105912Y-31369D01*
X105855Y-31393D01*
X105798Y-31393D01*
X105740Y-31369D01*
X105712Y-31345D01*
X105683Y-31298D01*
X105655Y-31202D01*
X105655Y-31083D01*
X105683Y-30988D01*
X105712Y-30941D01*
X105740Y-30917D01*
X105798Y-30893D01*
X106512Y-31060D02*
X106512Y-31393D01*
X106369Y-30869D02*
X106226Y-31226D01*
X106598Y-31226D01*
X106826Y-31345D02*
X106855Y-31369D01*
X106826Y-31393D01*
X106798Y-31369D01*
X106826Y-31345D01*
X106826Y-31393D01*
X106826Y-31083D02*
X106855Y-31107D01*
X106826Y-31131D01*
X106798Y-31107D01*
X106826Y-31083D01*
X106826Y-31131D01*
X107426Y-31393D02*
X107083Y-31393D01*
X107255Y-31393D02*
X107255Y-30893D01*
X107198Y-30964D01*
X107140Y-31012D01*
X107083Y-31036D01*
X107998Y-31393D02*
X107655Y-31393D01*
X107826Y-31393D02*
X107826Y-30893D01*
X107769Y-30964D01*
X107712Y-31012D01*
X107655Y-31036D01*
X24729Y-31369D02*
X24815Y-31393D01*
X24958Y-31393D01*
X25015Y-31369D01*
X25044Y-31345D01*
X25072Y-31298D01*
X25072Y-31250D01*
X25044Y-31202D01*
X25015Y-31179D01*
X24958Y-31155D01*
X24844Y-31131D01*
X24786Y-31107D01*
X24758Y-31083D01*
X24729Y-31036D01*
X24729Y-30988D01*
X24758Y-30941D01*
X24786Y-30917D01*
X24844Y-30893D01*
X24986Y-30893D01*
X25072Y-30917D01*
X25444Y-30893D02*
X25501Y-30893D01*
X25558Y-30917D01*
X25586Y-30941D01*
X25615Y-30988D01*
X25644Y-31083D01*
X25644Y-31202D01*
X25615Y-31298D01*
X25586Y-31345D01*
X25558Y-31369D01*
X25501Y-31393D01*
X25444Y-31393D01*
X25386Y-31369D01*
X25358Y-31345D01*
X25329Y-31298D01*
X25301Y-31202D01*
X25301Y-31083D01*
X25329Y-30988D01*
X25358Y-30941D01*
X25386Y-30917D01*
X25444Y-30893D01*
X26158Y-31060D02*
X26158Y-31393D01*
X26015Y-30869D02*
X25872Y-31226D01*
X26244Y-31226D01*
X26472Y-31345D02*
X26501Y-31369D01*
X26472Y-31393D01*
X26444Y-31369D01*
X26472Y-31345D01*
X26472Y-31393D01*
X26472Y-31083D02*
X26501Y-31107D01*
X26472Y-31131D01*
X26444Y-31107D01*
X26472Y-31083D01*
X26472Y-31131D01*
X27072Y-31393D02*
X26729Y-31393D01*
X26901Y-31393D02*
X26901Y-30893D01*
X26844Y-30964D01*
X26786Y-31012D01*
X26729Y-31036D01*
X38804Y-8869D02*
X38890Y-8893D01*
X39033Y-8893D01*
X39090Y-8869D01*
X39118Y-8845D01*
X39147Y-8798D01*
X39147Y-8750D01*
X39118Y-8702D01*
X39090Y-8679D01*
X39033Y-8655D01*
X38918Y-8631D01*
X38861Y-8607D01*
X38833Y-8583D01*
X38804Y-8536D01*
X38804Y-8488D01*
X38833Y-8441D01*
X38861Y-8417D01*
X38918Y-8393D01*
X39061Y-8393D01*
X39147Y-8417D01*
X39518Y-8393D02*
X39576Y-8393D01*
X39633Y-8417D01*
X39661Y-8441D01*
X39690Y-8488D01*
X39718Y-8583D01*
X39718Y-8702D01*
X39690Y-8798D01*
X39661Y-8845D01*
X39633Y-8869D01*
X39576Y-8893D01*
X39518Y-8893D01*
X39461Y-8869D01*
X39433Y-8845D01*
X39404Y-8798D01*
X39376Y-8702D01*
X39376Y-8583D01*
X39404Y-8488D01*
X39433Y-8441D01*
X39461Y-8417D01*
X39518Y-8393D01*
X40290Y-8893D02*
X39947Y-8893D01*
X40118Y-8893D02*
X40118Y-8393D01*
X40061Y-8464D01*
X40004Y-8512D01*
X39947Y-8536D01*
X40547Y-8845D02*
X40576Y-8869D01*
X40547Y-8893D01*
X40518Y-8869D01*
X40547Y-8845D01*
X40547Y-8893D01*
X40547Y-8583D02*
X40576Y-8607D01*
X40547Y-8631D01*
X40518Y-8607D01*
X40547Y-8583D01*
X40547Y-8631D01*
X40776Y-8393D02*
X41147Y-8393D01*
X40947Y-8583D01*
X41033Y-8583D01*
X41090Y-8607D01*
X41118Y-8631D01*
X41147Y-8679D01*
X41147Y-8798D01*
X41118Y-8845D01*
X41090Y-8869D01*
X41033Y-8893D01*
X40861Y-8893D01*
X40804Y-8869D01*
X40776Y-8845D01*
X76304Y-8869D02*
X76390Y-8893D01*
X76533Y-8893D01*
X76590Y-8869D01*
X76618Y-8845D01*
X76647Y-8798D01*
X76647Y-8750D01*
X76618Y-8702D01*
X76590Y-8679D01*
X76533Y-8655D01*
X76418Y-8631D01*
X76361Y-8607D01*
X76333Y-8583D01*
X76304Y-8536D01*
X76304Y-8488D01*
X76333Y-8441D01*
X76361Y-8417D01*
X76418Y-8393D01*
X76561Y-8393D01*
X76647Y-8417D01*
X77018Y-8393D02*
X77076Y-8393D01*
X77133Y-8417D01*
X77161Y-8441D01*
X77190Y-8488D01*
X77218Y-8583D01*
X77218Y-8702D01*
X77190Y-8798D01*
X77161Y-8845D01*
X77133Y-8869D01*
X77076Y-8893D01*
X77018Y-8893D01*
X76961Y-8869D01*
X76933Y-8845D01*
X76904Y-8798D01*
X76876Y-8702D01*
X76876Y-8583D01*
X76904Y-8488D01*
X76933Y-8441D01*
X76961Y-8417D01*
X77018Y-8393D01*
X77790Y-8893D02*
X77447Y-8893D01*
X77618Y-8893D02*
X77618Y-8393D01*
X77561Y-8464D01*
X77504Y-8512D01*
X77447Y-8536D01*
X78047Y-8845D02*
X78076Y-8869D01*
X78047Y-8893D01*
X78018Y-8869D01*
X78047Y-8845D01*
X78047Y-8893D01*
X78047Y-8583D02*
X78076Y-8607D01*
X78047Y-8631D01*
X78018Y-8607D01*
X78047Y-8583D01*
X78047Y-8631D01*
X78418Y-8607D02*
X78361Y-8583D01*
X78333Y-8560D01*
X78304Y-8512D01*
X78304Y-8488D01*
X78333Y-8441D01*
X78361Y-8417D01*
X78418Y-8393D01*
X78533Y-8393D01*
X78590Y-8417D01*
X78618Y-8441D01*
X78647Y-8488D01*
X78647Y-8512D01*
X78618Y-8560D01*
X78590Y-8583D01*
X78533Y-8607D01*
X78418Y-8607D01*
X78361Y-8631D01*
X78333Y-8655D01*
X78304Y-8702D01*
X78304Y-8798D01*
X78333Y-8845D01*
X78361Y-8869D01*
X78418Y-8893D01*
X78533Y-8893D01*
X78590Y-8869D01*
X78618Y-8845D01*
X78647Y-8798D01*
X78647Y-8702D01*
X78618Y-8655D01*
X78590Y-8631D01*
X78533Y-8607D01*
X91018Y-8869D02*
X91104Y-8893D01*
X91247Y-8893D01*
X91304Y-8869D01*
X91333Y-8845D01*
X91361Y-8798D01*
X91361Y-8750D01*
X91333Y-8702D01*
X91304Y-8679D01*
X91247Y-8655D01*
X91133Y-8631D01*
X91076Y-8607D01*
X91047Y-8583D01*
X91018Y-8536D01*
X91018Y-8488D01*
X91047Y-8441D01*
X91076Y-8417D01*
X91133Y-8393D01*
X91276Y-8393D01*
X91361Y-8417D01*
X91733Y-8393D02*
X91790Y-8393D01*
X91847Y-8417D01*
X91876Y-8441D01*
X91904Y-8488D01*
X91933Y-8583D01*
X91933Y-8702D01*
X91904Y-8798D01*
X91876Y-8845D01*
X91847Y-8869D01*
X91790Y-8893D01*
X91733Y-8893D01*
X91676Y-8869D01*
X91647Y-8845D01*
X91618Y-8798D01*
X91590Y-8702D01*
X91590Y-8583D01*
X91618Y-8488D01*
X91647Y-8441D01*
X91676Y-8417D01*
X91733Y-8393D01*
X92504Y-8893D02*
X92161Y-8893D01*
X92333Y-8893D02*
X92333Y-8393D01*
X92276Y-8464D01*
X92218Y-8512D01*
X92161Y-8536D01*
X92761Y-8845D02*
X92790Y-8869D01*
X92761Y-8893D01*
X92733Y-8869D01*
X92761Y-8845D01*
X92761Y-8893D01*
X92761Y-8583D02*
X92790Y-8607D01*
X92761Y-8631D01*
X92733Y-8607D01*
X92761Y-8583D01*
X92761Y-8631D01*
X93361Y-8893D02*
X93018Y-8893D01*
X93190Y-8893D02*
X93190Y-8393D01*
X93133Y-8464D01*
X93076Y-8512D01*
X93018Y-8536D01*
X93733Y-8393D02*
X93790Y-8393D01*
X93847Y-8417D01*
X93876Y-8441D01*
X93904Y-8488D01*
X93933Y-8583D01*
X93933Y-8702D01*
X93904Y-8798D01*
X93876Y-8845D01*
X93847Y-8869D01*
X93790Y-8893D01*
X93733Y-8893D01*
X93676Y-8869D01*
X93647Y-8845D01*
X93618Y-8798D01*
X93590Y-8702D01*
X93590Y-8583D01*
X93618Y-8488D01*
X93647Y-8441D01*
X93676Y-8417D01*
X93733Y-8393D01*
X31304Y-8869D02*
X31390Y-8893D01*
X31533Y-8893D01*
X31590Y-8869D01*
X31618Y-8845D01*
X31647Y-8798D01*
X31647Y-8750D01*
X31618Y-8702D01*
X31590Y-8679D01*
X31533Y-8655D01*
X31418Y-8631D01*
X31361Y-8607D01*
X31333Y-8583D01*
X31304Y-8536D01*
X31304Y-8488D01*
X31333Y-8441D01*
X31361Y-8417D01*
X31418Y-8393D01*
X31561Y-8393D01*
X31647Y-8417D01*
X32018Y-8393D02*
X32076Y-8393D01*
X32133Y-8417D01*
X32161Y-8441D01*
X32190Y-8488D01*
X32218Y-8583D01*
X32218Y-8702D01*
X32190Y-8798D01*
X32161Y-8845D01*
X32133Y-8869D01*
X32076Y-8893D01*
X32018Y-8893D01*
X31961Y-8869D01*
X31933Y-8845D01*
X31904Y-8798D01*
X31876Y-8702D01*
X31876Y-8583D01*
X31904Y-8488D01*
X31933Y-8441D01*
X31961Y-8417D01*
X32018Y-8393D01*
X32790Y-8893D02*
X32447Y-8893D01*
X32618Y-8893D02*
X32618Y-8393D01*
X32561Y-8464D01*
X32504Y-8512D01*
X32447Y-8536D01*
X33047Y-8845D02*
X33076Y-8869D01*
X33047Y-8893D01*
X33018Y-8869D01*
X33047Y-8845D01*
X33047Y-8893D01*
X33047Y-8583D02*
X33076Y-8607D01*
X33047Y-8631D01*
X33018Y-8607D01*
X33047Y-8583D01*
X33047Y-8631D01*
X33304Y-8441D02*
X33333Y-8417D01*
X33390Y-8393D01*
X33533Y-8393D01*
X33590Y-8417D01*
X33618Y-8441D01*
X33647Y-8488D01*
X33647Y-8536D01*
X33618Y-8607D01*
X33276Y-8893D01*
X33647Y-8893D01*
X23804Y-8869D02*
X23890Y-8893D01*
X24033Y-8893D01*
X24090Y-8869D01*
X24118Y-8845D01*
X24147Y-8798D01*
X24147Y-8750D01*
X24118Y-8702D01*
X24090Y-8679D01*
X24033Y-8655D01*
X23918Y-8631D01*
X23861Y-8607D01*
X23833Y-8583D01*
X23804Y-8536D01*
X23804Y-8488D01*
X23833Y-8441D01*
X23861Y-8417D01*
X23918Y-8393D01*
X24061Y-8393D01*
X24147Y-8417D01*
X24518Y-8393D02*
X24576Y-8393D01*
X24633Y-8417D01*
X24661Y-8441D01*
X24690Y-8488D01*
X24718Y-8583D01*
X24718Y-8702D01*
X24690Y-8798D01*
X24661Y-8845D01*
X24633Y-8869D01*
X24576Y-8893D01*
X24518Y-8893D01*
X24461Y-8869D01*
X24433Y-8845D01*
X24404Y-8798D01*
X24376Y-8702D01*
X24376Y-8583D01*
X24404Y-8488D01*
X24433Y-8441D01*
X24461Y-8417D01*
X24518Y-8393D01*
X25290Y-8893D02*
X24947Y-8893D01*
X25118Y-8893D02*
X25118Y-8393D01*
X25061Y-8464D01*
X25004Y-8512D01*
X24947Y-8536D01*
X25547Y-8845D02*
X25576Y-8869D01*
X25547Y-8893D01*
X25518Y-8869D01*
X25547Y-8845D01*
X25547Y-8893D01*
X25547Y-8583D02*
X25576Y-8607D01*
X25547Y-8631D01*
X25518Y-8607D01*
X25547Y-8583D01*
X25547Y-8631D01*
X26147Y-8893D02*
X25804Y-8893D01*
X25976Y-8893D02*
X25976Y-8393D01*
X25918Y-8464D01*
X25861Y-8512D01*
X25804Y-8536D01*
X46304Y-8869D02*
X46390Y-8893D01*
X46533Y-8893D01*
X46590Y-8869D01*
X46618Y-8845D01*
X46647Y-8798D01*
X46647Y-8750D01*
X46618Y-8702D01*
X46590Y-8679D01*
X46533Y-8655D01*
X46418Y-8631D01*
X46361Y-8607D01*
X46333Y-8583D01*
X46304Y-8536D01*
X46304Y-8488D01*
X46333Y-8441D01*
X46361Y-8417D01*
X46418Y-8393D01*
X46561Y-8393D01*
X46647Y-8417D01*
X47018Y-8393D02*
X47076Y-8393D01*
X47133Y-8417D01*
X47161Y-8441D01*
X47190Y-8488D01*
X47218Y-8583D01*
X47218Y-8702D01*
X47190Y-8798D01*
X47161Y-8845D01*
X47133Y-8869D01*
X47076Y-8893D01*
X47018Y-8893D01*
X46961Y-8869D01*
X46933Y-8845D01*
X46904Y-8798D01*
X46876Y-8702D01*
X46876Y-8583D01*
X46904Y-8488D01*
X46933Y-8441D01*
X46961Y-8417D01*
X47018Y-8393D01*
X47790Y-8893D02*
X47447Y-8893D01*
X47618Y-8893D02*
X47618Y-8393D01*
X47561Y-8464D01*
X47504Y-8512D01*
X47447Y-8536D01*
X48047Y-8845D02*
X48076Y-8869D01*
X48047Y-8893D01*
X48018Y-8869D01*
X48047Y-8845D01*
X48047Y-8893D01*
X48047Y-8583D02*
X48076Y-8607D01*
X48047Y-8631D01*
X48018Y-8607D01*
X48047Y-8583D01*
X48047Y-8631D01*
X48590Y-8560D02*
X48590Y-8893D01*
X48447Y-8369D02*
X48304Y-8726D01*
X48676Y-8726D01*
X61304Y-8869D02*
X61390Y-8893D01*
X61533Y-8893D01*
X61590Y-8869D01*
X61618Y-8845D01*
X61647Y-8798D01*
X61647Y-8750D01*
X61618Y-8702D01*
X61590Y-8679D01*
X61533Y-8655D01*
X61418Y-8631D01*
X61361Y-8607D01*
X61333Y-8583D01*
X61304Y-8536D01*
X61304Y-8488D01*
X61333Y-8441D01*
X61361Y-8417D01*
X61418Y-8393D01*
X61561Y-8393D01*
X61647Y-8417D01*
X62018Y-8393D02*
X62076Y-8393D01*
X62133Y-8417D01*
X62161Y-8441D01*
X62190Y-8488D01*
X62218Y-8583D01*
X62218Y-8702D01*
X62190Y-8798D01*
X62161Y-8845D01*
X62133Y-8869D01*
X62076Y-8893D01*
X62018Y-8893D01*
X61961Y-8869D01*
X61933Y-8845D01*
X61904Y-8798D01*
X61876Y-8702D01*
X61876Y-8583D01*
X61904Y-8488D01*
X61933Y-8441D01*
X61961Y-8417D01*
X62018Y-8393D01*
X62790Y-8893D02*
X62447Y-8893D01*
X62618Y-8893D02*
X62618Y-8393D01*
X62561Y-8464D01*
X62504Y-8512D01*
X62447Y-8536D01*
X63047Y-8845D02*
X63076Y-8869D01*
X63047Y-8893D01*
X63018Y-8869D01*
X63047Y-8845D01*
X63047Y-8893D01*
X63047Y-8583D02*
X63076Y-8607D01*
X63047Y-8631D01*
X63018Y-8607D01*
X63047Y-8583D01*
X63047Y-8631D01*
X63590Y-8393D02*
X63476Y-8393D01*
X63418Y-8417D01*
X63390Y-8441D01*
X63333Y-8512D01*
X63304Y-8607D01*
X63304Y-8798D01*
X63333Y-8845D01*
X63361Y-8869D01*
X63418Y-8893D01*
X63533Y-8893D01*
X63590Y-8869D01*
X63618Y-8845D01*
X63647Y-8798D01*
X63647Y-8679D01*
X63618Y-8631D01*
X63590Y-8607D01*
X63533Y-8583D01*
X63418Y-8583D01*
X63361Y-8607D01*
X63333Y-8631D01*
X63304Y-8679D01*
X53804Y-8869D02*
X53890Y-8893D01*
X54033Y-8893D01*
X54090Y-8869D01*
X54118Y-8845D01*
X54147Y-8798D01*
X54147Y-8750D01*
X54118Y-8702D01*
X54090Y-8679D01*
X54033Y-8655D01*
X53918Y-8631D01*
X53861Y-8607D01*
X53833Y-8583D01*
X53804Y-8536D01*
X53804Y-8488D01*
X53833Y-8441D01*
X53861Y-8417D01*
X53918Y-8393D01*
X54061Y-8393D01*
X54147Y-8417D01*
X54518Y-8393D02*
X54576Y-8393D01*
X54633Y-8417D01*
X54661Y-8441D01*
X54690Y-8488D01*
X54718Y-8583D01*
X54718Y-8702D01*
X54690Y-8798D01*
X54661Y-8845D01*
X54633Y-8869D01*
X54576Y-8893D01*
X54518Y-8893D01*
X54461Y-8869D01*
X54433Y-8845D01*
X54404Y-8798D01*
X54376Y-8702D01*
X54376Y-8583D01*
X54404Y-8488D01*
X54433Y-8441D01*
X54461Y-8417D01*
X54518Y-8393D01*
X55290Y-8893D02*
X54947Y-8893D01*
X55118Y-8893D02*
X55118Y-8393D01*
X55061Y-8464D01*
X55004Y-8512D01*
X54947Y-8536D01*
X55547Y-8845D02*
X55576Y-8869D01*
X55547Y-8893D01*
X55518Y-8869D01*
X55547Y-8845D01*
X55547Y-8893D01*
X55547Y-8583D02*
X55576Y-8607D01*
X55547Y-8631D01*
X55518Y-8607D01*
X55547Y-8583D01*
X55547Y-8631D01*
X56118Y-8393D02*
X55833Y-8393D01*
X55804Y-8631D01*
X55833Y-8607D01*
X55890Y-8583D01*
X56033Y-8583D01*
X56090Y-8607D01*
X56118Y-8631D01*
X56147Y-8679D01*
X56147Y-8798D01*
X56118Y-8845D01*
X56090Y-8869D01*
X56033Y-8893D01*
X55890Y-8893D01*
X55833Y-8869D01*
X55804Y-8845D01*
X68804Y-8869D02*
X68890Y-8893D01*
X69033Y-8893D01*
X69090Y-8869D01*
X69118Y-8845D01*
X69147Y-8798D01*
X69147Y-8750D01*
X69118Y-8702D01*
X69090Y-8679D01*
X69033Y-8655D01*
X68918Y-8631D01*
X68861Y-8607D01*
X68833Y-8583D01*
X68804Y-8536D01*
X68804Y-8488D01*
X68833Y-8441D01*
X68861Y-8417D01*
X68918Y-8393D01*
X69061Y-8393D01*
X69147Y-8417D01*
X69518Y-8393D02*
X69576Y-8393D01*
X69633Y-8417D01*
X69661Y-8441D01*
X69690Y-8488D01*
X69718Y-8583D01*
X69718Y-8702D01*
X69690Y-8798D01*
X69661Y-8845D01*
X69633Y-8869D01*
X69576Y-8893D01*
X69518Y-8893D01*
X69461Y-8869D01*
X69433Y-8845D01*
X69404Y-8798D01*
X69376Y-8702D01*
X69376Y-8583D01*
X69404Y-8488D01*
X69433Y-8441D01*
X69461Y-8417D01*
X69518Y-8393D01*
X70290Y-8893D02*
X69947Y-8893D01*
X70118Y-8893D02*
X70118Y-8393D01*
X70061Y-8464D01*
X70004Y-8512D01*
X69947Y-8536D01*
X70547Y-8845D02*
X70576Y-8869D01*
X70547Y-8893D01*
X70518Y-8869D01*
X70547Y-8845D01*
X70547Y-8893D01*
X70547Y-8583D02*
X70576Y-8607D01*
X70547Y-8631D01*
X70518Y-8607D01*
X70547Y-8583D01*
X70547Y-8631D01*
X70776Y-8393D02*
X71176Y-8393D01*
X70918Y-8893D01*
X44404Y-23869D02*
X44490Y-23893D01*
X44633Y-23893D01*
X44690Y-23869D01*
X44718Y-23845D01*
X44747Y-23798D01*
X44747Y-23750D01*
X44718Y-23702D01*
X44690Y-23679D01*
X44633Y-23655D01*
X44518Y-23631D01*
X44461Y-23607D01*
X44433Y-23583D01*
X44404Y-23536D01*
X44404Y-23488D01*
X44433Y-23441D01*
X44461Y-23417D01*
X44518Y-23393D01*
X44661Y-23393D01*
X44747Y-23417D01*
X45118Y-23393D02*
X45176Y-23393D01*
X45233Y-23417D01*
X45261Y-23441D01*
X45290Y-23488D01*
X45318Y-23583D01*
X45318Y-23702D01*
X45290Y-23798D01*
X45261Y-23845D01*
X45233Y-23869D01*
X45176Y-23893D01*
X45118Y-23893D01*
X45061Y-23869D01*
X45033Y-23845D01*
X45004Y-23798D01*
X44976Y-23702D01*
X44976Y-23583D01*
X45004Y-23488D01*
X45033Y-23441D01*
X45061Y-23417D01*
X45118Y-23393D01*
X45518Y-23393D02*
X45890Y-23393D01*
X45690Y-23583D01*
X45776Y-23583D01*
X45833Y-23607D01*
X45861Y-23631D01*
X45890Y-23679D01*
X45890Y-23798D01*
X45861Y-23845D01*
X45833Y-23869D01*
X45776Y-23893D01*
X45604Y-23893D01*
X45547Y-23869D01*
X45518Y-23845D01*
X46147Y-23845D02*
X46176Y-23869D01*
X46147Y-23893D01*
X46118Y-23869D01*
X46147Y-23845D01*
X46147Y-23893D01*
X46147Y-23583D02*
X46176Y-23607D01*
X46147Y-23631D01*
X46118Y-23607D01*
X46147Y-23583D01*
X46147Y-23631D01*
X46376Y-23393D02*
X46747Y-23393D01*
X46547Y-23583D01*
X46633Y-23583D01*
X46690Y-23607D01*
X46718Y-23631D01*
X46747Y-23679D01*
X46747Y-23798D01*
X46718Y-23845D01*
X46690Y-23869D01*
X46633Y-23893D01*
X46461Y-23893D01*
X46404Y-23869D01*
X46376Y-23845D01*
X83804Y-8869D02*
X83890Y-8893D01*
X84033Y-8893D01*
X84090Y-8869D01*
X84118Y-8845D01*
X84147Y-8798D01*
X84147Y-8750D01*
X84118Y-8702D01*
X84090Y-8679D01*
X84033Y-8655D01*
X83918Y-8631D01*
X83861Y-8607D01*
X83833Y-8583D01*
X83804Y-8536D01*
X83804Y-8488D01*
X83833Y-8441D01*
X83861Y-8417D01*
X83918Y-8393D01*
X84061Y-8393D01*
X84147Y-8417D01*
X84518Y-8393D02*
X84576Y-8393D01*
X84633Y-8417D01*
X84661Y-8441D01*
X84690Y-8488D01*
X84718Y-8583D01*
X84718Y-8702D01*
X84690Y-8798D01*
X84661Y-8845D01*
X84633Y-8869D01*
X84576Y-8893D01*
X84518Y-8893D01*
X84461Y-8869D01*
X84433Y-8845D01*
X84404Y-8798D01*
X84376Y-8702D01*
X84376Y-8583D01*
X84404Y-8488D01*
X84433Y-8441D01*
X84461Y-8417D01*
X84518Y-8393D01*
X85290Y-8893D02*
X84947Y-8893D01*
X85118Y-8893D02*
X85118Y-8393D01*
X85061Y-8464D01*
X85004Y-8512D01*
X84947Y-8536D01*
X85547Y-8845D02*
X85576Y-8869D01*
X85547Y-8893D01*
X85518Y-8869D01*
X85547Y-8845D01*
X85547Y-8893D01*
X85547Y-8583D02*
X85576Y-8607D01*
X85547Y-8631D01*
X85518Y-8607D01*
X85547Y-8583D01*
X85547Y-8631D01*
X85861Y-8893D02*
X85976Y-8893D01*
X86033Y-8869D01*
X86061Y-8845D01*
X86118Y-8774D01*
X86147Y-8679D01*
X86147Y-8488D01*
X86118Y-8441D01*
X86090Y-8417D01*
X86033Y-8393D01*
X85918Y-8393D01*
X85861Y-8417D01*
X85833Y-8441D01*
X85804Y-8488D01*
X85804Y-8607D01*
X85833Y-8655D01*
X85861Y-8679D01*
X85918Y-8702D01*
X86033Y-8702D01*
X86090Y-8679D01*
X86118Y-8655D01*
X86147Y-8607D01*
X40679Y-31369D02*
X40765Y-31393D01*
X40907Y-31393D01*
X40965Y-31369D01*
X40993Y-31345D01*
X41022Y-31298D01*
X41022Y-31250D01*
X40993Y-31202D01*
X40965Y-31179D01*
X40907Y-31155D01*
X40793Y-31131D01*
X40736Y-31107D01*
X40707Y-31083D01*
X40679Y-31036D01*
X40679Y-30988D01*
X40707Y-30941D01*
X40736Y-30917D01*
X40793Y-30893D01*
X40936Y-30893D01*
X41022Y-30917D01*
X41393Y-30893D02*
X41450Y-30893D01*
X41507Y-30917D01*
X41536Y-30941D01*
X41565Y-30988D01*
X41593Y-31083D01*
X41593Y-31202D01*
X41565Y-31298D01*
X41536Y-31345D01*
X41507Y-31369D01*
X41450Y-31393D01*
X41393Y-31393D01*
X41336Y-31369D01*
X41307Y-31345D01*
X41279Y-31298D01*
X41250Y-31202D01*
X41250Y-31083D01*
X41279Y-30988D01*
X41307Y-30941D01*
X41336Y-30917D01*
X41393Y-30893D01*
X42107Y-31060D02*
X42107Y-31393D01*
X41965Y-30869D02*
X41822Y-31226D01*
X42193Y-31226D01*
X42422Y-31345D02*
X42450Y-31369D01*
X42422Y-31393D01*
X42393Y-31369D01*
X42422Y-31345D01*
X42422Y-31393D01*
X42422Y-31083D02*
X42450Y-31107D01*
X42422Y-31131D01*
X42393Y-31107D01*
X42422Y-31083D01*
X42422Y-31131D01*
X42650Y-30893D02*
X43022Y-30893D01*
X42822Y-31083D01*
X42907Y-31083D01*
X42965Y-31107D01*
X42993Y-31131D01*
X43022Y-31179D01*
X43022Y-31298D01*
X42993Y-31345D01*
X42965Y-31369D01*
X42907Y-31393D01*
X42736Y-31393D01*
X42679Y-31369D01*
X42650Y-31345D01*
X33179Y-31369D02*
X33265Y-31393D01*
X33407Y-31393D01*
X33465Y-31369D01*
X33493Y-31345D01*
X33522Y-31298D01*
X33522Y-31250D01*
X33493Y-31202D01*
X33465Y-31179D01*
X33407Y-31155D01*
X33293Y-31131D01*
X33236Y-31107D01*
X33207Y-31083D01*
X33179Y-31036D01*
X33179Y-30988D01*
X33207Y-30941D01*
X33236Y-30917D01*
X33293Y-30893D01*
X33436Y-30893D01*
X33522Y-30917D01*
X33893Y-30893D02*
X33950Y-30893D01*
X34007Y-30917D01*
X34036Y-30941D01*
X34065Y-30988D01*
X34093Y-31083D01*
X34093Y-31202D01*
X34065Y-31298D01*
X34036Y-31345D01*
X34007Y-31369D01*
X33950Y-31393D01*
X33893Y-31393D01*
X33836Y-31369D01*
X33807Y-31345D01*
X33779Y-31298D01*
X33750Y-31202D01*
X33750Y-31083D01*
X33779Y-30988D01*
X33807Y-30941D01*
X33836Y-30917D01*
X33893Y-30893D01*
X34607Y-31060D02*
X34607Y-31393D01*
X34465Y-30869D02*
X34322Y-31226D01*
X34693Y-31226D01*
X34922Y-31345D02*
X34950Y-31369D01*
X34922Y-31393D01*
X34893Y-31369D01*
X34922Y-31345D01*
X34922Y-31393D01*
X34922Y-31083D02*
X34950Y-31107D01*
X34922Y-31131D01*
X34893Y-31107D01*
X34922Y-31083D01*
X34922Y-31131D01*
X35179Y-30941D02*
X35207Y-30917D01*
X35265Y-30893D01*
X35407Y-30893D01*
X35465Y-30917D01*
X35493Y-30941D01*
X35522Y-30988D01*
X35522Y-31036D01*
X35493Y-31107D01*
X35150Y-31393D01*
X35522Y-31393D01*
X89404Y-23869D02*
X89490Y-23893D01*
X89633Y-23893D01*
X89690Y-23869D01*
X89718Y-23845D01*
X89747Y-23798D01*
X89747Y-23750D01*
X89718Y-23702D01*
X89690Y-23679D01*
X89633Y-23655D01*
X89518Y-23631D01*
X89461Y-23607D01*
X89433Y-23583D01*
X89404Y-23536D01*
X89404Y-23488D01*
X89433Y-23441D01*
X89461Y-23417D01*
X89518Y-23393D01*
X89661Y-23393D01*
X89747Y-23417D01*
X90118Y-23393D02*
X90176Y-23393D01*
X90233Y-23417D01*
X90261Y-23441D01*
X90290Y-23488D01*
X90318Y-23583D01*
X90318Y-23702D01*
X90290Y-23798D01*
X90261Y-23845D01*
X90233Y-23869D01*
X90176Y-23893D01*
X90118Y-23893D01*
X90061Y-23869D01*
X90033Y-23845D01*
X90004Y-23798D01*
X89976Y-23702D01*
X89976Y-23583D01*
X90004Y-23488D01*
X90033Y-23441D01*
X90061Y-23417D01*
X90118Y-23393D01*
X90518Y-23393D02*
X90890Y-23393D01*
X90690Y-23583D01*
X90776Y-23583D01*
X90833Y-23607D01*
X90861Y-23631D01*
X90890Y-23679D01*
X90890Y-23798D01*
X90861Y-23845D01*
X90833Y-23869D01*
X90776Y-23893D01*
X90604Y-23893D01*
X90547Y-23869D01*
X90518Y-23845D01*
X91147Y-23845D02*
X91176Y-23869D01*
X91147Y-23893D01*
X91118Y-23869D01*
X91147Y-23845D01*
X91147Y-23893D01*
X91147Y-23583D02*
X91176Y-23607D01*
X91147Y-23631D01*
X91118Y-23607D01*
X91147Y-23583D01*
X91147Y-23631D01*
X91461Y-23893D02*
X91576Y-23893D01*
X91633Y-23869D01*
X91661Y-23845D01*
X91718Y-23774D01*
X91747Y-23679D01*
X91747Y-23488D01*
X91718Y-23441D01*
X91690Y-23417D01*
X91633Y-23393D01*
X91518Y-23393D01*
X91461Y-23417D01*
X91433Y-23441D01*
X91404Y-23488D01*
X91404Y-23607D01*
X91433Y-23655D01*
X91461Y-23679D01*
X91518Y-23702D01*
X91633Y-23702D01*
X91690Y-23679D01*
X91718Y-23655D01*
X91747Y-23607D01*
X81904Y-23869D02*
X81990Y-23893D01*
X82133Y-23893D01*
X82190Y-23869D01*
X82218Y-23845D01*
X82247Y-23798D01*
X82247Y-23750D01*
X82218Y-23702D01*
X82190Y-23679D01*
X82133Y-23655D01*
X82018Y-23631D01*
X81961Y-23607D01*
X81933Y-23583D01*
X81904Y-23536D01*
X81904Y-23488D01*
X81933Y-23441D01*
X81961Y-23417D01*
X82018Y-23393D01*
X82161Y-23393D01*
X82247Y-23417D01*
X82618Y-23393D02*
X82676Y-23393D01*
X82733Y-23417D01*
X82761Y-23441D01*
X82790Y-23488D01*
X82818Y-23583D01*
X82818Y-23702D01*
X82790Y-23798D01*
X82761Y-23845D01*
X82733Y-23869D01*
X82676Y-23893D01*
X82618Y-23893D01*
X82561Y-23869D01*
X82533Y-23845D01*
X82504Y-23798D01*
X82476Y-23702D01*
X82476Y-23583D01*
X82504Y-23488D01*
X82533Y-23441D01*
X82561Y-23417D01*
X82618Y-23393D01*
X83018Y-23393D02*
X83390Y-23393D01*
X83190Y-23583D01*
X83276Y-23583D01*
X83333Y-23607D01*
X83361Y-23631D01*
X83390Y-23679D01*
X83390Y-23798D01*
X83361Y-23845D01*
X83333Y-23869D01*
X83276Y-23893D01*
X83104Y-23893D01*
X83047Y-23869D01*
X83018Y-23845D01*
X83647Y-23845D02*
X83676Y-23869D01*
X83647Y-23893D01*
X83618Y-23869D01*
X83647Y-23845D01*
X83647Y-23893D01*
X83647Y-23583D02*
X83676Y-23607D01*
X83647Y-23631D01*
X83618Y-23607D01*
X83647Y-23583D01*
X83647Y-23631D01*
X84018Y-23607D02*
X83961Y-23583D01*
X83933Y-23560D01*
X83904Y-23512D01*
X83904Y-23488D01*
X83933Y-23441D01*
X83961Y-23417D01*
X84018Y-23393D01*
X84133Y-23393D01*
X84190Y-23417D01*
X84218Y-23441D01*
X84247Y-23488D01*
X84247Y-23512D01*
X84218Y-23560D01*
X84190Y-23583D01*
X84133Y-23607D01*
X84018Y-23607D01*
X83961Y-23631D01*
X83933Y-23655D01*
X83904Y-23702D01*
X83904Y-23798D01*
X83933Y-23845D01*
X83961Y-23869D01*
X84018Y-23893D01*
X84133Y-23893D01*
X84190Y-23869D01*
X84218Y-23845D01*
X84247Y-23798D01*
X84247Y-23702D01*
X84218Y-23655D01*
X84190Y-23631D01*
X84133Y-23607D01*
X74404Y-23869D02*
X74490Y-23893D01*
X74633Y-23893D01*
X74690Y-23869D01*
X74718Y-23845D01*
X74747Y-23798D01*
X74747Y-23750D01*
X74718Y-23702D01*
X74690Y-23679D01*
X74633Y-23655D01*
X74518Y-23631D01*
X74461Y-23607D01*
X74433Y-23583D01*
X74404Y-23536D01*
X74404Y-23488D01*
X74433Y-23441D01*
X74461Y-23417D01*
X74518Y-23393D01*
X74661Y-23393D01*
X74747Y-23417D01*
X75118Y-23393D02*
X75176Y-23393D01*
X75233Y-23417D01*
X75261Y-23441D01*
X75290Y-23488D01*
X75318Y-23583D01*
X75318Y-23702D01*
X75290Y-23798D01*
X75261Y-23845D01*
X75233Y-23869D01*
X75176Y-23893D01*
X75118Y-23893D01*
X75061Y-23869D01*
X75033Y-23845D01*
X75004Y-23798D01*
X74976Y-23702D01*
X74976Y-23583D01*
X75004Y-23488D01*
X75033Y-23441D01*
X75061Y-23417D01*
X75118Y-23393D01*
X75518Y-23393D02*
X75890Y-23393D01*
X75690Y-23583D01*
X75776Y-23583D01*
X75833Y-23607D01*
X75861Y-23631D01*
X75890Y-23679D01*
X75890Y-23798D01*
X75861Y-23845D01*
X75833Y-23869D01*
X75776Y-23893D01*
X75604Y-23893D01*
X75547Y-23869D01*
X75518Y-23845D01*
X76147Y-23845D02*
X76176Y-23869D01*
X76147Y-23893D01*
X76118Y-23869D01*
X76147Y-23845D01*
X76147Y-23893D01*
X76147Y-23583D02*
X76176Y-23607D01*
X76147Y-23631D01*
X76118Y-23607D01*
X76147Y-23583D01*
X76147Y-23631D01*
X76376Y-23393D02*
X76776Y-23393D01*
X76518Y-23893D01*
X66904Y-23869D02*
X66990Y-23893D01*
X67133Y-23893D01*
X67190Y-23869D01*
X67218Y-23845D01*
X67247Y-23798D01*
X67247Y-23750D01*
X67218Y-23702D01*
X67190Y-23679D01*
X67133Y-23655D01*
X67018Y-23631D01*
X66961Y-23607D01*
X66933Y-23583D01*
X66904Y-23536D01*
X66904Y-23488D01*
X66933Y-23441D01*
X66961Y-23417D01*
X67018Y-23393D01*
X67161Y-23393D01*
X67247Y-23417D01*
X67618Y-23393D02*
X67676Y-23393D01*
X67733Y-23417D01*
X67761Y-23441D01*
X67790Y-23488D01*
X67818Y-23583D01*
X67818Y-23702D01*
X67790Y-23798D01*
X67761Y-23845D01*
X67733Y-23869D01*
X67676Y-23893D01*
X67618Y-23893D01*
X67561Y-23869D01*
X67533Y-23845D01*
X67504Y-23798D01*
X67476Y-23702D01*
X67476Y-23583D01*
X67504Y-23488D01*
X67533Y-23441D01*
X67561Y-23417D01*
X67618Y-23393D01*
X68018Y-23393D02*
X68390Y-23393D01*
X68190Y-23583D01*
X68276Y-23583D01*
X68333Y-23607D01*
X68361Y-23631D01*
X68390Y-23679D01*
X68390Y-23798D01*
X68361Y-23845D01*
X68333Y-23869D01*
X68276Y-23893D01*
X68104Y-23893D01*
X68047Y-23869D01*
X68018Y-23845D01*
X68647Y-23845D02*
X68676Y-23869D01*
X68647Y-23893D01*
X68618Y-23869D01*
X68647Y-23845D01*
X68647Y-23893D01*
X68647Y-23583D02*
X68676Y-23607D01*
X68647Y-23631D01*
X68618Y-23607D01*
X68647Y-23583D01*
X68647Y-23631D01*
X69190Y-23393D02*
X69076Y-23393D01*
X69018Y-23417D01*
X68990Y-23441D01*
X68933Y-23512D01*
X68904Y-23607D01*
X68904Y-23798D01*
X68933Y-23845D01*
X68961Y-23869D01*
X69018Y-23893D01*
X69133Y-23893D01*
X69190Y-23869D01*
X69218Y-23845D01*
X69247Y-23798D01*
X69247Y-23679D01*
X69218Y-23631D01*
X69190Y-23607D01*
X69133Y-23583D01*
X69018Y-23583D01*
X68961Y-23607D01*
X68933Y-23631D01*
X68904Y-23679D01*
X59404Y-23869D02*
X59490Y-23893D01*
X59633Y-23893D01*
X59690Y-23869D01*
X59718Y-23845D01*
X59747Y-23798D01*
X59747Y-23750D01*
X59718Y-23702D01*
X59690Y-23679D01*
X59633Y-23655D01*
X59518Y-23631D01*
X59461Y-23607D01*
X59433Y-23583D01*
X59404Y-23536D01*
X59404Y-23488D01*
X59433Y-23441D01*
X59461Y-23417D01*
X59518Y-23393D01*
X59661Y-23393D01*
X59747Y-23417D01*
X60118Y-23393D02*
X60176Y-23393D01*
X60233Y-23417D01*
X60261Y-23441D01*
X60290Y-23488D01*
X60318Y-23583D01*
X60318Y-23702D01*
X60290Y-23798D01*
X60261Y-23845D01*
X60233Y-23869D01*
X60176Y-23893D01*
X60118Y-23893D01*
X60061Y-23869D01*
X60033Y-23845D01*
X60004Y-23798D01*
X59976Y-23702D01*
X59976Y-23583D01*
X60004Y-23488D01*
X60033Y-23441D01*
X60061Y-23417D01*
X60118Y-23393D01*
X60518Y-23393D02*
X60890Y-23393D01*
X60690Y-23583D01*
X60776Y-23583D01*
X60833Y-23607D01*
X60861Y-23631D01*
X60890Y-23679D01*
X60890Y-23798D01*
X60861Y-23845D01*
X60833Y-23869D01*
X60776Y-23893D01*
X60604Y-23893D01*
X60547Y-23869D01*
X60518Y-23845D01*
X61147Y-23845D02*
X61176Y-23869D01*
X61147Y-23893D01*
X61118Y-23869D01*
X61147Y-23845D01*
X61147Y-23893D01*
X61147Y-23583D02*
X61176Y-23607D01*
X61147Y-23631D01*
X61118Y-23607D01*
X61147Y-23583D01*
X61147Y-23631D01*
X61718Y-23393D02*
X61433Y-23393D01*
X61404Y-23631D01*
X61433Y-23607D01*
X61490Y-23583D01*
X61633Y-23583D01*
X61690Y-23607D01*
X61718Y-23631D01*
X61747Y-23679D01*
X61747Y-23798D01*
X61718Y-23845D01*
X61690Y-23869D01*
X61633Y-23893D01*
X61490Y-23893D01*
X61433Y-23869D01*
X61404Y-23845D01*
X51904Y-23869D02*
X51990Y-23893D01*
X52133Y-23893D01*
X52190Y-23869D01*
X52218Y-23845D01*
X52247Y-23798D01*
X52247Y-23750D01*
X52218Y-23702D01*
X52190Y-23679D01*
X52133Y-23655D01*
X52018Y-23631D01*
X51961Y-23607D01*
X51933Y-23583D01*
X51904Y-23536D01*
X51904Y-23488D01*
X51933Y-23441D01*
X51961Y-23417D01*
X52018Y-23393D01*
X52161Y-23393D01*
X52247Y-23417D01*
X52618Y-23393D02*
X52676Y-23393D01*
X52733Y-23417D01*
X52761Y-23441D01*
X52790Y-23488D01*
X52818Y-23583D01*
X52818Y-23702D01*
X52790Y-23798D01*
X52761Y-23845D01*
X52733Y-23869D01*
X52676Y-23893D01*
X52618Y-23893D01*
X52561Y-23869D01*
X52533Y-23845D01*
X52504Y-23798D01*
X52476Y-23702D01*
X52476Y-23583D01*
X52504Y-23488D01*
X52533Y-23441D01*
X52561Y-23417D01*
X52618Y-23393D01*
X53018Y-23393D02*
X53390Y-23393D01*
X53190Y-23583D01*
X53276Y-23583D01*
X53333Y-23607D01*
X53361Y-23631D01*
X53390Y-23679D01*
X53390Y-23798D01*
X53361Y-23845D01*
X53333Y-23869D01*
X53276Y-23893D01*
X53104Y-23893D01*
X53047Y-23869D01*
X53018Y-23845D01*
X53647Y-23845D02*
X53676Y-23869D01*
X53647Y-23893D01*
X53618Y-23869D01*
X53647Y-23845D01*
X53647Y-23893D01*
X53647Y-23583D02*
X53676Y-23607D01*
X53647Y-23631D01*
X53618Y-23607D01*
X53647Y-23583D01*
X53647Y-23631D01*
X54190Y-23560D02*
X54190Y-23893D01*
X54047Y-23369D02*
X53904Y-23726D01*
X54276Y-23726D01*
X98518Y-8869D02*
X98604Y-8893D01*
X98747Y-8893D01*
X98804Y-8869D01*
X98833Y-8845D01*
X98861Y-8798D01*
X98861Y-8750D01*
X98833Y-8702D01*
X98804Y-8679D01*
X98747Y-8655D01*
X98633Y-8631D01*
X98576Y-8607D01*
X98547Y-8583D01*
X98518Y-8536D01*
X98518Y-8488D01*
X98547Y-8441D01*
X98576Y-8417D01*
X98633Y-8393D01*
X98776Y-8393D01*
X98861Y-8417D01*
X99233Y-8393D02*
X99290Y-8393D01*
X99347Y-8417D01*
X99376Y-8441D01*
X99404Y-8488D01*
X99433Y-8583D01*
X99433Y-8702D01*
X99404Y-8798D01*
X99376Y-8845D01*
X99347Y-8869D01*
X99290Y-8893D01*
X99233Y-8893D01*
X99176Y-8869D01*
X99147Y-8845D01*
X99118Y-8798D01*
X99090Y-8702D01*
X99090Y-8583D01*
X99118Y-8488D01*
X99147Y-8441D01*
X99176Y-8417D01*
X99233Y-8393D01*
X100004Y-8893D02*
X99661Y-8893D01*
X99833Y-8893D02*
X99833Y-8393D01*
X99776Y-8464D01*
X99718Y-8512D01*
X99661Y-8536D01*
X100261Y-8845D02*
X100290Y-8869D01*
X100261Y-8893D01*
X100233Y-8869D01*
X100261Y-8845D01*
X100261Y-8893D01*
X100261Y-8583D02*
X100290Y-8607D01*
X100261Y-8631D01*
X100233Y-8607D01*
X100261Y-8583D01*
X100261Y-8631D01*
X100861Y-8893D02*
X100518Y-8893D01*
X100690Y-8893D02*
X100690Y-8393D01*
X100633Y-8464D01*
X100576Y-8512D01*
X100518Y-8536D01*
X101433Y-8893D02*
X101090Y-8893D01*
X101261Y-8893D02*
X101261Y-8393D01*
X101204Y-8464D01*
X101147Y-8512D01*
X101090Y-8536D01*
X36904Y-23869D02*
X36990Y-23893D01*
X37133Y-23893D01*
X37190Y-23869D01*
X37218Y-23845D01*
X37247Y-23798D01*
X37247Y-23750D01*
X37218Y-23702D01*
X37190Y-23679D01*
X37133Y-23655D01*
X37018Y-23631D01*
X36961Y-23607D01*
X36933Y-23583D01*
X36904Y-23536D01*
X36904Y-23488D01*
X36933Y-23441D01*
X36961Y-23417D01*
X37018Y-23393D01*
X37161Y-23393D01*
X37247Y-23417D01*
X37618Y-23393D02*
X37676Y-23393D01*
X37733Y-23417D01*
X37761Y-23441D01*
X37790Y-23488D01*
X37818Y-23583D01*
X37818Y-23702D01*
X37790Y-23798D01*
X37761Y-23845D01*
X37733Y-23869D01*
X37676Y-23893D01*
X37618Y-23893D01*
X37561Y-23869D01*
X37533Y-23845D01*
X37504Y-23798D01*
X37476Y-23702D01*
X37476Y-23583D01*
X37504Y-23488D01*
X37533Y-23441D01*
X37561Y-23417D01*
X37618Y-23393D01*
X38018Y-23393D02*
X38390Y-23393D01*
X38190Y-23583D01*
X38276Y-23583D01*
X38333Y-23607D01*
X38361Y-23631D01*
X38390Y-23679D01*
X38390Y-23798D01*
X38361Y-23845D01*
X38333Y-23869D01*
X38276Y-23893D01*
X38104Y-23893D01*
X38047Y-23869D01*
X38018Y-23845D01*
X38647Y-23845D02*
X38676Y-23869D01*
X38647Y-23893D01*
X38618Y-23869D01*
X38647Y-23845D01*
X38647Y-23893D01*
X38647Y-23583D02*
X38676Y-23607D01*
X38647Y-23631D01*
X38618Y-23607D01*
X38647Y-23583D01*
X38647Y-23631D01*
X38904Y-23441D02*
X38933Y-23417D01*
X38990Y-23393D01*
X39133Y-23393D01*
X39190Y-23417D01*
X39218Y-23441D01*
X39247Y-23488D01*
X39247Y-23536D01*
X39218Y-23607D01*
X38876Y-23893D01*
X39247Y-23893D01*
X92918Y-16369D02*
X93004Y-16393D01*
X93147Y-16393D01*
X93204Y-16369D01*
X93233Y-16345D01*
X93261Y-16298D01*
X93261Y-16250D01*
X93233Y-16202D01*
X93204Y-16179D01*
X93147Y-16155D01*
X93033Y-16131D01*
X92976Y-16107D01*
X92947Y-16083D01*
X92918Y-16036D01*
X92918Y-15988D01*
X92947Y-15941D01*
X92976Y-15917D01*
X93033Y-15893D01*
X93176Y-15893D01*
X93261Y-15917D01*
X93633Y-15893D02*
X93690Y-15893D01*
X93747Y-15917D01*
X93776Y-15941D01*
X93804Y-15988D01*
X93833Y-16083D01*
X93833Y-16202D01*
X93804Y-16298D01*
X93776Y-16345D01*
X93747Y-16369D01*
X93690Y-16393D01*
X93633Y-16393D01*
X93576Y-16369D01*
X93547Y-16345D01*
X93518Y-16298D01*
X93490Y-16202D01*
X93490Y-16083D01*
X93518Y-15988D01*
X93547Y-15941D01*
X93576Y-15917D01*
X93633Y-15893D01*
X94061Y-15941D02*
X94090Y-15917D01*
X94147Y-15893D01*
X94290Y-15893D01*
X94347Y-15917D01*
X94376Y-15941D01*
X94404Y-15988D01*
X94404Y-16036D01*
X94376Y-16107D01*
X94033Y-16393D01*
X94404Y-16393D01*
X94661Y-16345D02*
X94690Y-16369D01*
X94661Y-16393D01*
X94633Y-16369D01*
X94661Y-16345D01*
X94661Y-16393D01*
X94661Y-16083D02*
X94690Y-16107D01*
X94661Y-16131D01*
X94633Y-16107D01*
X94661Y-16083D01*
X94661Y-16131D01*
X95261Y-16393D02*
X94918Y-16393D01*
X95090Y-16393D02*
X95090Y-15893D01*
X95033Y-15964D01*
X94976Y-16012D01*
X94918Y-16036D01*
X95633Y-15893D02*
X95690Y-15893D01*
X95747Y-15917D01*
X95776Y-15941D01*
X95804Y-15988D01*
X95833Y-16083D01*
X95833Y-16202D01*
X95804Y-16298D01*
X95776Y-16345D01*
X95747Y-16369D01*
X95690Y-16393D01*
X95633Y-16393D01*
X95576Y-16369D01*
X95547Y-16345D01*
X95518Y-16298D01*
X95490Y-16202D01*
X95490Y-16083D01*
X95518Y-15988D01*
X95547Y-15941D01*
X95576Y-15917D01*
X95633Y-15893D01*
X85704Y-16369D02*
X85790Y-16393D01*
X85933Y-16393D01*
X85990Y-16369D01*
X86018Y-16345D01*
X86047Y-16298D01*
X86047Y-16250D01*
X86018Y-16202D01*
X85990Y-16179D01*
X85933Y-16155D01*
X85818Y-16131D01*
X85761Y-16107D01*
X85733Y-16083D01*
X85704Y-16036D01*
X85704Y-15988D01*
X85733Y-15941D01*
X85761Y-15917D01*
X85818Y-15893D01*
X85961Y-15893D01*
X86047Y-15917D01*
X86418Y-15893D02*
X86476Y-15893D01*
X86533Y-15917D01*
X86561Y-15941D01*
X86590Y-15988D01*
X86618Y-16083D01*
X86618Y-16202D01*
X86590Y-16298D01*
X86561Y-16345D01*
X86533Y-16369D01*
X86476Y-16393D01*
X86418Y-16393D01*
X86361Y-16369D01*
X86333Y-16345D01*
X86304Y-16298D01*
X86276Y-16202D01*
X86276Y-16083D01*
X86304Y-15988D01*
X86333Y-15941D01*
X86361Y-15917D01*
X86418Y-15893D01*
X86847Y-15941D02*
X86876Y-15917D01*
X86933Y-15893D01*
X87076Y-15893D01*
X87133Y-15917D01*
X87161Y-15941D01*
X87190Y-15988D01*
X87190Y-16036D01*
X87161Y-16107D01*
X86818Y-16393D01*
X87190Y-16393D01*
X87447Y-16345D02*
X87476Y-16369D01*
X87447Y-16393D01*
X87418Y-16369D01*
X87447Y-16345D01*
X87447Y-16393D01*
X87447Y-16083D02*
X87476Y-16107D01*
X87447Y-16131D01*
X87418Y-16107D01*
X87447Y-16083D01*
X87447Y-16131D01*
X87761Y-16393D02*
X87876Y-16393D01*
X87933Y-16369D01*
X87961Y-16345D01*
X88018Y-16274D01*
X88047Y-16179D01*
X88047Y-15988D01*
X88018Y-15941D01*
X87990Y-15917D01*
X87933Y-15893D01*
X87818Y-15893D01*
X87761Y-15917D01*
X87733Y-15941D01*
X87704Y-15988D01*
X87704Y-16107D01*
X87733Y-16155D01*
X87761Y-16179D01*
X87818Y-16202D01*
X87933Y-16202D01*
X87990Y-16179D01*
X88018Y-16155D01*
X88047Y-16107D01*
X78204Y-16369D02*
X78290Y-16393D01*
X78433Y-16393D01*
X78490Y-16369D01*
X78518Y-16345D01*
X78547Y-16298D01*
X78547Y-16250D01*
X78518Y-16202D01*
X78490Y-16179D01*
X78433Y-16155D01*
X78318Y-16131D01*
X78261Y-16107D01*
X78233Y-16083D01*
X78204Y-16036D01*
X78204Y-15988D01*
X78233Y-15941D01*
X78261Y-15917D01*
X78318Y-15893D01*
X78461Y-15893D01*
X78547Y-15917D01*
X78918Y-15893D02*
X78976Y-15893D01*
X79033Y-15917D01*
X79061Y-15941D01*
X79090Y-15988D01*
X79118Y-16083D01*
X79118Y-16202D01*
X79090Y-16298D01*
X79061Y-16345D01*
X79033Y-16369D01*
X78976Y-16393D01*
X78918Y-16393D01*
X78861Y-16369D01*
X78833Y-16345D01*
X78804Y-16298D01*
X78776Y-16202D01*
X78776Y-16083D01*
X78804Y-15988D01*
X78833Y-15941D01*
X78861Y-15917D01*
X78918Y-15893D01*
X79347Y-15941D02*
X79376Y-15917D01*
X79433Y-15893D01*
X79576Y-15893D01*
X79633Y-15917D01*
X79661Y-15941D01*
X79690Y-15988D01*
X79690Y-16036D01*
X79661Y-16107D01*
X79318Y-16393D01*
X79690Y-16393D01*
X79947Y-16345D02*
X79976Y-16369D01*
X79947Y-16393D01*
X79918Y-16369D01*
X79947Y-16345D01*
X79947Y-16393D01*
X79947Y-16083D02*
X79976Y-16107D01*
X79947Y-16131D01*
X79918Y-16107D01*
X79947Y-16083D01*
X79947Y-16131D01*
X80318Y-16107D02*
X80261Y-16083D01*
X80233Y-16060D01*
X80204Y-16012D01*
X80204Y-15988D01*
X80233Y-15941D01*
X80261Y-15917D01*
X80318Y-15893D01*
X80433Y-15893D01*
X80490Y-15917D01*
X80518Y-15941D01*
X80547Y-15988D01*
X80547Y-16012D01*
X80518Y-16060D01*
X80490Y-16083D01*
X80433Y-16107D01*
X80318Y-16107D01*
X80261Y-16131D01*
X80233Y-16155D01*
X80204Y-16202D01*
X80204Y-16298D01*
X80233Y-16345D01*
X80261Y-16369D01*
X80318Y-16393D01*
X80433Y-16393D01*
X80490Y-16369D01*
X80518Y-16345D01*
X80547Y-16298D01*
X80547Y-16202D01*
X80518Y-16155D01*
X80490Y-16131D01*
X80433Y-16107D01*
X70704Y-16369D02*
X70790Y-16393D01*
X70933Y-16393D01*
X70990Y-16369D01*
X71018Y-16345D01*
X71047Y-16298D01*
X71047Y-16250D01*
X71018Y-16202D01*
X70990Y-16179D01*
X70933Y-16155D01*
X70818Y-16131D01*
X70761Y-16107D01*
X70733Y-16083D01*
X70704Y-16036D01*
X70704Y-15988D01*
X70733Y-15941D01*
X70761Y-15917D01*
X70818Y-15893D01*
X70961Y-15893D01*
X71047Y-15917D01*
X71418Y-15893D02*
X71476Y-15893D01*
X71533Y-15917D01*
X71561Y-15941D01*
X71590Y-15988D01*
X71618Y-16083D01*
X71618Y-16202D01*
X71590Y-16298D01*
X71561Y-16345D01*
X71533Y-16369D01*
X71476Y-16393D01*
X71418Y-16393D01*
X71361Y-16369D01*
X71333Y-16345D01*
X71304Y-16298D01*
X71276Y-16202D01*
X71276Y-16083D01*
X71304Y-15988D01*
X71333Y-15941D01*
X71361Y-15917D01*
X71418Y-15893D01*
X71847Y-15941D02*
X71876Y-15917D01*
X71933Y-15893D01*
X72076Y-15893D01*
X72133Y-15917D01*
X72161Y-15941D01*
X72190Y-15988D01*
X72190Y-16036D01*
X72161Y-16107D01*
X71818Y-16393D01*
X72190Y-16393D01*
X72447Y-16345D02*
X72476Y-16369D01*
X72447Y-16393D01*
X72418Y-16369D01*
X72447Y-16345D01*
X72447Y-16393D01*
X72447Y-16083D02*
X72476Y-16107D01*
X72447Y-16131D01*
X72418Y-16107D01*
X72447Y-16083D01*
X72447Y-16131D01*
X72676Y-15893D02*
X73076Y-15893D01*
X72818Y-16393D01*
X63204Y-16369D02*
X63290Y-16393D01*
X63433Y-16393D01*
X63490Y-16369D01*
X63518Y-16345D01*
X63547Y-16298D01*
X63547Y-16250D01*
X63518Y-16202D01*
X63490Y-16179D01*
X63433Y-16155D01*
X63318Y-16131D01*
X63261Y-16107D01*
X63233Y-16083D01*
X63204Y-16036D01*
X63204Y-15988D01*
X63233Y-15941D01*
X63261Y-15917D01*
X63318Y-15893D01*
X63461Y-15893D01*
X63547Y-15917D01*
X63918Y-15893D02*
X63976Y-15893D01*
X64033Y-15917D01*
X64061Y-15941D01*
X64090Y-15988D01*
X64118Y-16083D01*
X64118Y-16202D01*
X64090Y-16298D01*
X64061Y-16345D01*
X64033Y-16369D01*
X63976Y-16393D01*
X63918Y-16393D01*
X63861Y-16369D01*
X63833Y-16345D01*
X63804Y-16298D01*
X63776Y-16202D01*
X63776Y-16083D01*
X63804Y-15988D01*
X63833Y-15941D01*
X63861Y-15917D01*
X63918Y-15893D01*
X64347Y-15941D02*
X64376Y-15917D01*
X64433Y-15893D01*
X64576Y-15893D01*
X64633Y-15917D01*
X64661Y-15941D01*
X64690Y-15988D01*
X64690Y-16036D01*
X64661Y-16107D01*
X64318Y-16393D01*
X64690Y-16393D01*
X64947Y-16345D02*
X64976Y-16369D01*
X64947Y-16393D01*
X64918Y-16369D01*
X64947Y-16345D01*
X64947Y-16393D01*
X64947Y-16083D02*
X64976Y-16107D01*
X64947Y-16131D01*
X64918Y-16107D01*
X64947Y-16083D01*
X64947Y-16131D01*
X65490Y-15893D02*
X65376Y-15893D01*
X65318Y-15917D01*
X65290Y-15941D01*
X65233Y-16012D01*
X65204Y-16107D01*
X65204Y-16298D01*
X65233Y-16345D01*
X65261Y-16369D01*
X65318Y-16393D01*
X65433Y-16393D01*
X65490Y-16369D01*
X65518Y-16345D01*
X65547Y-16298D01*
X65547Y-16179D01*
X65518Y-16131D01*
X65490Y-16107D01*
X65433Y-16083D01*
X65318Y-16083D01*
X65261Y-16107D01*
X65233Y-16131D01*
X65204Y-16179D01*
X55704Y-16369D02*
X55790Y-16393D01*
X55933Y-16393D01*
X55990Y-16369D01*
X56018Y-16345D01*
X56047Y-16298D01*
X56047Y-16250D01*
X56018Y-16202D01*
X55990Y-16179D01*
X55933Y-16155D01*
X55818Y-16131D01*
X55761Y-16107D01*
X55733Y-16083D01*
X55704Y-16036D01*
X55704Y-15988D01*
X55733Y-15941D01*
X55761Y-15917D01*
X55818Y-15893D01*
X55961Y-15893D01*
X56047Y-15917D01*
X56418Y-15893D02*
X56476Y-15893D01*
X56533Y-15917D01*
X56561Y-15941D01*
X56590Y-15988D01*
X56618Y-16083D01*
X56618Y-16202D01*
X56590Y-16298D01*
X56561Y-16345D01*
X56533Y-16369D01*
X56476Y-16393D01*
X56418Y-16393D01*
X56361Y-16369D01*
X56333Y-16345D01*
X56304Y-16298D01*
X56276Y-16202D01*
X56276Y-16083D01*
X56304Y-15988D01*
X56333Y-15941D01*
X56361Y-15917D01*
X56418Y-15893D01*
X56847Y-15941D02*
X56876Y-15917D01*
X56933Y-15893D01*
X57076Y-15893D01*
X57133Y-15917D01*
X57161Y-15941D01*
X57190Y-15988D01*
X57190Y-16036D01*
X57161Y-16107D01*
X56818Y-16393D01*
X57190Y-16393D01*
X57447Y-16345D02*
X57476Y-16369D01*
X57447Y-16393D01*
X57418Y-16369D01*
X57447Y-16345D01*
X57447Y-16393D01*
X57447Y-16083D02*
X57476Y-16107D01*
X57447Y-16131D01*
X57418Y-16107D01*
X57447Y-16083D01*
X57447Y-16131D01*
X58018Y-15893D02*
X57733Y-15893D01*
X57704Y-16131D01*
X57733Y-16107D01*
X57790Y-16083D01*
X57933Y-16083D01*
X57990Y-16107D01*
X58018Y-16131D01*
X58047Y-16179D01*
X58047Y-16298D01*
X58018Y-16345D01*
X57990Y-16369D01*
X57933Y-16393D01*
X57790Y-16393D01*
X57733Y-16369D01*
X57704Y-16345D01*
X48204Y-16369D02*
X48290Y-16393D01*
X48433Y-16393D01*
X48490Y-16369D01*
X48518Y-16345D01*
X48547Y-16298D01*
X48547Y-16250D01*
X48518Y-16202D01*
X48490Y-16179D01*
X48433Y-16155D01*
X48318Y-16131D01*
X48261Y-16107D01*
X48233Y-16083D01*
X48204Y-16036D01*
X48204Y-15988D01*
X48233Y-15941D01*
X48261Y-15917D01*
X48318Y-15893D01*
X48461Y-15893D01*
X48547Y-15917D01*
X48918Y-15893D02*
X48976Y-15893D01*
X49033Y-15917D01*
X49061Y-15941D01*
X49090Y-15988D01*
X49118Y-16083D01*
X49118Y-16202D01*
X49090Y-16298D01*
X49061Y-16345D01*
X49033Y-16369D01*
X48976Y-16393D01*
X48918Y-16393D01*
X48861Y-16369D01*
X48833Y-16345D01*
X48804Y-16298D01*
X48776Y-16202D01*
X48776Y-16083D01*
X48804Y-15988D01*
X48833Y-15941D01*
X48861Y-15917D01*
X48918Y-15893D01*
X49347Y-15941D02*
X49376Y-15917D01*
X49433Y-15893D01*
X49576Y-15893D01*
X49633Y-15917D01*
X49661Y-15941D01*
X49690Y-15988D01*
X49690Y-16036D01*
X49661Y-16107D01*
X49318Y-16393D01*
X49690Y-16393D01*
X49947Y-16345D02*
X49976Y-16369D01*
X49947Y-16393D01*
X49918Y-16369D01*
X49947Y-16345D01*
X49947Y-16393D01*
X49947Y-16083D02*
X49976Y-16107D01*
X49947Y-16131D01*
X49918Y-16107D01*
X49947Y-16083D01*
X49947Y-16131D01*
X50490Y-16060D02*
X50490Y-16393D01*
X50347Y-15869D02*
X50204Y-16226D01*
X50576Y-16226D01*
X40704Y-16369D02*
X40790Y-16393D01*
X40933Y-16393D01*
X40990Y-16369D01*
X41018Y-16345D01*
X41047Y-16298D01*
X41047Y-16250D01*
X41018Y-16202D01*
X40990Y-16179D01*
X40933Y-16155D01*
X40818Y-16131D01*
X40761Y-16107D01*
X40733Y-16083D01*
X40704Y-16036D01*
X40704Y-15988D01*
X40733Y-15941D01*
X40761Y-15917D01*
X40818Y-15893D01*
X40961Y-15893D01*
X41047Y-15917D01*
X41418Y-15893D02*
X41476Y-15893D01*
X41533Y-15917D01*
X41561Y-15941D01*
X41590Y-15988D01*
X41618Y-16083D01*
X41618Y-16202D01*
X41590Y-16298D01*
X41561Y-16345D01*
X41533Y-16369D01*
X41476Y-16393D01*
X41418Y-16393D01*
X41361Y-16369D01*
X41333Y-16345D01*
X41304Y-16298D01*
X41276Y-16202D01*
X41276Y-16083D01*
X41304Y-15988D01*
X41333Y-15941D01*
X41361Y-15917D01*
X41418Y-15893D01*
X41847Y-15941D02*
X41876Y-15917D01*
X41933Y-15893D01*
X42076Y-15893D01*
X42133Y-15917D01*
X42161Y-15941D01*
X42190Y-15988D01*
X42190Y-16036D01*
X42161Y-16107D01*
X41818Y-16393D01*
X42190Y-16393D01*
X42447Y-16345D02*
X42476Y-16369D01*
X42447Y-16393D01*
X42418Y-16369D01*
X42447Y-16345D01*
X42447Y-16393D01*
X42447Y-16083D02*
X42476Y-16107D01*
X42447Y-16131D01*
X42418Y-16107D01*
X42447Y-16083D01*
X42447Y-16131D01*
X42676Y-15893D02*
X43047Y-15893D01*
X42847Y-16083D01*
X42933Y-16083D01*
X42990Y-16107D01*
X43018Y-16131D01*
X43047Y-16179D01*
X43047Y-16298D01*
X43018Y-16345D01*
X42990Y-16369D01*
X42933Y-16393D01*
X42761Y-16393D01*
X42704Y-16369D01*
X42676Y-16345D01*
X33204Y-16369D02*
X33290Y-16393D01*
X33433Y-16393D01*
X33490Y-16369D01*
X33518Y-16345D01*
X33547Y-16298D01*
X33547Y-16250D01*
X33518Y-16202D01*
X33490Y-16179D01*
X33433Y-16155D01*
X33318Y-16131D01*
X33261Y-16107D01*
X33233Y-16083D01*
X33204Y-16036D01*
X33204Y-15988D01*
X33233Y-15941D01*
X33261Y-15917D01*
X33318Y-15893D01*
X33461Y-15893D01*
X33547Y-15917D01*
X33918Y-15893D02*
X33976Y-15893D01*
X34033Y-15917D01*
X34061Y-15941D01*
X34090Y-15988D01*
X34118Y-16083D01*
X34118Y-16202D01*
X34090Y-16298D01*
X34061Y-16345D01*
X34033Y-16369D01*
X33976Y-16393D01*
X33918Y-16393D01*
X33861Y-16369D01*
X33833Y-16345D01*
X33804Y-16298D01*
X33776Y-16202D01*
X33776Y-16083D01*
X33804Y-15988D01*
X33833Y-15941D01*
X33861Y-15917D01*
X33918Y-15893D01*
X34347Y-15941D02*
X34376Y-15917D01*
X34433Y-15893D01*
X34576Y-15893D01*
X34633Y-15917D01*
X34661Y-15941D01*
X34690Y-15988D01*
X34690Y-16036D01*
X34661Y-16107D01*
X34318Y-16393D01*
X34690Y-16393D01*
X34947Y-16345D02*
X34976Y-16369D01*
X34947Y-16393D01*
X34918Y-16369D01*
X34947Y-16345D01*
X34947Y-16393D01*
X34947Y-16083D02*
X34976Y-16107D01*
X34947Y-16131D01*
X34918Y-16107D01*
X34947Y-16083D01*
X34947Y-16131D01*
X35204Y-15941D02*
X35233Y-15917D01*
X35290Y-15893D01*
X35433Y-15893D01*
X35490Y-15917D01*
X35518Y-15941D01*
X35547Y-15988D01*
X35547Y-16036D01*
X35518Y-16107D01*
X35176Y-16393D01*
X35547Y-16393D01*
X106018Y-8869D02*
X106104Y-8893D01*
X106247Y-8893D01*
X106304Y-8869D01*
X106333Y-8845D01*
X106361Y-8798D01*
X106361Y-8750D01*
X106333Y-8702D01*
X106304Y-8679D01*
X106247Y-8655D01*
X106133Y-8631D01*
X106076Y-8607D01*
X106047Y-8583D01*
X106018Y-8536D01*
X106018Y-8488D01*
X106047Y-8441D01*
X106076Y-8417D01*
X106133Y-8393D01*
X106276Y-8393D01*
X106361Y-8417D01*
X106733Y-8393D02*
X106790Y-8393D01*
X106847Y-8417D01*
X106876Y-8441D01*
X106904Y-8488D01*
X106933Y-8583D01*
X106933Y-8702D01*
X106904Y-8798D01*
X106876Y-8845D01*
X106847Y-8869D01*
X106790Y-8893D01*
X106733Y-8893D01*
X106676Y-8869D01*
X106647Y-8845D01*
X106618Y-8798D01*
X106590Y-8702D01*
X106590Y-8583D01*
X106618Y-8488D01*
X106647Y-8441D01*
X106676Y-8417D01*
X106733Y-8393D01*
X107504Y-8893D02*
X107161Y-8893D01*
X107333Y-8893D02*
X107333Y-8393D01*
X107276Y-8464D01*
X107218Y-8512D01*
X107161Y-8536D01*
X107761Y-8845D02*
X107790Y-8869D01*
X107761Y-8893D01*
X107733Y-8869D01*
X107761Y-8845D01*
X107761Y-8893D01*
X107761Y-8583D02*
X107790Y-8607D01*
X107761Y-8631D01*
X107733Y-8607D01*
X107761Y-8583D01*
X107761Y-8631D01*
X108361Y-8893D02*
X108018Y-8893D01*
X108190Y-8893D02*
X108190Y-8393D01*
X108133Y-8464D01*
X108076Y-8512D01*
X108018Y-8536D01*
X108590Y-8441D02*
X108618Y-8417D01*
X108676Y-8393D01*
X108818Y-8393D01*
X108876Y-8417D01*
X108904Y-8441D01*
X108933Y-8488D01*
X108933Y-8536D01*
X108904Y-8607D01*
X108561Y-8893D01*
X108933Y-8893D01*
X95718Y-31369D02*
X95804Y-31393D01*
X95947Y-31393D01*
X96004Y-31369D01*
X96033Y-31345D01*
X96061Y-31298D01*
X96061Y-31250D01*
X96033Y-31202D01*
X96004Y-31179D01*
X95947Y-31155D01*
X95833Y-31131D01*
X95776Y-31107D01*
X95747Y-31083D01*
X95718Y-31036D01*
X95718Y-30988D01*
X95747Y-30941D01*
X95776Y-30917D01*
X95833Y-30893D01*
X95976Y-30893D01*
X96061Y-30917D01*
X96433Y-30893D02*
X96490Y-30893D01*
X96547Y-30917D01*
X96576Y-30941D01*
X96604Y-30988D01*
X96633Y-31083D01*
X96633Y-31202D01*
X96604Y-31298D01*
X96576Y-31345D01*
X96547Y-31369D01*
X96490Y-31393D01*
X96433Y-31393D01*
X96376Y-31369D01*
X96347Y-31345D01*
X96318Y-31298D01*
X96290Y-31202D01*
X96290Y-31083D01*
X96318Y-30988D01*
X96347Y-30941D01*
X96376Y-30917D01*
X96433Y-30893D01*
X97147Y-31060D02*
X97147Y-31393D01*
X97004Y-30869D02*
X96861Y-31226D01*
X97233Y-31226D01*
X97461Y-31345D02*
X97490Y-31369D01*
X97461Y-31393D01*
X97433Y-31369D01*
X97461Y-31345D01*
X97461Y-31393D01*
X97461Y-31083D02*
X97490Y-31107D01*
X97461Y-31131D01*
X97433Y-31107D01*
X97461Y-31083D01*
X97461Y-31131D01*
X98061Y-31393D02*
X97718Y-31393D01*
X97890Y-31393D02*
X97890Y-30893D01*
X97833Y-30964D01*
X97776Y-31012D01*
X97718Y-31036D01*
X98433Y-30893D02*
X98490Y-30893D01*
X98547Y-30917D01*
X98576Y-30941D01*
X98604Y-30988D01*
X98633Y-31083D01*
X98633Y-31202D01*
X98604Y-31298D01*
X98576Y-31345D01*
X98547Y-31369D01*
X98490Y-31393D01*
X98433Y-31393D01*
X98376Y-31369D01*
X98347Y-31345D01*
X98318Y-31298D01*
X98290Y-31202D01*
X98290Y-31083D01*
X98318Y-30988D01*
X98347Y-30941D01*
X98376Y-30917D01*
X98433Y-30893D01*
X106018Y-23869D02*
X106104Y-23893D01*
X106247Y-23893D01*
X106304Y-23869D01*
X106333Y-23845D01*
X106361Y-23798D01*
X106361Y-23750D01*
X106333Y-23702D01*
X106304Y-23679D01*
X106247Y-23655D01*
X106133Y-23631D01*
X106076Y-23607D01*
X106047Y-23583D01*
X106018Y-23536D01*
X106018Y-23488D01*
X106047Y-23441D01*
X106076Y-23417D01*
X106133Y-23393D01*
X106276Y-23393D01*
X106361Y-23417D01*
X106733Y-23393D02*
X106790Y-23393D01*
X106847Y-23417D01*
X106876Y-23441D01*
X106904Y-23488D01*
X106933Y-23583D01*
X106933Y-23702D01*
X106904Y-23798D01*
X106876Y-23845D01*
X106847Y-23869D01*
X106790Y-23893D01*
X106733Y-23893D01*
X106676Y-23869D01*
X106647Y-23845D01*
X106618Y-23798D01*
X106590Y-23702D01*
X106590Y-23583D01*
X106618Y-23488D01*
X106647Y-23441D01*
X106676Y-23417D01*
X106733Y-23393D01*
X107133Y-23393D02*
X107504Y-23393D01*
X107304Y-23583D01*
X107390Y-23583D01*
X107447Y-23607D01*
X107476Y-23631D01*
X107504Y-23679D01*
X107504Y-23798D01*
X107476Y-23845D01*
X107447Y-23869D01*
X107390Y-23893D01*
X107218Y-23893D01*
X107161Y-23869D01*
X107133Y-23845D01*
X107761Y-23845D02*
X107790Y-23869D01*
X107761Y-23893D01*
X107733Y-23869D01*
X107761Y-23845D01*
X107761Y-23893D01*
X107761Y-23583D02*
X107790Y-23607D01*
X107761Y-23631D01*
X107733Y-23607D01*
X107761Y-23583D01*
X107761Y-23631D01*
X108361Y-23893D02*
X108018Y-23893D01*
X108190Y-23893D02*
X108190Y-23393D01*
X108133Y-23464D01*
X108076Y-23512D01*
X108018Y-23536D01*
X108933Y-23893D02*
X108590Y-23893D01*
X108761Y-23893D02*
X108761Y-23393D01*
X108704Y-23464D01*
X108647Y-23512D01*
X108590Y-23536D01*
X97544Y-23869D02*
X97629Y-23893D01*
X97772Y-23893D01*
X97829Y-23869D01*
X97858Y-23845D01*
X97886Y-23798D01*
X97886Y-23750D01*
X97858Y-23702D01*
X97829Y-23679D01*
X97772Y-23655D01*
X97658Y-23631D01*
X97601Y-23607D01*
X97572Y-23583D01*
X97544Y-23536D01*
X97544Y-23488D01*
X97572Y-23441D01*
X97601Y-23417D01*
X97658Y-23393D01*
X97801Y-23393D01*
X97886Y-23417D01*
X98258Y-23393D02*
X98315Y-23393D01*
X98372Y-23417D01*
X98401Y-23441D01*
X98429Y-23488D01*
X98458Y-23583D01*
X98458Y-23702D01*
X98429Y-23798D01*
X98401Y-23845D01*
X98372Y-23869D01*
X98315Y-23893D01*
X98258Y-23893D01*
X98201Y-23869D01*
X98172Y-23845D01*
X98144Y-23798D01*
X98115Y-23702D01*
X98115Y-23583D01*
X98144Y-23488D01*
X98172Y-23441D01*
X98201Y-23417D01*
X98258Y-23393D01*
X98658Y-23393D02*
X99029Y-23393D01*
X98829Y-23583D01*
X98915Y-23583D01*
X98972Y-23607D01*
X99001Y-23631D01*
X99029Y-23679D01*
X99029Y-23798D01*
X99001Y-23845D01*
X98972Y-23869D01*
X98915Y-23893D01*
X98744Y-23893D01*
X98686Y-23869D01*
X98658Y-23845D01*
X99286Y-23845D02*
X99315Y-23869D01*
X99286Y-23893D01*
X99258Y-23869D01*
X99286Y-23845D01*
X99286Y-23893D01*
X99286Y-23583D02*
X99315Y-23607D01*
X99286Y-23631D01*
X99258Y-23607D01*
X99286Y-23583D01*
X99286Y-23631D01*
X99886Y-23893D02*
X99544Y-23893D01*
X99715Y-23893D02*
X99715Y-23393D01*
X99658Y-23464D01*
X99601Y-23512D01*
X99544Y-23536D01*
X100258Y-23393D02*
X100315Y-23393D01*
X100372Y-23417D01*
X100401Y-23441D01*
X100429Y-23488D01*
X100458Y-23583D01*
X100458Y-23702D01*
X100429Y-23798D01*
X100401Y-23845D01*
X100372Y-23869D01*
X100315Y-23893D01*
X100258Y-23893D01*
X100201Y-23869D01*
X100172Y-23845D01*
X100144Y-23798D01*
X100115Y-23702D01*
X100115Y-23583D01*
X100144Y-23488D01*
X100172Y-23441D01*
X100201Y-23417D01*
X100258Y-23393D01*
X67774Y-31519D02*
X67860Y-31543D01*
X68003Y-31543D01*
X68060Y-31519D01*
X68088Y-31495D01*
X68117Y-31448D01*
X68117Y-31400D01*
X68088Y-31352D01*
X68060Y-31329D01*
X68003Y-31305D01*
X67888Y-31281D01*
X67831Y-31257D01*
X67803Y-31233D01*
X67774Y-31186D01*
X67774Y-31138D01*
X67803Y-31091D01*
X67831Y-31067D01*
X67888Y-31043D01*
X68031Y-31043D01*
X68117Y-31067D01*
X68488Y-31043D02*
X68546Y-31043D01*
X68603Y-31067D01*
X68631Y-31091D01*
X68660Y-31138D01*
X68688Y-31233D01*
X68688Y-31352D01*
X68660Y-31448D01*
X68631Y-31495D01*
X68603Y-31519D01*
X68546Y-31543D01*
X68488Y-31543D01*
X68431Y-31519D01*
X68403Y-31495D01*
X68374Y-31448D01*
X68346Y-31352D01*
X68346Y-31233D01*
X68374Y-31138D01*
X68403Y-31091D01*
X68431Y-31067D01*
X68488Y-31043D01*
X69203Y-31210D02*
X69203Y-31543D01*
X69060Y-31019D02*
X68917Y-31376D01*
X69288Y-31376D01*
X69517Y-31495D02*
X69546Y-31519D01*
X69517Y-31543D01*
X69488Y-31519D01*
X69517Y-31495D01*
X69517Y-31543D01*
X69517Y-31233D02*
X69546Y-31257D01*
X69517Y-31281D01*
X69488Y-31257D01*
X69517Y-31233D01*
X69517Y-31281D01*
X70060Y-31043D02*
X69946Y-31043D01*
X69888Y-31067D01*
X69860Y-31091D01*
X69803Y-31162D01*
X69774Y-31257D01*
X69774Y-31448D01*
X69803Y-31495D01*
X69831Y-31519D01*
X69888Y-31543D01*
X70003Y-31543D01*
X70060Y-31519D01*
X70088Y-31495D01*
X70117Y-31448D01*
X70117Y-31329D01*
X70088Y-31281D01*
X70060Y-31257D01*
X70003Y-31233D01*
X69888Y-31233D01*
X69831Y-31257D01*
X69803Y-31281D01*
X69774Y-31329D01*
%LPC*%
G54D19*
X28096Y-6385D03*
X28411Y-5754D03*
X28726Y-6385D03*
X29041Y-5754D03*
X29356Y-6385D03*
G54D20*
X27289Y-4317D03*
X30163Y-4317D03*
G54D21*
X53566Y-32920D03*
G54D22*
X54566Y-32920D03*
X55566Y-32920D03*
X56566Y-32920D03*
X57566Y-32920D03*
X58566Y-32920D03*
X59566Y-32920D03*
X60566Y-32920D03*
X61566Y-32920D03*
X62566Y-32920D03*
X63566Y-32920D03*
X64566Y-32920D03*
X64566Y-31920D03*
X64566Y-30920D03*
X64566Y-29920D03*
X64566Y-28920D03*
X64566Y-27920D03*
X64566Y-26920D03*
X63566Y-26920D03*
X62566Y-26920D03*
X61566Y-26920D03*
X60566Y-26920D03*
X59566Y-26920D03*
X58566Y-26920D03*
X57566Y-26920D03*
X56566Y-26920D03*
X55566Y-26920D03*
X54566Y-26920D03*
X53566Y-26920D03*
X57566Y-27920D03*
X57566Y-31920D03*
X45076Y-24441D03*
G54D21*
X46076Y-24441D03*
G54D22*
X71376Y-16941D03*
G54D21*
X72376Y-16941D03*
G54D22*
X78876Y-16941D03*
G54D21*
X79876Y-16941D03*
G54D22*
X86376Y-16941D03*
G54D21*
X87376Y-16941D03*
G54D22*
X93876Y-16941D03*
G54D21*
X94876Y-16941D03*
G54D22*
X104176Y-16941D03*
G54D21*
X105176Y-16941D03*
G54D22*
X33850Y-31941D03*
G54D21*
X34850Y-31941D03*
G54D22*
X41350Y-31941D03*
G54D21*
X42350Y-31941D03*
G54D22*
X68450Y-32091D03*
G54D21*
X69450Y-32091D03*
G54D22*
X96676Y-31941D03*
G54D21*
X97676Y-31941D03*
G54D22*
X106050Y-31941D03*
G54D21*
X107050Y-31941D03*
G54D22*
X37576Y-24441D03*
G54D21*
X38576Y-24441D03*
G54D22*
X56376Y-16941D03*
G54D21*
X57376Y-16941D03*
G54D22*
X52576Y-24441D03*
G54D21*
X53576Y-24441D03*
G54D22*
X60076Y-24441D03*
G54D21*
X61076Y-24441D03*
G54D22*
X67576Y-24441D03*
G54D21*
X68576Y-24441D03*
G54D22*
X75076Y-24441D03*
G54D21*
X76076Y-24441D03*
G54D22*
X82576Y-24441D03*
G54D21*
X83576Y-24441D03*
G54D22*
X90076Y-24441D03*
G54D21*
X91076Y-24441D03*
G54D22*
X98501Y-24441D03*
G54D21*
X99501Y-24441D03*
G54D22*
X106976Y-24441D03*
G54D21*
X107976Y-24441D03*
G54D22*
X27276Y-24441D03*
G54D21*
X28276Y-24441D03*
G54D22*
X63876Y-16941D03*
G54D21*
X64876Y-16941D03*
G54D22*
X24476Y-9441D03*
G54D21*
X25476Y-9441D03*
G54D22*
X31976Y-9441D03*
G54D21*
X32976Y-9441D03*
G54D22*
X39476Y-9441D03*
G54D21*
X40476Y-9441D03*
G54D22*
X46976Y-9441D03*
G54D21*
X47976Y-9441D03*
G54D22*
X54476Y-9441D03*
G54D21*
X55476Y-9441D03*
G54D22*
X61976Y-9441D03*
G54D21*
X62976Y-9441D03*
G54D22*
X69476Y-9441D03*
G54D21*
X70476Y-9441D03*
G54D22*
X76976Y-9441D03*
G54D21*
X77976Y-9441D03*
G54D22*
X84476Y-9441D03*
G54D21*
X85476Y-9441D03*
G54D22*
X91976Y-9441D03*
G54D21*
X92976Y-9441D03*
G54D22*
X99476Y-9441D03*
G54D21*
X100476Y-9441D03*
G54D22*
X106976Y-9441D03*
G54D21*
X107976Y-9441D03*
G54D22*
X25426Y-16941D03*
G54D21*
X26426Y-16941D03*
G54D22*
X25401Y-31941D03*
G54D21*
X26401Y-31941D03*
G54D22*
X33876Y-16941D03*
G54D21*
X34876Y-16941D03*
G54D22*
X41376Y-16941D03*
G54D21*
X42376Y-16941D03*
G54D22*
X48876Y-16941D03*
G54D21*
X49876Y-16941D03*
G54D23*
X66676Y-26991D03*
X69676Y-26991D03*
X94126Y-25941D03*
X94126Y-28941D03*
X91326Y-16941D03*
X91326Y-13941D03*
X72526Y-18441D03*
X72526Y-21441D03*
X68826Y-16941D03*
X68826Y-13941D03*
X74426Y-9441D03*
X74426Y-6441D03*
X81926Y-9441D03*
X81926Y-6441D03*
X76326Y-16941D03*
X76326Y-13941D03*
X80026Y-18441D03*
X80026Y-21441D03*
X53826Y-16941D03*
X53826Y-13941D03*
X87526Y-18441D03*
X87526Y-21441D03*
X83826Y-16941D03*
X83826Y-13941D03*
X89426Y-9441D03*
X89426Y-6441D03*
X22926Y-25941D03*
X22926Y-28941D03*
X96926Y-9441D03*
X96926Y-6441D03*
X101626Y-16941D03*
X101626Y-13941D03*
X95976Y-24441D03*
X95976Y-21441D03*
X103476Y-25941D03*
X103476Y-28941D03*
X104426Y-24441D03*
X104426Y-21441D03*
X104426Y-9441D03*
X104426Y-6441D03*
X24726Y-24441D03*
X24726Y-21441D03*
X59426Y-9441D03*
X59426Y-6441D03*
X35526Y-9441D03*
X35526Y-6441D03*
X36976Y-9441D03*
X36976Y-6441D03*
X22876Y-16941D03*
X22876Y-13941D03*
X31326Y-16941D03*
X31326Y-13941D03*
X35026Y-24441D03*
X35026Y-21441D03*
X38826Y-16941D03*
X38826Y-13941D03*
X42526Y-24441D03*
X42526Y-21441D03*
X31376Y-25941D03*
X31376Y-28941D03*
X38876Y-25941D03*
X38876Y-28941D03*
X57526Y-18441D03*
X57526Y-21441D03*
X61326Y-16941D03*
X61326Y-13941D03*
X65026Y-24441D03*
X65026Y-21441D03*
X44426Y-9441D03*
X44426Y-6441D03*
X46326Y-16941D03*
X46326Y-13941D03*
X50026Y-18441D03*
X50026Y-21441D03*
X51926Y-9441D03*
X51926Y-6441D03*
X66926Y-9441D03*
X66926Y-6441D03*
G54D24*
X47476Y-30441D03*
X47476Y-29441D03*
X47476Y-28441D03*
X47476Y-31441D03*
G54D25*
X32076Y-20391D03*
X32076Y-24391D03*
G54D24*
X27376Y-16891D03*
X24476Y-16941D03*
G54D23*
X21926Y-9441D03*
X21926Y-6441D03*
G54D26*
X28776Y-20441D03*
X26276Y-21441D03*
X105676Y-12941D03*
X103176Y-13941D03*
X26926Y-12941D03*
X24426Y-13941D03*
X107540Y-27941D03*
X105040Y-28941D03*
X26901Y-27941D03*
X24401Y-28941D03*
X40976Y-5441D03*
X38476Y-6441D03*
X78476Y-5441D03*
X75976Y-6441D03*
X93476Y-5441D03*
X90976Y-6441D03*
X33476Y-5441D03*
X30976Y-6441D03*
X25976Y-5441D03*
X23476Y-6441D03*
X48476Y-5441D03*
X45976Y-6441D03*
X63476Y-5441D03*
X60976Y-6441D03*
X55976Y-5441D03*
X53476Y-6441D03*
X70976Y-5441D03*
X68476Y-6441D03*
X46576Y-20441D03*
X44076Y-21441D03*
X85976Y-5441D03*
X83476Y-6441D03*
X42850Y-27941D03*
X40350Y-28941D03*
X35350Y-27941D03*
X32850Y-28941D03*
X91576Y-20441D03*
X89076Y-21441D03*
X84076Y-20441D03*
X81576Y-21441D03*
X76576Y-20441D03*
X74076Y-21441D03*
X69076Y-20441D03*
X66576Y-21441D03*
X61576Y-20441D03*
X59076Y-21441D03*
X54076Y-20441D03*
X51576Y-21441D03*
X100976Y-5441D03*
X98476Y-6441D03*
X39076Y-20441D03*
X36576Y-21441D03*
X95376Y-12941D03*
X92876Y-13941D03*
X87876Y-12941D03*
X85376Y-13941D03*
X80376Y-12941D03*
X77876Y-13941D03*
X72876Y-12941D03*
X70376Y-13941D03*
X65376Y-12941D03*
X62876Y-13941D03*
X57876Y-12941D03*
X55376Y-13941D03*
X50376Y-12941D03*
X47876Y-13941D03*
X42876Y-12941D03*
X40376Y-13941D03*
X35376Y-12941D03*
X32876Y-13941D03*
X108476Y-5441D03*
X105976Y-6441D03*
X98176Y-27941D03*
X95676Y-28941D03*
X108476Y-20441D03*
X105976Y-21441D03*
X100001Y-20441D03*
X97501Y-21441D03*
X69946Y-28091D03*
X67446Y-29091D03*
M02*
