M48
;DRILL file {Pcbnew (2013-02-13 BZR 3947)-testing} date 10/20/2013 2:41:28 PM
;FORMAT={2:4/ absolute / inch / keep zeros}
FMAT,2
INCH,TZ
T1C0.016
T2C0.028
T3C0.032
T4C0.035
T5C0.039
T6C0.059
T7C0.067
T8C0.098
T9C0.120
T10C0.157
%
G90
G05
M72
T1
X000351Y-000322
X000351Y-029472
X007795Y-003268
X008226Y-025221
X010312Y-023314
X011753Y-022117
X012597Y-021962
X021298Y-025053
X024976Y-023059
X029865Y-022857
X029876Y-000359
X032119Y-021664
X034477Y-024333
X036410Y-003045
X043025Y-024333
X043187Y-023521
X044771Y-023225
X046928Y-014407
X051836Y-023895
X052193Y-024215
X052344Y-027026
X052891Y-028542
X053062Y-015908
X053750Y-026328
X053796Y-024804
X054381Y-025175
X055112Y-028336
X055216Y-022857
X055597Y-022448
X056570Y-027122
X056708Y-022315
X057012Y-026638
X057181Y-025054
X057433Y-027572
X057523Y-024709
X057841Y-022153
X058355Y-023047
X058740Y-026689
X058827Y-024692
X058827Y-027210
X058906Y-023042
X059287Y-024041
X059288Y-028460
X059474Y-023071
X060148Y-027936
X060357Y-025680
X060567Y-026638
X062226Y-026192
X062320Y-028460
X062854Y-026638
X063975Y-025241
X064376Y-028447
X064609Y-017004
X064611Y-015549
X066301Y-026522
X068647Y-017665
X071081Y-017997
X071126Y-022372
X071126Y-024122
X071126Y-026522
X071126Y-028722
X081916Y-015314
X081938Y-017146
X083708Y-018036
X086058Y-023126
X089376Y-029469
X089402Y-000322
T2
X037476Y-001559
X037476Y-002059
X037476Y-002559
X037476Y-003059
X044876Y-001559
X044876Y-002059
X044876Y-002559
X044876Y-003059
X052476Y-001559
X052476Y-002059
X052476Y-002559
X052476Y-003059
X059876Y-001559
X059876Y-002059
X059876Y-002559
X059876Y-003059
X088976Y-008059
X088976Y-008559
X088976Y-009059
X088976Y-009559
X088976Y-010559
X088976Y-011059
X088976Y-011559
X088976Y-012059
X088976Y-012559
X088976Y-013059
X088976Y-013559
X088976Y-014059
X088976Y-014559
X088976Y-015059
T3
X001376Y-010509
X001376Y-013509
X002701Y-016622
X002701Y-019622
X016302Y-010022
X016302Y-013022
X022002Y-001622
X022002Y-004622
X023851Y-009122
X023851Y-012122
X031302Y-009122
X031302Y-012122
T4
X006299Y-001524
X008031Y-001524
X033111Y-028809
X034111Y-028809
X035111Y-028809
X036111Y-028809
X037111Y-028809
X038111Y-028809
T5
X003101Y-001622
X004051Y-009122
X004051Y-024122
X004101Y-001622
X005051Y-009122
X005051Y-024122
X005901Y-016622
X006901Y-016622
X010601Y-001622
X011601Y-001622
X012501Y-009122
X012501Y-024122
X013501Y-009122
X013501Y-024122
X016202Y-016622
X017202Y-016622
X018102Y-001622
X019102Y-001622
X020002Y-009122
X020002Y-024122
X021002Y-009122
X021002Y-024122
X023702Y-016622
X024702Y-016622
X025602Y-001622
X026602Y-001622
X027502Y-009122
X028502Y-009122
X031202Y-016672
X032202Y-016672
X033102Y-001622
X034102Y-001622
X035002Y-009122
X036002Y-009122
X038702Y-016622
X039702Y-016622
X040602Y-001622
X041602Y-001622
X042502Y-009122
X043502Y-009122
X046202Y-016622
X047202Y-016622
X047271Y-024124
X048102Y-001622
X048271Y-024124
X049102Y-001622
X050002Y-009122
X051002Y-009122
X053702Y-016622
X054702Y-016622
X055602Y-001622
X056602Y-001622
X057502Y-009122
X058502Y-009122
X061202Y-016622
X062202Y-016622
X063102Y-001622
X064102Y-001622
X065002Y-009122
X066002Y-009122
X068702Y-016622
X069702Y-016622
X070602Y-001622
X071602Y-001622
X072502Y-009122
X073502Y-009122
X075302Y-024122
X076202Y-016622
X076302Y-024122
X077151Y-016622
X077202Y-016622
X078102Y-001622
X078151Y-016622
X079102Y-001622
X082802Y-009122
X083802Y-009122
X084651Y-024122
X084702Y-016622
X085602Y-001622
X085602Y-016622
X085651Y-024122
X085702Y-016622
X086602Y-001622
X086602Y-016622
T6
X002601Y-005622
X003551Y-013122
X003551Y-028122
X005101Y-004622
X005401Y-020622
X006051Y-012122
X006051Y-027122
X007901Y-019622
X010101Y-005622
X012001Y-013122
X012001Y-028122
X012601Y-004622
X014501Y-012122
X014501Y-027122
X015702Y-020622
X017602Y-005622
X018202Y-019622
X019502Y-013122
X019502Y-028122
X020102Y-004622
X022002Y-012122
X022002Y-027122
X023202Y-020622
X025102Y-005622
X025702Y-019622
X027002Y-013122
X027602Y-004622
X029502Y-012122
X030702Y-020622
X032602Y-005622
X033202Y-019622
X034502Y-013122
X035102Y-004622
X037002Y-012122
X038202Y-020622
X040102Y-005622
X040702Y-019622
X042002Y-013122
X042602Y-004622
X044502Y-012122
X045702Y-020622
X046602Y-028122
X047602Y-005622
X048202Y-019622
X049102Y-027122
X049502Y-013122
X050102Y-004622
X052002Y-012122
X053202Y-020622
X055102Y-005622
X055702Y-019622
X057002Y-013122
X057602Y-004622
X059502Y-012122
X060702Y-020622
X062602Y-005622
X063202Y-019622
X064502Y-013122
X065102Y-004622
X067002Y-012122
X068202Y-020622
X070102Y-005622
X070702Y-019622
X072002Y-013122
X072602Y-004622
X074502Y-012122
X074802Y-028122
X075702Y-020622
X076651Y-020622
X077302Y-027122
X077602Y-005622
X078202Y-019622
X079151Y-019622
X080102Y-004622
X082302Y-013122
X084151Y-028122
X084202Y-020622
X084802Y-012122
X085102Y-005622
X085102Y-020622
X086651Y-027122
X086702Y-019622
X087602Y-004622
X087602Y-019622
T7
X001601Y-003622
X002551Y-011122
X002551Y-026122
X004401Y-018622
X005601Y-003622
X006551Y-011122
X006551Y-026122
X008401Y-018622
X009101Y-003622
X011001Y-011122
X011001Y-026122
X013101Y-003622
X014702Y-018622
X015001Y-011122
X015001Y-026122
X016602Y-003622
X018502Y-011122
X018502Y-026122
X018702Y-018622
X020602Y-003622
X022202Y-018622
X022502Y-011122
X022502Y-026122
X024102Y-003622
X026002Y-011122
X026202Y-018622
X028102Y-003622
X029702Y-018622
X030002Y-011122
X031602Y-003622
X033502Y-011122
X033702Y-018622
X035602Y-003622
X037202Y-018622
X037502Y-011122
X039102Y-003622
X041002Y-011122
X041202Y-018622
X043102Y-003622
X044702Y-018622
X045002Y-011122
X045602Y-026122
X046602Y-003622
X048502Y-011122
X048702Y-018622
X049602Y-026122
X050602Y-003622
X052202Y-018622
X052502Y-011122
X054102Y-003622
X056002Y-011122
X056202Y-018622
X058102Y-003622
X059702Y-018622
X060002Y-011122
X061602Y-003622
X063502Y-011122
X063702Y-018622
X065602Y-003622
X067202Y-018622
X067502Y-011122
X069102Y-003622
X071002Y-011122
X071202Y-018622
X073102Y-003622
X073802Y-026122
X074702Y-018622
X075002Y-011122
X075651Y-018622
X076602Y-003622
X077802Y-026122
X078702Y-018622
X079651Y-018622
X080602Y-003622
X081302Y-011122
X083151Y-026122
X083202Y-018622
X084102Y-003622
X084102Y-018622
X085302Y-011122
X087151Y-026122
X087202Y-018622
X088102Y-003622
X088102Y-018622
T8
X-000326Y-022244
X000274Y-022244
X000874Y-022244
X001474Y-022244
X016302Y-007722
X016802Y-007722
X017302Y-007722
X049972Y-018504
X050472Y-018504
X050972Y-018504
X078202Y-011122
X078702Y-011122
X079202Y-011122
X088171Y-022244
X088771Y-022244
X089371Y-022244
X089971Y-022244
T9
X027902Y-028822
X067302Y-028822
T10
X003601Y-003622
X004551Y-011122
X004551Y-026122
X006401Y-018622
X011101Y-003622
X013001Y-011122
X013001Y-026122
X016702Y-018622
X018602Y-003622
X020502Y-011122
X020502Y-026122
X024202Y-018622
X026102Y-003622
X027902Y-022822
X028002Y-011122
X031702Y-018622
X033602Y-003622
X035502Y-011122
X039202Y-018622
X041102Y-003622
X043002Y-011122
X046702Y-018622
X047602Y-026122
X048602Y-003622
X050502Y-011122
X054202Y-018622
X056102Y-003622
X058002Y-011122
X061702Y-018622
X063602Y-003622
X065502Y-011122
X067302Y-022822
X069202Y-018622
X071102Y-003622
X073002Y-011122
X075802Y-026122
X076702Y-018622
X077651Y-018622
X078602Y-003622
X083302Y-011122
X085151Y-026122
X085202Y-018622
X086102Y-003622
X086102Y-018622
T8
X-000311Y-022244G85X001460Y-022244
G05
X016309Y-007722G85X017294Y-007722
G05
X049980Y-018504G85X050965Y-018504
G05
X078209Y-011122G85X079194Y-011122
G05
X088185Y-022244G85X089957Y-022244
G05
T0
M30
