G04 (created by PCBNEW (2013-02-13 BZR 3947)-testing) date 11/23/2013 4:30:54 PM*
%MOIN*%
G04 Gerber Fmt 3.4, Leading zero omitted, Abs format*
%FSLAX34Y34*%
G01*
G70*
G90*
G04 APERTURE LIST*
%ADD10C,0*%
%ADD11C,0.00390157*%
%ADD12R,0.0473701X0.130047*%
%ADD13R,0.0533X0.0631*%
%ADD14O,0.0828X0.024*%
%ADD15O,0.024X0.0828*%
%ADD16R,0.043X0.063*%
%ADD17R,0.063X0.043*%
%ADD18C,0.0788661*%
%ADD19C,0.0709921*%
%ADD20C,0.098*%
%ADD21C,0.165*%
%ADD22C,0.075*%
%ADD23O,0.083X0.093*%
%ADD24R,0.083X0.093*%
%ADD25O,0.068X0.05*%
%ADD26C,0.0473701*%
%ADD27C,0.2049*%
%ADD28R,0.0887X0.1655*%
%ADD29R,0.0887X0.1458*%
%ADD30O,0.0277008X0.12611*%
%ADD31C,0.0434331*%
%ADD32R,0.0473701X0.0473701*%
%ADD33C,0.0670551*%
%ADD34C,0.128*%
G04 APERTURE END LIST*
G54D10*
G54D11*
X89452Y-29823D02*
X302Y-29823D01*
X89452Y-29823D02*
G75*
G03X89752Y-29523I0J300D01*
G74*
G01*
X89752Y-273D02*
X89752Y-29523D01*
X89752Y-273D02*
G75*
G03X89452Y26I-300J0D01*
G74*
G01*
X302Y26D02*
X89452Y26D01*
X302Y26D02*
G75*
G03X2Y-273I0J-300D01*
G74*
G01*
X2Y-29523D02*
X2Y-273D01*
X2Y-29523D02*
G75*
G03X302Y-29823I299J0D01*
G74*
G01*
G54D12*
X10688Y-17223D03*
X12263Y-20727D03*
X10689Y-20727D03*
X12263Y-17223D03*
G54D13*
X61081Y-26226D03*
X61081Y-27092D03*
X61711Y-26226D03*
X61711Y-27092D03*
G54D14*
X55094Y-25985D03*
X55094Y-25670D03*
X55094Y-25355D03*
X55094Y-25040D03*
X55094Y-24725D03*
X55094Y-24410D03*
X55094Y-26300D03*
X55094Y-26615D03*
X55094Y-26930D03*
X55094Y-27245D03*
X55094Y-27560D03*
X59594Y-25985D03*
X59594Y-25670D03*
X59594Y-25355D03*
X59594Y-25040D03*
X59594Y-24725D03*
X59594Y-24410D03*
X59594Y-26300D03*
X59594Y-26615D03*
X59594Y-26930D03*
X59594Y-27245D03*
X59594Y-27560D03*
G54D15*
X57344Y-23735D03*
X57344Y-28235D03*
X57659Y-23735D03*
X57659Y-28235D03*
X57974Y-28235D03*
X57974Y-23735D03*
X58289Y-23735D03*
X58289Y-28235D03*
X58604Y-28235D03*
X58604Y-23735D03*
X58919Y-23735D03*
X58919Y-28235D03*
X57029Y-28235D03*
X57029Y-23735D03*
X56714Y-23735D03*
X56714Y-28235D03*
X56399Y-28235D03*
X56399Y-23735D03*
X56084Y-23735D03*
X56084Y-28235D03*
X55769Y-28235D03*
X55769Y-23735D03*
G54D16*
X5977Y-6923D03*
X6727Y-6923D03*
X62621Y-25659D03*
X63371Y-25659D03*
X62621Y-27409D03*
X63371Y-27409D03*
X54121Y-27659D03*
X53371Y-27659D03*
X54521Y-23684D03*
X53771Y-23684D03*
X61771Y-28109D03*
X61021Y-28109D03*
X61771Y-25209D03*
X61021Y-25209D03*
G54D17*
X7376Y-5534D03*
X7376Y-4784D03*
X8226Y-5534D03*
X8226Y-4784D03*
G54D16*
X59971Y-23659D03*
X60721Y-23659D03*
X54126Y-28633D03*
X53376Y-28633D03*
X62621Y-24009D03*
X61871Y-24009D03*
G54D18*
X37111Y-28809D03*
X35111Y-28809D03*
X33111Y-28809D03*
X36111Y-28809D03*
X34111Y-28809D03*
X38111Y-28809D03*
G54D19*
X1376Y-13509D03*
X1376Y-10509D03*
X2701Y-16622D03*
X2701Y-19622D03*
G54D20*
X3551Y-28122D03*
X6051Y-27122D03*
G54D21*
X4551Y-26122D03*
G54D22*
X6551Y-26122D03*
X2551Y-26122D03*
G54D20*
X3551Y-13122D03*
X6051Y-12122D03*
G54D21*
X4551Y-11122D03*
G54D22*
X6551Y-11122D03*
X2551Y-11122D03*
G54D20*
X5401Y-20622D03*
X7901Y-19622D03*
G54D21*
X6401Y-18622D03*
G54D22*
X8401Y-18622D03*
X4401Y-18622D03*
G54D23*
X24701Y-16622D03*
G54D24*
X23701Y-16622D03*
G54D23*
X13501Y-24122D03*
G54D24*
X12501Y-24122D03*
G54D23*
X17201Y-16622D03*
G54D24*
X16201Y-16622D03*
G54D23*
X5051Y-9122D03*
G54D24*
X4051Y-9122D03*
G54D23*
X11601Y-1621D03*
G54D24*
X10601Y-1621D03*
G54D23*
X5051Y-24122D03*
G54D24*
X4051Y-24122D03*
G54D20*
X85101Y-20622D03*
X87601Y-19622D03*
G54D21*
X86101Y-18622D03*
G54D22*
X88101Y-18622D03*
X84101Y-18622D03*
G54D20*
X49501Y-13122D03*
X52001Y-12122D03*
G54D21*
X50501Y-11122D03*
G54D22*
X52501Y-11122D03*
X48501Y-11122D03*
G54D20*
X70101Y-5622D03*
X72601Y-4622D03*
G54D21*
X71101Y-3622D03*
G54D22*
X73101Y-3622D03*
X69101Y-3622D03*
G54D20*
X32601Y-5622D03*
X35101Y-4622D03*
G54D21*
X33601Y-3622D03*
G54D22*
X35601Y-3622D03*
X31601Y-3622D03*
G54D20*
X84151Y-28122D03*
X86651Y-27122D03*
G54D21*
X85151Y-26122D03*
G54D22*
X87151Y-26122D03*
X83151Y-26122D03*
G54D20*
X74801Y-28122D03*
X77301Y-27122D03*
G54D21*
X75801Y-26122D03*
G54D22*
X77801Y-26122D03*
X73801Y-26122D03*
G54D20*
X19501Y-28122D03*
X22001Y-27122D03*
G54D21*
X20501Y-26122D03*
G54D22*
X22501Y-26122D03*
X18501Y-26122D03*
G54D20*
X12001Y-28122D03*
X14501Y-27122D03*
G54D21*
X13001Y-26122D03*
G54D22*
X15001Y-26122D03*
X11001Y-26122D03*
G54D20*
X76651Y-20622D03*
X79151Y-19622D03*
G54D21*
X77651Y-18622D03*
G54D22*
X79651Y-18622D03*
X75651Y-18622D03*
G54D20*
X68201Y-20622D03*
X70701Y-19622D03*
G54D21*
X69201Y-18622D03*
G54D22*
X71201Y-18622D03*
X67201Y-18622D03*
G54D20*
X27001Y-13122D03*
X29501Y-12122D03*
G54D21*
X28001Y-11122D03*
G54D22*
X30001Y-11122D03*
X26001Y-11122D03*
G54D20*
X19501Y-13122D03*
X22001Y-12122D03*
G54D21*
X20501Y-11122D03*
G54D22*
X22501Y-11122D03*
X18501Y-11122D03*
G54D20*
X12001Y-13122D03*
X14501Y-12122D03*
G54D21*
X13001Y-11122D03*
G54D22*
X15001Y-11122D03*
X11001Y-11122D03*
G54D20*
X85101Y-5622D03*
X87601Y-4622D03*
G54D21*
X86101Y-3622D03*
G54D22*
X88101Y-3622D03*
X84101Y-3622D03*
G54D20*
X62601Y-5622D03*
X65101Y-4622D03*
G54D21*
X63601Y-3622D03*
G54D22*
X65601Y-3622D03*
X61601Y-3622D03*
G54D20*
X55101Y-5622D03*
X57601Y-4622D03*
G54D21*
X56101Y-3622D03*
G54D22*
X58101Y-3622D03*
X54101Y-3622D03*
G54D20*
X47601Y-5622D03*
X50101Y-4622D03*
G54D21*
X48601Y-3622D03*
G54D22*
X50601Y-3622D03*
X46601Y-3622D03*
G54D20*
X40101Y-5622D03*
X42601Y-4622D03*
G54D21*
X41101Y-3622D03*
G54D22*
X43101Y-3622D03*
X39101Y-3622D03*
G54D20*
X25101Y-5622D03*
X27601Y-4622D03*
G54D21*
X26101Y-3622D03*
G54D22*
X28101Y-3622D03*
X24101Y-3622D03*
G54D20*
X17601Y-5622D03*
X20101Y-4622D03*
G54D21*
X18601Y-3622D03*
G54D22*
X20601Y-3622D03*
X16601Y-3622D03*
G54D20*
X10101Y-5622D03*
X12601Y-4622D03*
G54D21*
X11101Y-3622D03*
G54D22*
X13101Y-3622D03*
X9101Y-3622D03*
G54D20*
X60701Y-20622D03*
X63201Y-19622D03*
G54D21*
X61701Y-18622D03*
G54D22*
X63701Y-18622D03*
X59701Y-18622D03*
G54D20*
X53201Y-20622D03*
X55701Y-19622D03*
G54D21*
X54201Y-18622D03*
G54D22*
X56201Y-18622D03*
X52201Y-18622D03*
G54D20*
X45701Y-20622D03*
X48201Y-19622D03*
G54D21*
X46701Y-18622D03*
G54D22*
X48701Y-18622D03*
X44701Y-18622D03*
G54D20*
X38201Y-20622D03*
X40701Y-19622D03*
G54D21*
X39201Y-18622D03*
G54D22*
X41201Y-18622D03*
X37201Y-18622D03*
G54D20*
X30701Y-20622D03*
X33201Y-19622D03*
G54D21*
X31701Y-18622D03*
G54D22*
X33701Y-18622D03*
X29701Y-18622D03*
G54D20*
X23201Y-20622D03*
X25701Y-19622D03*
G54D21*
X24201Y-18622D03*
G54D22*
X26201Y-18622D03*
X22201Y-18622D03*
G54D20*
X15701Y-20622D03*
X18201Y-19622D03*
G54D21*
X16701Y-18622D03*
G54D22*
X18701Y-18622D03*
X14701Y-18622D03*
G54D20*
X82301Y-13122D03*
X84801Y-12122D03*
G54D21*
X83301Y-11122D03*
G54D22*
X85301Y-11122D03*
X81301Y-11122D03*
G54D20*
X72001Y-13122D03*
X74501Y-12122D03*
G54D21*
X73001Y-11122D03*
G54D22*
X75001Y-11122D03*
X71001Y-11122D03*
G54D20*
X64501Y-13122D03*
X67001Y-12122D03*
G54D21*
X65501Y-11122D03*
G54D22*
X67501Y-11122D03*
X63501Y-11122D03*
G54D20*
X57001Y-13122D03*
X59501Y-12122D03*
G54D21*
X58001Y-11122D03*
G54D22*
X60001Y-11122D03*
X56001Y-11122D03*
G54D20*
X42001Y-13122D03*
X44501Y-12122D03*
G54D21*
X43001Y-11122D03*
G54D22*
X45001Y-11122D03*
X41001Y-11122D03*
G54D20*
X34501Y-13122D03*
X37001Y-12122D03*
G54D21*
X35501Y-11122D03*
G54D22*
X37501Y-11122D03*
X33501Y-11122D03*
G54D20*
X77601Y-5622D03*
X80101Y-4622D03*
G54D21*
X78601Y-3622D03*
G54D22*
X80601Y-3622D03*
X76601Y-3622D03*
G54D23*
X48271Y-24124D03*
G54D24*
X47271Y-24124D03*
G54D23*
X62201Y-16622D03*
G54D24*
X61201Y-16622D03*
G54D23*
X54701Y-16622D03*
G54D24*
X53701Y-16622D03*
G54D23*
X47201Y-16622D03*
G54D24*
X46201Y-16622D03*
G54D23*
X39701Y-16622D03*
G54D24*
X38701Y-16622D03*
G54D23*
X83801Y-9122D03*
G54D24*
X82801Y-9122D03*
G54D23*
X73501Y-9122D03*
G54D24*
X72501Y-9122D03*
G54D23*
X66001Y-9122D03*
G54D24*
X65001Y-9122D03*
G54D23*
X32201Y-16672D03*
G54D24*
X31201Y-16672D03*
G54D23*
X58501Y-9122D03*
G54D24*
X57501Y-9122D03*
G54D23*
X34101Y-1622D03*
G54D24*
X33101Y-1622D03*
G54D23*
X41601Y-1622D03*
G54D24*
X40601Y-1622D03*
G54D23*
X49101Y-1622D03*
G54D24*
X48101Y-1622D03*
G54D23*
X56601Y-1622D03*
G54D24*
X55601Y-1622D03*
G54D23*
X26601Y-1622D03*
G54D24*
X25601Y-1622D03*
G54D23*
X51001Y-9122D03*
G54D24*
X50001Y-9122D03*
G54D23*
X64101Y-1622D03*
G54D24*
X63101Y-1622D03*
G54D23*
X71601Y-1622D03*
G54D24*
X70601Y-1622D03*
G54D23*
X79101Y-1622D03*
G54D24*
X78101Y-1622D03*
G54D23*
X86601Y-1622D03*
G54D24*
X85601Y-1622D03*
G54D23*
X36001Y-9122D03*
G54D24*
X35001Y-9122D03*
G54D23*
X43501Y-9122D03*
G54D24*
X42501Y-9122D03*
G54D23*
X85651Y-24122D03*
G54D24*
X84651Y-24122D03*
G54D23*
X76301Y-24122D03*
G54D24*
X75301Y-24122D03*
G54D23*
X69701Y-16622D03*
G54D24*
X68701Y-16622D03*
G54D23*
X78151Y-16622D03*
G54D24*
X77151Y-16622D03*
G54D23*
X21001Y-24122D03*
G54D24*
X20001Y-24122D03*
G54D23*
X86601Y-16622D03*
G54D24*
X85601Y-16622D03*
G54D23*
X4101Y-1621D03*
G54D24*
X3101Y-1621D03*
G54D20*
X2601Y-5622D03*
X5101Y-4622D03*
G54D21*
X3601Y-3622D03*
G54D22*
X5601Y-3622D03*
X1601Y-3622D03*
G54D23*
X6901Y-16622D03*
G54D24*
X5901Y-16622D03*
G54D19*
X31301Y-12122D03*
X31301Y-9122D03*
X23851Y-12122D03*
X23851Y-9122D03*
X16301Y-13022D03*
X16301Y-10022D03*
X22001Y-4622D03*
X22001Y-1622D03*
G54D23*
X28501Y-9122D03*
G54D24*
X27501Y-9122D03*
G54D23*
X21001Y-9122D03*
G54D24*
X20001Y-9122D03*
G54D23*
X13501Y-9122D03*
G54D24*
X12501Y-9122D03*
G54D23*
X19101Y-1622D03*
G54D24*
X18101Y-1622D03*
G54D20*
X84201Y-20622D03*
X86701Y-19622D03*
G54D21*
X85201Y-18622D03*
G54D22*
X87201Y-18622D03*
X83201Y-18622D03*
G54D20*
X75701Y-20622D03*
X78201Y-19622D03*
G54D21*
X76701Y-18622D03*
G54D22*
X78701Y-18622D03*
X74701Y-18622D03*
G54D23*
X76201Y-16622D03*
G54D24*
X77201Y-16622D03*
G54D23*
X84701Y-16622D03*
G54D24*
X85701Y-16622D03*
G54D25*
X88976Y-7559D03*
X88976Y-8059D03*
X88976Y-8559D03*
X88976Y-9059D03*
X88976Y-13059D03*
X88976Y-13559D03*
X88976Y-10559D03*
X88976Y-11059D03*
X88976Y-11559D03*
X88976Y-12059D03*
X88976Y-12559D03*
G54D26*
X351Y-29472D03*
X89401Y-322D03*
X89376Y-29468D03*
X351Y-322D03*
G54D25*
X88976Y-14059D03*
X88976Y-10059D03*
X88976Y-14559D03*
X88976Y-15059D03*
G54D27*
X89071Y-22244D03*
X78701Y-11122D03*
X16801Y-7722D03*
X50472Y-18503D03*
X574Y-22244D03*
G54D28*
X9104Y-775D03*
X5226Y-775D03*
G54D29*
X5226Y-2449D03*
X9104Y-2449D03*
G54D30*
X7165Y-2549D03*
X6850Y-2549D03*
X6535Y-2549D03*
X7480Y-2549D03*
X7795Y-2549D03*
G54D31*
X6299Y-1523D03*
X8031Y-1523D03*
G54D32*
X72602Y-5703D03*
X72602Y-7042D03*
X66852Y-13203D03*
X66852Y-14542D03*
X70352Y-20703D03*
X70352Y-22042D03*
X36852Y-13203D03*
X36852Y-14542D03*
X62852Y-20703D03*
X62852Y-22042D03*
X59352Y-13203D03*
X59352Y-14542D03*
X65102Y-5703D03*
X65102Y-7042D03*
X57602Y-5703D03*
X57602Y-7042D03*
X51852Y-13203D03*
X51852Y-14542D03*
X55352Y-20703D03*
X55352Y-22042D03*
X40352Y-20703D03*
X40352Y-22042D03*
X5102Y-5703D03*
X5102Y-7042D03*
X50102Y-5703D03*
X50102Y-7042D03*
X35102Y-5703D03*
X35102Y-7042D03*
X32852Y-20703D03*
X32852Y-22042D03*
X29352Y-13203D03*
X29352Y-14542D03*
X27602Y-5703D03*
X27602Y-7042D03*
X49602Y-24792D03*
X49602Y-23453D03*
X47852Y-20703D03*
X47852Y-22042D03*
X44352Y-13203D03*
X44352Y-14542D03*
X42602Y-5703D03*
X42602Y-7042D03*
X22352Y-24792D03*
X22352Y-23453D03*
X14852Y-24792D03*
X14852Y-23453D03*
X25352Y-20703D03*
X25352Y-22042D03*
X21852Y-13203D03*
X21852Y-14542D03*
X17852Y-20703D03*
X17852Y-22042D03*
X14352Y-13203D03*
X14352Y-14542D03*
X6352Y-24792D03*
X6352Y-23453D03*
X5852Y-13203D03*
X5852Y-14542D03*
X20102Y-5703D03*
X20102Y-7042D03*
X12602Y-5703D03*
X12602Y-7042D03*
X7602Y-20703D03*
X7602Y-22042D03*
X87602Y-5703D03*
X87602Y-7042D03*
X87102Y-20703D03*
X87102Y-22042D03*
X87102Y-24792D03*
X87102Y-23453D03*
X77852Y-24792D03*
X77852Y-23453D03*
X83852Y-13203D03*
X83852Y-14542D03*
X80102Y-5703D03*
X80102Y-7042D03*
X74352Y-13203D03*
X74352Y-14542D03*
X78602Y-20703D03*
X78602Y-22042D03*
G54D33*
X37602Y-2123D03*
X37602Y-3123D03*
X37602Y-4123D03*
X45102Y-1123D03*
X45102Y-3123D03*
X45102Y-4123D03*
X37602Y-1123D03*
X52602Y-3123D03*
X52602Y-4123D03*
X60102Y-4123D03*
X60102Y-3123D03*
X60102Y-2123D03*
X60102Y-1123D03*
X52602Y-2123D03*
X45102Y-2123D03*
X52602Y-1123D03*
X52602Y-6123D03*
X60102Y-6123D03*
G54D20*
X46602Y-28123D03*
X49102Y-27123D03*
G54D21*
X47602Y-26123D03*
G54D22*
X49602Y-26123D03*
X45602Y-26123D03*
G54D34*
X67302Y-28873D03*
X27902Y-28873D03*
G54D21*
X67302Y-22873D03*
X27902Y-22873D03*
M02*
