M48
;DRILL file {Pcbnew (2013-02-13 BZR 3947)-testing} date 3/7/2013 9:22:18 AM
;FORMAT={2:4/ absolute / inch / suppress leading zeros}
FMAT,2
INCH,TZ
T1C0.016
T2C0.020
T3C0.028
T4C0.032
T5C0.035
T6C0.035
T7C0.039
T8C0.059
%
G90
G05
M72
T1
X46550Y-44650
X46575Y-58550
X48875Y-44650
X53880Y-33450
X54800Y-33450
X55750Y-29900
X59950Y-52000
X65900Y-52000
X68200Y-52000
X69200Y-53000
X74075Y-54000
X74075Y-55550
X74075Y-58550
X85070Y-54500
X90550Y-36700
X92000Y-58500
X95350Y-36700
X102650Y-36700
X109700Y-36700
X135100Y-29900
X135100Y-36700
X135100Y-58500
T3
X52620Y-31865
T4
X52935Y-31392
X53250Y-31865
X53565Y-31392
X53880Y-31865
T5
X46450Y-32000
X46450Y-35000
X47400Y-39500
X47400Y-42500
X47450Y-51500
X47450Y-54500
X49250Y-47000
X49250Y-50000
X55850Y-39500
X55850Y-42500
X55900Y-51500
X55900Y-54500
X59550Y-47000
X59550Y-50000
X60050Y-32000
X60050Y-35000
X61500Y-32000
X61500Y-35000
X63350Y-39500
X63350Y-42500
X63400Y-51500
X63400Y-54500
X67050Y-47000
X67050Y-50000
X68950Y-32000
X68950Y-35000
X70850Y-39500
X70850Y-42500
X74550Y-44000
X74550Y-47000
X76450Y-32000
X76450Y-35000
X78350Y-39500
X78350Y-42500
X82050Y-44000
X82050Y-47000
X83950Y-32000
X83950Y-35000
X85850Y-39500
X85850Y-42500
X89550Y-47000
X89550Y-50000
X91200Y-52550
X91450Y-32000
X91450Y-35000
X93350Y-39500
X93350Y-42500
X94200Y-52550
X97050Y-44000
X97050Y-47000
X98950Y-32000
X98950Y-35000
X100850Y-39500
X100850Y-42500
X104550Y-44000
X104550Y-47000
X106450Y-32000
X106450Y-35000
X108350Y-39500
X108350Y-42500
X112050Y-44000
X112050Y-47000
X113950Y-32000
X113950Y-35000
X115850Y-39500
X115850Y-42500
X118650Y-51500
X118650Y-54500
X120500Y-47000
X120500Y-50000
X121450Y-32000
X121450Y-35000
X126150Y-39500
X126150Y-42500
X128000Y-51500
X128000Y-54500
X128950Y-32000
X128950Y-35000
X128950Y-47000
X128950Y-50000
T6
X49000Y-42500
X51900Y-42450
X72000Y-54000
X72000Y-55000
X72000Y-56000
X72000Y-57000
T7
X49000Y-35000
X49925Y-57500
X49950Y-42500
X50000Y-35000
X50925Y-57500
X50950Y-42500
X51800Y-50000
X52800Y-50000
X56500Y-35000
X56600Y-45950
X56600Y-49950
X57500Y-35000
X58375Y-57500
X58400Y-42500
X59375Y-57500
X59400Y-42500
X62100Y-50000
X63100Y-50000
X64000Y-35000
X65000Y-35000
X65875Y-57500
X65900Y-42500
X66875Y-57500
X66900Y-42500
X69600Y-50000
X70600Y-50000
X71500Y-35000
X72500Y-35000
X73400Y-42500
X74400Y-42500
X77100Y-50000
X78090Y-52480
X78090Y-58480
X78100Y-50000
X79000Y-35000
X79090Y-52480
X79090Y-58480
X80000Y-35000
X80090Y-52480
X80090Y-58480
X80900Y-42500
X81090Y-52480
X81090Y-58480
X81900Y-42500
X82090Y-52480
X82090Y-53480
X82090Y-57480
X82090Y-58480
X83090Y-52480
X83090Y-58480
X84090Y-52480
X84090Y-58480
X84600Y-50000
X85090Y-52480
X85090Y-58480
X85600Y-50000
X86090Y-52480
X86090Y-58480
X86500Y-35000
X87090Y-52480
X87090Y-58480
X87500Y-35000
X88090Y-52480
X88090Y-58480
X88400Y-42500
X89090Y-52480
X89090Y-53480
X89090Y-54480
X89090Y-55480
X89090Y-56480
X89090Y-57480
X89090Y-58480
X89400Y-42500
X92100Y-50000
X92975Y-57650
X93100Y-50000
X93975Y-57650
X94000Y-35000
X95000Y-35000
X95900Y-42500
X96900Y-42500
X99600Y-50000
X100600Y-50000
X101500Y-35000
X102500Y-35000
X103400Y-42500
X104400Y-42500
X107100Y-50000
X108100Y-50000
X109000Y-35000
X110000Y-35000
X110900Y-42500
X111900Y-42500
X114600Y-50000
X115600Y-50000
X116500Y-35000
X117500Y-35000
X118400Y-42500
X119400Y-42500
X121200Y-57500
X122200Y-57500
X123025Y-50000
X124000Y-35000
X124025Y-50000
X125000Y-35000
X128700Y-42500
X129700Y-42500
X130575Y-57500
X131500Y-35000
X131500Y-50000
X131575Y-57500
X132500Y-35000
X132500Y-50000
T8
X48000Y-32000
X48925Y-54500
X48950Y-39500
X50500Y-31000
X50800Y-47000
X51425Y-53500
X51450Y-38500
X53300Y-46000
X55500Y-32000
X57375Y-54500
X57400Y-39500
X58000Y-31000
X59875Y-53500
X59900Y-38500
X61100Y-47000
X63000Y-32000
X63600Y-46000
X64875Y-54500
X64900Y-39500
X65500Y-31000
X67375Y-53500
X67400Y-38500
X68600Y-47000
X70500Y-32000
X71100Y-46000
X72400Y-39500
X73000Y-31000
X74900Y-38500
X76100Y-47000
X78000Y-32000
X78600Y-46000
X79900Y-39500
X80500Y-31000
X82400Y-38500
X83600Y-47000
X85500Y-32000
X86100Y-46000
X87400Y-39500
X88000Y-31000
X89900Y-38500
X91100Y-47000
X91970Y-54650
X93000Y-32000
X93600Y-46000
X94470Y-53650
X94900Y-39500
X95500Y-31000
X97400Y-38500
X98600Y-47000
X100500Y-32000
X101100Y-46000
X102400Y-39500
X103000Y-31000
X104900Y-38500
X106100Y-47000
X108000Y-32000
X108600Y-46000
X109900Y-39500
X110500Y-31000
X112400Y-38500
X113600Y-47000
X115500Y-32000
X116100Y-46000
X117400Y-39500
X118000Y-31000
X119900Y-38500
X120200Y-54500
X122025Y-47000
X122700Y-53500
X123000Y-32000
X124525Y-46000
X125500Y-31000
X127700Y-39500
X129565Y-54500
X130200Y-38500
X130500Y-32000
X130500Y-47000
X132065Y-53500
X133000Y-31000
X133000Y-46000
T2
X51813Y-29660G85X51813Y-30092
G05
X54687Y-29660G85X54687Y-30092
G05
T0
M30
