G04 (created by PCBNEW (2013-02-13 BZR 3947)-testing) date 9/20/2013 1:25:37 PM*
%MOIN*%
G04 Gerber Fmt 3.4, Leading zero omitted, Abs format*
%FSLAX34Y34*%
G01*
G70*
G90*
G04 APERTURE LIST*
%ADD10C,0*%
%ADD11O,0.3937X0.1969*%
%ADD12C,0.2756*%
%ADD13C,0.0354331*%
%ADD14C,0.0708661*%
%ADD15C,0.0629921*%
%ADD16C,0.09*%
%ADD17C,0.157*%
%ADD18C,0.067*%
%ADD19O,0.075X0.085*%
%ADD20R,0.075X0.085*%
%ADD21C,0.0393701*%
%ADD22C,0.12*%
%ADD23C,0.016*%
%ADD24C,0.02*%
%ADD25C,0.01*%
G04 APERTURE END LIST*
G54D10*
G54D11*
X89071Y-22244D03*
G54D12*
X78701Y-11122D03*
X16801Y-7722D03*
X50472Y-18503D03*
G54D11*
X574Y-22244D03*
G54D13*
X6299Y-1523D03*
X8031Y-1523D03*
G54D14*
X37376Y-2559D03*
X37376Y-3559D03*
X37376Y-4559D03*
X44876Y-5559D03*
X44876Y-4559D03*
X44876Y-1559D03*
X37376Y-5559D03*
X52376Y-2559D03*
X52376Y-5559D03*
X52376Y-4559D03*
X52376Y-3559D03*
X59876Y-1559D03*
X59876Y-3559D03*
X52376Y-1559D03*
X37111Y-28809D03*
X35111Y-28809D03*
X33111Y-28809D03*
X36111Y-28809D03*
X34111Y-28809D03*
X38111Y-28809D03*
X44876Y-2559D03*
X44876Y-3559D03*
X67376Y-5559D03*
X67376Y-1559D03*
X67376Y-3559D03*
X67376Y-4559D03*
X67376Y-2559D03*
X59876Y-5559D03*
G54D15*
X1376Y-13509D03*
X1376Y-10509D03*
X2701Y-16622D03*
X2701Y-19622D03*
G54D16*
X3551Y-28122D03*
X6051Y-27122D03*
G54D17*
X4551Y-26122D03*
G54D18*
X6551Y-26122D03*
X2551Y-26122D03*
G54D16*
X3551Y-13122D03*
X6051Y-12122D03*
G54D17*
X4551Y-11122D03*
G54D18*
X6551Y-11122D03*
X2551Y-11122D03*
G54D16*
X5401Y-20622D03*
X7901Y-19622D03*
G54D17*
X6401Y-18622D03*
G54D18*
X8401Y-18622D03*
X4401Y-18622D03*
G54D19*
X24701Y-16622D03*
G54D20*
X23701Y-16622D03*
G54D19*
X13501Y-24122D03*
G54D20*
X12501Y-24122D03*
G54D19*
X17201Y-16622D03*
G54D20*
X16201Y-16622D03*
G54D19*
X5051Y-9122D03*
G54D20*
X4051Y-9122D03*
G54D19*
X11601Y-1621D03*
G54D20*
X10601Y-1621D03*
G54D19*
X5051Y-24122D03*
G54D20*
X4051Y-24122D03*
G54D16*
X85101Y-20622D03*
X87601Y-19622D03*
G54D17*
X86101Y-18622D03*
G54D18*
X88101Y-18622D03*
X84101Y-18622D03*
G54D16*
X49501Y-13122D03*
X52001Y-12122D03*
G54D17*
X50501Y-11122D03*
G54D18*
X52501Y-11122D03*
X48501Y-11122D03*
G54D16*
X70101Y-5622D03*
X72601Y-4622D03*
G54D17*
X71101Y-3622D03*
G54D18*
X73101Y-3622D03*
X69101Y-3622D03*
G54D16*
X32601Y-5622D03*
X35101Y-4622D03*
G54D17*
X33601Y-3622D03*
G54D18*
X35601Y-3622D03*
X31601Y-3622D03*
G54D16*
X84151Y-28122D03*
X86651Y-27122D03*
G54D17*
X85151Y-26122D03*
G54D18*
X87151Y-26122D03*
X83151Y-26122D03*
G54D16*
X74801Y-28122D03*
X77301Y-27122D03*
G54D17*
X75801Y-26122D03*
G54D18*
X77801Y-26122D03*
X73801Y-26122D03*
G54D16*
X19501Y-28122D03*
X22001Y-27122D03*
G54D17*
X20501Y-26122D03*
G54D18*
X22501Y-26122D03*
X18501Y-26122D03*
G54D16*
X12001Y-28122D03*
X14501Y-27122D03*
G54D17*
X13001Y-26122D03*
G54D18*
X15001Y-26122D03*
X11001Y-26122D03*
G54D16*
X76651Y-20622D03*
X79151Y-19622D03*
G54D17*
X77651Y-18622D03*
G54D18*
X79651Y-18622D03*
X75651Y-18622D03*
G54D16*
X68201Y-20622D03*
X70701Y-19622D03*
G54D17*
X69201Y-18622D03*
G54D18*
X71201Y-18622D03*
X67201Y-18622D03*
G54D16*
X27001Y-13122D03*
X29501Y-12122D03*
G54D17*
X28001Y-11122D03*
G54D18*
X30001Y-11122D03*
X26001Y-11122D03*
G54D16*
X19501Y-13122D03*
X22001Y-12122D03*
G54D17*
X20501Y-11122D03*
G54D18*
X22501Y-11122D03*
X18501Y-11122D03*
G54D16*
X12001Y-13122D03*
X14501Y-12122D03*
G54D17*
X13001Y-11122D03*
G54D18*
X15001Y-11122D03*
X11001Y-11122D03*
G54D16*
X85101Y-5622D03*
X87601Y-4622D03*
G54D17*
X86101Y-3622D03*
G54D18*
X88101Y-3622D03*
X84101Y-3622D03*
G54D16*
X62601Y-5622D03*
X65101Y-4622D03*
G54D17*
X63601Y-3622D03*
G54D18*
X65601Y-3622D03*
X61601Y-3622D03*
G54D16*
X55101Y-5622D03*
X57601Y-4622D03*
G54D17*
X56101Y-3622D03*
G54D18*
X58101Y-3622D03*
X54101Y-3622D03*
G54D16*
X47601Y-5622D03*
X50101Y-4622D03*
G54D17*
X48601Y-3622D03*
G54D18*
X50601Y-3622D03*
X46601Y-3622D03*
G54D16*
X40101Y-5622D03*
X42601Y-4622D03*
G54D17*
X41101Y-3622D03*
G54D18*
X43101Y-3622D03*
X39101Y-3622D03*
G54D16*
X25101Y-5622D03*
X27601Y-4622D03*
G54D17*
X26101Y-3622D03*
G54D18*
X28101Y-3622D03*
X24101Y-3622D03*
G54D16*
X17601Y-5622D03*
X20101Y-4622D03*
G54D17*
X18601Y-3622D03*
G54D18*
X20601Y-3622D03*
X16601Y-3622D03*
G54D16*
X10101Y-5622D03*
X12601Y-4622D03*
G54D17*
X11101Y-3622D03*
G54D18*
X13101Y-3622D03*
X9101Y-3622D03*
G54D16*
X60701Y-20622D03*
X63201Y-19622D03*
G54D17*
X61701Y-18622D03*
G54D18*
X63701Y-18622D03*
X59701Y-18622D03*
G54D16*
X53201Y-20622D03*
X55701Y-19622D03*
G54D17*
X54201Y-18622D03*
G54D18*
X56201Y-18622D03*
X52201Y-18622D03*
G54D16*
X45701Y-20622D03*
X48201Y-19622D03*
G54D17*
X46701Y-18622D03*
G54D18*
X48701Y-18622D03*
X44701Y-18622D03*
G54D16*
X38201Y-20622D03*
X40701Y-19622D03*
G54D17*
X39201Y-18622D03*
G54D18*
X41201Y-18622D03*
X37201Y-18622D03*
G54D16*
X30701Y-20622D03*
X33201Y-19622D03*
G54D17*
X31701Y-18622D03*
G54D18*
X33701Y-18622D03*
X29701Y-18622D03*
G54D16*
X23201Y-20622D03*
X25701Y-19622D03*
G54D17*
X24201Y-18622D03*
G54D18*
X26201Y-18622D03*
X22201Y-18622D03*
G54D16*
X15701Y-20622D03*
X18201Y-19622D03*
G54D17*
X16701Y-18622D03*
G54D18*
X18701Y-18622D03*
X14701Y-18622D03*
G54D16*
X82301Y-13122D03*
X84801Y-12122D03*
G54D17*
X83301Y-11122D03*
G54D18*
X85301Y-11122D03*
X81301Y-11122D03*
G54D16*
X72001Y-13122D03*
X74501Y-12122D03*
G54D17*
X73001Y-11122D03*
G54D18*
X75001Y-11122D03*
X71001Y-11122D03*
G54D16*
X64501Y-13122D03*
X67001Y-12122D03*
G54D17*
X65501Y-11122D03*
G54D18*
X67501Y-11122D03*
X63501Y-11122D03*
G54D16*
X57001Y-13122D03*
X59501Y-12122D03*
G54D17*
X58001Y-11122D03*
G54D18*
X60001Y-11122D03*
X56001Y-11122D03*
G54D16*
X42001Y-13122D03*
X44501Y-12122D03*
G54D17*
X43001Y-11122D03*
G54D18*
X45001Y-11122D03*
X41001Y-11122D03*
G54D16*
X34501Y-13122D03*
X37001Y-12122D03*
G54D17*
X35501Y-11122D03*
G54D18*
X37501Y-11122D03*
X33501Y-11122D03*
G54D16*
X77601Y-5622D03*
X80101Y-4622D03*
G54D17*
X78601Y-3622D03*
G54D18*
X80601Y-3622D03*
X76601Y-3622D03*
G54D19*
X48271Y-24124D03*
G54D20*
X47271Y-24124D03*
G54D19*
X62201Y-16622D03*
G54D20*
X61201Y-16622D03*
G54D19*
X54701Y-16622D03*
G54D20*
X53701Y-16622D03*
G54D19*
X47201Y-16622D03*
G54D20*
X46201Y-16622D03*
G54D19*
X39701Y-16622D03*
G54D20*
X38701Y-16622D03*
G54D19*
X83801Y-9122D03*
G54D20*
X82801Y-9122D03*
G54D19*
X73501Y-9122D03*
G54D20*
X72501Y-9122D03*
G54D19*
X66001Y-9122D03*
G54D20*
X65001Y-9122D03*
G54D19*
X32201Y-16672D03*
G54D20*
X31201Y-16672D03*
G54D19*
X58501Y-9122D03*
G54D20*
X57501Y-9122D03*
G54D19*
X34101Y-1622D03*
G54D20*
X33101Y-1622D03*
G54D19*
X41601Y-1622D03*
G54D20*
X40601Y-1622D03*
G54D19*
X49101Y-1622D03*
G54D20*
X48101Y-1622D03*
G54D19*
X56601Y-1622D03*
G54D20*
X55601Y-1622D03*
G54D19*
X26601Y-1622D03*
G54D20*
X25601Y-1622D03*
G54D19*
X51001Y-9122D03*
G54D20*
X50001Y-9122D03*
G54D19*
X64101Y-1622D03*
G54D20*
X63101Y-1622D03*
G54D19*
X71601Y-1622D03*
G54D20*
X70601Y-1622D03*
G54D19*
X79101Y-1622D03*
G54D20*
X78101Y-1622D03*
G54D19*
X86601Y-1622D03*
G54D20*
X85601Y-1622D03*
G54D19*
X36001Y-9122D03*
G54D20*
X35001Y-9122D03*
G54D19*
X43501Y-9122D03*
G54D20*
X42501Y-9122D03*
G54D19*
X85651Y-24122D03*
G54D20*
X84651Y-24122D03*
G54D19*
X76301Y-24122D03*
G54D20*
X75301Y-24122D03*
G54D19*
X69701Y-16622D03*
G54D20*
X68701Y-16622D03*
G54D19*
X78151Y-16622D03*
G54D20*
X77151Y-16622D03*
G54D19*
X21001Y-24122D03*
G54D20*
X20001Y-24122D03*
G54D19*
X86601Y-16622D03*
G54D20*
X85601Y-16622D03*
G54D19*
X4101Y-1621D03*
G54D20*
X3101Y-1621D03*
G54D16*
X2601Y-5622D03*
X5101Y-4622D03*
G54D17*
X3601Y-3622D03*
G54D18*
X5601Y-3622D03*
X1601Y-3622D03*
G54D19*
X6901Y-16622D03*
G54D20*
X5901Y-16622D03*
G54D15*
X31301Y-12122D03*
X31301Y-9122D03*
X23851Y-12122D03*
X23851Y-9122D03*
X16301Y-13022D03*
X16301Y-10022D03*
X22001Y-4622D03*
X22001Y-1622D03*
G54D19*
X28501Y-9122D03*
G54D20*
X27501Y-9122D03*
G54D19*
X21001Y-9122D03*
G54D20*
X20001Y-9122D03*
G54D19*
X13501Y-9122D03*
G54D20*
X12501Y-9122D03*
G54D19*
X19101Y-1622D03*
G54D20*
X18101Y-1622D03*
G54D21*
X351Y-29472D03*
X89401Y-322D03*
X89401Y-29472D03*
X351Y-322D03*
X24976Y-23059D03*
X29976Y-559D03*
G54D16*
X46601Y-28122D03*
X49101Y-27122D03*
G54D17*
X47601Y-26122D03*
G54D18*
X49601Y-26122D03*
X45601Y-26122D03*
G54D22*
X67301Y-28822D03*
X27901Y-28822D03*
G54D17*
X67301Y-22822D03*
X27901Y-22822D03*
G54D16*
X84201Y-20622D03*
X86701Y-19622D03*
G54D17*
X85201Y-18622D03*
G54D18*
X87201Y-18622D03*
X83201Y-18622D03*
G54D16*
X75701Y-20622D03*
X78201Y-19622D03*
G54D17*
X76701Y-18622D03*
G54D18*
X78701Y-18622D03*
X74701Y-18622D03*
G54D19*
X76201Y-16622D03*
G54D20*
X77201Y-16622D03*
G54D19*
X84701Y-16622D03*
G54D20*
X85701Y-16622D03*
G54D21*
X69972Y-13319D03*
X54549Y-20680D03*
X57022Y-5973D03*
X42792Y-24152D03*
X58615Y-23076D03*
X58689Y-24402D03*
X8226Y-22591D03*
X53287Y-23652D03*
X76123Y-27287D03*
X82763Y-24971D03*
X20374Y-21996D03*
X53346Y-23178D03*
X29048Y-21954D03*
X54609Y-22243D03*
X50421Y-26569D03*
X56128Y-27445D03*
X51685Y-26786D03*
X56149Y-26786D03*
X53313Y-26347D03*
X56747Y-26347D03*
X58377Y-24802D03*
X51662Y-25632D03*
X58849Y-25834D03*
X32905Y-13122D03*
X52171Y-25882D03*
X58849Y-26612D03*
X60139Y-27886D03*
X43409Y-24512D03*
X60544Y-24438D03*
X83526Y-22834D03*
X77176Y-14534D03*
X81551Y-14559D03*
X74701Y-15234D03*
X89401Y-14559D03*
X69751Y-26717D03*
X80926Y-27761D03*
X80901Y-25859D03*
X80901Y-22809D03*
X69751Y-22234D03*
X26276Y-24384D03*
X23351Y-22834D03*
X23351Y-24409D03*
X26276Y-26509D03*
X33426Y-26484D03*
X18851Y-14984D03*
X10311Y-23059D03*
X17051Y-23059D03*
X2451Y-15584D03*
X10389Y-14609D03*
X10389Y-10084D03*
X6485Y-614D03*
X60572Y-26451D03*
X60548Y-25392D03*
X63371Y-26627D03*
X59499Y-22685D03*
X57315Y-22685D03*
X9465Y-21597D03*
X56536Y-22700D03*
X9063Y-21232D03*
X55908Y-22209D03*
X6128Y-2231D03*
X37288Y-27507D03*
X54797Y-27925D03*
X58580Y-27468D03*
X58779Y-25071D03*
X60334Y-12491D03*
X61608Y-10337D03*
X62234Y-28028D03*
G54D23*
X16816Y-12507D02*
X16301Y-13022D01*
X19859Y-12507D02*
X16816Y-12507D01*
X20095Y-12743D02*
X19859Y-12507D01*
X23230Y-12743D02*
X20095Y-12743D01*
X23851Y-12122D02*
X23230Y-12743D01*
X30677Y-12746D02*
X31301Y-12122D01*
X28545Y-12746D02*
X30677Y-12746D01*
X27921Y-12122D02*
X28545Y-12746D01*
X23851Y-12122D02*
X27921Y-12122D01*
X65685Y-17607D02*
X69972Y-13319D01*
X58962Y-17607D02*
X65685Y-17607D01*
X55889Y-20680D02*
X58962Y-17607D01*
X54549Y-20680D02*
X55889Y-20680D01*
X53860Y-19991D02*
X54549Y-20680D01*
X52050Y-19991D02*
X53860Y-19991D01*
X51793Y-20247D02*
X52050Y-19991D01*
X46327Y-20247D02*
X51793Y-20247D01*
X45646Y-19567D02*
X46327Y-20247D01*
X43893Y-19567D02*
X45646Y-19567D01*
X41943Y-17617D02*
X43893Y-19567D01*
X5484Y-17617D02*
X41943Y-17617D01*
X1376Y-13509D02*
X5484Y-17617D01*
X57145Y-6095D02*
X57022Y-5973D01*
X61047Y-6095D02*
X57145Y-6095D01*
X62133Y-5009D02*
X61047Y-6095D01*
X62962Y-5009D02*
X62133Y-5009D01*
X63199Y-5247D02*
X62962Y-5009D01*
X66687Y-5247D02*
X63199Y-5247D01*
X67376Y-4559D02*
X66687Y-5247D01*
X43461Y-6974D02*
X44876Y-5559D01*
X20656Y-6974D02*
X43461Y-6974D01*
X18355Y-9275D02*
X20656Y-6974D01*
X15080Y-9275D02*
X18355Y-9275D01*
X14323Y-8518D02*
X15080Y-9275D01*
X4655Y-8518D02*
X14323Y-8518D01*
X4051Y-9122D02*
X4655Y-8518D01*
X77201Y-16622D02*
X77151Y-16622D01*
X85721Y-23051D02*
X84651Y-24122D01*
X85721Y-20372D02*
X85721Y-23051D01*
X85261Y-19912D02*
X85721Y-20372D01*
X82721Y-19912D02*
X85261Y-19912D01*
X80559Y-17750D02*
X82721Y-19912D01*
X78330Y-17750D02*
X80559Y-17750D01*
X77201Y-16622D02*
X78330Y-17750D01*
X72501Y-9122D02*
X71966Y-9122D01*
X70601Y-1622D02*
X70066Y-1622D01*
X52376Y-3767D02*
X52376Y-3559D01*
X55189Y-6580D02*
X52376Y-3767D01*
X69480Y-6580D02*
X55189Y-6580D01*
X69480Y-6635D02*
X69480Y-6580D01*
X71966Y-9122D02*
X69480Y-6635D01*
X70066Y-4542D02*
X70066Y-1622D01*
X69480Y-5128D02*
X70066Y-4542D01*
X69480Y-6580D02*
X69480Y-5128D01*
X85701Y-16622D02*
X85601Y-16622D01*
X60649Y-785D02*
X59876Y-1559D01*
X76730Y-785D02*
X60649Y-785D01*
X77566Y-1622D02*
X76730Y-785D01*
X78101Y-1622D02*
X77566Y-1622D01*
X85601Y-1622D02*
X85066Y-1622D01*
X59342Y-3025D02*
X59876Y-3559D01*
X59342Y-1359D02*
X59342Y-3025D01*
X60156Y-545D02*
X59342Y-1359D01*
X83990Y-545D02*
X60156Y-545D01*
X85066Y-1622D02*
X83990Y-545D01*
X38663Y-2559D02*
X44876Y-2559D01*
X38144Y-2040D02*
X38663Y-2559D01*
X36656Y-2040D02*
X38144Y-2040D01*
X36248Y-2447D02*
X36656Y-2040D01*
X11427Y-2447D02*
X36248Y-2447D01*
X10601Y-1621D02*
X11427Y-2447D01*
X45404Y-5087D02*
X44876Y-4559D01*
X45404Y-5788D02*
X45404Y-5087D01*
X43232Y-7960D02*
X45404Y-5788D01*
X35089Y-7960D02*
X43232Y-7960D01*
X34448Y-8601D02*
X35089Y-7960D01*
X34448Y-12087D02*
X34448Y-8601D01*
X32264Y-14271D02*
X34448Y-12087D01*
X26051Y-14271D02*
X32264Y-14271D01*
X23701Y-16622D02*
X26051Y-14271D01*
X51843Y-1026D02*
X52376Y-1559D01*
X46197Y-1026D02*
X51843Y-1026D01*
X45644Y-1579D02*
X46197Y-1026D01*
X45644Y-5978D02*
X45644Y-1579D01*
X42501Y-9122D02*
X45644Y-5978D01*
X41206Y-1017D02*
X40601Y-1622D01*
X45083Y-1017D02*
X41206Y-1017D01*
X45644Y-1579D02*
X45083Y-1017D01*
X51096Y-8026D02*
X51096Y-2559D01*
X50001Y-9122D02*
X51096Y-8026D01*
X49038Y-2559D02*
X51096Y-2559D01*
X48101Y-1622D02*
X49038Y-2559D01*
X51096Y-2559D02*
X52376Y-2559D01*
X57501Y-9122D02*
X56966Y-9122D01*
X55939Y-9122D02*
X56966Y-9122D01*
X52376Y-5559D02*
X55939Y-9122D01*
X56354Y-8536D02*
X52376Y-4559D01*
X63881Y-8536D02*
X56354Y-8536D01*
X64466Y-9122D02*
X63881Y-8536D01*
X65001Y-9122D02*
X64466Y-9122D01*
X11601Y-1621D02*
X12136Y-1621D01*
X26601Y-1622D02*
X26601Y-2207D01*
X34101Y-2207D02*
X26601Y-2207D01*
X34101Y-1622D02*
X34101Y-2207D01*
X12722Y-2207D02*
X12136Y-1621D01*
X26601Y-2207D02*
X12722Y-2207D01*
X64101Y-1622D02*
X64636Y-1622D01*
X72721Y-2207D02*
X79101Y-2207D01*
X72136Y-1622D02*
X72721Y-2207D01*
X65221Y-1036D02*
X64636Y-1622D01*
X71601Y-1036D02*
X65221Y-1036D01*
X71601Y-1622D02*
X71601Y-1036D01*
X71601Y-1622D02*
X72136Y-1622D01*
X79101Y-1622D02*
X79101Y-2207D01*
X73501Y-9122D02*
X73501Y-9413D01*
X74377Y-8536D02*
X83801Y-8536D01*
X73501Y-9413D02*
X74377Y-8536D01*
X83801Y-9122D02*
X83801Y-8536D01*
X43501Y-9122D02*
X44036Y-9122D01*
X51001Y-9122D02*
X51001Y-9707D01*
X44621Y-9707D02*
X51001Y-9707D01*
X44036Y-9122D02*
X44621Y-9707D01*
X51001Y-9707D02*
X58501Y-9707D01*
X58501Y-9122D02*
X58501Y-9414D01*
X58501Y-9414D02*
X58501Y-9707D01*
X66001Y-9122D02*
X66001Y-9647D01*
X66001Y-9647D02*
X66001Y-9707D01*
X73207Y-9707D02*
X73501Y-9413D01*
X66001Y-9707D02*
X73207Y-9707D01*
X43501Y-9122D02*
X43501Y-9707D01*
X37121Y-9707D02*
X43501Y-9707D01*
X36536Y-9122D02*
X37121Y-9707D01*
X36001Y-9122D02*
X36536Y-9122D01*
X60396Y-9414D02*
X58501Y-9414D01*
X60688Y-9707D02*
X60396Y-9414D01*
X66001Y-9707D02*
X60688Y-9707D01*
X76201Y-16622D02*
X69701Y-16622D01*
X18321Y-17207D02*
X17736Y-16622D01*
X24701Y-17207D02*
X18321Y-17207D01*
X17201Y-16622D02*
X17736Y-16622D01*
X5603Y-16036D02*
X17201Y-16036D01*
X2929Y-13363D02*
X5603Y-16036D01*
X2929Y-12583D02*
X2929Y-13363D01*
X3233Y-12280D02*
X2929Y-12583D01*
X3233Y-11083D02*
X3233Y-12280D01*
X4609Y-9707D02*
X3233Y-11083D01*
X5051Y-9707D02*
X4609Y-9707D01*
X5051Y-9122D02*
X5051Y-9707D01*
X17201Y-16622D02*
X17201Y-16036D01*
X86601Y-16622D02*
X86601Y-17207D01*
X84701Y-17207D02*
X86601Y-17207D01*
X24701Y-16622D02*
X24701Y-17207D01*
X84701Y-16622D02*
X84701Y-16914D01*
X84701Y-16914D02*
X84701Y-17207D01*
X78978Y-16914D02*
X78686Y-16622D01*
X84701Y-16914D02*
X78978Y-16914D01*
X78151Y-16622D02*
X78686Y-16622D01*
X55821Y-16036D02*
X55236Y-16622D01*
X62201Y-16036D02*
X55821Y-16036D01*
X62201Y-16622D02*
X62201Y-16036D01*
X54701Y-16622D02*
X55236Y-16622D01*
X48321Y-16036D02*
X54701Y-16036D01*
X47736Y-16622D02*
X48321Y-16036D01*
X54701Y-16622D02*
X54701Y-16036D01*
X47469Y-16622D02*
X47364Y-16622D01*
X47469Y-16622D02*
X47736Y-16622D01*
X47201Y-16622D02*
X47283Y-16622D01*
X47283Y-16622D02*
X47364Y-16622D01*
X40821Y-17207D02*
X40236Y-16622D01*
X46698Y-17207D02*
X40821Y-17207D01*
X47283Y-16622D02*
X46698Y-17207D01*
X39701Y-16622D02*
X40236Y-16622D01*
X33271Y-17207D02*
X39701Y-17207D01*
X32736Y-16672D02*
X33271Y-17207D01*
X39701Y-16622D02*
X39701Y-17207D01*
X32201Y-16672D02*
X32469Y-16672D01*
X32469Y-16672D02*
X32736Y-16672D01*
X24751Y-17257D02*
X24701Y-17207D01*
X31883Y-17257D02*
X24751Y-17257D01*
X32469Y-16672D02*
X31883Y-17257D01*
X6171Y-23536D02*
X5586Y-24122D01*
X13501Y-23536D02*
X6171Y-23536D01*
X5051Y-24122D02*
X5586Y-24122D01*
X13501Y-24122D02*
X13501Y-23536D01*
X85651Y-24122D02*
X85651Y-24707D01*
X76301Y-24122D02*
X76301Y-24647D01*
X48271Y-24124D02*
X48271Y-24709D01*
X20449Y-23536D02*
X13501Y-23536D01*
X21001Y-24088D02*
X20449Y-23536D01*
X21001Y-24122D02*
X21001Y-24088D01*
X48106Y-24873D02*
X48271Y-24709D01*
X22288Y-24873D02*
X48106Y-24873D01*
X21536Y-24122D02*
X22288Y-24873D01*
X21001Y-24122D02*
X21536Y-24122D01*
X76334Y-24614D02*
X76301Y-24647D01*
X82911Y-24614D02*
X76334Y-24614D01*
X83004Y-24707D02*
X82911Y-24614D01*
X85651Y-24707D02*
X83004Y-24707D01*
X49180Y-24497D02*
X48806Y-24124D01*
X57498Y-24497D02*
X49180Y-24497D01*
X57976Y-24019D02*
X57498Y-24497D01*
X59565Y-24019D02*
X57976Y-24019D01*
X60347Y-24801D02*
X59565Y-24019D01*
X76146Y-24801D02*
X60347Y-24801D01*
X76301Y-24647D02*
X76146Y-24801D01*
X48271Y-24124D02*
X48806Y-24124D01*
X54368Y-23076D02*
X58615Y-23076D01*
X53435Y-24009D02*
X54368Y-23076D01*
X53139Y-24009D02*
X53435Y-24009D01*
X52421Y-23291D02*
X53139Y-24009D01*
X45531Y-23291D02*
X52421Y-23291D01*
X44670Y-24152D02*
X45531Y-23291D01*
X42792Y-24152D02*
X44670Y-24152D01*
X30453Y-25151D02*
X34111Y-28809D01*
X4027Y-25151D02*
X30453Y-25151D01*
X3516Y-24640D02*
X4027Y-25151D01*
X3516Y-20436D02*
X3516Y-24640D01*
X2701Y-19622D02*
X3516Y-20436D01*
X58273Y-24402D02*
X58689Y-24402D01*
X57895Y-24780D02*
X58273Y-24402D01*
X48970Y-24780D02*
X57895Y-24780D01*
X48573Y-25176D02*
X48970Y-24780D01*
X37743Y-25176D02*
X48573Y-25176D01*
X34111Y-28809D02*
X37743Y-25176D01*
X52669Y-23034D02*
X53287Y-23652D01*
X44886Y-23034D02*
X52669Y-23034D01*
X44147Y-23773D02*
X44886Y-23034D01*
X21528Y-23773D02*
X44147Y-23773D01*
X20345Y-22591D02*
X21528Y-23773D01*
X8226Y-22591D02*
X20345Y-22591D01*
X78240Y-24971D02*
X82763Y-24971D01*
X77186Y-26025D02*
X78240Y-24971D01*
X77186Y-26225D02*
X77186Y-26025D01*
X76123Y-27287D02*
X77186Y-26225D01*
X52738Y-22571D02*
X53346Y-23178D01*
X29160Y-22571D02*
X52738Y-22571D01*
X28465Y-21876D02*
X29160Y-22571D01*
X20495Y-21876D02*
X28465Y-21876D01*
X20374Y-21996D02*
X20495Y-21876D01*
X54321Y-21954D02*
X54609Y-22243D01*
X29048Y-21954D02*
X54321Y-21954D01*
X51297Y-27445D02*
X56128Y-27445D01*
X50421Y-26569D02*
X51297Y-27445D01*
X56149Y-26786D02*
X51685Y-26786D01*
X56747Y-26347D02*
X53313Y-26347D01*
X58160Y-25020D02*
X58377Y-24802D01*
X50000Y-25020D02*
X58160Y-25020D01*
X48919Y-26100D02*
X50000Y-25020D01*
X48919Y-26168D02*
X48919Y-26100D01*
X47939Y-27148D02*
X48919Y-26168D01*
X36771Y-27148D02*
X47939Y-27148D01*
X35111Y-28809D02*
X36771Y-27148D01*
X85101Y-5622D02*
X77601Y-5622D01*
X77601Y-5622D02*
X70101Y-5622D01*
X2601Y-5622D02*
X10101Y-5622D01*
X10101Y-5622D02*
X17601Y-5622D01*
X17601Y-5622D02*
X25101Y-5622D01*
X25101Y-5622D02*
X32601Y-5622D01*
X39629Y-6094D02*
X40101Y-5622D01*
X33073Y-6094D02*
X39629Y-6094D01*
X32601Y-5622D02*
X33073Y-6094D01*
X58526Y-25511D02*
X58849Y-25834D01*
X51782Y-25511D02*
X58526Y-25511D01*
X51662Y-25632D02*
X51782Y-25511D01*
X61882Y-6340D02*
X62601Y-5622D01*
X55820Y-6340D02*
X61882Y-6340D01*
X55101Y-5622D02*
X55820Y-6340D01*
X72001Y-13122D02*
X82301Y-13122D01*
X19501Y-13122D02*
X27001Y-13122D01*
X34501Y-13122D02*
X42001Y-13122D01*
X12376Y-13497D02*
X12001Y-13122D01*
X19126Y-13497D02*
X12376Y-13497D01*
X19501Y-13122D02*
X19126Y-13497D01*
X12001Y-13122D02*
X3551Y-13122D01*
X32905Y-13122D02*
X27001Y-13122D01*
X42001Y-13122D02*
X49501Y-13122D01*
X49501Y-13122D02*
X57001Y-13122D01*
X58118Y-25882D02*
X52171Y-25882D01*
X58849Y-26612D02*
X58118Y-25882D01*
X57001Y-13122D02*
X64501Y-13122D01*
X71831Y-12951D02*
X72001Y-13122D01*
X64672Y-12951D02*
X71831Y-12951D01*
X64501Y-13122D02*
X64672Y-12951D01*
X76651Y-20622D02*
X75701Y-20622D01*
X23201Y-20622D02*
X15701Y-20622D01*
X76651Y-20622D02*
X84201Y-20622D01*
X84201Y-20622D02*
X85101Y-20622D01*
X75701Y-20622D02*
X68201Y-20622D01*
X30701Y-20622D02*
X23201Y-20622D01*
X38201Y-20622D02*
X30701Y-20622D01*
X38201Y-20622D02*
X45701Y-20622D01*
X45701Y-20622D02*
X53201Y-20622D01*
X15701Y-20622D02*
X5401Y-20622D01*
X68201Y-20622D02*
X60701Y-20622D01*
X60286Y-21037D02*
X60701Y-20622D01*
X54401Y-21037D02*
X60286Y-21037D01*
X53986Y-20622D02*
X54401Y-21037D01*
X53201Y-20622D02*
X53986Y-20622D01*
X12001Y-28122D02*
X3551Y-28122D01*
X84151Y-28122D02*
X74801Y-28122D01*
X74721Y-28042D02*
X74801Y-28122D01*
X64749Y-28042D02*
X74721Y-28042D01*
X64400Y-28390D02*
X64749Y-28042D01*
X60643Y-28390D02*
X64400Y-28390D01*
X60139Y-27886D02*
X60643Y-28390D01*
X19501Y-28122D02*
X12001Y-28122D01*
X59732Y-28293D02*
X60139Y-27886D01*
X46772Y-28293D02*
X59732Y-28293D01*
X46601Y-28122D02*
X46772Y-28293D01*
X20972Y-29593D02*
X19501Y-28122D01*
X45130Y-29593D02*
X20972Y-29593D01*
X46601Y-28122D02*
X45130Y-29593D01*
X45142Y-24512D02*
X43409Y-24512D01*
X46116Y-23538D02*
X45142Y-24512D01*
X50745Y-23538D02*
X46116Y-23538D01*
X51456Y-24249D02*
X50745Y-23538D01*
X53534Y-24249D02*
X51456Y-24249D01*
X54005Y-23779D02*
X53534Y-24249D01*
X59885Y-23779D02*
X54005Y-23779D01*
X60544Y-24438D02*
X59885Y-23779D01*
G54D24*
X80901Y-22809D02*
X83501Y-22809D01*
X83501Y-22809D02*
X83526Y-22834D01*
X77176Y-14534D02*
X75401Y-14534D01*
X89401Y-14559D02*
X81651Y-14559D01*
X77201Y-14559D02*
X77176Y-14534D01*
X81551Y-14559D02*
X77201Y-14559D01*
X81651Y-14559D02*
X81551Y-14559D01*
X75401Y-14534D02*
X74701Y-15234D01*
X80926Y-25884D02*
X80926Y-27761D01*
X80901Y-25859D02*
X80926Y-25884D01*
X70326Y-22809D02*
X80901Y-22809D01*
X69751Y-22234D02*
X70326Y-22809D01*
X24976Y-23059D02*
X23576Y-23059D01*
X23576Y-23059D02*
X23351Y-22834D01*
X26276Y-24384D02*
X23376Y-24384D01*
X23901Y-23059D02*
X23951Y-23009D01*
X23576Y-23059D02*
X23901Y-23059D01*
X23351Y-22834D02*
X23576Y-23059D01*
X23376Y-24384D02*
X23351Y-24409D01*
X10389Y-14609D02*
X11701Y-14609D01*
X12076Y-14984D02*
X18851Y-14984D01*
X11701Y-14609D02*
X12076Y-14984D01*
X10311Y-23059D02*
X17051Y-23059D01*
X2451Y-15584D02*
X1301Y-15584D01*
X351Y-13484D02*
X2451Y-15584D01*
X351Y-322D02*
X351Y-13484D01*
X351Y-25909D02*
X351Y-29472D01*
X2951Y-23309D02*
X351Y-25909D01*
X2951Y-21284D02*
X2951Y-23309D01*
X1276Y-19609D02*
X2951Y-21284D01*
X1276Y-15609D02*
X1276Y-19609D01*
X1301Y-15584D02*
X1276Y-15609D01*
X10389Y-14609D02*
X10376Y-14609D01*
X10389Y-10084D02*
X10376Y-10084D01*
X644Y-614D02*
X351Y-322D01*
X6485Y-614D02*
X644Y-614D01*
X52160Y-559D02*
X29976Y-559D01*
X54127Y-2526D02*
X52160Y-559D01*
X57776Y-2526D02*
X54127Y-2526D01*
X59876Y-4625D02*
X57776Y-2526D01*
X59876Y-5559D02*
X59876Y-4625D01*
X60017Y-285D02*
X57776Y-2526D01*
X89365Y-285D02*
X60017Y-285D01*
X89401Y-322D02*
X89365Y-285D01*
X88096Y-29472D02*
X85945Y-27320D01*
X89401Y-29472D02*
X88096Y-29472D01*
X89401Y-19213D02*
X89401Y-14559D01*
X89401Y-14559D02*
X89401Y-322D01*
X86353Y-22261D02*
X89401Y-19213D01*
X86353Y-26330D02*
X86353Y-22261D01*
X85945Y-26738D02*
X86353Y-26330D01*
X85945Y-27320D02*
X85945Y-26738D01*
X83952Y-27320D02*
X85945Y-27320D01*
X83512Y-27761D02*
X83952Y-27320D01*
X75745Y-27761D02*
X83512Y-27761D01*
X74702Y-26717D02*
X75745Y-27761D01*
X63461Y-26717D02*
X69751Y-26717D01*
X69751Y-26717D02*
X74702Y-26717D01*
X63371Y-26627D02*
X63461Y-26717D01*
X60747Y-26627D02*
X63371Y-26627D01*
X60572Y-26451D02*
X60747Y-26627D01*
X60572Y-25416D02*
X60548Y-25392D01*
X60572Y-26451D02*
X60572Y-25416D01*
G54D23*
X59499Y-22685D02*
X57315Y-22685D01*
X54696Y-21597D02*
X9465Y-21597D01*
X55799Y-22700D02*
X54696Y-21597D01*
X56536Y-22700D02*
X55799Y-22700D01*
X54975Y-21277D02*
X55908Y-22209D01*
X54302Y-21277D02*
X54975Y-21277D01*
X54257Y-21232D02*
X54302Y-21277D01*
X9063Y-21232D02*
X54257Y-21232D01*
X19101Y-1622D02*
X22001Y-1622D01*
X14936Y-10022D02*
X16301Y-10022D01*
X14036Y-9122D02*
X14936Y-10022D01*
X13501Y-9122D02*
X14036Y-9122D01*
X21001Y-9122D02*
X23851Y-9122D01*
X28501Y-9122D02*
X31301Y-9122D01*
X78201Y-19622D02*
X79151Y-19622D01*
G54D24*
X26336Y-8511D02*
X26946Y-9122D01*
X20611Y-8511D02*
X26336Y-8511D01*
X20001Y-9122D02*
X20611Y-8511D01*
X27501Y-9122D02*
X26946Y-9122D01*
X3711Y-2231D02*
X6128Y-2231D01*
X3101Y-1621D02*
X3711Y-2231D01*
X7343Y-1016D02*
X6128Y-2231D01*
X16940Y-1016D02*
X7343Y-1016D01*
X17546Y-1622D02*
X16940Y-1016D01*
X18101Y-1622D02*
X17546Y-1622D01*
X37339Y-27581D02*
X37339Y-27558D01*
X36111Y-28809D02*
X37339Y-27581D01*
X37288Y-27507D02*
X37288Y-27507D01*
X37339Y-27558D02*
X37288Y-27507D01*
X47308Y-27828D02*
X54797Y-27828D01*
X46962Y-27483D02*
X47308Y-27828D01*
X37413Y-27483D02*
X46962Y-27483D01*
X37339Y-27558D02*
X37413Y-27483D01*
X54797Y-27828D02*
X54797Y-27925D01*
X58220Y-27828D02*
X58580Y-27468D01*
X54797Y-27828D02*
X58220Y-27828D01*
X61608Y-11217D02*
X61608Y-10337D01*
X60334Y-12491D02*
X61608Y-11217D01*
X59030Y-27468D02*
X59632Y-26866D01*
X58580Y-27468D02*
X59030Y-27468D01*
X61113Y-26907D02*
X62234Y-28028D01*
X59673Y-26907D02*
X61113Y-26907D01*
X59632Y-26866D02*
X59673Y-26907D01*
X59632Y-25925D02*
X58779Y-25071D01*
X59632Y-26866D02*
X59632Y-25925D01*
G54D10*
G36*
X27059Y-23443D02*
X25428Y-23443D01*
X25428Y-23116D01*
X25415Y-22938D01*
X25372Y-22833D01*
X25287Y-22818D01*
X25216Y-22889D01*
X25216Y-22747D01*
X25202Y-22663D01*
X25033Y-22607D01*
X24856Y-22619D01*
X24750Y-22663D01*
X24736Y-22747D01*
X24976Y-22988D01*
X25216Y-22747D01*
X25216Y-22889D01*
X25047Y-23059D01*
X25287Y-23299D01*
X25372Y-23284D01*
X25428Y-23116D01*
X25428Y-23443D01*
X25203Y-23443D01*
X25216Y-23370D01*
X24976Y-23129D01*
X24905Y-23200D01*
X24905Y-23059D01*
X24665Y-22818D01*
X24580Y-22833D01*
X24524Y-23001D01*
X24536Y-23179D01*
X24580Y-23284D01*
X24665Y-23299D01*
X24905Y-23059D01*
X24905Y-23200D01*
X24736Y-23370D01*
X24748Y-23443D01*
X21664Y-23443D01*
X20605Y-22384D01*
X20627Y-22375D01*
X20753Y-22250D01*
X20771Y-22206D01*
X27053Y-22206D01*
X27024Y-22235D01*
X26866Y-22615D01*
X26866Y-23027D01*
X27023Y-23407D01*
X27059Y-23443D01*
X27059Y-23443D01*
G37*
G54D25*
X27059Y-23443D02*
X25428Y-23443D01*
X25428Y-23116D01*
X25415Y-22938D01*
X25372Y-22833D01*
X25287Y-22818D01*
X25216Y-22889D01*
X25216Y-22747D01*
X25202Y-22663D01*
X25033Y-22607D01*
X24856Y-22619D01*
X24750Y-22663D01*
X24736Y-22747D01*
X24976Y-22988D01*
X25216Y-22747D01*
X25216Y-22889D01*
X25047Y-23059D01*
X25287Y-23299D01*
X25372Y-23284D01*
X25428Y-23116D01*
X25428Y-23443D01*
X25203Y-23443D01*
X25216Y-23370D01*
X24976Y-23129D01*
X24905Y-23200D01*
X24905Y-23059D01*
X24665Y-22818D01*
X24580Y-22833D01*
X24524Y-23001D01*
X24536Y-23179D01*
X24580Y-23284D01*
X24665Y-23299D01*
X24905Y-23059D01*
X24905Y-23200D01*
X24736Y-23370D01*
X24748Y-23443D01*
X21664Y-23443D01*
X20605Y-22384D01*
X20627Y-22375D01*
X20753Y-22250D01*
X20771Y-22206D01*
X27053Y-22206D01*
X27024Y-22235D01*
X26866Y-22615D01*
X26866Y-23027D01*
X27023Y-23407D01*
X27059Y-23443D01*
G54D10*
G36*
X32610Y-13459D02*
X32127Y-13941D01*
X26051Y-13941D01*
X25925Y-13967D01*
X25818Y-14038D01*
X25818Y-14038D01*
X23909Y-15947D01*
X23277Y-15947D01*
X23185Y-15984D01*
X23114Y-16055D01*
X23076Y-16147D01*
X23076Y-16246D01*
X23076Y-16877D01*
X18458Y-16877D01*
X17970Y-16388D01*
X17862Y-16317D01*
X17764Y-16297D01*
X17643Y-16116D01*
X17531Y-16042D01*
X17531Y-16036D01*
X17506Y-15910D01*
X17434Y-15803D01*
X17327Y-15732D01*
X17201Y-15706D01*
X5740Y-15706D01*
X3806Y-13773D01*
X3947Y-13715D01*
X4144Y-13519D01*
X4172Y-13452D01*
X11380Y-13452D01*
X11407Y-13518D01*
X11604Y-13715D01*
X11861Y-13821D01*
X12140Y-13822D01*
X12226Y-13786D01*
X12250Y-13802D01*
X12250Y-13802D01*
X12376Y-13827D01*
X19126Y-13827D01*
X19252Y-13802D01*
X19252Y-13802D01*
X19276Y-13786D01*
X19276Y-13786D01*
X19361Y-13821D01*
X19640Y-13822D01*
X19897Y-13715D01*
X20094Y-13519D01*
X20122Y-13452D01*
X26380Y-13452D01*
X26407Y-13518D01*
X26604Y-13715D01*
X26861Y-13821D01*
X27140Y-13822D01*
X27397Y-13715D01*
X27594Y-13519D01*
X27622Y-13452D01*
X32603Y-13452D01*
X32610Y-13459D01*
X32610Y-13459D01*
G37*
G54D25*
X32610Y-13459D02*
X32127Y-13941D01*
X26051Y-13941D01*
X25925Y-13967D01*
X25818Y-14038D01*
X25818Y-14038D01*
X23909Y-15947D01*
X23277Y-15947D01*
X23185Y-15984D01*
X23114Y-16055D01*
X23076Y-16147D01*
X23076Y-16246D01*
X23076Y-16877D01*
X18458Y-16877D01*
X17970Y-16388D01*
X17862Y-16317D01*
X17764Y-16297D01*
X17643Y-16116D01*
X17531Y-16042D01*
X17531Y-16036D01*
X17506Y-15910D01*
X17434Y-15803D01*
X17327Y-15732D01*
X17201Y-15706D01*
X5740Y-15706D01*
X3806Y-13773D01*
X3947Y-13715D01*
X4144Y-13519D01*
X4172Y-13452D01*
X11380Y-13452D01*
X11407Y-13518D01*
X11604Y-13715D01*
X11861Y-13821D01*
X12140Y-13822D01*
X12226Y-13786D01*
X12250Y-13802D01*
X12250Y-13802D01*
X12376Y-13827D01*
X19126Y-13827D01*
X19252Y-13802D01*
X19252Y-13802D01*
X19276Y-13786D01*
X19276Y-13786D01*
X19361Y-13821D01*
X19640Y-13822D01*
X19897Y-13715D01*
X20094Y-13519D01*
X20122Y-13452D01*
X26380Y-13452D01*
X26407Y-13518D01*
X26604Y-13715D01*
X26861Y-13821D01*
X27140Y-13822D01*
X27397Y-13715D01*
X27594Y-13519D01*
X27622Y-13452D01*
X32603Y-13452D01*
X32610Y-13459D01*
G54D10*
G36*
X37249Y-25203D02*
X34244Y-28209D01*
X34232Y-28204D01*
X33991Y-28204D01*
X33978Y-28209D01*
X30972Y-25203D01*
X37249Y-25203D01*
X37249Y-25203D01*
G37*
G54D25*
X37249Y-25203D02*
X34244Y-28209D01*
X34232Y-28204D01*
X33991Y-28204D01*
X33978Y-28209D01*
X30972Y-25203D01*
X37249Y-25203D01*
G54D10*
G36*
X42570Y-24543D02*
X22425Y-24543D01*
X21985Y-24103D01*
X42345Y-24103D01*
X42345Y-24240D01*
X42413Y-24405D01*
X42538Y-24530D01*
X42570Y-24543D01*
X42570Y-24543D01*
G37*
G54D25*
X42570Y-24543D02*
X22425Y-24543D01*
X21985Y-24103D01*
X42345Y-24103D01*
X42345Y-24240D01*
X42413Y-24405D01*
X42538Y-24530D01*
X42570Y-24543D01*
G54D10*
G36*
X43422Y-7304D02*
X43095Y-7630D01*
X35089Y-7630D01*
X34963Y-7655D01*
X34856Y-7727D01*
X34215Y-8368D01*
X34143Y-8475D01*
X34118Y-8601D01*
X34118Y-11950D01*
X34086Y-11982D01*
X34086Y-11006D01*
X33997Y-10791D01*
X33833Y-10626D01*
X33618Y-10537D01*
X33385Y-10536D01*
X33170Y-10625D01*
X33005Y-10790D01*
X32916Y-11005D01*
X32916Y-11237D01*
X33005Y-11452D01*
X33169Y-11617D01*
X33384Y-11706D01*
X33617Y-11707D01*
X33832Y-11618D01*
X33997Y-11453D01*
X34086Y-11238D01*
X34086Y-11006D01*
X34086Y-11982D01*
X33242Y-12827D01*
X33158Y-12743D01*
X32994Y-12675D01*
X32816Y-12675D01*
X32652Y-12743D01*
X32603Y-12792D01*
X31098Y-12792D01*
X31203Y-12686D01*
X31413Y-12687D01*
X31621Y-12601D01*
X31780Y-12442D01*
X31866Y-12234D01*
X31866Y-12010D01*
X31780Y-11802D01*
X31622Y-11643D01*
X31414Y-11557D01*
X31189Y-11556D01*
X30981Y-11642D01*
X30822Y-11801D01*
X30736Y-12009D01*
X30736Y-12220D01*
X30540Y-12416D01*
X30137Y-12416D01*
X30201Y-12261D01*
X30201Y-11983D01*
X30095Y-11726D01*
X30076Y-11707D01*
X30117Y-11707D01*
X30332Y-11618D01*
X30497Y-11453D01*
X30586Y-11238D01*
X30586Y-11006D01*
X30497Y-10791D01*
X30333Y-10626D01*
X30118Y-10537D01*
X29885Y-10536D01*
X29670Y-10625D01*
X29505Y-10790D01*
X29416Y-11005D01*
X29416Y-11237D01*
X29492Y-11422D01*
X29362Y-11421D01*
X29105Y-11528D01*
X28908Y-11725D01*
X28801Y-11982D01*
X28801Y-12260D01*
X28865Y-12416D01*
X28682Y-12416D01*
X28359Y-12093D01*
X28587Y-11999D01*
X28878Y-11709D01*
X29036Y-11328D01*
X29036Y-10917D01*
X28879Y-10536D01*
X28588Y-10245D01*
X28208Y-10087D01*
X27796Y-10086D01*
X27416Y-10244D01*
X27124Y-10535D01*
X26966Y-10915D01*
X26966Y-11327D01*
X27123Y-11707D01*
X27207Y-11792D01*
X26586Y-11792D01*
X26586Y-11006D01*
X26497Y-10791D01*
X26333Y-10626D01*
X26118Y-10537D01*
X25885Y-10536D01*
X25670Y-10625D01*
X25505Y-10790D01*
X25416Y-11005D01*
X25416Y-11237D01*
X25505Y-11452D01*
X25669Y-11617D01*
X25884Y-11706D01*
X26117Y-11707D01*
X26332Y-11618D01*
X26497Y-11453D01*
X26586Y-11238D01*
X26586Y-11006D01*
X26586Y-11792D01*
X24320Y-11792D01*
X24171Y-11643D01*
X23964Y-11557D01*
X23739Y-11556D01*
X23531Y-11642D01*
X23372Y-11801D01*
X23286Y-12009D01*
X23286Y-12220D01*
X23093Y-12413D01*
X22638Y-12413D01*
X22701Y-12261D01*
X22701Y-11983D01*
X22595Y-11726D01*
X22576Y-11707D01*
X22617Y-11707D01*
X22832Y-11618D01*
X22997Y-11453D01*
X23086Y-11238D01*
X23086Y-11006D01*
X22997Y-10791D01*
X22833Y-10626D01*
X22618Y-10537D01*
X22385Y-10536D01*
X22170Y-10625D01*
X22005Y-10790D01*
X21916Y-11005D01*
X21916Y-11237D01*
X21992Y-11422D01*
X21862Y-11421D01*
X21605Y-11528D01*
X21536Y-11596D01*
X21536Y-10917D01*
X21379Y-10536D01*
X21088Y-10245D01*
X20708Y-10087D01*
X20296Y-10086D01*
X19916Y-10244D01*
X19624Y-10535D01*
X19466Y-10915D01*
X19466Y-11327D01*
X19623Y-11707D01*
X19914Y-11998D01*
X20294Y-12156D01*
X20706Y-12157D01*
X21087Y-11999D01*
X21378Y-11709D01*
X21536Y-11328D01*
X21536Y-10917D01*
X21536Y-11596D01*
X21408Y-11725D01*
X21301Y-11982D01*
X21301Y-12260D01*
X21364Y-12413D01*
X20231Y-12413D01*
X20092Y-12274D01*
X19985Y-12202D01*
X19859Y-12177D01*
X19086Y-12177D01*
X19086Y-11006D01*
X18997Y-10791D01*
X18833Y-10626D01*
X18618Y-10537D01*
X18385Y-10536D01*
X18170Y-10625D01*
X18005Y-10790D01*
X17916Y-11005D01*
X17916Y-11237D01*
X18005Y-11452D01*
X18169Y-11617D01*
X18384Y-11706D01*
X18617Y-11707D01*
X18832Y-11618D01*
X18997Y-11453D01*
X19086Y-11238D01*
X19086Y-11006D01*
X19086Y-12177D01*
X16816Y-12177D01*
X16689Y-12202D01*
X16582Y-12274D01*
X16582Y-12274D01*
X16582Y-12274D01*
X16399Y-12457D01*
X16189Y-12456D01*
X15981Y-12542D01*
X15822Y-12701D01*
X15736Y-12909D01*
X15736Y-13133D01*
X15750Y-13167D01*
X15586Y-13167D01*
X15586Y-11006D01*
X15497Y-10791D01*
X15333Y-10626D01*
X15118Y-10537D01*
X14885Y-10536D01*
X14670Y-10625D01*
X14505Y-10790D01*
X14416Y-11005D01*
X14416Y-11237D01*
X14492Y-11422D01*
X14362Y-11421D01*
X14105Y-11528D01*
X14036Y-11596D01*
X14036Y-10917D01*
X13879Y-10536D01*
X13588Y-10245D01*
X13208Y-10087D01*
X12796Y-10086D01*
X12415Y-10244D01*
X12124Y-10535D01*
X11966Y-10915D01*
X11966Y-11327D01*
X12123Y-11707D01*
X12414Y-11998D01*
X12794Y-12156D01*
X13206Y-12157D01*
X13586Y-11999D01*
X13878Y-11709D01*
X14036Y-11328D01*
X14036Y-10917D01*
X14036Y-11596D01*
X13908Y-11725D01*
X13801Y-11982D01*
X13801Y-12260D01*
X13907Y-12518D01*
X14104Y-12715D01*
X14361Y-12821D01*
X14640Y-12822D01*
X14897Y-12715D01*
X15094Y-12519D01*
X15201Y-12261D01*
X15201Y-11983D01*
X15095Y-11726D01*
X15076Y-11707D01*
X15117Y-11707D01*
X15332Y-11618D01*
X15497Y-11453D01*
X15586Y-11238D01*
X15586Y-11006D01*
X15586Y-13167D01*
X12701Y-13167D01*
X12701Y-12983D01*
X12595Y-12726D01*
X12398Y-12528D01*
X12141Y-12422D01*
X11862Y-12421D01*
X11605Y-12528D01*
X11586Y-12547D01*
X11586Y-11006D01*
X11497Y-10791D01*
X11333Y-10626D01*
X11118Y-10537D01*
X10885Y-10536D01*
X10670Y-10625D01*
X10505Y-10790D01*
X10416Y-11005D01*
X10416Y-11237D01*
X10505Y-11452D01*
X10669Y-11617D01*
X10884Y-11706D01*
X11117Y-11707D01*
X11332Y-11618D01*
X11497Y-11453D01*
X11586Y-11238D01*
X11586Y-11006D01*
X11586Y-12547D01*
X11408Y-12725D01*
X11380Y-12792D01*
X6262Y-12792D01*
X6447Y-12715D01*
X6644Y-12519D01*
X6751Y-12261D01*
X6751Y-11983D01*
X6645Y-11726D01*
X6626Y-11707D01*
X6667Y-11707D01*
X6882Y-11618D01*
X7047Y-11453D01*
X7136Y-11238D01*
X7136Y-11006D01*
X7047Y-10791D01*
X6883Y-10626D01*
X6668Y-10537D01*
X6435Y-10536D01*
X6220Y-10625D01*
X6055Y-10790D01*
X5966Y-11005D01*
X5966Y-11237D01*
X6042Y-11422D01*
X5912Y-11421D01*
X5655Y-11528D01*
X5458Y-11725D01*
X5351Y-11982D01*
X5351Y-12260D01*
X5457Y-12518D01*
X5654Y-12715D01*
X5839Y-12792D01*
X4172Y-12792D01*
X4145Y-12726D01*
X3948Y-12528D01*
X3691Y-12422D01*
X3527Y-12422D01*
X3538Y-12406D01*
X3538Y-12406D01*
X3563Y-12280D01*
X3563Y-11440D01*
X3673Y-11707D01*
X3964Y-11998D01*
X4344Y-12156D01*
X4756Y-12157D01*
X5136Y-11999D01*
X5428Y-11709D01*
X5586Y-11328D01*
X5586Y-10917D01*
X5429Y-10536D01*
X5138Y-10245D01*
X4758Y-10087D01*
X4695Y-10087D01*
X4745Y-10037D01*
X5051Y-10037D01*
X5177Y-10012D01*
X5284Y-9940D01*
X5356Y-9833D01*
X5381Y-9707D01*
X5381Y-9702D01*
X5493Y-9627D01*
X5628Y-9424D01*
X5676Y-9185D01*
X5676Y-9058D01*
X5634Y-8848D01*
X11876Y-8848D01*
X11876Y-9596D01*
X11914Y-9688D01*
X11984Y-9758D01*
X12076Y-9797D01*
X12175Y-9797D01*
X12925Y-9797D01*
X13017Y-9759D01*
X13088Y-9688D01*
X13101Y-9655D01*
X13262Y-9762D01*
X13501Y-9810D01*
X13740Y-9762D01*
X13943Y-9627D01*
X13996Y-9548D01*
X14703Y-10255D01*
X14810Y-10326D01*
X14810Y-10326D01*
X14936Y-10352D01*
X15832Y-10352D01*
X15981Y-10500D01*
X16188Y-10586D01*
X16413Y-10587D01*
X16621Y-10501D01*
X16780Y-10342D01*
X16866Y-10134D01*
X16866Y-9910D01*
X16780Y-9702D01*
X16683Y-9605D01*
X18355Y-9605D01*
X18481Y-9580D01*
X18481Y-9580D01*
X18588Y-9508D01*
X19376Y-8720D01*
X19376Y-8746D01*
X19376Y-9596D01*
X19414Y-9688D01*
X19484Y-9758D01*
X19576Y-9797D01*
X19676Y-9797D01*
X20426Y-9797D01*
X20518Y-9759D01*
X20588Y-9688D01*
X20602Y-9655D01*
X20762Y-9762D01*
X21001Y-9810D01*
X21240Y-9762D01*
X21443Y-9627D01*
X21560Y-9452D01*
X23382Y-9452D01*
X23530Y-9600D01*
X23738Y-9686D01*
X23963Y-9687D01*
X24170Y-9601D01*
X24329Y-9442D01*
X24416Y-9234D01*
X24416Y-9010D01*
X24354Y-8861D01*
X26191Y-8861D01*
X26698Y-9369D01*
X26812Y-9445D01*
X26812Y-9445D01*
X26876Y-9458D01*
X26876Y-9596D01*
X26914Y-9688D01*
X26984Y-9758D01*
X27076Y-9797D01*
X27176Y-9797D01*
X27926Y-9797D01*
X28018Y-9759D01*
X28088Y-9688D01*
X28102Y-9655D01*
X28262Y-9762D01*
X28501Y-9810D01*
X28740Y-9762D01*
X28943Y-9627D01*
X29060Y-9452D01*
X30832Y-9452D01*
X30981Y-9600D01*
X31188Y-9686D01*
X31413Y-9687D01*
X31621Y-9601D01*
X31780Y-9442D01*
X31866Y-9234D01*
X31866Y-9010D01*
X31780Y-8802D01*
X31622Y-8643D01*
X31414Y-8557D01*
X31189Y-8556D01*
X30981Y-8642D01*
X30832Y-8792D01*
X29060Y-8792D01*
X28943Y-8616D01*
X28740Y-8481D01*
X28501Y-8433D01*
X28262Y-8481D01*
X28102Y-8588D01*
X28088Y-8555D01*
X28018Y-8485D01*
X27926Y-8447D01*
X27827Y-8447D01*
X27077Y-8447D01*
X26985Y-8484D01*
X26914Y-8555D01*
X26902Y-8583D01*
X26583Y-8264D01*
X26470Y-8188D01*
X26336Y-8161D01*
X20611Y-8161D01*
X20477Y-8188D01*
X20364Y-8264D01*
X20181Y-8447D01*
X19650Y-8447D01*
X20793Y-7304D01*
X43422Y-7304D01*
X43422Y-7304D01*
G37*
G54D25*
X43422Y-7304D02*
X43095Y-7630D01*
X35089Y-7630D01*
X34963Y-7655D01*
X34856Y-7727D01*
X34215Y-8368D01*
X34143Y-8475D01*
X34118Y-8601D01*
X34118Y-11950D01*
X34086Y-11982D01*
X34086Y-11006D01*
X33997Y-10791D01*
X33833Y-10626D01*
X33618Y-10537D01*
X33385Y-10536D01*
X33170Y-10625D01*
X33005Y-10790D01*
X32916Y-11005D01*
X32916Y-11237D01*
X33005Y-11452D01*
X33169Y-11617D01*
X33384Y-11706D01*
X33617Y-11707D01*
X33832Y-11618D01*
X33997Y-11453D01*
X34086Y-11238D01*
X34086Y-11006D01*
X34086Y-11982D01*
X33242Y-12827D01*
X33158Y-12743D01*
X32994Y-12675D01*
X32816Y-12675D01*
X32652Y-12743D01*
X32603Y-12792D01*
X31098Y-12792D01*
X31203Y-12686D01*
X31413Y-12687D01*
X31621Y-12601D01*
X31780Y-12442D01*
X31866Y-12234D01*
X31866Y-12010D01*
X31780Y-11802D01*
X31622Y-11643D01*
X31414Y-11557D01*
X31189Y-11556D01*
X30981Y-11642D01*
X30822Y-11801D01*
X30736Y-12009D01*
X30736Y-12220D01*
X30540Y-12416D01*
X30137Y-12416D01*
X30201Y-12261D01*
X30201Y-11983D01*
X30095Y-11726D01*
X30076Y-11707D01*
X30117Y-11707D01*
X30332Y-11618D01*
X30497Y-11453D01*
X30586Y-11238D01*
X30586Y-11006D01*
X30497Y-10791D01*
X30333Y-10626D01*
X30118Y-10537D01*
X29885Y-10536D01*
X29670Y-10625D01*
X29505Y-10790D01*
X29416Y-11005D01*
X29416Y-11237D01*
X29492Y-11422D01*
X29362Y-11421D01*
X29105Y-11528D01*
X28908Y-11725D01*
X28801Y-11982D01*
X28801Y-12260D01*
X28865Y-12416D01*
X28682Y-12416D01*
X28359Y-12093D01*
X28587Y-11999D01*
X28878Y-11709D01*
X29036Y-11328D01*
X29036Y-10917D01*
X28879Y-10536D01*
X28588Y-10245D01*
X28208Y-10087D01*
X27796Y-10086D01*
X27416Y-10244D01*
X27124Y-10535D01*
X26966Y-10915D01*
X26966Y-11327D01*
X27123Y-11707D01*
X27207Y-11792D01*
X26586Y-11792D01*
X26586Y-11006D01*
X26497Y-10791D01*
X26333Y-10626D01*
X26118Y-10537D01*
X25885Y-10536D01*
X25670Y-10625D01*
X25505Y-10790D01*
X25416Y-11005D01*
X25416Y-11237D01*
X25505Y-11452D01*
X25669Y-11617D01*
X25884Y-11706D01*
X26117Y-11707D01*
X26332Y-11618D01*
X26497Y-11453D01*
X26586Y-11238D01*
X26586Y-11006D01*
X26586Y-11792D01*
X24320Y-11792D01*
X24171Y-11643D01*
X23964Y-11557D01*
X23739Y-11556D01*
X23531Y-11642D01*
X23372Y-11801D01*
X23286Y-12009D01*
X23286Y-12220D01*
X23093Y-12413D01*
X22638Y-12413D01*
X22701Y-12261D01*
X22701Y-11983D01*
X22595Y-11726D01*
X22576Y-11707D01*
X22617Y-11707D01*
X22832Y-11618D01*
X22997Y-11453D01*
X23086Y-11238D01*
X23086Y-11006D01*
X22997Y-10791D01*
X22833Y-10626D01*
X22618Y-10537D01*
X22385Y-10536D01*
X22170Y-10625D01*
X22005Y-10790D01*
X21916Y-11005D01*
X21916Y-11237D01*
X21992Y-11422D01*
X21862Y-11421D01*
X21605Y-11528D01*
X21536Y-11596D01*
X21536Y-10917D01*
X21379Y-10536D01*
X21088Y-10245D01*
X20708Y-10087D01*
X20296Y-10086D01*
X19916Y-10244D01*
X19624Y-10535D01*
X19466Y-10915D01*
X19466Y-11327D01*
X19623Y-11707D01*
X19914Y-11998D01*
X20294Y-12156D01*
X20706Y-12157D01*
X21087Y-11999D01*
X21378Y-11709D01*
X21536Y-11328D01*
X21536Y-10917D01*
X21536Y-11596D01*
X21408Y-11725D01*
X21301Y-11982D01*
X21301Y-12260D01*
X21364Y-12413D01*
X20231Y-12413D01*
X20092Y-12274D01*
X19985Y-12202D01*
X19859Y-12177D01*
X19086Y-12177D01*
X19086Y-11006D01*
X18997Y-10791D01*
X18833Y-10626D01*
X18618Y-10537D01*
X18385Y-10536D01*
X18170Y-10625D01*
X18005Y-10790D01*
X17916Y-11005D01*
X17916Y-11237D01*
X18005Y-11452D01*
X18169Y-11617D01*
X18384Y-11706D01*
X18617Y-11707D01*
X18832Y-11618D01*
X18997Y-11453D01*
X19086Y-11238D01*
X19086Y-11006D01*
X19086Y-12177D01*
X16816Y-12177D01*
X16689Y-12202D01*
X16582Y-12274D01*
X16582Y-12274D01*
X16582Y-12274D01*
X16399Y-12457D01*
X16189Y-12456D01*
X15981Y-12542D01*
X15822Y-12701D01*
X15736Y-12909D01*
X15736Y-13133D01*
X15750Y-13167D01*
X15586Y-13167D01*
X15586Y-11006D01*
X15497Y-10791D01*
X15333Y-10626D01*
X15118Y-10537D01*
X14885Y-10536D01*
X14670Y-10625D01*
X14505Y-10790D01*
X14416Y-11005D01*
X14416Y-11237D01*
X14492Y-11422D01*
X14362Y-11421D01*
X14105Y-11528D01*
X14036Y-11596D01*
X14036Y-10917D01*
X13879Y-10536D01*
X13588Y-10245D01*
X13208Y-10087D01*
X12796Y-10086D01*
X12415Y-10244D01*
X12124Y-10535D01*
X11966Y-10915D01*
X11966Y-11327D01*
X12123Y-11707D01*
X12414Y-11998D01*
X12794Y-12156D01*
X13206Y-12157D01*
X13586Y-11999D01*
X13878Y-11709D01*
X14036Y-11328D01*
X14036Y-10917D01*
X14036Y-11596D01*
X13908Y-11725D01*
X13801Y-11982D01*
X13801Y-12260D01*
X13907Y-12518D01*
X14104Y-12715D01*
X14361Y-12821D01*
X14640Y-12822D01*
X14897Y-12715D01*
X15094Y-12519D01*
X15201Y-12261D01*
X15201Y-11983D01*
X15095Y-11726D01*
X15076Y-11707D01*
X15117Y-11707D01*
X15332Y-11618D01*
X15497Y-11453D01*
X15586Y-11238D01*
X15586Y-11006D01*
X15586Y-13167D01*
X12701Y-13167D01*
X12701Y-12983D01*
X12595Y-12726D01*
X12398Y-12528D01*
X12141Y-12422D01*
X11862Y-12421D01*
X11605Y-12528D01*
X11586Y-12547D01*
X11586Y-11006D01*
X11497Y-10791D01*
X11333Y-10626D01*
X11118Y-10537D01*
X10885Y-10536D01*
X10670Y-10625D01*
X10505Y-10790D01*
X10416Y-11005D01*
X10416Y-11237D01*
X10505Y-11452D01*
X10669Y-11617D01*
X10884Y-11706D01*
X11117Y-11707D01*
X11332Y-11618D01*
X11497Y-11453D01*
X11586Y-11238D01*
X11586Y-11006D01*
X11586Y-12547D01*
X11408Y-12725D01*
X11380Y-12792D01*
X6262Y-12792D01*
X6447Y-12715D01*
X6644Y-12519D01*
X6751Y-12261D01*
X6751Y-11983D01*
X6645Y-11726D01*
X6626Y-11707D01*
X6667Y-11707D01*
X6882Y-11618D01*
X7047Y-11453D01*
X7136Y-11238D01*
X7136Y-11006D01*
X7047Y-10791D01*
X6883Y-10626D01*
X6668Y-10537D01*
X6435Y-10536D01*
X6220Y-10625D01*
X6055Y-10790D01*
X5966Y-11005D01*
X5966Y-11237D01*
X6042Y-11422D01*
X5912Y-11421D01*
X5655Y-11528D01*
X5458Y-11725D01*
X5351Y-11982D01*
X5351Y-12260D01*
X5457Y-12518D01*
X5654Y-12715D01*
X5839Y-12792D01*
X4172Y-12792D01*
X4145Y-12726D01*
X3948Y-12528D01*
X3691Y-12422D01*
X3527Y-12422D01*
X3538Y-12406D01*
X3538Y-12406D01*
X3563Y-12280D01*
X3563Y-11440D01*
X3673Y-11707D01*
X3964Y-11998D01*
X4344Y-12156D01*
X4756Y-12157D01*
X5136Y-11999D01*
X5428Y-11709D01*
X5586Y-11328D01*
X5586Y-10917D01*
X5429Y-10536D01*
X5138Y-10245D01*
X4758Y-10087D01*
X4695Y-10087D01*
X4745Y-10037D01*
X5051Y-10037D01*
X5177Y-10012D01*
X5284Y-9940D01*
X5356Y-9833D01*
X5381Y-9707D01*
X5381Y-9702D01*
X5493Y-9627D01*
X5628Y-9424D01*
X5676Y-9185D01*
X5676Y-9058D01*
X5634Y-8848D01*
X11876Y-8848D01*
X11876Y-9596D01*
X11914Y-9688D01*
X11984Y-9758D01*
X12076Y-9797D01*
X12175Y-9797D01*
X12925Y-9797D01*
X13017Y-9759D01*
X13088Y-9688D01*
X13101Y-9655D01*
X13262Y-9762D01*
X13501Y-9810D01*
X13740Y-9762D01*
X13943Y-9627D01*
X13996Y-9548D01*
X14703Y-10255D01*
X14810Y-10326D01*
X14810Y-10326D01*
X14936Y-10352D01*
X15832Y-10352D01*
X15981Y-10500D01*
X16188Y-10586D01*
X16413Y-10587D01*
X16621Y-10501D01*
X16780Y-10342D01*
X16866Y-10134D01*
X16866Y-9910D01*
X16780Y-9702D01*
X16683Y-9605D01*
X18355Y-9605D01*
X18481Y-9580D01*
X18481Y-9580D01*
X18588Y-9508D01*
X19376Y-8720D01*
X19376Y-8746D01*
X19376Y-9596D01*
X19414Y-9688D01*
X19484Y-9758D01*
X19576Y-9797D01*
X19676Y-9797D01*
X20426Y-9797D01*
X20518Y-9759D01*
X20588Y-9688D01*
X20602Y-9655D01*
X20762Y-9762D01*
X21001Y-9810D01*
X21240Y-9762D01*
X21443Y-9627D01*
X21560Y-9452D01*
X23382Y-9452D01*
X23530Y-9600D01*
X23738Y-9686D01*
X23963Y-9687D01*
X24170Y-9601D01*
X24329Y-9442D01*
X24416Y-9234D01*
X24416Y-9010D01*
X24354Y-8861D01*
X26191Y-8861D01*
X26698Y-9369D01*
X26812Y-9445D01*
X26812Y-9445D01*
X26876Y-9458D01*
X26876Y-9596D01*
X26914Y-9688D01*
X26984Y-9758D01*
X27076Y-9797D01*
X27176Y-9797D01*
X27926Y-9797D01*
X28018Y-9759D01*
X28088Y-9688D01*
X28102Y-9655D01*
X28262Y-9762D01*
X28501Y-9810D01*
X28740Y-9762D01*
X28943Y-9627D01*
X29060Y-9452D01*
X30832Y-9452D01*
X30981Y-9600D01*
X31188Y-9686D01*
X31413Y-9687D01*
X31621Y-9601D01*
X31780Y-9442D01*
X31866Y-9234D01*
X31866Y-9010D01*
X31780Y-8802D01*
X31622Y-8643D01*
X31414Y-8557D01*
X31189Y-8556D01*
X30981Y-8642D01*
X30832Y-8792D01*
X29060Y-8792D01*
X28943Y-8616D01*
X28740Y-8481D01*
X28501Y-8433D01*
X28262Y-8481D01*
X28102Y-8588D01*
X28088Y-8555D01*
X28018Y-8485D01*
X27926Y-8447D01*
X27827Y-8447D01*
X27077Y-8447D01*
X26985Y-8484D01*
X26914Y-8555D01*
X26902Y-8583D01*
X26583Y-8264D01*
X26470Y-8188D01*
X26336Y-8161D01*
X20611Y-8161D01*
X20477Y-8188D01*
X20364Y-8264D01*
X20181Y-8447D01*
X19650Y-8447D01*
X20793Y-7304D01*
X43422Y-7304D01*
G54D10*
G36*
X45963Y-27833D02*
X45901Y-27982D01*
X45901Y-28260D01*
X45929Y-28327D01*
X44993Y-29263D01*
X38720Y-29263D01*
X38720Y-28903D01*
X38710Y-28663D01*
X38637Y-28488D01*
X38536Y-28454D01*
X38465Y-28525D01*
X38465Y-28383D01*
X38431Y-28282D01*
X38206Y-28200D01*
X37965Y-28210D01*
X37790Y-28282D01*
X37756Y-28383D01*
X38111Y-28738D01*
X38465Y-28383D01*
X38465Y-28525D01*
X38182Y-28809D01*
X38536Y-29163D01*
X38637Y-29129D01*
X38720Y-28903D01*
X38720Y-29263D01*
X38456Y-29263D01*
X38465Y-29234D01*
X38111Y-28879D01*
X37756Y-29234D01*
X37766Y-29263D01*
X37511Y-29263D01*
X37623Y-29151D01*
X37626Y-29143D01*
X37686Y-29163D01*
X38040Y-28809D01*
X37686Y-28454D01*
X37627Y-28474D01*
X37624Y-28467D01*
X37454Y-28297D01*
X37232Y-28204D01*
X37210Y-28204D01*
X37519Y-27895D01*
X37541Y-27886D01*
X37594Y-27833D01*
X45963Y-27833D01*
X45963Y-27833D01*
G37*
G54D25*
X45963Y-27833D02*
X45901Y-27982D01*
X45901Y-28260D01*
X45929Y-28327D01*
X44993Y-29263D01*
X38720Y-29263D01*
X38720Y-28903D01*
X38710Y-28663D01*
X38637Y-28488D01*
X38536Y-28454D01*
X38465Y-28525D01*
X38465Y-28383D01*
X38431Y-28282D01*
X38206Y-28200D01*
X37965Y-28210D01*
X37790Y-28282D01*
X37756Y-28383D01*
X38111Y-28738D01*
X38465Y-28383D01*
X38465Y-28525D01*
X38182Y-28809D01*
X38536Y-29163D01*
X38637Y-29129D01*
X38720Y-28903D01*
X38720Y-29263D01*
X38456Y-29263D01*
X38465Y-29234D01*
X38111Y-28879D01*
X37756Y-29234D01*
X37766Y-29263D01*
X37511Y-29263D01*
X37623Y-29151D01*
X37626Y-29143D01*
X37686Y-29163D01*
X38040Y-28809D01*
X37686Y-28454D01*
X37627Y-28474D01*
X37624Y-28467D01*
X37454Y-28297D01*
X37232Y-28204D01*
X37210Y-28204D01*
X37519Y-27895D01*
X37541Y-27886D01*
X37594Y-27833D01*
X45963Y-27833D01*
G54D10*
G36*
X67021Y-4059D02*
X66864Y-4216D01*
X66772Y-4438D01*
X66771Y-4678D01*
X66777Y-4691D01*
X66551Y-4917D01*
X65736Y-4917D01*
X65801Y-4761D01*
X65801Y-4483D01*
X65695Y-4226D01*
X65676Y-4207D01*
X65717Y-4207D01*
X65932Y-4118D01*
X66097Y-3953D01*
X66186Y-3738D01*
X66186Y-3506D01*
X66097Y-3291D01*
X65933Y-3126D01*
X65718Y-3037D01*
X65485Y-3036D01*
X65270Y-3125D01*
X65105Y-3290D01*
X65016Y-3505D01*
X65016Y-3737D01*
X65092Y-3922D01*
X64962Y-3921D01*
X64705Y-4028D01*
X64636Y-4096D01*
X64636Y-3417D01*
X64479Y-3036D01*
X64188Y-2745D01*
X63808Y-2587D01*
X63396Y-2586D01*
X63016Y-2744D01*
X62724Y-3035D01*
X62566Y-3415D01*
X62566Y-3827D01*
X62723Y-4207D01*
X63014Y-4498D01*
X63394Y-4656D01*
X63806Y-4657D01*
X64187Y-4499D01*
X64478Y-4209D01*
X64636Y-3828D01*
X64636Y-3417D01*
X64636Y-4096D01*
X64508Y-4225D01*
X64401Y-4482D01*
X64401Y-4760D01*
X64466Y-4917D01*
X63336Y-4917D01*
X63195Y-4776D01*
X63088Y-4705D01*
X62962Y-4679D01*
X62186Y-4679D01*
X62186Y-3506D01*
X62097Y-3291D01*
X61933Y-3126D01*
X61718Y-3037D01*
X61485Y-3036D01*
X61270Y-3125D01*
X61105Y-3290D01*
X61016Y-3505D01*
X61016Y-3737D01*
X61105Y-3952D01*
X61269Y-4117D01*
X61484Y-4206D01*
X61717Y-4207D01*
X61932Y-4118D01*
X62097Y-3953D01*
X62186Y-3738D01*
X62186Y-3506D01*
X62186Y-4679D01*
X62133Y-4679D01*
X62007Y-4705D01*
X61900Y-4776D01*
X60911Y-5765D01*
X60444Y-5765D01*
X60485Y-5653D01*
X60475Y-5413D01*
X60402Y-5238D01*
X60301Y-5204D01*
X60230Y-5275D01*
X60230Y-5133D01*
X60196Y-5032D01*
X59971Y-4950D01*
X59730Y-4960D01*
X59555Y-5032D01*
X59521Y-5133D01*
X59876Y-5488D01*
X60230Y-5133D01*
X60230Y-5275D01*
X59947Y-5559D01*
X59952Y-5564D01*
X59881Y-5635D01*
X59876Y-5629D01*
X59870Y-5635D01*
X59800Y-5564D01*
X59805Y-5559D01*
X59451Y-5204D01*
X59350Y-5238D01*
X59267Y-5464D01*
X59277Y-5704D01*
X59303Y-5765D01*
X58686Y-5765D01*
X58686Y-3506D01*
X58597Y-3291D01*
X58433Y-3126D01*
X58218Y-3037D01*
X57985Y-3036D01*
X57770Y-3125D01*
X57605Y-3290D01*
X57516Y-3505D01*
X57516Y-3737D01*
X57592Y-3922D01*
X57462Y-3921D01*
X57226Y-4019D01*
X57226Y-1685D01*
X57226Y-1558D01*
X57178Y-1319D01*
X57043Y-1116D01*
X56840Y-981D01*
X56601Y-933D01*
X56362Y-981D01*
X56202Y-1088D01*
X56188Y-1055D01*
X56118Y-985D01*
X56026Y-947D01*
X55927Y-947D01*
X55177Y-947D01*
X55085Y-984D01*
X55014Y-1055D01*
X54976Y-1147D01*
X54976Y-1246D01*
X54976Y-2096D01*
X55014Y-2188D01*
X55084Y-2258D01*
X55176Y-2297D01*
X55276Y-2297D01*
X56026Y-2297D01*
X56118Y-2259D01*
X56188Y-2188D01*
X56202Y-2155D01*
X56362Y-2262D01*
X56601Y-2310D01*
X56840Y-2262D01*
X57043Y-2127D01*
X57178Y-1924D01*
X57226Y-1685D01*
X57226Y-4019D01*
X57205Y-4028D01*
X57136Y-4096D01*
X57136Y-3417D01*
X56979Y-3036D01*
X56688Y-2745D01*
X56308Y-2587D01*
X55896Y-2586D01*
X55516Y-2744D01*
X55224Y-3035D01*
X55066Y-3415D01*
X55066Y-3827D01*
X55223Y-4207D01*
X55514Y-4498D01*
X55894Y-4656D01*
X56306Y-4657D01*
X56687Y-4499D01*
X56978Y-4209D01*
X57136Y-3828D01*
X57136Y-3417D01*
X57136Y-4096D01*
X57008Y-4225D01*
X56901Y-4482D01*
X56901Y-4760D01*
X57007Y-5018D01*
X57204Y-5215D01*
X57461Y-5321D01*
X57740Y-5322D01*
X57997Y-5215D01*
X58194Y-5019D01*
X58301Y-4761D01*
X58301Y-4483D01*
X58195Y-4226D01*
X58176Y-4207D01*
X58217Y-4207D01*
X58432Y-4118D01*
X58597Y-3953D01*
X58686Y-3738D01*
X58686Y-3506D01*
X58686Y-5765D01*
X57420Y-5765D01*
X57401Y-5720D01*
X57276Y-5594D01*
X57111Y-5526D01*
X56934Y-5526D01*
X56769Y-5594D01*
X56643Y-5719D01*
X56575Y-5883D01*
X56575Y-6010D01*
X55956Y-6010D01*
X55774Y-5827D01*
X55801Y-5761D01*
X55801Y-5483D01*
X55695Y-5226D01*
X55498Y-5028D01*
X55241Y-4922D01*
X54962Y-4921D01*
X54705Y-5028D01*
X54686Y-5047D01*
X54686Y-3506D01*
X54597Y-3291D01*
X54433Y-3126D01*
X54218Y-3037D01*
X53985Y-3036D01*
X53770Y-3125D01*
X53605Y-3290D01*
X53516Y-3505D01*
X53516Y-3737D01*
X53605Y-3952D01*
X53769Y-4117D01*
X53984Y-4206D01*
X54217Y-4207D01*
X54432Y-4118D01*
X54597Y-3953D01*
X54686Y-3738D01*
X54686Y-3506D01*
X54686Y-5047D01*
X54508Y-5225D01*
X54447Y-5372D01*
X52914Y-3839D01*
X52980Y-3679D01*
X52980Y-3439D01*
X52889Y-3217D01*
X52731Y-3058D01*
X52888Y-2901D01*
X52980Y-2679D01*
X52980Y-2439D01*
X52889Y-2217D01*
X52731Y-2058D01*
X52888Y-1901D01*
X52980Y-1679D01*
X52980Y-1439D01*
X52889Y-1217D01*
X52719Y-1047D01*
X52497Y-954D01*
X52256Y-954D01*
X52243Y-959D01*
X52076Y-792D01*
X51969Y-721D01*
X51843Y-696D01*
X46197Y-696D01*
X46071Y-721D01*
X45964Y-792D01*
X45964Y-792D01*
X45644Y-1112D01*
X45316Y-784D01*
X45209Y-712D01*
X45083Y-687D01*
X41206Y-687D01*
X41079Y-712D01*
X40972Y-784D01*
X40809Y-947D01*
X40177Y-947D01*
X40085Y-984D01*
X40014Y-1055D01*
X39976Y-1147D01*
X39976Y-1246D01*
X39976Y-2096D01*
X40014Y-2188D01*
X40055Y-2229D01*
X38800Y-2229D01*
X38378Y-1807D01*
X38271Y-1735D01*
X38144Y-1710D01*
X36656Y-1710D01*
X36529Y-1735D01*
X36422Y-1807D01*
X36112Y-2117D01*
X34549Y-2117D01*
X34678Y-1924D01*
X34726Y-1685D01*
X34726Y-1558D01*
X34678Y-1319D01*
X34543Y-1116D01*
X34340Y-981D01*
X34101Y-933D01*
X33862Y-981D01*
X33702Y-1088D01*
X33688Y-1055D01*
X33618Y-985D01*
X33526Y-947D01*
X33427Y-947D01*
X32677Y-947D01*
X32585Y-984D01*
X32514Y-1055D01*
X32476Y-1147D01*
X32476Y-1246D01*
X32476Y-1877D01*
X30428Y-1877D01*
X30216Y-1877D01*
X30216Y-870D01*
X29976Y-629D01*
X29905Y-700D01*
X29736Y-870D01*
X29750Y-954D01*
X29919Y-1011D01*
X30096Y-998D01*
X30202Y-954D01*
X30216Y-870D01*
X30216Y-1877D01*
X27188Y-1877D01*
X27226Y-1685D01*
X27226Y-1558D01*
X27178Y-1319D01*
X27043Y-1116D01*
X26840Y-981D01*
X26601Y-933D01*
X26362Y-981D01*
X26202Y-1088D01*
X26188Y-1055D01*
X26118Y-985D01*
X26026Y-947D01*
X25927Y-947D01*
X25177Y-947D01*
X25085Y-984D01*
X25014Y-1055D01*
X24976Y-1147D01*
X24976Y-1246D01*
X24976Y-1877D01*
X22507Y-1877D01*
X22566Y-1734D01*
X22566Y-1510D01*
X22480Y-1302D01*
X22322Y-1143D01*
X22114Y-1057D01*
X21889Y-1056D01*
X21681Y-1142D01*
X21532Y-1292D01*
X19660Y-1292D01*
X19543Y-1116D01*
X19340Y-981D01*
X19101Y-933D01*
X18862Y-981D01*
X18702Y-1088D01*
X18688Y-1055D01*
X18618Y-985D01*
X18526Y-947D01*
X18427Y-947D01*
X17677Y-947D01*
X17585Y-984D01*
X17514Y-1055D01*
X17502Y-1083D01*
X17188Y-768D01*
X17074Y-693D01*
X16940Y-666D01*
X7343Y-666D01*
X7209Y-693D01*
X7095Y-768D01*
X6622Y-1242D01*
X6541Y-1161D01*
X6384Y-1096D01*
X6214Y-1096D01*
X6057Y-1161D01*
X5937Y-1281D01*
X5872Y-1438D01*
X5871Y-1608D01*
X5936Y-1765D01*
X5980Y-1808D01*
X5875Y-1852D01*
X5846Y-1881D01*
X4687Y-1881D01*
X4726Y-1684D01*
X4726Y-1558D01*
X4678Y-1319D01*
X4543Y-1116D01*
X4340Y-980D01*
X4101Y-933D01*
X3862Y-980D01*
X3702Y-1087D01*
X3688Y-1055D01*
X3618Y-984D01*
X3526Y-946D01*
X3426Y-946D01*
X2676Y-946D01*
X2584Y-984D01*
X2514Y-1054D01*
X2476Y-1146D01*
X2476Y-1246D01*
X2476Y-2096D01*
X2514Y-2188D01*
X2584Y-2258D01*
X2676Y-2296D01*
X2775Y-2296D01*
X3281Y-2296D01*
X3463Y-2478D01*
X3463Y-2478D01*
X3577Y-2554D01*
X3711Y-2581D01*
X5846Y-2581D01*
X5875Y-2609D01*
X6039Y-2677D01*
X6217Y-2678D01*
X6381Y-2610D01*
X6507Y-2484D01*
X6575Y-2320D01*
X6575Y-2279D01*
X7488Y-1366D01*
X7634Y-1366D01*
X7604Y-1438D01*
X7604Y-1608D01*
X7669Y-1765D01*
X7789Y-1885D01*
X7946Y-1950D01*
X8116Y-1950D01*
X8273Y-1885D01*
X8393Y-1765D01*
X8458Y-1608D01*
X8458Y-1439D01*
X8428Y-1366D01*
X9976Y-1366D01*
X9976Y-2096D01*
X10014Y-2188D01*
X10084Y-2258D01*
X10176Y-2296D01*
X10275Y-2296D01*
X10809Y-2296D01*
X11100Y-2587D01*
X10896Y-2586D01*
X10515Y-2744D01*
X10224Y-3035D01*
X10066Y-3415D01*
X10066Y-3827D01*
X10223Y-4207D01*
X10514Y-4498D01*
X10894Y-4656D01*
X11306Y-4657D01*
X11686Y-4499D01*
X11978Y-4209D01*
X12136Y-3828D01*
X12136Y-3417D01*
X11979Y-3036D01*
X11721Y-2777D01*
X17982Y-2777D01*
X17724Y-3035D01*
X17566Y-3415D01*
X17566Y-3827D01*
X17723Y-4207D01*
X18014Y-4498D01*
X18394Y-4656D01*
X18806Y-4657D01*
X19187Y-4499D01*
X19478Y-4209D01*
X19636Y-3828D01*
X19636Y-3417D01*
X19479Y-3036D01*
X19221Y-2777D01*
X25482Y-2777D01*
X25224Y-3035D01*
X25066Y-3415D01*
X25066Y-3827D01*
X25223Y-4207D01*
X25514Y-4498D01*
X25894Y-4656D01*
X26306Y-4657D01*
X26687Y-4499D01*
X26978Y-4209D01*
X27136Y-3828D01*
X27136Y-3417D01*
X26979Y-3036D01*
X26721Y-2777D01*
X32982Y-2777D01*
X32724Y-3035D01*
X32566Y-3415D01*
X32566Y-3827D01*
X32723Y-4207D01*
X33014Y-4498D01*
X33394Y-4656D01*
X33806Y-4657D01*
X34187Y-4499D01*
X34478Y-4209D01*
X34636Y-3828D01*
X34636Y-3417D01*
X34479Y-3036D01*
X34221Y-2777D01*
X36248Y-2777D01*
X36375Y-2752D01*
X36375Y-2752D01*
X36482Y-2681D01*
X36792Y-2370D01*
X36800Y-2370D01*
X36772Y-2438D01*
X36771Y-2678D01*
X36863Y-2900D01*
X37021Y-3059D01*
X36864Y-3216D01*
X36772Y-3438D01*
X36771Y-3678D01*
X36863Y-3900D01*
X37021Y-4059D01*
X36864Y-4216D01*
X36772Y-4438D01*
X36771Y-4678D01*
X36863Y-4900D01*
X37021Y-5059D01*
X36864Y-5216D01*
X36772Y-5438D01*
X36771Y-5678D01*
X36807Y-5764D01*
X36186Y-5764D01*
X36186Y-3506D01*
X36097Y-3291D01*
X35933Y-3126D01*
X35718Y-3037D01*
X35485Y-3036D01*
X35270Y-3125D01*
X35105Y-3290D01*
X35016Y-3505D01*
X35016Y-3737D01*
X35092Y-3922D01*
X34962Y-3921D01*
X34705Y-4028D01*
X34508Y-4225D01*
X34401Y-4482D01*
X34401Y-4760D01*
X34507Y-5018D01*
X34704Y-5215D01*
X34961Y-5321D01*
X35240Y-5322D01*
X35497Y-5215D01*
X35694Y-5019D01*
X35801Y-4761D01*
X35801Y-4483D01*
X35695Y-4226D01*
X35676Y-4207D01*
X35717Y-4207D01*
X35932Y-4118D01*
X36097Y-3953D01*
X36186Y-3738D01*
X36186Y-3506D01*
X36186Y-5764D01*
X33300Y-5764D01*
X33301Y-5761D01*
X33301Y-5483D01*
X33195Y-5226D01*
X32998Y-5028D01*
X32741Y-4922D01*
X32462Y-4921D01*
X32205Y-5028D01*
X32186Y-5047D01*
X32186Y-3506D01*
X32097Y-3291D01*
X31933Y-3126D01*
X31718Y-3037D01*
X31485Y-3036D01*
X31270Y-3125D01*
X31105Y-3290D01*
X31016Y-3505D01*
X31016Y-3737D01*
X31105Y-3952D01*
X31269Y-4117D01*
X31484Y-4206D01*
X31717Y-4207D01*
X31932Y-4118D01*
X32097Y-3953D01*
X32186Y-3738D01*
X32186Y-3506D01*
X32186Y-5047D01*
X32008Y-5225D01*
X31980Y-5292D01*
X27813Y-5292D01*
X27997Y-5215D01*
X28194Y-5019D01*
X28301Y-4761D01*
X28301Y-4483D01*
X28195Y-4226D01*
X28176Y-4207D01*
X28217Y-4207D01*
X28432Y-4118D01*
X28597Y-3953D01*
X28686Y-3738D01*
X28686Y-3506D01*
X28597Y-3291D01*
X28433Y-3126D01*
X28218Y-3037D01*
X27985Y-3036D01*
X27770Y-3125D01*
X27605Y-3290D01*
X27516Y-3505D01*
X27516Y-3737D01*
X27592Y-3922D01*
X27462Y-3921D01*
X27205Y-4028D01*
X27008Y-4225D01*
X26901Y-4482D01*
X26901Y-4760D01*
X27007Y-5018D01*
X27204Y-5215D01*
X27389Y-5292D01*
X25722Y-5292D01*
X25695Y-5226D01*
X25498Y-5028D01*
X25241Y-4922D01*
X24962Y-4921D01*
X24705Y-5028D01*
X24686Y-5047D01*
X24686Y-3506D01*
X24597Y-3291D01*
X24433Y-3126D01*
X24218Y-3037D01*
X23985Y-3036D01*
X23770Y-3125D01*
X23605Y-3290D01*
X23516Y-3505D01*
X23516Y-3737D01*
X23605Y-3952D01*
X23769Y-4117D01*
X23984Y-4206D01*
X24217Y-4207D01*
X24432Y-4118D01*
X24597Y-3953D01*
X24686Y-3738D01*
X24686Y-3506D01*
X24686Y-5047D01*
X24508Y-5225D01*
X24480Y-5292D01*
X22566Y-5292D01*
X22566Y-4510D01*
X22480Y-4302D01*
X22322Y-4143D01*
X22114Y-4057D01*
X21889Y-4056D01*
X21681Y-4142D01*
X21522Y-4301D01*
X21436Y-4509D01*
X21436Y-4733D01*
X21522Y-4941D01*
X21681Y-5100D01*
X21888Y-5186D01*
X22113Y-5187D01*
X22321Y-5101D01*
X22480Y-4942D01*
X22566Y-4734D01*
X22566Y-4510D01*
X22566Y-5292D01*
X20313Y-5292D01*
X20497Y-5215D01*
X20694Y-5019D01*
X20801Y-4761D01*
X20801Y-4483D01*
X20695Y-4226D01*
X20676Y-4207D01*
X20717Y-4207D01*
X20932Y-4118D01*
X21097Y-3953D01*
X21186Y-3738D01*
X21186Y-3506D01*
X21097Y-3291D01*
X20933Y-3126D01*
X20718Y-3037D01*
X20485Y-3036D01*
X20270Y-3125D01*
X20105Y-3290D01*
X20016Y-3505D01*
X20016Y-3737D01*
X20092Y-3922D01*
X19962Y-3921D01*
X19705Y-4028D01*
X19508Y-4225D01*
X19401Y-4482D01*
X19401Y-4760D01*
X19507Y-5018D01*
X19704Y-5215D01*
X19889Y-5292D01*
X18222Y-5292D01*
X18195Y-5226D01*
X17998Y-5028D01*
X17741Y-4922D01*
X17462Y-4921D01*
X17205Y-5028D01*
X17186Y-5047D01*
X17186Y-3506D01*
X17097Y-3291D01*
X16933Y-3126D01*
X16718Y-3037D01*
X16485Y-3036D01*
X16270Y-3125D01*
X16105Y-3290D01*
X16016Y-3505D01*
X16016Y-3737D01*
X16105Y-3952D01*
X16269Y-4117D01*
X16484Y-4206D01*
X16717Y-4207D01*
X16932Y-4118D01*
X17097Y-3953D01*
X17186Y-3738D01*
X17186Y-3506D01*
X17186Y-5047D01*
X17008Y-5225D01*
X16980Y-5292D01*
X12812Y-5292D01*
X12997Y-5215D01*
X13194Y-5019D01*
X13301Y-4761D01*
X13301Y-4483D01*
X13195Y-4226D01*
X13176Y-4207D01*
X13217Y-4207D01*
X13432Y-4118D01*
X13597Y-3953D01*
X13686Y-3738D01*
X13686Y-3506D01*
X13597Y-3291D01*
X13433Y-3126D01*
X13218Y-3037D01*
X12985Y-3036D01*
X12770Y-3125D01*
X12605Y-3290D01*
X12516Y-3505D01*
X12516Y-3737D01*
X12592Y-3922D01*
X12462Y-3921D01*
X12205Y-4028D01*
X12008Y-4225D01*
X11901Y-4482D01*
X11901Y-4760D01*
X12007Y-5018D01*
X12204Y-5215D01*
X12389Y-5292D01*
X10722Y-5292D01*
X10695Y-5226D01*
X10498Y-5028D01*
X10241Y-4922D01*
X9962Y-4921D01*
X9705Y-5028D01*
X9686Y-5047D01*
X9686Y-3506D01*
X9597Y-3291D01*
X9433Y-3126D01*
X9218Y-3037D01*
X8985Y-3036D01*
X8770Y-3125D01*
X8605Y-3290D01*
X8516Y-3505D01*
X8516Y-3737D01*
X8605Y-3952D01*
X8769Y-4117D01*
X8984Y-4206D01*
X9217Y-4207D01*
X9432Y-4118D01*
X9597Y-3953D01*
X9686Y-3738D01*
X9686Y-3506D01*
X9686Y-5047D01*
X9508Y-5225D01*
X9480Y-5292D01*
X5312Y-5292D01*
X5497Y-5215D01*
X5694Y-5019D01*
X5801Y-4761D01*
X5801Y-4483D01*
X5695Y-4226D01*
X5676Y-4207D01*
X5717Y-4207D01*
X5932Y-4118D01*
X6097Y-3953D01*
X6186Y-3738D01*
X6186Y-3506D01*
X6097Y-3291D01*
X5933Y-3126D01*
X5718Y-3037D01*
X5485Y-3036D01*
X5270Y-3125D01*
X5105Y-3290D01*
X5016Y-3505D01*
X5016Y-3737D01*
X5092Y-3922D01*
X4962Y-3921D01*
X4705Y-4028D01*
X4636Y-4096D01*
X4636Y-3417D01*
X4479Y-3036D01*
X4188Y-2745D01*
X3808Y-2587D01*
X3396Y-2586D01*
X3015Y-2744D01*
X2724Y-3035D01*
X2566Y-3415D01*
X2566Y-3827D01*
X2723Y-4207D01*
X3014Y-4498D01*
X3394Y-4656D01*
X3806Y-4657D01*
X4186Y-4499D01*
X4478Y-4209D01*
X4636Y-3828D01*
X4636Y-3417D01*
X4636Y-4096D01*
X4508Y-4225D01*
X4401Y-4482D01*
X4401Y-4760D01*
X4507Y-5018D01*
X4704Y-5215D01*
X4889Y-5292D01*
X3222Y-5292D01*
X3195Y-5226D01*
X2998Y-5028D01*
X2741Y-4922D01*
X2462Y-4921D01*
X2205Y-5028D01*
X2186Y-5047D01*
X2186Y-3506D01*
X2097Y-3291D01*
X1933Y-3126D01*
X1718Y-3037D01*
X1485Y-3036D01*
X1270Y-3125D01*
X1105Y-3290D01*
X1016Y-3505D01*
X1016Y-3737D01*
X1105Y-3952D01*
X1269Y-4117D01*
X1484Y-4206D01*
X1717Y-4207D01*
X1932Y-4118D01*
X2097Y-3953D01*
X2186Y-3738D01*
X2186Y-3506D01*
X2186Y-5047D01*
X2008Y-5225D01*
X1901Y-5482D01*
X1901Y-5760D01*
X2007Y-6018D01*
X2204Y-6215D01*
X2461Y-6321D01*
X2740Y-6322D01*
X2997Y-6215D01*
X3194Y-6019D01*
X3222Y-5952D01*
X9480Y-5952D01*
X9507Y-6018D01*
X9704Y-6215D01*
X9961Y-6321D01*
X10240Y-6322D01*
X10497Y-6215D01*
X10694Y-6019D01*
X10722Y-5952D01*
X16980Y-5952D01*
X17007Y-6018D01*
X17083Y-6094D01*
X16479Y-6093D01*
X15880Y-6341D01*
X15422Y-6798D01*
X15173Y-7396D01*
X15173Y-8044D01*
X15420Y-8643D01*
X15722Y-8945D01*
X15217Y-8945D01*
X14556Y-8284D01*
X14449Y-8213D01*
X14323Y-8188D01*
X4655Y-8188D01*
X4529Y-8213D01*
X4422Y-8284D01*
X4259Y-8447D01*
X3626Y-8447D01*
X3534Y-8484D01*
X3464Y-8555D01*
X3426Y-8647D01*
X3426Y-8746D01*
X3426Y-9596D01*
X3464Y-9688D01*
X3534Y-9758D01*
X3626Y-9797D01*
X3725Y-9797D01*
X4052Y-9797D01*
X3050Y-10798D01*
X3047Y-10791D01*
X2883Y-10626D01*
X2668Y-10537D01*
X2435Y-10536D01*
X2220Y-10625D01*
X2055Y-10790D01*
X1966Y-11005D01*
X1966Y-11237D01*
X2055Y-11452D01*
X2219Y-11617D01*
X2434Y-11706D01*
X2667Y-11707D01*
X2882Y-11618D01*
X2903Y-11597D01*
X2903Y-12143D01*
X2696Y-12350D01*
X2625Y-12457D01*
X2599Y-12583D01*
X2599Y-13363D01*
X2625Y-13489D01*
X2696Y-13596D01*
X5276Y-16176D01*
X5276Y-16246D01*
X5276Y-16942D01*
X1941Y-13607D01*
X1941Y-13397D01*
X1941Y-10397D01*
X1855Y-10189D01*
X1696Y-10030D01*
X1489Y-9944D01*
X1264Y-9943D01*
X1056Y-10029D01*
X897Y-10188D01*
X811Y-10396D01*
X811Y-10620D01*
X897Y-10828D01*
X1055Y-10987D01*
X1263Y-11073D01*
X1488Y-11074D01*
X1695Y-10988D01*
X1855Y-10829D01*
X1941Y-10621D01*
X1941Y-10397D01*
X1941Y-13397D01*
X1855Y-13189D01*
X1696Y-13030D01*
X1489Y-12944D01*
X1264Y-12943D01*
X1056Y-13029D01*
X897Y-13188D01*
X811Y-13396D01*
X811Y-13620D01*
X897Y-13828D01*
X1055Y-13987D01*
X1263Y-14073D01*
X1474Y-14074D01*
X5251Y-17850D01*
X5251Y-17850D01*
X5358Y-17922D01*
X5358Y-17922D01*
X5459Y-17942D01*
X5484Y-17947D01*
X5484Y-17947D01*
X5484Y-17947D01*
X5612Y-17947D01*
X5524Y-18035D01*
X5366Y-18415D01*
X5366Y-18827D01*
X5523Y-19207D01*
X5814Y-19498D01*
X6194Y-19656D01*
X6606Y-19657D01*
X6986Y-19499D01*
X7278Y-19209D01*
X7436Y-18828D01*
X7436Y-18417D01*
X7279Y-18036D01*
X7190Y-17947D01*
X15912Y-17947D01*
X15824Y-18035D01*
X15666Y-18415D01*
X15666Y-18827D01*
X15823Y-19207D01*
X16114Y-19498D01*
X16494Y-19656D01*
X16906Y-19657D01*
X17287Y-19499D01*
X17578Y-19209D01*
X17736Y-18828D01*
X17736Y-18417D01*
X17579Y-18036D01*
X17490Y-17947D01*
X23412Y-17947D01*
X23324Y-18035D01*
X23166Y-18415D01*
X23166Y-18827D01*
X23323Y-19207D01*
X23614Y-19498D01*
X23994Y-19656D01*
X24406Y-19657D01*
X24787Y-19499D01*
X25078Y-19209D01*
X25236Y-18828D01*
X25236Y-18417D01*
X25079Y-18036D01*
X24990Y-17947D01*
X30912Y-17947D01*
X30824Y-18035D01*
X30666Y-18415D01*
X30666Y-18827D01*
X30823Y-19207D01*
X31114Y-19498D01*
X31494Y-19656D01*
X31906Y-19657D01*
X32287Y-19499D01*
X32578Y-19209D01*
X32736Y-18828D01*
X32736Y-18417D01*
X32579Y-18036D01*
X32490Y-17947D01*
X38412Y-17947D01*
X38324Y-18035D01*
X38166Y-18415D01*
X38166Y-18827D01*
X38323Y-19207D01*
X38614Y-19498D01*
X38994Y-19656D01*
X39406Y-19657D01*
X39787Y-19499D01*
X40078Y-19209D01*
X40236Y-18828D01*
X40236Y-18417D01*
X40079Y-18036D01*
X39990Y-17947D01*
X41806Y-17947D01*
X43659Y-19800D01*
X43766Y-19872D01*
X43766Y-19872D01*
X43893Y-19897D01*
X45510Y-19897D01*
X45543Y-19930D01*
X45305Y-20028D01*
X45108Y-20225D01*
X45080Y-20292D01*
X40913Y-20292D01*
X41097Y-20215D01*
X41294Y-20019D01*
X41401Y-19761D01*
X41401Y-19483D01*
X41295Y-19226D01*
X41276Y-19207D01*
X41317Y-19207D01*
X41532Y-19118D01*
X41697Y-18953D01*
X41786Y-18738D01*
X41786Y-18506D01*
X41697Y-18291D01*
X41533Y-18126D01*
X41318Y-18037D01*
X41085Y-18036D01*
X40870Y-18125D01*
X40705Y-18290D01*
X40616Y-18505D01*
X40616Y-18737D01*
X40692Y-18922D01*
X40562Y-18921D01*
X40305Y-19028D01*
X40108Y-19225D01*
X40001Y-19482D01*
X40001Y-19760D01*
X40107Y-20018D01*
X40304Y-20215D01*
X40489Y-20292D01*
X38822Y-20292D01*
X38795Y-20226D01*
X38598Y-20028D01*
X38341Y-19922D01*
X38062Y-19921D01*
X37805Y-20028D01*
X37786Y-20047D01*
X37786Y-18506D01*
X37697Y-18291D01*
X37533Y-18126D01*
X37318Y-18037D01*
X37085Y-18036D01*
X36870Y-18125D01*
X36705Y-18290D01*
X36616Y-18505D01*
X36616Y-18737D01*
X36705Y-18952D01*
X36869Y-19117D01*
X37084Y-19206D01*
X37317Y-19207D01*
X37532Y-19118D01*
X37697Y-18953D01*
X37786Y-18738D01*
X37786Y-18506D01*
X37786Y-20047D01*
X37608Y-20225D01*
X37580Y-20292D01*
X33413Y-20292D01*
X33597Y-20215D01*
X33794Y-20019D01*
X33901Y-19761D01*
X33901Y-19483D01*
X33795Y-19226D01*
X33776Y-19207D01*
X33817Y-19207D01*
X34032Y-19118D01*
X34197Y-18953D01*
X34286Y-18738D01*
X34286Y-18506D01*
X34197Y-18291D01*
X34033Y-18126D01*
X33818Y-18037D01*
X33585Y-18036D01*
X33370Y-18125D01*
X33205Y-18290D01*
X33116Y-18505D01*
X33116Y-18737D01*
X33192Y-18922D01*
X33062Y-18921D01*
X32805Y-19028D01*
X32608Y-19225D01*
X32501Y-19482D01*
X32501Y-19760D01*
X32607Y-20018D01*
X32804Y-20215D01*
X32989Y-20292D01*
X31322Y-20292D01*
X31295Y-20226D01*
X31098Y-20028D01*
X30841Y-19922D01*
X30562Y-19921D01*
X30305Y-20028D01*
X30286Y-20047D01*
X30286Y-18506D01*
X30197Y-18291D01*
X30033Y-18126D01*
X29818Y-18037D01*
X29585Y-18036D01*
X29370Y-18125D01*
X29205Y-18290D01*
X29116Y-18505D01*
X29116Y-18737D01*
X29205Y-18952D01*
X29369Y-19117D01*
X29584Y-19206D01*
X29817Y-19207D01*
X30032Y-19118D01*
X30197Y-18953D01*
X30286Y-18738D01*
X30286Y-18506D01*
X30286Y-20047D01*
X30108Y-20225D01*
X30080Y-20292D01*
X25913Y-20292D01*
X26097Y-20215D01*
X26294Y-20019D01*
X26401Y-19761D01*
X26401Y-19483D01*
X26295Y-19226D01*
X26276Y-19207D01*
X26317Y-19207D01*
X26532Y-19118D01*
X26697Y-18953D01*
X26786Y-18738D01*
X26786Y-18506D01*
X26697Y-18291D01*
X26533Y-18126D01*
X26318Y-18037D01*
X26085Y-18036D01*
X25870Y-18125D01*
X25705Y-18290D01*
X25616Y-18505D01*
X25616Y-18737D01*
X25692Y-18922D01*
X25562Y-18921D01*
X25305Y-19028D01*
X25108Y-19225D01*
X25001Y-19482D01*
X25001Y-19760D01*
X25107Y-20018D01*
X25304Y-20215D01*
X25489Y-20292D01*
X23822Y-20292D01*
X23795Y-20226D01*
X23598Y-20028D01*
X23341Y-19922D01*
X23062Y-19921D01*
X22805Y-20028D01*
X22786Y-20047D01*
X22786Y-18506D01*
X22697Y-18291D01*
X22533Y-18126D01*
X22318Y-18037D01*
X22085Y-18036D01*
X21870Y-18125D01*
X21705Y-18290D01*
X21616Y-18505D01*
X21616Y-18737D01*
X21705Y-18952D01*
X21869Y-19117D01*
X22084Y-19206D01*
X22317Y-19207D01*
X22532Y-19118D01*
X22697Y-18953D01*
X22786Y-18738D01*
X22786Y-18506D01*
X22786Y-20047D01*
X22608Y-20225D01*
X22580Y-20292D01*
X18413Y-20292D01*
X18597Y-20215D01*
X18794Y-20019D01*
X18901Y-19761D01*
X18901Y-19483D01*
X18795Y-19226D01*
X18776Y-19207D01*
X18817Y-19207D01*
X19032Y-19118D01*
X19197Y-18953D01*
X19286Y-18738D01*
X19286Y-18506D01*
X19197Y-18291D01*
X19033Y-18126D01*
X18818Y-18037D01*
X18585Y-18036D01*
X18370Y-18125D01*
X18205Y-18290D01*
X18116Y-18505D01*
X18116Y-18737D01*
X18192Y-18922D01*
X18062Y-18921D01*
X17805Y-19028D01*
X17608Y-19225D01*
X17501Y-19482D01*
X17501Y-19760D01*
X17607Y-20018D01*
X17804Y-20215D01*
X17989Y-20292D01*
X16322Y-20292D01*
X16295Y-20226D01*
X16098Y-20028D01*
X15841Y-19922D01*
X15562Y-19921D01*
X15305Y-20028D01*
X15286Y-20047D01*
X15286Y-18506D01*
X15197Y-18291D01*
X15033Y-18126D01*
X14818Y-18037D01*
X14585Y-18036D01*
X14370Y-18125D01*
X14205Y-18290D01*
X14116Y-18505D01*
X14116Y-18737D01*
X14205Y-18952D01*
X14369Y-19117D01*
X14584Y-19206D01*
X14817Y-19207D01*
X15032Y-19118D01*
X15197Y-18953D01*
X15286Y-18738D01*
X15286Y-18506D01*
X15286Y-20047D01*
X15108Y-20225D01*
X15080Y-20292D01*
X8112Y-20292D01*
X8297Y-20215D01*
X8494Y-20019D01*
X8601Y-19761D01*
X8601Y-19483D01*
X8495Y-19226D01*
X8476Y-19207D01*
X8517Y-19207D01*
X8732Y-19118D01*
X8897Y-18953D01*
X8986Y-18738D01*
X8986Y-18506D01*
X8897Y-18291D01*
X8733Y-18126D01*
X8518Y-18037D01*
X8285Y-18036D01*
X8070Y-18125D01*
X7905Y-18290D01*
X7816Y-18505D01*
X7816Y-18737D01*
X7892Y-18922D01*
X7762Y-18921D01*
X7505Y-19028D01*
X7308Y-19225D01*
X7201Y-19482D01*
X7201Y-19760D01*
X7307Y-20018D01*
X7504Y-20215D01*
X7689Y-20292D01*
X6022Y-20292D01*
X5995Y-20226D01*
X5798Y-20028D01*
X5541Y-19922D01*
X5262Y-19921D01*
X5005Y-20028D01*
X4986Y-20047D01*
X4986Y-18506D01*
X4897Y-18291D01*
X4733Y-18126D01*
X4518Y-18037D01*
X4285Y-18036D01*
X4070Y-18125D01*
X3905Y-18290D01*
X3816Y-18505D01*
X3816Y-18737D01*
X3905Y-18952D01*
X4069Y-19117D01*
X4284Y-19206D01*
X4517Y-19207D01*
X4732Y-19118D01*
X4897Y-18953D01*
X4986Y-18738D01*
X4986Y-18506D01*
X4986Y-20047D01*
X4808Y-20225D01*
X4701Y-20482D01*
X4701Y-20760D01*
X4807Y-21018D01*
X5004Y-21215D01*
X5261Y-21321D01*
X5540Y-21322D01*
X5797Y-21215D01*
X5994Y-21019D01*
X6022Y-20952D01*
X8712Y-20952D01*
X8685Y-20978D01*
X8617Y-21143D01*
X8616Y-21320D01*
X8684Y-21485D01*
X8810Y-21610D01*
X8974Y-21679D01*
X9018Y-21679D01*
X9018Y-21686D01*
X9086Y-21850D01*
X9212Y-21976D01*
X9376Y-22044D01*
X9553Y-22044D01*
X9718Y-21976D01*
X9767Y-21927D01*
X19928Y-21927D01*
X19927Y-22085D01*
X19995Y-22249D01*
X20007Y-22261D01*
X8528Y-22261D01*
X8479Y-22212D01*
X8315Y-22144D01*
X8137Y-22144D01*
X7973Y-22212D01*
X7847Y-22337D01*
X7779Y-22501D01*
X7779Y-22679D01*
X7847Y-22843D01*
X7972Y-22969D01*
X8137Y-23037D01*
X8314Y-23038D01*
X8479Y-22970D01*
X8528Y-22921D01*
X20208Y-22921D01*
X20505Y-23218D01*
X20449Y-23206D01*
X13501Y-23206D01*
X6171Y-23206D01*
X6045Y-23232D01*
X5938Y-23303D01*
X5546Y-23695D01*
X5493Y-23616D01*
X5290Y-23481D01*
X5051Y-23433D01*
X4812Y-23481D01*
X4652Y-23588D01*
X4638Y-23555D01*
X4568Y-23485D01*
X4476Y-23447D01*
X4376Y-23447D01*
X3846Y-23447D01*
X3846Y-20436D01*
X3846Y-20436D01*
X3846Y-20436D01*
X3841Y-20411D01*
X3821Y-20310D01*
X3821Y-20310D01*
X3749Y-20203D01*
X3749Y-20203D01*
X3266Y-19720D01*
X3266Y-19510D01*
X3266Y-16510D01*
X3180Y-16302D01*
X3021Y-16143D01*
X2814Y-16057D01*
X2589Y-16056D01*
X2381Y-16142D01*
X2222Y-16301D01*
X2136Y-16509D01*
X2136Y-16733D01*
X2222Y-16941D01*
X2380Y-17100D01*
X2588Y-17186D01*
X2813Y-17187D01*
X3020Y-17101D01*
X3180Y-16942D01*
X3266Y-16734D01*
X3266Y-16510D01*
X3266Y-19510D01*
X3180Y-19302D01*
X3021Y-19143D01*
X2814Y-19057D01*
X2589Y-19056D01*
X2381Y-19142D01*
X2222Y-19301D01*
X2136Y-19509D01*
X2136Y-19733D01*
X2222Y-19941D01*
X2380Y-20100D01*
X2588Y-20186D01*
X2799Y-20187D01*
X3186Y-20573D01*
X3186Y-24640D01*
X3211Y-24766D01*
X3282Y-24873D01*
X3793Y-25384D01*
X3812Y-25397D01*
X3674Y-25535D01*
X3516Y-25915D01*
X3516Y-26327D01*
X3673Y-26707D01*
X3964Y-26998D01*
X4344Y-27156D01*
X4756Y-27157D01*
X5136Y-26999D01*
X5428Y-26709D01*
X5586Y-26328D01*
X5586Y-25917D01*
X5429Y-25536D01*
X5374Y-25481D01*
X12178Y-25481D01*
X12124Y-25535D01*
X11966Y-25915D01*
X11966Y-26327D01*
X12123Y-26707D01*
X12414Y-26998D01*
X12794Y-27156D01*
X13206Y-27157D01*
X13586Y-26999D01*
X13878Y-26709D01*
X14036Y-26328D01*
X14036Y-25917D01*
X13879Y-25536D01*
X13824Y-25481D01*
X19678Y-25481D01*
X19624Y-25535D01*
X19466Y-25915D01*
X19466Y-26327D01*
X19623Y-26707D01*
X19914Y-26998D01*
X20294Y-27156D01*
X20706Y-27157D01*
X21087Y-26999D01*
X21378Y-26709D01*
X21536Y-26328D01*
X21536Y-25917D01*
X21379Y-25536D01*
X21324Y-25481D01*
X30317Y-25481D01*
X33040Y-28204D01*
X32991Y-28204D01*
X32769Y-28296D01*
X32599Y-28466D01*
X32507Y-28688D01*
X32506Y-28928D01*
X32598Y-29150D01*
X32710Y-29263D01*
X28638Y-29263D01*
X28751Y-28991D01*
X28751Y-28653D01*
X28622Y-28341D01*
X28383Y-28101D01*
X28071Y-27972D01*
X27733Y-27971D01*
X27420Y-28101D01*
X27181Y-28339D01*
X27051Y-28652D01*
X27051Y-28990D01*
X27164Y-29263D01*
X23086Y-29263D01*
X23086Y-26006D01*
X22997Y-25791D01*
X22833Y-25626D01*
X22618Y-25537D01*
X22385Y-25536D01*
X22170Y-25625D01*
X22005Y-25790D01*
X21916Y-26005D01*
X21916Y-26237D01*
X21992Y-26422D01*
X21862Y-26421D01*
X21605Y-26528D01*
X21408Y-26725D01*
X21301Y-26982D01*
X21301Y-27260D01*
X21407Y-27518D01*
X21604Y-27715D01*
X21861Y-27821D01*
X22140Y-27822D01*
X22397Y-27715D01*
X22594Y-27519D01*
X22701Y-27261D01*
X22701Y-26983D01*
X22595Y-26726D01*
X22576Y-26707D01*
X22617Y-26707D01*
X22832Y-26618D01*
X22997Y-26453D01*
X23086Y-26238D01*
X23086Y-26006D01*
X23086Y-29263D01*
X21109Y-29263D01*
X20174Y-28327D01*
X20201Y-28261D01*
X20201Y-27983D01*
X20095Y-27726D01*
X19898Y-27528D01*
X19641Y-27422D01*
X19362Y-27421D01*
X19105Y-27528D01*
X19086Y-27547D01*
X19086Y-26006D01*
X18997Y-25791D01*
X18833Y-25626D01*
X18618Y-25537D01*
X18385Y-25536D01*
X18170Y-25625D01*
X18005Y-25790D01*
X17916Y-26005D01*
X17916Y-26237D01*
X18005Y-26452D01*
X18169Y-26617D01*
X18384Y-26706D01*
X18617Y-26707D01*
X18832Y-26618D01*
X18997Y-26453D01*
X19086Y-26238D01*
X19086Y-26006D01*
X19086Y-27547D01*
X18908Y-27725D01*
X18880Y-27792D01*
X14712Y-27792D01*
X14897Y-27715D01*
X15094Y-27519D01*
X15201Y-27261D01*
X15201Y-26983D01*
X15095Y-26726D01*
X15076Y-26707D01*
X15117Y-26707D01*
X15332Y-26618D01*
X15497Y-26453D01*
X15586Y-26238D01*
X15586Y-26006D01*
X15497Y-25791D01*
X15333Y-25626D01*
X15118Y-25537D01*
X14885Y-25536D01*
X14670Y-25625D01*
X14505Y-25790D01*
X14416Y-26005D01*
X14416Y-26237D01*
X14492Y-26422D01*
X14362Y-26421D01*
X14105Y-26528D01*
X13908Y-26725D01*
X13801Y-26982D01*
X13801Y-27260D01*
X13907Y-27518D01*
X14104Y-27715D01*
X14289Y-27792D01*
X12622Y-27792D01*
X12595Y-27726D01*
X12398Y-27528D01*
X12141Y-27422D01*
X11862Y-27421D01*
X11605Y-27528D01*
X11586Y-27547D01*
X11586Y-26006D01*
X11497Y-25791D01*
X11333Y-25626D01*
X11118Y-25537D01*
X10885Y-25536D01*
X10670Y-25625D01*
X10505Y-25790D01*
X10416Y-26005D01*
X10416Y-26237D01*
X10505Y-26452D01*
X10669Y-26617D01*
X10884Y-26706D01*
X11117Y-26707D01*
X11332Y-26618D01*
X11497Y-26453D01*
X11586Y-26238D01*
X11586Y-26006D01*
X11586Y-27547D01*
X11408Y-27725D01*
X11380Y-27792D01*
X6262Y-27792D01*
X6447Y-27715D01*
X6644Y-27519D01*
X6751Y-27261D01*
X6751Y-26983D01*
X6645Y-26726D01*
X6626Y-26707D01*
X6667Y-26707D01*
X6882Y-26618D01*
X7047Y-26453D01*
X7136Y-26238D01*
X7136Y-26006D01*
X7047Y-25791D01*
X6883Y-25626D01*
X6668Y-25537D01*
X6435Y-25536D01*
X6220Y-25625D01*
X6055Y-25790D01*
X5966Y-26005D01*
X5966Y-26237D01*
X6042Y-26422D01*
X5912Y-26421D01*
X5655Y-26528D01*
X5458Y-26725D01*
X5351Y-26982D01*
X5351Y-27260D01*
X5457Y-27518D01*
X5654Y-27715D01*
X5839Y-27792D01*
X4172Y-27792D01*
X4145Y-27726D01*
X3948Y-27528D01*
X3691Y-27422D01*
X3412Y-27421D01*
X3155Y-27528D01*
X3136Y-27547D01*
X3136Y-26006D01*
X3047Y-25791D01*
X2883Y-25626D01*
X2668Y-25537D01*
X2435Y-25536D01*
X2220Y-25625D01*
X2055Y-25790D01*
X1966Y-26005D01*
X1966Y-26237D01*
X2055Y-26452D01*
X2219Y-26617D01*
X2434Y-26706D01*
X2667Y-26707D01*
X2882Y-26618D01*
X3047Y-26453D01*
X3136Y-26238D01*
X3136Y-26006D01*
X3136Y-27547D01*
X2958Y-27725D01*
X2851Y-27982D01*
X2851Y-28260D01*
X2957Y-28518D01*
X3154Y-28715D01*
X3411Y-28821D01*
X3690Y-28822D01*
X3947Y-28715D01*
X4144Y-28519D01*
X4172Y-28452D01*
X11380Y-28452D01*
X11407Y-28518D01*
X11604Y-28715D01*
X11861Y-28821D01*
X12140Y-28822D01*
X12397Y-28715D01*
X12594Y-28519D01*
X12622Y-28452D01*
X18880Y-28452D01*
X18907Y-28518D01*
X19104Y-28715D01*
X19361Y-28821D01*
X19640Y-28822D01*
X19707Y-28794D01*
X20465Y-29552D01*
X795Y-29552D01*
X803Y-29529D01*
X790Y-29351D01*
X747Y-29246D01*
X662Y-29231D01*
X422Y-29472D01*
X427Y-29477D01*
X356Y-29548D01*
X351Y-29542D01*
X345Y-29548D01*
X275Y-29477D01*
X280Y-29472D01*
X275Y-29466D01*
X345Y-29395D01*
X351Y-29401D01*
X591Y-29160D01*
X577Y-29076D01*
X408Y-29020D01*
X270Y-29029D01*
X270Y-23478D01*
X1601Y-23478D01*
X2074Y-23385D01*
X2474Y-23117D01*
X2742Y-22716D01*
X2836Y-22244D01*
X2742Y-21772D01*
X2474Y-21371D01*
X2074Y-21103D01*
X1601Y-21009D01*
X270Y-21009D01*
X270Y-766D01*
X294Y-774D01*
X471Y-761D01*
X577Y-717D01*
X591Y-633D01*
X351Y-392D01*
X345Y-398D01*
X275Y-327D01*
X280Y-322D01*
X275Y-316D01*
X345Y-245D01*
X351Y-251D01*
X356Y-245D01*
X427Y-316D01*
X422Y-322D01*
X662Y-562D01*
X747Y-547D01*
X803Y-379D01*
X793Y-241D01*
X29650Y-241D01*
X29619Y-272D01*
X29665Y-318D01*
X29580Y-333D01*
X29524Y-501D01*
X29536Y-679D01*
X29580Y-784D01*
X29665Y-799D01*
X29905Y-559D01*
X29900Y-553D01*
X29970Y-482D01*
X29976Y-488D01*
X29981Y-482D01*
X30052Y-553D01*
X30047Y-559D01*
X30287Y-799D01*
X30372Y-784D01*
X30428Y-616D01*
X30415Y-438D01*
X30372Y-333D01*
X30287Y-318D01*
X30333Y-272D01*
X30301Y-241D01*
X60029Y-241D01*
X59923Y-312D01*
X59923Y-312D01*
X59923Y-312D01*
X59109Y-1126D01*
X59037Y-1233D01*
X59012Y-1359D01*
X59012Y-3025D01*
X59037Y-3151D01*
X59109Y-3258D01*
X59277Y-3426D01*
X59272Y-3438D01*
X59271Y-3678D01*
X59363Y-3900D01*
X59533Y-4071D01*
X59755Y-4163D01*
X59996Y-4163D01*
X60218Y-4071D01*
X60388Y-3901D01*
X60480Y-3679D01*
X60480Y-3439D01*
X60389Y-3217D01*
X60219Y-3047D01*
X59997Y-2954D01*
X59756Y-2954D01*
X59743Y-2959D01*
X59672Y-2888D01*
X59672Y-2128D01*
X59755Y-2163D01*
X59996Y-2163D01*
X60218Y-2071D01*
X60388Y-1901D01*
X60480Y-1679D01*
X60480Y-1439D01*
X60475Y-1426D01*
X60786Y-1115D01*
X62489Y-1115D01*
X62476Y-1147D01*
X62476Y-1246D01*
X62476Y-2096D01*
X62514Y-2188D01*
X62584Y-2258D01*
X62676Y-2297D01*
X62776Y-2297D01*
X63526Y-2297D01*
X63618Y-2259D01*
X63688Y-2188D01*
X63702Y-2155D01*
X63862Y-2262D01*
X64101Y-2310D01*
X64340Y-2262D01*
X64543Y-2127D01*
X64664Y-1946D01*
X64762Y-1926D01*
X64762Y-1926D01*
X64870Y-1855D01*
X65358Y-1366D01*
X66801Y-1366D01*
X66772Y-1438D01*
X66771Y-1678D01*
X66863Y-1900D01*
X67021Y-2059D01*
X66864Y-2216D01*
X66772Y-2438D01*
X66771Y-2678D01*
X66863Y-2900D01*
X67021Y-3059D01*
X66864Y-3216D01*
X66772Y-3438D01*
X66771Y-3678D01*
X66863Y-3900D01*
X67021Y-4059D01*
X67021Y-4059D01*
G37*
G54D25*
X67021Y-4059D02*
X66864Y-4216D01*
X66772Y-4438D01*
X66771Y-4678D01*
X66777Y-4691D01*
X66551Y-4917D01*
X65736Y-4917D01*
X65801Y-4761D01*
X65801Y-4483D01*
X65695Y-4226D01*
X65676Y-4207D01*
X65717Y-4207D01*
X65932Y-4118D01*
X66097Y-3953D01*
X66186Y-3738D01*
X66186Y-3506D01*
X66097Y-3291D01*
X65933Y-3126D01*
X65718Y-3037D01*
X65485Y-3036D01*
X65270Y-3125D01*
X65105Y-3290D01*
X65016Y-3505D01*
X65016Y-3737D01*
X65092Y-3922D01*
X64962Y-3921D01*
X64705Y-4028D01*
X64636Y-4096D01*
X64636Y-3417D01*
X64479Y-3036D01*
X64188Y-2745D01*
X63808Y-2587D01*
X63396Y-2586D01*
X63016Y-2744D01*
X62724Y-3035D01*
X62566Y-3415D01*
X62566Y-3827D01*
X62723Y-4207D01*
X63014Y-4498D01*
X63394Y-4656D01*
X63806Y-4657D01*
X64187Y-4499D01*
X64478Y-4209D01*
X64636Y-3828D01*
X64636Y-3417D01*
X64636Y-4096D01*
X64508Y-4225D01*
X64401Y-4482D01*
X64401Y-4760D01*
X64466Y-4917D01*
X63336Y-4917D01*
X63195Y-4776D01*
X63088Y-4705D01*
X62962Y-4679D01*
X62186Y-4679D01*
X62186Y-3506D01*
X62097Y-3291D01*
X61933Y-3126D01*
X61718Y-3037D01*
X61485Y-3036D01*
X61270Y-3125D01*
X61105Y-3290D01*
X61016Y-3505D01*
X61016Y-3737D01*
X61105Y-3952D01*
X61269Y-4117D01*
X61484Y-4206D01*
X61717Y-4207D01*
X61932Y-4118D01*
X62097Y-3953D01*
X62186Y-3738D01*
X62186Y-3506D01*
X62186Y-4679D01*
X62133Y-4679D01*
X62007Y-4705D01*
X61900Y-4776D01*
X60911Y-5765D01*
X60444Y-5765D01*
X60485Y-5653D01*
X60475Y-5413D01*
X60402Y-5238D01*
X60301Y-5204D01*
X60230Y-5275D01*
X60230Y-5133D01*
X60196Y-5032D01*
X59971Y-4950D01*
X59730Y-4960D01*
X59555Y-5032D01*
X59521Y-5133D01*
X59876Y-5488D01*
X60230Y-5133D01*
X60230Y-5275D01*
X59947Y-5559D01*
X59952Y-5564D01*
X59881Y-5635D01*
X59876Y-5629D01*
X59870Y-5635D01*
X59800Y-5564D01*
X59805Y-5559D01*
X59451Y-5204D01*
X59350Y-5238D01*
X59267Y-5464D01*
X59277Y-5704D01*
X59303Y-5765D01*
X58686Y-5765D01*
X58686Y-3506D01*
X58597Y-3291D01*
X58433Y-3126D01*
X58218Y-3037D01*
X57985Y-3036D01*
X57770Y-3125D01*
X57605Y-3290D01*
X57516Y-3505D01*
X57516Y-3737D01*
X57592Y-3922D01*
X57462Y-3921D01*
X57226Y-4019D01*
X57226Y-1685D01*
X57226Y-1558D01*
X57178Y-1319D01*
X57043Y-1116D01*
X56840Y-981D01*
X56601Y-933D01*
X56362Y-981D01*
X56202Y-1088D01*
X56188Y-1055D01*
X56118Y-985D01*
X56026Y-947D01*
X55927Y-947D01*
X55177Y-947D01*
X55085Y-984D01*
X55014Y-1055D01*
X54976Y-1147D01*
X54976Y-1246D01*
X54976Y-2096D01*
X55014Y-2188D01*
X55084Y-2258D01*
X55176Y-2297D01*
X55276Y-2297D01*
X56026Y-2297D01*
X56118Y-2259D01*
X56188Y-2188D01*
X56202Y-2155D01*
X56362Y-2262D01*
X56601Y-2310D01*
X56840Y-2262D01*
X57043Y-2127D01*
X57178Y-1924D01*
X57226Y-1685D01*
X57226Y-4019D01*
X57205Y-4028D01*
X57136Y-4096D01*
X57136Y-3417D01*
X56979Y-3036D01*
X56688Y-2745D01*
X56308Y-2587D01*
X55896Y-2586D01*
X55516Y-2744D01*
X55224Y-3035D01*
X55066Y-3415D01*
X55066Y-3827D01*
X55223Y-4207D01*
X55514Y-4498D01*
X55894Y-4656D01*
X56306Y-4657D01*
X56687Y-4499D01*
X56978Y-4209D01*
X57136Y-3828D01*
X57136Y-3417D01*
X57136Y-4096D01*
X57008Y-4225D01*
X56901Y-4482D01*
X56901Y-4760D01*
X57007Y-5018D01*
X57204Y-5215D01*
X57461Y-5321D01*
X57740Y-5322D01*
X57997Y-5215D01*
X58194Y-5019D01*
X58301Y-4761D01*
X58301Y-4483D01*
X58195Y-4226D01*
X58176Y-4207D01*
X58217Y-4207D01*
X58432Y-4118D01*
X58597Y-3953D01*
X58686Y-3738D01*
X58686Y-3506D01*
X58686Y-5765D01*
X57420Y-5765D01*
X57401Y-5720D01*
X57276Y-5594D01*
X57111Y-5526D01*
X56934Y-5526D01*
X56769Y-5594D01*
X56643Y-5719D01*
X56575Y-5883D01*
X56575Y-6010D01*
X55956Y-6010D01*
X55774Y-5827D01*
X55801Y-5761D01*
X55801Y-5483D01*
X55695Y-5226D01*
X55498Y-5028D01*
X55241Y-4922D01*
X54962Y-4921D01*
X54705Y-5028D01*
X54686Y-5047D01*
X54686Y-3506D01*
X54597Y-3291D01*
X54433Y-3126D01*
X54218Y-3037D01*
X53985Y-3036D01*
X53770Y-3125D01*
X53605Y-3290D01*
X53516Y-3505D01*
X53516Y-3737D01*
X53605Y-3952D01*
X53769Y-4117D01*
X53984Y-4206D01*
X54217Y-4207D01*
X54432Y-4118D01*
X54597Y-3953D01*
X54686Y-3738D01*
X54686Y-3506D01*
X54686Y-5047D01*
X54508Y-5225D01*
X54447Y-5372D01*
X52914Y-3839D01*
X52980Y-3679D01*
X52980Y-3439D01*
X52889Y-3217D01*
X52731Y-3058D01*
X52888Y-2901D01*
X52980Y-2679D01*
X52980Y-2439D01*
X52889Y-2217D01*
X52731Y-2058D01*
X52888Y-1901D01*
X52980Y-1679D01*
X52980Y-1439D01*
X52889Y-1217D01*
X52719Y-1047D01*
X52497Y-954D01*
X52256Y-954D01*
X52243Y-959D01*
X52076Y-792D01*
X51969Y-721D01*
X51843Y-696D01*
X46197Y-696D01*
X46071Y-721D01*
X45964Y-792D01*
X45964Y-792D01*
X45644Y-1112D01*
X45316Y-784D01*
X45209Y-712D01*
X45083Y-687D01*
X41206Y-687D01*
X41079Y-712D01*
X40972Y-784D01*
X40809Y-947D01*
X40177Y-947D01*
X40085Y-984D01*
X40014Y-1055D01*
X39976Y-1147D01*
X39976Y-1246D01*
X39976Y-2096D01*
X40014Y-2188D01*
X40055Y-2229D01*
X38800Y-2229D01*
X38378Y-1807D01*
X38271Y-1735D01*
X38144Y-1710D01*
X36656Y-1710D01*
X36529Y-1735D01*
X36422Y-1807D01*
X36112Y-2117D01*
X34549Y-2117D01*
X34678Y-1924D01*
X34726Y-1685D01*
X34726Y-1558D01*
X34678Y-1319D01*
X34543Y-1116D01*
X34340Y-981D01*
X34101Y-933D01*
X33862Y-981D01*
X33702Y-1088D01*
X33688Y-1055D01*
X33618Y-985D01*
X33526Y-947D01*
X33427Y-947D01*
X32677Y-947D01*
X32585Y-984D01*
X32514Y-1055D01*
X32476Y-1147D01*
X32476Y-1246D01*
X32476Y-1877D01*
X30428Y-1877D01*
X30216Y-1877D01*
X30216Y-870D01*
X29976Y-629D01*
X29905Y-700D01*
X29736Y-870D01*
X29750Y-954D01*
X29919Y-1011D01*
X30096Y-998D01*
X30202Y-954D01*
X30216Y-870D01*
X30216Y-1877D01*
X27188Y-1877D01*
X27226Y-1685D01*
X27226Y-1558D01*
X27178Y-1319D01*
X27043Y-1116D01*
X26840Y-981D01*
X26601Y-933D01*
X26362Y-981D01*
X26202Y-1088D01*
X26188Y-1055D01*
X26118Y-985D01*
X26026Y-947D01*
X25927Y-947D01*
X25177Y-947D01*
X25085Y-984D01*
X25014Y-1055D01*
X24976Y-1147D01*
X24976Y-1246D01*
X24976Y-1877D01*
X22507Y-1877D01*
X22566Y-1734D01*
X22566Y-1510D01*
X22480Y-1302D01*
X22322Y-1143D01*
X22114Y-1057D01*
X21889Y-1056D01*
X21681Y-1142D01*
X21532Y-1292D01*
X19660Y-1292D01*
X19543Y-1116D01*
X19340Y-981D01*
X19101Y-933D01*
X18862Y-981D01*
X18702Y-1088D01*
X18688Y-1055D01*
X18618Y-985D01*
X18526Y-947D01*
X18427Y-947D01*
X17677Y-947D01*
X17585Y-984D01*
X17514Y-1055D01*
X17502Y-1083D01*
X17188Y-768D01*
X17074Y-693D01*
X16940Y-666D01*
X7343Y-666D01*
X7209Y-693D01*
X7095Y-768D01*
X6622Y-1242D01*
X6541Y-1161D01*
X6384Y-1096D01*
X6214Y-1096D01*
X6057Y-1161D01*
X5937Y-1281D01*
X5872Y-1438D01*
X5871Y-1608D01*
X5936Y-1765D01*
X5980Y-1808D01*
X5875Y-1852D01*
X5846Y-1881D01*
X4687Y-1881D01*
X4726Y-1684D01*
X4726Y-1558D01*
X4678Y-1319D01*
X4543Y-1116D01*
X4340Y-980D01*
X4101Y-933D01*
X3862Y-980D01*
X3702Y-1087D01*
X3688Y-1055D01*
X3618Y-984D01*
X3526Y-946D01*
X3426Y-946D01*
X2676Y-946D01*
X2584Y-984D01*
X2514Y-1054D01*
X2476Y-1146D01*
X2476Y-1246D01*
X2476Y-2096D01*
X2514Y-2188D01*
X2584Y-2258D01*
X2676Y-2296D01*
X2775Y-2296D01*
X3281Y-2296D01*
X3463Y-2478D01*
X3463Y-2478D01*
X3577Y-2554D01*
X3711Y-2581D01*
X5846Y-2581D01*
X5875Y-2609D01*
X6039Y-2677D01*
X6217Y-2678D01*
X6381Y-2610D01*
X6507Y-2484D01*
X6575Y-2320D01*
X6575Y-2279D01*
X7488Y-1366D01*
X7634Y-1366D01*
X7604Y-1438D01*
X7604Y-1608D01*
X7669Y-1765D01*
X7789Y-1885D01*
X7946Y-1950D01*
X8116Y-1950D01*
X8273Y-1885D01*
X8393Y-1765D01*
X8458Y-1608D01*
X8458Y-1439D01*
X8428Y-1366D01*
X9976Y-1366D01*
X9976Y-2096D01*
X10014Y-2188D01*
X10084Y-2258D01*
X10176Y-2296D01*
X10275Y-2296D01*
X10809Y-2296D01*
X11100Y-2587D01*
X10896Y-2586D01*
X10515Y-2744D01*
X10224Y-3035D01*
X10066Y-3415D01*
X10066Y-3827D01*
X10223Y-4207D01*
X10514Y-4498D01*
X10894Y-4656D01*
X11306Y-4657D01*
X11686Y-4499D01*
X11978Y-4209D01*
X12136Y-3828D01*
X12136Y-3417D01*
X11979Y-3036D01*
X11721Y-2777D01*
X17982Y-2777D01*
X17724Y-3035D01*
X17566Y-3415D01*
X17566Y-3827D01*
X17723Y-4207D01*
X18014Y-4498D01*
X18394Y-4656D01*
X18806Y-4657D01*
X19187Y-4499D01*
X19478Y-4209D01*
X19636Y-3828D01*
X19636Y-3417D01*
X19479Y-3036D01*
X19221Y-2777D01*
X25482Y-2777D01*
X25224Y-3035D01*
X25066Y-3415D01*
X25066Y-3827D01*
X25223Y-4207D01*
X25514Y-4498D01*
X25894Y-4656D01*
X26306Y-4657D01*
X26687Y-4499D01*
X26978Y-4209D01*
X27136Y-3828D01*
X27136Y-3417D01*
X26979Y-3036D01*
X26721Y-2777D01*
X32982Y-2777D01*
X32724Y-3035D01*
X32566Y-3415D01*
X32566Y-3827D01*
X32723Y-4207D01*
X33014Y-4498D01*
X33394Y-4656D01*
X33806Y-4657D01*
X34187Y-4499D01*
X34478Y-4209D01*
X34636Y-3828D01*
X34636Y-3417D01*
X34479Y-3036D01*
X34221Y-2777D01*
X36248Y-2777D01*
X36375Y-2752D01*
X36375Y-2752D01*
X36482Y-2681D01*
X36792Y-2370D01*
X36800Y-2370D01*
X36772Y-2438D01*
X36771Y-2678D01*
X36863Y-2900D01*
X37021Y-3059D01*
X36864Y-3216D01*
X36772Y-3438D01*
X36771Y-3678D01*
X36863Y-3900D01*
X37021Y-4059D01*
X36864Y-4216D01*
X36772Y-4438D01*
X36771Y-4678D01*
X36863Y-4900D01*
X37021Y-5059D01*
X36864Y-5216D01*
X36772Y-5438D01*
X36771Y-5678D01*
X36807Y-5764D01*
X36186Y-5764D01*
X36186Y-3506D01*
X36097Y-3291D01*
X35933Y-3126D01*
X35718Y-3037D01*
X35485Y-3036D01*
X35270Y-3125D01*
X35105Y-3290D01*
X35016Y-3505D01*
X35016Y-3737D01*
X35092Y-3922D01*
X34962Y-3921D01*
X34705Y-4028D01*
X34508Y-4225D01*
X34401Y-4482D01*
X34401Y-4760D01*
X34507Y-5018D01*
X34704Y-5215D01*
X34961Y-5321D01*
X35240Y-5322D01*
X35497Y-5215D01*
X35694Y-5019D01*
X35801Y-4761D01*
X35801Y-4483D01*
X35695Y-4226D01*
X35676Y-4207D01*
X35717Y-4207D01*
X35932Y-4118D01*
X36097Y-3953D01*
X36186Y-3738D01*
X36186Y-3506D01*
X36186Y-5764D01*
X33300Y-5764D01*
X33301Y-5761D01*
X33301Y-5483D01*
X33195Y-5226D01*
X32998Y-5028D01*
X32741Y-4922D01*
X32462Y-4921D01*
X32205Y-5028D01*
X32186Y-5047D01*
X32186Y-3506D01*
X32097Y-3291D01*
X31933Y-3126D01*
X31718Y-3037D01*
X31485Y-3036D01*
X31270Y-3125D01*
X31105Y-3290D01*
X31016Y-3505D01*
X31016Y-3737D01*
X31105Y-3952D01*
X31269Y-4117D01*
X31484Y-4206D01*
X31717Y-4207D01*
X31932Y-4118D01*
X32097Y-3953D01*
X32186Y-3738D01*
X32186Y-3506D01*
X32186Y-5047D01*
X32008Y-5225D01*
X31980Y-5292D01*
X27813Y-5292D01*
X27997Y-5215D01*
X28194Y-5019D01*
X28301Y-4761D01*
X28301Y-4483D01*
X28195Y-4226D01*
X28176Y-4207D01*
X28217Y-4207D01*
X28432Y-4118D01*
X28597Y-3953D01*
X28686Y-3738D01*
X28686Y-3506D01*
X28597Y-3291D01*
X28433Y-3126D01*
X28218Y-3037D01*
X27985Y-3036D01*
X27770Y-3125D01*
X27605Y-3290D01*
X27516Y-3505D01*
X27516Y-3737D01*
X27592Y-3922D01*
X27462Y-3921D01*
X27205Y-4028D01*
X27008Y-4225D01*
X26901Y-4482D01*
X26901Y-4760D01*
X27007Y-5018D01*
X27204Y-5215D01*
X27389Y-5292D01*
X25722Y-5292D01*
X25695Y-5226D01*
X25498Y-5028D01*
X25241Y-4922D01*
X24962Y-4921D01*
X24705Y-5028D01*
X24686Y-5047D01*
X24686Y-3506D01*
X24597Y-3291D01*
X24433Y-3126D01*
X24218Y-3037D01*
X23985Y-3036D01*
X23770Y-3125D01*
X23605Y-3290D01*
X23516Y-3505D01*
X23516Y-3737D01*
X23605Y-3952D01*
X23769Y-4117D01*
X23984Y-4206D01*
X24217Y-4207D01*
X24432Y-4118D01*
X24597Y-3953D01*
X24686Y-3738D01*
X24686Y-3506D01*
X24686Y-5047D01*
X24508Y-5225D01*
X24480Y-5292D01*
X22566Y-5292D01*
X22566Y-4510D01*
X22480Y-4302D01*
X22322Y-4143D01*
X22114Y-4057D01*
X21889Y-4056D01*
X21681Y-4142D01*
X21522Y-4301D01*
X21436Y-4509D01*
X21436Y-4733D01*
X21522Y-4941D01*
X21681Y-5100D01*
X21888Y-5186D01*
X22113Y-5187D01*
X22321Y-5101D01*
X22480Y-4942D01*
X22566Y-4734D01*
X22566Y-4510D01*
X22566Y-5292D01*
X20313Y-5292D01*
X20497Y-5215D01*
X20694Y-5019D01*
X20801Y-4761D01*
X20801Y-4483D01*
X20695Y-4226D01*
X20676Y-4207D01*
X20717Y-4207D01*
X20932Y-4118D01*
X21097Y-3953D01*
X21186Y-3738D01*
X21186Y-3506D01*
X21097Y-3291D01*
X20933Y-3126D01*
X20718Y-3037D01*
X20485Y-3036D01*
X20270Y-3125D01*
X20105Y-3290D01*
X20016Y-3505D01*
X20016Y-3737D01*
X20092Y-3922D01*
X19962Y-3921D01*
X19705Y-4028D01*
X19508Y-4225D01*
X19401Y-4482D01*
X19401Y-4760D01*
X19507Y-5018D01*
X19704Y-5215D01*
X19889Y-5292D01*
X18222Y-5292D01*
X18195Y-5226D01*
X17998Y-5028D01*
X17741Y-4922D01*
X17462Y-4921D01*
X17205Y-5028D01*
X17186Y-5047D01*
X17186Y-3506D01*
X17097Y-3291D01*
X16933Y-3126D01*
X16718Y-3037D01*
X16485Y-3036D01*
X16270Y-3125D01*
X16105Y-3290D01*
X16016Y-3505D01*
X16016Y-3737D01*
X16105Y-3952D01*
X16269Y-4117D01*
X16484Y-4206D01*
X16717Y-4207D01*
X16932Y-4118D01*
X17097Y-3953D01*
X17186Y-3738D01*
X17186Y-3506D01*
X17186Y-5047D01*
X17008Y-5225D01*
X16980Y-5292D01*
X12812Y-5292D01*
X12997Y-5215D01*
X13194Y-5019D01*
X13301Y-4761D01*
X13301Y-4483D01*
X13195Y-4226D01*
X13176Y-4207D01*
X13217Y-4207D01*
X13432Y-4118D01*
X13597Y-3953D01*
X13686Y-3738D01*
X13686Y-3506D01*
X13597Y-3291D01*
X13433Y-3126D01*
X13218Y-3037D01*
X12985Y-3036D01*
X12770Y-3125D01*
X12605Y-3290D01*
X12516Y-3505D01*
X12516Y-3737D01*
X12592Y-3922D01*
X12462Y-3921D01*
X12205Y-4028D01*
X12008Y-4225D01*
X11901Y-4482D01*
X11901Y-4760D01*
X12007Y-5018D01*
X12204Y-5215D01*
X12389Y-5292D01*
X10722Y-5292D01*
X10695Y-5226D01*
X10498Y-5028D01*
X10241Y-4922D01*
X9962Y-4921D01*
X9705Y-5028D01*
X9686Y-5047D01*
X9686Y-3506D01*
X9597Y-3291D01*
X9433Y-3126D01*
X9218Y-3037D01*
X8985Y-3036D01*
X8770Y-3125D01*
X8605Y-3290D01*
X8516Y-3505D01*
X8516Y-3737D01*
X8605Y-3952D01*
X8769Y-4117D01*
X8984Y-4206D01*
X9217Y-4207D01*
X9432Y-4118D01*
X9597Y-3953D01*
X9686Y-3738D01*
X9686Y-3506D01*
X9686Y-5047D01*
X9508Y-5225D01*
X9480Y-5292D01*
X5312Y-5292D01*
X5497Y-5215D01*
X5694Y-5019D01*
X5801Y-4761D01*
X5801Y-4483D01*
X5695Y-4226D01*
X5676Y-4207D01*
X5717Y-4207D01*
X5932Y-4118D01*
X6097Y-3953D01*
X6186Y-3738D01*
X6186Y-3506D01*
X6097Y-3291D01*
X5933Y-3126D01*
X5718Y-3037D01*
X5485Y-3036D01*
X5270Y-3125D01*
X5105Y-3290D01*
X5016Y-3505D01*
X5016Y-3737D01*
X5092Y-3922D01*
X4962Y-3921D01*
X4705Y-4028D01*
X4636Y-4096D01*
X4636Y-3417D01*
X4479Y-3036D01*
X4188Y-2745D01*
X3808Y-2587D01*
X3396Y-2586D01*
X3015Y-2744D01*
X2724Y-3035D01*
X2566Y-3415D01*
X2566Y-3827D01*
X2723Y-4207D01*
X3014Y-4498D01*
X3394Y-4656D01*
X3806Y-4657D01*
X4186Y-4499D01*
X4478Y-4209D01*
X4636Y-3828D01*
X4636Y-3417D01*
X4636Y-4096D01*
X4508Y-4225D01*
X4401Y-4482D01*
X4401Y-4760D01*
X4507Y-5018D01*
X4704Y-5215D01*
X4889Y-5292D01*
X3222Y-5292D01*
X3195Y-5226D01*
X2998Y-5028D01*
X2741Y-4922D01*
X2462Y-4921D01*
X2205Y-5028D01*
X2186Y-5047D01*
X2186Y-3506D01*
X2097Y-3291D01*
X1933Y-3126D01*
X1718Y-3037D01*
X1485Y-3036D01*
X1270Y-3125D01*
X1105Y-3290D01*
X1016Y-3505D01*
X1016Y-3737D01*
X1105Y-3952D01*
X1269Y-4117D01*
X1484Y-4206D01*
X1717Y-4207D01*
X1932Y-4118D01*
X2097Y-3953D01*
X2186Y-3738D01*
X2186Y-3506D01*
X2186Y-5047D01*
X2008Y-5225D01*
X1901Y-5482D01*
X1901Y-5760D01*
X2007Y-6018D01*
X2204Y-6215D01*
X2461Y-6321D01*
X2740Y-6322D01*
X2997Y-6215D01*
X3194Y-6019D01*
X3222Y-5952D01*
X9480Y-5952D01*
X9507Y-6018D01*
X9704Y-6215D01*
X9961Y-6321D01*
X10240Y-6322D01*
X10497Y-6215D01*
X10694Y-6019D01*
X10722Y-5952D01*
X16980Y-5952D01*
X17007Y-6018D01*
X17083Y-6094D01*
X16479Y-6093D01*
X15880Y-6341D01*
X15422Y-6798D01*
X15173Y-7396D01*
X15173Y-8044D01*
X15420Y-8643D01*
X15722Y-8945D01*
X15217Y-8945D01*
X14556Y-8284D01*
X14449Y-8213D01*
X14323Y-8188D01*
X4655Y-8188D01*
X4529Y-8213D01*
X4422Y-8284D01*
X4259Y-8447D01*
X3626Y-8447D01*
X3534Y-8484D01*
X3464Y-8555D01*
X3426Y-8647D01*
X3426Y-8746D01*
X3426Y-9596D01*
X3464Y-9688D01*
X3534Y-9758D01*
X3626Y-9797D01*
X3725Y-9797D01*
X4052Y-9797D01*
X3050Y-10798D01*
X3047Y-10791D01*
X2883Y-10626D01*
X2668Y-10537D01*
X2435Y-10536D01*
X2220Y-10625D01*
X2055Y-10790D01*
X1966Y-11005D01*
X1966Y-11237D01*
X2055Y-11452D01*
X2219Y-11617D01*
X2434Y-11706D01*
X2667Y-11707D01*
X2882Y-11618D01*
X2903Y-11597D01*
X2903Y-12143D01*
X2696Y-12350D01*
X2625Y-12457D01*
X2599Y-12583D01*
X2599Y-13363D01*
X2625Y-13489D01*
X2696Y-13596D01*
X5276Y-16176D01*
X5276Y-16246D01*
X5276Y-16942D01*
X1941Y-13607D01*
X1941Y-13397D01*
X1941Y-10397D01*
X1855Y-10189D01*
X1696Y-10030D01*
X1489Y-9944D01*
X1264Y-9943D01*
X1056Y-10029D01*
X897Y-10188D01*
X811Y-10396D01*
X811Y-10620D01*
X897Y-10828D01*
X1055Y-10987D01*
X1263Y-11073D01*
X1488Y-11074D01*
X1695Y-10988D01*
X1855Y-10829D01*
X1941Y-10621D01*
X1941Y-10397D01*
X1941Y-13397D01*
X1855Y-13189D01*
X1696Y-13030D01*
X1489Y-12944D01*
X1264Y-12943D01*
X1056Y-13029D01*
X897Y-13188D01*
X811Y-13396D01*
X811Y-13620D01*
X897Y-13828D01*
X1055Y-13987D01*
X1263Y-14073D01*
X1474Y-14074D01*
X5251Y-17850D01*
X5251Y-17850D01*
X5358Y-17922D01*
X5358Y-17922D01*
X5459Y-17942D01*
X5484Y-17947D01*
X5484Y-17947D01*
X5484Y-17947D01*
X5612Y-17947D01*
X5524Y-18035D01*
X5366Y-18415D01*
X5366Y-18827D01*
X5523Y-19207D01*
X5814Y-19498D01*
X6194Y-19656D01*
X6606Y-19657D01*
X6986Y-19499D01*
X7278Y-19209D01*
X7436Y-18828D01*
X7436Y-18417D01*
X7279Y-18036D01*
X7190Y-17947D01*
X15912Y-17947D01*
X15824Y-18035D01*
X15666Y-18415D01*
X15666Y-18827D01*
X15823Y-19207D01*
X16114Y-19498D01*
X16494Y-19656D01*
X16906Y-19657D01*
X17287Y-19499D01*
X17578Y-19209D01*
X17736Y-18828D01*
X17736Y-18417D01*
X17579Y-18036D01*
X17490Y-17947D01*
X23412Y-17947D01*
X23324Y-18035D01*
X23166Y-18415D01*
X23166Y-18827D01*
X23323Y-19207D01*
X23614Y-19498D01*
X23994Y-19656D01*
X24406Y-19657D01*
X24787Y-19499D01*
X25078Y-19209D01*
X25236Y-18828D01*
X25236Y-18417D01*
X25079Y-18036D01*
X24990Y-17947D01*
X30912Y-17947D01*
X30824Y-18035D01*
X30666Y-18415D01*
X30666Y-18827D01*
X30823Y-19207D01*
X31114Y-19498D01*
X31494Y-19656D01*
X31906Y-19657D01*
X32287Y-19499D01*
X32578Y-19209D01*
X32736Y-18828D01*
X32736Y-18417D01*
X32579Y-18036D01*
X32490Y-17947D01*
X38412Y-17947D01*
X38324Y-18035D01*
X38166Y-18415D01*
X38166Y-18827D01*
X38323Y-19207D01*
X38614Y-19498D01*
X38994Y-19656D01*
X39406Y-19657D01*
X39787Y-19499D01*
X40078Y-19209D01*
X40236Y-18828D01*
X40236Y-18417D01*
X40079Y-18036D01*
X39990Y-17947D01*
X41806Y-17947D01*
X43659Y-19800D01*
X43766Y-19872D01*
X43766Y-19872D01*
X43893Y-19897D01*
X45510Y-19897D01*
X45543Y-19930D01*
X45305Y-20028D01*
X45108Y-20225D01*
X45080Y-20292D01*
X40913Y-20292D01*
X41097Y-20215D01*
X41294Y-20019D01*
X41401Y-19761D01*
X41401Y-19483D01*
X41295Y-19226D01*
X41276Y-19207D01*
X41317Y-19207D01*
X41532Y-19118D01*
X41697Y-18953D01*
X41786Y-18738D01*
X41786Y-18506D01*
X41697Y-18291D01*
X41533Y-18126D01*
X41318Y-18037D01*
X41085Y-18036D01*
X40870Y-18125D01*
X40705Y-18290D01*
X40616Y-18505D01*
X40616Y-18737D01*
X40692Y-18922D01*
X40562Y-18921D01*
X40305Y-19028D01*
X40108Y-19225D01*
X40001Y-19482D01*
X40001Y-19760D01*
X40107Y-20018D01*
X40304Y-20215D01*
X40489Y-20292D01*
X38822Y-20292D01*
X38795Y-20226D01*
X38598Y-20028D01*
X38341Y-19922D01*
X38062Y-19921D01*
X37805Y-20028D01*
X37786Y-20047D01*
X37786Y-18506D01*
X37697Y-18291D01*
X37533Y-18126D01*
X37318Y-18037D01*
X37085Y-18036D01*
X36870Y-18125D01*
X36705Y-18290D01*
X36616Y-18505D01*
X36616Y-18737D01*
X36705Y-18952D01*
X36869Y-19117D01*
X37084Y-19206D01*
X37317Y-19207D01*
X37532Y-19118D01*
X37697Y-18953D01*
X37786Y-18738D01*
X37786Y-18506D01*
X37786Y-20047D01*
X37608Y-20225D01*
X37580Y-20292D01*
X33413Y-20292D01*
X33597Y-20215D01*
X33794Y-20019D01*
X33901Y-19761D01*
X33901Y-19483D01*
X33795Y-19226D01*
X33776Y-19207D01*
X33817Y-19207D01*
X34032Y-19118D01*
X34197Y-18953D01*
X34286Y-18738D01*
X34286Y-18506D01*
X34197Y-18291D01*
X34033Y-18126D01*
X33818Y-18037D01*
X33585Y-18036D01*
X33370Y-18125D01*
X33205Y-18290D01*
X33116Y-18505D01*
X33116Y-18737D01*
X33192Y-18922D01*
X33062Y-18921D01*
X32805Y-19028D01*
X32608Y-19225D01*
X32501Y-19482D01*
X32501Y-19760D01*
X32607Y-20018D01*
X32804Y-20215D01*
X32989Y-20292D01*
X31322Y-20292D01*
X31295Y-20226D01*
X31098Y-20028D01*
X30841Y-19922D01*
X30562Y-19921D01*
X30305Y-20028D01*
X30286Y-20047D01*
X30286Y-18506D01*
X30197Y-18291D01*
X30033Y-18126D01*
X29818Y-18037D01*
X29585Y-18036D01*
X29370Y-18125D01*
X29205Y-18290D01*
X29116Y-18505D01*
X29116Y-18737D01*
X29205Y-18952D01*
X29369Y-19117D01*
X29584Y-19206D01*
X29817Y-19207D01*
X30032Y-19118D01*
X30197Y-18953D01*
X30286Y-18738D01*
X30286Y-18506D01*
X30286Y-20047D01*
X30108Y-20225D01*
X30080Y-20292D01*
X25913Y-20292D01*
X26097Y-20215D01*
X26294Y-20019D01*
X26401Y-19761D01*
X26401Y-19483D01*
X26295Y-19226D01*
X26276Y-19207D01*
X26317Y-19207D01*
X26532Y-19118D01*
X26697Y-18953D01*
X26786Y-18738D01*
X26786Y-18506D01*
X26697Y-18291D01*
X26533Y-18126D01*
X26318Y-18037D01*
X26085Y-18036D01*
X25870Y-18125D01*
X25705Y-18290D01*
X25616Y-18505D01*
X25616Y-18737D01*
X25692Y-18922D01*
X25562Y-18921D01*
X25305Y-19028D01*
X25108Y-19225D01*
X25001Y-19482D01*
X25001Y-19760D01*
X25107Y-20018D01*
X25304Y-20215D01*
X25489Y-20292D01*
X23822Y-20292D01*
X23795Y-20226D01*
X23598Y-20028D01*
X23341Y-19922D01*
X23062Y-19921D01*
X22805Y-20028D01*
X22786Y-20047D01*
X22786Y-18506D01*
X22697Y-18291D01*
X22533Y-18126D01*
X22318Y-18037D01*
X22085Y-18036D01*
X21870Y-18125D01*
X21705Y-18290D01*
X21616Y-18505D01*
X21616Y-18737D01*
X21705Y-18952D01*
X21869Y-19117D01*
X22084Y-19206D01*
X22317Y-19207D01*
X22532Y-19118D01*
X22697Y-18953D01*
X22786Y-18738D01*
X22786Y-18506D01*
X22786Y-20047D01*
X22608Y-20225D01*
X22580Y-20292D01*
X18413Y-20292D01*
X18597Y-20215D01*
X18794Y-20019D01*
X18901Y-19761D01*
X18901Y-19483D01*
X18795Y-19226D01*
X18776Y-19207D01*
X18817Y-19207D01*
X19032Y-19118D01*
X19197Y-18953D01*
X19286Y-18738D01*
X19286Y-18506D01*
X19197Y-18291D01*
X19033Y-18126D01*
X18818Y-18037D01*
X18585Y-18036D01*
X18370Y-18125D01*
X18205Y-18290D01*
X18116Y-18505D01*
X18116Y-18737D01*
X18192Y-18922D01*
X18062Y-18921D01*
X17805Y-19028D01*
X17608Y-19225D01*
X17501Y-19482D01*
X17501Y-19760D01*
X17607Y-20018D01*
X17804Y-20215D01*
X17989Y-20292D01*
X16322Y-20292D01*
X16295Y-20226D01*
X16098Y-20028D01*
X15841Y-19922D01*
X15562Y-19921D01*
X15305Y-20028D01*
X15286Y-20047D01*
X15286Y-18506D01*
X15197Y-18291D01*
X15033Y-18126D01*
X14818Y-18037D01*
X14585Y-18036D01*
X14370Y-18125D01*
X14205Y-18290D01*
X14116Y-18505D01*
X14116Y-18737D01*
X14205Y-18952D01*
X14369Y-19117D01*
X14584Y-19206D01*
X14817Y-19207D01*
X15032Y-19118D01*
X15197Y-18953D01*
X15286Y-18738D01*
X15286Y-18506D01*
X15286Y-20047D01*
X15108Y-20225D01*
X15080Y-20292D01*
X8112Y-20292D01*
X8297Y-20215D01*
X8494Y-20019D01*
X8601Y-19761D01*
X8601Y-19483D01*
X8495Y-19226D01*
X8476Y-19207D01*
X8517Y-19207D01*
X8732Y-19118D01*
X8897Y-18953D01*
X8986Y-18738D01*
X8986Y-18506D01*
X8897Y-18291D01*
X8733Y-18126D01*
X8518Y-18037D01*
X8285Y-18036D01*
X8070Y-18125D01*
X7905Y-18290D01*
X7816Y-18505D01*
X7816Y-18737D01*
X7892Y-18922D01*
X7762Y-18921D01*
X7505Y-19028D01*
X7308Y-19225D01*
X7201Y-19482D01*
X7201Y-19760D01*
X7307Y-20018D01*
X7504Y-20215D01*
X7689Y-20292D01*
X6022Y-20292D01*
X5995Y-20226D01*
X5798Y-20028D01*
X5541Y-19922D01*
X5262Y-19921D01*
X5005Y-20028D01*
X4986Y-20047D01*
X4986Y-18506D01*
X4897Y-18291D01*
X4733Y-18126D01*
X4518Y-18037D01*
X4285Y-18036D01*
X4070Y-18125D01*
X3905Y-18290D01*
X3816Y-18505D01*
X3816Y-18737D01*
X3905Y-18952D01*
X4069Y-19117D01*
X4284Y-19206D01*
X4517Y-19207D01*
X4732Y-19118D01*
X4897Y-18953D01*
X4986Y-18738D01*
X4986Y-18506D01*
X4986Y-20047D01*
X4808Y-20225D01*
X4701Y-20482D01*
X4701Y-20760D01*
X4807Y-21018D01*
X5004Y-21215D01*
X5261Y-21321D01*
X5540Y-21322D01*
X5797Y-21215D01*
X5994Y-21019D01*
X6022Y-20952D01*
X8712Y-20952D01*
X8685Y-20978D01*
X8617Y-21143D01*
X8616Y-21320D01*
X8684Y-21485D01*
X8810Y-21610D01*
X8974Y-21679D01*
X9018Y-21679D01*
X9018Y-21686D01*
X9086Y-21850D01*
X9212Y-21976D01*
X9376Y-22044D01*
X9553Y-22044D01*
X9718Y-21976D01*
X9767Y-21927D01*
X19928Y-21927D01*
X19927Y-22085D01*
X19995Y-22249D01*
X20007Y-22261D01*
X8528Y-22261D01*
X8479Y-22212D01*
X8315Y-22144D01*
X8137Y-22144D01*
X7973Y-22212D01*
X7847Y-22337D01*
X7779Y-22501D01*
X7779Y-22679D01*
X7847Y-22843D01*
X7972Y-22969D01*
X8137Y-23037D01*
X8314Y-23038D01*
X8479Y-22970D01*
X8528Y-22921D01*
X20208Y-22921D01*
X20505Y-23218D01*
X20449Y-23206D01*
X13501Y-23206D01*
X6171Y-23206D01*
X6045Y-23232D01*
X5938Y-23303D01*
X5546Y-23695D01*
X5493Y-23616D01*
X5290Y-23481D01*
X5051Y-23433D01*
X4812Y-23481D01*
X4652Y-23588D01*
X4638Y-23555D01*
X4568Y-23485D01*
X4476Y-23447D01*
X4376Y-23447D01*
X3846Y-23447D01*
X3846Y-20436D01*
X3846Y-20436D01*
X3846Y-20436D01*
X3841Y-20411D01*
X3821Y-20310D01*
X3821Y-20310D01*
X3749Y-20203D01*
X3749Y-20203D01*
X3266Y-19720D01*
X3266Y-19510D01*
X3266Y-16510D01*
X3180Y-16302D01*
X3021Y-16143D01*
X2814Y-16057D01*
X2589Y-16056D01*
X2381Y-16142D01*
X2222Y-16301D01*
X2136Y-16509D01*
X2136Y-16733D01*
X2222Y-16941D01*
X2380Y-17100D01*
X2588Y-17186D01*
X2813Y-17187D01*
X3020Y-17101D01*
X3180Y-16942D01*
X3266Y-16734D01*
X3266Y-16510D01*
X3266Y-19510D01*
X3180Y-19302D01*
X3021Y-19143D01*
X2814Y-19057D01*
X2589Y-19056D01*
X2381Y-19142D01*
X2222Y-19301D01*
X2136Y-19509D01*
X2136Y-19733D01*
X2222Y-19941D01*
X2380Y-20100D01*
X2588Y-20186D01*
X2799Y-20187D01*
X3186Y-20573D01*
X3186Y-24640D01*
X3211Y-24766D01*
X3282Y-24873D01*
X3793Y-25384D01*
X3812Y-25397D01*
X3674Y-25535D01*
X3516Y-25915D01*
X3516Y-26327D01*
X3673Y-26707D01*
X3964Y-26998D01*
X4344Y-27156D01*
X4756Y-27157D01*
X5136Y-26999D01*
X5428Y-26709D01*
X5586Y-26328D01*
X5586Y-25917D01*
X5429Y-25536D01*
X5374Y-25481D01*
X12178Y-25481D01*
X12124Y-25535D01*
X11966Y-25915D01*
X11966Y-26327D01*
X12123Y-26707D01*
X12414Y-26998D01*
X12794Y-27156D01*
X13206Y-27157D01*
X13586Y-26999D01*
X13878Y-26709D01*
X14036Y-26328D01*
X14036Y-25917D01*
X13879Y-25536D01*
X13824Y-25481D01*
X19678Y-25481D01*
X19624Y-25535D01*
X19466Y-25915D01*
X19466Y-26327D01*
X19623Y-26707D01*
X19914Y-26998D01*
X20294Y-27156D01*
X20706Y-27157D01*
X21087Y-26999D01*
X21378Y-26709D01*
X21536Y-26328D01*
X21536Y-25917D01*
X21379Y-25536D01*
X21324Y-25481D01*
X30317Y-25481D01*
X33040Y-28204D01*
X32991Y-28204D01*
X32769Y-28296D01*
X32599Y-28466D01*
X32507Y-28688D01*
X32506Y-28928D01*
X32598Y-29150D01*
X32710Y-29263D01*
X28638Y-29263D01*
X28751Y-28991D01*
X28751Y-28653D01*
X28622Y-28341D01*
X28383Y-28101D01*
X28071Y-27972D01*
X27733Y-27971D01*
X27420Y-28101D01*
X27181Y-28339D01*
X27051Y-28652D01*
X27051Y-28990D01*
X27164Y-29263D01*
X23086Y-29263D01*
X23086Y-26006D01*
X22997Y-25791D01*
X22833Y-25626D01*
X22618Y-25537D01*
X22385Y-25536D01*
X22170Y-25625D01*
X22005Y-25790D01*
X21916Y-26005D01*
X21916Y-26237D01*
X21992Y-26422D01*
X21862Y-26421D01*
X21605Y-26528D01*
X21408Y-26725D01*
X21301Y-26982D01*
X21301Y-27260D01*
X21407Y-27518D01*
X21604Y-27715D01*
X21861Y-27821D01*
X22140Y-27822D01*
X22397Y-27715D01*
X22594Y-27519D01*
X22701Y-27261D01*
X22701Y-26983D01*
X22595Y-26726D01*
X22576Y-26707D01*
X22617Y-26707D01*
X22832Y-26618D01*
X22997Y-26453D01*
X23086Y-26238D01*
X23086Y-26006D01*
X23086Y-29263D01*
X21109Y-29263D01*
X20174Y-28327D01*
X20201Y-28261D01*
X20201Y-27983D01*
X20095Y-27726D01*
X19898Y-27528D01*
X19641Y-27422D01*
X19362Y-27421D01*
X19105Y-27528D01*
X19086Y-27547D01*
X19086Y-26006D01*
X18997Y-25791D01*
X18833Y-25626D01*
X18618Y-25537D01*
X18385Y-25536D01*
X18170Y-25625D01*
X18005Y-25790D01*
X17916Y-26005D01*
X17916Y-26237D01*
X18005Y-26452D01*
X18169Y-26617D01*
X18384Y-26706D01*
X18617Y-26707D01*
X18832Y-26618D01*
X18997Y-26453D01*
X19086Y-26238D01*
X19086Y-26006D01*
X19086Y-27547D01*
X18908Y-27725D01*
X18880Y-27792D01*
X14712Y-27792D01*
X14897Y-27715D01*
X15094Y-27519D01*
X15201Y-27261D01*
X15201Y-26983D01*
X15095Y-26726D01*
X15076Y-26707D01*
X15117Y-26707D01*
X15332Y-26618D01*
X15497Y-26453D01*
X15586Y-26238D01*
X15586Y-26006D01*
X15497Y-25791D01*
X15333Y-25626D01*
X15118Y-25537D01*
X14885Y-25536D01*
X14670Y-25625D01*
X14505Y-25790D01*
X14416Y-26005D01*
X14416Y-26237D01*
X14492Y-26422D01*
X14362Y-26421D01*
X14105Y-26528D01*
X13908Y-26725D01*
X13801Y-26982D01*
X13801Y-27260D01*
X13907Y-27518D01*
X14104Y-27715D01*
X14289Y-27792D01*
X12622Y-27792D01*
X12595Y-27726D01*
X12398Y-27528D01*
X12141Y-27422D01*
X11862Y-27421D01*
X11605Y-27528D01*
X11586Y-27547D01*
X11586Y-26006D01*
X11497Y-25791D01*
X11333Y-25626D01*
X11118Y-25537D01*
X10885Y-25536D01*
X10670Y-25625D01*
X10505Y-25790D01*
X10416Y-26005D01*
X10416Y-26237D01*
X10505Y-26452D01*
X10669Y-26617D01*
X10884Y-26706D01*
X11117Y-26707D01*
X11332Y-26618D01*
X11497Y-26453D01*
X11586Y-26238D01*
X11586Y-26006D01*
X11586Y-27547D01*
X11408Y-27725D01*
X11380Y-27792D01*
X6262Y-27792D01*
X6447Y-27715D01*
X6644Y-27519D01*
X6751Y-27261D01*
X6751Y-26983D01*
X6645Y-26726D01*
X6626Y-26707D01*
X6667Y-26707D01*
X6882Y-26618D01*
X7047Y-26453D01*
X7136Y-26238D01*
X7136Y-26006D01*
X7047Y-25791D01*
X6883Y-25626D01*
X6668Y-25537D01*
X6435Y-25536D01*
X6220Y-25625D01*
X6055Y-25790D01*
X5966Y-26005D01*
X5966Y-26237D01*
X6042Y-26422D01*
X5912Y-26421D01*
X5655Y-26528D01*
X5458Y-26725D01*
X5351Y-26982D01*
X5351Y-27260D01*
X5457Y-27518D01*
X5654Y-27715D01*
X5839Y-27792D01*
X4172Y-27792D01*
X4145Y-27726D01*
X3948Y-27528D01*
X3691Y-27422D01*
X3412Y-27421D01*
X3155Y-27528D01*
X3136Y-27547D01*
X3136Y-26006D01*
X3047Y-25791D01*
X2883Y-25626D01*
X2668Y-25537D01*
X2435Y-25536D01*
X2220Y-25625D01*
X2055Y-25790D01*
X1966Y-26005D01*
X1966Y-26237D01*
X2055Y-26452D01*
X2219Y-26617D01*
X2434Y-26706D01*
X2667Y-26707D01*
X2882Y-26618D01*
X3047Y-26453D01*
X3136Y-26238D01*
X3136Y-26006D01*
X3136Y-27547D01*
X2958Y-27725D01*
X2851Y-27982D01*
X2851Y-28260D01*
X2957Y-28518D01*
X3154Y-28715D01*
X3411Y-28821D01*
X3690Y-28822D01*
X3947Y-28715D01*
X4144Y-28519D01*
X4172Y-28452D01*
X11380Y-28452D01*
X11407Y-28518D01*
X11604Y-28715D01*
X11861Y-28821D01*
X12140Y-28822D01*
X12397Y-28715D01*
X12594Y-28519D01*
X12622Y-28452D01*
X18880Y-28452D01*
X18907Y-28518D01*
X19104Y-28715D01*
X19361Y-28821D01*
X19640Y-28822D01*
X19707Y-28794D01*
X20465Y-29552D01*
X795Y-29552D01*
X803Y-29529D01*
X790Y-29351D01*
X747Y-29246D01*
X662Y-29231D01*
X422Y-29472D01*
X427Y-29477D01*
X356Y-29548D01*
X351Y-29542D01*
X345Y-29548D01*
X275Y-29477D01*
X280Y-29472D01*
X275Y-29466D01*
X345Y-29395D01*
X351Y-29401D01*
X591Y-29160D01*
X577Y-29076D01*
X408Y-29020D01*
X270Y-29029D01*
X270Y-23478D01*
X1601Y-23478D01*
X2074Y-23385D01*
X2474Y-23117D01*
X2742Y-22716D01*
X2836Y-22244D01*
X2742Y-21772D01*
X2474Y-21371D01*
X2074Y-21103D01*
X1601Y-21009D01*
X270Y-21009D01*
X270Y-766D01*
X294Y-774D01*
X471Y-761D01*
X577Y-717D01*
X591Y-633D01*
X351Y-392D01*
X345Y-398D01*
X275Y-327D01*
X280Y-322D01*
X275Y-316D01*
X345Y-245D01*
X351Y-251D01*
X356Y-245D01*
X427Y-316D01*
X422Y-322D01*
X662Y-562D01*
X747Y-547D01*
X803Y-379D01*
X793Y-241D01*
X29650Y-241D01*
X29619Y-272D01*
X29665Y-318D01*
X29580Y-333D01*
X29524Y-501D01*
X29536Y-679D01*
X29580Y-784D01*
X29665Y-799D01*
X29905Y-559D01*
X29900Y-553D01*
X29970Y-482D01*
X29976Y-488D01*
X29981Y-482D01*
X30052Y-553D01*
X30047Y-559D01*
X30287Y-799D01*
X30372Y-784D01*
X30428Y-616D01*
X30415Y-438D01*
X30372Y-333D01*
X30287Y-318D01*
X30333Y-272D01*
X30301Y-241D01*
X60029Y-241D01*
X59923Y-312D01*
X59923Y-312D01*
X59923Y-312D01*
X59109Y-1126D01*
X59037Y-1233D01*
X59012Y-1359D01*
X59012Y-3025D01*
X59037Y-3151D01*
X59109Y-3258D01*
X59277Y-3426D01*
X59272Y-3438D01*
X59271Y-3678D01*
X59363Y-3900D01*
X59533Y-4071D01*
X59755Y-4163D01*
X59996Y-4163D01*
X60218Y-4071D01*
X60388Y-3901D01*
X60480Y-3679D01*
X60480Y-3439D01*
X60389Y-3217D01*
X60219Y-3047D01*
X59997Y-2954D01*
X59756Y-2954D01*
X59743Y-2959D01*
X59672Y-2888D01*
X59672Y-2128D01*
X59755Y-2163D01*
X59996Y-2163D01*
X60218Y-2071D01*
X60388Y-1901D01*
X60480Y-1679D01*
X60480Y-1439D01*
X60475Y-1426D01*
X60786Y-1115D01*
X62489Y-1115D01*
X62476Y-1147D01*
X62476Y-1246D01*
X62476Y-2096D01*
X62514Y-2188D01*
X62584Y-2258D01*
X62676Y-2297D01*
X62776Y-2297D01*
X63526Y-2297D01*
X63618Y-2259D01*
X63688Y-2188D01*
X63702Y-2155D01*
X63862Y-2262D01*
X64101Y-2310D01*
X64340Y-2262D01*
X64543Y-2127D01*
X64664Y-1946D01*
X64762Y-1926D01*
X64762Y-1926D01*
X64870Y-1855D01*
X65358Y-1366D01*
X66801Y-1366D01*
X66772Y-1438D01*
X66771Y-1678D01*
X66863Y-1900D01*
X67021Y-2059D01*
X66864Y-2216D01*
X66772Y-2438D01*
X66771Y-2678D01*
X66863Y-2900D01*
X67021Y-3059D01*
X66864Y-3216D01*
X66772Y-3438D01*
X66771Y-3678D01*
X66863Y-3900D01*
X67021Y-4059D01*
G54D10*
G36*
X77089Y-27792D02*
X75422Y-27792D01*
X75395Y-27726D01*
X75198Y-27528D01*
X74941Y-27422D01*
X74662Y-27421D01*
X74405Y-27528D01*
X74386Y-27547D01*
X74386Y-26006D01*
X74297Y-25791D01*
X74133Y-25626D01*
X73918Y-25537D01*
X73685Y-25536D01*
X73470Y-25625D01*
X73305Y-25790D01*
X73216Y-26005D01*
X73216Y-26237D01*
X73305Y-26452D01*
X73469Y-26617D01*
X73684Y-26706D01*
X73917Y-26707D01*
X74132Y-26618D01*
X74297Y-26453D01*
X74386Y-26238D01*
X74386Y-26006D01*
X74386Y-27547D01*
X74221Y-27712D01*
X64749Y-27712D01*
X64623Y-27737D01*
X64516Y-27808D01*
X64264Y-28060D01*
X62681Y-28060D01*
X62681Y-27939D01*
X62613Y-27775D01*
X62487Y-27649D01*
X62323Y-27581D01*
X62282Y-27581D01*
X61361Y-26659D01*
X61247Y-26583D01*
X61113Y-26557D01*
X59982Y-26557D01*
X59982Y-25925D01*
X59955Y-25791D01*
X59955Y-25791D01*
X59880Y-25677D01*
X59225Y-25023D01*
X59225Y-24983D01*
X59158Y-24818D01*
X59032Y-24692D01*
X59030Y-24692D01*
X59067Y-24655D01*
X59135Y-24491D01*
X59135Y-24349D01*
X59428Y-24349D01*
X60114Y-25035D01*
X60221Y-25106D01*
X60221Y-25106D01*
X60347Y-25131D01*
X75487Y-25131D01*
X75216Y-25244D01*
X74924Y-25535D01*
X74766Y-25915D01*
X74766Y-26327D01*
X74923Y-26707D01*
X75214Y-26998D01*
X75594Y-27156D01*
X75694Y-27156D01*
X75676Y-27198D01*
X75676Y-27376D01*
X75744Y-27540D01*
X75870Y-27666D01*
X76034Y-27734D01*
X76212Y-27734D01*
X76376Y-27666D01*
X76502Y-27541D01*
X76570Y-27376D01*
X76570Y-27307D01*
X76606Y-27271D01*
X76707Y-27518D01*
X76904Y-27715D01*
X77089Y-27792D01*
X77089Y-27792D01*
G37*
G54D25*
X77089Y-27792D02*
X75422Y-27792D01*
X75395Y-27726D01*
X75198Y-27528D01*
X74941Y-27422D01*
X74662Y-27421D01*
X74405Y-27528D01*
X74386Y-27547D01*
X74386Y-26006D01*
X74297Y-25791D01*
X74133Y-25626D01*
X73918Y-25537D01*
X73685Y-25536D01*
X73470Y-25625D01*
X73305Y-25790D01*
X73216Y-26005D01*
X73216Y-26237D01*
X73305Y-26452D01*
X73469Y-26617D01*
X73684Y-26706D01*
X73917Y-26707D01*
X74132Y-26618D01*
X74297Y-26453D01*
X74386Y-26238D01*
X74386Y-26006D01*
X74386Y-27547D01*
X74221Y-27712D01*
X64749Y-27712D01*
X64623Y-27737D01*
X64516Y-27808D01*
X64264Y-28060D01*
X62681Y-28060D01*
X62681Y-27939D01*
X62613Y-27775D01*
X62487Y-27649D01*
X62323Y-27581D01*
X62282Y-27581D01*
X61361Y-26659D01*
X61247Y-26583D01*
X61113Y-26557D01*
X59982Y-26557D01*
X59982Y-25925D01*
X59955Y-25791D01*
X59955Y-25791D01*
X59880Y-25677D01*
X59225Y-25023D01*
X59225Y-24983D01*
X59158Y-24818D01*
X59032Y-24692D01*
X59030Y-24692D01*
X59067Y-24655D01*
X59135Y-24491D01*
X59135Y-24349D01*
X59428Y-24349D01*
X60114Y-25035D01*
X60221Y-25106D01*
X60221Y-25106D01*
X60347Y-25131D01*
X75487Y-25131D01*
X75216Y-25244D01*
X74924Y-25535D01*
X74766Y-25915D01*
X74766Y-26327D01*
X74923Y-26707D01*
X75214Y-26998D01*
X75594Y-27156D01*
X75694Y-27156D01*
X75676Y-27198D01*
X75676Y-27376D01*
X75744Y-27540D01*
X75870Y-27666D01*
X76034Y-27734D01*
X76212Y-27734D01*
X76376Y-27666D01*
X76502Y-27541D01*
X76570Y-27376D01*
X76570Y-27307D01*
X76606Y-27271D01*
X76707Y-27518D01*
X76904Y-27715D01*
X77089Y-27792D01*
G54D10*
G36*
X85391Y-22915D02*
X84859Y-23447D01*
X84226Y-23447D01*
X84134Y-23484D01*
X84064Y-23555D01*
X84026Y-23647D01*
X84026Y-23746D01*
X84026Y-24377D01*
X83139Y-24377D01*
X83037Y-24309D01*
X82911Y-24284D01*
X76906Y-24284D01*
X76926Y-24185D01*
X76926Y-24058D01*
X76878Y-23819D01*
X76743Y-23616D01*
X76540Y-23481D01*
X76301Y-23433D01*
X76062Y-23481D01*
X75902Y-23588D01*
X75888Y-23555D01*
X75818Y-23485D01*
X75726Y-23447D01*
X75627Y-23447D01*
X74877Y-23447D01*
X74785Y-23484D01*
X74714Y-23555D01*
X74676Y-23647D01*
X74676Y-23746D01*
X74676Y-24471D01*
X68336Y-24471D01*
X68336Y-22617D01*
X68179Y-22236D01*
X67888Y-21945D01*
X67508Y-21787D01*
X67096Y-21786D01*
X66716Y-21944D01*
X66424Y-22235D01*
X66266Y-22615D01*
X66266Y-23027D01*
X66423Y-23407D01*
X66714Y-23698D01*
X67094Y-23856D01*
X67506Y-23857D01*
X67887Y-23699D01*
X68178Y-23409D01*
X68336Y-23028D01*
X68336Y-22617D01*
X68336Y-24471D01*
X60991Y-24471D01*
X60991Y-24349D01*
X60923Y-24185D01*
X60797Y-24059D01*
X60633Y-23991D01*
X60564Y-23991D01*
X60118Y-23545D01*
X60011Y-23474D01*
X59885Y-23449D01*
X58874Y-23449D01*
X58993Y-23329D01*
X59062Y-23165D01*
X59062Y-23015D01*
X59197Y-23015D01*
X59245Y-23064D01*
X59409Y-23132D01*
X59587Y-23132D01*
X59752Y-23064D01*
X59877Y-22939D01*
X59945Y-22775D01*
X59946Y-22597D01*
X59878Y-22433D01*
X59752Y-22307D01*
X59588Y-22239D01*
X59410Y-22238D01*
X59246Y-22306D01*
X59197Y-22355D01*
X57617Y-22355D01*
X57568Y-22307D01*
X57404Y-22239D01*
X57226Y-22238D01*
X57062Y-22306D01*
X56936Y-22432D01*
X56922Y-22465D01*
X56915Y-22448D01*
X56789Y-22322D01*
X56625Y-22254D01*
X56447Y-22253D01*
X56355Y-22292D01*
X56355Y-22121D01*
X56287Y-21956D01*
X56161Y-21831D01*
X55997Y-21762D01*
X55928Y-21762D01*
X55532Y-21367D01*
X60286Y-21367D01*
X60412Y-21342D01*
X60412Y-21342D01*
X60488Y-21291D01*
X60561Y-21321D01*
X60840Y-21322D01*
X61097Y-21215D01*
X61294Y-21019D01*
X61322Y-20952D01*
X67580Y-20952D01*
X67607Y-21018D01*
X67804Y-21215D01*
X68061Y-21321D01*
X68340Y-21322D01*
X68597Y-21215D01*
X68794Y-21019D01*
X68822Y-20952D01*
X75080Y-20952D01*
X75107Y-21018D01*
X75304Y-21215D01*
X75561Y-21321D01*
X75840Y-21322D01*
X76097Y-21215D01*
X76176Y-21137D01*
X76254Y-21215D01*
X76511Y-21321D01*
X76789Y-21322D01*
X77047Y-21215D01*
X77244Y-21019D01*
X77272Y-20952D01*
X83580Y-20952D01*
X83607Y-21018D01*
X83804Y-21215D01*
X84061Y-21321D01*
X84340Y-21322D01*
X84597Y-21215D01*
X84651Y-21161D01*
X84704Y-21215D01*
X84961Y-21321D01*
X85240Y-21322D01*
X85391Y-21259D01*
X85391Y-22915D01*
X85391Y-22915D01*
G37*
G54D25*
X85391Y-22915D02*
X84859Y-23447D01*
X84226Y-23447D01*
X84134Y-23484D01*
X84064Y-23555D01*
X84026Y-23647D01*
X84026Y-23746D01*
X84026Y-24377D01*
X83139Y-24377D01*
X83037Y-24309D01*
X82911Y-24284D01*
X76906Y-24284D01*
X76926Y-24185D01*
X76926Y-24058D01*
X76878Y-23819D01*
X76743Y-23616D01*
X76540Y-23481D01*
X76301Y-23433D01*
X76062Y-23481D01*
X75902Y-23588D01*
X75888Y-23555D01*
X75818Y-23485D01*
X75726Y-23447D01*
X75627Y-23447D01*
X74877Y-23447D01*
X74785Y-23484D01*
X74714Y-23555D01*
X74676Y-23647D01*
X74676Y-23746D01*
X74676Y-24471D01*
X68336Y-24471D01*
X68336Y-22617D01*
X68179Y-22236D01*
X67888Y-21945D01*
X67508Y-21787D01*
X67096Y-21786D01*
X66716Y-21944D01*
X66424Y-22235D01*
X66266Y-22615D01*
X66266Y-23027D01*
X66423Y-23407D01*
X66714Y-23698D01*
X67094Y-23856D01*
X67506Y-23857D01*
X67887Y-23699D01*
X68178Y-23409D01*
X68336Y-23028D01*
X68336Y-22617D01*
X68336Y-24471D01*
X60991Y-24471D01*
X60991Y-24349D01*
X60923Y-24185D01*
X60797Y-24059D01*
X60633Y-23991D01*
X60564Y-23991D01*
X60118Y-23545D01*
X60011Y-23474D01*
X59885Y-23449D01*
X58874Y-23449D01*
X58993Y-23329D01*
X59062Y-23165D01*
X59062Y-23015D01*
X59197Y-23015D01*
X59245Y-23064D01*
X59409Y-23132D01*
X59587Y-23132D01*
X59752Y-23064D01*
X59877Y-22939D01*
X59945Y-22775D01*
X59946Y-22597D01*
X59878Y-22433D01*
X59752Y-22307D01*
X59588Y-22239D01*
X59410Y-22238D01*
X59246Y-22306D01*
X59197Y-22355D01*
X57617Y-22355D01*
X57568Y-22307D01*
X57404Y-22239D01*
X57226Y-22238D01*
X57062Y-22306D01*
X56936Y-22432D01*
X56922Y-22465D01*
X56915Y-22448D01*
X56789Y-22322D01*
X56625Y-22254D01*
X56447Y-22253D01*
X56355Y-22292D01*
X56355Y-22121D01*
X56287Y-21956D01*
X56161Y-21831D01*
X55997Y-21762D01*
X55928Y-21762D01*
X55532Y-21367D01*
X60286Y-21367D01*
X60412Y-21342D01*
X60412Y-21342D01*
X60488Y-21291D01*
X60561Y-21321D01*
X60840Y-21322D01*
X61097Y-21215D01*
X61294Y-21019D01*
X61322Y-20952D01*
X67580Y-20952D01*
X67607Y-21018D01*
X67804Y-21215D01*
X68061Y-21321D01*
X68340Y-21322D01*
X68597Y-21215D01*
X68794Y-21019D01*
X68822Y-20952D01*
X75080Y-20952D01*
X75107Y-21018D01*
X75304Y-21215D01*
X75561Y-21321D01*
X75840Y-21322D01*
X76097Y-21215D01*
X76176Y-21137D01*
X76254Y-21215D01*
X76511Y-21321D01*
X76789Y-21322D01*
X77047Y-21215D01*
X77244Y-21019D01*
X77272Y-20952D01*
X83580Y-20952D01*
X83607Y-21018D01*
X83804Y-21215D01*
X84061Y-21321D01*
X84340Y-21322D01*
X84597Y-21215D01*
X84651Y-21161D01*
X84704Y-21215D01*
X84961Y-21321D01*
X85240Y-21322D01*
X85391Y-21259D01*
X85391Y-22915D01*
G54D10*
G36*
X89481Y-29027D02*
X89458Y-29020D01*
X89281Y-29032D01*
X89175Y-29076D01*
X89161Y-29160D01*
X89401Y-29401D01*
X89407Y-29395D01*
X89477Y-29466D01*
X89472Y-29472D01*
X89477Y-29477D01*
X89407Y-29548D01*
X89401Y-29542D01*
X89396Y-29548D01*
X89325Y-29477D01*
X89330Y-29472D01*
X89090Y-29231D01*
X89005Y-29246D01*
X88949Y-29414D01*
X88959Y-29552D01*
X87736Y-29552D01*
X87736Y-26006D01*
X87647Y-25791D01*
X87482Y-25626D01*
X87268Y-25537D01*
X87035Y-25536D01*
X86820Y-25625D01*
X86655Y-25790D01*
X86566Y-26005D01*
X86566Y-26237D01*
X86642Y-26422D01*
X86512Y-26421D01*
X86255Y-26528D01*
X86186Y-26596D01*
X86186Y-25917D01*
X86029Y-25536D01*
X85738Y-25245D01*
X85357Y-25087D01*
X84946Y-25086D01*
X84565Y-25244D01*
X84274Y-25535D01*
X84116Y-25915D01*
X84116Y-26327D01*
X84273Y-26707D01*
X84564Y-26998D01*
X84944Y-27156D01*
X85356Y-27157D01*
X85736Y-26999D01*
X86028Y-26709D01*
X86186Y-26328D01*
X86186Y-25917D01*
X86186Y-26596D01*
X86058Y-26725D01*
X85951Y-26982D01*
X85951Y-27260D01*
X86057Y-27518D01*
X86254Y-27715D01*
X86511Y-27821D01*
X86789Y-27822D01*
X87047Y-27715D01*
X87244Y-27519D01*
X87351Y-27261D01*
X87351Y-26983D01*
X87244Y-26726D01*
X87226Y-26707D01*
X87267Y-26707D01*
X87482Y-26618D01*
X87646Y-26453D01*
X87736Y-26238D01*
X87736Y-26006D01*
X87736Y-29552D01*
X67759Y-29552D01*
X67782Y-29543D01*
X68021Y-29304D01*
X68151Y-28991D01*
X68151Y-28653D01*
X68035Y-28372D01*
X74147Y-28372D01*
X74207Y-28518D01*
X74404Y-28715D01*
X74661Y-28821D01*
X74940Y-28822D01*
X75197Y-28715D01*
X75394Y-28519D01*
X75422Y-28452D01*
X83530Y-28452D01*
X83557Y-28518D01*
X83754Y-28715D01*
X84011Y-28821D01*
X84289Y-28822D01*
X84547Y-28715D01*
X84744Y-28519D01*
X84851Y-28261D01*
X84851Y-27983D01*
X84744Y-27726D01*
X84548Y-27528D01*
X84291Y-27422D01*
X84012Y-27421D01*
X83755Y-27528D01*
X83736Y-27547D01*
X83736Y-26006D01*
X83647Y-25791D01*
X83482Y-25626D01*
X83268Y-25537D01*
X83035Y-25536D01*
X82820Y-25625D01*
X82655Y-25790D01*
X82566Y-26005D01*
X82566Y-26237D01*
X82654Y-26452D01*
X82819Y-26617D01*
X83034Y-26706D01*
X83267Y-26707D01*
X83482Y-26618D01*
X83646Y-26453D01*
X83736Y-26238D01*
X83736Y-26006D01*
X83736Y-27547D01*
X83558Y-27725D01*
X83530Y-27792D01*
X77513Y-27792D01*
X77697Y-27715D01*
X77894Y-27519D01*
X78001Y-27261D01*
X78001Y-26983D01*
X77895Y-26726D01*
X77876Y-26707D01*
X77917Y-26707D01*
X78132Y-26618D01*
X78297Y-26453D01*
X78386Y-26238D01*
X78386Y-26006D01*
X78297Y-25791D01*
X78133Y-25626D01*
X78076Y-25602D01*
X78377Y-25301D01*
X82461Y-25301D01*
X82510Y-25349D01*
X82674Y-25417D01*
X82851Y-25418D01*
X83016Y-25350D01*
X83142Y-25224D01*
X83210Y-25060D01*
X83210Y-25037D01*
X85651Y-25037D01*
X85777Y-25012D01*
X85884Y-24940D01*
X85956Y-24833D01*
X85981Y-24707D01*
X85981Y-24702D01*
X86093Y-24627D01*
X86228Y-24424D01*
X86276Y-24185D01*
X86276Y-24058D01*
X86228Y-23819D01*
X86093Y-23616D01*
X85890Y-23481D01*
X85780Y-23459D01*
X85954Y-23285D01*
X86026Y-23178D01*
X86026Y-23178D01*
X86051Y-23051D01*
X86051Y-20372D01*
X86026Y-20245D01*
X86026Y-20245D01*
X85954Y-20138D01*
X85494Y-19678D01*
X85441Y-19642D01*
X85651Y-19555D01*
X85894Y-19656D01*
X86001Y-19656D01*
X86001Y-19760D01*
X86107Y-20018D01*
X86304Y-20215D01*
X86561Y-20321D01*
X86840Y-20322D01*
X87097Y-20215D01*
X87151Y-20161D01*
X87204Y-20215D01*
X87461Y-20321D01*
X87740Y-20322D01*
X87997Y-20215D01*
X88194Y-20019D01*
X88301Y-19761D01*
X88301Y-19483D01*
X88195Y-19226D01*
X88176Y-19207D01*
X88217Y-19207D01*
X88432Y-19118D01*
X88597Y-18953D01*
X88686Y-18738D01*
X88686Y-18506D01*
X88686Y-3506D01*
X88597Y-3291D01*
X88433Y-3126D01*
X88218Y-3037D01*
X87985Y-3036D01*
X87770Y-3125D01*
X87605Y-3290D01*
X87516Y-3505D01*
X87516Y-3737D01*
X87592Y-3922D01*
X87462Y-3921D01*
X87205Y-4028D01*
X87136Y-4096D01*
X87136Y-3417D01*
X86979Y-3036D01*
X86688Y-2745D01*
X86308Y-2587D01*
X85896Y-2586D01*
X85516Y-2744D01*
X85224Y-3035D01*
X85066Y-3415D01*
X85066Y-3827D01*
X85223Y-4207D01*
X85514Y-4498D01*
X85894Y-4656D01*
X86306Y-4657D01*
X86687Y-4499D01*
X86978Y-4209D01*
X87136Y-3828D01*
X87136Y-3417D01*
X87136Y-4096D01*
X87008Y-4225D01*
X86901Y-4482D01*
X86901Y-4760D01*
X87007Y-5018D01*
X87204Y-5215D01*
X87461Y-5321D01*
X87740Y-5322D01*
X87997Y-5215D01*
X88194Y-5019D01*
X88301Y-4761D01*
X88301Y-4483D01*
X88195Y-4226D01*
X88176Y-4207D01*
X88217Y-4207D01*
X88432Y-4118D01*
X88597Y-3953D01*
X88686Y-3738D01*
X88686Y-3506D01*
X88686Y-18506D01*
X88597Y-18291D01*
X88433Y-18126D01*
X88218Y-18037D01*
X87985Y-18036D01*
X87770Y-18125D01*
X87651Y-18244D01*
X87533Y-18126D01*
X87318Y-18037D01*
X87085Y-18036D01*
X86995Y-18074D01*
X86979Y-18036D01*
X86688Y-17745D01*
X86308Y-17587D01*
X85896Y-17586D01*
X85651Y-17688D01*
X85408Y-17587D01*
X84996Y-17586D01*
X84616Y-17744D01*
X84324Y-18035D01*
X84308Y-18074D01*
X84218Y-18037D01*
X83985Y-18036D01*
X83770Y-18125D01*
X83651Y-18244D01*
X83533Y-18126D01*
X83318Y-18037D01*
X83085Y-18036D01*
X82870Y-18125D01*
X82705Y-18290D01*
X82616Y-18505D01*
X82616Y-18737D01*
X82705Y-18952D01*
X82869Y-19117D01*
X83084Y-19206D01*
X83317Y-19207D01*
X83532Y-19118D01*
X83651Y-18999D01*
X83769Y-19117D01*
X83984Y-19206D01*
X84217Y-19207D01*
X84307Y-19169D01*
X84323Y-19207D01*
X84614Y-19498D01*
X84814Y-19582D01*
X82857Y-19582D01*
X80793Y-17517D01*
X80686Y-17445D01*
X80559Y-17420D01*
X78466Y-17420D01*
X78322Y-17276D01*
X78390Y-17262D01*
X78593Y-17127D01*
X78645Y-17048D01*
X78745Y-17147D01*
X78852Y-17219D01*
X78852Y-17219D01*
X78978Y-17244D01*
X84379Y-17244D01*
X84396Y-17333D01*
X84468Y-17440D01*
X84575Y-17512D01*
X84701Y-17537D01*
X86601Y-17537D01*
X86727Y-17512D01*
X86834Y-17440D01*
X86906Y-17333D01*
X86931Y-17207D01*
X86931Y-17202D01*
X87043Y-17127D01*
X87178Y-16924D01*
X87226Y-16685D01*
X87226Y-16558D01*
X87178Y-16319D01*
X87043Y-16116D01*
X86840Y-15981D01*
X86601Y-15933D01*
X86362Y-15981D01*
X86273Y-16040D01*
X86218Y-15985D01*
X86126Y-15947D01*
X86027Y-15947D01*
X85927Y-15947D01*
X85886Y-15947D01*
X85886Y-11006D01*
X85797Y-10791D01*
X85633Y-10626D01*
X85418Y-10537D01*
X85185Y-10536D01*
X84970Y-10625D01*
X84805Y-10790D01*
X84716Y-11005D01*
X84716Y-11237D01*
X84792Y-11422D01*
X84662Y-11421D01*
X84405Y-11528D01*
X84336Y-11596D01*
X84336Y-10917D01*
X84179Y-10536D01*
X83888Y-10245D01*
X83508Y-10087D01*
X83096Y-10086D01*
X82716Y-10244D01*
X82424Y-10535D01*
X82266Y-10915D01*
X82266Y-11327D01*
X82423Y-11707D01*
X82714Y-11998D01*
X83094Y-12156D01*
X83506Y-12157D01*
X83887Y-11999D01*
X84178Y-11709D01*
X84336Y-11328D01*
X84336Y-10917D01*
X84336Y-11596D01*
X84208Y-11725D01*
X84101Y-11982D01*
X84101Y-12260D01*
X84207Y-12518D01*
X84404Y-12715D01*
X84661Y-12821D01*
X84940Y-12822D01*
X85197Y-12715D01*
X85394Y-12519D01*
X85501Y-12261D01*
X85501Y-11983D01*
X85395Y-11726D01*
X85376Y-11707D01*
X85417Y-11707D01*
X85632Y-11618D01*
X85797Y-11453D01*
X85886Y-11238D01*
X85886Y-11006D01*
X85886Y-15947D01*
X85277Y-15947D01*
X85177Y-15947D01*
X85085Y-15984D01*
X85029Y-16040D01*
X84940Y-15981D01*
X84701Y-15933D01*
X84462Y-15981D01*
X84259Y-16116D01*
X84124Y-16319D01*
X84076Y-16558D01*
X84076Y-16584D01*
X79115Y-16584D01*
X78919Y-16388D01*
X78812Y-16317D01*
X78713Y-16297D01*
X78593Y-16116D01*
X78390Y-15981D01*
X78151Y-15933D01*
X77912Y-15981D01*
X77791Y-16062D01*
X77788Y-16055D01*
X77718Y-15985D01*
X77626Y-15947D01*
X77527Y-15947D01*
X77476Y-15947D01*
X76777Y-15947D01*
X76726Y-15947D01*
X76634Y-15984D01*
X76564Y-16055D01*
X76561Y-16062D01*
X76440Y-15981D01*
X76201Y-15933D01*
X75962Y-15981D01*
X75759Y-16116D01*
X75642Y-16292D01*
X70260Y-16292D01*
X70143Y-16116D01*
X69940Y-15981D01*
X69701Y-15933D01*
X69462Y-15981D01*
X69302Y-16088D01*
X69288Y-16055D01*
X69218Y-15985D01*
X69126Y-15947D01*
X69027Y-15947D01*
X68277Y-15947D01*
X68185Y-15984D01*
X68114Y-16055D01*
X68076Y-16147D01*
X68076Y-16246D01*
X68076Y-17096D01*
X68114Y-17188D01*
X68184Y-17258D01*
X68276Y-17297D01*
X68376Y-17297D01*
X69126Y-17297D01*
X69218Y-17259D01*
X69288Y-17188D01*
X69302Y-17155D01*
X69462Y-17262D01*
X69701Y-17310D01*
X69940Y-17262D01*
X70143Y-17127D01*
X70260Y-16952D01*
X75642Y-16952D01*
X75759Y-17127D01*
X75962Y-17262D01*
X76201Y-17310D01*
X76440Y-17262D01*
X76561Y-17182D01*
X76564Y-17188D01*
X76634Y-17258D01*
X76726Y-17297D01*
X76825Y-17297D01*
X76876Y-17297D01*
X77409Y-17297D01*
X77699Y-17587D01*
X77446Y-17586D01*
X77176Y-17698D01*
X76908Y-17587D01*
X76496Y-17586D01*
X76116Y-17744D01*
X75824Y-18035D01*
X75815Y-18056D01*
X75768Y-18037D01*
X75535Y-18036D01*
X75320Y-18125D01*
X75176Y-18269D01*
X75033Y-18126D01*
X74818Y-18037D01*
X74585Y-18036D01*
X74370Y-18125D01*
X74205Y-18290D01*
X74116Y-18505D01*
X74116Y-18737D01*
X74205Y-18952D01*
X74369Y-19117D01*
X74584Y-19206D01*
X74817Y-19207D01*
X75032Y-19118D01*
X75176Y-18974D01*
X75319Y-19117D01*
X75534Y-19206D01*
X75767Y-19207D01*
X75815Y-19187D01*
X75823Y-19207D01*
X76114Y-19498D01*
X76494Y-19656D01*
X76906Y-19657D01*
X77176Y-19545D01*
X77444Y-19656D01*
X77501Y-19656D01*
X77501Y-19760D01*
X77607Y-20018D01*
X77804Y-20215D01*
X77989Y-20292D01*
X77272Y-20292D01*
X77244Y-20226D01*
X77048Y-20028D01*
X76791Y-19922D01*
X76512Y-19921D01*
X76255Y-20028D01*
X76176Y-20106D01*
X76098Y-20028D01*
X75841Y-19922D01*
X75562Y-19921D01*
X75305Y-20028D01*
X75108Y-20225D01*
X75080Y-20292D01*
X70913Y-20292D01*
X71097Y-20215D01*
X71294Y-20019D01*
X71401Y-19761D01*
X71401Y-19483D01*
X71295Y-19226D01*
X71276Y-19207D01*
X71317Y-19207D01*
X71532Y-19118D01*
X71697Y-18953D01*
X71786Y-18738D01*
X71786Y-18506D01*
X71697Y-18291D01*
X71533Y-18126D01*
X71318Y-18037D01*
X71085Y-18036D01*
X70870Y-18125D01*
X70705Y-18290D01*
X70616Y-18505D01*
X70616Y-18737D01*
X70692Y-18922D01*
X70562Y-18921D01*
X70305Y-19028D01*
X70236Y-19096D01*
X70236Y-18417D01*
X70079Y-18036D01*
X69788Y-17745D01*
X69408Y-17587D01*
X68996Y-17586D01*
X68616Y-17744D01*
X68324Y-18035D01*
X68166Y-18415D01*
X68166Y-18827D01*
X68323Y-19207D01*
X68614Y-19498D01*
X68994Y-19656D01*
X69406Y-19657D01*
X69787Y-19499D01*
X70078Y-19209D01*
X70236Y-18828D01*
X70236Y-18417D01*
X70236Y-19096D01*
X70108Y-19225D01*
X70001Y-19482D01*
X70001Y-19760D01*
X70107Y-20018D01*
X70304Y-20215D01*
X70489Y-20292D01*
X68822Y-20292D01*
X68795Y-20226D01*
X68598Y-20028D01*
X68341Y-19922D01*
X68062Y-19921D01*
X67805Y-20028D01*
X67786Y-20047D01*
X67786Y-18506D01*
X67697Y-18291D01*
X67533Y-18126D01*
X67318Y-18037D01*
X67085Y-18036D01*
X66870Y-18125D01*
X66705Y-18290D01*
X66616Y-18505D01*
X66616Y-18737D01*
X66705Y-18952D01*
X66869Y-19117D01*
X67084Y-19206D01*
X67317Y-19207D01*
X67532Y-19118D01*
X67697Y-18953D01*
X67786Y-18738D01*
X67786Y-18506D01*
X67786Y-20047D01*
X67608Y-20225D01*
X67580Y-20292D01*
X63413Y-20292D01*
X63597Y-20215D01*
X63794Y-20019D01*
X63901Y-19761D01*
X63901Y-19483D01*
X63795Y-19226D01*
X63776Y-19207D01*
X63817Y-19207D01*
X64032Y-19118D01*
X64197Y-18953D01*
X64286Y-18738D01*
X64286Y-18506D01*
X64197Y-18291D01*
X64033Y-18126D01*
X63818Y-18037D01*
X63585Y-18036D01*
X63370Y-18125D01*
X63205Y-18290D01*
X63116Y-18505D01*
X63116Y-18737D01*
X63192Y-18922D01*
X63062Y-18921D01*
X62805Y-19028D01*
X62608Y-19225D01*
X62501Y-19482D01*
X62501Y-19760D01*
X62607Y-20018D01*
X62804Y-20215D01*
X62989Y-20292D01*
X61322Y-20292D01*
X61295Y-20226D01*
X61098Y-20028D01*
X60841Y-19922D01*
X60562Y-19921D01*
X60305Y-20028D01*
X60286Y-20047D01*
X60286Y-18506D01*
X60197Y-18291D01*
X60033Y-18126D01*
X59818Y-18037D01*
X59585Y-18036D01*
X59370Y-18125D01*
X59205Y-18290D01*
X59116Y-18505D01*
X59116Y-18737D01*
X59205Y-18952D01*
X59369Y-19117D01*
X59584Y-19206D01*
X59817Y-19207D01*
X60032Y-19118D01*
X60197Y-18953D01*
X60286Y-18738D01*
X60286Y-18506D01*
X60286Y-20047D01*
X60108Y-20225D01*
X60001Y-20482D01*
X60001Y-20707D01*
X56329Y-20707D01*
X59099Y-17937D01*
X60922Y-17937D01*
X60824Y-18035D01*
X60666Y-18415D01*
X60666Y-18827D01*
X60823Y-19207D01*
X61114Y-19498D01*
X61494Y-19656D01*
X61906Y-19657D01*
X62287Y-19499D01*
X62578Y-19209D01*
X62736Y-18828D01*
X62736Y-18417D01*
X62579Y-18036D01*
X62480Y-17937D01*
X65685Y-17937D01*
X65811Y-17911D01*
X65811Y-17911D01*
X65918Y-17840D01*
X69992Y-13766D01*
X70061Y-13766D01*
X70225Y-13698D01*
X70351Y-13572D01*
X70419Y-13408D01*
X70419Y-13281D01*
X71310Y-13281D01*
X71407Y-13518D01*
X71604Y-13715D01*
X71861Y-13821D01*
X72140Y-13822D01*
X72397Y-13715D01*
X72594Y-13519D01*
X72622Y-13452D01*
X81680Y-13452D01*
X81707Y-13518D01*
X81904Y-13715D01*
X82161Y-13821D01*
X82440Y-13822D01*
X82697Y-13715D01*
X82894Y-13519D01*
X83001Y-13261D01*
X83001Y-12983D01*
X82895Y-12726D01*
X82698Y-12528D01*
X82441Y-12422D01*
X82162Y-12421D01*
X81905Y-12528D01*
X81886Y-12547D01*
X81886Y-11006D01*
X81797Y-10791D01*
X81633Y-10626D01*
X81418Y-10537D01*
X81185Y-10536D01*
X80970Y-10625D01*
X80805Y-10790D01*
X80716Y-11005D01*
X80716Y-11237D01*
X80805Y-11452D01*
X80969Y-11617D01*
X81184Y-11706D01*
X81417Y-11707D01*
X81632Y-11618D01*
X81797Y-11453D01*
X81886Y-11238D01*
X81886Y-11006D01*
X81886Y-12547D01*
X81708Y-12725D01*
X81680Y-12792D01*
X80329Y-12792D01*
X80329Y-10799D01*
X80082Y-10201D01*
X79624Y-9742D01*
X79026Y-9494D01*
X78379Y-9493D01*
X77780Y-9741D01*
X77322Y-10198D01*
X77073Y-10796D01*
X77073Y-11444D01*
X77320Y-12043D01*
X77778Y-12501D01*
X78376Y-12749D01*
X79023Y-12750D01*
X79622Y-12503D01*
X80080Y-12045D01*
X80329Y-11447D01*
X80329Y-10799D01*
X80329Y-12792D01*
X74713Y-12792D01*
X74897Y-12715D01*
X75094Y-12519D01*
X75201Y-12261D01*
X75201Y-11983D01*
X75095Y-11726D01*
X75076Y-11707D01*
X75117Y-11707D01*
X75332Y-11618D01*
X75497Y-11453D01*
X75586Y-11238D01*
X75586Y-11006D01*
X75497Y-10791D01*
X75333Y-10626D01*
X75118Y-10537D01*
X74885Y-10536D01*
X74670Y-10625D01*
X74505Y-10790D01*
X74416Y-11005D01*
X74416Y-11237D01*
X74492Y-11422D01*
X74362Y-11421D01*
X74105Y-11528D01*
X74036Y-11596D01*
X74036Y-10917D01*
X73879Y-10536D01*
X73588Y-10245D01*
X73208Y-10087D01*
X72796Y-10086D01*
X72416Y-10244D01*
X72124Y-10535D01*
X71966Y-10915D01*
X71966Y-11327D01*
X72123Y-11707D01*
X72414Y-11998D01*
X72794Y-12156D01*
X73206Y-12157D01*
X73587Y-11999D01*
X73878Y-11709D01*
X74036Y-11328D01*
X74036Y-10917D01*
X74036Y-11596D01*
X73908Y-11725D01*
X73801Y-11982D01*
X73801Y-12260D01*
X73907Y-12518D01*
X74104Y-12715D01*
X74289Y-12792D01*
X72622Y-12792D01*
X72595Y-12726D01*
X72398Y-12528D01*
X72141Y-12422D01*
X71862Y-12421D01*
X71605Y-12528D01*
X71586Y-12547D01*
X71586Y-11006D01*
X71497Y-10791D01*
X71333Y-10626D01*
X71118Y-10537D01*
X70885Y-10536D01*
X70670Y-10625D01*
X70505Y-10790D01*
X70416Y-11005D01*
X70416Y-11237D01*
X70505Y-11452D01*
X70669Y-11617D01*
X70884Y-11706D01*
X71117Y-11707D01*
X71332Y-11618D01*
X71497Y-11453D01*
X71586Y-11238D01*
X71586Y-11006D01*
X71586Y-12547D01*
X71512Y-12621D01*
X67492Y-12621D01*
X67594Y-12519D01*
X67701Y-12261D01*
X67701Y-11983D01*
X67595Y-11726D01*
X67576Y-11707D01*
X67617Y-11707D01*
X67832Y-11618D01*
X67997Y-11453D01*
X68086Y-11238D01*
X68086Y-11006D01*
X67997Y-10791D01*
X67833Y-10626D01*
X67618Y-10537D01*
X67385Y-10536D01*
X67170Y-10625D01*
X67005Y-10790D01*
X66916Y-11005D01*
X66916Y-11237D01*
X66992Y-11422D01*
X66862Y-11421D01*
X66605Y-11528D01*
X66536Y-11596D01*
X66536Y-10917D01*
X66379Y-10536D01*
X66088Y-10245D01*
X65708Y-10087D01*
X65296Y-10086D01*
X64916Y-10244D01*
X64624Y-10535D01*
X64466Y-10915D01*
X64466Y-11327D01*
X64623Y-11707D01*
X64914Y-11998D01*
X65294Y-12156D01*
X65706Y-12157D01*
X66087Y-11999D01*
X66378Y-11709D01*
X66536Y-11328D01*
X66536Y-10917D01*
X66536Y-11596D01*
X66408Y-11725D01*
X66301Y-11982D01*
X66301Y-12260D01*
X66407Y-12518D01*
X66511Y-12621D01*
X64990Y-12621D01*
X64898Y-12528D01*
X64641Y-12422D01*
X64362Y-12421D01*
X64105Y-12528D01*
X64086Y-12547D01*
X64086Y-11006D01*
X63997Y-10791D01*
X63833Y-10626D01*
X63618Y-10537D01*
X63385Y-10536D01*
X63170Y-10625D01*
X63005Y-10790D01*
X62916Y-11005D01*
X62916Y-11237D01*
X63005Y-11452D01*
X63169Y-11617D01*
X63384Y-11706D01*
X63617Y-11707D01*
X63832Y-11618D01*
X63997Y-11453D01*
X64086Y-11238D01*
X64086Y-11006D01*
X64086Y-12547D01*
X63908Y-12725D01*
X63880Y-12792D01*
X60666Y-12792D01*
X60713Y-12745D01*
X60781Y-12581D01*
X60781Y-12540D01*
X61856Y-11465D01*
X61932Y-11351D01*
X61958Y-11217D01*
X61958Y-10619D01*
X61987Y-10591D01*
X62055Y-10427D01*
X62055Y-10249D01*
X61987Y-10084D01*
X61940Y-10037D01*
X66001Y-10037D01*
X73207Y-10037D01*
X73333Y-10012D01*
X73333Y-10012D01*
X73440Y-9940D01*
X73588Y-9793D01*
X73740Y-9762D01*
X73943Y-9627D01*
X74078Y-9424D01*
X74109Y-9271D01*
X74514Y-8866D01*
X82176Y-8866D01*
X82176Y-9596D01*
X82214Y-9688D01*
X82284Y-9758D01*
X82376Y-9797D01*
X82476Y-9797D01*
X83226Y-9797D01*
X83318Y-9759D01*
X83388Y-9688D01*
X83402Y-9655D01*
X83562Y-9762D01*
X83801Y-9810D01*
X84040Y-9762D01*
X84243Y-9627D01*
X84378Y-9424D01*
X84426Y-9185D01*
X84426Y-9058D01*
X84378Y-8819D01*
X84243Y-8616D01*
X84131Y-8542D01*
X84131Y-8536D01*
X84106Y-8410D01*
X84034Y-8303D01*
X83927Y-8232D01*
X83801Y-8206D01*
X74377Y-8206D01*
X74251Y-8232D01*
X74144Y-8303D01*
X73876Y-8571D01*
X73740Y-8481D01*
X73501Y-8433D01*
X73262Y-8481D01*
X73102Y-8588D01*
X73088Y-8555D01*
X73018Y-8485D01*
X72926Y-8447D01*
X72827Y-8447D01*
X72077Y-8447D01*
X71985Y-8484D01*
X71914Y-8555D01*
X71900Y-8589D01*
X69810Y-6499D01*
X69810Y-6258D01*
X69961Y-6321D01*
X70240Y-6322D01*
X70497Y-6215D01*
X70694Y-6019D01*
X70722Y-5952D01*
X76980Y-5952D01*
X77007Y-6018D01*
X77204Y-6215D01*
X77461Y-6321D01*
X77740Y-6322D01*
X77997Y-6215D01*
X78194Y-6019D01*
X78222Y-5952D01*
X84480Y-5952D01*
X84507Y-6018D01*
X84704Y-6215D01*
X84961Y-6321D01*
X85240Y-6322D01*
X85497Y-6215D01*
X85694Y-6019D01*
X85801Y-5761D01*
X85801Y-5483D01*
X85695Y-5226D01*
X85498Y-5028D01*
X85241Y-4922D01*
X84962Y-4921D01*
X84705Y-5028D01*
X84686Y-5047D01*
X84686Y-3506D01*
X84597Y-3291D01*
X84433Y-3126D01*
X84218Y-3037D01*
X83985Y-3036D01*
X83770Y-3125D01*
X83605Y-3290D01*
X83516Y-3505D01*
X83516Y-3737D01*
X83605Y-3952D01*
X83769Y-4117D01*
X83984Y-4206D01*
X84217Y-4207D01*
X84432Y-4118D01*
X84597Y-3953D01*
X84686Y-3738D01*
X84686Y-3506D01*
X84686Y-5047D01*
X84508Y-5225D01*
X84480Y-5292D01*
X80313Y-5292D01*
X80497Y-5215D01*
X80694Y-5019D01*
X80801Y-4761D01*
X80801Y-4483D01*
X80695Y-4226D01*
X80676Y-4207D01*
X80717Y-4207D01*
X80932Y-4118D01*
X81097Y-3953D01*
X81186Y-3738D01*
X81186Y-3506D01*
X81097Y-3291D01*
X80933Y-3126D01*
X80718Y-3037D01*
X80485Y-3036D01*
X80270Y-3125D01*
X80105Y-3290D01*
X80016Y-3505D01*
X80016Y-3737D01*
X80092Y-3922D01*
X79962Y-3921D01*
X79705Y-4028D01*
X79636Y-4096D01*
X79636Y-3417D01*
X79479Y-3036D01*
X79188Y-2745D01*
X78808Y-2587D01*
X78396Y-2586D01*
X78016Y-2744D01*
X77724Y-3035D01*
X77566Y-3415D01*
X77566Y-3827D01*
X77723Y-4207D01*
X78014Y-4498D01*
X78394Y-4656D01*
X78806Y-4657D01*
X79187Y-4499D01*
X79478Y-4209D01*
X79636Y-3828D01*
X79636Y-3417D01*
X79636Y-4096D01*
X79508Y-4225D01*
X79401Y-4482D01*
X79401Y-4760D01*
X79507Y-5018D01*
X79704Y-5215D01*
X79889Y-5292D01*
X78222Y-5292D01*
X78195Y-5226D01*
X77998Y-5028D01*
X77741Y-4922D01*
X77462Y-4921D01*
X77205Y-5028D01*
X77186Y-5047D01*
X77186Y-3506D01*
X77097Y-3291D01*
X76933Y-3126D01*
X76718Y-3037D01*
X76485Y-3036D01*
X76270Y-3125D01*
X76105Y-3290D01*
X76016Y-3505D01*
X76016Y-3737D01*
X76105Y-3952D01*
X76269Y-4117D01*
X76484Y-4206D01*
X76717Y-4207D01*
X76932Y-4118D01*
X77097Y-3953D01*
X77186Y-3738D01*
X77186Y-3506D01*
X77186Y-5047D01*
X77008Y-5225D01*
X76980Y-5292D01*
X72813Y-5292D01*
X72997Y-5215D01*
X73194Y-5019D01*
X73301Y-4761D01*
X73301Y-4483D01*
X73195Y-4226D01*
X73176Y-4207D01*
X73217Y-4207D01*
X73432Y-4118D01*
X73597Y-3953D01*
X73686Y-3738D01*
X73686Y-3506D01*
X73597Y-3291D01*
X73433Y-3126D01*
X73218Y-3037D01*
X72985Y-3036D01*
X72770Y-3125D01*
X72605Y-3290D01*
X72516Y-3505D01*
X72516Y-3737D01*
X72592Y-3922D01*
X72462Y-3921D01*
X72205Y-4028D01*
X72008Y-4225D01*
X71901Y-4482D01*
X71901Y-4760D01*
X72007Y-5018D01*
X72204Y-5215D01*
X72389Y-5292D01*
X70722Y-5292D01*
X70695Y-5226D01*
X70498Y-5028D01*
X70241Y-4922D01*
X70153Y-4922D01*
X70299Y-4775D01*
X70299Y-4775D01*
X70299Y-4775D01*
X70371Y-4668D01*
X70371Y-4668D01*
X70391Y-4567D01*
X70396Y-4542D01*
X70396Y-4542D01*
X70396Y-4542D01*
X70396Y-4380D01*
X70514Y-4498D01*
X70894Y-4656D01*
X71306Y-4657D01*
X71687Y-4499D01*
X71978Y-4209D01*
X72136Y-3828D01*
X72136Y-3417D01*
X71979Y-3036D01*
X71688Y-2745D01*
X71308Y-2587D01*
X70896Y-2586D01*
X70516Y-2744D01*
X70396Y-2863D01*
X70396Y-2297D01*
X71026Y-2297D01*
X71118Y-2259D01*
X71188Y-2188D01*
X71202Y-2155D01*
X71362Y-2262D01*
X71601Y-2310D01*
X71840Y-2262D01*
X72043Y-2127D01*
X72096Y-2048D01*
X72488Y-2440D01*
X72595Y-2512D01*
X72595Y-2512D01*
X72721Y-2537D01*
X79101Y-2537D01*
X79227Y-2512D01*
X79334Y-2440D01*
X79406Y-2333D01*
X79431Y-2207D01*
X79431Y-2202D01*
X79543Y-2127D01*
X79678Y-1924D01*
X79726Y-1685D01*
X79726Y-1558D01*
X79678Y-1319D01*
X79543Y-1116D01*
X79340Y-981D01*
X79101Y-933D01*
X78862Y-981D01*
X78702Y-1088D01*
X78688Y-1055D01*
X78618Y-985D01*
X78526Y-947D01*
X78427Y-947D01*
X77677Y-947D01*
X77585Y-984D01*
X77514Y-1055D01*
X77500Y-1089D01*
X77286Y-875D01*
X83853Y-875D01*
X84833Y-1855D01*
X84940Y-1926D01*
X84940Y-1926D01*
X84976Y-1934D01*
X84976Y-2096D01*
X85014Y-2188D01*
X85084Y-2258D01*
X85176Y-2297D01*
X85276Y-2297D01*
X86026Y-2297D01*
X86118Y-2259D01*
X86188Y-2188D01*
X86202Y-2155D01*
X86362Y-2262D01*
X86601Y-2310D01*
X86840Y-2262D01*
X87043Y-2127D01*
X87178Y-1924D01*
X87226Y-1685D01*
X87226Y-1558D01*
X87178Y-1319D01*
X87043Y-1116D01*
X86840Y-981D01*
X86601Y-933D01*
X86362Y-981D01*
X86202Y-1088D01*
X86188Y-1055D01*
X86118Y-985D01*
X86026Y-947D01*
X85927Y-947D01*
X85177Y-947D01*
X85085Y-984D01*
X85014Y-1055D01*
X85000Y-1089D01*
X84223Y-312D01*
X84117Y-241D01*
X88957Y-241D01*
X88949Y-264D01*
X88962Y-442D01*
X89005Y-547D01*
X89090Y-562D01*
X89330Y-322D01*
X89325Y-316D01*
X89396Y-245D01*
X89401Y-251D01*
X89407Y-245D01*
X89477Y-316D01*
X89472Y-322D01*
X89477Y-327D01*
X89407Y-398D01*
X89401Y-392D01*
X89161Y-633D01*
X89175Y-717D01*
X89344Y-774D01*
X89481Y-764D01*
X89481Y-21009D01*
X88043Y-21009D01*
X87571Y-21103D01*
X87170Y-21371D01*
X86903Y-21771D01*
X86809Y-22244D01*
X86903Y-22716D01*
X87170Y-23117D01*
X87571Y-23384D01*
X88043Y-23478D01*
X89481Y-23478D01*
X89481Y-29027D01*
X89481Y-29027D01*
G37*
G54D25*
X89481Y-29027D02*
X89458Y-29020D01*
X89281Y-29032D01*
X89175Y-29076D01*
X89161Y-29160D01*
X89401Y-29401D01*
X89407Y-29395D01*
X89477Y-29466D01*
X89472Y-29472D01*
X89477Y-29477D01*
X89407Y-29548D01*
X89401Y-29542D01*
X89396Y-29548D01*
X89325Y-29477D01*
X89330Y-29472D01*
X89090Y-29231D01*
X89005Y-29246D01*
X88949Y-29414D01*
X88959Y-29552D01*
X87736Y-29552D01*
X87736Y-26006D01*
X87647Y-25791D01*
X87482Y-25626D01*
X87268Y-25537D01*
X87035Y-25536D01*
X86820Y-25625D01*
X86655Y-25790D01*
X86566Y-26005D01*
X86566Y-26237D01*
X86642Y-26422D01*
X86512Y-26421D01*
X86255Y-26528D01*
X86186Y-26596D01*
X86186Y-25917D01*
X86029Y-25536D01*
X85738Y-25245D01*
X85357Y-25087D01*
X84946Y-25086D01*
X84565Y-25244D01*
X84274Y-25535D01*
X84116Y-25915D01*
X84116Y-26327D01*
X84273Y-26707D01*
X84564Y-26998D01*
X84944Y-27156D01*
X85356Y-27157D01*
X85736Y-26999D01*
X86028Y-26709D01*
X86186Y-26328D01*
X86186Y-25917D01*
X86186Y-26596D01*
X86058Y-26725D01*
X85951Y-26982D01*
X85951Y-27260D01*
X86057Y-27518D01*
X86254Y-27715D01*
X86511Y-27821D01*
X86789Y-27822D01*
X87047Y-27715D01*
X87244Y-27519D01*
X87351Y-27261D01*
X87351Y-26983D01*
X87244Y-26726D01*
X87226Y-26707D01*
X87267Y-26707D01*
X87482Y-26618D01*
X87646Y-26453D01*
X87736Y-26238D01*
X87736Y-26006D01*
X87736Y-29552D01*
X67759Y-29552D01*
X67782Y-29543D01*
X68021Y-29304D01*
X68151Y-28991D01*
X68151Y-28653D01*
X68035Y-28372D01*
X74147Y-28372D01*
X74207Y-28518D01*
X74404Y-28715D01*
X74661Y-28821D01*
X74940Y-28822D01*
X75197Y-28715D01*
X75394Y-28519D01*
X75422Y-28452D01*
X83530Y-28452D01*
X83557Y-28518D01*
X83754Y-28715D01*
X84011Y-28821D01*
X84289Y-28822D01*
X84547Y-28715D01*
X84744Y-28519D01*
X84851Y-28261D01*
X84851Y-27983D01*
X84744Y-27726D01*
X84548Y-27528D01*
X84291Y-27422D01*
X84012Y-27421D01*
X83755Y-27528D01*
X83736Y-27547D01*
X83736Y-26006D01*
X83647Y-25791D01*
X83482Y-25626D01*
X83268Y-25537D01*
X83035Y-25536D01*
X82820Y-25625D01*
X82655Y-25790D01*
X82566Y-26005D01*
X82566Y-26237D01*
X82654Y-26452D01*
X82819Y-26617D01*
X83034Y-26706D01*
X83267Y-26707D01*
X83482Y-26618D01*
X83646Y-26453D01*
X83736Y-26238D01*
X83736Y-26006D01*
X83736Y-27547D01*
X83558Y-27725D01*
X83530Y-27792D01*
X77513Y-27792D01*
X77697Y-27715D01*
X77894Y-27519D01*
X78001Y-27261D01*
X78001Y-26983D01*
X77895Y-26726D01*
X77876Y-26707D01*
X77917Y-26707D01*
X78132Y-26618D01*
X78297Y-26453D01*
X78386Y-26238D01*
X78386Y-26006D01*
X78297Y-25791D01*
X78133Y-25626D01*
X78076Y-25602D01*
X78377Y-25301D01*
X82461Y-25301D01*
X82510Y-25349D01*
X82674Y-25417D01*
X82851Y-25418D01*
X83016Y-25350D01*
X83142Y-25224D01*
X83210Y-25060D01*
X83210Y-25037D01*
X85651Y-25037D01*
X85777Y-25012D01*
X85884Y-24940D01*
X85956Y-24833D01*
X85981Y-24707D01*
X85981Y-24702D01*
X86093Y-24627D01*
X86228Y-24424D01*
X86276Y-24185D01*
X86276Y-24058D01*
X86228Y-23819D01*
X86093Y-23616D01*
X85890Y-23481D01*
X85780Y-23459D01*
X85954Y-23285D01*
X86026Y-23178D01*
X86026Y-23178D01*
X86051Y-23051D01*
X86051Y-20372D01*
X86026Y-20245D01*
X86026Y-20245D01*
X85954Y-20138D01*
X85494Y-19678D01*
X85441Y-19642D01*
X85651Y-19555D01*
X85894Y-19656D01*
X86001Y-19656D01*
X86001Y-19760D01*
X86107Y-20018D01*
X86304Y-20215D01*
X86561Y-20321D01*
X86840Y-20322D01*
X87097Y-20215D01*
X87151Y-20161D01*
X87204Y-20215D01*
X87461Y-20321D01*
X87740Y-20322D01*
X87997Y-20215D01*
X88194Y-20019D01*
X88301Y-19761D01*
X88301Y-19483D01*
X88195Y-19226D01*
X88176Y-19207D01*
X88217Y-19207D01*
X88432Y-19118D01*
X88597Y-18953D01*
X88686Y-18738D01*
X88686Y-18506D01*
X88686Y-3506D01*
X88597Y-3291D01*
X88433Y-3126D01*
X88218Y-3037D01*
X87985Y-3036D01*
X87770Y-3125D01*
X87605Y-3290D01*
X87516Y-3505D01*
X87516Y-3737D01*
X87592Y-3922D01*
X87462Y-3921D01*
X87205Y-4028D01*
X87136Y-4096D01*
X87136Y-3417D01*
X86979Y-3036D01*
X86688Y-2745D01*
X86308Y-2587D01*
X85896Y-2586D01*
X85516Y-2744D01*
X85224Y-3035D01*
X85066Y-3415D01*
X85066Y-3827D01*
X85223Y-4207D01*
X85514Y-4498D01*
X85894Y-4656D01*
X86306Y-4657D01*
X86687Y-4499D01*
X86978Y-4209D01*
X87136Y-3828D01*
X87136Y-3417D01*
X87136Y-4096D01*
X87008Y-4225D01*
X86901Y-4482D01*
X86901Y-4760D01*
X87007Y-5018D01*
X87204Y-5215D01*
X87461Y-5321D01*
X87740Y-5322D01*
X87997Y-5215D01*
X88194Y-5019D01*
X88301Y-4761D01*
X88301Y-4483D01*
X88195Y-4226D01*
X88176Y-4207D01*
X88217Y-4207D01*
X88432Y-4118D01*
X88597Y-3953D01*
X88686Y-3738D01*
X88686Y-3506D01*
X88686Y-18506D01*
X88597Y-18291D01*
X88433Y-18126D01*
X88218Y-18037D01*
X87985Y-18036D01*
X87770Y-18125D01*
X87651Y-18244D01*
X87533Y-18126D01*
X87318Y-18037D01*
X87085Y-18036D01*
X86995Y-18074D01*
X86979Y-18036D01*
X86688Y-17745D01*
X86308Y-17587D01*
X85896Y-17586D01*
X85651Y-17688D01*
X85408Y-17587D01*
X84996Y-17586D01*
X84616Y-17744D01*
X84324Y-18035D01*
X84308Y-18074D01*
X84218Y-18037D01*
X83985Y-18036D01*
X83770Y-18125D01*
X83651Y-18244D01*
X83533Y-18126D01*
X83318Y-18037D01*
X83085Y-18036D01*
X82870Y-18125D01*
X82705Y-18290D01*
X82616Y-18505D01*
X82616Y-18737D01*
X82705Y-18952D01*
X82869Y-19117D01*
X83084Y-19206D01*
X83317Y-19207D01*
X83532Y-19118D01*
X83651Y-18999D01*
X83769Y-19117D01*
X83984Y-19206D01*
X84217Y-19207D01*
X84307Y-19169D01*
X84323Y-19207D01*
X84614Y-19498D01*
X84814Y-19582D01*
X82857Y-19582D01*
X80793Y-17517D01*
X80686Y-17445D01*
X80559Y-17420D01*
X78466Y-17420D01*
X78322Y-17276D01*
X78390Y-17262D01*
X78593Y-17127D01*
X78645Y-17048D01*
X78745Y-17147D01*
X78852Y-17219D01*
X78852Y-17219D01*
X78978Y-17244D01*
X84379Y-17244D01*
X84396Y-17333D01*
X84468Y-17440D01*
X84575Y-17512D01*
X84701Y-17537D01*
X86601Y-17537D01*
X86727Y-17512D01*
X86834Y-17440D01*
X86906Y-17333D01*
X86931Y-17207D01*
X86931Y-17202D01*
X87043Y-17127D01*
X87178Y-16924D01*
X87226Y-16685D01*
X87226Y-16558D01*
X87178Y-16319D01*
X87043Y-16116D01*
X86840Y-15981D01*
X86601Y-15933D01*
X86362Y-15981D01*
X86273Y-16040D01*
X86218Y-15985D01*
X86126Y-15947D01*
X86027Y-15947D01*
X85927Y-15947D01*
X85886Y-15947D01*
X85886Y-11006D01*
X85797Y-10791D01*
X85633Y-10626D01*
X85418Y-10537D01*
X85185Y-10536D01*
X84970Y-10625D01*
X84805Y-10790D01*
X84716Y-11005D01*
X84716Y-11237D01*
X84792Y-11422D01*
X84662Y-11421D01*
X84405Y-11528D01*
X84336Y-11596D01*
X84336Y-10917D01*
X84179Y-10536D01*
X83888Y-10245D01*
X83508Y-10087D01*
X83096Y-10086D01*
X82716Y-10244D01*
X82424Y-10535D01*
X82266Y-10915D01*
X82266Y-11327D01*
X82423Y-11707D01*
X82714Y-11998D01*
X83094Y-12156D01*
X83506Y-12157D01*
X83887Y-11999D01*
X84178Y-11709D01*
X84336Y-11328D01*
X84336Y-10917D01*
X84336Y-11596D01*
X84208Y-11725D01*
X84101Y-11982D01*
X84101Y-12260D01*
X84207Y-12518D01*
X84404Y-12715D01*
X84661Y-12821D01*
X84940Y-12822D01*
X85197Y-12715D01*
X85394Y-12519D01*
X85501Y-12261D01*
X85501Y-11983D01*
X85395Y-11726D01*
X85376Y-11707D01*
X85417Y-11707D01*
X85632Y-11618D01*
X85797Y-11453D01*
X85886Y-11238D01*
X85886Y-11006D01*
X85886Y-15947D01*
X85277Y-15947D01*
X85177Y-15947D01*
X85085Y-15984D01*
X85029Y-16040D01*
X84940Y-15981D01*
X84701Y-15933D01*
X84462Y-15981D01*
X84259Y-16116D01*
X84124Y-16319D01*
X84076Y-16558D01*
X84076Y-16584D01*
X79115Y-16584D01*
X78919Y-16388D01*
X78812Y-16317D01*
X78713Y-16297D01*
X78593Y-16116D01*
X78390Y-15981D01*
X78151Y-15933D01*
X77912Y-15981D01*
X77791Y-16062D01*
X77788Y-16055D01*
X77718Y-15985D01*
X77626Y-15947D01*
X77527Y-15947D01*
X77476Y-15947D01*
X76777Y-15947D01*
X76726Y-15947D01*
X76634Y-15984D01*
X76564Y-16055D01*
X76561Y-16062D01*
X76440Y-15981D01*
X76201Y-15933D01*
X75962Y-15981D01*
X75759Y-16116D01*
X75642Y-16292D01*
X70260Y-16292D01*
X70143Y-16116D01*
X69940Y-15981D01*
X69701Y-15933D01*
X69462Y-15981D01*
X69302Y-16088D01*
X69288Y-16055D01*
X69218Y-15985D01*
X69126Y-15947D01*
X69027Y-15947D01*
X68277Y-15947D01*
X68185Y-15984D01*
X68114Y-16055D01*
X68076Y-16147D01*
X68076Y-16246D01*
X68076Y-17096D01*
X68114Y-17188D01*
X68184Y-17258D01*
X68276Y-17297D01*
X68376Y-17297D01*
X69126Y-17297D01*
X69218Y-17259D01*
X69288Y-17188D01*
X69302Y-17155D01*
X69462Y-17262D01*
X69701Y-17310D01*
X69940Y-17262D01*
X70143Y-17127D01*
X70260Y-16952D01*
X75642Y-16952D01*
X75759Y-17127D01*
X75962Y-17262D01*
X76201Y-17310D01*
X76440Y-17262D01*
X76561Y-17182D01*
X76564Y-17188D01*
X76634Y-17258D01*
X76726Y-17297D01*
X76825Y-17297D01*
X76876Y-17297D01*
X77409Y-17297D01*
X77699Y-17587D01*
X77446Y-17586D01*
X77176Y-17698D01*
X76908Y-17587D01*
X76496Y-17586D01*
X76116Y-17744D01*
X75824Y-18035D01*
X75815Y-18056D01*
X75768Y-18037D01*
X75535Y-18036D01*
X75320Y-18125D01*
X75176Y-18269D01*
X75033Y-18126D01*
X74818Y-18037D01*
X74585Y-18036D01*
X74370Y-18125D01*
X74205Y-18290D01*
X74116Y-18505D01*
X74116Y-18737D01*
X74205Y-18952D01*
X74369Y-19117D01*
X74584Y-19206D01*
X74817Y-19207D01*
X75032Y-19118D01*
X75176Y-18974D01*
X75319Y-19117D01*
X75534Y-19206D01*
X75767Y-19207D01*
X75815Y-19187D01*
X75823Y-19207D01*
X76114Y-19498D01*
X76494Y-19656D01*
X76906Y-19657D01*
X77176Y-19545D01*
X77444Y-19656D01*
X77501Y-19656D01*
X77501Y-19760D01*
X77607Y-20018D01*
X77804Y-20215D01*
X77989Y-20292D01*
X77272Y-20292D01*
X77244Y-20226D01*
X77048Y-20028D01*
X76791Y-19922D01*
X76512Y-19921D01*
X76255Y-20028D01*
X76176Y-20106D01*
X76098Y-20028D01*
X75841Y-19922D01*
X75562Y-19921D01*
X75305Y-20028D01*
X75108Y-20225D01*
X75080Y-20292D01*
X70913Y-20292D01*
X71097Y-20215D01*
X71294Y-20019D01*
X71401Y-19761D01*
X71401Y-19483D01*
X71295Y-19226D01*
X71276Y-19207D01*
X71317Y-19207D01*
X71532Y-19118D01*
X71697Y-18953D01*
X71786Y-18738D01*
X71786Y-18506D01*
X71697Y-18291D01*
X71533Y-18126D01*
X71318Y-18037D01*
X71085Y-18036D01*
X70870Y-18125D01*
X70705Y-18290D01*
X70616Y-18505D01*
X70616Y-18737D01*
X70692Y-18922D01*
X70562Y-18921D01*
X70305Y-19028D01*
X70236Y-19096D01*
X70236Y-18417D01*
X70079Y-18036D01*
X69788Y-17745D01*
X69408Y-17587D01*
X68996Y-17586D01*
X68616Y-17744D01*
X68324Y-18035D01*
X68166Y-18415D01*
X68166Y-18827D01*
X68323Y-19207D01*
X68614Y-19498D01*
X68994Y-19656D01*
X69406Y-19657D01*
X69787Y-19499D01*
X70078Y-19209D01*
X70236Y-18828D01*
X70236Y-18417D01*
X70236Y-19096D01*
X70108Y-19225D01*
X70001Y-19482D01*
X70001Y-19760D01*
X70107Y-20018D01*
X70304Y-20215D01*
X70489Y-20292D01*
X68822Y-20292D01*
X68795Y-20226D01*
X68598Y-20028D01*
X68341Y-19922D01*
X68062Y-19921D01*
X67805Y-20028D01*
X67786Y-20047D01*
X67786Y-18506D01*
X67697Y-18291D01*
X67533Y-18126D01*
X67318Y-18037D01*
X67085Y-18036D01*
X66870Y-18125D01*
X66705Y-18290D01*
X66616Y-18505D01*
X66616Y-18737D01*
X66705Y-18952D01*
X66869Y-19117D01*
X67084Y-19206D01*
X67317Y-19207D01*
X67532Y-19118D01*
X67697Y-18953D01*
X67786Y-18738D01*
X67786Y-18506D01*
X67786Y-20047D01*
X67608Y-20225D01*
X67580Y-20292D01*
X63413Y-20292D01*
X63597Y-20215D01*
X63794Y-20019D01*
X63901Y-19761D01*
X63901Y-19483D01*
X63795Y-19226D01*
X63776Y-19207D01*
X63817Y-19207D01*
X64032Y-19118D01*
X64197Y-18953D01*
X64286Y-18738D01*
X64286Y-18506D01*
X64197Y-18291D01*
X64033Y-18126D01*
X63818Y-18037D01*
X63585Y-18036D01*
X63370Y-18125D01*
X63205Y-18290D01*
X63116Y-18505D01*
X63116Y-18737D01*
X63192Y-18922D01*
X63062Y-18921D01*
X62805Y-19028D01*
X62608Y-19225D01*
X62501Y-19482D01*
X62501Y-19760D01*
X62607Y-20018D01*
X62804Y-20215D01*
X62989Y-20292D01*
X61322Y-20292D01*
X61295Y-20226D01*
X61098Y-20028D01*
X60841Y-19922D01*
X60562Y-19921D01*
X60305Y-20028D01*
X60286Y-20047D01*
X60286Y-18506D01*
X60197Y-18291D01*
X60033Y-18126D01*
X59818Y-18037D01*
X59585Y-18036D01*
X59370Y-18125D01*
X59205Y-18290D01*
X59116Y-18505D01*
X59116Y-18737D01*
X59205Y-18952D01*
X59369Y-19117D01*
X59584Y-19206D01*
X59817Y-19207D01*
X60032Y-19118D01*
X60197Y-18953D01*
X60286Y-18738D01*
X60286Y-18506D01*
X60286Y-20047D01*
X60108Y-20225D01*
X60001Y-20482D01*
X60001Y-20707D01*
X56329Y-20707D01*
X59099Y-17937D01*
X60922Y-17937D01*
X60824Y-18035D01*
X60666Y-18415D01*
X60666Y-18827D01*
X60823Y-19207D01*
X61114Y-19498D01*
X61494Y-19656D01*
X61906Y-19657D01*
X62287Y-19499D01*
X62578Y-19209D01*
X62736Y-18828D01*
X62736Y-18417D01*
X62579Y-18036D01*
X62480Y-17937D01*
X65685Y-17937D01*
X65811Y-17911D01*
X65811Y-17911D01*
X65918Y-17840D01*
X69992Y-13766D01*
X70061Y-13766D01*
X70225Y-13698D01*
X70351Y-13572D01*
X70419Y-13408D01*
X70419Y-13281D01*
X71310Y-13281D01*
X71407Y-13518D01*
X71604Y-13715D01*
X71861Y-13821D01*
X72140Y-13822D01*
X72397Y-13715D01*
X72594Y-13519D01*
X72622Y-13452D01*
X81680Y-13452D01*
X81707Y-13518D01*
X81904Y-13715D01*
X82161Y-13821D01*
X82440Y-13822D01*
X82697Y-13715D01*
X82894Y-13519D01*
X83001Y-13261D01*
X83001Y-12983D01*
X82895Y-12726D01*
X82698Y-12528D01*
X82441Y-12422D01*
X82162Y-12421D01*
X81905Y-12528D01*
X81886Y-12547D01*
X81886Y-11006D01*
X81797Y-10791D01*
X81633Y-10626D01*
X81418Y-10537D01*
X81185Y-10536D01*
X80970Y-10625D01*
X80805Y-10790D01*
X80716Y-11005D01*
X80716Y-11237D01*
X80805Y-11452D01*
X80969Y-11617D01*
X81184Y-11706D01*
X81417Y-11707D01*
X81632Y-11618D01*
X81797Y-11453D01*
X81886Y-11238D01*
X81886Y-11006D01*
X81886Y-12547D01*
X81708Y-12725D01*
X81680Y-12792D01*
X80329Y-12792D01*
X80329Y-10799D01*
X80082Y-10201D01*
X79624Y-9742D01*
X79026Y-9494D01*
X78379Y-9493D01*
X77780Y-9741D01*
X77322Y-10198D01*
X77073Y-10796D01*
X77073Y-11444D01*
X77320Y-12043D01*
X77778Y-12501D01*
X78376Y-12749D01*
X79023Y-12750D01*
X79622Y-12503D01*
X80080Y-12045D01*
X80329Y-11447D01*
X80329Y-10799D01*
X80329Y-12792D01*
X74713Y-12792D01*
X74897Y-12715D01*
X75094Y-12519D01*
X75201Y-12261D01*
X75201Y-11983D01*
X75095Y-11726D01*
X75076Y-11707D01*
X75117Y-11707D01*
X75332Y-11618D01*
X75497Y-11453D01*
X75586Y-11238D01*
X75586Y-11006D01*
X75497Y-10791D01*
X75333Y-10626D01*
X75118Y-10537D01*
X74885Y-10536D01*
X74670Y-10625D01*
X74505Y-10790D01*
X74416Y-11005D01*
X74416Y-11237D01*
X74492Y-11422D01*
X74362Y-11421D01*
X74105Y-11528D01*
X74036Y-11596D01*
X74036Y-10917D01*
X73879Y-10536D01*
X73588Y-10245D01*
X73208Y-10087D01*
X72796Y-10086D01*
X72416Y-10244D01*
X72124Y-10535D01*
X71966Y-10915D01*
X71966Y-11327D01*
X72123Y-11707D01*
X72414Y-11998D01*
X72794Y-12156D01*
X73206Y-12157D01*
X73587Y-11999D01*
X73878Y-11709D01*
X74036Y-11328D01*
X74036Y-10917D01*
X74036Y-11596D01*
X73908Y-11725D01*
X73801Y-11982D01*
X73801Y-12260D01*
X73907Y-12518D01*
X74104Y-12715D01*
X74289Y-12792D01*
X72622Y-12792D01*
X72595Y-12726D01*
X72398Y-12528D01*
X72141Y-12422D01*
X71862Y-12421D01*
X71605Y-12528D01*
X71586Y-12547D01*
X71586Y-11006D01*
X71497Y-10791D01*
X71333Y-10626D01*
X71118Y-10537D01*
X70885Y-10536D01*
X70670Y-10625D01*
X70505Y-10790D01*
X70416Y-11005D01*
X70416Y-11237D01*
X70505Y-11452D01*
X70669Y-11617D01*
X70884Y-11706D01*
X71117Y-11707D01*
X71332Y-11618D01*
X71497Y-11453D01*
X71586Y-11238D01*
X71586Y-11006D01*
X71586Y-12547D01*
X71512Y-12621D01*
X67492Y-12621D01*
X67594Y-12519D01*
X67701Y-12261D01*
X67701Y-11983D01*
X67595Y-11726D01*
X67576Y-11707D01*
X67617Y-11707D01*
X67832Y-11618D01*
X67997Y-11453D01*
X68086Y-11238D01*
X68086Y-11006D01*
X67997Y-10791D01*
X67833Y-10626D01*
X67618Y-10537D01*
X67385Y-10536D01*
X67170Y-10625D01*
X67005Y-10790D01*
X66916Y-11005D01*
X66916Y-11237D01*
X66992Y-11422D01*
X66862Y-11421D01*
X66605Y-11528D01*
X66536Y-11596D01*
X66536Y-10917D01*
X66379Y-10536D01*
X66088Y-10245D01*
X65708Y-10087D01*
X65296Y-10086D01*
X64916Y-10244D01*
X64624Y-10535D01*
X64466Y-10915D01*
X64466Y-11327D01*
X64623Y-11707D01*
X64914Y-11998D01*
X65294Y-12156D01*
X65706Y-12157D01*
X66087Y-11999D01*
X66378Y-11709D01*
X66536Y-11328D01*
X66536Y-10917D01*
X66536Y-11596D01*
X66408Y-11725D01*
X66301Y-11982D01*
X66301Y-12260D01*
X66407Y-12518D01*
X66511Y-12621D01*
X64990Y-12621D01*
X64898Y-12528D01*
X64641Y-12422D01*
X64362Y-12421D01*
X64105Y-12528D01*
X64086Y-12547D01*
X64086Y-11006D01*
X63997Y-10791D01*
X63833Y-10626D01*
X63618Y-10537D01*
X63385Y-10536D01*
X63170Y-10625D01*
X63005Y-10790D01*
X62916Y-11005D01*
X62916Y-11237D01*
X63005Y-11452D01*
X63169Y-11617D01*
X63384Y-11706D01*
X63617Y-11707D01*
X63832Y-11618D01*
X63997Y-11453D01*
X64086Y-11238D01*
X64086Y-11006D01*
X64086Y-12547D01*
X63908Y-12725D01*
X63880Y-12792D01*
X60666Y-12792D01*
X60713Y-12745D01*
X60781Y-12581D01*
X60781Y-12540D01*
X61856Y-11465D01*
X61932Y-11351D01*
X61958Y-11217D01*
X61958Y-10619D01*
X61987Y-10591D01*
X62055Y-10427D01*
X62055Y-10249D01*
X61987Y-10084D01*
X61940Y-10037D01*
X66001Y-10037D01*
X73207Y-10037D01*
X73333Y-10012D01*
X73333Y-10012D01*
X73440Y-9940D01*
X73588Y-9793D01*
X73740Y-9762D01*
X73943Y-9627D01*
X74078Y-9424D01*
X74109Y-9271D01*
X74514Y-8866D01*
X82176Y-8866D01*
X82176Y-9596D01*
X82214Y-9688D01*
X82284Y-9758D01*
X82376Y-9797D01*
X82476Y-9797D01*
X83226Y-9797D01*
X83318Y-9759D01*
X83388Y-9688D01*
X83402Y-9655D01*
X83562Y-9762D01*
X83801Y-9810D01*
X84040Y-9762D01*
X84243Y-9627D01*
X84378Y-9424D01*
X84426Y-9185D01*
X84426Y-9058D01*
X84378Y-8819D01*
X84243Y-8616D01*
X84131Y-8542D01*
X84131Y-8536D01*
X84106Y-8410D01*
X84034Y-8303D01*
X83927Y-8232D01*
X83801Y-8206D01*
X74377Y-8206D01*
X74251Y-8232D01*
X74144Y-8303D01*
X73876Y-8571D01*
X73740Y-8481D01*
X73501Y-8433D01*
X73262Y-8481D01*
X73102Y-8588D01*
X73088Y-8555D01*
X73018Y-8485D01*
X72926Y-8447D01*
X72827Y-8447D01*
X72077Y-8447D01*
X71985Y-8484D01*
X71914Y-8555D01*
X71900Y-8589D01*
X69810Y-6499D01*
X69810Y-6258D01*
X69961Y-6321D01*
X70240Y-6322D01*
X70497Y-6215D01*
X70694Y-6019D01*
X70722Y-5952D01*
X76980Y-5952D01*
X77007Y-6018D01*
X77204Y-6215D01*
X77461Y-6321D01*
X77740Y-6322D01*
X77997Y-6215D01*
X78194Y-6019D01*
X78222Y-5952D01*
X84480Y-5952D01*
X84507Y-6018D01*
X84704Y-6215D01*
X84961Y-6321D01*
X85240Y-6322D01*
X85497Y-6215D01*
X85694Y-6019D01*
X85801Y-5761D01*
X85801Y-5483D01*
X85695Y-5226D01*
X85498Y-5028D01*
X85241Y-4922D01*
X84962Y-4921D01*
X84705Y-5028D01*
X84686Y-5047D01*
X84686Y-3506D01*
X84597Y-3291D01*
X84433Y-3126D01*
X84218Y-3037D01*
X83985Y-3036D01*
X83770Y-3125D01*
X83605Y-3290D01*
X83516Y-3505D01*
X83516Y-3737D01*
X83605Y-3952D01*
X83769Y-4117D01*
X83984Y-4206D01*
X84217Y-4207D01*
X84432Y-4118D01*
X84597Y-3953D01*
X84686Y-3738D01*
X84686Y-3506D01*
X84686Y-5047D01*
X84508Y-5225D01*
X84480Y-5292D01*
X80313Y-5292D01*
X80497Y-5215D01*
X80694Y-5019D01*
X80801Y-4761D01*
X80801Y-4483D01*
X80695Y-4226D01*
X80676Y-4207D01*
X80717Y-4207D01*
X80932Y-4118D01*
X81097Y-3953D01*
X81186Y-3738D01*
X81186Y-3506D01*
X81097Y-3291D01*
X80933Y-3126D01*
X80718Y-3037D01*
X80485Y-3036D01*
X80270Y-3125D01*
X80105Y-3290D01*
X80016Y-3505D01*
X80016Y-3737D01*
X80092Y-3922D01*
X79962Y-3921D01*
X79705Y-4028D01*
X79636Y-4096D01*
X79636Y-3417D01*
X79479Y-3036D01*
X79188Y-2745D01*
X78808Y-2587D01*
X78396Y-2586D01*
X78016Y-2744D01*
X77724Y-3035D01*
X77566Y-3415D01*
X77566Y-3827D01*
X77723Y-4207D01*
X78014Y-4498D01*
X78394Y-4656D01*
X78806Y-4657D01*
X79187Y-4499D01*
X79478Y-4209D01*
X79636Y-3828D01*
X79636Y-3417D01*
X79636Y-4096D01*
X79508Y-4225D01*
X79401Y-4482D01*
X79401Y-4760D01*
X79507Y-5018D01*
X79704Y-5215D01*
X79889Y-5292D01*
X78222Y-5292D01*
X78195Y-5226D01*
X77998Y-5028D01*
X77741Y-4922D01*
X77462Y-4921D01*
X77205Y-5028D01*
X77186Y-5047D01*
X77186Y-3506D01*
X77097Y-3291D01*
X76933Y-3126D01*
X76718Y-3037D01*
X76485Y-3036D01*
X76270Y-3125D01*
X76105Y-3290D01*
X76016Y-3505D01*
X76016Y-3737D01*
X76105Y-3952D01*
X76269Y-4117D01*
X76484Y-4206D01*
X76717Y-4207D01*
X76932Y-4118D01*
X77097Y-3953D01*
X77186Y-3738D01*
X77186Y-3506D01*
X77186Y-5047D01*
X77008Y-5225D01*
X76980Y-5292D01*
X72813Y-5292D01*
X72997Y-5215D01*
X73194Y-5019D01*
X73301Y-4761D01*
X73301Y-4483D01*
X73195Y-4226D01*
X73176Y-4207D01*
X73217Y-4207D01*
X73432Y-4118D01*
X73597Y-3953D01*
X73686Y-3738D01*
X73686Y-3506D01*
X73597Y-3291D01*
X73433Y-3126D01*
X73218Y-3037D01*
X72985Y-3036D01*
X72770Y-3125D01*
X72605Y-3290D01*
X72516Y-3505D01*
X72516Y-3737D01*
X72592Y-3922D01*
X72462Y-3921D01*
X72205Y-4028D01*
X72008Y-4225D01*
X71901Y-4482D01*
X71901Y-4760D01*
X72007Y-5018D01*
X72204Y-5215D01*
X72389Y-5292D01*
X70722Y-5292D01*
X70695Y-5226D01*
X70498Y-5028D01*
X70241Y-4922D01*
X70153Y-4922D01*
X70299Y-4775D01*
X70299Y-4775D01*
X70299Y-4775D01*
X70371Y-4668D01*
X70371Y-4668D01*
X70391Y-4567D01*
X70396Y-4542D01*
X70396Y-4542D01*
X70396Y-4542D01*
X70396Y-4380D01*
X70514Y-4498D01*
X70894Y-4656D01*
X71306Y-4657D01*
X71687Y-4499D01*
X71978Y-4209D01*
X72136Y-3828D01*
X72136Y-3417D01*
X71979Y-3036D01*
X71688Y-2745D01*
X71308Y-2587D01*
X70896Y-2586D01*
X70516Y-2744D01*
X70396Y-2863D01*
X70396Y-2297D01*
X71026Y-2297D01*
X71118Y-2259D01*
X71188Y-2188D01*
X71202Y-2155D01*
X71362Y-2262D01*
X71601Y-2310D01*
X71840Y-2262D01*
X72043Y-2127D01*
X72096Y-2048D01*
X72488Y-2440D01*
X72595Y-2512D01*
X72595Y-2512D01*
X72721Y-2537D01*
X79101Y-2537D01*
X79227Y-2512D01*
X79334Y-2440D01*
X79406Y-2333D01*
X79431Y-2207D01*
X79431Y-2202D01*
X79543Y-2127D01*
X79678Y-1924D01*
X79726Y-1685D01*
X79726Y-1558D01*
X79678Y-1319D01*
X79543Y-1116D01*
X79340Y-981D01*
X79101Y-933D01*
X78862Y-981D01*
X78702Y-1088D01*
X78688Y-1055D01*
X78618Y-985D01*
X78526Y-947D01*
X78427Y-947D01*
X77677Y-947D01*
X77585Y-984D01*
X77514Y-1055D01*
X77500Y-1089D01*
X77286Y-875D01*
X83853Y-875D01*
X84833Y-1855D01*
X84940Y-1926D01*
X84940Y-1926D01*
X84976Y-1934D01*
X84976Y-2096D01*
X85014Y-2188D01*
X85084Y-2258D01*
X85176Y-2297D01*
X85276Y-2297D01*
X86026Y-2297D01*
X86118Y-2259D01*
X86188Y-2188D01*
X86202Y-2155D01*
X86362Y-2262D01*
X86601Y-2310D01*
X86840Y-2262D01*
X87043Y-2127D01*
X87178Y-1924D01*
X87226Y-1685D01*
X87226Y-1558D01*
X87178Y-1319D01*
X87043Y-1116D01*
X86840Y-981D01*
X86601Y-933D01*
X86362Y-981D01*
X86202Y-1088D01*
X86188Y-1055D01*
X86118Y-985D01*
X86026Y-947D01*
X85927Y-947D01*
X85177Y-947D01*
X85085Y-984D01*
X85014Y-1055D01*
X85000Y-1089D01*
X84223Y-312D01*
X84117Y-241D01*
X88957Y-241D01*
X88949Y-264D01*
X88962Y-442D01*
X89005Y-547D01*
X89090Y-562D01*
X89330Y-322D01*
X89325Y-316D01*
X89396Y-245D01*
X89401Y-251D01*
X89407Y-245D01*
X89477Y-316D01*
X89472Y-322D01*
X89477Y-327D01*
X89407Y-398D01*
X89401Y-392D01*
X89161Y-633D01*
X89175Y-717D01*
X89344Y-774D01*
X89481Y-764D01*
X89481Y-21009D01*
X88043Y-21009D01*
X87571Y-21103D01*
X87170Y-21371D01*
X86903Y-21771D01*
X86809Y-22244D01*
X86903Y-22716D01*
X87170Y-23117D01*
X87571Y-23384D01*
X88043Y-23478D01*
X89481Y-23478D01*
X89481Y-29027D01*
M02*
