M48
;DRILL file {Pcbnew (2013-02-13 BZR 3947)-testing} date 11/23/2013 4:30:56 PM
;FORMAT={2:4/ absolute / inch / keep zeros}
FMAT,2
INCH,TZ
T1C0.016
T2C0.028
T3C0.032
T4C0.035
T5C0.039
T6C0.059
T7C0.067
T8C0.098
T9C0.120
T10C0.157
%
G90
G05
M72
T1
X000351Y-000322
X000351Y-029472
X003730Y-005003
X005899Y-009150
X006917Y-003419
X007663Y-021234
X010273Y-022922
X011243Y-021794
X011662Y-025150
X013954Y-010076
X016051Y-022872
X018367Y-022071
X018501Y-022872
X026001Y-023422
X026691Y-005346
X027429Y-020328
X029244Y-022923
X030201Y-024622
X033001Y-024622
X033432Y-006898
X034281Y-027639
X034441Y-005244
X035116Y-027363
X035928Y-006240
X036662Y-028230
X038301Y-007872
X038451Y-024622
X038451Y-025872
X040751Y-007872
X040801Y-026622
X040891Y-024848
X041301Y-015022
X044219Y-022032
X045551Y-015322
X046701Y-007822
X047822Y-023425
X048501Y-015322
X050037Y-023556
X050859Y-021415
X051287Y-022923
X051579Y-022647
X052911Y-028809
X052921Y-024874
X053162Y-021532
X054301Y-011972
X054326Y-007847
X055851Y-029088
X056203Y-025150
X056504Y-021632
X056560Y-024397
X057857Y-029208
X058254Y-021632
X058291Y-012709
X058292Y-022074
X058385Y-025218
X058413Y-024565
X058733Y-022586
X058933Y-024783
X059465Y-023965
X060083Y-027818
X060207Y-026330
X060215Y-025670
X060571Y-026782
X060576Y-027181
X060604Y-024591
X060690Y-027637
X061007Y-005622
X062196Y-025587
X062351Y-007622
X062351Y-009122
X062577Y-028444
X063260Y-028172
X063372Y-026836
X063989Y-027260
X065235Y-027232
X065249Y-026466
X065413Y-025863
X065414Y-024402
X065597Y-010089
X066390Y-016828
X066768Y-013939
X066981Y-015441
X067008Y-016507
X067074Y-027550
X067159Y-014984
X067749Y-012357
X068751Y-007622
X074401Y-007622
X078201Y-007622
X080054Y-022826
X081594Y-009122
X082157Y-007934
X087851Y-021270
X088941Y-020248
X089376Y-029469
X089402Y-000322
T2
X088976Y-007559
X088976Y-008059
X088976Y-008559
X088976Y-009059
X088976Y-010059
X088976Y-010559
X088976Y-011059
X088976Y-011559
X088976Y-012059
X088976Y-012559
X088976Y-013059
X088976Y-013559
X088976Y-014059
X088976Y-014559
X088976Y-015059
T3
X001376Y-010509
X001376Y-013509
X002701Y-016622
X002701Y-019622
X016302Y-010022
X016302Y-013022
X022002Y-001622
X022002Y-004622
X023851Y-009122
X023851Y-012122
X031302Y-009122
X031302Y-012122
T4
X006299Y-001524
X008031Y-001524
X033111Y-028809
X034111Y-028809
X035111Y-028809
X036111Y-028809
X037111Y-028809
X037602Y-001123
X037602Y-002123
X037602Y-003123
X037602Y-004123
X038111Y-028809
X045102Y-001123
X045102Y-002123
X045102Y-003123
X045102Y-004123
X052602Y-001123
X052602Y-002123
X052602Y-003123
X052602Y-004123
X052602Y-006123
X060102Y-001123
X060102Y-002123
X060102Y-003123
X060102Y-004123
X060102Y-006123
T5
X003101Y-001622
X004051Y-009122
X004051Y-024122
X004101Y-001622
X005051Y-009122
X005051Y-024122
X005901Y-016622
X006901Y-016622
X010601Y-001622
X011601Y-001622
X012501Y-009122
X012501Y-024122
X013501Y-009122
X013501Y-024122
X016202Y-016622
X017202Y-016622
X018102Y-001622
X019102Y-001622
X020002Y-009122
X020002Y-024122
X021002Y-009122
X021002Y-024122
X023702Y-016622
X024702Y-016622
X025602Y-001622
X026602Y-001622
X027502Y-009122
X028502Y-009122
X031202Y-016672
X032202Y-016672
X033102Y-001622
X034102Y-001622
X035002Y-009122
X036002Y-009122
X038702Y-016622
X039702Y-016622
X040602Y-001622
X041602Y-001622
X042502Y-009122
X043502Y-009122
X046202Y-016622
X047202Y-016622
X047271Y-024124
X048102Y-001622
X048271Y-024124
X049102Y-001622
X050002Y-009122
X051002Y-009122
X053702Y-016622
X054702Y-016622
X055602Y-001622
X056602Y-001622
X057502Y-009122
X058502Y-009122
X061202Y-016622
X062202Y-016622
X063102Y-001622
X064102Y-001622
X065002Y-009122
X066002Y-009122
X068702Y-016622
X069702Y-016622
X070602Y-001622
X071602Y-001622
X072502Y-009122
X073502Y-009122
X075302Y-024122
X076202Y-016622
X076302Y-024122
X077151Y-016622
X077202Y-016622
X078102Y-001622
X078151Y-016622
X079102Y-001622
X082802Y-009122
X083802Y-009122
X084651Y-024122
X084702Y-016622
X085602Y-001622
X085602Y-016622
X085651Y-024122
X085702Y-016622
X086602Y-001622
X086602Y-016622
T6
X002601Y-005622
X003551Y-013122
X003551Y-028122
X005101Y-004622
X005401Y-020622
X006051Y-012122
X006051Y-027122
X007901Y-019622
X010101Y-005622
X012001Y-013122
X012001Y-028122
X012601Y-004622
X014501Y-012122
X014501Y-027122
X015702Y-020622
X017602Y-005622
X018202Y-019622
X019502Y-013122
X019502Y-028122
X020102Y-004622
X022002Y-012122
X022002Y-027122
X023202Y-020622
X025102Y-005622
X025702Y-019622
X027002Y-013122
X027602Y-004622
X029502Y-012122
X030702Y-020622
X032602Y-005622
X033202Y-019622
X034502Y-013122
X035102Y-004622
X037002Y-012122
X038202Y-020622
X040102Y-005622
X040702Y-019622
X042002Y-013122
X042602Y-004622
X044502Y-012122
X045702Y-020622
X046602Y-028123
X047602Y-005622
X048202Y-019622
X049102Y-027123
X049502Y-013122
X050102Y-004622
X052002Y-012122
X053202Y-020622
X055102Y-005622
X055702Y-019622
X057002Y-013122
X057602Y-004622
X059502Y-012122
X060702Y-020622
X062602Y-005622
X063202Y-019622
X064502Y-013122
X065102Y-004622
X067002Y-012122
X068202Y-020622
X070102Y-005622
X070702Y-019622
X072002Y-013122
X072602Y-004622
X074502Y-012122
X074802Y-028122
X075702Y-020622
X076651Y-020622
X077302Y-027122
X077602Y-005622
X078202Y-019622
X079151Y-019622
X080102Y-004622
X082302Y-013122
X084151Y-028122
X084202Y-020622
X084802Y-012122
X085102Y-005622
X085102Y-020622
X086651Y-027122
X086702Y-019622
X087602Y-004622
X087602Y-019622
T7
X001601Y-003622
X002551Y-011122
X002551Y-026122
X004401Y-018622
X005601Y-003622
X006551Y-011122
X006551Y-026122
X008401Y-018622
X009101Y-003622
X011001Y-011122
X011001Y-026122
X013101Y-003622
X014702Y-018622
X015001Y-011122
X015001Y-026122
X016602Y-003622
X018502Y-011122
X018502Y-026122
X018702Y-018622
X020602Y-003622
X022202Y-018622
X022502Y-011122
X022502Y-026122
X024102Y-003622
X026002Y-011122
X026202Y-018622
X028102Y-003622
X029702Y-018622
X030002Y-011122
X031602Y-003622
X033502Y-011122
X033702Y-018622
X035602Y-003622
X037202Y-018622
X037502Y-011122
X039102Y-003622
X041002Y-011122
X041202Y-018622
X043102Y-003622
X044702Y-018622
X045002Y-011122
X045602Y-026123
X046602Y-003622
X048502Y-011122
X048702Y-018622
X049602Y-026123
X050602Y-003622
X052202Y-018622
X052502Y-011122
X054102Y-003622
X056002Y-011122
X056202Y-018622
X058102Y-003622
X059702Y-018622
X060002Y-011122
X061602Y-003622
X063502Y-011122
X063702Y-018622
X065602Y-003622
X067202Y-018622
X067502Y-011122
X069102Y-003622
X071002Y-011122
X071202Y-018622
X073102Y-003622
X073802Y-026122
X074702Y-018622
X075002Y-011122
X075651Y-018622
X076602Y-003622
X077802Y-026122
X078702Y-018622
X079651Y-018622
X080602Y-003622
X081302Y-011122
X083151Y-026122
X083202Y-018622
X084102Y-003622
X084102Y-018622
X085302Y-011122
X087151Y-026122
X087202Y-018622
X088102Y-003622
X088102Y-018622
T8
X000574Y-022244
X016802Y-007722
X050472Y-018504
X078702Y-011122
X089071Y-022244
T9
X027902Y-028873
X067302Y-028873
T10
X003601Y-003622
X004551Y-011122
X004551Y-026122
X006401Y-018622
X011101Y-003622
X013001Y-011122
X013001Y-026122
X016702Y-018622
X018602Y-003622
X020502Y-011122
X020502Y-026122
X024202Y-018622
X026102Y-003622
X027902Y-022873
X028002Y-011122
X031702Y-018622
X033602Y-003622
X035502Y-011122
X039202Y-018622
X041102Y-003622
X043002Y-011122
X046702Y-018622
X047602Y-026123
X048602Y-003622
X050502Y-011122
X054202Y-018622
X056102Y-003622
X058002Y-011122
X061702Y-018622
X063602Y-003622
X065502Y-011122
X067302Y-022873
X069202Y-018622
X071102Y-003622
X073002Y-011122
X075802Y-026122
X076702Y-018622
X077651Y-018622
X078602Y-003622
X083302Y-011122
X085151Y-026122
X085202Y-018622
X086102Y-003622
X086102Y-018622
T0
M30
