G04 (created by PCBNEW (2013-02-13 BZR 3947)-testing) date 9/17/2013 1:27:35 PM*
%MOIN*%
G04 Gerber Fmt 3.4, Leading zero omitted, Abs format*
%FSLAX34Y34*%
G01*
G70*
G90*
G04 APERTURE LIST*
%ADD10C,0*%
%ADD11C,0.015*%
%ADD12C,0.012*%
%ADD13C,0.00787402*%
%ADD14C,0.00625197*%
%ADD15C,0.0079*%
%ADD16C,0.011811*%
%ADD17C,0.008*%
%ADD18C,0.005*%
%ADD19C,0.2836*%
%ADD20O,0.4017X0.2049*%
%ADD21R,0.0473701X0.130047*%
%ADD22R,0.0887X0.1655*%
%ADD23R,0.0887X0.1458*%
%ADD24O,0.0277008X0.106425*%
%ADD25C,0.0434331*%
%ADD26R,0.0533X0.0631*%
%ADD27O,0.0828X0.024*%
%ADD28O,0.024X0.0828*%
%ADD29R,0.043X0.063*%
%ADD30R,0.063X0.043*%
%ADD31C,0.0788661*%
%ADD32C,0.0709921*%
%ADD33C,0.098*%
%ADD34C,0.165*%
%ADD35C,0.075*%
%ADD36O,0.083X0.093*%
%ADD37R,0.083X0.093*%
%ADD38C,0.0473701*%
%ADD39C,0.128*%
G04 APERTURE END LIST*
G54D10*
G54D11*
X36426Y-609D02*
X36426Y-1059D01*
X36649Y-1559D02*
G75*
G03X36649Y-1559I-223J0D01*
G74*
G01*
G54D12*
X36716Y-20730D02*
X36773Y-20692D01*
X36859Y-20692D01*
X36944Y-20730D01*
X37002Y-20807D01*
X37030Y-20883D01*
X37059Y-21035D01*
X37059Y-21150D01*
X37030Y-21302D01*
X37002Y-21378D01*
X36944Y-21454D01*
X36859Y-21492D01*
X36802Y-21492D01*
X36716Y-21454D01*
X36687Y-21416D01*
X36687Y-21150D01*
X36802Y-21150D01*
X36430Y-21492D02*
X36430Y-20692D01*
X36202Y-20692D01*
X36144Y-20730D01*
X36116Y-20769D01*
X36087Y-20845D01*
X36087Y-20959D01*
X36116Y-21035D01*
X36144Y-21073D01*
X36202Y-21111D01*
X36430Y-21111D01*
X35830Y-21492D02*
X35830Y-20692D01*
X35430Y-20692D02*
X35316Y-20692D01*
X35259Y-20730D01*
X35202Y-20807D01*
X35173Y-20959D01*
X35173Y-21226D01*
X35202Y-21378D01*
X35259Y-21454D01*
X35316Y-21492D01*
X35430Y-21492D01*
X35487Y-21454D01*
X35544Y-21378D01*
X35573Y-21226D01*
X35573Y-20959D01*
X35544Y-20807D01*
X35487Y-20730D01*
X35430Y-20692D01*
G54D13*
X16898Y-25327D02*
X16916Y-25309D01*
X16935Y-25252D01*
X16935Y-25215D01*
X16916Y-25159D01*
X16879Y-25121D01*
X16841Y-25102D01*
X16767Y-25084D01*
X16710Y-25084D01*
X16635Y-25102D01*
X16598Y-25121D01*
X16560Y-25159D01*
X16542Y-25215D01*
X16542Y-25252D01*
X16560Y-25309D01*
X16579Y-25327D01*
X16823Y-25477D02*
X16823Y-25665D01*
X16935Y-25440D02*
X16542Y-25571D01*
X16935Y-25702D01*
X16935Y-25834D02*
X16542Y-25834D01*
X16542Y-25984D01*
X16560Y-26021D01*
X16579Y-26040D01*
X16617Y-26059D01*
X16673Y-26059D01*
X16710Y-26040D01*
X16729Y-26021D01*
X16748Y-25984D01*
X16748Y-25834D01*
X16916Y-26208D02*
X16935Y-26265D01*
X16935Y-26358D01*
X16916Y-26396D01*
X16898Y-26415D01*
X16860Y-26433D01*
X16823Y-26433D01*
X16785Y-26415D01*
X16767Y-26396D01*
X16748Y-26358D01*
X16729Y-26283D01*
X16710Y-26246D01*
X16692Y-26227D01*
X16654Y-26208D01*
X16617Y-26208D01*
X16579Y-26227D01*
X16560Y-26246D01*
X16542Y-26283D01*
X16542Y-26377D01*
X16560Y-26433D01*
X1379Y-11590D02*
X1379Y-11721D01*
X1585Y-11777D02*
X1585Y-11590D01*
X1192Y-11590D01*
X1192Y-11777D01*
X1566Y-11927D02*
X1585Y-11984D01*
X1585Y-12077D01*
X1566Y-12115D01*
X1548Y-12134D01*
X1510Y-12152D01*
X1473Y-12152D01*
X1435Y-12134D01*
X1417Y-12115D01*
X1398Y-12077D01*
X1379Y-12002D01*
X1360Y-11965D01*
X1342Y-11946D01*
X1304Y-11927D01*
X1267Y-11927D01*
X1229Y-11946D01*
X1210Y-11965D01*
X1192Y-12002D01*
X1192Y-12096D01*
X1210Y-12152D01*
X1548Y-12546D02*
X1566Y-12527D01*
X1585Y-12471D01*
X1585Y-12434D01*
X1566Y-12377D01*
X1529Y-12340D01*
X1491Y-12321D01*
X1417Y-12302D01*
X1360Y-12302D01*
X1285Y-12321D01*
X1248Y-12340D01*
X1210Y-12377D01*
X1192Y-12434D01*
X1192Y-12471D01*
X1210Y-12527D01*
X1229Y-12546D01*
G54D14*
X36806Y-24877D02*
X36526Y-24877D01*
X36666Y-25018D02*
X36666Y-24737D01*
X35561Y-25018D02*
X35771Y-25018D01*
X35666Y-25018D02*
X35666Y-24649D01*
X35701Y-24702D01*
X35736Y-24737D01*
X35771Y-24755D01*
X34789Y-24649D02*
X34561Y-24649D01*
X34683Y-24790D01*
X34631Y-24790D01*
X34596Y-24807D01*
X34578Y-24825D01*
X34561Y-24860D01*
X34561Y-24947D01*
X34578Y-24982D01*
X34596Y-25000D01*
X34631Y-25018D01*
X34736Y-25018D01*
X34771Y-25000D01*
X34789Y-24982D01*
X36806Y-22377D02*
X36526Y-22377D01*
X35683Y-22149D02*
X35648Y-22149D01*
X35613Y-22167D01*
X35596Y-22185D01*
X35578Y-22220D01*
X35561Y-22290D01*
X35561Y-22377D01*
X35578Y-22447D01*
X35596Y-22482D01*
X35613Y-22500D01*
X35648Y-22518D01*
X35683Y-22518D01*
X35718Y-22500D01*
X35736Y-22482D01*
X35754Y-22447D01*
X35771Y-22377D01*
X35771Y-22290D01*
X35754Y-22220D01*
X35736Y-22185D01*
X35718Y-22167D01*
X35683Y-22149D01*
X34771Y-22185D02*
X34754Y-22167D01*
X34718Y-22149D01*
X34631Y-22149D01*
X34596Y-22167D01*
X34578Y-22185D01*
X34561Y-22220D01*
X34561Y-22255D01*
X34578Y-22307D01*
X34789Y-22518D01*
X34561Y-22518D01*
G54D15*
X12067Y-18975D02*
G75*
G03X12067Y-18975I-591J0D01*
G74*
G01*
X10551Y-17755D02*
X10551Y-17558D01*
X10551Y-17558D02*
X10826Y-17558D01*
X10826Y-17558D02*
X10826Y-17755D01*
X12401Y-17558D02*
X12401Y-17755D01*
X12126Y-17558D02*
X12401Y-17558D01*
X12126Y-17755D02*
X12126Y-17558D01*
X12126Y-20195D02*
X12126Y-20392D01*
X12126Y-20392D02*
X12401Y-20392D01*
X12401Y-20392D02*
X12401Y-20195D01*
X10551Y-20195D02*
X10551Y-20392D01*
X10551Y-20392D02*
X10826Y-20392D01*
X10826Y-20392D02*
X10826Y-20195D01*
G54D11*
X12696Y-17873D02*
X12696Y-20077D01*
X10256Y-17873D02*
X10256Y-20077D01*
X10295Y-17755D02*
X10295Y-20195D01*
X10295Y-20195D02*
X12657Y-20195D01*
X12657Y-20195D02*
X12657Y-17755D01*
X12657Y-17755D02*
X10295Y-17755D01*
G54D15*
X8015Y-2488D02*
X8665Y-2488D01*
X8665Y-2488D02*
X8665Y811D01*
X8665Y811D02*
X5665Y811D01*
X5665Y811D02*
X5665Y-2488D01*
X5665Y-2488D02*
X6365Y-2488D01*
G54D16*
X60746Y-27459D02*
X62046Y-27459D01*
X62046Y-27459D02*
X62046Y-25859D01*
X62046Y-25859D02*
X60746Y-25859D01*
X60746Y-25859D02*
X60746Y-27459D01*
G54D12*
X55374Y-27955D02*
X59314Y-27955D01*
X59314Y-27955D02*
X59314Y-24015D01*
X55564Y-24015D02*
X59314Y-24015D01*
X55374Y-24205D02*
X55374Y-27955D01*
X55564Y-24015D02*
X55374Y-24205D01*
G54D17*
X56094Y-24485D02*
G75*
G03X56094Y-24485I-250J0D01*
G74*
G01*
G54D16*
X5808Y-7322D02*
X6251Y-7322D01*
X6251Y-7322D02*
X6251Y-6522D01*
X6251Y-6522D02*
X5808Y-6522D01*
X5383Y-7322D02*
X4951Y-7322D01*
X4951Y-7322D02*
X4951Y-6522D01*
X4951Y-6522D02*
X5383Y-6522D01*
X63203Y-26059D02*
X63646Y-26059D01*
X63646Y-26059D02*
X63646Y-25259D01*
X63646Y-25259D02*
X63203Y-25259D01*
X62778Y-26059D02*
X62346Y-26059D01*
X62346Y-26059D02*
X62346Y-25259D01*
X62346Y-25259D02*
X62778Y-25259D01*
X63203Y-27809D02*
X63646Y-27809D01*
X63646Y-27809D02*
X63646Y-27009D01*
X63646Y-27009D02*
X63203Y-27009D01*
X62778Y-27809D02*
X62346Y-27809D01*
X62346Y-27809D02*
X62346Y-27009D01*
X62346Y-27009D02*
X62778Y-27009D01*
X53538Y-27259D02*
X53096Y-27259D01*
X53096Y-27259D02*
X53096Y-28059D01*
X53096Y-28059D02*
X53538Y-28059D01*
X53964Y-27259D02*
X54396Y-27259D01*
X54396Y-27259D02*
X54396Y-28059D01*
X54396Y-28059D02*
X53964Y-28059D01*
X53938Y-23284D02*
X53496Y-23284D01*
X53496Y-23284D02*
X53496Y-24084D01*
X53496Y-24084D02*
X53938Y-24084D01*
X54364Y-23284D02*
X54796Y-23284D01*
X54796Y-23284D02*
X54796Y-24084D01*
X54796Y-24084D02*
X54364Y-24084D01*
X61188Y-27709D02*
X60746Y-27709D01*
X60746Y-27709D02*
X60746Y-28509D01*
X60746Y-28509D02*
X61188Y-28509D01*
X61614Y-27709D02*
X62046Y-27709D01*
X62046Y-27709D02*
X62046Y-28509D01*
X62046Y-28509D02*
X61614Y-28509D01*
X61188Y-24809D02*
X60746Y-24809D01*
X60746Y-24809D02*
X60746Y-25609D01*
X60746Y-25609D02*
X61188Y-25609D01*
X61614Y-24809D02*
X62046Y-24809D01*
X62046Y-24809D02*
X62046Y-25609D01*
X62046Y-25609D02*
X61614Y-25609D01*
X7776Y-4951D02*
X7776Y-4509D01*
X7776Y-4509D02*
X6976Y-4509D01*
X6976Y-4509D02*
X6976Y-4951D01*
X7776Y-5377D02*
X7776Y-5809D01*
X7776Y-5809D02*
X6976Y-5809D01*
X6976Y-5809D02*
X6976Y-5377D01*
X8626Y-4951D02*
X8626Y-4509D01*
X8626Y-4509D02*
X7826Y-4509D01*
X7826Y-4509D02*
X7826Y-4951D01*
X8626Y-5377D02*
X8626Y-5809D01*
X8626Y-5809D02*
X7826Y-5809D01*
X7826Y-5809D02*
X7826Y-5377D01*
X60553Y-24059D02*
X60996Y-24059D01*
X60996Y-24059D02*
X60996Y-23259D01*
X60996Y-23259D02*
X60553Y-23259D01*
X60128Y-24059D02*
X59696Y-24059D01*
X59696Y-24059D02*
X59696Y-23259D01*
X59696Y-23259D02*
X60128Y-23259D01*
X53543Y-28233D02*
X53101Y-28233D01*
X53101Y-28233D02*
X53101Y-29033D01*
X53101Y-29033D02*
X53543Y-29033D01*
X53969Y-28233D02*
X54401Y-28233D01*
X54401Y-28233D02*
X54401Y-29033D01*
X54401Y-29033D02*
X53969Y-29033D01*
X62038Y-23609D02*
X61596Y-23609D01*
X61596Y-23609D02*
X61596Y-24409D01*
X61596Y-24409D02*
X62038Y-24409D01*
X62464Y-23609D02*
X62896Y-23609D01*
X62896Y-23609D02*
X62896Y-24409D01*
X62896Y-24409D02*
X62464Y-24409D01*
X73001Y-6164D02*
X73001Y-5722D01*
X73001Y-5722D02*
X72201Y-5722D01*
X72201Y-5722D02*
X72201Y-6164D01*
X73001Y-6590D02*
X73001Y-7022D01*
X73001Y-7022D02*
X72201Y-7022D01*
X72201Y-7022D02*
X72201Y-6590D01*
G54D13*
X72751Y-6272D02*
X72451Y-6272D01*
X72751Y-6447D02*
X72451Y-6447D01*
X72451Y-6447D02*
X72601Y-6297D01*
X72601Y-6297D02*
X72751Y-6447D01*
G54D16*
X68643Y-11722D02*
X68201Y-11722D01*
X68201Y-11722D02*
X68201Y-12522D01*
X68201Y-12522D02*
X68643Y-12522D01*
X69069Y-11722D02*
X69501Y-11722D01*
X69501Y-11722D02*
X69501Y-12522D01*
X69501Y-12522D02*
X69069Y-12522D01*
G54D13*
X68751Y-11972D02*
X68751Y-12272D01*
X68926Y-11972D02*
X68926Y-12272D01*
X68926Y-12272D02*
X68776Y-12122D01*
X68776Y-12122D02*
X68926Y-11972D01*
G54D16*
X72143Y-19222D02*
X71701Y-19222D01*
X71701Y-19222D02*
X71701Y-20022D01*
X71701Y-20022D02*
X72143Y-20022D01*
X72569Y-19222D02*
X73001Y-19222D01*
X73001Y-19222D02*
X73001Y-20022D01*
X73001Y-20022D02*
X72569Y-20022D01*
G54D13*
X72251Y-19472D02*
X72251Y-19772D01*
X72426Y-19472D02*
X72426Y-19772D01*
X72426Y-19772D02*
X72276Y-19622D01*
X72276Y-19622D02*
X72426Y-19472D01*
G54D16*
X38643Y-11722D02*
X38201Y-11722D01*
X38201Y-11722D02*
X38201Y-12522D01*
X38201Y-12522D02*
X38643Y-12522D01*
X39069Y-11722D02*
X39501Y-11722D01*
X39501Y-11722D02*
X39501Y-12522D01*
X39501Y-12522D02*
X39069Y-12522D01*
G54D13*
X38751Y-11972D02*
X38751Y-12272D01*
X38926Y-11972D02*
X38926Y-12272D01*
X38926Y-12272D02*
X38776Y-12122D01*
X38776Y-12122D02*
X38926Y-11972D01*
G54D16*
X64643Y-19222D02*
X64201Y-19222D01*
X64201Y-19222D02*
X64201Y-20022D01*
X64201Y-20022D02*
X64643Y-20022D01*
X65069Y-19222D02*
X65501Y-19222D01*
X65501Y-19222D02*
X65501Y-20022D01*
X65501Y-20022D02*
X65069Y-20022D01*
G54D13*
X64751Y-19472D02*
X64751Y-19772D01*
X64926Y-19472D02*
X64926Y-19772D01*
X64926Y-19772D02*
X64776Y-19622D01*
X64776Y-19622D02*
X64926Y-19472D01*
G54D16*
X61143Y-11722D02*
X60701Y-11722D01*
X60701Y-11722D02*
X60701Y-12522D01*
X60701Y-12522D02*
X61143Y-12522D01*
X61569Y-11722D02*
X62001Y-11722D01*
X62001Y-11722D02*
X62001Y-12522D01*
X62001Y-12522D02*
X61569Y-12522D01*
G54D13*
X61251Y-11972D02*
X61251Y-12272D01*
X61426Y-11972D02*
X61426Y-12272D01*
X61426Y-12272D02*
X61276Y-12122D01*
X61276Y-12122D02*
X61426Y-11972D01*
G54D16*
X65501Y-6164D02*
X65501Y-5722D01*
X65501Y-5722D02*
X64701Y-5722D01*
X64701Y-5722D02*
X64701Y-6164D01*
X65501Y-6590D02*
X65501Y-7022D01*
X65501Y-7022D02*
X64701Y-7022D01*
X64701Y-7022D02*
X64701Y-6590D01*
G54D13*
X65251Y-6272D02*
X64951Y-6272D01*
X65251Y-6447D02*
X64951Y-6447D01*
X64951Y-6447D02*
X65101Y-6297D01*
X65101Y-6297D02*
X65251Y-6447D01*
G54D16*
X58001Y-6164D02*
X58001Y-5722D01*
X58001Y-5722D02*
X57201Y-5722D01*
X57201Y-5722D02*
X57201Y-6164D01*
X58001Y-6590D02*
X58001Y-7022D01*
X58001Y-7022D02*
X57201Y-7022D01*
X57201Y-7022D02*
X57201Y-6590D01*
G54D13*
X57751Y-6272D02*
X57451Y-6272D01*
X57751Y-6447D02*
X57451Y-6447D01*
X57451Y-6447D02*
X57601Y-6297D01*
X57601Y-6297D02*
X57751Y-6447D01*
G54D16*
X53643Y-11722D02*
X53201Y-11722D01*
X53201Y-11722D02*
X53201Y-12522D01*
X53201Y-12522D02*
X53643Y-12522D01*
X54069Y-11722D02*
X54501Y-11722D01*
X54501Y-11722D02*
X54501Y-12522D01*
X54501Y-12522D02*
X54069Y-12522D01*
G54D13*
X53751Y-11972D02*
X53751Y-12272D01*
X53926Y-11972D02*
X53926Y-12272D01*
X53926Y-12272D02*
X53776Y-12122D01*
X53776Y-12122D02*
X53926Y-11972D01*
G54D16*
X57143Y-19222D02*
X56701Y-19222D01*
X56701Y-19222D02*
X56701Y-20022D01*
X56701Y-20022D02*
X57143Y-20022D01*
X57569Y-19222D02*
X58001Y-19222D01*
X58001Y-19222D02*
X58001Y-20022D01*
X58001Y-20022D02*
X57569Y-20022D01*
G54D13*
X57251Y-19472D02*
X57251Y-19772D01*
X57426Y-19472D02*
X57426Y-19772D01*
X57426Y-19772D02*
X57276Y-19622D01*
X57276Y-19622D02*
X57426Y-19472D01*
G54D16*
X42143Y-19222D02*
X41701Y-19222D01*
X41701Y-19222D02*
X41701Y-20022D01*
X41701Y-20022D02*
X42143Y-20022D01*
X42569Y-19222D02*
X43001Y-19222D01*
X43001Y-19222D02*
X43001Y-20022D01*
X43001Y-20022D02*
X42569Y-20022D01*
G54D13*
X42251Y-19472D02*
X42251Y-19772D01*
X42426Y-19472D02*
X42426Y-19772D01*
X42426Y-19772D02*
X42276Y-19622D01*
X42276Y-19622D02*
X42426Y-19472D01*
G54D16*
X3808Y-7322D02*
X4251Y-7322D01*
X4251Y-7322D02*
X4251Y-6522D01*
X4251Y-6522D02*
X3808Y-6522D01*
X3383Y-7322D02*
X2951Y-7322D01*
X2951Y-7322D02*
X2951Y-6522D01*
X2951Y-6522D02*
X3383Y-6522D01*
G54D13*
X3701Y-7072D02*
X3701Y-6772D01*
X3526Y-7072D02*
X3526Y-6772D01*
X3526Y-6772D02*
X3676Y-6922D01*
X3676Y-6922D02*
X3526Y-7072D01*
G54D16*
X50501Y-6164D02*
X50501Y-5722D01*
X50501Y-5722D02*
X49701Y-5722D01*
X49701Y-5722D02*
X49701Y-6164D01*
X50501Y-6590D02*
X50501Y-7022D01*
X50501Y-7022D02*
X49701Y-7022D01*
X49701Y-7022D02*
X49701Y-6590D01*
G54D13*
X50251Y-6272D02*
X49951Y-6272D01*
X50251Y-6447D02*
X49951Y-6447D01*
X49951Y-6447D02*
X50101Y-6297D01*
X50101Y-6297D02*
X50251Y-6447D01*
G54D16*
X35501Y-6164D02*
X35501Y-5722D01*
X35501Y-5722D02*
X34701Y-5722D01*
X34701Y-5722D02*
X34701Y-6164D01*
X35501Y-6590D02*
X35501Y-7022D01*
X35501Y-7022D02*
X34701Y-7022D01*
X34701Y-7022D02*
X34701Y-6590D01*
G54D13*
X35251Y-6272D02*
X34951Y-6272D01*
X35251Y-6447D02*
X34951Y-6447D01*
X34951Y-6447D02*
X35101Y-6297D01*
X35101Y-6297D02*
X35251Y-6447D01*
G54D16*
X34643Y-19222D02*
X34201Y-19222D01*
X34201Y-19222D02*
X34201Y-20022D01*
X34201Y-20022D02*
X34643Y-20022D01*
X35069Y-19222D02*
X35501Y-19222D01*
X35501Y-19222D02*
X35501Y-20022D01*
X35501Y-20022D02*
X35069Y-20022D01*
G54D13*
X34751Y-19472D02*
X34751Y-19772D01*
X34926Y-19472D02*
X34926Y-19772D01*
X34926Y-19772D02*
X34776Y-19622D01*
X34776Y-19622D02*
X34926Y-19472D01*
G54D16*
X29309Y-14272D02*
X29751Y-14272D01*
X29751Y-14272D02*
X29751Y-13472D01*
X29751Y-13472D02*
X29309Y-13472D01*
X28883Y-14272D02*
X28451Y-14272D01*
X28451Y-14272D02*
X28451Y-13472D01*
X28451Y-13472D02*
X28883Y-13472D01*
G54D13*
X29201Y-14022D02*
X29201Y-13722D01*
X29026Y-14022D02*
X29026Y-13722D01*
X29026Y-13722D02*
X29176Y-13872D01*
X29176Y-13872D02*
X29026Y-14022D01*
G54D16*
X28001Y-6164D02*
X28001Y-5722D01*
X28001Y-5722D02*
X27201Y-5722D01*
X27201Y-5722D02*
X27201Y-6164D01*
X28001Y-6590D02*
X28001Y-7022D01*
X28001Y-7022D02*
X27201Y-7022D01*
X27201Y-7022D02*
X27201Y-6590D01*
G54D13*
X27751Y-6272D02*
X27451Y-6272D01*
X27751Y-6447D02*
X27451Y-6447D01*
X27451Y-6447D02*
X27601Y-6297D01*
X27601Y-6297D02*
X27751Y-6447D01*
G54D16*
X50643Y-26722D02*
X50201Y-26722D01*
X50201Y-26722D02*
X50201Y-27522D01*
X50201Y-27522D02*
X50643Y-27522D01*
X51069Y-26722D02*
X51501Y-26722D01*
X51501Y-26722D02*
X51501Y-27522D01*
X51501Y-27522D02*
X51069Y-27522D01*
G54D13*
X50751Y-26972D02*
X50751Y-27272D01*
X50926Y-26972D02*
X50926Y-27272D01*
X50926Y-27272D02*
X50776Y-27122D01*
X50776Y-27122D02*
X50926Y-26972D01*
G54D16*
X48368Y-20709D02*
X47926Y-20709D01*
X47926Y-20709D02*
X47926Y-21509D01*
X47926Y-21509D02*
X48368Y-21509D01*
X48794Y-20709D02*
X49226Y-20709D01*
X49226Y-20709D02*
X49226Y-21509D01*
X49226Y-21509D02*
X48794Y-21509D01*
G54D13*
X48476Y-20959D02*
X48476Y-21259D01*
X48651Y-20959D02*
X48651Y-21259D01*
X48651Y-21259D02*
X48501Y-21109D01*
X48501Y-21109D02*
X48651Y-20959D01*
G54D16*
X46143Y-11722D02*
X45701Y-11722D01*
X45701Y-11722D02*
X45701Y-12522D01*
X45701Y-12522D02*
X46143Y-12522D01*
X46569Y-11722D02*
X47001Y-11722D01*
X47001Y-11722D02*
X47001Y-12522D01*
X47001Y-12522D02*
X46569Y-12522D01*
G54D13*
X46251Y-11972D02*
X46251Y-12272D01*
X46426Y-11972D02*
X46426Y-12272D01*
X46426Y-12272D02*
X46276Y-12122D01*
X46276Y-12122D02*
X46426Y-11972D01*
G54D16*
X43001Y-6164D02*
X43001Y-5722D01*
X43001Y-5722D02*
X42201Y-5722D01*
X42201Y-5722D02*
X42201Y-6164D01*
X43001Y-6590D02*
X43001Y-7022D01*
X43001Y-7022D02*
X42201Y-7022D01*
X42201Y-7022D02*
X42201Y-6590D01*
G54D13*
X42751Y-6272D02*
X42451Y-6272D01*
X42751Y-6447D02*
X42451Y-6447D01*
X42451Y-6447D02*
X42601Y-6297D01*
X42601Y-6297D02*
X42751Y-6447D01*
G54D16*
X23643Y-26722D02*
X23201Y-26722D01*
X23201Y-26722D02*
X23201Y-27522D01*
X23201Y-27522D02*
X23643Y-27522D01*
X24069Y-26722D02*
X24501Y-26722D01*
X24501Y-26722D02*
X24501Y-27522D01*
X24501Y-27522D02*
X24069Y-27522D01*
G54D13*
X23751Y-26972D02*
X23751Y-27272D01*
X23926Y-26972D02*
X23926Y-27272D01*
X23926Y-27272D02*
X23776Y-27122D01*
X23776Y-27122D02*
X23926Y-26972D01*
G54D16*
X16143Y-26722D02*
X15701Y-26722D01*
X15701Y-26722D02*
X15701Y-27522D01*
X15701Y-27522D02*
X16143Y-27522D01*
X16569Y-26722D02*
X17001Y-26722D01*
X17001Y-26722D02*
X17001Y-27522D01*
X17001Y-27522D02*
X16569Y-27522D01*
G54D13*
X16251Y-26972D02*
X16251Y-27272D01*
X16426Y-26972D02*
X16426Y-27272D01*
X16426Y-27272D02*
X16276Y-27122D01*
X16276Y-27122D02*
X16426Y-26972D01*
G54D16*
X27143Y-19222D02*
X26701Y-19222D01*
X26701Y-19222D02*
X26701Y-20022D01*
X26701Y-20022D02*
X27143Y-20022D01*
X27569Y-19222D02*
X28001Y-19222D01*
X28001Y-19222D02*
X28001Y-20022D01*
X28001Y-20022D02*
X27569Y-20022D01*
G54D13*
X27251Y-19472D02*
X27251Y-19772D01*
X27426Y-19472D02*
X27426Y-19772D01*
X27426Y-19772D02*
X27276Y-19622D01*
X27276Y-19622D02*
X27426Y-19472D01*
G54D16*
X21809Y-14272D02*
X22251Y-14272D01*
X22251Y-14272D02*
X22251Y-13472D01*
X22251Y-13472D02*
X21809Y-13472D01*
X21383Y-14272D02*
X20951Y-14272D01*
X20951Y-14272D02*
X20951Y-13472D01*
X20951Y-13472D02*
X21383Y-13472D01*
G54D13*
X21701Y-14022D02*
X21701Y-13722D01*
X21526Y-14022D02*
X21526Y-13722D01*
X21526Y-13722D02*
X21676Y-13872D01*
X21676Y-13872D02*
X21526Y-14022D01*
G54D16*
X19643Y-19222D02*
X19201Y-19222D01*
X19201Y-19222D02*
X19201Y-20022D01*
X19201Y-20022D02*
X19643Y-20022D01*
X20069Y-19222D02*
X20501Y-19222D01*
X20501Y-19222D02*
X20501Y-20022D01*
X20501Y-20022D02*
X20069Y-20022D01*
G54D13*
X19751Y-19472D02*
X19751Y-19772D01*
X19926Y-19472D02*
X19926Y-19772D01*
X19926Y-19772D02*
X19776Y-19622D01*
X19776Y-19622D02*
X19926Y-19472D01*
G54D16*
X14308Y-14272D02*
X14751Y-14272D01*
X14751Y-14272D02*
X14751Y-13472D01*
X14751Y-13472D02*
X14308Y-13472D01*
X13883Y-14272D02*
X13451Y-14272D01*
X13451Y-14272D02*
X13451Y-13472D01*
X13451Y-13472D02*
X13883Y-13472D01*
G54D13*
X14201Y-14022D02*
X14201Y-13722D01*
X14026Y-14022D02*
X14026Y-13722D01*
X14026Y-13722D02*
X14176Y-13872D01*
X14176Y-13872D02*
X14026Y-14022D01*
G54D16*
X7643Y-26722D02*
X7201Y-26722D01*
X7201Y-26722D02*
X7201Y-27522D01*
X7201Y-27522D02*
X7643Y-27522D01*
X8069Y-26722D02*
X8501Y-26722D01*
X8501Y-26722D02*
X8501Y-27522D01*
X8501Y-27522D02*
X8069Y-27522D01*
G54D13*
X7751Y-26972D02*
X7751Y-27272D01*
X7926Y-26972D02*
X7926Y-27272D01*
X7926Y-27272D02*
X7776Y-27122D01*
X7776Y-27122D02*
X7926Y-26972D01*
G54D16*
X6218Y-13209D02*
X5776Y-13209D01*
X5776Y-13209D02*
X5776Y-14009D01*
X5776Y-14009D02*
X6218Y-14009D01*
X6644Y-13209D02*
X7076Y-13209D01*
X7076Y-13209D02*
X7076Y-14009D01*
X7076Y-14009D02*
X6644Y-14009D01*
G54D13*
X6326Y-13459D02*
X6326Y-13759D01*
X6501Y-13459D02*
X6501Y-13759D01*
X6501Y-13759D02*
X6351Y-13609D01*
X6351Y-13609D02*
X6501Y-13459D01*
G54D16*
X20501Y-6164D02*
X20501Y-5722D01*
X20501Y-5722D02*
X19701Y-5722D01*
X19701Y-5722D02*
X19701Y-6164D01*
X20501Y-6590D02*
X20501Y-7022D01*
X20501Y-7022D02*
X19701Y-7022D01*
X19701Y-7022D02*
X19701Y-6590D01*
G54D13*
X20251Y-6272D02*
X19951Y-6272D01*
X20251Y-6447D02*
X19951Y-6447D01*
X19951Y-6447D02*
X20101Y-6297D01*
X20101Y-6297D02*
X20251Y-6447D01*
G54D16*
X13001Y-6164D02*
X13001Y-5722D01*
X13001Y-5722D02*
X12201Y-5722D01*
X12201Y-5722D02*
X12201Y-6164D01*
X13001Y-6590D02*
X13001Y-7022D01*
X13001Y-7022D02*
X12201Y-7022D01*
X12201Y-7022D02*
X12201Y-6590D01*
G54D13*
X12751Y-6272D02*
X12451Y-6272D01*
X12751Y-6447D02*
X12451Y-6447D01*
X12451Y-6447D02*
X12601Y-6297D01*
X12601Y-6297D02*
X12751Y-6447D01*
G54D16*
X8251Y-21164D02*
X8251Y-20722D01*
X8251Y-20722D02*
X7451Y-20722D01*
X7451Y-20722D02*
X7451Y-21164D01*
X8251Y-21590D02*
X8251Y-22022D01*
X8251Y-22022D02*
X7451Y-22022D01*
X7451Y-22022D02*
X7451Y-21590D01*
G54D13*
X8001Y-21272D02*
X7701Y-21272D01*
X8001Y-21447D02*
X7701Y-21447D01*
X7701Y-21447D02*
X7851Y-21297D01*
X7851Y-21297D02*
X8001Y-21447D01*
G54D16*
X88001Y-6414D02*
X88001Y-5972D01*
X88001Y-5972D02*
X87201Y-5972D01*
X87201Y-5972D02*
X87201Y-6414D01*
X88001Y-6840D02*
X88001Y-7272D01*
X88001Y-7272D02*
X87201Y-7272D01*
X87201Y-7272D02*
X87201Y-6840D01*
G54D13*
X87751Y-6522D02*
X87451Y-6522D01*
X87751Y-6697D02*
X87451Y-6697D01*
X87451Y-6697D02*
X87601Y-6547D01*
X87601Y-6547D02*
X87751Y-6697D01*
G54D16*
X88001Y-21164D02*
X88001Y-20722D01*
X88001Y-20722D02*
X87201Y-20722D01*
X87201Y-20722D02*
X87201Y-21164D01*
X88001Y-21590D02*
X88001Y-22022D01*
X88001Y-22022D02*
X87201Y-22022D01*
X87201Y-22022D02*
X87201Y-21590D01*
G54D13*
X87751Y-21272D02*
X87451Y-21272D01*
X87751Y-21447D02*
X87451Y-21447D01*
X87451Y-21447D02*
X87601Y-21297D01*
X87601Y-21297D02*
X87751Y-21447D01*
G54D16*
X88143Y-26722D02*
X87701Y-26722D01*
X87701Y-26722D02*
X87701Y-27522D01*
X87701Y-27522D02*
X88143Y-27522D01*
X88569Y-26722D02*
X89001Y-26722D01*
X89001Y-26722D02*
X89001Y-27522D01*
X89001Y-27522D02*
X88569Y-27522D01*
G54D13*
X88251Y-26972D02*
X88251Y-27272D01*
X88426Y-26972D02*
X88426Y-27272D01*
X88426Y-27272D02*
X88276Y-27122D01*
X88276Y-27122D02*
X88426Y-26972D01*
G54D16*
X78894Y-26722D02*
X78451Y-26722D01*
X78451Y-26722D02*
X78451Y-27522D01*
X78451Y-27522D02*
X78894Y-27522D01*
X79319Y-26722D02*
X79751Y-26722D01*
X79751Y-26722D02*
X79751Y-27522D01*
X79751Y-27522D02*
X79319Y-27522D01*
G54D13*
X79001Y-26972D02*
X79001Y-27272D01*
X79176Y-26972D02*
X79176Y-27272D01*
X79176Y-27272D02*
X79026Y-27122D01*
X79026Y-27122D02*
X79176Y-26972D01*
G54D16*
X84809Y-14022D02*
X85251Y-14022D01*
X85251Y-14022D02*
X85251Y-13222D01*
X85251Y-13222D02*
X84809Y-13222D01*
X84383Y-14022D02*
X83951Y-14022D01*
X83951Y-14022D02*
X83951Y-13222D01*
X83951Y-13222D02*
X84383Y-13222D01*
G54D13*
X84701Y-13772D02*
X84701Y-13472D01*
X84526Y-13772D02*
X84526Y-13472D01*
X84526Y-13472D02*
X84676Y-13622D01*
X84676Y-13622D02*
X84526Y-13772D01*
G54D16*
X80501Y-6164D02*
X80501Y-5722D01*
X80501Y-5722D02*
X79701Y-5722D01*
X79701Y-5722D02*
X79701Y-6164D01*
X80501Y-6590D02*
X80501Y-7022D01*
X80501Y-7022D02*
X79701Y-7022D01*
X79701Y-7022D02*
X79701Y-6590D01*
G54D13*
X80251Y-6272D02*
X79951Y-6272D01*
X80251Y-6447D02*
X79951Y-6447D01*
X79951Y-6447D02*
X80101Y-6297D01*
X80101Y-6297D02*
X80251Y-6447D01*
G54D16*
X76143Y-11722D02*
X75701Y-11722D01*
X75701Y-11722D02*
X75701Y-12522D01*
X75701Y-12522D02*
X76143Y-12522D01*
X76569Y-11722D02*
X77001Y-11722D01*
X77001Y-11722D02*
X77001Y-12522D01*
X77001Y-12522D02*
X76569Y-12522D01*
G54D13*
X76251Y-11972D02*
X76251Y-12272D01*
X76426Y-11972D02*
X76426Y-12272D01*
X76426Y-12272D02*
X76276Y-12122D01*
X76276Y-12122D02*
X76426Y-11972D01*
G54D16*
X80643Y-19222D02*
X80201Y-19222D01*
X80201Y-19222D02*
X80201Y-20022D01*
X80201Y-20022D02*
X80643Y-20022D01*
X81069Y-19222D02*
X81501Y-19222D01*
X81501Y-19222D02*
X81501Y-20022D01*
X81501Y-20022D02*
X81069Y-20022D01*
G54D13*
X80751Y-19472D02*
X80751Y-19772D01*
X80926Y-19472D02*
X80926Y-19772D01*
X80926Y-19772D02*
X80776Y-19622D01*
X80776Y-19622D02*
X80926Y-19472D01*
G54D16*
X1376Y-13509D02*
X1376Y-13309D01*
X1376Y-10509D02*
X1376Y-10709D01*
X1376Y-10709D02*
X1776Y-10709D01*
X1776Y-10709D02*
X1776Y-13309D01*
X1776Y-13309D02*
X976Y-13309D01*
X976Y-13309D02*
X976Y-10709D01*
X976Y-10709D02*
X1376Y-10709D01*
X2701Y-16622D02*
X2701Y-16822D01*
X2701Y-19622D02*
X2701Y-19422D01*
X2701Y-19422D02*
X2301Y-19422D01*
X2301Y-19422D02*
X2301Y-16822D01*
X2301Y-16822D02*
X3101Y-16822D01*
X3101Y-16822D02*
X3101Y-19422D01*
X3101Y-19422D02*
X2701Y-19422D01*
X31301Y-12122D02*
X31301Y-11922D01*
X31301Y-9122D02*
X31301Y-9322D01*
X31301Y-9322D02*
X31701Y-9322D01*
X31701Y-9322D02*
X31701Y-11922D01*
X31701Y-11922D02*
X30901Y-11922D01*
X30901Y-11922D02*
X30901Y-9322D01*
X30901Y-9322D02*
X31301Y-9322D01*
X23851Y-12122D02*
X23851Y-11922D01*
X23851Y-9122D02*
X23851Y-9322D01*
X23851Y-9322D02*
X24251Y-9322D01*
X24251Y-9322D02*
X24251Y-11922D01*
X24251Y-11922D02*
X23451Y-11922D01*
X23451Y-11922D02*
X23451Y-9322D01*
X23451Y-9322D02*
X23851Y-9322D01*
X16301Y-13022D02*
X16301Y-12822D01*
X16301Y-10022D02*
X16301Y-10222D01*
X16301Y-10222D02*
X16701Y-10222D01*
X16701Y-10222D02*
X16701Y-12822D01*
X16701Y-12822D02*
X15901Y-12822D01*
X15901Y-12822D02*
X15901Y-10222D01*
X15901Y-10222D02*
X16301Y-10222D01*
X22001Y-4622D02*
X22001Y-4422D01*
X22001Y-1622D02*
X22001Y-1822D01*
X22001Y-1822D02*
X22401Y-1822D01*
X22401Y-1822D02*
X22401Y-4422D01*
X22401Y-4422D02*
X21601Y-4422D01*
X21601Y-4422D02*
X21601Y-1822D01*
X21601Y-1822D02*
X22001Y-1822D01*
G54D12*
X11958Y-19836D02*
X11872Y-19864D01*
X11729Y-19864D01*
X11672Y-19836D01*
X11644Y-19807D01*
X11615Y-19750D01*
X11615Y-19693D01*
X11644Y-19636D01*
X11672Y-19607D01*
X11729Y-19579D01*
X11844Y-19550D01*
X11901Y-19522D01*
X11929Y-19493D01*
X11958Y-19436D01*
X11958Y-19379D01*
X11929Y-19322D01*
X11901Y-19293D01*
X11844Y-19264D01*
X11701Y-19264D01*
X11615Y-19293D01*
X11244Y-19264D02*
X11187Y-19264D01*
X11129Y-19293D01*
X11101Y-19322D01*
X11072Y-19379D01*
X11044Y-19493D01*
X11044Y-19636D01*
X11072Y-19750D01*
X11101Y-19807D01*
X11129Y-19836D01*
X11187Y-19864D01*
X11244Y-19864D01*
X11301Y-19836D01*
X11329Y-19807D01*
X11358Y-19750D01*
X11387Y-19636D01*
X11387Y-19493D01*
X11358Y-19379D01*
X11329Y-19322D01*
X11301Y-19293D01*
X11244Y-19264D01*
X10301Y-64D02*
X10301Y-493D01*
X10329Y-579D01*
X10387Y-636D01*
X10472Y-664D01*
X10529Y-664D01*
X9701Y-664D02*
X10044Y-664D01*
X9872Y-664D02*
X9872Y-64D01*
X9929Y-150D01*
X9987Y-207D01*
X10044Y-236D01*
G54D14*
X60162Y-25890D02*
X60555Y-26152D01*
X60162Y-26152D02*
X60555Y-25890D01*
X60555Y-26509D02*
X60555Y-26284D01*
X60555Y-26396D02*
X60162Y-26396D01*
X60218Y-26359D01*
X60255Y-26321D01*
X60274Y-26284D01*
X58980Y-29218D02*
X58980Y-28824D01*
X58568Y-29180D02*
X58587Y-29199D01*
X58643Y-29218D01*
X58680Y-29218D01*
X58737Y-29199D01*
X58774Y-29162D01*
X58793Y-29124D01*
X58812Y-29049D01*
X58812Y-28993D01*
X58793Y-28918D01*
X58774Y-28880D01*
X58737Y-28843D01*
X58680Y-28824D01*
X58643Y-28824D01*
X58587Y-28843D01*
X58568Y-28862D01*
X58193Y-29218D02*
X58418Y-29218D01*
X58305Y-29218D02*
X58305Y-28824D01*
X58343Y-28880D01*
X58380Y-28918D01*
X58418Y-28937D01*
G54D17*
X58165Y-24175D02*
X58165Y-24365D01*
X58337Y-24137D02*
X57737Y-24270D01*
X58337Y-24404D01*
X57737Y-24480D02*
X57737Y-24708D01*
X58337Y-24594D02*
X57737Y-24594D01*
X58337Y-24842D02*
X57737Y-24842D01*
X58165Y-24975D01*
X57737Y-25108D01*
X58337Y-25108D01*
X58023Y-25299D02*
X58023Y-25432D01*
X58337Y-25489D02*
X58337Y-25299D01*
X57737Y-25299D01*
X57737Y-25489D01*
X57765Y-25870D02*
X57737Y-25832D01*
X57737Y-25775D01*
X57765Y-25718D01*
X57823Y-25680D01*
X57880Y-25661D01*
X57994Y-25642D01*
X58080Y-25642D01*
X58194Y-25661D01*
X58251Y-25680D01*
X58308Y-25718D01*
X58337Y-25775D01*
X58337Y-25813D01*
X58308Y-25870D01*
X58280Y-25889D01*
X58080Y-25889D01*
X58080Y-25813D01*
X58165Y-26042D02*
X58165Y-26232D01*
X58337Y-26004D02*
X57737Y-26137D01*
X58337Y-26270D01*
X57737Y-26365D02*
X57737Y-26613D01*
X57965Y-26480D01*
X57965Y-26537D01*
X57994Y-26575D01*
X58023Y-26594D01*
X58080Y-26613D01*
X58223Y-26613D01*
X58280Y-26594D01*
X58308Y-26575D01*
X58337Y-26537D01*
X58337Y-26423D01*
X58308Y-26385D01*
X58280Y-26365D01*
X57794Y-26765D02*
X57765Y-26785D01*
X57737Y-26823D01*
X57737Y-26918D01*
X57765Y-26956D01*
X57794Y-26975D01*
X57851Y-26994D01*
X57908Y-26994D01*
X57994Y-26975D01*
X58337Y-26746D01*
X58337Y-26994D01*
X57737Y-27165D02*
X58223Y-27165D01*
X58280Y-27185D01*
X58308Y-27204D01*
X58337Y-27242D01*
X58337Y-27318D01*
X58308Y-27356D01*
X58280Y-27375D01*
X58223Y-27394D01*
X57737Y-27394D01*
X57937Y-27756D02*
X58337Y-27756D01*
X57708Y-27661D02*
X58137Y-27565D01*
X58137Y-27813D01*
G54D14*
X5262Y-7785D02*
X5280Y-7803D01*
X5332Y-7821D01*
X5367Y-7821D01*
X5420Y-7803D01*
X5455Y-7768D01*
X5473Y-7733D01*
X5490Y-7663D01*
X5490Y-7610D01*
X5473Y-7540D01*
X5455Y-7505D01*
X5420Y-7470D01*
X5367Y-7452D01*
X5332Y-7452D01*
X5280Y-7470D01*
X5262Y-7487D01*
X5052Y-7610D02*
X5087Y-7593D01*
X5104Y-7575D01*
X5122Y-7540D01*
X5122Y-7523D01*
X5104Y-7487D01*
X5087Y-7470D01*
X5052Y-7452D01*
X4982Y-7452D01*
X4947Y-7470D01*
X4929Y-7487D01*
X4912Y-7523D01*
X4912Y-7540D01*
X4929Y-7575D01*
X4947Y-7593D01*
X4982Y-7610D01*
X5052Y-7610D01*
X5087Y-7628D01*
X5104Y-7645D01*
X5122Y-7680D01*
X5122Y-7750D01*
X5104Y-7785D01*
X5087Y-7803D01*
X5052Y-7821D01*
X4982Y-7821D01*
X4947Y-7803D01*
X4929Y-7785D01*
X4912Y-7750D01*
X4912Y-7680D01*
X4929Y-7645D01*
X4947Y-7628D01*
X4982Y-7610D01*
X63462Y-25030D02*
X63480Y-25049D01*
X63537Y-25068D01*
X63574Y-25068D01*
X63630Y-25049D01*
X63668Y-25012D01*
X63687Y-24974D01*
X63705Y-24899D01*
X63705Y-24843D01*
X63687Y-24768D01*
X63668Y-24730D01*
X63630Y-24693D01*
X63574Y-24674D01*
X63537Y-24674D01*
X63480Y-24693D01*
X63462Y-24712D01*
X63087Y-25068D02*
X63312Y-25068D01*
X63199Y-25068D02*
X63199Y-24674D01*
X63237Y-24730D01*
X63274Y-24768D01*
X63312Y-24787D01*
X63462Y-26780D02*
X63480Y-26799D01*
X63537Y-26818D01*
X63574Y-26818D01*
X63630Y-26799D01*
X63668Y-26762D01*
X63687Y-26724D01*
X63705Y-26649D01*
X63705Y-26593D01*
X63687Y-26518D01*
X63668Y-26480D01*
X63630Y-26443D01*
X63574Y-26424D01*
X63537Y-26424D01*
X63480Y-26443D01*
X63462Y-26462D01*
X63312Y-26462D02*
X63293Y-26443D01*
X63255Y-26424D01*
X63162Y-26424D01*
X63124Y-26443D01*
X63105Y-26462D01*
X63087Y-26499D01*
X63087Y-26537D01*
X63105Y-26593D01*
X63330Y-26818D01*
X63087Y-26818D01*
X54212Y-27030D02*
X54230Y-27049D01*
X54287Y-27068D01*
X54324Y-27068D01*
X54380Y-27049D01*
X54418Y-27012D01*
X54437Y-26974D01*
X54455Y-26899D01*
X54455Y-26843D01*
X54437Y-26768D01*
X54418Y-26730D01*
X54380Y-26693D01*
X54324Y-26674D01*
X54287Y-26674D01*
X54230Y-26693D01*
X54212Y-26712D01*
X53874Y-26805D02*
X53874Y-27068D01*
X53968Y-26655D02*
X54062Y-26937D01*
X53818Y-26937D01*
X53812Y-23031D02*
X53830Y-23049D01*
X53887Y-23068D01*
X53924Y-23068D01*
X53980Y-23049D01*
X54018Y-23012D01*
X54037Y-22974D01*
X54055Y-22899D01*
X54055Y-22843D01*
X54037Y-22768D01*
X54018Y-22731D01*
X53980Y-22693D01*
X53924Y-22674D01*
X53887Y-22674D01*
X53830Y-22693D01*
X53812Y-22712D01*
X53455Y-22674D02*
X53643Y-22674D01*
X53662Y-22862D01*
X53643Y-22843D01*
X53605Y-22824D01*
X53512Y-22824D01*
X53474Y-22843D01*
X53455Y-22862D01*
X53437Y-22899D01*
X53437Y-22993D01*
X53455Y-23031D01*
X53474Y-23049D01*
X53512Y-23068D01*
X53605Y-23068D01*
X53643Y-23049D01*
X53662Y-23031D01*
X62612Y-28480D02*
X62630Y-28499D01*
X62687Y-28518D01*
X62724Y-28518D01*
X62780Y-28499D01*
X62818Y-28462D01*
X62837Y-28424D01*
X62855Y-28349D01*
X62855Y-28293D01*
X62837Y-28218D01*
X62818Y-28180D01*
X62780Y-28143D01*
X62724Y-28124D01*
X62687Y-28124D01*
X62630Y-28143D01*
X62612Y-28162D01*
X62274Y-28124D02*
X62349Y-28124D01*
X62387Y-28143D01*
X62405Y-28162D01*
X62443Y-28218D01*
X62462Y-28293D01*
X62462Y-28443D01*
X62443Y-28480D01*
X62424Y-28499D01*
X62387Y-28518D01*
X62312Y-28518D01*
X62274Y-28499D01*
X62255Y-28480D01*
X62237Y-28443D01*
X62237Y-28349D01*
X62255Y-28312D01*
X62274Y-28293D01*
X62312Y-28274D01*
X62387Y-28274D01*
X62424Y-28293D01*
X62443Y-28312D01*
X62462Y-28349D01*
X61112Y-24580D02*
X61130Y-24599D01*
X61187Y-24618D01*
X61224Y-24618D01*
X61280Y-24599D01*
X61318Y-24562D01*
X61337Y-24524D01*
X61355Y-24449D01*
X61355Y-24393D01*
X61337Y-24318D01*
X61318Y-24280D01*
X61280Y-24243D01*
X61224Y-24224D01*
X61187Y-24224D01*
X61130Y-24243D01*
X61112Y-24262D01*
X60980Y-24224D02*
X60718Y-24224D01*
X60887Y-24618D01*
X7587Y-6408D02*
X7710Y-6232D01*
X7798Y-6408D02*
X7798Y-6039D01*
X7657Y-6039D01*
X7622Y-6057D01*
X7605Y-6075D01*
X7587Y-6110D01*
X7587Y-6162D01*
X7605Y-6197D01*
X7622Y-6215D01*
X7657Y-6232D01*
X7798Y-6232D01*
X7237Y-6408D02*
X7447Y-6408D01*
X7342Y-6408D02*
X7342Y-6039D01*
X7377Y-6092D01*
X7412Y-6127D01*
X7447Y-6145D01*
X8437Y-6408D02*
X8560Y-6232D01*
X8648Y-6408D02*
X8648Y-6039D01*
X8507Y-6039D01*
X8472Y-6057D01*
X8455Y-6075D01*
X8437Y-6110D01*
X8437Y-6162D01*
X8455Y-6197D01*
X8472Y-6215D01*
X8507Y-6232D01*
X8648Y-6232D01*
X8297Y-6075D02*
X8279Y-6057D01*
X8244Y-6039D01*
X8157Y-6039D01*
X8122Y-6057D01*
X8104Y-6075D01*
X8087Y-6110D01*
X8087Y-6145D01*
X8104Y-6197D01*
X8315Y-6408D01*
X8087Y-6408D01*
X60062Y-23030D02*
X60080Y-23049D01*
X60137Y-23068D01*
X60174Y-23068D01*
X60230Y-23049D01*
X60268Y-23012D01*
X60287Y-22974D01*
X60305Y-22899D01*
X60305Y-22843D01*
X60287Y-22768D01*
X60268Y-22730D01*
X60230Y-22693D01*
X60174Y-22674D01*
X60137Y-22674D01*
X60080Y-22693D01*
X60062Y-22712D01*
X59930Y-22674D02*
X59687Y-22674D01*
X59818Y-22824D01*
X59762Y-22824D01*
X59724Y-22843D01*
X59705Y-22862D01*
X59687Y-22899D01*
X59687Y-22993D01*
X59705Y-23030D01*
X59724Y-23049D01*
X59762Y-23068D01*
X59874Y-23068D01*
X59912Y-23049D01*
X59930Y-23030D01*
X54166Y-28043D02*
X54298Y-27855D01*
X54391Y-28043D02*
X54391Y-27649D01*
X54241Y-27649D01*
X54204Y-27668D01*
X54185Y-27687D01*
X54166Y-27724D01*
X54166Y-27780D01*
X54185Y-27818D01*
X54204Y-27836D01*
X54241Y-27855D01*
X54391Y-27855D01*
X54035Y-27649D02*
X53791Y-27649D01*
X53923Y-27799D01*
X53866Y-27799D01*
X53829Y-27818D01*
X53810Y-27836D01*
X53791Y-27874D01*
X53791Y-27968D01*
X53810Y-28005D01*
X53829Y-28024D01*
X53866Y-28043D01*
X53979Y-28043D01*
X54016Y-28024D01*
X54035Y-28005D01*
X63462Y-24418D02*
X63593Y-24230D01*
X63687Y-24418D02*
X63687Y-24024D01*
X63537Y-24024D01*
X63499Y-24043D01*
X63480Y-24062D01*
X63462Y-24099D01*
X63462Y-24155D01*
X63480Y-24193D01*
X63499Y-24212D01*
X63537Y-24230D01*
X63687Y-24230D01*
X63105Y-24024D02*
X63293Y-24024D01*
X63312Y-24212D01*
X63293Y-24193D01*
X63255Y-24174D01*
X63162Y-24174D01*
X63124Y-24193D01*
X63105Y-24212D01*
X63087Y-24249D01*
X63087Y-24343D01*
X63105Y-24380D01*
X63124Y-24399D01*
X63162Y-24418D01*
X63255Y-24418D01*
X63293Y-24399D01*
X63312Y-24380D01*
X72000Y-5725D02*
X71632Y-5725D01*
X71632Y-5812D01*
X71649Y-5865D01*
X71685Y-5900D01*
X71720Y-5917D01*
X71790Y-5935D01*
X71842Y-5935D01*
X71912Y-5917D01*
X71947Y-5900D01*
X71983Y-5865D01*
X72000Y-5812D01*
X72000Y-5725D01*
X71755Y-6250D02*
X72000Y-6250D01*
X71614Y-6163D02*
X71877Y-6075D01*
X71877Y-6303D01*
X71632Y-6601D02*
X71632Y-6531D01*
X71649Y-6496D01*
X71667Y-6478D01*
X71720Y-6443D01*
X71790Y-6426D01*
X71930Y-6426D01*
X71965Y-6443D01*
X71983Y-6461D01*
X72000Y-6496D01*
X72000Y-6566D01*
X71983Y-6601D01*
X71965Y-6619D01*
X71930Y-6636D01*
X71842Y-6636D01*
X71807Y-6619D01*
X71790Y-6601D01*
X71772Y-6566D01*
X71772Y-6496D01*
X71790Y-6461D01*
X71807Y-6443D01*
X71842Y-6426D01*
X69098Y-13021D02*
X69098Y-12652D01*
X69010Y-12652D01*
X68957Y-12670D01*
X68922Y-12705D01*
X68905Y-12740D01*
X68887Y-12810D01*
X68887Y-12863D01*
X68905Y-12933D01*
X68922Y-12968D01*
X68957Y-13003D01*
X69010Y-13021D01*
X69098Y-13021D01*
X68572Y-12775D02*
X68572Y-13021D01*
X68659Y-12635D02*
X68747Y-12898D01*
X68519Y-12898D01*
X68397Y-12687D02*
X68379Y-12670D01*
X68344Y-12652D01*
X68256Y-12652D01*
X68221Y-12670D01*
X68204Y-12687D01*
X68186Y-12723D01*
X68186Y-12758D01*
X68204Y-12810D01*
X68414Y-13021D01*
X68186Y-13021D01*
X72598Y-20521D02*
X72598Y-20152D01*
X72510Y-20152D01*
X72457Y-20170D01*
X72422Y-20205D01*
X72405Y-20240D01*
X72387Y-20310D01*
X72387Y-20363D01*
X72405Y-20433D01*
X72422Y-20468D01*
X72457Y-20503D01*
X72510Y-20521D01*
X72598Y-20521D01*
X72072Y-20275D02*
X72072Y-20521D01*
X72159Y-20135D02*
X72247Y-20398D01*
X72019Y-20398D01*
X71914Y-20152D02*
X71686Y-20152D01*
X71809Y-20293D01*
X71756Y-20293D01*
X71721Y-20310D01*
X71704Y-20328D01*
X71686Y-20363D01*
X71686Y-20450D01*
X71704Y-20485D01*
X71721Y-20503D01*
X71756Y-20521D01*
X71861Y-20521D01*
X71897Y-20503D01*
X71914Y-20485D01*
X39098Y-13021D02*
X39098Y-12652D01*
X39010Y-12652D01*
X38957Y-12670D01*
X38922Y-12705D01*
X38905Y-12740D01*
X38887Y-12810D01*
X38887Y-12863D01*
X38905Y-12933D01*
X38922Y-12968D01*
X38957Y-13003D01*
X39010Y-13021D01*
X39098Y-13021D01*
X38747Y-12687D02*
X38730Y-12670D01*
X38695Y-12652D01*
X38607Y-12652D01*
X38572Y-12670D01*
X38554Y-12687D01*
X38537Y-12723D01*
X38537Y-12758D01*
X38554Y-12810D01*
X38765Y-13021D01*
X38537Y-13021D01*
X38397Y-12687D02*
X38379Y-12670D01*
X38344Y-12652D01*
X38256Y-12652D01*
X38221Y-12670D01*
X38204Y-12687D01*
X38186Y-12723D01*
X38186Y-12758D01*
X38204Y-12810D01*
X38414Y-13021D01*
X38186Y-13021D01*
X65098Y-20521D02*
X65098Y-20152D01*
X65010Y-20152D01*
X64957Y-20170D01*
X64922Y-20205D01*
X64905Y-20240D01*
X64887Y-20310D01*
X64887Y-20363D01*
X64905Y-20433D01*
X64922Y-20468D01*
X64957Y-20503D01*
X65010Y-20521D01*
X65098Y-20521D01*
X64765Y-20152D02*
X64537Y-20152D01*
X64659Y-20293D01*
X64607Y-20293D01*
X64572Y-20310D01*
X64554Y-20328D01*
X64537Y-20363D01*
X64537Y-20450D01*
X64554Y-20485D01*
X64572Y-20503D01*
X64607Y-20521D01*
X64712Y-20521D01*
X64747Y-20503D01*
X64765Y-20485D01*
X64326Y-20310D02*
X64361Y-20293D01*
X64379Y-20275D01*
X64397Y-20240D01*
X64397Y-20223D01*
X64379Y-20187D01*
X64361Y-20170D01*
X64326Y-20152D01*
X64256Y-20152D01*
X64221Y-20170D01*
X64204Y-20187D01*
X64186Y-20223D01*
X64186Y-20240D01*
X64204Y-20275D01*
X64221Y-20293D01*
X64256Y-20310D01*
X64326Y-20310D01*
X64361Y-20328D01*
X64379Y-20345D01*
X64397Y-20380D01*
X64397Y-20450D01*
X64379Y-20485D01*
X64361Y-20503D01*
X64326Y-20521D01*
X64256Y-20521D01*
X64221Y-20503D01*
X64204Y-20485D01*
X64186Y-20450D01*
X64186Y-20380D01*
X64204Y-20345D01*
X64221Y-20328D01*
X64256Y-20310D01*
X61598Y-13021D02*
X61598Y-12652D01*
X61510Y-12652D01*
X61457Y-12670D01*
X61422Y-12705D01*
X61405Y-12740D01*
X61387Y-12810D01*
X61387Y-12863D01*
X61405Y-12933D01*
X61422Y-12968D01*
X61457Y-13003D01*
X61510Y-13021D01*
X61598Y-13021D01*
X61265Y-12652D02*
X61037Y-12652D01*
X61159Y-12793D01*
X61107Y-12793D01*
X61072Y-12810D01*
X61054Y-12828D01*
X61037Y-12863D01*
X61037Y-12950D01*
X61054Y-12985D01*
X61072Y-13003D01*
X61107Y-13021D01*
X61212Y-13021D01*
X61247Y-13003D01*
X61265Y-12985D01*
X60914Y-12652D02*
X60669Y-12652D01*
X60826Y-13021D01*
X64500Y-5725D02*
X64132Y-5725D01*
X64132Y-5812D01*
X64149Y-5865D01*
X64185Y-5900D01*
X64220Y-5917D01*
X64290Y-5935D01*
X64342Y-5935D01*
X64412Y-5917D01*
X64447Y-5900D01*
X64483Y-5865D01*
X64500Y-5812D01*
X64500Y-5725D01*
X64255Y-6250D02*
X64500Y-6250D01*
X64114Y-6163D02*
X64377Y-6075D01*
X64377Y-6303D01*
X64500Y-6636D02*
X64500Y-6426D01*
X64500Y-6531D02*
X64132Y-6531D01*
X64185Y-6496D01*
X64220Y-6461D01*
X64237Y-6426D01*
X57000Y-5725D02*
X56632Y-5725D01*
X56632Y-5812D01*
X56649Y-5865D01*
X56685Y-5900D01*
X56720Y-5917D01*
X56790Y-5935D01*
X56842Y-5935D01*
X56912Y-5917D01*
X56947Y-5900D01*
X56983Y-5865D01*
X57000Y-5812D01*
X57000Y-5725D01*
X56632Y-6058D02*
X56632Y-6285D01*
X56772Y-6163D01*
X56772Y-6215D01*
X56790Y-6250D01*
X56807Y-6268D01*
X56842Y-6285D01*
X56930Y-6285D01*
X56965Y-6268D01*
X56983Y-6250D01*
X57000Y-6215D01*
X57000Y-6110D01*
X56983Y-6075D01*
X56965Y-6058D01*
X56632Y-6601D02*
X56632Y-6531D01*
X56649Y-6496D01*
X56667Y-6478D01*
X56720Y-6443D01*
X56790Y-6426D01*
X56930Y-6426D01*
X56965Y-6443D01*
X56983Y-6461D01*
X57000Y-6496D01*
X57000Y-6566D01*
X56983Y-6601D01*
X56965Y-6619D01*
X56930Y-6636D01*
X56842Y-6636D01*
X56807Y-6619D01*
X56790Y-6601D01*
X56772Y-6566D01*
X56772Y-6496D01*
X56790Y-6461D01*
X56807Y-6443D01*
X56842Y-6426D01*
X54098Y-13021D02*
X54098Y-12652D01*
X54010Y-12652D01*
X53957Y-12670D01*
X53922Y-12705D01*
X53905Y-12740D01*
X53887Y-12810D01*
X53887Y-12863D01*
X53905Y-12933D01*
X53922Y-12968D01*
X53957Y-13003D01*
X54010Y-13021D01*
X54098Y-13021D01*
X53765Y-12652D02*
X53537Y-12652D01*
X53659Y-12793D01*
X53607Y-12793D01*
X53572Y-12810D01*
X53554Y-12828D01*
X53537Y-12863D01*
X53537Y-12950D01*
X53554Y-12985D01*
X53572Y-13003D01*
X53607Y-13021D01*
X53712Y-13021D01*
X53747Y-13003D01*
X53765Y-12985D01*
X53397Y-12687D02*
X53379Y-12670D01*
X53344Y-12652D01*
X53256Y-12652D01*
X53221Y-12670D01*
X53204Y-12687D01*
X53186Y-12723D01*
X53186Y-12758D01*
X53204Y-12810D01*
X53414Y-13021D01*
X53186Y-13021D01*
X57598Y-20521D02*
X57598Y-20152D01*
X57510Y-20152D01*
X57457Y-20170D01*
X57422Y-20205D01*
X57405Y-20240D01*
X57387Y-20310D01*
X57387Y-20363D01*
X57405Y-20433D01*
X57422Y-20468D01*
X57457Y-20503D01*
X57510Y-20521D01*
X57598Y-20521D01*
X57265Y-20152D02*
X57037Y-20152D01*
X57159Y-20293D01*
X57107Y-20293D01*
X57072Y-20310D01*
X57054Y-20328D01*
X57037Y-20363D01*
X57037Y-20450D01*
X57054Y-20485D01*
X57072Y-20503D01*
X57107Y-20521D01*
X57212Y-20521D01*
X57247Y-20503D01*
X57265Y-20485D01*
X56914Y-20152D02*
X56686Y-20152D01*
X56809Y-20293D01*
X56756Y-20293D01*
X56721Y-20310D01*
X56704Y-20328D01*
X56686Y-20363D01*
X56686Y-20450D01*
X56704Y-20485D01*
X56721Y-20503D01*
X56756Y-20521D01*
X56861Y-20521D01*
X56897Y-20503D01*
X56914Y-20485D01*
X42598Y-20521D02*
X42598Y-20152D01*
X42510Y-20152D01*
X42457Y-20170D01*
X42422Y-20205D01*
X42405Y-20240D01*
X42387Y-20310D01*
X42387Y-20363D01*
X42405Y-20433D01*
X42422Y-20468D01*
X42457Y-20503D01*
X42510Y-20521D01*
X42598Y-20521D01*
X42247Y-20187D02*
X42230Y-20170D01*
X42195Y-20152D01*
X42107Y-20152D01*
X42072Y-20170D01*
X42054Y-20187D01*
X42037Y-20223D01*
X42037Y-20258D01*
X42054Y-20310D01*
X42265Y-20521D01*
X42037Y-20521D01*
X41914Y-20152D02*
X41686Y-20152D01*
X41809Y-20293D01*
X41756Y-20293D01*
X41721Y-20310D01*
X41704Y-20328D01*
X41686Y-20363D01*
X41686Y-20450D01*
X41704Y-20485D01*
X41721Y-20503D01*
X41756Y-20521D01*
X41861Y-20521D01*
X41897Y-20503D01*
X41914Y-20485D01*
X4248Y-6321D02*
X4248Y-5952D01*
X4160Y-5952D01*
X4108Y-5970D01*
X4073Y-6005D01*
X4055Y-6040D01*
X4038Y-6110D01*
X4038Y-6163D01*
X4055Y-6233D01*
X4073Y-6268D01*
X4108Y-6303D01*
X4160Y-6321D01*
X4248Y-6321D01*
X3810Y-5952D02*
X3775Y-5952D01*
X3740Y-5970D01*
X3722Y-5987D01*
X3704Y-6023D01*
X3687Y-6093D01*
X3687Y-6180D01*
X3704Y-6250D01*
X3722Y-6285D01*
X3740Y-6303D01*
X3775Y-6321D01*
X3810Y-6321D01*
X3845Y-6303D01*
X3862Y-6285D01*
X3880Y-6250D01*
X3897Y-6180D01*
X3897Y-6093D01*
X3880Y-6023D01*
X3862Y-5987D01*
X3845Y-5970D01*
X3810Y-5952D01*
X3336Y-6321D02*
X3547Y-6321D01*
X3442Y-6321D02*
X3442Y-5952D01*
X3477Y-6005D01*
X3512Y-6040D01*
X3547Y-6058D01*
X49500Y-5725D02*
X49132Y-5725D01*
X49132Y-5812D01*
X49149Y-5865D01*
X49185Y-5900D01*
X49220Y-5917D01*
X49290Y-5935D01*
X49342Y-5935D01*
X49412Y-5917D01*
X49447Y-5900D01*
X49483Y-5865D01*
X49500Y-5812D01*
X49500Y-5725D01*
X49132Y-6058D02*
X49132Y-6285D01*
X49272Y-6163D01*
X49272Y-6215D01*
X49290Y-6250D01*
X49307Y-6268D01*
X49342Y-6285D01*
X49430Y-6285D01*
X49465Y-6268D01*
X49483Y-6250D01*
X49500Y-6215D01*
X49500Y-6110D01*
X49483Y-6075D01*
X49465Y-6058D01*
X49500Y-6636D02*
X49500Y-6426D01*
X49500Y-6531D02*
X49132Y-6531D01*
X49185Y-6496D01*
X49220Y-6461D01*
X49237Y-6426D01*
X34500Y-5725D02*
X34132Y-5725D01*
X34132Y-5812D01*
X34149Y-5865D01*
X34185Y-5900D01*
X34220Y-5917D01*
X34290Y-5935D01*
X34342Y-5935D01*
X34412Y-5917D01*
X34447Y-5900D01*
X34483Y-5865D01*
X34500Y-5812D01*
X34500Y-5725D01*
X34167Y-6075D02*
X34149Y-6093D01*
X34132Y-6128D01*
X34132Y-6215D01*
X34149Y-6250D01*
X34167Y-6268D01*
X34202Y-6285D01*
X34237Y-6285D01*
X34290Y-6268D01*
X34500Y-6058D01*
X34500Y-6285D01*
X34500Y-6636D02*
X34500Y-6426D01*
X34500Y-6531D02*
X34132Y-6531D01*
X34185Y-6496D01*
X34220Y-6461D01*
X34237Y-6426D01*
X35098Y-20521D02*
X35098Y-20152D01*
X35010Y-20152D01*
X34957Y-20170D01*
X34922Y-20205D01*
X34905Y-20240D01*
X34887Y-20310D01*
X34887Y-20363D01*
X34905Y-20433D01*
X34922Y-20468D01*
X34957Y-20503D01*
X35010Y-20521D01*
X35098Y-20521D01*
X34537Y-20521D02*
X34747Y-20521D01*
X34642Y-20521D02*
X34642Y-20152D01*
X34677Y-20205D01*
X34712Y-20240D01*
X34747Y-20258D01*
X34326Y-20310D02*
X34361Y-20293D01*
X34379Y-20275D01*
X34397Y-20240D01*
X34397Y-20223D01*
X34379Y-20187D01*
X34361Y-20170D01*
X34326Y-20152D01*
X34256Y-20152D01*
X34221Y-20170D01*
X34204Y-20187D01*
X34186Y-20223D01*
X34186Y-20240D01*
X34204Y-20275D01*
X34221Y-20293D01*
X34256Y-20310D01*
X34326Y-20310D01*
X34361Y-20328D01*
X34379Y-20345D01*
X34397Y-20380D01*
X34397Y-20450D01*
X34379Y-20485D01*
X34361Y-20503D01*
X34326Y-20521D01*
X34256Y-20521D01*
X34221Y-20503D01*
X34204Y-20485D01*
X34186Y-20450D01*
X34186Y-20380D01*
X34204Y-20345D01*
X34221Y-20328D01*
X34256Y-20310D01*
X29748Y-13271D02*
X29748Y-12902D01*
X29660Y-12902D01*
X29608Y-12920D01*
X29573Y-12955D01*
X29555Y-12990D01*
X29538Y-13060D01*
X29538Y-13113D01*
X29555Y-13183D01*
X29573Y-13218D01*
X29608Y-13253D01*
X29660Y-13271D01*
X29748Y-13271D01*
X29187Y-13271D02*
X29397Y-13271D01*
X29292Y-13271D02*
X29292Y-12902D01*
X29327Y-12955D01*
X29362Y-12990D01*
X29397Y-13008D01*
X29064Y-12902D02*
X28819Y-12902D01*
X28977Y-13271D01*
X27000Y-5725D02*
X26632Y-5725D01*
X26632Y-5812D01*
X26649Y-5865D01*
X26685Y-5900D01*
X26720Y-5917D01*
X26790Y-5935D01*
X26842Y-5935D01*
X26912Y-5917D01*
X26947Y-5900D01*
X26983Y-5865D01*
X27000Y-5812D01*
X27000Y-5725D01*
X27000Y-6285D02*
X27000Y-6075D01*
X27000Y-6180D02*
X26632Y-6180D01*
X26685Y-6145D01*
X26720Y-6110D01*
X26737Y-6075D01*
X26632Y-6601D02*
X26632Y-6531D01*
X26649Y-6496D01*
X26667Y-6478D01*
X26720Y-6443D01*
X26790Y-6426D01*
X26930Y-6426D01*
X26965Y-6443D01*
X26983Y-6461D01*
X27000Y-6496D01*
X27000Y-6566D01*
X26983Y-6601D01*
X26965Y-6619D01*
X26930Y-6636D01*
X26842Y-6636D01*
X26807Y-6619D01*
X26790Y-6601D01*
X26772Y-6566D01*
X26772Y-6496D01*
X26790Y-6461D01*
X26807Y-6443D01*
X26842Y-6426D01*
X51098Y-28021D02*
X51098Y-27652D01*
X51010Y-27652D01*
X50957Y-27670D01*
X50922Y-27705D01*
X50905Y-27740D01*
X50887Y-27810D01*
X50887Y-27863D01*
X50905Y-27933D01*
X50922Y-27968D01*
X50957Y-28003D01*
X51010Y-28021D01*
X51098Y-28021D01*
X50747Y-27687D02*
X50730Y-27670D01*
X50695Y-27652D01*
X50607Y-27652D01*
X50572Y-27670D01*
X50554Y-27687D01*
X50537Y-27723D01*
X50537Y-27758D01*
X50554Y-27810D01*
X50765Y-28021D01*
X50537Y-28021D01*
X50361Y-28021D02*
X50291Y-28021D01*
X50256Y-28003D01*
X50239Y-27985D01*
X50204Y-27933D01*
X50186Y-27863D01*
X50186Y-27723D01*
X50204Y-27687D01*
X50221Y-27670D01*
X50256Y-27652D01*
X50326Y-27652D01*
X50361Y-27670D01*
X50379Y-27687D01*
X50397Y-27723D01*
X50397Y-27810D01*
X50379Y-27845D01*
X50361Y-27863D01*
X50326Y-27880D01*
X50256Y-27880D01*
X50221Y-27863D01*
X50204Y-27845D01*
X50186Y-27810D01*
X48823Y-22008D02*
X48823Y-21639D01*
X48735Y-21639D01*
X48683Y-21657D01*
X48648Y-21692D01*
X48630Y-21727D01*
X48613Y-21797D01*
X48613Y-21850D01*
X48630Y-21920D01*
X48648Y-21955D01*
X48683Y-21990D01*
X48735Y-22008D01*
X48823Y-22008D01*
X48472Y-21675D02*
X48455Y-21657D01*
X48420Y-21639D01*
X48332Y-21639D01*
X48297Y-21657D01*
X48279Y-21675D01*
X48262Y-21710D01*
X48262Y-21745D01*
X48279Y-21797D01*
X48490Y-22008D01*
X48262Y-22008D01*
X48052Y-21797D02*
X48087Y-21780D01*
X48104Y-21762D01*
X48122Y-21727D01*
X48122Y-21710D01*
X48104Y-21675D01*
X48087Y-21657D01*
X48052Y-21639D01*
X47981Y-21639D01*
X47946Y-21657D01*
X47929Y-21675D01*
X47911Y-21710D01*
X47911Y-21727D01*
X47929Y-21762D01*
X47946Y-21780D01*
X47981Y-21797D01*
X48052Y-21797D01*
X48087Y-21815D01*
X48104Y-21832D01*
X48122Y-21867D01*
X48122Y-21937D01*
X48104Y-21972D01*
X48087Y-21990D01*
X48052Y-22008D01*
X47981Y-22008D01*
X47946Y-21990D01*
X47929Y-21972D01*
X47911Y-21937D01*
X47911Y-21867D01*
X47929Y-21832D01*
X47946Y-21815D01*
X47981Y-21797D01*
X46598Y-13021D02*
X46598Y-12652D01*
X46510Y-12652D01*
X46457Y-12670D01*
X46422Y-12705D01*
X46405Y-12740D01*
X46387Y-12810D01*
X46387Y-12863D01*
X46405Y-12933D01*
X46422Y-12968D01*
X46457Y-13003D01*
X46510Y-13021D01*
X46598Y-13021D01*
X46247Y-12687D02*
X46230Y-12670D01*
X46195Y-12652D01*
X46107Y-12652D01*
X46072Y-12670D01*
X46054Y-12687D01*
X46037Y-12723D01*
X46037Y-12758D01*
X46054Y-12810D01*
X46265Y-13021D01*
X46037Y-13021D01*
X45914Y-12652D02*
X45669Y-12652D01*
X45826Y-13021D01*
X43550Y-5775D02*
X43182Y-5775D01*
X43182Y-5862D01*
X43199Y-5915D01*
X43235Y-5950D01*
X43270Y-5967D01*
X43340Y-5985D01*
X43392Y-5985D01*
X43462Y-5967D01*
X43497Y-5950D01*
X43533Y-5915D01*
X43550Y-5862D01*
X43550Y-5775D01*
X43217Y-6125D02*
X43199Y-6143D01*
X43182Y-6178D01*
X43182Y-6265D01*
X43199Y-6300D01*
X43217Y-6318D01*
X43252Y-6335D01*
X43287Y-6335D01*
X43340Y-6318D01*
X43550Y-6108D01*
X43550Y-6335D01*
X43182Y-6651D02*
X43182Y-6581D01*
X43199Y-6546D01*
X43217Y-6528D01*
X43270Y-6493D01*
X43340Y-6476D01*
X43480Y-6476D01*
X43515Y-6493D01*
X43533Y-6511D01*
X43550Y-6546D01*
X43550Y-6616D01*
X43533Y-6651D01*
X43515Y-6669D01*
X43480Y-6686D01*
X43392Y-6686D01*
X43357Y-6669D01*
X43340Y-6651D01*
X43322Y-6616D01*
X43322Y-6546D01*
X43340Y-6511D01*
X43357Y-6493D01*
X43392Y-6476D01*
X24098Y-26471D02*
X24098Y-26102D01*
X24010Y-26102D01*
X23957Y-26120D01*
X23922Y-26155D01*
X23905Y-26190D01*
X23887Y-26260D01*
X23887Y-26313D01*
X23905Y-26383D01*
X23922Y-26418D01*
X23957Y-26453D01*
X24010Y-26471D01*
X24098Y-26471D01*
X23537Y-26471D02*
X23747Y-26471D01*
X23642Y-26471D02*
X23642Y-26102D01*
X23677Y-26155D01*
X23712Y-26190D01*
X23747Y-26208D01*
X23221Y-26225D02*
X23221Y-26471D01*
X23309Y-26085D02*
X23397Y-26348D01*
X23169Y-26348D01*
X16548Y-26421D02*
X16548Y-26052D01*
X16460Y-26052D01*
X16407Y-26070D01*
X16372Y-26105D01*
X16355Y-26140D01*
X16337Y-26210D01*
X16337Y-26263D01*
X16355Y-26333D01*
X16372Y-26368D01*
X16407Y-26403D01*
X16460Y-26421D01*
X16548Y-26421D01*
X16109Y-26052D02*
X16074Y-26052D01*
X16039Y-26070D01*
X16022Y-26087D01*
X16004Y-26123D01*
X15987Y-26193D01*
X15987Y-26280D01*
X16004Y-26350D01*
X16022Y-26385D01*
X16039Y-26403D01*
X16074Y-26421D01*
X16109Y-26421D01*
X16145Y-26403D01*
X16162Y-26385D01*
X16180Y-26350D01*
X16197Y-26280D01*
X16197Y-26193D01*
X16180Y-26123D01*
X16162Y-26087D01*
X16145Y-26070D01*
X16109Y-26052D01*
X15811Y-26421D02*
X15741Y-26421D01*
X15706Y-26403D01*
X15689Y-26385D01*
X15654Y-26333D01*
X15636Y-26263D01*
X15636Y-26123D01*
X15654Y-26087D01*
X15671Y-26070D01*
X15706Y-26052D01*
X15776Y-26052D01*
X15811Y-26070D01*
X15829Y-26087D01*
X15847Y-26123D01*
X15847Y-26210D01*
X15829Y-26245D01*
X15811Y-26263D01*
X15776Y-26280D01*
X15706Y-26280D01*
X15671Y-26263D01*
X15654Y-26245D01*
X15636Y-26210D01*
X27598Y-20521D02*
X27598Y-20152D01*
X27510Y-20152D01*
X27457Y-20170D01*
X27422Y-20205D01*
X27405Y-20240D01*
X27387Y-20310D01*
X27387Y-20363D01*
X27405Y-20433D01*
X27422Y-20468D01*
X27457Y-20503D01*
X27510Y-20521D01*
X27598Y-20521D01*
X27037Y-20521D02*
X27247Y-20521D01*
X27142Y-20521D02*
X27142Y-20152D01*
X27177Y-20205D01*
X27212Y-20240D01*
X27247Y-20258D01*
X26914Y-20152D02*
X26686Y-20152D01*
X26809Y-20293D01*
X26756Y-20293D01*
X26721Y-20310D01*
X26704Y-20328D01*
X26686Y-20363D01*
X26686Y-20450D01*
X26704Y-20485D01*
X26721Y-20503D01*
X26756Y-20521D01*
X26861Y-20521D01*
X26897Y-20503D01*
X26914Y-20485D01*
X22248Y-13271D02*
X22248Y-12902D01*
X22160Y-12902D01*
X22108Y-12920D01*
X22073Y-12955D01*
X22055Y-12990D01*
X22038Y-13060D01*
X22038Y-13113D01*
X22055Y-13183D01*
X22073Y-13218D01*
X22108Y-13253D01*
X22160Y-13271D01*
X22248Y-13271D01*
X21687Y-13271D02*
X21897Y-13271D01*
X21792Y-13271D02*
X21792Y-12902D01*
X21827Y-12955D01*
X21862Y-12990D01*
X21897Y-13008D01*
X21547Y-12937D02*
X21529Y-12920D01*
X21494Y-12902D01*
X21407Y-12902D01*
X21372Y-12920D01*
X21354Y-12937D01*
X21337Y-12973D01*
X21337Y-13008D01*
X21354Y-13060D01*
X21564Y-13271D01*
X21337Y-13271D01*
X20098Y-20521D02*
X20098Y-20152D01*
X20010Y-20152D01*
X19957Y-20170D01*
X19922Y-20205D01*
X19905Y-20240D01*
X19887Y-20310D01*
X19887Y-20363D01*
X19905Y-20433D01*
X19922Y-20468D01*
X19957Y-20503D01*
X20010Y-20521D01*
X20098Y-20521D01*
X19659Y-20152D02*
X19624Y-20152D01*
X19589Y-20170D01*
X19572Y-20187D01*
X19554Y-20223D01*
X19537Y-20293D01*
X19537Y-20380D01*
X19554Y-20450D01*
X19572Y-20485D01*
X19589Y-20503D01*
X19624Y-20521D01*
X19659Y-20521D01*
X19695Y-20503D01*
X19712Y-20485D01*
X19730Y-20450D01*
X19747Y-20380D01*
X19747Y-20293D01*
X19730Y-20223D01*
X19712Y-20187D01*
X19695Y-20170D01*
X19659Y-20152D01*
X19326Y-20310D02*
X19361Y-20293D01*
X19379Y-20275D01*
X19397Y-20240D01*
X19397Y-20223D01*
X19379Y-20187D01*
X19361Y-20170D01*
X19326Y-20152D01*
X19256Y-20152D01*
X19221Y-20170D01*
X19204Y-20187D01*
X19186Y-20223D01*
X19186Y-20240D01*
X19204Y-20275D01*
X19221Y-20293D01*
X19256Y-20310D01*
X19326Y-20310D01*
X19361Y-20328D01*
X19379Y-20345D01*
X19397Y-20380D01*
X19397Y-20450D01*
X19379Y-20485D01*
X19361Y-20503D01*
X19326Y-20521D01*
X19256Y-20521D01*
X19221Y-20503D01*
X19204Y-20485D01*
X19186Y-20450D01*
X19186Y-20380D01*
X19204Y-20345D01*
X19221Y-20328D01*
X19256Y-20310D01*
X14748Y-13271D02*
X14748Y-12902D01*
X14660Y-12902D01*
X14608Y-12920D01*
X14573Y-12955D01*
X14555Y-12990D01*
X14538Y-13060D01*
X14538Y-13113D01*
X14555Y-13183D01*
X14573Y-13218D01*
X14608Y-13253D01*
X14660Y-13271D01*
X14748Y-13271D01*
X14310Y-12902D02*
X14275Y-12902D01*
X14240Y-12920D01*
X14222Y-12937D01*
X14204Y-12973D01*
X14187Y-13043D01*
X14187Y-13130D01*
X14204Y-13200D01*
X14222Y-13235D01*
X14240Y-13253D01*
X14275Y-13271D01*
X14310Y-13271D01*
X14345Y-13253D01*
X14362Y-13235D01*
X14380Y-13200D01*
X14397Y-13130D01*
X14397Y-13043D01*
X14380Y-12973D01*
X14362Y-12937D01*
X14345Y-12920D01*
X14310Y-12902D01*
X14064Y-12902D02*
X13819Y-12902D01*
X13977Y-13271D01*
X8098Y-28021D02*
X8098Y-27652D01*
X8010Y-27652D01*
X7958Y-27670D01*
X7923Y-27705D01*
X7905Y-27740D01*
X7888Y-27810D01*
X7888Y-27863D01*
X7905Y-27933D01*
X7923Y-27968D01*
X7958Y-28003D01*
X8010Y-28021D01*
X8098Y-28021D01*
X7660Y-27652D02*
X7625Y-27652D01*
X7590Y-27670D01*
X7572Y-27687D01*
X7554Y-27723D01*
X7537Y-27793D01*
X7537Y-27880D01*
X7554Y-27950D01*
X7572Y-27985D01*
X7590Y-28003D01*
X7625Y-28021D01*
X7660Y-28021D01*
X7695Y-28003D01*
X7712Y-27985D01*
X7730Y-27950D01*
X7747Y-27880D01*
X7747Y-27793D01*
X7730Y-27723D01*
X7712Y-27687D01*
X7695Y-27670D01*
X7660Y-27652D01*
X7221Y-27775D02*
X7221Y-28021D01*
X7309Y-27635D02*
X7397Y-27898D01*
X7169Y-27898D01*
X6673Y-14508D02*
X6673Y-14139D01*
X6585Y-14139D01*
X6533Y-14157D01*
X6498Y-14192D01*
X6480Y-14227D01*
X6463Y-14297D01*
X6463Y-14350D01*
X6480Y-14420D01*
X6498Y-14455D01*
X6533Y-14490D01*
X6585Y-14508D01*
X6673Y-14508D01*
X6235Y-14139D02*
X6200Y-14139D01*
X6165Y-14157D01*
X6147Y-14175D01*
X6129Y-14210D01*
X6112Y-14280D01*
X6112Y-14367D01*
X6129Y-14437D01*
X6147Y-14472D01*
X6165Y-14490D01*
X6200Y-14508D01*
X6235Y-14508D01*
X6270Y-14490D01*
X6287Y-14472D01*
X6305Y-14437D01*
X6322Y-14367D01*
X6322Y-14280D01*
X6305Y-14210D01*
X6287Y-14175D01*
X6270Y-14157D01*
X6235Y-14139D01*
X5972Y-14175D02*
X5954Y-14157D01*
X5919Y-14139D01*
X5831Y-14139D01*
X5796Y-14157D01*
X5779Y-14175D01*
X5761Y-14210D01*
X5761Y-14245D01*
X5779Y-14297D01*
X5989Y-14508D01*
X5761Y-14508D01*
X19500Y-5725D02*
X19132Y-5725D01*
X19132Y-5812D01*
X19149Y-5865D01*
X19185Y-5900D01*
X19220Y-5917D01*
X19290Y-5935D01*
X19342Y-5935D01*
X19412Y-5917D01*
X19447Y-5900D01*
X19483Y-5865D01*
X19500Y-5812D01*
X19500Y-5725D01*
X19500Y-6285D02*
X19500Y-6075D01*
X19500Y-6180D02*
X19132Y-6180D01*
X19185Y-6145D01*
X19220Y-6110D01*
X19237Y-6075D01*
X19500Y-6636D02*
X19500Y-6426D01*
X19500Y-6531D02*
X19132Y-6531D01*
X19185Y-6496D01*
X19220Y-6461D01*
X19237Y-6426D01*
X12000Y-5725D02*
X11632Y-5725D01*
X11632Y-5812D01*
X11649Y-5865D01*
X11684Y-5900D01*
X11719Y-5917D01*
X11790Y-5935D01*
X11842Y-5935D01*
X11912Y-5917D01*
X11947Y-5900D01*
X11982Y-5865D01*
X12000Y-5812D01*
X12000Y-5725D01*
X11632Y-6163D02*
X11632Y-6198D01*
X11649Y-6233D01*
X11667Y-6250D01*
X11702Y-6268D01*
X11772Y-6285D01*
X11860Y-6285D01*
X11930Y-6268D01*
X11965Y-6250D01*
X11982Y-6233D01*
X12000Y-6198D01*
X12000Y-6163D01*
X11982Y-6128D01*
X11965Y-6110D01*
X11930Y-6093D01*
X11860Y-6075D01*
X11772Y-6075D01*
X11702Y-6093D01*
X11667Y-6110D01*
X11649Y-6128D01*
X11632Y-6163D01*
X11632Y-6601D02*
X11632Y-6531D01*
X11649Y-6496D01*
X11667Y-6478D01*
X11719Y-6443D01*
X11790Y-6426D01*
X11930Y-6426D01*
X11965Y-6443D01*
X11982Y-6461D01*
X12000Y-6496D01*
X12000Y-6566D01*
X11982Y-6601D01*
X11965Y-6619D01*
X11930Y-6636D01*
X11842Y-6636D01*
X11807Y-6619D01*
X11790Y-6601D01*
X11772Y-6566D01*
X11772Y-6496D01*
X11790Y-6461D01*
X11807Y-6443D01*
X11842Y-6426D01*
X8849Y-20693D02*
X8481Y-20693D01*
X8481Y-20780D01*
X8498Y-20833D01*
X8533Y-20868D01*
X8568Y-20885D01*
X8639Y-20903D01*
X8691Y-20903D01*
X8761Y-20885D01*
X8796Y-20868D01*
X8831Y-20833D01*
X8849Y-20780D01*
X8849Y-20693D01*
X8481Y-21131D02*
X8481Y-21166D01*
X8498Y-21201D01*
X8516Y-21218D01*
X8551Y-21236D01*
X8621Y-21253D01*
X8709Y-21253D01*
X8779Y-21236D01*
X8814Y-21218D01*
X8831Y-21201D01*
X8849Y-21166D01*
X8849Y-21131D01*
X8831Y-21096D01*
X8814Y-21078D01*
X8779Y-21061D01*
X8709Y-21043D01*
X8621Y-21043D01*
X8551Y-21061D01*
X8516Y-21078D01*
X8498Y-21096D01*
X8481Y-21131D01*
X8481Y-21376D02*
X8481Y-21604D01*
X8621Y-21481D01*
X8621Y-21534D01*
X8639Y-21569D01*
X8656Y-21587D01*
X8691Y-21604D01*
X8779Y-21604D01*
X8814Y-21587D01*
X8831Y-21569D01*
X8849Y-21534D01*
X8849Y-21429D01*
X8831Y-21394D01*
X8814Y-21376D01*
X87000Y-5975D02*
X86632Y-5975D01*
X86632Y-6062D01*
X86649Y-6115D01*
X86685Y-6150D01*
X86720Y-6167D01*
X86790Y-6185D01*
X86842Y-6185D01*
X86912Y-6167D01*
X86947Y-6150D01*
X86983Y-6115D01*
X87000Y-6062D01*
X87000Y-5975D01*
X86632Y-6518D02*
X86632Y-6343D01*
X86807Y-6325D01*
X86790Y-6343D01*
X86772Y-6378D01*
X86772Y-6465D01*
X86790Y-6500D01*
X86807Y-6518D01*
X86842Y-6535D01*
X86930Y-6535D01*
X86965Y-6518D01*
X86983Y-6500D01*
X87000Y-6465D01*
X87000Y-6378D01*
X86983Y-6343D01*
X86965Y-6325D01*
X86632Y-6851D02*
X86632Y-6781D01*
X86649Y-6746D01*
X86667Y-6728D01*
X86720Y-6693D01*
X86790Y-6676D01*
X86930Y-6676D01*
X86965Y-6693D01*
X86983Y-6711D01*
X87000Y-6746D01*
X87000Y-6816D01*
X86983Y-6851D01*
X86965Y-6869D01*
X86930Y-6886D01*
X86842Y-6886D01*
X86807Y-6869D01*
X86790Y-6851D01*
X86772Y-6816D01*
X86772Y-6746D01*
X86790Y-6711D01*
X86807Y-6693D01*
X86842Y-6676D01*
X87000Y-20725D02*
X86632Y-20725D01*
X86632Y-20812D01*
X86649Y-20865D01*
X86685Y-20900D01*
X86720Y-20917D01*
X86790Y-20935D01*
X86842Y-20935D01*
X86912Y-20917D01*
X86947Y-20900D01*
X86983Y-20865D01*
X87000Y-20812D01*
X87000Y-20725D01*
X86632Y-21268D02*
X86632Y-21093D01*
X86807Y-21075D01*
X86790Y-21093D01*
X86772Y-21128D01*
X86772Y-21215D01*
X86790Y-21250D01*
X86807Y-21268D01*
X86842Y-21285D01*
X86930Y-21285D01*
X86965Y-21268D01*
X86983Y-21250D01*
X87000Y-21215D01*
X87000Y-21128D01*
X86983Y-21093D01*
X86965Y-21075D01*
X86632Y-21408D02*
X86632Y-21636D01*
X86772Y-21513D01*
X86772Y-21566D01*
X86790Y-21601D01*
X86807Y-21619D01*
X86842Y-21636D01*
X86930Y-21636D01*
X86965Y-21619D01*
X86983Y-21601D01*
X87000Y-21566D01*
X87000Y-21461D01*
X86983Y-21426D01*
X86965Y-21408D01*
X88598Y-28021D02*
X88598Y-27652D01*
X88510Y-27652D01*
X88457Y-27670D01*
X88422Y-27705D01*
X88405Y-27740D01*
X88387Y-27810D01*
X88387Y-27863D01*
X88405Y-27933D01*
X88422Y-27968D01*
X88457Y-28003D01*
X88510Y-28021D01*
X88598Y-28021D01*
X88072Y-27775D02*
X88072Y-28021D01*
X88159Y-27635D02*
X88247Y-27898D01*
X88019Y-27898D01*
X87861Y-28021D02*
X87791Y-28021D01*
X87756Y-28003D01*
X87739Y-27985D01*
X87704Y-27933D01*
X87686Y-27863D01*
X87686Y-27723D01*
X87704Y-27687D01*
X87721Y-27670D01*
X87756Y-27652D01*
X87826Y-27652D01*
X87861Y-27670D01*
X87879Y-27687D01*
X87897Y-27723D01*
X87897Y-27810D01*
X87879Y-27845D01*
X87861Y-27863D01*
X87826Y-27880D01*
X87756Y-27880D01*
X87721Y-27863D01*
X87704Y-27845D01*
X87686Y-27810D01*
X79348Y-28021D02*
X79348Y-27652D01*
X79260Y-27652D01*
X79208Y-27670D01*
X79173Y-27705D01*
X79155Y-27740D01*
X79138Y-27810D01*
X79138Y-27863D01*
X79155Y-27933D01*
X79173Y-27968D01*
X79208Y-28003D01*
X79260Y-28021D01*
X79348Y-28021D01*
X78822Y-27775D02*
X78822Y-28021D01*
X78910Y-27635D02*
X78997Y-27898D01*
X78770Y-27898D01*
X78472Y-27775D02*
X78472Y-28021D01*
X78559Y-27635D02*
X78647Y-27898D01*
X78419Y-27898D01*
X85248Y-13021D02*
X85248Y-12652D01*
X85160Y-12652D01*
X85108Y-12670D01*
X85073Y-12705D01*
X85055Y-12740D01*
X85038Y-12810D01*
X85038Y-12863D01*
X85055Y-12933D01*
X85073Y-12968D01*
X85108Y-13003D01*
X85160Y-13021D01*
X85248Y-13021D01*
X84705Y-12652D02*
X84880Y-12652D01*
X84897Y-12828D01*
X84880Y-12810D01*
X84845Y-12793D01*
X84757Y-12793D01*
X84722Y-12810D01*
X84705Y-12828D01*
X84687Y-12863D01*
X84687Y-12950D01*
X84705Y-12985D01*
X84722Y-13003D01*
X84757Y-13021D01*
X84845Y-13021D01*
X84880Y-13003D01*
X84897Y-12985D01*
X84547Y-12687D02*
X84529Y-12670D01*
X84494Y-12652D01*
X84407Y-12652D01*
X84372Y-12670D01*
X84354Y-12687D01*
X84337Y-12723D01*
X84337Y-12758D01*
X84354Y-12810D01*
X84564Y-13021D01*
X84337Y-13021D01*
X79500Y-5725D02*
X79132Y-5725D01*
X79132Y-5812D01*
X79149Y-5865D01*
X79185Y-5900D01*
X79220Y-5917D01*
X79290Y-5935D01*
X79342Y-5935D01*
X79412Y-5917D01*
X79447Y-5900D01*
X79483Y-5865D01*
X79500Y-5812D01*
X79500Y-5725D01*
X79132Y-6268D02*
X79132Y-6093D01*
X79307Y-6075D01*
X79290Y-6093D01*
X79272Y-6128D01*
X79272Y-6215D01*
X79290Y-6250D01*
X79307Y-6268D01*
X79342Y-6285D01*
X79430Y-6285D01*
X79465Y-6268D01*
X79483Y-6250D01*
X79500Y-6215D01*
X79500Y-6128D01*
X79483Y-6093D01*
X79465Y-6075D01*
X79500Y-6636D02*
X79500Y-6426D01*
X79500Y-6531D02*
X79132Y-6531D01*
X79185Y-6496D01*
X79220Y-6461D01*
X79237Y-6426D01*
X76598Y-13021D02*
X76598Y-12652D01*
X76510Y-12652D01*
X76457Y-12670D01*
X76422Y-12705D01*
X76405Y-12740D01*
X76387Y-12810D01*
X76387Y-12863D01*
X76405Y-12933D01*
X76422Y-12968D01*
X76457Y-13003D01*
X76510Y-13021D01*
X76598Y-13021D01*
X76072Y-12775D02*
X76072Y-13021D01*
X76159Y-12635D02*
X76247Y-12898D01*
X76019Y-12898D01*
X75914Y-12652D02*
X75669Y-12652D01*
X75826Y-13021D01*
X81098Y-20521D02*
X81098Y-20152D01*
X81010Y-20152D01*
X80957Y-20170D01*
X80922Y-20205D01*
X80905Y-20240D01*
X80887Y-20310D01*
X80887Y-20363D01*
X80905Y-20433D01*
X80922Y-20468D01*
X80957Y-20503D01*
X81010Y-20521D01*
X81098Y-20521D01*
X80572Y-20275D02*
X80572Y-20521D01*
X80659Y-20135D02*
X80747Y-20398D01*
X80519Y-20398D01*
X80326Y-20310D02*
X80361Y-20293D01*
X80379Y-20275D01*
X80397Y-20240D01*
X80397Y-20223D01*
X80379Y-20187D01*
X80361Y-20170D01*
X80326Y-20152D01*
X80256Y-20152D01*
X80221Y-20170D01*
X80204Y-20187D01*
X80186Y-20223D01*
X80186Y-20240D01*
X80204Y-20275D01*
X80221Y-20293D01*
X80256Y-20310D01*
X80326Y-20310D01*
X80361Y-20328D01*
X80379Y-20345D01*
X80397Y-20380D01*
X80397Y-20450D01*
X80379Y-20485D01*
X80361Y-20503D01*
X80326Y-20521D01*
X80256Y-20521D01*
X80221Y-20503D01*
X80204Y-20485D01*
X80186Y-20450D01*
X80186Y-20380D01*
X80204Y-20345D01*
X80221Y-20328D01*
X80256Y-20310D01*
G54D18*
X23773Y-15973D02*
X23773Y-15723D01*
X23832Y-15723D01*
X23868Y-15735D01*
X23892Y-15758D01*
X23903Y-15782D01*
X23915Y-15830D01*
X23915Y-15866D01*
X23903Y-15913D01*
X23892Y-15937D01*
X23868Y-15961D01*
X23832Y-15973D01*
X23773Y-15973D01*
X24106Y-15842D02*
X24142Y-15854D01*
X24153Y-15866D01*
X24165Y-15889D01*
X24165Y-15925D01*
X24153Y-15949D01*
X24142Y-15961D01*
X24118Y-15973D01*
X24023Y-15973D01*
X24023Y-15723D01*
X24106Y-15723D01*
X24130Y-15735D01*
X24142Y-15747D01*
X24153Y-15770D01*
X24153Y-15794D01*
X24142Y-15818D01*
X24130Y-15830D01*
X24106Y-15842D01*
X24023Y-15842D01*
X24403Y-15973D02*
X24261Y-15973D01*
X24332Y-15973D02*
X24332Y-15723D01*
X24308Y-15758D01*
X24284Y-15782D01*
X24261Y-15794D01*
X24642Y-15973D02*
X24499Y-15973D01*
X24570Y-15973D02*
X24570Y-15723D01*
X24546Y-15758D01*
X24523Y-15782D01*
X24499Y-15794D01*
X12572Y-23473D02*
X12572Y-23223D01*
X12632Y-23223D01*
X12668Y-23235D01*
X12691Y-23258D01*
X12703Y-23282D01*
X12715Y-23330D01*
X12715Y-23366D01*
X12703Y-23413D01*
X12691Y-23437D01*
X12668Y-23461D01*
X12632Y-23473D01*
X12572Y-23473D01*
X12906Y-23342D02*
X12941Y-23354D01*
X12953Y-23366D01*
X12965Y-23389D01*
X12965Y-23425D01*
X12953Y-23449D01*
X12941Y-23461D01*
X12918Y-23473D01*
X12822Y-23473D01*
X12822Y-23223D01*
X12906Y-23223D01*
X12929Y-23235D01*
X12941Y-23247D01*
X12953Y-23270D01*
X12953Y-23294D01*
X12941Y-23318D01*
X12929Y-23330D01*
X12906Y-23342D01*
X12822Y-23342D01*
X13120Y-23223D02*
X13144Y-23223D01*
X13168Y-23235D01*
X13179Y-23247D01*
X13191Y-23270D01*
X13203Y-23318D01*
X13203Y-23377D01*
X13191Y-23425D01*
X13179Y-23449D01*
X13168Y-23461D01*
X13144Y-23473D01*
X13120Y-23473D01*
X13096Y-23461D01*
X13084Y-23449D01*
X13072Y-23425D01*
X13060Y-23377D01*
X13060Y-23318D01*
X13072Y-23270D01*
X13084Y-23247D01*
X13096Y-23235D01*
X13120Y-23223D01*
X13322Y-23473D02*
X13370Y-23473D01*
X13394Y-23461D01*
X13406Y-23449D01*
X13429Y-23413D01*
X13441Y-23366D01*
X13441Y-23270D01*
X13429Y-23247D01*
X13418Y-23235D01*
X13394Y-23223D01*
X13346Y-23223D01*
X13322Y-23235D01*
X13310Y-23247D01*
X13298Y-23270D01*
X13298Y-23330D01*
X13310Y-23354D01*
X13322Y-23366D01*
X13346Y-23377D01*
X13394Y-23377D01*
X13418Y-23366D01*
X13429Y-23354D01*
X13441Y-23330D01*
X16273Y-15973D02*
X16273Y-15723D01*
X16332Y-15723D01*
X16368Y-15735D01*
X16392Y-15758D01*
X16403Y-15782D01*
X16415Y-15830D01*
X16415Y-15866D01*
X16403Y-15913D01*
X16392Y-15937D01*
X16368Y-15961D01*
X16332Y-15973D01*
X16273Y-15973D01*
X16606Y-15842D02*
X16642Y-15854D01*
X16653Y-15866D01*
X16665Y-15889D01*
X16665Y-15925D01*
X16653Y-15949D01*
X16642Y-15961D01*
X16618Y-15973D01*
X16523Y-15973D01*
X16523Y-15723D01*
X16606Y-15723D01*
X16630Y-15735D01*
X16642Y-15747D01*
X16653Y-15770D01*
X16653Y-15794D01*
X16642Y-15818D01*
X16630Y-15830D01*
X16606Y-15842D01*
X16523Y-15842D01*
X16820Y-15723D02*
X16844Y-15723D01*
X16868Y-15735D01*
X16880Y-15747D01*
X16892Y-15770D01*
X16903Y-15818D01*
X16903Y-15877D01*
X16892Y-15925D01*
X16880Y-15949D01*
X16868Y-15961D01*
X16844Y-15973D01*
X16820Y-15973D01*
X16796Y-15961D01*
X16784Y-15949D01*
X16773Y-15925D01*
X16761Y-15877D01*
X16761Y-15818D01*
X16773Y-15770D01*
X16784Y-15747D01*
X16796Y-15735D01*
X16820Y-15723D01*
X16987Y-15723D02*
X17153Y-15723D01*
X17046Y-15973D01*
X4122Y-8473D02*
X4122Y-8223D01*
X4182Y-8223D01*
X4218Y-8235D01*
X4241Y-8258D01*
X4253Y-8282D01*
X4265Y-8330D01*
X4265Y-8366D01*
X4253Y-8413D01*
X4241Y-8437D01*
X4218Y-8461D01*
X4182Y-8473D01*
X4122Y-8473D01*
X4456Y-8342D02*
X4491Y-8354D01*
X4503Y-8366D01*
X4515Y-8389D01*
X4515Y-8425D01*
X4503Y-8449D01*
X4491Y-8461D01*
X4468Y-8473D01*
X4372Y-8473D01*
X4372Y-8223D01*
X4456Y-8223D01*
X4479Y-8235D01*
X4491Y-8247D01*
X4503Y-8270D01*
X4503Y-8294D01*
X4491Y-8318D01*
X4479Y-8330D01*
X4456Y-8342D01*
X4372Y-8342D01*
X4670Y-8223D02*
X4694Y-8223D01*
X4718Y-8235D01*
X4729Y-8247D01*
X4741Y-8270D01*
X4753Y-8318D01*
X4753Y-8377D01*
X4741Y-8425D01*
X4729Y-8449D01*
X4718Y-8461D01*
X4694Y-8473D01*
X4670Y-8473D01*
X4646Y-8461D01*
X4634Y-8449D01*
X4622Y-8425D01*
X4610Y-8377D01*
X4610Y-8318D01*
X4622Y-8270D01*
X4634Y-8247D01*
X4646Y-8235D01*
X4670Y-8223D01*
X4848Y-8247D02*
X4860Y-8235D01*
X4884Y-8223D01*
X4944Y-8223D01*
X4968Y-8235D01*
X4979Y-8247D01*
X4991Y-8270D01*
X4991Y-8294D01*
X4979Y-8330D01*
X4837Y-8473D01*
X4991Y-8473D01*
X10672Y-972D02*
X10672Y-722D01*
X10732Y-722D01*
X10768Y-734D01*
X10791Y-758D01*
X10803Y-782D01*
X10815Y-829D01*
X10815Y-865D01*
X10803Y-913D01*
X10791Y-937D01*
X10768Y-960D01*
X10732Y-972D01*
X10672Y-972D01*
X11006Y-841D02*
X11041Y-853D01*
X11053Y-865D01*
X11065Y-889D01*
X11065Y-925D01*
X11053Y-948D01*
X11041Y-960D01*
X11018Y-972D01*
X10922Y-972D01*
X10922Y-722D01*
X11006Y-722D01*
X11029Y-734D01*
X11041Y-746D01*
X11053Y-770D01*
X11053Y-794D01*
X11041Y-818D01*
X11029Y-829D01*
X11006Y-841D01*
X10922Y-841D01*
X11220Y-722D02*
X11244Y-722D01*
X11268Y-734D01*
X11279Y-746D01*
X11291Y-770D01*
X11303Y-818D01*
X11303Y-877D01*
X11291Y-925D01*
X11279Y-948D01*
X11268Y-960D01*
X11244Y-972D01*
X11220Y-972D01*
X11196Y-960D01*
X11184Y-948D01*
X11172Y-925D01*
X11160Y-877D01*
X11160Y-818D01*
X11172Y-770D01*
X11184Y-746D01*
X11196Y-734D01*
X11220Y-722D01*
X11518Y-722D02*
X11470Y-722D01*
X11446Y-734D01*
X11434Y-746D01*
X11410Y-782D01*
X11398Y-829D01*
X11398Y-925D01*
X11410Y-948D01*
X11422Y-960D01*
X11446Y-972D01*
X11494Y-972D01*
X11518Y-960D01*
X11529Y-948D01*
X11541Y-925D01*
X11541Y-865D01*
X11529Y-841D01*
X11518Y-829D01*
X11494Y-818D01*
X11446Y-818D01*
X11422Y-829D01*
X11410Y-841D01*
X11398Y-865D01*
X4122Y-23473D02*
X4122Y-23223D01*
X4182Y-23223D01*
X4218Y-23235D01*
X4241Y-23258D01*
X4253Y-23282D01*
X4265Y-23330D01*
X4265Y-23366D01*
X4253Y-23413D01*
X4241Y-23437D01*
X4218Y-23461D01*
X4182Y-23473D01*
X4122Y-23473D01*
X4456Y-23342D02*
X4491Y-23354D01*
X4503Y-23366D01*
X4515Y-23389D01*
X4515Y-23425D01*
X4503Y-23449D01*
X4491Y-23461D01*
X4468Y-23473D01*
X4372Y-23473D01*
X4372Y-23223D01*
X4456Y-23223D01*
X4479Y-23235D01*
X4491Y-23247D01*
X4503Y-23270D01*
X4503Y-23294D01*
X4491Y-23318D01*
X4479Y-23330D01*
X4456Y-23342D01*
X4372Y-23342D01*
X4670Y-23223D02*
X4694Y-23223D01*
X4718Y-23235D01*
X4729Y-23247D01*
X4741Y-23270D01*
X4753Y-23318D01*
X4753Y-23377D01*
X4741Y-23425D01*
X4729Y-23449D01*
X4718Y-23461D01*
X4694Y-23473D01*
X4670Y-23473D01*
X4646Y-23461D01*
X4634Y-23449D01*
X4622Y-23425D01*
X4610Y-23377D01*
X4610Y-23318D01*
X4622Y-23270D01*
X4634Y-23247D01*
X4646Y-23235D01*
X4670Y-23223D01*
X4968Y-23306D02*
X4968Y-23473D01*
X4908Y-23211D02*
X4848Y-23389D01*
X5003Y-23389D01*
X47342Y-23475D02*
X47342Y-23225D01*
X47402Y-23225D01*
X47437Y-23237D01*
X47461Y-23260D01*
X47473Y-23284D01*
X47485Y-23332D01*
X47485Y-23368D01*
X47473Y-23415D01*
X47461Y-23439D01*
X47437Y-23463D01*
X47402Y-23475D01*
X47342Y-23475D01*
X47676Y-23344D02*
X47711Y-23356D01*
X47723Y-23368D01*
X47735Y-23391D01*
X47735Y-23427D01*
X47723Y-23451D01*
X47711Y-23463D01*
X47687Y-23475D01*
X47592Y-23475D01*
X47592Y-23225D01*
X47676Y-23225D01*
X47699Y-23237D01*
X47711Y-23249D01*
X47723Y-23272D01*
X47723Y-23296D01*
X47711Y-23320D01*
X47699Y-23332D01*
X47676Y-23344D01*
X47592Y-23344D01*
X47830Y-23249D02*
X47842Y-23237D01*
X47866Y-23225D01*
X47926Y-23225D01*
X47949Y-23237D01*
X47961Y-23249D01*
X47973Y-23272D01*
X47973Y-23296D01*
X47961Y-23332D01*
X47818Y-23475D01*
X47973Y-23475D01*
X48092Y-23475D02*
X48140Y-23475D01*
X48164Y-23463D01*
X48176Y-23451D01*
X48199Y-23415D01*
X48211Y-23368D01*
X48211Y-23272D01*
X48199Y-23249D01*
X48187Y-23237D01*
X48164Y-23225D01*
X48116Y-23225D01*
X48092Y-23237D01*
X48080Y-23249D01*
X48068Y-23272D01*
X48068Y-23332D01*
X48080Y-23356D01*
X48092Y-23368D01*
X48116Y-23379D01*
X48164Y-23379D01*
X48187Y-23368D01*
X48199Y-23356D01*
X48211Y-23332D01*
X61273Y-15973D02*
X61273Y-15723D01*
X61332Y-15723D01*
X61368Y-15735D01*
X61392Y-15758D01*
X61403Y-15782D01*
X61415Y-15830D01*
X61415Y-15866D01*
X61403Y-15913D01*
X61392Y-15937D01*
X61368Y-15961D01*
X61332Y-15973D01*
X61273Y-15973D01*
X61606Y-15842D02*
X61642Y-15854D01*
X61653Y-15866D01*
X61665Y-15889D01*
X61665Y-15925D01*
X61653Y-15949D01*
X61642Y-15961D01*
X61618Y-15973D01*
X61523Y-15973D01*
X61523Y-15723D01*
X61606Y-15723D01*
X61630Y-15735D01*
X61642Y-15747D01*
X61653Y-15770D01*
X61653Y-15794D01*
X61642Y-15818D01*
X61630Y-15830D01*
X61606Y-15842D01*
X61523Y-15842D01*
X61749Y-15723D02*
X61903Y-15723D01*
X61820Y-15818D01*
X61856Y-15818D01*
X61880Y-15830D01*
X61892Y-15842D01*
X61903Y-15866D01*
X61903Y-15925D01*
X61892Y-15949D01*
X61880Y-15961D01*
X61856Y-15973D01*
X61784Y-15973D01*
X61761Y-15961D01*
X61749Y-15949D01*
X62046Y-15830D02*
X62023Y-15818D01*
X62011Y-15806D01*
X61999Y-15782D01*
X61999Y-15770D01*
X62011Y-15747D01*
X62023Y-15735D01*
X62046Y-15723D01*
X62094Y-15723D01*
X62118Y-15735D01*
X62130Y-15747D01*
X62142Y-15770D01*
X62142Y-15782D01*
X62130Y-15806D01*
X62118Y-15818D01*
X62094Y-15830D01*
X62046Y-15830D01*
X62023Y-15842D01*
X62011Y-15854D01*
X61999Y-15877D01*
X61999Y-15925D01*
X62011Y-15949D01*
X62023Y-15961D01*
X62046Y-15973D01*
X62094Y-15973D01*
X62118Y-15961D01*
X62130Y-15949D01*
X62142Y-15925D01*
X62142Y-15877D01*
X62130Y-15854D01*
X62118Y-15842D01*
X62094Y-15830D01*
X53773Y-15973D02*
X53773Y-15723D01*
X53832Y-15723D01*
X53868Y-15735D01*
X53892Y-15758D01*
X53903Y-15782D01*
X53915Y-15830D01*
X53915Y-15866D01*
X53903Y-15913D01*
X53892Y-15937D01*
X53868Y-15961D01*
X53832Y-15973D01*
X53773Y-15973D01*
X54106Y-15842D02*
X54142Y-15854D01*
X54153Y-15866D01*
X54165Y-15889D01*
X54165Y-15925D01*
X54153Y-15949D01*
X54142Y-15961D01*
X54118Y-15973D01*
X54023Y-15973D01*
X54023Y-15723D01*
X54106Y-15723D01*
X54130Y-15735D01*
X54142Y-15747D01*
X54153Y-15770D01*
X54153Y-15794D01*
X54142Y-15818D01*
X54130Y-15830D01*
X54106Y-15842D01*
X54023Y-15842D01*
X54249Y-15723D02*
X54403Y-15723D01*
X54320Y-15818D01*
X54356Y-15818D01*
X54380Y-15830D01*
X54392Y-15842D01*
X54403Y-15866D01*
X54403Y-15925D01*
X54392Y-15949D01*
X54380Y-15961D01*
X54356Y-15973D01*
X54284Y-15973D01*
X54261Y-15961D01*
X54249Y-15949D01*
X54487Y-15723D02*
X54642Y-15723D01*
X54558Y-15818D01*
X54594Y-15818D01*
X54618Y-15830D01*
X54630Y-15842D01*
X54642Y-15866D01*
X54642Y-15925D01*
X54630Y-15949D01*
X54618Y-15961D01*
X54594Y-15973D01*
X54523Y-15973D01*
X54499Y-15961D01*
X54487Y-15949D01*
X46273Y-15973D02*
X46273Y-15723D01*
X46332Y-15723D01*
X46368Y-15735D01*
X46392Y-15758D01*
X46403Y-15782D01*
X46415Y-15830D01*
X46415Y-15866D01*
X46403Y-15913D01*
X46392Y-15937D01*
X46368Y-15961D01*
X46332Y-15973D01*
X46273Y-15973D01*
X46606Y-15842D02*
X46642Y-15854D01*
X46653Y-15866D01*
X46665Y-15889D01*
X46665Y-15925D01*
X46653Y-15949D01*
X46642Y-15961D01*
X46618Y-15973D01*
X46523Y-15973D01*
X46523Y-15723D01*
X46606Y-15723D01*
X46630Y-15735D01*
X46642Y-15747D01*
X46653Y-15770D01*
X46653Y-15794D01*
X46642Y-15818D01*
X46630Y-15830D01*
X46606Y-15842D01*
X46523Y-15842D01*
X46761Y-15747D02*
X46773Y-15735D01*
X46796Y-15723D01*
X46856Y-15723D01*
X46880Y-15735D01*
X46892Y-15747D01*
X46903Y-15770D01*
X46903Y-15794D01*
X46892Y-15830D01*
X46749Y-15973D01*
X46903Y-15973D01*
X47046Y-15830D02*
X47023Y-15818D01*
X47011Y-15806D01*
X46999Y-15782D01*
X46999Y-15770D01*
X47011Y-15747D01*
X47023Y-15735D01*
X47046Y-15723D01*
X47094Y-15723D01*
X47118Y-15735D01*
X47130Y-15747D01*
X47142Y-15770D01*
X47142Y-15782D01*
X47130Y-15806D01*
X47118Y-15818D01*
X47094Y-15830D01*
X47046Y-15830D01*
X47023Y-15842D01*
X47011Y-15854D01*
X46999Y-15877D01*
X46999Y-15925D01*
X47011Y-15949D01*
X47023Y-15961D01*
X47046Y-15973D01*
X47094Y-15973D01*
X47118Y-15961D01*
X47130Y-15949D01*
X47142Y-15925D01*
X47142Y-15877D01*
X47130Y-15854D01*
X47118Y-15842D01*
X47094Y-15830D01*
X38773Y-15973D02*
X38773Y-15723D01*
X38832Y-15723D01*
X38868Y-15735D01*
X38892Y-15758D01*
X38903Y-15782D01*
X38915Y-15830D01*
X38915Y-15866D01*
X38903Y-15913D01*
X38892Y-15937D01*
X38868Y-15961D01*
X38832Y-15973D01*
X38773Y-15973D01*
X39106Y-15842D02*
X39142Y-15854D01*
X39153Y-15866D01*
X39165Y-15889D01*
X39165Y-15925D01*
X39153Y-15949D01*
X39142Y-15961D01*
X39118Y-15973D01*
X39023Y-15973D01*
X39023Y-15723D01*
X39106Y-15723D01*
X39130Y-15735D01*
X39142Y-15747D01*
X39153Y-15770D01*
X39153Y-15794D01*
X39142Y-15818D01*
X39130Y-15830D01*
X39106Y-15842D01*
X39023Y-15842D01*
X39261Y-15747D02*
X39273Y-15735D01*
X39296Y-15723D01*
X39356Y-15723D01*
X39380Y-15735D01*
X39392Y-15747D01*
X39403Y-15770D01*
X39403Y-15794D01*
X39392Y-15830D01*
X39249Y-15973D01*
X39403Y-15973D01*
X39487Y-15723D02*
X39642Y-15723D01*
X39558Y-15818D01*
X39594Y-15818D01*
X39618Y-15830D01*
X39630Y-15842D01*
X39642Y-15866D01*
X39642Y-15925D01*
X39630Y-15949D01*
X39618Y-15961D01*
X39594Y-15973D01*
X39523Y-15973D01*
X39499Y-15961D01*
X39487Y-15949D01*
X82873Y-8473D02*
X82873Y-8223D01*
X82932Y-8223D01*
X82968Y-8235D01*
X82992Y-8258D01*
X83003Y-8282D01*
X83015Y-8330D01*
X83015Y-8366D01*
X83003Y-8413D01*
X82992Y-8437D01*
X82968Y-8461D01*
X82932Y-8473D01*
X82873Y-8473D01*
X83206Y-8342D02*
X83242Y-8354D01*
X83253Y-8366D01*
X83265Y-8389D01*
X83265Y-8425D01*
X83253Y-8449D01*
X83242Y-8461D01*
X83218Y-8473D01*
X83123Y-8473D01*
X83123Y-8223D01*
X83206Y-8223D01*
X83230Y-8235D01*
X83242Y-8247D01*
X83253Y-8270D01*
X83253Y-8294D01*
X83242Y-8318D01*
X83230Y-8330D01*
X83206Y-8342D01*
X83123Y-8342D01*
X83492Y-8223D02*
X83373Y-8223D01*
X83361Y-8342D01*
X83373Y-8330D01*
X83396Y-8318D01*
X83456Y-8318D01*
X83480Y-8330D01*
X83492Y-8342D01*
X83503Y-8366D01*
X83503Y-8425D01*
X83492Y-8449D01*
X83480Y-8461D01*
X83456Y-8473D01*
X83396Y-8473D01*
X83373Y-8461D01*
X83361Y-8449D01*
X83599Y-8247D02*
X83611Y-8235D01*
X83634Y-8223D01*
X83694Y-8223D01*
X83718Y-8235D01*
X83730Y-8247D01*
X83742Y-8270D01*
X83742Y-8294D01*
X83730Y-8330D01*
X83587Y-8473D01*
X83742Y-8473D01*
X72573Y-8473D02*
X72573Y-8223D01*
X72632Y-8223D01*
X72668Y-8235D01*
X72692Y-8258D01*
X72703Y-8282D01*
X72715Y-8330D01*
X72715Y-8366D01*
X72703Y-8413D01*
X72692Y-8437D01*
X72668Y-8461D01*
X72632Y-8473D01*
X72573Y-8473D01*
X72906Y-8342D02*
X72942Y-8354D01*
X72953Y-8366D01*
X72965Y-8389D01*
X72965Y-8425D01*
X72953Y-8449D01*
X72942Y-8461D01*
X72918Y-8473D01*
X72823Y-8473D01*
X72823Y-8223D01*
X72906Y-8223D01*
X72930Y-8235D01*
X72942Y-8247D01*
X72953Y-8270D01*
X72953Y-8294D01*
X72942Y-8318D01*
X72930Y-8330D01*
X72906Y-8342D01*
X72823Y-8342D01*
X73180Y-8306D02*
X73180Y-8473D01*
X73120Y-8211D02*
X73061Y-8389D01*
X73215Y-8389D01*
X73287Y-8223D02*
X73453Y-8223D01*
X73346Y-8473D01*
X65073Y-8473D02*
X65073Y-8223D01*
X65132Y-8223D01*
X65168Y-8235D01*
X65192Y-8258D01*
X65203Y-8282D01*
X65215Y-8330D01*
X65215Y-8366D01*
X65203Y-8413D01*
X65192Y-8437D01*
X65168Y-8461D01*
X65132Y-8473D01*
X65073Y-8473D01*
X65406Y-8342D02*
X65442Y-8354D01*
X65453Y-8366D01*
X65465Y-8389D01*
X65465Y-8425D01*
X65453Y-8449D01*
X65442Y-8461D01*
X65418Y-8473D01*
X65323Y-8473D01*
X65323Y-8223D01*
X65406Y-8223D01*
X65430Y-8235D01*
X65442Y-8247D01*
X65453Y-8270D01*
X65453Y-8294D01*
X65442Y-8318D01*
X65430Y-8330D01*
X65406Y-8342D01*
X65323Y-8342D01*
X65680Y-8306D02*
X65680Y-8473D01*
X65620Y-8211D02*
X65561Y-8389D01*
X65715Y-8389D01*
X65799Y-8247D02*
X65811Y-8235D01*
X65834Y-8223D01*
X65894Y-8223D01*
X65918Y-8235D01*
X65930Y-8247D01*
X65942Y-8270D01*
X65942Y-8294D01*
X65930Y-8330D01*
X65787Y-8473D01*
X65942Y-8473D01*
X31273Y-16023D02*
X31273Y-15773D01*
X31332Y-15773D01*
X31368Y-15785D01*
X31392Y-15808D01*
X31403Y-15832D01*
X31415Y-15880D01*
X31415Y-15916D01*
X31403Y-15963D01*
X31392Y-15987D01*
X31368Y-16011D01*
X31332Y-16023D01*
X31273Y-16023D01*
X31606Y-15892D02*
X31642Y-15904D01*
X31653Y-15916D01*
X31665Y-15939D01*
X31665Y-15975D01*
X31653Y-15999D01*
X31642Y-16011D01*
X31618Y-16023D01*
X31523Y-16023D01*
X31523Y-15773D01*
X31606Y-15773D01*
X31630Y-15785D01*
X31642Y-15797D01*
X31653Y-15820D01*
X31653Y-15844D01*
X31642Y-15868D01*
X31630Y-15880D01*
X31606Y-15892D01*
X31523Y-15892D01*
X31903Y-16023D02*
X31761Y-16023D01*
X31832Y-16023D02*
X31832Y-15773D01*
X31808Y-15808D01*
X31784Y-15832D01*
X31761Y-15844D01*
X31987Y-15773D02*
X32153Y-15773D01*
X32046Y-16023D01*
X57573Y-8473D02*
X57573Y-8223D01*
X57632Y-8223D01*
X57668Y-8235D01*
X57692Y-8258D01*
X57703Y-8282D01*
X57715Y-8330D01*
X57715Y-8366D01*
X57703Y-8413D01*
X57692Y-8437D01*
X57668Y-8461D01*
X57632Y-8473D01*
X57573Y-8473D01*
X57906Y-8342D02*
X57942Y-8354D01*
X57953Y-8366D01*
X57965Y-8389D01*
X57965Y-8425D01*
X57953Y-8449D01*
X57942Y-8461D01*
X57918Y-8473D01*
X57823Y-8473D01*
X57823Y-8223D01*
X57906Y-8223D01*
X57930Y-8235D01*
X57942Y-8247D01*
X57953Y-8270D01*
X57953Y-8294D01*
X57942Y-8318D01*
X57930Y-8330D01*
X57906Y-8342D01*
X57823Y-8342D01*
X58049Y-8223D02*
X58203Y-8223D01*
X58120Y-8318D01*
X58156Y-8318D01*
X58180Y-8330D01*
X58192Y-8342D01*
X58203Y-8366D01*
X58203Y-8425D01*
X58192Y-8449D01*
X58180Y-8461D01*
X58156Y-8473D01*
X58084Y-8473D01*
X58061Y-8461D01*
X58049Y-8449D01*
X58287Y-8223D02*
X58453Y-8223D01*
X58346Y-8473D01*
X33173Y-973D02*
X33173Y-723D01*
X33232Y-723D01*
X33268Y-735D01*
X33292Y-758D01*
X33303Y-782D01*
X33315Y-830D01*
X33315Y-866D01*
X33303Y-913D01*
X33292Y-937D01*
X33268Y-961D01*
X33232Y-973D01*
X33173Y-973D01*
X33506Y-842D02*
X33542Y-854D01*
X33553Y-866D01*
X33565Y-889D01*
X33565Y-925D01*
X33553Y-949D01*
X33542Y-961D01*
X33518Y-973D01*
X33423Y-973D01*
X33423Y-723D01*
X33506Y-723D01*
X33530Y-735D01*
X33542Y-747D01*
X33553Y-770D01*
X33553Y-794D01*
X33542Y-818D01*
X33530Y-830D01*
X33506Y-842D01*
X33423Y-842D01*
X33661Y-747D02*
X33673Y-735D01*
X33696Y-723D01*
X33756Y-723D01*
X33780Y-735D01*
X33792Y-747D01*
X33803Y-770D01*
X33803Y-794D01*
X33792Y-830D01*
X33649Y-973D01*
X33803Y-973D01*
X34042Y-973D02*
X33899Y-973D01*
X33970Y-973D02*
X33970Y-723D01*
X33946Y-758D01*
X33923Y-782D01*
X33899Y-794D01*
X40673Y-973D02*
X40673Y-723D01*
X40732Y-723D01*
X40768Y-735D01*
X40792Y-758D01*
X40803Y-782D01*
X40815Y-830D01*
X40815Y-866D01*
X40803Y-913D01*
X40792Y-937D01*
X40768Y-961D01*
X40732Y-973D01*
X40673Y-973D01*
X41006Y-842D02*
X41042Y-854D01*
X41053Y-866D01*
X41065Y-889D01*
X41065Y-925D01*
X41053Y-949D01*
X41042Y-961D01*
X41018Y-973D01*
X40923Y-973D01*
X40923Y-723D01*
X41006Y-723D01*
X41030Y-735D01*
X41042Y-747D01*
X41053Y-770D01*
X41053Y-794D01*
X41042Y-818D01*
X41030Y-830D01*
X41006Y-842D01*
X40923Y-842D01*
X41161Y-747D02*
X41173Y-735D01*
X41196Y-723D01*
X41256Y-723D01*
X41280Y-735D01*
X41292Y-747D01*
X41303Y-770D01*
X41303Y-794D01*
X41292Y-830D01*
X41149Y-973D01*
X41303Y-973D01*
X41518Y-723D02*
X41470Y-723D01*
X41446Y-735D01*
X41434Y-747D01*
X41411Y-782D01*
X41399Y-830D01*
X41399Y-925D01*
X41411Y-949D01*
X41423Y-961D01*
X41446Y-973D01*
X41494Y-973D01*
X41518Y-961D01*
X41530Y-949D01*
X41542Y-925D01*
X41542Y-866D01*
X41530Y-842D01*
X41518Y-830D01*
X41494Y-818D01*
X41446Y-818D01*
X41423Y-830D01*
X41411Y-842D01*
X41399Y-866D01*
X48173Y-973D02*
X48173Y-723D01*
X48232Y-723D01*
X48268Y-735D01*
X48292Y-758D01*
X48303Y-782D01*
X48315Y-830D01*
X48315Y-866D01*
X48303Y-913D01*
X48292Y-937D01*
X48268Y-961D01*
X48232Y-973D01*
X48173Y-973D01*
X48506Y-842D02*
X48542Y-854D01*
X48553Y-866D01*
X48565Y-889D01*
X48565Y-925D01*
X48553Y-949D01*
X48542Y-961D01*
X48518Y-973D01*
X48423Y-973D01*
X48423Y-723D01*
X48506Y-723D01*
X48530Y-735D01*
X48542Y-747D01*
X48553Y-770D01*
X48553Y-794D01*
X48542Y-818D01*
X48530Y-830D01*
X48506Y-842D01*
X48423Y-842D01*
X48649Y-723D02*
X48803Y-723D01*
X48720Y-818D01*
X48756Y-818D01*
X48780Y-830D01*
X48792Y-842D01*
X48803Y-866D01*
X48803Y-925D01*
X48792Y-949D01*
X48780Y-961D01*
X48756Y-973D01*
X48684Y-973D01*
X48661Y-961D01*
X48649Y-949D01*
X49042Y-973D02*
X48899Y-973D01*
X48970Y-973D02*
X48970Y-723D01*
X48946Y-758D01*
X48923Y-782D01*
X48899Y-794D01*
X55673Y-973D02*
X55673Y-723D01*
X55732Y-723D01*
X55768Y-735D01*
X55792Y-758D01*
X55803Y-782D01*
X55815Y-830D01*
X55815Y-866D01*
X55803Y-913D01*
X55792Y-937D01*
X55768Y-961D01*
X55732Y-973D01*
X55673Y-973D01*
X56006Y-842D02*
X56042Y-854D01*
X56053Y-866D01*
X56065Y-889D01*
X56065Y-925D01*
X56053Y-949D01*
X56042Y-961D01*
X56018Y-973D01*
X55923Y-973D01*
X55923Y-723D01*
X56006Y-723D01*
X56030Y-735D01*
X56042Y-747D01*
X56053Y-770D01*
X56053Y-794D01*
X56042Y-818D01*
X56030Y-830D01*
X56006Y-842D01*
X55923Y-842D01*
X56149Y-723D02*
X56303Y-723D01*
X56220Y-818D01*
X56256Y-818D01*
X56280Y-830D01*
X56292Y-842D01*
X56303Y-866D01*
X56303Y-925D01*
X56292Y-949D01*
X56280Y-961D01*
X56256Y-973D01*
X56184Y-973D01*
X56161Y-961D01*
X56149Y-949D01*
X56518Y-723D02*
X56470Y-723D01*
X56446Y-735D01*
X56434Y-747D01*
X56411Y-782D01*
X56399Y-830D01*
X56399Y-925D01*
X56411Y-949D01*
X56423Y-961D01*
X56446Y-973D01*
X56494Y-973D01*
X56518Y-961D01*
X56530Y-949D01*
X56542Y-925D01*
X56542Y-866D01*
X56530Y-842D01*
X56518Y-830D01*
X56494Y-818D01*
X56446Y-818D01*
X56423Y-830D01*
X56411Y-842D01*
X56399Y-866D01*
X25673Y-973D02*
X25673Y-723D01*
X25732Y-723D01*
X25768Y-735D01*
X25792Y-758D01*
X25803Y-782D01*
X25815Y-830D01*
X25815Y-866D01*
X25803Y-913D01*
X25792Y-937D01*
X25768Y-961D01*
X25732Y-973D01*
X25673Y-973D01*
X26006Y-842D02*
X26042Y-854D01*
X26053Y-866D01*
X26065Y-889D01*
X26065Y-925D01*
X26053Y-949D01*
X26042Y-961D01*
X26018Y-973D01*
X25923Y-973D01*
X25923Y-723D01*
X26006Y-723D01*
X26030Y-735D01*
X26042Y-747D01*
X26053Y-770D01*
X26053Y-794D01*
X26042Y-818D01*
X26030Y-830D01*
X26006Y-842D01*
X25923Y-842D01*
X26303Y-973D02*
X26161Y-973D01*
X26232Y-973D02*
X26232Y-723D01*
X26208Y-758D01*
X26184Y-782D01*
X26161Y-794D01*
X26518Y-723D02*
X26470Y-723D01*
X26446Y-735D01*
X26434Y-747D01*
X26411Y-782D01*
X26399Y-830D01*
X26399Y-925D01*
X26411Y-949D01*
X26423Y-961D01*
X26446Y-973D01*
X26494Y-973D01*
X26518Y-961D01*
X26530Y-949D01*
X26542Y-925D01*
X26542Y-866D01*
X26530Y-842D01*
X26518Y-830D01*
X26494Y-818D01*
X26446Y-818D01*
X26423Y-830D01*
X26411Y-842D01*
X26399Y-866D01*
X50073Y-8473D02*
X50073Y-8223D01*
X50132Y-8223D01*
X50168Y-8235D01*
X50192Y-8258D01*
X50203Y-8282D01*
X50215Y-8330D01*
X50215Y-8366D01*
X50203Y-8413D01*
X50192Y-8437D01*
X50168Y-8461D01*
X50132Y-8473D01*
X50073Y-8473D01*
X50406Y-8342D02*
X50442Y-8354D01*
X50453Y-8366D01*
X50465Y-8389D01*
X50465Y-8425D01*
X50453Y-8449D01*
X50442Y-8461D01*
X50418Y-8473D01*
X50323Y-8473D01*
X50323Y-8223D01*
X50406Y-8223D01*
X50430Y-8235D01*
X50442Y-8247D01*
X50453Y-8270D01*
X50453Y-8294D01*
X50442Y-8318D01*
X50430Y-8330D01*
X50406Y-8342D01*
X50323Y-8342D01*
X50549Y-8223D02*
X50703Y-8223D01*
X50620Y-8318D01*
X50656Y-8318D01*
X50680Y-8330D01*
X50692Y-8342D01*
X50703Y-8366D01*
X50703Y-8425D01*
X50692Y-8449D01*
X50680Y-8461D01*
X50656Y-8473D01*
X50584Y-8473D01*
X50561Y-8461D01*
X50549Y-8449D01*
X50799Y-8247D02*
X50811Y-8235D01*
X50834Y-8223D01*
X50894Y-8223D01*
X50918Y-8235D01*
X50930Y-8247D01*
X50942Y-8270D01*
X50942Y-8294D01*
X50930Y-8330D01*
X50787Y-8473D01*
X50942Y-8473D01*
X63173Y-973D02*
X63173Y-723D01*
X63232Y-723D01*
X63268Y-735D01*
X63292Y-758D01*
X63303Y-782D01*
X63315Y-830D01*
X63315Y-866D01*
X63303Y-913D01*
X63292Y-937D01*
X63268Y-961D01*
X63232Y-973D01*
X63173Y-973D01*
X63506Y-842D02*
X63542Y-854D01*
X63553Y-866D01*
X63565Y-889D01*
X63565Y-925D01*
X63553Y-949D01*
X63542Y-961D01*
X63518Y-973D01*
X63423Y-973D01*
X63423Y-723D01*
X63506Y-723D01*
X63530Y-735D01*
X63542Y-747D01*
X63553Y-770D01*
X63553Y-794D01*
X63542Y-818D01*
X63530Y-830D01*
X63506Y-842D01*
X63423Y-842D01*
X63780Y-806D02*
X63780Y-973D01*
X63720Y-711D02*
X63661Y-889D01*
X63815Y-889D01*
X64042Y-973D02*
X63899Y-973D01*
X63970Y-973D02*
X63970Y-723D01*
X63946Y-758D01*
X63923Y-782D01*
X63899Y-794D01*
X70673Y-973D02*
X70673Y-723D01*
X70732Y-723D01*
X70768Y-735D01*
X70792Y-758D01*
X70803Y-782D01*
X70815Y-830D01*
X70815Y-866D01*
X70803Y-913D01*
X70792Y-937D01*
X70768Y-961D01*
X70732Y-973D01*
X70673Y-973D01*
X71006Y-842D02*
X71042Y-854D01*
X71053Y-866D01*
X71065Y-889D01*
X71065Y-925D01*
X71053Y-949D01*
X71042Y-961D01*
X71018Y-973D01*
X70923Y-973D01*
X70923Y-723D01*
X71006Y-723D01*
X71030Y-735D01*
X71042Y-747D01*
X71053Y-770D01*
X71053Y-794D01*
X71042Y-818D01*
X71030Y-830D01*
X71006Y-842D01*
X70923Y-842D01*
X71280Y-806D02*
X71280Y-973D01*
X71220Y-711D02*
X71161Y-889D01*
X71315Y-889D01*
X71518Y-723D02*
X71470Y-723D01*
X71446Y-735D01*
X71434Y-747D01*
X71411Y-782D01*
X71399Y-830D01*
X71399Y-925D01*
X71411Y-949D01*
X71423Y-961D01*
X71446Y-973D01*
X71494Y-973D01*
X71518Y-961D01*
X71530Y-949D01*
X71542Y-925D01*
X71542Y-866D01*
X71530Y-842D01*
X71518Y-830D01*
X71494Y-818D01*
X71446Y-818D01*
X71423Y-830D01*
X71411Y-842D01*
X71399Y-866D01*
X78173Y-973D02*
X78173Y-723D01*
X78232Y-723D01*
X78268Y-735D01*
X78292Y-758D01*
X78303Y-782D01*
X78315Y-830D01*
X78315Y-866D01*
X78303Y-913D01*
X78292Y-937D01*
X78268Y-961D01*
X78232Y-973D01*
X78173Y-973D01*
X78506Y-842D02*
X78542Y-854D01*
X78553Y-866D01*
X78565Y-889D01*
X78565Y-925D01*
X78553Y-949D01*
X78542Y-961D01*
X78518Y-973D01*
X78423Y-973D01*
X78423Y-723D01*
X78506Y-723D01*
X78530Y-735D01*
X78542Y-747D01*
X78553Y-770D01*
X78553Y-794D01*
X78542Y-818D01*
X78530Y-830D01*
X78506Y-842D01*
X78423Y-842D01*
X78792Y-723D02*
X78673Y-723D01*
X78661Y-842D01*
X78673Y-830D01*
X78696Y-818D01*
X78756Y-818D01*
X78780Y-830D01*
X78792Y-842D01*
X78803Y-866D01*
X78803Y-925D01*
X78792Y-949D01*
X78780Y-961D01*
X78756Y-973D01*
X78696Y-973D01*
X78673Y-961D01*
X78661Y-949D01*
X79042Y-973D02*
X78899Y-973D01*
X78970Y-973D02*
X78970Y-723D01*
X78946Y-758D01*
X78923Y-782D01*
X78899Y-794D01*
X85673Y-973D02*
X85673Y-723D01*
X85732Y-723D01*
X85768Y-735D01*
X85792Y-758D01*
X85803Y-782D01*
X85815Y-830D01*
X85815Y-866D01*
X85803Y-913D01*
X85792Y-937D01*
X85768Y-961D01*
X85732Y-973D01*
X85673Y-973D01*
X86006Y-842D02*
X86042Y-854D01*
X86053Y-866D01*
X86065Y-889D01*
X86065Y-925D01*
X86053Y-949D01*
X86042Y-961D01*
X86018Y-973D01*
X85923Y-973D01*
X85923Y-723D01*
X86006Y-723D01*
X86030Y-735D01*
X86042Y-747D01*
X86053Y-770D01*
X86053Y-794D01*
X86042Y-818D01*
X86030Y-830D01*
X86006Y-842D01*
X85923Y-842D01*
X86292Y-723D02*
X86173Y-723D01*
X86161Y-842D01*
X86173Y-830D01*
X86196Y-818D01*
X86256Y-818D01*
X86280Y-830D01*
X86292Y-842D01*
X86303Y-866D01*
X86303Y-925D01*
X86292Y-949D01*
X86280Y-961D01*
X86256Y-973D01*
X86196Y-973D01*
X86173Y-961D01*
X86161Y-949D01*
X86518Y-723D02*
X86470Y-723D01*
X86446Y-735D01*
X86434Y-747D01*
X86411Y-782D01*
X86399Y-830D01*
X86399Y-925D01*
X86411Y-949D01*
X86423Y-961D01*
X86446Y-973D01*
X86494Y-973D01*
X86518Y-961D01*
X86530Y-949D01*
X86542Y-925D01*
X86542Y-866D01*
X86530Y-842D01*
X86518Y-830D01*
X86494Y-818D01*
X86446Y-818D01*
X86423Y-830D01*
X86411Y-842D01*
X86399Y-866D01*
X35073Y-8473D02*
X35073Y-8223D01*
X35132Y-8223D01*
X35168Y-8235D01*
X35192Y-8258D01*
X35203Y-8282D01*
X35215Y-8330D01*
X35215Y-8366D01*
X35203Y-8413D01*
X35192Y-8437D01*
X35168Y-8461D01*
X35132Y-8473D01*
X35073Y-8473D01*
X35406Y-8342D02*
X35442Y-8354D01*
X35453Y-8366D01*
X35465Y-8389D01*
X35465Y-8425D01*
X35453Y-8449D01*
X35442Y-8461D01*
X35418Y-8473D01*
X35323Y-8473D01*
X35323Y-8223D01*
X35406Y-8223D01*
X35430Y-8235D01*
X35442Y-8247D01*
X35453Y-8270D01*
X35453Y-8294D01*
X35442Y-8318D01*
X35430Y-8330D01*
X35406Y-8342D01*
X35323Y-8342D01*
X35561Y-8247D02*
X35573Y-8235D01*
X35596Y-8223D01*
X35656Y-8223D01*
X35680Y-8235D01*
X35692Y-8247D01*
X35703Y-8270D01*
X35703Y-8294D01*
X35692Y-8330D01*
X35549Y-8473D01*
X35703Y-8473D01*
X35799Y-8247D02*
X35811Y-8235D01*
X35834Y-8223D01*
X35894Y-8223D01*
X35918Y-8235D01*
X35930Y-8247D01*
X35942Y-8270D01*
X35942Y-8294D01*
X35930Y-8330D01*
X35787Y-8473D01*
X35942Y-8473D01*
X42573Y-8473D02*
X42573Y-8223D01*
X42632Y-8223D01*
X42668Y-8235D01*
X42692Y-8258D01*
X42703Y-8282D01*
X42715Y-8330D01*
X42715Y-8366D01*
X42703Y-8413D01*
X42692Y-8437D01*
X42668Y-8461D01*
X42632Y-8473D01*
X42573Y-8473D01*
X42906Y-8342D02*
X42942Y-8354D01*
X42953Y-8366D01*
X42965Y-8389D01*
X42965Y-8425D01*
X42953Y-8449D01*
X42942Y-8461D01*
X42918Y-8473D01*
X42823Y-8473D01*
X42823Y-8223D01*
X42906Y-8223D01*
X42930Y-8235D01*
X42942Y-8247D01*
X42953Y-8270D01*
X42953Y-8294D01*
X42942Y-8318D01*
X42930Y-8330D01*
X42906Y-8342D01*
X42823Y-8342D01*
X43061Y-8247D02*
X43073Y-8235D01*
X43096Y-8223D01*
X43156Y-8223D01*
X43180Y-8235D01*
X43192Y-8247D01*
X43203Y-8270D01*
X43203Y-8294D01*
X43192Y-8330D01*
X43049Y-8473D01*
X43203Y-8473D01*
X43287Y-8223D02*
X43453Y-8223D01*
X43346Y-8473D01*
X84722Y-23473D02*
X84722Y-23223D01*
X84782Y-23223D01*
X84817Y-23235D01*
X84841Y-23258D01*
X84853Y-23282D01*
X84865Y-23330D01*
X84865Y-23366D01*
X84853Y-23413D01*
X84841Y-23437D01*
X84817Y-23461D01*
X84782Y-23473D01*
X84722Y-23473D01*
X85055Y-23342D02*
X85091Y-23354D01*
X85103Y-23366D01*
X85115Y-23389D01*
X85115Y-23425D01*
X85103Y-23449D01*
X85091Y-23461D01*
X85067Y-23473D01*
X84972Y-23473D01*
X84972Y-23223D01*
X85055Y-23223D01*
X85079Y-23235D01*
X85091Y-23247D01*
X85103Y-23270D01*
X85103Y-23294D01*
X85091Y-23318D01*
X85079Y-23330D01*
X85055Y-23342D01*
X84972Y-23342D01*
X85329Y-23306D02*
X85329Y-23473D01*
X85270Y-23211D02*
X85210Y-23389D01*
X85365Y-23389D01*
X85472Y-23473D02*
X85520Y-23473D01*
X85544Y-23461D01*
X85555Y-23449D01*
X85579Y-23413D01*
X85591Y-23366D01*
X85591Y-23270D01*
X85579Y-23247D01*
X85567Y-23235D01*
X85544Y-23223D01*
X85496Y-23223D01*
X85472Y-23235D01*
X85460Y-23247D01*
X85448Y-23270D01*
X85448Y-23330D01*
X85460Y-23354D01*
X85472Y-23366D01*
X85496Y-23377D01*
X85544Y-23377D01*
X85567Y-23366D01*
X85579Y-23354D01*
X85591Y-23330D01*
X75373Y-23473D02*
X75373Y-23223D01*
X75432Y-23223D01*
X75468Y-23235D01*
X75492Y-23258D01*
X75503Y-23282D01*
X75515Y-23330D01*
X75515Y-23366D01*
X75503Y-23413D01*
X75492Y-23437D01*
X75468Y-23461D01*
X75432Y-23473D01*
X75373Y-23473D01*
X75706Y-23342D02*
X75742Y-23354D01*
X75753Y-23366D01*
X75765Y-23389D01*
X75765Y-23425D01*
X75753Y-23449D01*
X75742Y-23461D01*
X75718Y-23473D01*
X75623Y-23473D01*
X75623Y-23223D01*
X75706Y-23223D01*
X75730Y-23235D01*
X75742Y-23247D01*
X75753Y-23270D01*
X75753Y-23294D01*
X75742Y-23318D01*
X75730Y-23330D01*
X75706Y-23342D01*
X75623Y-23342D01*
X75980Y-23306D02*
X75980Y-23473D01*
X75920Y-23211D02*
X75861Y-23389D01*
X76015Y-23389D01*
X76218Y-23306D02*
X76218Y-23473D01*
X76158Y-23211D02*
X76099Y-23389D01*
X76253Y-23389D01*
X68773Y-15973D02*
X68773Y-15723D01*
X68832Y-15723D01*
X68868Y-15735D01*
X68892Y-15758D01*
X68903Y-15782D01*
X68915Y-15830D01*
X68915Y-15866D01*
X68903Y-15913D01*
X68892Y-15937D01*
X68868Y-15961D01*
X68832Y-15973D01*
X68773Y-15973D01*
X69106Y-15842D02*
X69142Y-15854D01*
X69153Y-15866D01*
X69165Y-15889D01*
X69165Y-15925D01*
X69153Y-15949D01*
X69142Y-15961D01*
X69118Y-15973D01*
X69023Y-15973D01*
X69023Y-15723D01*
X69106Y-15723D01*
X69130Y-15735D01*
X69142Y-15747D01*
X69153Y-15770D01*
X69153Y-15794D01*
X69142Y-15818D01*
X69130Y-15830D01*
X69106Y-15842D01*
X69023Y-15842D01*
X69380Y-15806D02*
X69380Y-15973D01*
X69320Y-15711D02*
X69261Y-15889D01*
X69415Y-15889D01*
X69487Y-15723D02*
X69642Y-15723D01*
X69558Y-15818D01*
X69594Y-15818D01*
X69618Y-15830D01*
X69630Y-15842D01*
X69642Y-15866D01*
X69642Y-15925D01*
X69630Y-15949D01*
X69618Y-15961D01*
X69594Y-15973D01*
X69523Y-15973D01*
X69499Y-15961D01*
X69487Y-15949D01*
X77222Y-15973D02*
X77222Y-15723D01*
X77282Y-15723D01*
X77317Y-15735D01*
X77341Y-15758D01*
X77353Y-15782D01*
X77365Y-15830D01*
X77365Y-15866D01*
X77353Y-15913D01*
X77341Y-15937D01*
X77317Y-15961D01*
X77282Y-15973D01*
X77222Y-15973D01*
X77555Y-15842D02*
X77591Y-15854D01*
X77603Y-15866D01*
X77615Y-15889D01*
X77615Y-15925D01*
X77603Y-15949D01*
X77591Y-15961D01*
X77567Y-15973D01*
X77472Y-15973D01*
X77472Y-15723D01*
X77555Y-15723D01*
X77579Y-15735D01*
X77591Y-15747D01*
X77603Y-15770D01*
X77603Y-15794D01*
X77591Y-15818D01*
X77579Y-15830D01*
X77555Y-15842D01*
X77472Y-15842D01*
X77829Y-15806D02*
X77829Y-15973D01*
X77770Y-15711D02*
X77710Y-15889D01*
X77865Y-15889D01*
X77996Y-15830D02*
X77972Y-15818D01*
X77960Y-15806D01*
X77948Y-15782D01*
X77948Y-15770D01*
X77960Y-15747D01*
X77972Y-15735D01*
X77996Y-15723D01*
X78044Y-15723D01*
X78067Y-15735D01*
X78079Y-15747D01*
X78091Y-15770D01*
X78091Y-15782D01*
X78079Y-15806D01*
X78067Y-15818D01*
X78044Y-15830D01*
X77996Y-15830D01*
X77972Y-15842D01*
X77960Y-15854D01*
X77948Y-15877D01*
X77948Y-15925D01*
X77960Y-15949D01*
X77972Y-15961D01*
X77996Y-15973D01*
X78044Y-15973D01*
X78067Y-15961D01*
X78079Y-15949D01*
X78091Y-15925D01*
X78091Y-15877D01*
X78079Y-15854D01*
X78067Y-15842D01*
X78044Y-15830D01*
X20073Y-23473D02*
X20073Y-23223D01*
X20132Y-23223D01*
X20168Y-23235D01*
X20192Y-23258D01*
X20203Y-23282D01*
X20215Y-23330D01*
X20215Y-23366D01*
X20203Y-23413D01*
X20192Y-23437D01*
X20168Y-23461D01*
X20132Y-23473D01*
X20073Y-23473D01*
X20406Y-23342D02*
X20442Y-23354D01*
X20453Y-23366D01*
X20465Y-23389D01*
X20465Y-23425D01*
X20453Y-23449D01*
X20442Y-23461D01*
X20418Y-23473D01*
X20323Y-23473D01*
X20323Y-23223D01*
X20406Y-23223D01*
X20430Y-23235D01*
X20442Y-23247D01*
X20453Y-23270D01*
X20453Y-23294D01*
X20442Y-23318D01*
X20430Y-23330D01*
X20406Y-23342D01*
X20323Y-23342D01*
X20703Y-23473D02*
X20561Y-23473D01*
X20632Y-23473D02*
X20632Y-23223D01*
X20608Y-23258D01*
X20584Y-23282D01*
X20561Y-23294D01*
X20918Y-23306D02*
X20918Y-23473D01*
X20858Y-23211D02*
X20799Y-23389D01*
X20953Y-23389D01*
X85673Y-15973D02*
X85673Y-15723D01*
X85732Y-15723D01*
X85768Y-15735D01*
X85792Y-15758D01*
X85803Y-15782D01*
X85815Y-15830D01*
X85815Y-15866D01*
X85803Y-15913D01*
X85792Y-15937D01*
X85768Y-15961D01*
X85732Y-15973D01*
X85673Y-15973D01*
X86006Y-15842D02*
X86042Y-15854D01*
X86053Y-15866D01*
X86065Y-15889D01*
X86065Y-15925D01*
X86053Y-15949D01*
X86042Y-15961D01*
X86018Y-15973D01*
X85923Y-15973D01*
X85923Y-15723D01*
X86006Y-15723D01*
X86030Y-15735D01*
X86042Y-15747D01*
X86053Y-15770D01*
X86053Y-15794D01*
X86042Y-15818D01*
X86030Y-15830D01*
X86006Y-15842D01*
X85923Y-15842D01*
X86292Y-15723D02*
X86173Y-15723D01*
X86161Y-15842D01*
X86173Y-15830D01*
X86196Y-15818D01*
X86256Y-15818D01*
X86280Y-15830D01*
X86292Y-15842D01*
X86303Y-15866D01*
X86303Y-15925D01*
X86292Y-15949D01*
X86280Y-15961D01*
X86256Y-15973D01*
X86196Y-15973D01*
X86173Y-15961D01*
X86161Y-15949D01*
X86387Y-15723D02*
X86542Y-15723D01*
X86458Y-15818D01*
X86494Y-15818D01*
X86518Y-15830D01*
X86530Y-15842D01*
X86542Y-15866D01*
X86542Y-15925D01*
X86530Y-15949D01*
X86518Y-15961D01*
X86494Y-15973D01*
X86423Y-15973D01*
X86399Y-15961D01*
X86387Y-15949D01*
X3309Y-972D02*
X3309Y-722D01*
X3369Y-722D01*
X3404Y-734D01*
X3428Y-758D01*
X3440Y-782D01*
X3452Y-829D01*
X3452Y-865D01*
X3440Y-913D01*
X3428Y-937D01*
X3404Y-960D01*
X3369Y-972D01*
X3309Y-972D01*
X3643Y-841D02*
X3559Y-841D01*
X3559Y-972D02*
X3559Y-722D01*
X3678Y-722D01*
X3750Y-722D02*
X3904Y-722D01*
X3821Y-818D01*
X3857Y-818D01*
X3881Y-829D01*
X3893Y-841D01*
X3904Y-865D01*
X3904Y-925D01*
X3893Y-948D01*
X3881Y-960D01*
X3857Y-972D01*
X3785Y-972D01*
X3762Y-960D01*
X3750Y-948D01*
X6091Y-15973D02*
X6091Y-15723D01*
X6151Y-15723D01*
X6187Y-15735D01*
X6210Y-15758D01*
X6222Y-15782D01*
X6234Y-15830D01*
X6234Y-15866D01*
X6222Y-15913D01*
X6210Y-15937D01*
X6187Y-15961D01*
X6151Y-15973D01*
X6091Y-15973D01*
X6484Y-15949D02*
X6472Y-15961D01*
X6437Y-15973D01*
X6413Y-15973D01*
X6377Y-15961D01*
X6353Y-15937D01*
X6341Y-15913D01*
X6329Y-15866D01*
X6329Y-15830D01*
X6341Y-15782D01*
X6353Y-15758D01*
X6377Y-15735D01*
X6413Y-15723D01*
X6437Y-15723D01*
X6472Y-15735D01*
X6484Y-15747D01*
X6722Y-15973D02*
X6579Y-15973D01*
X6651Y-15973D02*
X6651Y-15723D01*
X6627Y-15758D01*
X6603Y-15782D01*
X6579Y-15794D01*
X27674Y-8473D02*
X27674Y-8223D01*
X27733Y-8223D01*
X27769Y-8235D01*
X27793Y-8258D01*
X27805Y-8282D01*
X27817Y-8330D01*
X27817Y-8366D01*
X27805Y-8413D01*
X27793Y-8437D01*
X27769Y-8461D01*
X27733Y-8473D01*
X27674Y-8473D01*
X27900Y-8223D02*
X27959Y-8473D01*
X28007Y-8294D01*
X28055Y-8473D01*
X28114Y-8223D01*
X28317Y-8306D02*
X28317Y-8473D01*
X28257Y-8211D02*
X28198Y-8389D01*
X28352Y-8389D01*
X20174Y-8473D02*
X20174Y-8223D01*
X20233Y-8223D01*
X20269Y-8235D01*
X20293Y-8258D01*
X20305Y-8282D01*
X20317Y-8330D01*
X20317Y-8366D01*
X20305Y-8413D01*
X20293Y-8437D01*
X20269Y-8461D01*
X20233Y-8473D01*
X20174Y-8473D01*
X20400Y-8223D02*
X20459Y-8473D01*
X20507Y-8294D01*
X20555Y-8473D01*
X20614Y-8223D01*
X20686Y-8223D02*
X20840Y-8223D01*
X20757Y-8318D01*
X20793Y-8318D01*
X20817Y-8330D01*
X20828Y-8342D01*
X20840Y-8366D01*
X20840Y-8425D01*
X20828Y-8449D01*
X20817Y-8461D01*
X20793Y-8473D01*
X20721Y-8473D01*
X20698Y-8461D01*
X20686Y-8449D01*
X12673Y-8473D02*
X12673Y-8223D01*
X12733Y-8223D01*
X12769Y-8235D01*
X12793Y-8258D01*
X12804Y-8282D01*
X12816Y-8330D01*
X12816Y-8366D01*
X12804Y-8413D01*
X12793Y-8437D01*
X12769Y-8461D01*
X12733Y-8473D01*
X12673Y-8473D01*
X12900Y-8223D02*
X12959Y-8473D01*
X13007Y-8294D01*
X13054Y-8473D01*
X13114Y-8223D01*
X13197Y-8247D02*
X13209Y-8235D01*
X13233Y-8223D01*
X13293Y-8223D01*
X13316Y-8235D01*
X13328Y-8247D01*
X13340Y-8270D01*
X13340Y-8294D01*
X13328Y-8330D01*
X13185Y-8473D01*
X13340Y-8473D01*
X18274Y-973D02*
X18274Y-723D01*
X18333Y-723D01*
X18369Y-735D01*
X18393Y-758D01*
X18405Y-782D01*
X18417Y-830D01*
X18417Y-866D01*
X18405Y-913D01*
X18393Y-937D01*
X18369Y-961D01*
X18333Y-973D01*
X18274Y-973D01*
X18500Y-723D02*
X18559Y-973D01*
X18607Y-794D01*
X18655Y-973D01*
X18714Y-723D01*
X18940Y-973D02*
X18798Y-973D01*
X18869Y-973D02*
X18869Y-723D01*
X18845Y-758D01*
X18821Y-782D01*
X18798Y-794D01*
%LPC*%
G54D19*
X78701Y-11122D03*
X16801Y-7722D03*
X50472Y-18503D03*
G54D20*
X574Y-22244D03*
G54D21*
X10688Y-17223D03*
X12263Y-20727D03*
X10689Y-20727D03*
X12263Y-17223D03*
G54D22*
X9104Y-775D03*
X5226Y-775D03*
G54D23*
X5226Y-2449D03*
X9104Y-2449D03*
G54D24*
X7165Y-2449D03*
X6850Y-2449D03*
X6535Y-2449D03*
X7480Y-2449D03*
X7795Y-2449D03*
G54D25*
X6299Y-1523D03*
X8031Y-1523D03*
G54D26*
X61081Y-26226D03*
X61081Y-27092D03*
X61711Y-26226D03*
X61711Y-27092D03*
G54D27*
X55094Y-25985D03*
X55094Y-25670D03*
X55094Y-25355D03*
X55094Y-25040D03*
X55094Y-24725D03*
X55094Y-24410D03*
X55094Y-26300D03*
X55094Y-26615D03*
X55094Y-26930D03*
X55094Y-27245D03*
X55094Y-27560D03*
X59594Y-25985D03*
X59594Y-25670D03*
X59594Y-25355D03*
X59594Y-25040D03*
X59594Y-24725D03*
X59594Y-24410D03*
X59594Y-26300D03*
X59594Y-26615D03*
X59594Y-26930D03*
X59594Y-27245D03*
X59594Y-27560D03*
G54D28*
X57344Y-23735D03*
X57344Y-28235D03*
X57659Y-23735D03*
X57659Y-28235D03*
X57974Y-28235D03*
X57974Y-23735D03*
X58289Y-23735D03*
X58289Y-28235D03*
X58604Y-28235D03*
X58604Y-23735D03*
X58919Y-23735D03*
X58919Y-28235D03*
X57029Y-28235D03*
X57029Y-23735D03*
X56714Y-23735D03*
X56714Y-28235D03*
X56399Y-28235D03*
X56399Y-23735D03*
X56084Y-23735D03*
X56084Y-28235D03*
X55769Y-28235D03*
X55769Y-23735D03*
G54D29*
X5226Y-6922D03*
X5976Y-6922D03*
X62621Y-25659D03*
X63371Y-25659D03*
X62621Y-27409D03*
X63371Y-27409D03*
X54121Y-27659D03*
X53371Y-27659D03*
X54521Y-23684D03*
X53771Y-23684D03*
X61771Y-28109D03*
X61021Y-28109D03*
X61771Y-25209D03*
X61021Y-25209D03*
G54D30*
X7376Y-5534D03*
X7376Y-4784D03*
X8226Y-5534D03*
X8226Y-4784D03*
G54D29*
X59971Y-23659D03*
X60721Y-23659D03*
X54126Y-28633D03*
X53376Y-28633D03*
X62621Y-24009D03*
X61871Y-24009D03*
G54D30*
X72601Y-6747D03*
X72601Y-5997D03*
G54D29*
X69226Y-12122D03*
X68476Y-12122D03*
X72726Y-19622D03*
X71976Y-19622D03*
X39226Y-12122D03*
X38476Y-12122D03*
X65226Y-19622D03*
X64476Y-19622D03*
X61726Y-12122D03*
X60976Y-12122D03*
G54D30*
X65101Y-6747D03*
X65101Y-5997D03*
X57601Y-6747D03*
X57601Y-5997D03*
G54D29*
X54226Y-12122D03*
X53476Y-12122D03*
X57726Y-19622D03*
X56976Y-19622D03*
X42726Y-19622D03*
X41976Y-19622D03*
X3226Y-6922D03*
X3976Y-6922D03*
G54D30*
X50101Y-6747D03*
X50101Y-5997D03*
X35101Y-6747D03*
X35101Y-5997D03*
G54D29*
X35226Y-19622D03*
X34476Y-19622D03*
X28726Y-13872D03*
X29476Y-13872D03*
G54D30*
X27601Y-6747D03*
X27601Y-5997D03*
G54D29*
X51226Y-27122D03*
X50476Y-27122D03*
X48951Y-21109D03*
X48201Y-21109D03*
X46726Y-12122D03*
X45976Y-12122D03*
G54D30*
X42601Y-6747D03*
X42601Y-5997D03*
G54D29*
X24226Y-27122D03*
X23476Y-27122D03*
X16726Y-27122D03*
X15976Y-27122D03*
X27726Y-19622D03*
X26976Y-19622D03*
X21226Y-13872D03*
X21976Y-13872D03*
X20226Y-19622D03*
X19476Y-19622D03*
X13726Y-13872D03*
X14476Y-13872D03*
X8226Y-27122D03*
X7476Y-27122D03*
X6801Y-13609D03*
X6051Y-13609D03*
G54D30*
X20101Y-6747D03*
X20101Y-5997D03*
X12601Y-6747D03*
X12601Y-5997D03*
X7851Y-21747D03*
X7851Y-20997D03*
X87601Y-6997D03*
X87601Y-6247D03*
X87601Y-21747D03*
X87601Y-20997D03*
G54D29*
X88726Y-27122D03*
X87976Y-27122D03*
X79476Y-27122D03*
X78726Y-27122D03*
X84226Y-13622D03*
X84976Y-13622D03*
G54D30*
X80101Y-6747D03*
X80101Y-5997D03*
G54D29*
X76726Y-12122D03*
X75976Y-12122D03*
X81226Y-19622D03*
X80476Y-19622D03*
G54D31*
X37376Y-2559D03*
X37376Y-3559D03*
X37376Y-4559D03*
X44876Y-5559D03*
X44876Y-4559D03*
X44876Y-1559D03*
X37376Y-5559D03*
X52376Y-2559D03*
X52376Y-5559D03*
X52376Y-4559D03*
X52376Y-3559D03*
X59876Y-1559D03*
X59876Y-3559D03*
X52376Y-1559D03*
X36576Y-23024D03*
X36576Y-24024D03*
X34576Y-24024D03*
X34576Y-23024D03*
X35576Y-24024D03*
X35576Y-23024D03*
X37111Y-28809D03*
X35111Y-28809D03*
X33111Y-28809D03*
X36111Y-28809D03*
X34111Y-28809D03*
X38111Y-28809D03*
X44876Y-2559D03*
X44876Y-3559D03*
X67376Y-5559D03*
X67376Y-1559D03*
X67376Y-3559D03*
X67376Y-4559D03*
X67376Y-2559D03*
X59876Y-5559D03*
G54D32*
X1376Y-13509D03*
X1376Y-10509D03*
X2701Y-16622D03*
X2701Y-19622D03*
G54D33*
X3551Y-28122D03*
X6051Y-27122D03*
G54D34*
X4551Y-26122D03*
G54D35*
X6551Y-26122D03*
X2551Y-26122D03*
G54D33*
X3551Y-13122D03*
X6051Y-12122D03*
G54D34*
X4551Y-11122D03*
G54D35*
X6551Y-11122D03*
X2551Y-11122D03*
G54D33*
X5401Y-20622D03*
X7901Y-19622D03*
G54D34*
X6401Y-18622D03*
G54D35*
X8401Y-18622D03*
X4401Y-18622D03*
G54D36*
X24701Y-16622D03*
G54D37*
X23701Y-16622D03*
G54D36*
X13501Y-24122D03*
G54D37*
X12501Y-24122D03*
G54D36*
X17201Y-16622D03*
G54D37*
X16201Y-16622D03*
G54D36*
X5051Y-9122D03*
G54D37*
X4051Y-9122D03*
G54D36*
X11601Y-1621D03*
G54D37*
X10601Y-1621D03*
G54D36*
X5051Y-24122D03*
G54D37*
X4051Y-24122D03*
G54D33*
X85101Y-20622D03*
X87601Y-19622D03*
G54D34*
X86101Y-18622D03*
G54D35*
X88101Y-18622D03*
X84101Y-18622D03*
G54D33*
X49501Y-13122D03*
X52001Y-12122D03*
G54D34*
X50501Y-11122D03*
G54D35*
X52501Y-11122D03*
X48501Y-11122D03*
G54D33*
X70101Y-5622D03*
X72601Y-4622D03*
G54D34*
X71101Y-3622D03*
G54D35*
X73101Y-3622D03*
X69101Y-3622D03*
G54D33*
X32601Y-5622D03*
X35101Y-4622D03*
G54D34*
X33601Y-3622D03*
G54D35*
X35601Y-3622D03*
X31601Y-3622D03*
G54D33*
X84151Y-28122D03*
X86651Y-27122D03*
G54D34*
X85151Y-26122D03*
G54D35*
X87151Y-26122D03*
X83151Y-26122D03*
G54D33*
X74801Y-28122D03*
X77301Y-27122D03*
G54D34*
X75801Y-26122D03*
G54D35*
X77801Y-26122D03*
X73801Y-26122D03*
G54D33*
X19501Y-28122D03*
X22001Y-27122D03*
G54D34*
X20501Y-26122D03*
G54D35*
X22501Y-26122D03*
X18501Y-26122D03*
G54D33*
X12001Y-28122D03*
X14501Y-27122D03*
G54D34*
X13001Y-26122D03*
G54D35*
X15001Y-26122D03*
X11001Y-26122D03*
G54D33*
X76651Y-20622D03*
X79151Y-19622D03*
G54D34*
X77651Y-18622D03*
G54D35*
X79651Y-18622D03*
X75651Y-18622D03*
G54D33*
X68201Y-20622D03*
X70701Y-19622D03*
G54D34*
X69201Y-18622D03*
G54D35*
X71201Y-18622D03*
X67201Y-18622D03*
G54D33*
X27001Y-13122D03*
X29501Y-12122D03*
G54D34*
X28001Y-11122D03*
G54D35*
X30001Y-11122D03*
X26001Y-11122D03*
G54D33*
X19501Y-13122D03*
X22001Y-12122D03*
G54D34*
X20501Y-11122D03*
G54D35*
X22501Y-11122D03*
X18501Y-11122D03*
G54D33*
X12001Y-13122D03*
X14501Y-12122D03*
G54D34*
X13001Y-11122D03*
G54D35*
X15001Y-11122D03*
X11001Y-11122D03*
G54D33*
X85101Y-5622D03*
X87601Y-4622D03*
G54D34*
X86101Y-3622D03*
G54D35*
X88101Y-3622D03*
X84101Y-3622D03*
G54D33*
X62601Y-5622D03*
X65101Y-4622D03*
G54D34*
X63601Y-3622D03*
G54D35*
X65601Y-3622D03*
X61601Y-3622D03*
G54D33*
X55101Y-5622D03*
X57601Y-4622D03*
G54D34*
X56101Y-3622D03*
G54D35*
X58101Y-3622D03*
X54101Y-3622D03*
G54D33*
X47601Y-5622D03*
X50101Y-4622D03*
G54D34*
X48601Y-3622D03*
G54D35*
X50601Y-3622D03*
X46601Y-3622D03*
G54D33*
X40101Y-5622D03*
X42601Y-4622D03*
G54D34*
X41101Y-3622D03*
G54D35*
X43101Y-3622D03*
X39101Y-3622D03*
G54D33*
X25101Y-5622D03*
X27601Y-4622D03*
G54D34*
X26101Y-3622D03*
G54D35*
X28101Y-3622D03*
X24101Y-3622D03*
G54D33*
X17601Y-5622D03*
X20101Y-4622D03*
G54D34*
X18601Y-3622D03*
G54D35*
X20601Y-3622D03*
X16601Y-3622D03*
G54D33*
X10101Y-5622D03*
X12601Y-4622D03*
G54D34*
X11101Y-3622D03*
G54D35*
X13101Y-3622D03*
X9101Y-3622D03*
G54D33*
X60701Y-20622D03*
X63201Y-19622D03*
G54D34*
X61701Y-18622D03*
G54D35*
X63701Y-18622D03*
X59701Y-18622D03*
G54D33*
X53201Y-20622D03*
X55701Y-19622D03*
G54D34*
X54201Y-18622D03*
G54D35*
X56201Y-18622D03*
X52201Y-18622D03*
G54D33*
X45701Y-20622D03*
X48201Y-19622D03*
G54D34*
X46701Y-18622D03*
G54D35*
X48701Y-18622D03*
X44701Y-18622D03*
G54D33*
X38201Y-20622D03*
X40701Y-19622D03*
G54D34*
X39201Y-18622D03*
G54D35*
X41201Y-18622D03*
X37201Y-18622D03*
G54D33*
X30701Y-20622D03*
X33201Y-19622D03*
G54D34*
X31701Y-18622D03*
G54D35*
X33701Y-18622D03*
X29701Y-18622D03*
G54D33*
X23201Y-20622D03*
X25701Y-19622D03*
G54D34*
X24201Y-18622D03*
G54D35*
X26201Y-18622D03*
X22201Y-18622D03*
G54D33*
X15701Y-20622D03*
X18201Y-19622D03*
G54D34*
X16701Y-18622D03*
G54D35*
X18701Y-18622D03*
X14701Y-18622D03*
G54D33*
X82301Y-13122D03*
X84801Y-12122D03*
G54D34*
X83301Y-11122D03*
G54D35*
X85301Y-11122D03*
X81301Y-11122D03*
G54D33*
X72001Y-13122D03*
X74501Y-12122D03*
G54D34*
X73001Y-11122D03*
G54D35*
X75001Y-11122D03*
X71001Y-11122D03*
G54D33*
X64501Y-13122D03*
X67001Y-12122D03*
G54D34*
X65501Y-11122D03*
G54D35*
X67501Y-11122D03*
X63501Y-11122D03*
G54D33*
X57001Y-13122D03*
X59501Y-12122D03*
G54D34*
X58001Y-11122D03*
G54D35*
X60001Y-11122D03*
X56001Y-11122D03*
G54D33*
X42001Y-13122D03*
X44501Y-12122D03*
G54D34*
X43001Y-11122D03*
G54D35*
X45001Y-11122D03*
X41001Y-11122D03*
G54D33*
X34501Y-13122D03*
X37001Y-12122D03*
G54D34*
X35501Y-11122D03*
G54D35*
X37501Y-11122D03*
X33501Y-11122D03*
G54D33*
X77601Y-5622D03*
X80101Y-4622D03*
G54D34*
X78601Y-3622D03*
G54D35*
X80601Y-3622D03*
X76601Y-3622D03*
G54D36*
X48271Y-24124D03*
G54D37*
X47271Y-24124D03*
G54D36*
X62201Y-16622D03*
G54D37*
X61201Y-16622D03*
G54D36*
X54701Y-16622D03*
G54D37*
X53701Y-16622D03*
G54D36*
X47201Y-16622D03*
G54D37*
X46201Y-16622D03*
G54D36*
X39701Y-16622D03*
G54D37*
X38701Y-16622D03*
G54D36*
X83801Y-9122D03*
G54D37*
X82801Y-9122D03*
G54D36*
X73501Y-9122D03*
G54D37*
X72501Y-9122D03*
G54D36*
X66001Y-9122D03*
G54D37*
X65001Y-9122D03*
G54D36*
X32201Y-16672D03*
G54D37*
X31201Y-16672D03*
G54D36*
X58501Y-9122D03*
G54D37*
X57501Y-9122D03*
G54D36*
X34101Y-1622D03*
G54D37*
X33101Y-1622D03*
G54D36*
X41601Y-1622D03*
G54D37*
X40601Y-1622D03*
G54D36*
X49101Y-1622D03*
G54D37*
X48101Y-1622D03*
G54D36*
X56601Y-1622D03*
G54D37*
X55601Y-1622D03*
G54D36*
X26601Y-1622D03*
G54D37*
X25601Y-1622D03*
G54D36*
X51001Y-9122D03*
G54D37*
X50001Y-9122D03*
G54D36*
X64101Y-1622D03*
G54D37*
X63101Y-1622D03*
G54D36*
X71601Y-1622D03*
G54D37*
X70601Y-1622D03*
G54D36*
X79101Y-1622D03*
G54D37*
X78101Y-1622D03*
G54D36*
X86601Y-1622D03*
G54D37*
X85601Y-1622D03*
G54D36*
X36001Y-9122D03*
G54D37*
X35001Y-9122D03*
G54D36*
X43501Y-9122D03*
G54D37*
X42501Y-9122D03*
G54D36*
X85651Y-24122D03*
G54D37*
X84651Y-24122D03*
G54D36*
X76301Y-24122D03*
G54D37*
X75301Y-24122D03*
G54D36*
X69701Y-16622D03*
G54D37*
X68701Y-16622D03*
G54D36*
X78151Y-16622D03*
G54D37*
X77151Y-16622D03*
G54D36*
X21001Y-24122D03*
G54D37*
X20001Y-24122D03*
G54D36*
X86601Y-16622D03*
G54D37*
X85601Y-16622D03*
G54D36*
X4101Y-1621D03*
G54D37*
X3101Y-1621D03*
G54D33*
X2601Y-5622D03*
X5101Y-4622D03*
G54D34*
X3601Y-3622D03*
G54D35*
X5601Y-3622D03*
X1601Y-3622D03*
G54D36*
X6901Y-16622D03*
G54D37*
X5901Y-16622D03*
G54D32*
X31301Y-12122D03*
X31301Y-9122D03*
X23851Y-12122D03*
X23851Y-9122D03*
X16301Y-13022D03*
X16301Y-10022D03*
X22001Y-4622D03*
X22001Y-1622D03*
G54D36*
X28501Y-9122D03*
G54D37*
X27501Y-9122D03*
G54D36*
X21001Y-9122D03*
G54D37*
X20001Y-9122D03*
G54D36*
X13501Y-9122D03*
G54D37*
X12501Y-9122D03*
G54D36*
X19101Y-1622D03*
G54D37*
X18101Y-1622D03*
G54D38*
X351Y-29472D03*
X89401Y-322D03*
X89401Y-29472D03*
X351Y-322D03*
X24976Y-23059D03*
X29976Y-559D03*
G54D33*
X46601Y-28122D03*
X49101Y-27122D03*
G54D34*
X47601Y-26122D03*
G54D35*
X49601Y-26122D03*
X45601Y-26122D03*
G54D39*
X67301Y-28822D03*
X27901Y-28822D03*
G54D34*
X67301Y-22822D03*
X27901Y-22822D03*
M02*
