G04 (created by PCBNEW (2013-02-13 BZR 3947)-testing) date 3/7/2013 9:21:39 AM*
%MOIN*%
G04 Gerber Fmt 3.4, Leading zero omitted, Abs format*
%FSLAX34Y34*%
G01*
G70*
G90*
G04 APERTURE LIST*
%ADD10C,0.08*%
%ADD11C,0.009*%
%ADD12O,0.0433X0.065*%
%ADD13O,0.0512X0.0945*%
%ADD14R,0.075X0.085*%
%ADD15O,0.075X0.085*%
%ADD16C,0.0554*%
%ADD17C,0.0590551*%
%ADD18C,0.065*%
%ADD19C,0.09*%
%ADD20C,0.0393701*%
%ADD21C,0.01*%
G04 APERTURE END LIST*
G54D10*
G54D11*
X111176Y-3741D02*
X111176Y-3661D01*
X21276Y-3661D02*
X21276Y-3741D01*
X21276Y-33641D02*
X21276Y-3741D01*
X111176Y-33641D02*
X21276Y-33641D01*
X111176Y-3741D02*
X111176Y-33641D01*
X21276Y-3661D02*
X111176Y-3661D01*
G54D12*
X28096Y-6385D03*
X28411Y-5754D03*
X28726Y-6385D03*
X29041Y-5754D03*
X29356Y-6385D03*
G54D13*
X27289Y-4317D03*
X30163Y-4317D03*
G54D14*
X53566Y-32920D03*
G54D15*
X54566Y-32920D03*
X55566Y-32920D03*
X56566Y-32920D03*
X57566Y-32920D03*
X58566Y-32920D03*
X59566Y-32920D03*
X60566Y-32920D03*
X61566Y-32920D03*
X62566Y-32920D03*
X63566Y-32920D03*
X64566Y-32920D03*
X64566Y-31920D03*
X64566Y-30920D03*
X64566Y-29920D03*
X64566Y-28920D03*
X64566Y-27920D03*
X64566Y-26920D03*
X63566Y-26920D03*
X62566Y-26920D03*
X61566Y-26920D03*
X60566Y-26920D03*
X59566Y-26920D03*
X58566Y-26920D03*
X57566Y-26920D03*
X56566Y-26920D03*
X55566Y-26920D03*
X54566Y-26920D03*
X53566Y-26920D03*
X57566Y-27920D03*
X57566Y-31920D03*
X45076Y-24441D03*
G54D14*
X46076Y-24441D03*
G54D15*
X71376Y-16941D03*
G54D14*
X72376Y-16941D03*
G54D15*
X78876Y-16941D03*
G54D14*
X79876Y-16941D03*
G54D15*
X86376Y-16941D03*
G54D14*
X87376Y-16941D03*
G54D15*
X93876Y-16941D03*
G54D14*
X94876Y-16941D03*
G54D15*
X104176Y-16941D03*
G54D14*
X105176Y-16941D03*
G54D15*
X33850Y-31941D03*
G54D14*
X34850Y-31941D03*
G54D15*
X41350Y-31941D03*
G54D14*
X42350Y-31941D03*
G54D15*
X68450Y-32091D03*
G54D14*
X69450Y-32091D03*
G54D15*
X96676Y-31941D03*
G54D14*
X97676Y-31941D03*
G54D15*
X106050Y-31941D03*
G54D14*
X107050Y-31941D03*
G54D15*
X37576Y-24441D03*
G54D14*
X38576Y-24441D03*
G54D15*
X56376Y-16941D03*
G54D14*
X57376Y-16941D03*
G54D15*
X52576Y-24441D03*
G54D14*
X53576Y-24441D03*
G54D15*
X60076Y-24441D03*
G54D14*
X61076Y-24441D03*
G54D15*
X67576Y-24441D03*
G54D14*
X68576Y-24441D03*
G54D15*
X75076Y-24441D03*
G54D14*
X76076Y-24441D03*
G54D15*
X82576Y-24441D03*
G54D14*
X83576Y-24441D03*
G54D15*
X90076Y-24441D03*
G54D14*
X91076Y-24441D03*
G54D15*
X98501Y-24441D03*
G54D14*
X99501Y-24441D03*
G54D15*
X106976Y-24441D03*
G54D14*
X107976Y-24441D03*
G54D15*
X27276Y-24441D03*
G54D14*
X28276Y-24441D03*
G54D15*
X63876Y-16941D03*
G54D14*
X64876Y-16941D03*
G54D15*
X24476Y-9441D03*
G54D14*
X25476Y-9441D03*
G54D15*
X31976Y-9441D03*
G54D14*
X32976Y-9441D03*
G54D15*
X39476Y-9441D03*
G54D14*
X40476Y-9441D03*
G54D15*
X46976Y-9441D03*
G54D14*
X47976Y-9441D03*
G54D15*
X54476Y-9441D03*
G54D14*
X55476Y-9441D03*
G54D15*
X61976Y-9441D03*
G54D14*
X62976Y-9441D03*
G54D15*
X69476Y-9441D03*
G54D14*
X70476Y-9441D03*
G54D15*
X76976Y-9441D03*
G54D14*
X77976Y-9441D03*
G54D15*
X84476Y-9441D03*
G54D14*
X85476Y-9441D03*
G54D15*
X91976Y-9441D03*
G54D14*
X92976Y-9441D03*
G54D15*
X99476Y-9441D03*
G54D14*
X100476Y-9441D03*
G54D15*
X106976Y-9441D03*
G54D14*
X107976Y-9441D03*
G54D15*
X25426Y-16941D03*
G54D14*
X26426Y-16941D03*
G54D15*
X25401Y-31941D03*
G54D14*
X26401Y-31941D03*
G54D15*
X33876Y-16941D03*
G54D14*
X34876Y-16941D03*
G54D15*
X41376Y-16941D03*
G54D14*
X42376Y-16941D03*
G54D15*
X48876Y-16941D03*
G54D14*
X49876Y-16941D03*
G54D16*
X66676Y-26991D03*
X69676Y-26991D03*
X94126Y-25941D03*
X94126Y-28941D03*
X91326Y-16941D03*
X91326Y-13941D03*
X72526Y-18441D03*
X72526Y-21441D03*
X68826Y-16941D03*
X68826Y-13941D03*
X74426Y-9441D03*
X74426Y-6441D03*
X81926Y-9441D03*
X81926Y-6441D03*
X76326Y-16941D03*
X76326Y-13941D03*
X80026Y-18441D03*
X80026Y-21441D03*
X53826Y-16941D03*
X53826Y-13941D03*
X87526Y-18441D03*
X87526Y-21441D03*
X83826Y-16941D03*
X83826Y-13941D03*
X89426Y-9441D03*
X89426Y-6441D03*
X22926Y-25941D03*
X22926Y-28941D03*
X96926Y-9441D03*
X96926Y-6441D03*
X101626Y-16941D03*
X101626Y-13941D03*
X95976Y-24441D03*
X95976Y-21441D03*
X103476Y-25941D03*
X103476Y-28941D03*
X104426Y-24441D03*
X104426Y-21441D03*
X104426Y-9441D03*
X104426Y-6441D03*
X24726Y-24441D03*
X24726Y-21441D03*
X59426Y-9441D03*
X59426Y-6441D03*
X35526Y-9441D03*
X35526Y-6441D03*
X36976Y-9441D03*
X36976Y-6441D03*
X22876Y-16941D03*
X22876Y-13941D03*
X31326Y-16941D03*
X31326Y-13941D03*
X35026Y-24441D03*
X35026Y-21441D03*
X38826Y-16941D03*
X38826Y-13941D03*
X42526Y-24441D03*
X42526Y-21441D03*
X31376Y-25941D03*
X31376Y-28941D03*
X38876Y-25941D03*
X38876Y-28941D03*
X57526Y-18441D03*
X57526Y-21441D03*
X61326Y-16941D03*
X61326Y-13941D03*
X65026Y-24441D03*
X65026Y-21441D03*
X44426Y-9441D03*
X44426Y-6441D03*
X46326Y-16941D03*
X46326Y-13941D03*
X50026Y-18441D03*
X50026Y-21441D03*
X51926Y-9441D03*
X51926Y-6441D03*
X66926Y-9441D03*
X66926Y-6441D03*
G54D17*
X47476Y-30441D03*
X47476Y-29441D03*
X47476Y-28441D03*
X47476Y-31441D03*
G54D18*
X32076Y-20391D03*
X32076Y-24391D03*
G54D17*
X27376Y-16891D03*
X24476Y-16941D03*
G54D16*
X21926Y-9441D03*
X21926Y-6441D03*
G54D19*
X28776Y-20441D03*
X26276Y-21441D03*
X105676Y-12941D03*
X103176Y-13941D03*
X26926Y-12941D03*
X24426Y-13941D03*
X107540Y-27941D03*
X105040Y-28941D03*
X26901Y-27941D03*
X24401Y-28941D03*
X40976Y-5441D03*
X38476Y-6441D03*
X78476Y-5441D03*
X75976Y-6441D03*
X93476Y-5441D03*
X90976Y-6441D03*
X33476Y-5441D03*
X30976Y-6441D03*
X25976Y-5441D03*
X23476Y-6441D03*
X48476Y-5441D03*
X45976Y-6441D03*
X63476Y-5441D03*
X60976Y-6441D03*
X55976Y-5441D03*
X53476Y-6441D03*
X70976Y-5441D03*
X68476Y-6441D03*
X46576Y-20441D03*
X44076Y-21441D03*
X85976Y-5441D03*
X83476Y-6441D03*
X42850Y-27941D03*
X40350Y-28941D03*
X35350Y-27941D03*
X32850Y-28941D03*
X91576Y-20441D03*
X89076Y-21441D03*
X84076Y-20441D03*
X81576Y-21441D03*
X76576Y-20441D03*
X74076Y-21441D03*
X69076Y-20441D03*
X66576Y-21441D03*
X61576Y-20441D03*
X59076Y-21441D03*
X54076Y-20441D03*
X51576Y-21441D03*
X100976Y-5441D03*
X98476Y-6441D03*
X39076Y-20441D03*
X36576Y-21441D03*
X95376Y-12941D03*
X92876Y-13941D03*
X87876Y-12941D03*
X85376Y-13941D03*
X80376Y-12941D03*
X77876Y-13941D03*
X72876Y-12941D03*
X70376Y-13941D03*
X65376Y-12941D03*
X62876Y-13941D03*
X57876Y-12941D03*
X55376Y-13941D03*
X50376Y-12941D03*
X47876Y-13941D03*
X42876Y-12941D03*
X40376Y-13941D03*
X35376Y-12941D03*
X32876Y-13941D03*
X108476Y-5441D03*
X105976Y-6441D03*
X98176Y-27941D03*
X95676Y-28941D03*
X108476Y-20441D03*
X105976Y-21441D03*
X100001Y-20441D03*
X97501Y-21441D03*
X69946Y-28091D03*
X67446Y-29091D03*
G54D20*
X60546Y-28941D03*
X35426Y-26441D03*
X41376Y-26441D03*
X43676Y-26441D03*
X44676Y-27441D03*
X70826Y-11141D03*
X85176Y-11141D03*
X78126Y-11141D03*
X110576Y-11141D03*
X66026Y-11141D03*
X24351Y-19091D03*
X22026Y-19091D03*
X22051Y-32991D03*
X49551Y-32991D03*
X49551Y-29991D03*
X49551Y-28441D03*
X29356Y-7891D03*
X67476Y-32941D03*
X110576Y-32941D03*
X110576Y-4341D03*
X31226Y-4341D03*
X30276Y-7891D03*
G54D21*
X21926Y-15991D02*
X22876Y-16941D01*
X21926Y-9441D02*
X21926Y-15991D01*
X24576Y-24291D02*
X22926Y-25941D01*
X22876Y-22591D02*
X24576Y-24291D01*
X22876Y-16941D02*
X22876Y-22591D01*
X24576Y-24291D02*
X24726Y-24441D01*
X53985Y-32340D02*
X54566Y-32920D01*
X44079Y-32340D02*
X53985Y-32340D01*
X42865Y-31126D02*
X44079Y-32340D01*
X31411Y-31126D02*
X42865Y-31126D01*
X24726Y-24441D02*
X31411Y-31126D01*
X89426Y-15041D02*
X91326Y-16941D01*
X89426Y-9441D02*
X89426Y-15041D01*
X58186Y-26300D02*
X57566Y-26920D01*
X60242Y-26300D02*
X58186Y-26300D01*
X61591Y-24951D02*
X60242Y-26300D01*
X61591Y-22147D02*
X61591Y-24951D01*
X60984Y-21541D02*
X61591Y-22147D01*
X60984Y-20197D02*
X60984Y-21541D01*
X61353Y-19829D02*
X60984Y-20197D01*
X89520Y-19829D02*
X61353Y-19829D01*
X89520Y-18746D02*
X89520Y-19829D01*
X91326Y-16941D02*
X89520Y-18746D01*
X95976Y-24441D02*
X94126Y-24441D01*
X94126Y-24435D02*
X94126Y-24441D01*
X89520Y-19829D02*
X94126Y-24435D01*
X94126Y-24441D02*
X94126Y-25941D01*
X103476Y-25391D02*
X103476Y-25941D01*
X104426Y-24441D02*
X103476Y-25391D01*
X62142Y-33496D02*
X61566Y-32920D01*
X88968Y-33496D02*
X62142Y-33496D01*
X96524Y-25941D02*
X88968Y-33496D01*
X103476Y-25941D02*
X96524Y-25941D01*
X96926Y-12241D02*
X96926Y-9441D01*
X101626Y-16941D02*
X96926Y-12241D01*
X56131Y-28486D02*
X60566Y-32920D01*
X54352Y-28486D02*
X56131Y-28486D01*
X53049Y-27182D02*
X54352Y-28486D01*
X53049Y-26357D02*
X53049Y-27182D01*
X54978Y-24427D02*
X53049Y-26357D01*
X54978Y-23127D02*
X54978Y-24427D01*
X60474Y-17632D02*
X54978Y-23127D01*
X61232Y-17632D02*
X60474Y-17632D01*
X62643Y-16220D02*
X61232Y-17632D01*
X62643Y-15220D02*
X62643Y-16220D01*
X64193Y-13671D02*
X62643Y-15220D01*
X64193Y-11569D02*
X64193Y-13671D01*
X66888Y-8874D02*
X64193Y-11569D01*
X103859Y-8874D02*
X66888Y-8874D01*
X104426Y-9441D02*
X103859Y-8874D01*
X33526Y-25941D02*
X35026Y-24441D01*
X31376Y-25941D02*
X33526Y-25941D01*
X33360Y-18975D02*
X31326Y-16941D01*
X33360Y-22775D02*
X33360Y-18975D01*
X35026Y-24441D02*
X33360Y-22775D01*
X37602Y-27017D02*
X35026Y-24441D01*
X40703Y-27017D02*
X37602Y-27017D01*
X45836Y-32150D02*
X40703Y-27017D01*
X54795Y-32150D02*
X45836Y-32150D01*
X55566Y-32920D02*
X54795Y-32150D01*
X36976Y-15091D02*
X38826Y-16941D01*
X36976Y-9441D02*
X36976Y-15091D01*
X54586Y-30941D02*
X56566Y-32920D01*
X47359Y-30941D02*
X54586Y-30941D01*
X42526Y-26107D02*
X47359Y-30941D01*
X42526Y-24441D02*
X42526Y-26107D01*
X46747Y-11762D02*
X46747Y-16941D01*
X44426Y-9441D02*
X46747Y-11762D01*
X46747Y-16941D02*
X46326Y-16941D01*
X48247Y-18441D02*
X46747Y-16941D01*
X50026Y-18441D02*
X48247Y-18441D01*
X50685Y-26040D02*
X57566Y-32920D01*
X50685Y-19100D02*
X50685Y-26040D01*
X50026Y-18441D02*
X50685Y-19100D01*
X58566Y-32142D02*
X58566Y-32920D01*
X56646Y-30222D02*
X58566Y-32142D01*
X55820Y-30222D02*
X56646Y-30222D01*
X52859Y-27261D02*
X55820Y-30222D01*
X52859Y-26162D02*
X52859Y-27261D01*
X54178Y-24843D02*
X52859Y-26162D01*
X54178Y-21641D02*
X54178Y-24843D01*
X55326Y-20493D02*
X54178Y-21641D01*
X55326Y-18441D02*
X55326Y-20493D01*
X53826Y-16941D02*
X55326Y-18441D01*
X55326Y-18441D02*
X57526Y-18441D01*
X66676Y-26091D02*
X66676Y-26991D01*
X65026Y-24441D02*
X66676Y-26091D01*
X59426Y-15041D02*
X59426Y-9441D01*
X61326Y-16941D02*
X59426Y-15041D01*
X66926Y-9441D02*
X66926Y-15041D01*
X66926Y-15041D02*
X68826Y-16941D01*
X65679Y-16287D02*
X66926Y-15041D01*
X63053Y-16287D02*
X65679Y-16287D01*
X58975Y-20364D02*
X63053Y-16287D01*
X58010Y-20364D02*
X58975Y-20364D01*
X55566Y-22809D02*
X58010Y-20364D01*
X55566Y-25921D02*
X55566Y-22809D01*
X54566Y-26920D02*
X55566Y-25921D01*
X77826Y-18441D02*
X76326Y-16941D01*
X80026Y-18441D02*
X77826Y-18441D01*
X76326Y-16941D02*
X74426Y-15041D01*
X74426Y-15041D02*
X74426Y-9441D01*
X73511Y-15955D02*
X74426Y-15041D01*
X71024Y-15955D02*
X73511Y-15955D01*
X68426Y-18553D02*
X71024Y-15955D01*
X61094Y-18553D02*
X68426Y-18553D01*
X55756Y-23891D02*
X61094Y-18553D01*
X55756Y-26165D02*
X55756Y-23891D01*
X55566Y-26355D02*
X55756Y-26165D01*
X55566Y-26920D02*
X55566Y-26355D01*
X85326Y-18441D02*
X83826Y-16941D01*
X87526Y-18441D02*
X85326Y-18441D01*
X81926Y-15041D02*
X82971Y-16086D01*
X81926Y-9441D02*
X81926Y-15041D01*
X82971Y-16086D02*
X83826Y-16941D01*
X56566Y-24807D02*
X56566Y-26920D01*
X60203Y-21170D02*
X56566Y-24807D01*
X60203Y-20710D02*
X60203Y-21170D01*
X61873Y-19039D02*
X60203Y-20710D01*
X80017Y-19039D02*
X61873Y-19039D01*
X82971Y-16086D02*
X80017Y-19039D01*
X50376Y-12941D02*
X57876Y-12941D01*
X108476Y-20441D02*
X100001Y-20441D01*
X61803Y-26118D02*
X61566Y-26355D01*
X61803Y-20441D02*
X61803Y-26118D01*
X69076Y-20441D02*
X61803Y-20441D01*
X61803Y-20441D02*
X61576Y-20441D01*
X61566Y-26920D02*
X61566Y-26355D01*
X46576Y-20441D02*
X39076Y-20441D01*
X84076Y-20441D02*
X76576Y-20441D01*
X62566Y-26920D02*
X60546Y-28941D01*
X29198Y-5288D02*
X28411Y-5288D01*
X29766Y-5856D02*
X29198Y-5288D01*
X29766Y-8543D02*
X29766Y-5856D01*
X38485Y-17262D02*
X29766Y-8543D01*
X38485Y-20711D02*
X38485Y-17262D01*
X38846Y-21071D02*
X38485Y-20711D01*
X40723Y-21071D02*
X38846Y-21071D01*
X47926Y-28275D02*
X40723Y-21071D01*
X47926Y-29990D02*
X47926Y-28275D01*
X47476Y-30441D02*
X47926Y-29990D01*
X28411Y-5833D02*
X28411Y-5288D01*
X28726Y-10634D02*
X28726Y-6306D01*
X34047Y-15955D02*
X28726Y-10634D01*
X34915Y-15955D02*
X34047Y-15955D01*
X35966Y-17006D02*
X34915Y-15955D01*
X35966Y-18747D02*
X35966Y-17006D01*
X39529Y-22311D02*
X35966Y-18747D01*
X40991Y-22311D02*
X39529Y-22311D01*
X43388Y-24708D02*
X40991Y-22311D01*
X43388Y-25353D02*
X43388Y-24708D01*
X47476Y-29441D02*
X43388Y-25353D01*
X41376Y-26441D02*
X41276Y-26541D01*
X44676Y-27441D02*
X43676Y-26441D01*
X22001Y-19116D02*
X21976Y-19116D01*
X22026Y-19091D02*
X22001Y-19116D01*
X49551Y-32991D02*
X22051Y-32991D01*
X49551Y-28441D02*
X49551Y-29991D01*
X110576Y-4341D02*
X110576Y-11141D01*
X110576Y-11141D02*
X110576Y-32941D01*
X31226Y-4891D02*
X31226Y-4341D01*
X30276Y-5841D02*
X31226Y-4891D01*
X30276Y-7891D02*
X30276Y-5841D01*
X40486Y-21451D02*
X47476Y-28441D01*
X38957Y-21451D02*
X40486Y-21451D01*
X38203Y-20697D02*
X38957Y-21451D01*
X38203Y-17435D02*
X38203Y-20697D01*
X29356Y-8588D02*
X38203Y-17435D01*
X29356Y-6306D02*
X29356Y-7891D01*
X29356Y-7891D02*
X29356Y-8588D01*
X69546Y-26991D02*
X69676Y-26991D01*
X67446Y-29091D02*
X69546Y-26991D01*
X31058Y-19373D02*
X32076Y-20391D01*
X26908Y-19373D02*
X31058Y-19373D01*
X24476Y-16941D02*
X26908Y-19373D01*
X31435Y-16171D02*
X28096Y-16171D01*
X33772Y-18507D02*
X31435Y-16171D01*
X35457Y-18507D02*
X33772Y-18507D01*
X41344Y-24394D02*
X35457Y-18507D01*
X41344Y-25309D02*
X41344Y-24394D01*
X47476Y-31441D02*
X41344Y-25309D01*
X27376Y-16891D02*
X28096Y-16171D01*
X28096Y-16171D02*
X28096Y-6306D01*
G54D10*
G36*
X34792Y-13993D02*
X34582Y-13906D01*
X34171Y-13905D01*
X33790Y-14063D01*
X33499Y-14353D01*
X33341Y-14734D01*
X33341Y-14825D01*
X33115Y-14599D01*
X33272Y-14534D01*
X33469Y-14338D01*
X33575Y-14080D01*
X33576Y-13802D01*
X33469Y-13545D01*
X33273Y-13347D01*
X33015Y-13241D01*
X32737Y-13240D01*
X32480Y-13347D01*
X32282Y-13543D01*
X32217Y-13701D01*
X29026Y-10510D01*
X29026Y-6854D01*
X29046Y-6840D01*
X29061Y-6858D01*
X29223Y-6943D01*
X29234Y-6943D01*
X29306Y-6894D01*
X29306Y-6435D01*
X29298Y-6435D01*
X29298Y-6335D01*
X29306Y-6335D01*
X29306Y-6327D01*
X29406Y-6327D01*
X29406Y-6335D01*
X29413Y-6335D01*
X29413Y-6435D01*
X29406Y-6435D01*
X29406Y-6894D01*
X29466Y-6936D01*
X29466Y-8543D01*
X29489Y-8658D01*
X29554Y-8755D01*
X34792Y-13993D01*
X34792Y-13993D01*
G37*
G54D21*
X34792Y-13993D02*
X34582Y-13906D01*
X34171Y-13905D01*
X33790Y-14063D01*
X33499Y-14353D01*
X33341Y-14734D01*
X33341Y-14825D01*
X33115Y-14599D01*
X33272Y-14534D01*
X33469Y-14338D01*
X33575Y-14080D01*
X33576Y-13802D01*
X33469Y-13545D01*
X33273Y-13347D01*
X33015Y-13241D01*
X32737Y-13240D01*
X32480Y-13347D01*
X32282Y-13543D01*
X32217Y-13701D01*
X29026Y-10510D01*
X29026Y-6854D01*
X29046Y-6840D01*
X29061Y-6858D01*
X29223Y-6943D01*
X29234Y-6943D01*
X29306Y-6894D01*
X29306Y-6435D01*
X29298Y-6435D01*
X29298Y-6335D01*
X29306Y-6335D01*
X29306Y-6327D01*
X29406Y-6327D01*
X29406Y-6335D01*
X29413Y-6335D01*
X29413Y-6435D01*
X29406Y-6435D01*
X29406Y-6894D01*
X29466Y-6936D01*
X29466Y-8543D01*
X29489Y-8658D01*
X29554Y-8755D01*
X34792Y-13993D01*
G54D10*
G36*
X42851Y-27241D02*
X42712Y-27240D01*
X42454Y-27347D01*
X42257Y-27543D01*
X42150Y-27801D01*
X42150Y-28039D01*
X40915Y-26805D01*
X40818Y-26740D01*
X40703Y-26717D01*
X39403Y-26717D01*
X39403Y-25836D01*
X39323Y-25642D01*
X39201Y-25520D01*
X39201Y-24816D01*
X39201Y-23966D01*
X39163Y-23874D01*
X39092Y-23804D01*
X39000Y-23766D01*
X38901Y-23765D01*
X38151Y-23765D01*
X38059Y-23803D01*
X37989Y-23874D01*
X37975Y-23907D01*
X37815Y-23800D01*
X37576Y-23752D01*
X37336Y-23800D01*
X37134Y-23935D01*
X36998Y-24138D01*
X36951Y-24377D01*
X36951Y-24504D01*
X36998Y-24743D01*
X37134Y-24946D01*
X37336Y-25081D01*
X37576Y-25129D01*
X37815Y-25081D01*
X37975Y-24974D01*
X37988Y-25007D01*
X38059Y-25077D01*
X38151Y-25115D01*
X38250Y-25116D01*
X39000Y-25116D01*
X39092Y-25078D01*
X39162Y-25007D01*
X39200Y-24915D01*
X39201Y-24816D01*
X39201Y-25520D01*
X39174Y-25494D01*
X38981Y-25414D01*
X38771Y-25413D01*
X38577Y-25493D01*
X38429Y-25642D01*
X38349Y-25835D01*
X38348Y-26045D01*
X38428Y-26239D01*
X38577Y-26387D01*
X38770Y-26467D01*
X38980Y-26468D01*
X39174Y-26388D01*
X39322Y-26239D01*
X39402Y-26046D01*
X39403Y-25836D01*
X39403Y-26717D01*
X37726Y-26717D01*
X35552Y-24543D01*
X35553Y-24336D01*
X35553Y-21336D01*
X35473Y-21142D01*
X35324Y-20994D01*
X35131Y-20914D01*
X34921Y-20913D01*
X34727Y-20993D01*
X34579Y-21142D01*
X34499Y-21335D01*
X34498Y-21545D01*
X34578Y-21739D01*
X34727Y-21887D01*
X34920Y-21967D01*
X35130Y-21968D01*
X35324Y-21888D01*
X35472Y-21739D01*
X35552Y-21546D01*
X35553Y-21336D01*
X35553Y-24336D01*
X35473Y-24142D01*
X35324Y-23994D01*
X35131Y-23914D01*
X34923Y-23913D01*
X33660Y-22651D01*
X33660Y-18975D01*
X33660Y-18975D01*
X33638Y-18861D01*
X33572Y-18763D01*
X33572Y-18763D01*
X31852Y-17043D01*
X31852Y-17012D01*
X33560Y-18719D01*
X33560Y-18719D01*
X33657Y-18784D01*
X33772Y-18807D01*
X35332Y-18807D01*
X37931Y-21405D01*
X37871Y-21405D01*
X37490Y-21563D01*
X37276Y-21777D01*
X37276Y-21302D01*
X37169Y-21045D01*
X36973Y-20847D01*
X36715Y-20741D01*
X36437Y-20740D01*
X36180Y-20847D01*
X35982Y-21043D01*
X35876Y-21301D01*
X35875Y-21579D01*
X35982Y-21837D01*
X36178Y-22034D01*
X36436Y-22140D01*
X36714Y-22141D01*
X36972Y-22034D01*
X37169Y-21838D01*
X37275Y-21580D01*
X37276Y-21302D01*
X37276Y-21777D01*
X37199Y-21853D01*
X37041Y-22234D01*
X37040Y-22645D01*
X37198Y-23026D01*
X37488Y-23317D01*
X37869Y-23475D01*
X38280Y-23476D01*
X38661Y-23318D01*
X38952Y-23028D01*
X39110Y-22647D01*
X39110Y-22585D01*
X41044Y-24519D01*
X41044Y-25309D01*
X41067Y-25424D01*
X41132Y-25521D01*
X42851Y-27241D01*
X42851Y-27241D01*
G37*
G54D21*
X42851Y-27241D02*
X42712Y-27240D01*
X42454Y-27347D01*
X42257Y-27543D01*
X42150Y-27801D01*
X42150Y-28039D01*
X40915Y-26805D01*
X40818Y-26740D01*
X40703Y-26717D01*
X39403Y-26717D01*
X39403Y-25836D01*
X39323Y-25642D01*
X39201Y-25520D01*
X39201Y-24816D01*
X39201Y-23966D01*
X39163Y-23874D01*
X39092Y-23804D01*
X39000Y-23766D01*
X38901Y-23765D01*
X38151Y-23765D01*
X38059Y-23803D01*
X37989Y-23874D01*
X37975Y-23907D01*
X37815Y-23800D01*
X37576Y-23752D01*
X37336Y-23800D01*
X37134Y-23935D01*
X36998Y-24138D01*
X36951Y-24377D01*
X36951Y-24504D01*
X36998Y-24743D01*
X37134Y-24946D01*
X37336Y-25081D01*
X37576Y-25129D01*
X37815Y-25081D01*
X37975Y-24974D01*
X37988Y-25007D01*
X38059Y-25077D01*
X38151Y-25115D01*
X38250Y-25116D01*
X39000Y-25116D01*
X39092Y-25078D01*
X39162Y-25007D01*
X39200Y-24915D01*
X39201Y-24816D01*
X39201Y-25520D01*
X39174Y-25494D01*
X38981Y-25414D01*
X38771Y-25413D01*
X38577Y-25493D01*
X38429Y-25642D01*
X38349Y-25835D01*
X38348Y-26045D01*
X38428Y-26239D01*
X38577Y-26387D01*
X38770Y-26467D01*
X38980Y-26468D01*
X39174Y-26388D01*
X39322Y-26239D01*
X39402Y-26046D01*
X39403Y-25836D01*
X39403Y-26717D01*
X37726Y-26717D01*
X35552Y-24543D01*
X35553Y-24336D01*
X35553Y-21336D01*
X35473Y-21142D01*
X35324Y-20994D01*
X35131Y-20914D01*
X34921Y-20913D01*
X34727Y-20993D01*
X34579Y-21142D01*
X34499Y-21335D01*
X34498Y-21545D01*
X34578Y-21739D01*
X34727Y-21887D01*
X34920Y-21967D01*
X35130Y-21968D01*
X35324Y-21888D01*
X35472Y-21739D01*
X35552Y-21546D01*
X35553Y-21336D01*
X35553Y-24336D01*
X35473Y-24142D01*
X35324Y-23994D01*
X35131Y-23914D01*
X34923Y-23913D01*
X33660Y-22651D01*
X33660Y-18975D01*
X33660Y-18975D01*
X33638Y-18861D01*
X33572Y-18763D01*
X33572Y-18763D01*
X31852Y-17043D01*
X31852Y-17012D01*
X33560Y-18719D01*
X33560Y-18719D01*
X33657Y-18784D01*
X33772Y-18807D01*
X35332Y-18807D01*
X37931Y-21405D01*
X37871Y-21405D01*
X37490Y-21563D01*
X37276Y-21777D01*
X37276Y-21302D01*
X37169Y-21045D01*
X36973Y-20847D01*
X36715Y-20741D01*
X36437Y-20740D01*
X36180Y-20847D01*
X35982Y-21043D01*
X35876Y-21301D01*
X35875Y-21579D01*
X35982Y-21837D01*
X36178Y-22034D01*
X36436Y-22140D01*
X36714Y-22141D01*
X36972Y-22034D01*
X37169Y-21838D01*
X37275Y-21580D01*
X37276Y-21302D01*
X37276Y-21777D01*
X37199Y-21853D01*
X37041Y-22234D01*
X37040Y-22645D01*
X37198Y-23026D01*
X37488Y-23317D01*
X37869Y-23475D01*
X38280Y-23476D01*
X38661Y-23318D01*
X38952Y-23028D01*
X39110Y-22647D01*
X39110Y-22585D01*
X41044Y-24519D01*
X41044Y-25309D01*
X41067Y-25424D01*
X41132Y-25521D01*
X42851Y-27241D01*
G54D10*
G36*
X47258Y-29940D02*
X47167Y-29978D01*
X47014Y-30131D01*
X47002Y-30159D01*
X42826Y-25983D01*
X42826Y-24886D01*
X42972Y-24739D01*
X42979Y-24723D01*
X43088Y-24832D01*
X43088Y-25353D01*
X43111Y-25468D01*
X43176Y-25565D01*
X46934Y-29323D01*
X46930Y-29332D01*
X46930Y-29548D01*
X47013Y-29749D01*
X47166Y-29902D01*
X47258Y-29940D01*
X47258Y-29940D01*
G37*
G54D21*
X47258Y-29940D02*
X47167Y-29978D01*
X47014Y-30131D01*
X47002Y-30159D01*
X42826Y-25983D01*
X42826Y-24886D01*
X42972Y-24739D01*
X42979Y-24723D01*
X43088Y-24832D01*
X43088Y-25353D01*
X43111Y-25468D01*
X43176Y-25565D01*
X46934Y-29323D01*
X46930Y-29332D01*
X46930Y-29548D01*
X47013Y-29749D01*
X47166Y-29902D01*
X47258Y-29940D01*
G54D10*
G36*
X47552Y-28446D02*
X47481Y-28517D01*
X47476Y-28511D01*
X47470Y-28517D01*
X47399Y-28446D01*
X47405Y-28441D01*
X47093Y-28129D01*
X46998Y-28155D01*
X46925Y-28360D01*
X46931Y-28472D01*
X43688Y-25229D01*
X43688Y-24708D01*
X43665Y-24593D01*
X43600Y-24496D01*
X43600Y-24496D01*
X41203Y-22099D01*
X41106Y-22034D01*
X40991Y-22011D01*
X39654Y-22011D01*
X39014Y-21371D01*
X40598Y-21371D01*
X47191Y-27963D01*
X47190Y-27963D01*
X47164Y-28058D01*
X47476Y-28370D01*
X47481Y-28364D01*
X47552Y-28435D01*
X47546Y-28441D01*
X47552Y-28446D01*
X47552Y-28446D01*
G37*
G54D21*
X47552Y-28446D02*
X47481Y-28517D01*
X47476Y-28511D01*
X47470Y-28517D01*
X47399Y-28446D01*
X47405Y-28441D01*
X47093Y-28129D01*
X46998Y-28155D01*
X46925Y-28360D01*
X46931Y-28472D01*
X43688Y-25229D01*
X43688Y-24708D01*
X43665Y-24593D01*
X43600Y-24496D01*
X43600Y-24496D01*
X41203Y-22099D01*
X41106Y-22034D01*
X40991Y-22011D01*
X39654Y-22011D01*
X39014Y-21371D01*
X40598Y-21371D01*
X47191Y-27963D01*
X47190Y-27963D01*
X47164Y-28058D01*
X47476Y-28370D01*
X47481Y-28364D01*
X47552Y-28435D01*
X47546Y-28441D01*
X47552Y-28446D01*
G54D10*
G36*
X52941Y-33346D02*
X27026Y-33346D01*
X27026Y-32316D01*
X27026Y-31466D01*
X26988Y-31374D01*
X26936Y-31322D01*
X26936Y-29736D01*
X26779Y-29355D01*
X26488Y-29064D01*
X26107Y-28906D01*
X25696Y-28905D01*
X25315Y-29063D01*
X25101Y-29277D01*
X25101Y-28802D01*
X24994Y-28545D01*
X24798Y-28347D01*
X24541Y-28241D01*
X24262Y-28240D01*
X24005Y-28347D01*
X23808Y-28543D01*
X23701Y-28801D01*
X23701Y-29079D01*
X23807Y-29337D01*
X24004Y-29534D01*
X24261Y-29640D01*
X24539Y-29641D01*
X24797Y-29534D01*
X24994Y-29338D01*
X25101Y-29080D01*
X25101Y-28802D01*
X25101Y-29277D01*
X25024Y-29353D01*
X24866Y-29734D01*
X24866Y-30145D01*
X25023Y-30526D01*
X25314Y-30817D01*
X25694Y-30975D01*
X26106Y-30976D01*
X26486Y-30818D01*
X26778Y-30528D01*
X26936Y-30147D01*
X26936Y-29736D01*
X26936Y-31322D01*
X26917Y-31304D01*
X26826Y-31266D01*
X26726Y-31265D01*
X25976Y-31265D01*
X25884Y-31303D01*
X25814Y-31374D01*
X25800Y-31407D01*
X25640Y-31300D01*
X25401Y-31252D01*
X25162Y-31300D01*
X24959Y-31435D01*
X24823Y-31638D01*
X24776Y-31877D01*
X24776Y-32004D01*
X24823Y-32243D01*
X24959Y-32446D01*
X25162Y-32581D01*
X25401Y-32629D01*
X25640Y-32581D01*
X25800Y-32474D01*
X25814Y-32507D01*
X25884Y-32577D01*
X25976Y-32615D01*
X26075Y-32616D01*
X26825Y-32616D01*
X26917Y-32578D01*
X26988Y-32507D01*
X27026Y-32415D01*
X27026Y-32316D01*
X27026Y-33346D01*
X23453Y-33346D01*
X23453Y-28836D01*
X23373Y-28642D01*
X23224Y-28494D01*
X23031Y-28414D01*
X22821Y-28413D01*
X22627Y-28493D01*
X22479Y-28642D01*
X22399Y-28835D01*
X22398Y-29045D01*
X22478Y-29239D01*
X22627Y-29387D01*
X22820Y-29467D01*
X23030Y-29468D01*
X23224Y-29388D01*
X23372Y-29239D01*
X23452Y-29046D01*
X23453Y-28836D01*
X23453Y-33346D01*
X21571Y-33346D01*
X21571Y-9831D01*
X21626Y-9886D01*
X21626Y-15991D01*
X21648Y-16105D01*
X21713Y-16203D01*
X22349Y-16838D01*
X22348Y-17045D01*
X22428Y-17239D01*
X22576Y-17386D01*
X22576Y-22591D01*
X22598Y-22705D01*
X22663Y-22803D01*
X24151Y-24291D01*
X23028Y-25414D01*
X22821Y-25413D01*
X22627Y-25493D01*
X22479Y-25642D01*
X22399Y-25835D01*
X22398Y-26045D01*
X22478Y-26239D01*
X22627Y-26387D01*
X22820Y-26467D01*
X23030Y-26468D01*
X23224Y-26388D01*
X23372Y-26239D01*
X23452Y-26046D01*
X23453Y-25838D01*
X24415Y-24875D01*
X24427Y-24887D01*
X24620Y-24967D01*
X24828Y-24968D01*
X27145Y-27284D01*
X27041Y-27241D01*
X26762Y-27240D01*
X26505Y-27347D01*
X26308Y-27543D01*
X26201Y-27801D01*
X26201Y-28079D01*
X26307Y-28337D01*
X26504Y-28534D01*
X26761Y-28640D01*
X27039Y-28641D01*
X27297Y-28534D01*
X27494Y-28338D01*
X27601Y-28080D01*
X27601Y-27802D01*
X27557Y-27697D01*
X31199Y-31338D01*
X31297Y-31404D01*
X31411Y-31426D01*
X33422Y-31426D01*
X33408Y-31435D01*
X33273Y-31638D01*
X33225Y-31877D01*
X33225Y-32004D01*
X33273Y-32243D01*
X33408Y-32446D01*
X33611Y-32581D01*
X33850Y-32629D01*
X34089Y-32581D01*
X34250Y-32474D01*
X34263Y-32507D01*
X34334Y-32577D01*
X34425Y-32615D01*
X34525Y-32616D01*
X35275Y-32616D01*
X35367Y-32578D01*
X35437Y-32507D01*
X35475Y-32415D01*
X35475Y-32316D01*
X35475Y-31466D01*
X35459Y-31426D01*
X40922Y-31426D01*
X40908Y-31435D01*
X40773Y-31638D01*
X40725Y-31877D01*
X40725Y-32004D01*
X40773Y-32243D01*
X40908Y-32446D01*
X41111Y-32581D01*
X41350Y-32629D01*
X41589Y-32581D01*
X41750Y-32474D01*
X41763Y-32507D01*
X41834Y-32577D01*
X41925Y-32615D01*
X42025Y-32616D01*
X42775Y-32616D01*
X42867Y-32578D01*
X42937Y-32507D01*
X42975Y-32415D01*
X42975Y-32316D01*
X42975Y-31661D01*
X43867Y-32552D01*
X43867Y-32552D01*
X43964Y-32617D01*
X44079Y-32640D01*
X52941Y-32640D01*
X52941Y-33346D01*
X52941Y-33346D01*
G37*
G54D21*
X52941Y-33346D02*
X27026Y-33346D01*
X27026Y-32316D01*
X27026Y-31466D01*
X26988Y-31374D01*
X26936Y-31322D01*
X26936Y-29736D01*
X26779Y-29355D01*
X26488Y-29064D01*
X26107Y-28906D01*
X25696Y-28905D01*
X25315Y-29063D01*
X25101Y-29277D01*
X25101Y-28802D01*
X24994Y-28545D01*
X24798Y-28347D01*
X24541Y-28241D01*
X24262Y-28240D01*
X24005Y-28347D01*
X23808Y-28543D01*
X23701Y-28801D01*
X23701Y-29079D01*
X23807Y-29337D01*
X24004Y-29534D01*
X24261Y-29640D01*
X24539Y-29641D01*
X24797Y-29534D01*
X24994Y-29338D01*
X25101Y-29080D01*
X25101Y-28802D01*
X25101Y-29277D01*
X25024Y-29353D01*
X24866Y-29734D01*
X24866Y-30145D01*
X25023Y-30526D01*
X25314Y-30817D01*
X25694Y-30975D01*
X26106Y-30976D01*
X26486Y-30818D01*
X26778Y-30528D01*
X26936Y-30147D01*
X26936Y-29736D01*
X26936Y-31322D01*
X26917Y-31304D01*
X26826Y-31266D01*
X26726Y-31265D01*
X25976Y-31265D01*
X25884Y-31303D01*
X25814Y-31374D01*
X25800Y-31407D01*
X25640Y-31300D01*
X25401Y-31252D01*
X25162Y-31300D01*
X24959Y-31435D01*
X24823Y-31638D01*
X24776Y-31877D01*
X24776Y-32004D01*
X24823Y-32243D01*
X24959Y-32446D01*
X25162Y-32581D01*
X25401Y-32629D01*
X25640Y-32581D01*
X25800Y-32474D01*
X25814Y-32507D01*
X25884Y-32577D01*
X25976Y-32615D01*
X26075Y-32616D01*
X26825Y-32616D01*
X26917Y-32578D01*
X26988Y-32507D01*
X27026Y-32415D01*
X27026Y-32316D01*
X27026Y-33346D01*
X23453Y-33346D01*
X23453Y-28836D01*
X23373Y-28642D01*
X23224Y-28494D01*
X23031Y-28414D01*
X22821Y-28413D01*
X22627Y-28493D01*
X22479Y-28642D01*
X22399Y-28835D01*
X22398Y-29045D01*
X22478Y-29239D01*
X22627Y-29387D01*
X22820Y-29467D01*
X23030Y-29468D01*
X23224Y-29388D01*
X23372Y-29239D01*
X23452Y-29046D01*
X23453Y-28836D01*
X23453Y-33346D01*
X21571Y-33346D01*
X21571Y-9831D01*
X21626Y-9886D01*
X21626Y-15991D01*
X21648Y-16105D01*
X21713Y-16203D01*
X22349Y-16838D01*
X22348Y-17045D01*
X22428Y-17239D01*
X22576Y-17386D01*
X22576Y-22591D01*
X22598Y-22705D01*
X22663Y-22803D01*
X24151Y-24291D01*
X23028Y-25414D01*
X22821Y-25413D01*
X22627Y-25493D01*
X22479Y-25642D01*
X22399Y-25835D01*
X22398Y-26045D01*
X22478Y-26239D01*
X22627Y-26387D01*
X22820Y-26467D01*
X23030Y-26468D01*
X23224Y-26388D01*
X23372Y-26239D01*
X23452Y-26046D01*
X23453Y-25838D01*
X24415Y-24875D01*
X24427Y-24887D01*
X24620Y-24967D01*
X24828Y-24968D01*
X27145Y-27284D01*
X27041Y-27241D01*
X26762Y-27240D01*
X26505Y-27347D01*
X26308Y-27543D01*
X26201Y-27801D01*
X26201Y-28079D01*
X26307Y-28337D01*
X26504Y-28534D01*
X26761Y-28640D01*
X27039Y-28641D01*
X27297Y-28534D01*
X27494Y-28338D01*
X27601Y-28080D01*
X27601Y-27802D01*
X27557Y-27697D01*
X31199Y-31338D01*
X31297Y-31404D01*
X31411Y-31426D01*
X33422Y-31426D01*
X33408Y-31435D01*
X33273Y-31638D01*
X33225Y-31877D01*
X33225Y-32004D01*
X33273Y-32243D01*
X33408Y-32446D01*
X33611Y-32581D01*
X33850Y-32629D01*
X34089Y-32581D01*
X34250Y-32474D01*
X34263Y-32507D01*
X34334Y-32577D01*
X34425Y-32615D01*
X34525Y-32616D01*
X35275Y-32616D01*
X35367Y-32578D01*
X35437Y-32507D01*
X35475Y-32415D01*
X35475Y-32316D01*
X35475Y-31466D01*
X35459Y-31426D01*
X40922Y-31426D01*
X40908Y-31435D01*
X40773Y-31638D01*
X40725Y-31877D01*
X40725Y-32004D01*
X40773Y-32243D01*
X40908Y-32446D01*
X41111Y-32581D01*
X41350Y-32629D01*
X41589Y-32581D01*
X41750Y-32474D01*
X41763Y-32507D01*
X41834Y-32577D01*
X41925Y-32615D01*
X42025Y-32616D01*
X42775Y-32616D01*
X42867Y-32578D01*
X42937Y-32507D01*
X42975Y-32415D01*
X42975Y-32316D01*
X42975Y-31661D01*
X43867Y-32552D01*
X43867Y-32552D01*
X43964Y-32617D01*
X44079Y-32640D01*
X52941Y-32640D01*
X52941Y-33346D01*
G54D10*
G36*
X66626Y-14916D02*
X66076Y-15466D01*
X66076Y-12802D01*
X65969Y-12545D01*
X65773Y-12347D01*
X65515Y-12241D01*
X65237Y-12240D01*
X64980Y-12347D01*
X64782Y-12543D01*
X64676Y-12801D01*
X64675Y-13079D01*
X64782Y-13337D01*
X64978Y-13534D01*
X65236Y-13640D01*
X65514Y-13641D01*
X65772Y-13534D01*
X65969Y-13338D01*
X66075Y-13080D01*
X66076Y-12802D01*
X66076Y-15466D01*
X65555Y-15987D01*
X63053Y-15987D01*
X62943Y-16008D01*
X62943Y-15345D01*
X63340Y-14948D01*
X63340Y-15145D01*
X63498Y-15526D01*
X63788Y-15817D01*
X64169Y-15975D01*
X64580Y-15976D01*
X64961Y-15818D01*
X65252Y-15528D01*
X65410Y-15147D01*
X65411Y-14736D01*
X65253Y-14355D01*
X64963Y-14064D01*
X64582Y-13906D01*
X64383Y-13906D01*
X64405Y-13883D01*
X64405Y-13883D01*
X64470Y-13786D01*
X64493Y-13671D01*
X64493Y-13671D01*
X64493Y-11693D01*
X66469Y-9717D01*
X66478Y-9739D01*
X66626Y-9886D01*
X66626Y-14916D01*
X66626Y-14916D01*
G37*
G54D21*
X66626Y-14916D02*
X66076Y-15466D01*
X66076Y-12802D01*
X65969Y-12545D01*
X65773Y-12347D01*
X65515Y-12241D01*
X65237Y-12240D01*
X64980Y-12347D01*
X64782Y-12543D01*
X64676Y-12801D01*
X64675Y-13079D01*
X64782Y-13337D01*
X64978Y-13534D01*
X65236Y-13640D01*
X65514Y-13641D01*
X65772Y-13534D01*
X65969Y-13338D01*
X66075Y-13080D01*
X66076Y-12802D01*
X66076Y-15466D01*
X65555Y-15987D01*
X63053Y-15987D01*
X62943Y-16008D01*
X62943Y-15345D01*
X63340Y-14948D01*
X63340Y-15145D01*
X63498Y-15526D01*
X63788Y-15817D01*
X64169Y-15975D01*
X64580Y-15976D01*
X64961Y-15818D01*
X65252Y-15528D01*
X65410Y-15147D01*
X65411Y-14736D01*
X65253Y-14355D01*
X64963Y-14064D01*
X64582Y-13906D01*
X64383Y-13906D01*
X64405Y-13883D01*
X64405Y-13883D01*
X64470Y-13786D01*
X64493Y-13671D01*
X64493Y-13671D01*
X64493Y-11693D01*
X66469Y-9717D01*
X66478Y-9739D01*
X66626Y-9886D01*
X66626Y-14916D01*
G54D10*
G36*
X74126Y-14916D02*
X73576Y-15466D01*
X73576Y-12802D01*
X73469Y-12545D01*
X73273Y-12347D01*
X73015Y-12241D01*
X72737Y-12240D01*
X72480Y-12347D01*
X72282Y-12543D01*
X72176Y-12801D01*
X72175Y-13079D01*
X72282Y-13337D01*
X72478Y-13534D01*
X72736Y-13640D01*
X73014Y-13641D01*
X73272Y-13534D01*
X73469Y-13338D01*
X73575Y-13080D01*
X73576Y-12802D01*
X73576Y-15466D01*
X73386Y-15655D01*
X72624Y-15655D01*
X72752Y-15528D01*
X72910Y-15147D01*
X72911Y-14736D01*
X72753Y-14355D01*
X72463Y-14064D01*
X72082Y-13906D01*
X71671Y-13905D01*
X71290Y-14063D01*
X71076Y-14277D01*
X71076Y-13802D01*
X70969Y-13545D01*
X70773Y-13347D01*
X70515Y-13241D01*
X70237Y-13240D01*
X69980Y-13347D01*
X69782Y-13543D01*
X69676Y-13801D01*
X69675Y-14079D01*
X69782Y-14337D01*
X69978Y-14534D01*
X70236Y-14640D01*
X70514Y-14641D01*
X70772Y-14534D01*
X70969Y-14338D01*
X71075Y-14080D01*
X71076Y-13802D01*
X71076Y-14277D01*
X70999Y-14353D01*
X70841Y-14734D01*
X70840Y-15145D01*
X70998Y-15526D01*
X71127Y-15655D01*
X71024Y-15655D01*
X70909Y-15678D01*
X70811Y-15743D01*
X68302Y-18253D01*
X61510Y-18253D01*
X63177Y-16587D01*
X63333Y-16587D01*
X63298Y-16638D01*
X63251Y-16877D01*
X63251Y-17004D01*
X63298Y-17243D01*
X63434Y-17446D01*
X63636Y-17581D01*
X63876Y-17629D01*
X64115Y-17581D01*
X64275Y-17474D01*
X64288Y-17507D01*
X64359Y-17577D01*
X64451Y-17615D01*
X64550Y-17616D01*
X65300Y-17616D01*
X65392Y-17578D01*
X65462Y-17507D01*
X65500Y-17415D01*
X65501Y-17316D01*
X65501Y-16587D01*
X65679Y-16587D01*
X65679Y-16587D01*
X65794Y-16564D01*
X65794Y-16564D01*
X65892Y-16499D01*
X66926Y-15465D01*
X68299Y-16838D01*
X68298Y-17045D01*
X68378Y-17239D01*
X68527Y-17387D01*
X68720Y-17467D01*
X68930Y-17468D01*
X69124Y-17388D01*
X69272Y-17239D01*
X69352Y-17046D01*
X69353Y-16836D01*
X69353Y-13836D01*
X69273Y-13642D01*
X69124Y-13494D01*
X68931Y-13414D01*
X68721Y-13413D01*
X68527Y-13493D01*
X68379Y-13642D01*
X68299Y-13835D01*
X68298Y-14045D01*
X68378Y-14239D01*
X68527Y-14387D01*
X68720Y-14467D01*
X68930Y-14468D01*
X69124Y-14388D01*
X69272Y-14239D01*
X69352Y-14046D01*
X69353Y-13836D01*
X69353Y-16836D01*
X69273Y-16642D01*
X69124Y-16494D01*
X68931Y-16414D01*
X68723Y-16413D01*
X67226Y-14916D01*
X67226Y-9886D01*
X67372Y-9739D01*
X67452Y-9546D01*
X67453Y-9336D01*
X67385Y-9174D01*
X68891Y-9174D01*
X68851Y-9377D01*
X68851Y-9504D01*
X68898Y-9743D01*
X69034Y-9946D01*
X69236Y-10081D01*
X69476Y-10129D01*
X69715Y-10081D01*
X69875Y-9974D01*
X69888Y-10007D01*
X69959Y-10077D01*
X70051Y-10115D01*
X70150Y-10116D01*
X70900Y-10116D01*
X70992Y-10078D01*
X71062Y-10007D01*
X71100Y-9915D01*
X71101Y-9816D01*
X71101Y-9174D01*
X73966Y-9174D01*
X73899Y-9335D01*
X73898Y-9545D01*
X73978Y-9739D01*
X74126Y-9886D01*
X74126Y-14916D01*
X74126Y-14916D01*
G37*
G54D21*
X74126Y-14916D02*
X73576Y-15466D01*
X73576Y-12802D01*
X73469Y-12545D01*
X73273Y-12347D01*
X73015Y-12241D01*
X72737Y-12240D01*
X72480Y-12347D01*
X72282Y-12543D01*
X72176Y-12801D01*
X72175Y-13079D01*
X72282Y-13337D01*
X72478Y-13534D01*
X72736Y-13640D01*
X73014Y-13641D01*
X73272Y-13534D01*
X73469Y-13338D01*
X73575Y-13080D01*
X73576Y-12802D01*
X73576Y-15466D01*
X73386Y-15655D01*
X72624Y-15655D01*
X72752Y-15528D01*
X72910Y-15147D01*
X72911Y-14736D01*
X72753Y-14355D01*
X72463Y-14064D01*
X72082Y-13906D01*
X71671Y-13905D01*
X71290Y-14063D01*
X71076Y-14277D01*
X71076Y-13802D01*
X70969Y-13545D01*
X70773Y-13347D01*
X70515Y-13241D01*
X70237Y-13240D01*
X69980Y-13347D01*
X69782Y-13543D01*
X69676Y-13801D01*
X69675Y-14079D01*
X69782Y-14337D01*
X69978Y-14534D01*
X70236Y-14640D01*
X70514Y-14641D01*
X70772Y-14534D01*
X70969Y-14338D01*
X71075Y-14080D01*
X71076Y-13802D01*
X71076Y-14277D01*
X70999Y-14353D01*
X70841Y-14734D01*
X70840Y-15145D01*
X70998Y-15526D01*
X71127Y-15655D01*
X71024Y-15655D01*
X70909Y-15678D01*
X70811Y-15743D01*
X68302Y-18253D01*
X61510Y-18253D01*
X63177Y-16587D01*
X63333Y-16587D01*
X63298Y-16638D01*
X63251Y-16877D01*
X63251Y-17004D01*
X63298Y-17243D01*
X63434Y-17446D01*
X63636Y-17581D01*
X63876Y-17629D01*
X64115Y-17581D01*
X64275Y-17474D01*
X64288Y-17507D01*
X64359Y-17577D01*
X64451Y-17615D01*
X64550Y-17616D01*
X65300Y-17616D01*
X65392Y-17578D01*
X65462Y-17507D01*
X65500Y-17415D01*
X65501Y-17316D01*
X65501Y-16587D01*
X65679Y-16587D01*
X65679Y-16587D01*
X65794Y-16564D01*
X65794Y-16564D01*
X65892Y-16499D01*
X66926Y-15465D01*
X68299Y-16838D01*
X68298Y-17045D01*
X68378Y-17239D01*
X68527Y-17387D01*
X68720Y-17467D01*
X68930Y-17468D01*
X69124Y-17388D01*
X69272Y-17239D01*
X69352Y-17046D01*
X69353Y-16836D01*
X69353Y-13836D01*
X69273Y-13642D01*
X69124Y-13494D01*
X68931Y-13414D01*
X68721Y-13413D01*
X68527Y-13493D01*
X68379Y-13642D01*
X68299Y-13835D01*
X68298Y-14045D01*
X68378Y-14239D01*
X68527Y-14387D01*
X68720Y-14467D01*
X68930Y-14468D01*
X69124Y-14388D01*
X69272Y-14239D01*
X69352Y-14046D01*
X69353Y-13836D01*
X69353Y-16836D01*
X69273Y-16642D01*
X69124Y-16494D01*
X68931Y-16414D01*
X68723Y-16413D01*
X67226Y-14916D01*
X67226Y-9886D01*
X67372Y-9739D01*
X67452Y-9546D01*
X67453Y-9336D01*
X67385Y-9174D01*
X68891Y-9174D01*
X68851Y-9377D01*
X68851Y-9504D01*
X68898Y-9743D01*
X69034Y-9946D01*
X69236Y-10081D01*
X69476Y-10129D01*
X69715Y-10081D01*
X69875Y-9974D01*
X69888Y-10007D01*
X69959Y-10077D01*
X70051Y-10115D01*
X70150Y-10116D01*
X70900Y-10116D01*
X70992Y-10078D01*
X71062Y-10007D01*
X71100Y-9915D01*
X71101Y-9816D01*
X71101Y-9174D01*
X73966Y-9174D01*
X73899Y-9335D01*
X73898Y-9545D01*
X73978Y-9739D01*
X74126Y-9886D01*
X74126Y-14916D01*
G54D10*
G36*
X82546Y-16085D02*
X81076Y-17556D01*
X81076Y-12802D01*
X80969Y-12545D01*
X80773Y-12347D01*
X80515Y-12241D01*
X80237Y-12240D01*
X79980Y-12347D01*
X79782Y-12543D01*
X79676Y-12801D01*
X79675Y-13079D01*
X79782Y-13337D01*
X79978Y-13534D01*
X80236Y-13640D01*
X80514Y-13641D01*
X80772Y-13534D01*
X80969Y-13338D01*
X81075Y-13080D01*
X81076Y-12802D01*
X81076Y-17556D01*
X80501Y-18131D01*
X80501Y-17316D01*
X80501Y-16466D01*
X80463Y-16374D01*
X80411Y-16322D01*
X80411Y-14736D01*
X80253Y-14355D01*
X79963Y-14064D01*
X79582Y-13906D01*
X79171Y-13905D01*
X78790Y-14063D01*
X78576Y-14277D01*
X78576Y-13802D01*
X78469Y-13545D01*
X78273Y-13347D01*
X78015Y-13241D01*
X77737Y-13240D01*
X77480Y-13347D01*
X77282Y-13543D01*
X77176Y-13801D01*
X77175Y-14079D01*
X77282Y-14337D01*
X77478Y-14534D01*
X77736Y-14640D01*
X78014Y-14641D01*
X78272Y-14534D01*
X78469Y-14338D01*
X78575Y-14080D01*
X78576Y-13802D01*
X78576Y-14277D01*
X78499Y-14353D01*
X78341Y-14734D01*
X78340Y-15145D01*
X78498Y-15526D01*
X78788Y-15817D01*
X79169Y-15975D01*
X79580Y-15976D01*
X79961Y-15818D01*
X80252Y-15528D01*
X80410Y-15147D01*
X80411Y-14736D01*
X80411Y-16322D01*
X80392Y-16304D01*
X80300Y-16266D01*
X80201Y-16265D01*
X79451Y-16265D01*
X79359Y-16303D01*
X79289Y-16374D01*
X79275Y-16407D01*
X79115Y-16300D01*
X78876Y-16252D01*
X78636Y-16300D01*
X78434Y-16435D01*
X78298Y-16638D01*
X78251Y-16877D01*
X78251Y-17004D01*
X78298Y-17243D01*
X78434Y-17446D01*
X78636Y-17581D01*
X78876Y-17629D01*
X79115Y-17581D01*
X79275Y-17474D01*
X79288Y-17507D01*
X79359Y-17577D01*
X79451Y-17615D01*
X79550Y-17616D01*
X80300Y-17616D01*
X80392Y-17578D01*
X80462Y-17507D01*
X80500Y-17415D01*
X80501Y-17316D01*
X80501Y-18131D01*
X80477Y-18154D01*
X80473Y-18142D01*
X80324Y-17994D01*
X80131Y-17914D01*
X79921Y-17913D01*
X79727Y-17993D01*
X79580Y-18141D01*
X77950Y-18141D01*
X76852Y-17043D01*
X76853Y-16836D01*
X76853Y-13836D01*
X76773Y-13642D01*
X76624Y-13494D01*
X76431Y-13414D01*
X76221Y-13413D01*
X76027Y-13493D01*
X75879Y-13642D01*
X75799Y-13835D01*
X75798Y-14045D01*
X75878Y-14239D01*
X76027Y-14387D01*
X76220Y-14467D01*
X76430Y-14468D01*
X76624Y-14388D01*
X76772Y-14239D01*
X76852Y-14046D01*
X76853Y-13836D01*
X76853Y-16836D01*
X76773Y-16642D01*
X76624Y-16494D01*
X76431Y-16414D01*
X76223Y-16413D01*
X74726Y-14916D01*
X74726Y-9886D01*
X74872Y-9739D01*
X74952Y-9546D01*
X74953Y-9336D01*
X74885Y-9174D01*
X76391Y-9174D01*
X76351Y-9377D01*
X76351Y-9504D01*
X76398Y-9743D01*
X76534Y-9946D01*
X76736Y-10081D01*
X76976Y-10129D01*
X77215Y-10081D01*
X77375Y-9974D01*
X77388Y-10007D01*
X77459Y-10077D01*
X77551Y-10115D01*
X77650Y-10116D01*
X78400Y-10116D01*
X78492Y-10078D01*
X78562Y-10007D01*
X78600Y-9915D01*
X78601Y-9816D01*
X78601Y-9174D01*
X81466Y-9174D01*
X81399Y-9335D01*
X81398Y-9545D01*
X81478Y-9739D01*
X81626Y-9886D01*
X81626Y-15041D01*
X81648Y-15155D01*
X81713Y-15253D01*
X82546Y-16085D01*
X82546Y-16085D01*
G37*
G54D21*
X82546Y-16085D02*
X81076Y-17556D01*
X81076Y-12802D01*
X80969Y-12545D01*
X80773Y-12347D01*
X80515Y-12241D01*
X80237Y-12240D01*
X79980Y-12347D01*
X79782Y-12543D01*
X79676Y-12801D01*
X79675Y-13079D01*
X79782Y-13337D01*
X79978Y-13534D01*
X80236Y-13640D01*
X80514Y-13641D01*
X80772Y-13534D01*
X80969Y-13338D01*
X81075Y-13080D01*
X81076Y-12802D01*
X81076Y-17556D01*
X80501Y-18131D01*
X80501Y-17316D01*
X80501Y-16466D01*
X80463Y-16374D01*
X80411Y-16322D01*
X80411Y-14736D01*
X80253Y-14355D01*
X79963Y-14064D01*
X79582Y-13906D01*
X79171Y-13905D01*
X78790Y-14063D01*
X78576Y-14277D01*
X78576Y-13802D01*
X78469Y-13545D01*
X78273Y-13347D01*
X78015Y-13241D01*
X77737Y-13240D01*
X77480Y-13347D01*
X77282Y-13543D01*
X77176Y-13801D01*
X77175Y-14079D01*
X77282Y-14337D01*
X77478Y-14534D01*
X77736Y-14640D01*
X78014Y-14641D01*
X78272Y-14534D01*
X78469Y-14338D01*
X78575Y-14080D01*
X78576Y-13802D01*
X78576Y-14277D01*
X78499Y-14353D01*
X78341Y-14734D01*
X78340Y-15145D01*
X78498Y-15526D01*
X78788Y-15817D01*
X79169Y-15975D01*
X79580Y-15976D01*
X79961Y-15818D01*
X80252Y-15528D01*
X80410Y-15147D01*
X80411Y-14736D01*
X80411Y-16322D01*
X80392Y-16304D01*
X80300Y-16266D01*
X80201Y-16265D01*
X79451Y-16265D01*
X79359Y-16303D01*
X79289Y-16374D01*
X79275Y-16407D01*
X79115Y-16300D01*
X78876Y-16252D01*
X78636Y-16300D01*
X78434Y-16435D01*
X78298Y-16638D01*
X78251Y-16877D01*
X78251Y-17004D01*
X78298Y-17243D01*
X78434Y-17446D01*
X78636Y-17581D01*
X78876Y-17629D01*
X79115Y-17581D01*
X79275Y-17474D01*
X79288Y-17507D01*
X79359Y-17577D01*
X79451Y-17615D01*
X79550Y-17616D01*
X80300Y-17616D01*
X80392Y-17578D01*
X80462Y-17507D01*
X80500Y-17415D01*
X80501Y-17316D01*
X80501Y-18131D01*
X80477Y-18154D01*
X80473Y-18142D01*
X80324Y-17994D01*
X80131Y-17914D01*
X79921Y-17913D01*
X79727Y-17993D01*
X79580Y-18141D01*
X77950Y-18141D01*
X76852Y-17043D01*
X76853Y-16836D01*
X76853Y-13836D01*
X76773Y-13642D01*
X76624Y-13494D01*
X76431Y-13414D01*
X76221Y-13413D01*
X76027Y-13493D01*
X75879Y-13642D01*
X75799Y-13835D01*
X75798Y-14045D01*
X75878Y-14239D01*
X76027Y-14387D01*
X76220Y-14467D01*
X76430Y-14468D01*
X76624Y-14388D01*
X76772Y-14239D01*
X76852Y-14046D01*
X76853Y-13836D01*
X76853Y-16836D01*
X76773Y-16642D01*
X76624Y-16494D01*
X76431Y-16414D01*
X76223Y-16413D01*
X74726Y-14916D01*
X74726Y-9886D01*
X74872Y-9739D01*
X74952Y-9546D01*
X74953Y-9336D01*
X74885Y-9174D01*
X76391Y-9174D01*
X76351Y-9377D01*
X76351Y-9504D01*
X76398Y-9743D01*
X76534Y-9946D01*
X76736Y-10081D01*
X76976Y-10129D01*
X77215Y-10081D01*
X77375Y-9974D01*
X77388Y-10007D01*
X77459Y-10077D01*
X77551Y-10115D01*
X77650Y-10116D01*
X78400Y-10116D01*
X78492Y-10078D01*
X78562Y-10007D01*
X78600Y-9915D01*
X78601Y-9816D01*
X78601Y-9174D01*
X81466Y-9174D01*
X81399Y-9335D01*
X81398Y-9545D01*
X81478Y-9739D01*
X81626Y-9886D01*
X81626Y-15041D01*
X81648Y-15155D01*
X81713Y-15253D01*
X82546Y-16085D01*
G54D10*
G36*
X90799Y-16838D02*
X90798Y-17043D01*
X89308Y-18534D01*
X89243Y-18631D01*
X89220Y-18746D01*
X89220Y-19529D01*
X88576Y-19529D01*
X88576Y-12802D01*
X88469Y-12545D01*
X88273Y-12347D01*
X88015Y-12241D01*
X87737Y-12240D01*
X87480Y-12347D01*
X87282Y-12543D01*
X87176Y-12801D01*
X87175Y-13079D01*
X87282Y-13337D01*
X87478Y-13534D01*
X87736Y-13640D01*
X88014Y-13641D01*
X88272Y-13534D01*
X88469Y-13338D01*
X88575Y-13080D01*
X88576Y-12802D01*
X88576Y-19529D01*
X61808Y-19529D01*
X61997Y-19339D01*
X80017Y-19339D01*
X80017Y-19339D01*
X80131Y-19317D01*
X80131Y-19317D01*
X80229Y-19252D01*
X82971Y-16510D01*
X83299Y-16838D01*
X83298Y-17045D01*
X83378Y-17239D01*
X83527Y-17387D01*
X83720Y-17467D01*
X83928Y-17468D01*
X85113Y-18653D01*
X85113Y-18653D01*
X85211Y-18718D01*
X85326Y-18741D01*
X87080Y-18741D01*
X87227Y-18887D01*
X87420Y-18967D01*
X87630Y-18968D01*
X87824Y-18888D01*
X87972Y-18739D01*
X88052Y-18546D01*
X88053Y-18336D01*
X88001Y-18210D01*
X88001Y-17316D01*
X88001Y-16466D01*
X87963Y-16374D01*
X87911Y-16322D01*
X87911Y-14736D01*
X87753Y-14355D01*
X87463Y-14064D01*
X87082Y-13906D01*
X86671Y-13905D01*
X86290Y-14063D01*
X86076Y-14277D01*
X86076Y-13802D01*
X85969Y-13545D01*
X85773Y-13347D01*
X85515Y-13241D01*
X85237Y-13240D01*
X84980Y-13347D01*
X84782Y-13543D01*
X84676Y-13801D01*
X84675Y-14079D01*
X84782Y-14337D01*
X84978Y-14534D01*
X85236Y-14640D01*
X85514Y-14641D01*
X85772Y-14534D01*
X85969Y-14338D01*
X86075Y-14080D01*
X86076Y-13802D01*
X86076Y-14277D01*
X85999Y-14353D01*
X85841Y-14734D01*
X85840Y-15145D01*
X85998Y-15526D01*
X86288Y-15817D01*
X86669Y-15975D01*
X87080Y-15976D01*
X87461Y-15818D01*
X87752Y-15528D01*
X87910Y-15147D01*
X87911Y-14736D01*
X87911Y-16322D01*
X87892Y-16304D01*
X87800Y-16266D01*
X87701Y-16265D01*
X86951Y-16265D01*
X86859Y-16303D01*
X86789Y-16374D01*
X86775Y-16407D01*
X86615Y-16300D01*
X86376Y-16252D01*
X86136Y-16300D01*
X85934Y-16435D01*
X85798Y-16638D01*
X85751Y-16877D01*
X85751Y-17004D01*
X85798Y-17243D01*
X85934Y-17446D01*
X86136Y-17581D01*
X86376Y-17629D01*
X86615Y-17581D01*
X86775Y-17474D01*
X86788Y-17507D01*
X86859Y-17577D01*
X86951Y-17615D01*
X87050Y-17616D01*
X87800Y-17616D01*
X87892Y-17578D01*
X87962Y-17507D01*
X88000Y-17415D01*
X88001Y-17316D01*
X88001Y-18210D01*
X87973Y-18142D01*
X87824Y-17994D01*
X87631Y-17914D01*
X87421Y-17913D01*
X87227Y-17993D01*
X87080Y-18141D01*
X85450Y-18141D01*
X84352Y-17043D01*
X84353Y-16836D01*
X84353Y-13836D01*
X84273Y-13642D01*
X84124Y-13494D01*
X83931Y-13414D01*
X83721Y-13413D01*
X83527Y-13493D01*
X83379Y-13642D01*
X83299Y-13835D01*
X83298Y-14045D01*
X83378Y-14239D01*
X83527Y-14387D01*
X83720Y-14467D01*
X83930Y-14468D01*
X84124Y-14388D01*
X84272Y-14239D01*
X84352Y-14046D01*
X84353Y-13836D01*
X84353Y-16836D01*
X84273Y-16642D01*
X84124Y-16494D01*
X83931Y-16414D01*
X83723Y-16413D01*
X83183Y-15873D01*
X82226Y-14916D01*
X82226Y-9886D01*
X82372Y-9739D01*
X82452Y-9546D01*
X82453Y-9336D01*
X82385Y-9174D01*
X83891Y-9174D01*
X83851Y-9377D01*
X83851Y-9504D01*
X83898Y-9743D01*
X84034Y-9946D01*
X84236Y-10081D01*
X84476Y-10129D01*
X84715Y-10081D01*
X84875Y-9974D01*
X84888Y-10007D01*
X84959Y-10077D01*
X85051Y-10115D01*
X85150Y-10116D01*
X85900Y-10116D01*
X85992Y-10078D01*
X86062Y-10007D01*
X86100Y-9915D01*
X86101Y-9816D01*
X86101Y-9174D01*
X88966Y-9174D01*
X88899Y-9335D01*
X88898Y-9545D01*
X88978Y-9739D01*
X89126Y-9886D01*
X89126Y-15041D01*
X89148Y-15155D01*
X89213Y-15253D01*
X90799Y-16838D01*
X90799Y-16838D01*
G37*
G54D21*
X90799Y-16838D02*
X90798Y-17043D01*
X89308Y-18534D01*
X89243Y-18631D01*
X89220Y-18746D01*
X89220Y-19529D01*
X88576Y-19529D01*
X88576Y-12802D01*
X88469Y-12545D01*
X88273Y-12347D01*
X88015Y-12241D01*
X87737Y-12240D01*
X87480Y-12347D01*
X87282Y-12543D01*
X87176Y-12801D01*
X87175Y-13079D01*
X87282Y-13337D01*
X87478Y-13534D01*
X87736Y-13640D01*
X88014Y-13641D01*
X88272Y-13534D01*
X88469Y-13338D01*
X88575Y-13080D01*
X88576Y-12802D01*
X88576Y-19529D01*
X61808Y-19529D01*
X61997Y-19339D01*
X80017Y-19339D01*
X80017Y-19339D01*
X80131Y-19317D01*
X80131Y-19317D01*
X80229Y-19252D01*
X82971Y-16510D01*
X83299Y-16838D01*
X83298Y-17045D01*
X83378Y-17239D01*
X83527Y-17387D01*
X83720Y-17467D01*
X83928Y-17468D01*
X85113Y-18653D01*
X85113Y-18653D01*
X85211Y-18718D01*
X85326Y-18741D01*
X87080Y-18741D01*
X87227Y-18887D01*
X87420Y-18967D01*
X87630Y-18968D01*
X87824Y-18888D01*
X87972Y-18739D01*
X88052Y-18546D01*
X88053Y-18336D01*
X88001Y-18210D01*
X88001Y-17316D01*
X88001Y-16466D01*
X87963Y-16374D01*
X87911Y-16322D01*
X87911Y-14736D01*
X87753Y-14355D01*
X87463Y-14064D01*
X87082Y-13906D01*
X86671Y-13905D01*
X86290Y-14063D01*
X86076Y-14277D01*
X86076Y-13802D01*
X85969Y-13545D01*
X85773Y-13347D01*
X85515Y-13241D01*
X85237Y-13240D01*
X84980Y-13347D01*
X84782Y-13543D01*
X84676Y-13801D01*
X84675Y-14079D01*
X84782Y-14337D01*
X84978Y-14534D01*
X85236Y-14640D01*
X85514Y-14641D01*
X85772Y-14534D01*
X85969Y-14338D01*
X86075Y-14080D01*
X86076Y-13802D01*
X86076Y-14277D01*
X85999Y-14353D01*
X85841Y-14734D01*
X85840Y-15145D01*
X85998Y-15526D01*
X86288Y-15817D01*
X86669Y-15975D01*
X87080Y-15976D01*
X87461Y-15818D01*
X87752Y-15528D01*
X87910Y-15147D01*
X87911Y-14736D01*
X87911Y-16322D01*
X87892Y-16304D01*
X87800Y-16266D01*
X87701Y-16265D01*
X86951Y-16265D01*
X86859Y-16303D01*
X86789Y-16374D01*
X86775Y-16407D01*
X86615Y-16300D01*
X86376Y-16252D01*
X86136Y-16300D01*
X85934Y-16435D01*
X85798Y-16638D01*
X85751Y-16877D01*
X85751Y-17004D01*
X85798Y-17243D01*
X85934Y-17446D01*
X86136Y-17581D01*
X86376Y-17629D01*
X86615Y-17581D01*
X86775Y-17474D01*
X86788Y-17507D01*
X86859Y-17577D01*
X86951Y-17615D01*
X87050Y-17616D01*
X87800Y-17616D01*
X87892Y-17578D01*
X87962Y-17507D01*
X88000Y-17415D01*
X88001Y-17316D01*
X88001Y-18210D01*
X87973Y-18142D01*
X87824Y-17994D01*
X87631Y-17914D01*
X87421Y-17913D01*
X87227Y-17993D01*
X87080Y-18141D01*
X85450Y-18141D01*
X84352Y-17043D01*
X84353Y-16836D01*
X84353Y-13836D01*
X84273Y-13642D01*
X84124Y-13494D01*
X83931Y-13414D01*
X83721Y-13413D01*
X83527Y-13493D01*
X83379Y-13642D01*
X83299Y-13835D01*
X83298Y-14045D01*
X83378Y-14239D01*
X83527Y-14387D01*
X83720Y-14467D01*
X83930Y-14468D01*
X84124Y-14388D01*
X84272Y-14239D01*
X84352Y-14046D01*
X84353Y-13836D01*
X84353Y-16836D01*
X84273Y-16642D01*
X84124Y-16494D01*
X83931Y-16414D01*
X83723Y-16413D01*
X83183Y-15873D01*
X82226Y-14916D01*
X82226Y-9886D01*
X82372Y-9739D01*
X82452Y-9546D01*
X82453Y-9336D01*
X82385Y-9174D01*
X83891Y-9174D01*
X83851Y-9377D01*
X83851Y-9504D01*
X83898Y-9743D01*
X84034Y-9946D01*
X84236Y-10081D01*
X84476Y-10129D01*
X84715Y-10081D01*
X84875Y-9974D01*
X84888Y-10007D01*
X84959Y-10077D01*
X85051Y-10115D01*
X85150Y-10116D01*
X85900Y-10116D01*
X85992Y-10078D01*
X86062Y-10007D01*
X86100Y-9915D01*
X86101Y-9816D01*
X86101Y-9174D01*
X88966Y-9174D01*
X88899Y-9335D01*
X88898Y-9545D01*
X88978Y-9739D01*
X89126Y-9886D01*
X89126Y-15041D01*
X89148Y-15155D01*
X89213Y-15253D01*
X90799Y-16838D01*
G54D10*
G36*
X110881Y-33346D02*
X109176Y-33346D01*
X109176Y-20302D01*
X109176Y-5302D01*
X109069Y-5045D01*
X108873Y-4847D01*
X108615Y-4741D01*
X108337Y-4740D01*
X108080Y-4847D01*
X107882Y-5043D01*
X107776Y-5301D01*
X107775Y-5579D01*
X107882Y-5837D01*
X108078Y-6034D01*
X108336Y-6140D01*
X108614Y-6141D01*
X108872Y-6034D01*
X109069Y-5838D01*
X109175Y-5580D01*
X109176Y-5302D01*
X109176Y-20302D01*
X109069Y-20045D01*
X108873Y-19847D01*
X108615Y-19741D01*
X108601Y-19741D01*
X108601Y-9816D01*
X108601Y-8966D01*
X108563Y-8874D01*
X108511Y-8822D01*
X108511Y-7236D01*
X108353Y-6855D01*
X108063Y-6564D01*
X107682Y-6406D01*
X107271Y-6405D01*
X106890Y-6563D01*
X106676Y-6777D01*
X106676Y-6302D01*
X106569Y-6045D01*
X106373Y-5847D01*
X106115Y-5741D01*
X105837Y-5740D01*
X105580Y-5847D01*
X105382Y-6043D01*
X105276Y-6301D01*
X105275Y-6579D01*
X105382Y-6837D01*
X105578Y-7034D01*
X105836Y-7140D01*
X106114Y-7141D01*
X106372Y-7034D01*
X106569Y-6838D01*
X106675Y-6580D01*
X106676Y-6302D01*
X106676Y-6777D01*
X106599Y-6853D01*
X106441Y-7234D01*
X106440Y-7645D01*
X106598Y-8026D01*
X106888Y-8317D01*
X107269Y-8475D01*
X107680Y-8476D01*
X108061Y-8318D01*
X108352Y-8028D01*
X108510Y-7647D01*
X108511Y-7236D01*
X108511Y-8822D01*
X108492Y-8804D01*
X108400Y-8766D01*
X108301Y-8765D01*
X107551Y-8765D01*
X107459Y-8803D01*
X107389Y-8874D01*
X107375Y-8907D01*
X107215Y-8800D01*
X106976Y-8752D01*
X106736Y-8800D01*
X106534Y-8935D01*
X106398Y-9138D01*
X106351Y-9377D01*
X106351Y-9504D01*
X106398Y-9743D01*
X106534Y-9946D01*
X106736Y-10081D01*
X106976Y-10129D01*
X107215Y-10081D01*
X107375Y-9974D01*
X107388Y-10007D01*
X107459Y-10077D01*
X107551Y-10115D01*
X107650Y-10116D01*
X108400Y-10116D01*
X108492Y-10078D01*
X108562Y-10007D01*
X108600Y-9915D01*
X108601Y-9816D01*
X108601Y-19741D01*
X108337Y-19740D01*
X108080Y-19847D01*
X107882Y-20043D01*
X107842Y-20141D01*
X106376Y-20141D01*
X106376Y-12802D01*
X106269Y-12545D01*
X106073Y-12347D01*
X105815Y-12241D01*
X105537Y-12240D01*
X105280Y-12347D01*
X105082Y-12543D01*
X104976Y-12801D01*
X104975Y-13079D01*
X105082Y-13337D01*
X105278Y-13534D01*
X105536Y-13640D01*
X105814Y-13641D01*
X106072Y-13534D01*
X106269Y-13338D01*
X106375Y-13080D01*
X106376Y-12802D01*
X106376Y-20141D01*
X105801Y-20141D01*
X105801Y-17316D01*
X105801Y-16466D01*
X105763Y-16374D01*
X105711Y-16322D01*
X105711Y-14736D01*
X105553Y-14355D01*
X105263Y-14064D01*
X104882Y-13906D01*
X104471Y-13905D01*
X104090Y-14063D01*
X103876Y-14277D01*
X103876Y-13802D01*
X103769Y-13545D01*
X103573Y-13347D01*
X103315Y-13241D01*
X103037Y-13240D01*
X102780Y-13347D01*
X102582Y-13543D01*
X102476Y-13801D01*
X102475Y-14079D01*
X102582Y-14337D01*
X102778Y-14534D01*
X103036Y-14640D01*
X103314Y-14641D01*
X103572Y-14534D01*
X103769Y-14338D01*
X103875Y-14080D01*
X103876Y-13802D01*
X103876Y-14277D01*
X103799Y-14353D01*
X103641Y-14734D01*
X103640Y-15145D01*
X103798Y-15526D01*
X104088Y-15817D01*
X104469Y-15975D01*
X104880Y-15976D01*
X105261Y-15818D01*
X105552Y-15528D01*
X105710Y-15147D01*
X105711Y-14736D01*
X105711Y-16322D01*
X105692Y-16304D01*
X105600Y-16266D01*
X105501Y-16265D01*
X104751Y-16265D01*
X104659Y-16303D01*
X104589Y-16374D01*
X104575Y-16407D01*
X104415Y-16300D01*
X104176Y-16252D01*
X103936Y-16300D01*
X103734Y-16435D01*
X103598Y-16638D01*
X103551Y-16877D01*
X103551Y-17004D01*
X103598Y-17243D01*
X103734Y-17446D01*
X103936Y-17581D01*
X104176Y-17629D01*
X104415Y-17581D01*
X104575Y-17474D01*
X104588Y-17507D01*
X104659Y-17577D01*
X104751Y-17615D01*
X104850Y-17616D01*
X105600Y-17616D01*
X105692Y-17578D01*
X105762Y-17507D01*
X105800Y-17415D01*
X105801Y-17316D01*
X105801Y-20141D01*
X100634Y-20141D01*
X100594Y-20045D01*
X100398Y-19847D01*
X100141Y-19741D01*
X99862Y-19740D01*
X99605Y-19847D01*
X99408Y-20043D01*
X99301Y-20301D01*
X99301Y-20579D01*
X99407Y-20837D01*
X99604Y-21034D01*
X99861Y-21140D01*
X100139Y-21141D01*
X100397Y-21034D01*
X100594Y-20838D01*
X100634Y-20741D01*
X105837Y-20741D01*
X105580Y-20847D01*
X105382Y-21043D01*
X105276Y-21301D01*
X105275Y-21579D01*
X105382Y-21837D01*
X105578Y-22034D01*
X105836Y-22140D01*
X106114Y-22141D01*
X106372Y-22034D01*
X106569Y-21838D01*
X106675Y-21580D01*
X106676Y-21302D01*
X106569Y-21045D01*
X106373Y-20847D01*
X106115Y-20741D01*
X105976Y-20741D01*
X107842Y-20741D01*
X107882Y-20837D01*
X108078Y-21034D01*
X108336Y-21140D01*
X108614Y-21141D01*
X108872Y-21034D01*
X109069Y-20838D01*
X109175Y-20580D01*
X109176Y-20302D01*
X109176Y-33346D01*
X108601Y-33346D01*
X108601Y-24816D01*
X108601Y-23966D01*
X108563Y-23874D01*
X108511Y-23822D01*
X108511Y-22236D01*
X108353Y-21855D01*
X108063Y-21564D01*
X107682Y-21406D01*
X107271Y-21405D01*
X106890Y-21563D01*
X106599Y-21853D01*
X106441Y-22234D01*
X106440Y-22645D01*
X106598Y-23026D01*
X106888Y-23317D01*
X107269Y-23475D01*
X107680Y-23476D01*
X108061Y-23318D01*
X108352Y-23028D01*
X108510Y-22647D01*
X108511Y-22236D01*
X108511Y-23822D01*
X108492Y-23804D01*
X108400Y-23766D01*
X108301Y-23765D01*
X107551Y-23765D01*
X107459Y-23803D01*
X107389Y-23874D01*
X107375Y-23907D01*
X107215Y-23800D01*
X106976Y-23752D01*
X106736Y-23800D01*
X106534Y-23935D01*
X106398Y-24138D01*
X106351Y-24377D01*
X106351Y-24504D01*
X106398Y-24743D01*
X106534Y-24946D01*
X106736Y-25081D01*
X106976Y-25129D01*
X107215Y-25081D01*
X107375Y-24974D01*
X107388Y-25007D01*
X107459Y-25077D01*
X107551Y-25115D01*
X107650Y-25116D01*
X108400Y-25116D01*
X108492Y-25078D01*
X108562Y-25007D01*
X108600Y-24915D01*
X108601Y-24816D01*
X108601Y-33346D01*
X108241Y-33346D01*
X108241Y-27802D01*
X108134Y-27545D01*
X107937Y-27347D01*
X107680Y-27241D01*
X107402Y-27240D01*
X107144Y-27347D01*
X106947Y-27543D01*
X106841Y-27801D01*
X106840Y-28079D01*
X106947Y-28337D01*
X107143Y-28534D01*
X107401Y-28640D01*
X107679Y-28641D01*
X107936Y-28534D01*
X108134Y-28338D01*
X108240Y-28080D01*
X108241Y-27802D01*
X108241Y-33346D01*
X107675Y-33346D01*
X107675Y-32316D01*
X107675Y-31466D01*
X107637Y-31374D01*
X107576Y-31312D01*
X107576Y-29736D01*
X107418Y-29355D01*
X107128Y-29064D01*
X106747Y-28906D01*
X106335Y-28905D01*
X105955Y-29063D01*
X105741Y-29277D01*
X105741Y-28802D01*
X105634Y-28545D01*
X105437Y-28347D01*
X105180Y-28241D01*
X104902Y-28240D01*
X104644Y-28347D01*
X104447Y-28543D01*
X104341Y-28801D01*
X104340Y-29079D01*
X104447Y-29337D01*
X104643Y-29534D01*
X104901Y-29640D01*
X105179Y-29641D01*
X105436Y-29534D01*
X105634Y-29338D01*
X105740Y-29080D01*
X105741Y-28802D01*
X105741Y-29277D01*
X105664Y-29353D01*
X105506Y-29734D01*
X105505Y-30145D01*
X105663Y-30526D01*
X105953Y-30817D01*
X106334Y-30975D01*
X106745Y-30976D01*
X107126Y-30818D01*
X107417Y-30528D01*
X107575Y-30147D01*
X107576Y-29736D01*
X107576Y-31312D01*
X107567Y-31304D01*
X107475Y-31266D01*
X107376Y-31265D01*
X106626Y-31265D01*
X106534Y-31303D01*
X106463Y-31374D01*
X106450Y-31407D01*
X106289Y-31300D01*
X106050Y-31252D01*
X105811Y-31300D01*
X105608Y-31435D01*
X105473Y-31638D01*
X105425Y-31877D01*
X105425Y-32004D01*
X105473Y-32243D01*
X105608Y-32446D01*
X105811Y-32581D01*
X106050Y-32629D01*
X106289Y-32581D01*
X106450Y-32474D01*
X106463Y-32507D01*
X106534Y-32577D01*
X106625Y-32615D01*
X106725Y-32616D01*
X107475Y-32616D01*
X107567Y-32578D01*
X107637Y-32507D01*
X107675Y-32415D01*
X107675Y-32316D01*
X107675Y-33346D01*
X104003Y-33346D01*
X104003Y-28836D01*
X103923Y-28642D01*
X103774Y-28494D01*
X103581Y-28414D01*
X103371Y-28413D01*
X103177Y-28493D01*
X103029Y-28642D01*
X102949Y-28835D01*
X102948Y-29045D01*
X103028Y-29239D01*
X103177Y-29387D01*
X103370Y-29467D01*
X103580Y-29468D01*
X103774Y-29388D01*
X103922Y-29239D01*
X104002Y-29046D01*
X104003Y-28836D01*
X104003Y-33346D01*
X98876Y-33346D01*
X98876Y-27802D01*
X98769Y-27545D01*
X98573Y-27347D01*
X98315Y-27241D01*
X98037Y-27240D01*
X97780Y-27347D01*
X97582Y-27543D01*
X97476Y-27801D01*
X97475Y-28079D01*
X97582Y-28337D01*
X97778Y-28534D01*
X98036Y-28640D01*
X98314Y-28641D01*
X98572Y-28534D01*
X98769Y-28338D01*
X98875Y-28080D01*
X98876Y-27802D01*
X98876Y-33346D01*
X98301Y-33346D01*
X98301Y-32316D01*
X98301Y-31466D01*
X98263Y-31374D01*
X98211Y-31322D01*
X98211Y-29736D01*
X98053Y-29355D01*
X97763Y-29064D01*
X97382Y-28906D01*
X96971Y-28905D01*
X96590Y-29063D01*
X96376Y-29277D01*
X96376Y-28802D01*
X96269Y-28545D01*
X96073Y-28347D01*
X95815Y-28241D01*
X95537Y-28240D01*
X95280Y-28347D01*
X95082Y-28543D01*
X94976Y-28801D01*
X94975Y-29079D01*
X95082Y-29337D01*
X95278Y-29534D01*
X95536Y-29640D01*
X95814Y-29641D01*
X96072Y-29534D01*
X96269Y-29338D01*
X96375Y-29080D01*
X96376Y-28802D01*
X96376Y-29277D01*
X96299Y-29353D01*
X96141Y-29734D01*
X96140Y-30145D01*
X96298Y-30526D01*
X96588Y-30817D01*
X96969Y-30975D01*
X97380Y-30976D01*
X97761Y-30818D01*
X98052Y-30528D01*
X98210Y-30147D01*
X98211Y-29736D01*
X98211Y-31322D01*
X98192Y-31304D01*
X98100Y-31266D01*
X98001Y-31265D01*
X97251Y-31265D01*
X97159Y-31303D01*
X97089Y-31374D01*
X97075Y-31407D01*
X96915Y-31300D01*
X96676Y-31252D01*
X96436Y-31300D01*
X96234Y-31435D01*
X96098Y-31638D01*
X96051Y-31877D01*
X96051Y-32004D01*
X96098Y-32243D01*
X96234Y-32446D01*
X96436Y-32581D01*
X96676Y-32629D01*
X96915Y-32581D01*
X97075Y-32474D01*
X97088Y-32507D01*
X97159Y-32577D01*
X97251Y-32615D01*
X97350Y-32616D01*
X98100Y-32616D01*
X98192Y-32578D01*
X98262Y-32507D01*
X98300Y-32415D01*
X98301Y-32316D01*
X98301Y-33346D01*
X89543Y-33346D01*
X93670Y-29218D01*
X93678Y-29239D01*
X93827Y-29387D01*
X94020Y-29467D01*
X94230Y-29468D01*
X94424Y-29388D01*
X94572Y-29239D01*
X94652Y-29046D01*
X94653Y-28836D01*
X94573Y-28642D01*
X94424Y-28494D01*
X94403Y-28485D01*
X96648Y-26241D01*
X103030Y-26241D01*
X103177Y-26387D01*
X103370Y-26467D01*
X103580Y-26468D01*
X103774Y-26388D01*
X103922Y-26239D01*
X104002Y-26046D01*
X104003Y-25836D01*
X103923Y-25642D01*
X103785Y-25505D01*
X104323Y-24967D01*
X104530Y-24968D01*
X104724Y-24888D01*
X104872Y-24739D01*
X104952Y-24546D01*
X104953Y-24336D01*
X104953Y-21336D01*
X104873Y-21142D01*
X104724Y-20994D01*
X104531Y-20914D01*
X104321Y-20913D01*
X104127Y-20993D01*
X103979Y-21142D01*
X103899Y-21335D01*
X103898Y-21545D01*
X103978Y-21739D01*
X104127Y-21887D01*
X104320Y-21967D01*
X104530Y-21968D01*
X104724Y-21888D01*
X104872Y-21739D01*
X104952Y-21546D01*
X104953Y-21336D01*
X104953Y-24336D01*
X104873Y-24142D01*
X104724Y-23994D01*
X104531Y-23914D01*
X104321Y-23913D01*
X104127Y-23993D01*
X103979Y-24142D01*
X103899Y-24335D01*
X103898Y-24543D01*
X103263Y-25178D01*
X103198Y-25276D01*
X103176Y-25391D01*
X103176Y-25495D01*
X103030Y-25641D01*
X100126Y-25641D01*
X100126Y-24816D01*
X100126Y-23966D01*
X100088Y-23874D01*
X100036Y-23822D01*
X100036Y-22236D01*
X99879Y-21855D01*
X99588Y-21564D01*
X99207Y-21406D01*
X98796Y-21405D01*
X98415Y-21563D01*
X98201Y-21777D01*
X98201Y-21302D01*
X98094Y-21045D01*
X97898Y-20847D01*
X97641Y-20741D01*
X97362Y-20740D01*
X97105Y-20847D01*
X96908Y-21043D01*
X96801Y-21301D01*
X96801Y-21579D01*
X96907Y-21837D01*
X97104Y-22034D01*
X97361Y-22140D01*
X97639Y-22141D01*
X97897Y-22034D01*
X98094Y-21838D01*
X98201Y-21580D01*
X98201Y-21302D01*
X98201Y-21777D01*
X98124Y-21853D01*
X97966Y-22234D01*
X97966Y-22645D01*
X98123Y-23026D01*
X98414Y-23317D01*
X98794Y-23475D01*
X99206Y-23476D01*
X99586Y-23318D01*
X99878Y-23028D01*
X100036Y-22647D01*
X100036Y-22236D01*
X100036Y-23822D01*
X100017Y-23804D01*
X99926Y-23766D01*
X99826Y-23765D01*
X99076Y-23765D01*
X98984Y-23803D01*
X98914Y-23874D01*
X98900Y-23907D01*
X98740Y-23800D01*
X98501Y-23752D01*
X98262Y-23800D01*
X98059Y-23935D01*
X97923Y-24138D01*
X97876Y-24377D01*
X97876Y-24504D01*
X97923Y-24743D01*
X98059Y-24946D01*
X98262Y-25081D01*
X98501Y-25129D01*
X98740Y-25081D01*
X98900Y-24974D01*
X98914Y-25007D01*
X98984Y-25077D01*
X99076Y-25115D01*
X99175Y-25116D01*
X99925Y-25116D01*
X100017Y-25078D01*
X100088Y-25007D01*
X100126Y-24915D01*
X100126Y-24816D01*
X100126Y-25641D01*
X96524Y-25641D01*
X96409Y-25663D01*
X96312Y-25728D01*
X91701Y-30339D01*
X91701Y-24816D01*
X91701Y-23966D01*
X91663Y-23874D01*
X91592Y-23804D01*
X91500Y-23766D01*
X91401Y-23765D01*
X90651Y-23765D01*
X90559Y-23803D01*
X90489Y-23874D01*
X90475Y-23907D01*
X90315Y-23800D01*
X90076Y-23752D01*
X89836Y-23800D01*
X89634Y-23935D01*
X89498Y-24138D01*
X89451Y-24377D01*
X89451Y-24504D01*
X89498Y-24743D01*
X89634Y-24946D01*
X89836Y-25081D01*
X90076Y-25129D01*
X90315Y-25081D01*
X90475Y-24974D01*
X90488Y-25007D01*
X90559Y-25077D01*
X90651Y-25115D01*
X90750Y-25116D01*
X91500Y-25116D01*
X91592Y-25078D01*
X91662Y-25007D01*
X91700Y-24915D01*
X91701Y-24816D01*
X91701Y-30339D01*
X88843Y-33196D01*
X88053Y-33196D01*
X88053Y-21336D01*
X87973Y-21142D01*
X87824Y-20994D01*
X87631Y-20914D01*
X87421Y-20913D01*
X87227Y-20993D01*
X87079Y-21142D01*
X86999Y-21335D01*
X86998Y-21545D01*
X87078Y-21739D01*
X87227Y-21887D01*
X87420Y-21967D01*
X87630Y-21968D01*
X87824Y-21888D01*
X87972Y-21739D01*
X88052Y-21546D01*
X88053Y-21336D01*
X88053Y-33196D01*
X84201Y-33196D01*
X84201Y-24816D01*
X84201Y-23966D01*
X84163Y-23874D01*
X84111Y-23822D01*
X84111Y-22236D01*
X83953Y-21855D01*
X83663Y-21564D01*
X83282Y-21406D01*
X82871Y-21405D01*
X82490Y-21563D01*
X82199Y-21853D01*
X82041Y-22234D01*
X82040Y-22645D01*
X82198Y-23026D01*
X82488Y-23317D01*
X82869Y-23475D01*
X83280Y-23476D01*
X83661Y-23318D01*
X83952Y-23028D01*
X84110Y-22647D01*
X84111Y-22236D01*
X84111Y-23822D01*
X84092Y-23804D01*
X84000Y-23766D01*
X83901Y-23765D01*
X83151Y-23765D01*
X83059Y-23803D01*
X82989Y-23874D01*
X82975Y-23907D01*
X82815Y-23800D01*
X82576Y-23752D01*
X82336Y-23800D01*
X82134Y-23935D01*
X81998Y-24138D01*
X81951Y-24377D01*
X81951Y-24504D01*
X81998Y-24743D01*
X82134Y-24946D01*
X82336Y-25081D01*
X82576Y-25129D01*
X82815Y-25081D01*
X82975Y-24974D01*
X82988Y-25007D01*
X83059Y-25077D01*
X83151Y-25115D01*
X83250Y-25116D01*
X84000Y-25116D01*
X84092Y-25078D01*
X84162Y-25007D01*
X84200Y-24915D01*
X84201Y-24816D01*
X84201Y-33196D01*
X80553Y-33196D01*
X80553Y-21336D01*
X80473Y-21142D01*
X80324Y-20994D01*
X80131Y-20914D01*
X79921Y-20913D01*
X79727Y-20993D01*
X79579Y-21142D01*
X79499Y-21335D01*
X79498Y-21545D01*
X79578Y-21739D01*
X79727Y-21887D01*
X79920Y-21967D01*
X80130Y-21968D01*
X80324Y-21888D01*
X80472Y-21739D01*
X80552Y-21546D01*
X80553Y-21336D01*
X80553Y-33196D01*
X76701Y-33196D01*
X76701Y-24816D01*
X76701Y-23966D01*
X76663Y-23874D01*
X76611Y-23822D01*
X76611Y-22236D01*
X76453Y-21855D01*
X76163Y-21564D01*
X75782Y-21406D01*
X75371Y-21405D01*
X74990Y-21563D01*
X74776Y-21777D01*
X74776Y-21302D01*
X74669Y-21045D01*
X74473Y-20847D01*
X74215Y-20741D01*
X73937Y-20740D01*
X73680Y-20847D01*
X73482Y-21043D01*
X73376Y-21301D01*
X73375Y-21579D01*
X73482Y-21837D01*
X73678Y-22034D01*
X73936Y-22140D01*
X74214Y-22141D01*
X74472Y-22034D01*
X74669Y-21838D01*
X74775Y-21580D01*
X74776Y-21302D01*
X74776Y-21777D01*
X74699Y-21853D01*
X74541Y-22234D01*
X74540Y-22645D01*
X74698Y-23026D01*
X74988Y-23317D01*
X75369Y-23475D01*
X75780Y-23476D01*
X76161Y-23318D01*
X76452Y-23028D01*
X76610Y-22647D01*
X76611Y-22236D01*
X76611Y-23822D01*
X76592Y-23804D01*
X76500Y-23766D01*
X76401Y-23765D01*
X75651Y-23765D01*
X75559Y-23803D01*
X75489Y-23874D01*
X75475Y-23907D01*
X75315Y-23800D01*
X75076Y-23752D01*
X74836Y-23800D01*
X74634Y-23935D01*
X74498Y-24138D01*
X74451Y-24377D01*
X74451Y-24504D01*
X74498Y-24743D01*
X74634Y-24946D01*
X74836Y-25081D01*
X75076Y-25129D01*
X75315Y-25081D01*
X75475Y-24974D01*
X75488Y-25007D01*
X75559Y-25077D01*
X75651Y-25115D01*
X75750Y-25116D01*
X76500Y-25116D01*
X76592Y-25078D01*
X76662Y-25007D01*
X76700Y-24915D01*
X76701Y-24816D01*
X76701Y-33196D01*
X73053Y-33196D01*
X73053Y-21336D01*
X72973Y-21142D01*
X72824Y-20994D01*
X72631Y-20914D01*
X72421Y-20913D01*
X72227Y-20993D01*
X72079Y-21142D01*
X71999Y-21335D01*
X71998Y-21545D01*
X72078Y-21739D01*
X72227Y-21887D01*
X72420Y-21967D01*
X72630Y-21968D01*
X72824Y-21888D01*
X72972Y-21739D01*
X73052Y-21546D01*
X73053Y-21336D01*
X73053Y-33196D01*
X70646Y-33196D01*
X70646Y-27952D01*
X70539Y-27695D01*
X70343Y-27497D01*
X70085Y-27391D01*
X70021Y-27391D01*
X70122Y-27289D01*
X70202Y-27096D01*
X70203Y-26886D01*
X70123Y-26692D01*
X69974Y-26544D01*
X69781Y-26464D01*
X69571Y-26463D01*
X69377Y-26543D01*
X69229Y-26692D01*
X69201Y-26760D01*
X69201Y-24816D01*
X69201Y-23966D01*
X69163Y-23874D01*
X69111Y-23822D01*
X69111Y-22236D01*
X68953Y-21855D01*
X68663Y-21564D01*
X68282Y-21406D01*
X67871Y-21405D01*
X67490Y-21563D01*
X67199Y-21853D01*
X67041Y-22234D01*
X67040Y-22645D01*
X67198Y-23026D01*
X67488Y-23317D01*
X67869Y-23475D01*
X68280Y-23476D01*
X68661Y-23318D01*
X68952Y-23028D01*
X69110Y-22647D01*
X69111Y-22236D01*
X69111Y-23822D01*
X69092Y-23804D01*
X69000Y-23766D01*
X68901Y-23765D01*
X68151Y-23765D01*
X68059Y-23803D01*
X67989Y-23874D01*
X67975Y-23907D01*
X67815Y-23800D01*
X67576Y-23752D01*
X67336Y-23800D01*
X67134Y-23935D01*
X66998Y-24138D01*
X66951Y-24377D01*
X66951Y-24504D01*
X66998Y-24743D01*
X67134Y-24946D01*
X67336Y-25081D01*
X67576Y-25129D01*
X67815Y-25081D01*
X67975Y-24974D01*
X67988Y-25007D01*
X68059Y-25077D01*
X68151Y-25115D01*
X68250Y-25116D01*
X69000Y-25116D01*
X69092Y-25078D01*
X69162Y-25007D01*
X69200Y-24915D01*
X69201Y-24816D01*
X69201Y-26760D01*
X69149Y-26885D01*
X69149Y-26963D01*
X67681Y-28430D01*
X67585Y-28391D01*
X67307Y-28390D01*
X67203Y-28433D01*
X67203Y-26886D01*
X67123Y-26692D01*
X66976Y-26545D01*
X66976Y-26091D01*
X66953Y-25976D01*
X66888Y-25878D01*
X65552Y-24543D01*
X65553Y-24336D01*
X65553Y-21336D01*
X65473Y-21142D01*
X65324Y-20994D01*
X65131Y-20914D01*
X64921Y-20913D01*
X64727Y-20993D01*
X64579Y-21142D01*
X64499Y-21335D01*
X64498Y-21545D01*
X64578Y-21739D01*
X64727Y-21887D01*
X64920Y-21967D01*
X65130Y-21968D01*
X65324Y-21888D01*
X65472Y-21739D01*
X65552Y-21546D01*
X65553Y-21336D01*
X65553Y-24336D01*
X65473Y-24142D01*
X65324Y-23994D01*
X65131Y-23914D01*
X64921Y-23913D01*
X64727Y-23993D01*
X64579Y-24142D01*
X64499Y-24335D01*
X64498Y-24545D01*
X64578Y-24739D01*
X64727Y-24887D01*
X64920Y-24967D01*
X65128Y-24968D01*
X66376Y-26215D01*
X66376Y-26545D01*
X66229Y-26692D01*
X66149Y-26885D01*
X66148Y-27095D01*
X66228Y-27289D01*
X66377Y-27437D01*
X66570Y-27517D01*
X66780Y-27518D01*
X66974Y-27438D01*
X67122Y-27289D01*
X67202Y-27096D01*
X67203Y-26886D01*
X67203Y-28433D01*
X67050Y-28497D01*
X66852Y-28693D01*
X66746Y-28951D01*
X66745Y-29229D01*
X66852Y-29487D01*
X67049Y-29684D01*
X67306Y-29790D01*
X67584Y-29791D01*
X67842Y-29684D01*
X68039Y-29488D01*
X68145Y-29230D01*
X68146Y-28952D01*
X68106Y-28855D01*
X69480Y-27480D01*
X69541Y-27505D01*
X69352Y-27693D01*
X69246Y-27951D01*
X69245Y-28229D01*
X69352Y-28487D01*
X69549Y-28684D01*
X69806Y-28790D01*
X70084Y-28791D01*
X70342Y-28684D01*
X70539Y-28488D01*
X70645Y-28230D01*
X70646Y-27952D01*
X70646Y-33196D01*
X70075Y-33196D01*
X70075Y-32466D01*
X70075Y-31616D01*
X70037Y-31524D01*
X69981Y-31467D01*
X69981Y-29886D01*
X69824Y-29505D01*
X69533Y-29214D01*
X69152Y-29056D01*
X68741Y-29055D01*
X68360Y-29213D01*
X68069Y-29503D01*
X67911Y-29884D01*
X67910Y-30295D01*
X68068Y-30676D01*
X68359Y-30967D01*
X68739Y-31125D01*
X69151Y-31126D01*
X69531Y-30968D01*
X69822Y-30678D01*
X69980Y-30297D01*
X69981Y-29886D01*
X69981Y-31467D01*
X69967Y-31454D01*
X69875Y-31416D01*
X69776Y-31415D01*
X69026Y-31415D01*
X68934Y-31453D01*
X68863Y-31524D01*
X68850Y-31557D01*
X68689Y-31450D01*
X68450Y-31402D01*
X68211Y-31450D01*
X68008Y-31585D01*
X67873Y-31788D01*
X67825Y-32027D01*
X67825Y-32154D01*
X67873Y-32393D01*
X68008Y-32596D01*
X68211Y-32731D01*
X68450Y-32779D01*
X68689Y-32731D01*
X68850Y-32624D01*
X68863Y-32657D01*
X68934Y-32727D01*
X69025Y-32765D01*
X69125Y-32766D01*
X69875Y-32766D01*
X69967Y-32728D01*
X70037Y-32657D01*
X70075Y-32565D01*
X70075Y-32466D01*
X70075Y-33196D01*
X65148Y-33196D01*
X65191Y-32984D01*
X65191Y-32857D01*
X65143Y-32618D01*
X65011Y-32420D01*
X65143Y-32223D01*
X65191Y-31984D01*
X65191Y-31857D01*
X65143Y-31618D01*
X65011Y-31420D01*
X65143Y-31223D01*
X65191Y-30984D01*
X65191Y-30857D01*
X65143Y-30618D01*
X65011Y-30420D01*
X65143Y-30223D01*
X65191Y-29984D01*
X65191Y-29857D01*
X65143Y-29618D01*
X65011Y-29420D01*
X65143Y-29223D01*
X65191Y-28984D01*
X65191Y-28857D01*
X65143Y-28618D01*
X65011Y-28420D01*
X65143Y-28223D01*
X65191Y-27984D01*
X65191Y-27857D01*
X65143Y-27618D01*
X65011Y-27420D01*
X65143Y-27223D01*
X65191Y-26984D01*
X65191Y-26857D01*
X65143Y-26618D01*
X65008Y-26415D01*
X64805Y-26280D01*
X64566Y-26232D01*
X64326Y-26280D01*
X64124Y-26415D01*
X64066Y-26502D01*
X64008Y-26415D01*
X63805Y-26280D01*
X63566Y-26232D01*
X63326Y-26280D01*
X63124Y-26415D01*
X63066Y-26502D01*
X63008Y-26415D01*
X62805Y-26280D01*
X62566Y-26232D01*
X62326Y-26280D01*
X62124Y-26415D01*
X62066Y-26502D01*
X62008Y-26415D01*
X61961Y-26384D01*
X62015Y-26330D01*
X62080Y-26233D01*
X62103Y-26118D01*
X62103Y-26118D01*
X62103Y-20903D01*
X62169Y-20838D01*
X62209Y-20741D01*
X66437Y-20741D01*
X66180Y-20847D01*
X65982Y-21043D01*
X65876Y-21301D01*
X65875Y-21579D01*
X65982Y-21837D01*
X66178Y-22034D01*
X66436Y-22140D01*
X66714Y-22141D01*
X66972Y-22034D01*
X67169Y-21838D01*
X67275Y-21580D01*
X67276Y-21302D01*
X67169Y-21045D01*
X66973Y-20847D01*
X66715Y-20741D01*
X66576Y-20741D01*
X68442Y-20741D01*
X68482Y-20837D01*
X68678Y-21034D01*
X68936Y-21140D01*
X69214Y-21141D01*
X69472Y-21034D01*
X69669Y-20838D01*
X69775Y-20580D01*
X69776Y-20302D01*
X69704Y-20129D01*
X75947Y-20129D01*
X75876Y-20301D01*
X75875Y-20579D01*
X75982Y-20837D01*
X76178Y-21034D01*
X76436Y-21140D01*
X76714Y-21141D01*
X76972Y-21034D01*
X77169Y-20838D01*
X77209Y-20741D01*
X81437Y-20741D01*
X81180Y-20847D01*
X80982Y-21043D01*
X80876Y-21301D01*
X80875Y-21579D01*
X80982Y-21837D01*
X81178Y-22034D01*
X81436Y-22140D01*
X81714Y-22141D01*
X81972Y-22034D01*
X82169Y-21838D01*
X82275Y-21580D01*
X82276Y-21302D01*
X82169Y-21045D01*
X81973Y-20847D01*
X81715Y-20741D01*
X81576Y-20741D01*
X83442Y-20741D01*
X83482Y-20837D01*
X83678Y-21034D01*
X83936Y-21140D01*
X84214Y-21141D01*
X84472Y-21034D01*
X84669Y-20838D01*
X84775Y-20580D01*
X84776Y-20302D01*
X84704Y-20129D01*
X89395Y-20129D01*
X90672Y-21406D01*
X90371Y-21405D01*
X89990Y-21563D01*
X89776Y-21777D01*
X89776Y-21302D01*
X89669Y-21045D01*
X89473Y-20847D01*
X89215Y-20741D01*
X88937Y-20740D01*
X88680Y-20847D01*
X88482Y-21043D01*
X88376Y-21301D01*
X88375Y-21579D01*
X88482Y-21837D01*
X88678Y-22034D01*
X88936Y-22140D01*
X89214Y-22141D01*
X89472Y-22034D01*
X89669Y-21838D01*
X89775Y-21580D01*
X89776Y-21302D01*
X89776Y-21777D01*
X89699Y-21853D01*
X89541Y-22234D01*
X89540Y-22645D01*
X89698Y-23026D01*
X89988Y-23317D01*
X90369Y-23475D01*
X90780Y-23476D01*
X91161Y-23318D01*
X91452Y-23028D01*
X91610Y-22647D01*
X91611Y-22344D01*
X93826Y-24559D01*
X93826Y-25495D01*
X93679Y-25642D01*
X93599Y-25835D01*
X93598Y-26045D01*
X93678Y-26239D01*
X93827Y-26387D01*
X94020Y-26467D01*
X94230Y-26468D01*
X94424Y-26388D01*
X94572Y-26239D01*
X94652Y-26046D01*
X94653Y-25836D01*
X94573Y-25642D01*
X94426Y-25495D01*
X94426Y-24741D01*
X95530Y-24741D01*
X95677Y-24887D01*
X95870Y-24967D01*
X96080Y-24968D01*
X96274Y-24888D01*
X96422Y-24739D01*
X96502Y-24546D01*
X96503Y-24336D01*
X96503Y-21336D01*
X96423Y-21142D01*
X96274Y-20994D01*
X96081Y-20914D01*
X96076Y-20914D01*
X96076Y-12802D01*
X95969Y-12545D01*
X95773Y-12347D01*
X95515Y-12241D01*
X95237Y-12240D01*
X94980Y-12347D01*
X94782Y-12543D01*
X94676Y-12801D01*
X94675Y-13079D01*
X94782Y-13337D01*
X94978Y-13534D01*
X95236Y-13640D01*
X95514Y-13641D01*
X95772Y-13534D01*
X95969Y-13338D01*
X96075Y-13080D01*
X96076Y-12802D01*
X96076Y-20914D01*
X95871Y-20913D01*
X95677Y-20993D01*
X95529Y-21142D01*
X95501Y-21210D01*
X95501Y-17316D01*
X95501Y-16466D01*
X95463Y-16374D01*
X95411Y-16322D01*
X95411Y-14736D01*
X95253Y-14355D01*
X94963Y-14064D01*
X94582Y-13906D01*
X94171Y-13905D01*
X93790Y-14063D01*
X93576Y-14277D01*
X93576Y-13802D01*
X93469Y-13545D01*
X93273Y-13347D01*
X93015Y-13241D01*
X92737Y-13240D01*
X92480Y-13347D01*
X92282Y-13543D01*
X92176Y-13801D01*
X92175Y-14079D01*
X92282Y-14337D01*
X92478Y-14534D01*
X92736Y-14640D01*
X93014Y-14641D01*
X93272Y-14534D01*
X93469Y-14338D01*
X93575Y-14080D01*
X93576Y-13802D01*
X93576Y-14277D01*
X93499Y-14353D01*
X93341Y-14734D01*
X93340Y-15145D01*
X93498Y-15526D01*
X93788Y-15817D01*
X94169Y-15975D01*
X94580Y-15976D01*
X94961Y-15818D01*
X95252Y-15528D01*
X95410Y-15147D01*
X95411Y-14736D01*
X95411Y-16322D01*
X95392Y-16304D01*
X95300Y-16266D01*
X95201Y-16265D01*
X94451Y-16265D01*
X94359Y-16303D01*
X94289Y-16374D01*
X94275Y-16407D01*
X94115Y-16300D01*
X93876Y-16252D01*
X93636Y-16300D01*
X93434Y-16435D01*
X93298Y-16638D01*
X93251Y-16877D01*
X93251Y-17004D01*
X93298Y-17243D01*
X93434Y-17446D01*
X93636Y-17581D01*
X93876Y-17629D01*
X94115Y-17581D01*
X94275Y-17474D01*
X94288Y-17507D01*
X94359Y-17577D01*
X94451Y-17615D01*
X94550Y-17616D01*
X95300Y-17616D01*
X95392Y-17578D01*
X95462Y-17507D01*
X95500Y-17415D01*
X95501Y-17316D01*
X95501Y-21210D01*
X95449Y-21335D01*
X95448Y-21545D01*
X95528Y-21739D01*
X95677Y-21887D01*
X95870Y-21967D01*
X96080Y-21968D01*
X96274Y-21888D01*
X96422Y-21739D01*
X96502Y-21546D01*
X96503Y-21336D01*
X96503Y-24336D01*
X96423Y-24142D01*
X96274Y-23994D01*
X96081Y-23914D01*
X95871Y-23913D01*
X95677Y-23993D01*
X95530Y-24141D01*
X94256Y-24141D01*
X92276Y-22160D01*
X92276Y-20302D01*
X92169Y-20045D01*
X91973Y-19847D01*
X91715Y-19741D01*
X91437Y-19740D01*
X91180Y-19847D01*
X90982Y-20043D01*
X90876Y-20301D01*
X90875Y-20579D01*
X90982Y-20837D01*
X91178Y-21034D01*
X91436Y-21140D01*
X91714Y-21141D01*
X91972Y-21034D01*
X92169Y-20838D01*
X92275Y-20580D01*
X92276Y-20302D01*
X92276Y-22160D01*
X89820Y-19705D01*
X89820Y-18871D01*
X91223Y-17467D01*
X91430Y-17468D01*
X91624Y-17388D01*
X91772Y-17239D01*
X91852Y-17046D01*
X91853Y-16836D01*
X91853Y-13836D01*
X91773Y-13642D01*
X91624Y-13494D01*
X91431Y-13414D01*
X91221Y-13413D01*
X91027Y-13493D01*
X90879Y-13642D01*
X90799Y-13835D01*
X90798Y-14045D01*
X90878Y-14239D01*
X91027Y-14387D01*
X91220Y-14467D01*
X91430Y-14468D01*
X91624Y-14388D01*
X91772Y-14239D01*
X91852Y-14046D01*
X91853Y-13836D01*
X91853Y-16836D01*
X91773Y-16642D01*
X91624Y-16494D01*
X91431Y-16414D01*
X91223Y-16413D01*
X89726Y-14916D01*
X89726Y-9886D01*
X89872Y-9739D01*
X89952Y-9546D01*
X89953Y-9336D01*
X89885Y-9174D01*
X91391Y-9174D01*
X91351Y-9377D01*
X91351Y-9504D01*
X91398Y-9743D01*
X91534Y-9946D01*
X91736Y-10081D01*
X91976Y-10129D01*
X92215Y-10081D01*
X92375Y-9974D01*
X92388Y-10007D01*
X92459Y-10077D01*
X92551Y-10115D01*
X92650Y-10116D01*
X93400Y-10116D01*
X93492Y-10078D01*
X93562Y-10007D01*
X93600Y-9915D01*
X93601Y-9816D01*
X93601Y-9174D01*
X96466Y-9174D01*
X96399Y-9335D01*
X96398Y-9545D01*
X96478Y-9739D01*
X96626Y-9886D01*
X96626Y-12241D01*
X96648Y-12355D01*
X96713Y-12453D01*
X101099Y-16838D01*
X101098Y-17045D01*
X101178Y-17239D01*
X101327Y-17387D01*
X101520Y-17467D01*
X101730Y-17468D01*
X101924Y-17388D01*
X102072Y-17239D01*
X102152Y-17046D01*
X102153Y-16836D01*
X102153Y-13836D01*
X102073Y-13642D01*
X101924Y-13494D01*
X101731Y-13414D01*
X101521Y-13413D01*
X101327Y-13493D01*
X101179Y-13642D01*
X101099Y-13835D01*
X101098Y-14045D01*
X101178Y-14239D01*
X101327Y-14387D01*
X101520Y-14467D01*
X101730Y-14468D01*
X101924Y-14388D01*
X102072Y-14239D01*
X102152Y-14046D01*
X102153Y-13836D01*
X102153Y-16836D01*
X102073Y-16642D01*
X101924Y-16494D01*
X101731Y-16414D01*
X101523Y-16413D01*
X97226Y-12116D01*
X97226Y-9886D01*
X97372Y-9739D01*
X97452Y-9546D01*
X97453Y-9336D01*
X97385Y-9174D01*
X98891Y-9174D01*
X98851Y-9377D01*
X98851Y-9504D01*
X98898Y-9743D01*
X99034Y-9946D01*
X99236Y-10081D01*
X99476Y-10129D01*
X99715Y-10081D01*
X99875Y-9974D01*
X99888Y-10007D01*
X99959Y-10077D01*
X100051Y-10115D01*
X100150Y-10116D01*
X100900Y-10116D01*
X100992Y-10078D01*
X101062Y-10007D01*
X101100Y-9915D01*
X101101Y-9816D01*
X101101Y-9174D01*
X103734Y-9174D01*
X103899Y-9338D01*
X103898Y-9545D01*
X103978Y-9739D01*
X104127Y-9887D01*
X104320Y-9967D01*
X104530Y-9968D01*
X104724Y-9888D01*
X104872Y-9739D01*
X104952Y-9546D01*
X104953Y-9336D01*
X104953Y-6336D01*
X104873Y-6142D01*
X104724Y-5994D01*
X104531Y-5914D01*
X104321Y-5913D01*
X104127Y-5993D01*
X103979Y-6142D01*
X103899Y-6335D01*
X103898Y-6545D01*
X103978Y-6739D01*
X104127Y-6887D01*
X104320Y-6967D01*
X104530Y-6968D01*
X104724Y-6888D01*
X104872Y-6739D01*
X104952Y-6546D01*
X104953Y-6336D01*
X104953Y-9336D01*
X104873Y-9142D01*
X104724Y-8994D01*
X104531Y-8914D01*
X104323Y-8913D01*
X104071Y-8662D01*
X103973Y-8596D01*
X103859Y-8574D01*
X101676Y-8574D01*
X101676Y-5302D01*
X101569Y-5045D01*
X101373Y-4847D01*
X101115Y-4741D01*
X100837Y-4740D01*
X100580Y-4847D01*
X100382Y-5043D01*
X100276Y-5301D01*
X100275Y-5579D01*
X100382Y-5837D01*
X100578Y-6034D01*
X100836Y-6140D01*
X101114Y-6141D01*
X101372Y-6034D01*
X101569Y-5838D01*
X101675Y-5580D01*
X101676Y-5302D01*
X101676Y-8574D01*
X101011Y-8574D01*
X101011Y-7236D01*
X100853Y-6855D01*
X100563Y-6564D01*
X100182Y-6406D01*
X99771Y-6405D01*
X99390Y-6563D01*
X99176Y-6777D01*
X99176Y-6302D01*
X99069Y-6045D01*
X98873Y-5847D01*
X98615Y-5741D01*
X98337Y-5740D01*
X98080Y-5847D01*
X97882Y-6043D01*
X97776Y-6301D01*
X97775Y-6579D01*
X97882Y-6837D01*
X98078Y-7034D01*
X98336Y-7140D01*
X98614Y-7141D01*
X98872Y-7034D01*
X99069Y-6838D01*
X99175Y-6580D01*
X99176Y-6302D01*
X99176Y-6777D01*
X99099Y-6853D01*
X98941Y-7234D01*
X98940Y-7645D01*
X99098Y-8026D01*
X99388Y-8317D01*
X99769Y-8475D01*
X100180Y-8476D01*
X100561Y-8318D01*
X100852Y-8028D01*
X101010Y-7647D01*
X101011Y-7236D01*
X101011Y-8574D01*
X97453Y-8574D01*
X97453Y-6336D01*
X97373Y-6142D01*
X97224Y-5994D01*
X97031Y-5914D01*
X96821Y-5913D01*
X96627Y-5993D01*
X96479Y-6142D01*
X96399Y-6335D01*
X96398Y-6545D01*
X96478Y-6739D01*
X96627Y-6887D01*
X96820Y-6967D01*
X97030Y-6968D01*
X97224Y-6888D01*
X97372Y-6739D01*
X97452Y-6546D01*
X97453Y-6336D01*
X97453Y-8574D01*
X94176Y-8574D01*
X94176Y-5302D01*
X94069Y-5045D01*
X93873Y-4847D01*
X93615Y-4741D01*
X93337Y-4740D01*
X93080Y-4847D01*
X92882Y-5043D01*
X92776Y-5301D01*
X92775Y-5579D01*
X92882Y-5837D01*
X93078Y-6034D01*
X93336Y-6140D01*
X93614Y-6141D01*
X93872Y-6034D01*
X94069Y-5838D01*
X94175Y-5580D01*
X94176Y-5302D01*
X94176Y-8574D01*
X93511Y-8574D01*
X93511Y-7236D01*
X93353Y-6855D01*
X93063Y-6564D01*
X92682Y-6406D01*
X92271Y-6405D01*
X91890Y-6563D01*
X91676Y-6777D01*
X91676Y-6302D01*
X91569Y-6045D01*
X91373Y-5847D01*
X91115Y-5741D01*
X90837Y-5740D01*
X90580Y-5847D01*
X90382Y-6043D01*
X90276Y-6301D01*
X90275Y-6579D01*
X90382Y-6837D01*
X90578Y-7034D01*
X90836Y-7140D01*
X91114Y-7141D01*
X91372Y-7034D01*
X91569Y-6838D01*
X91675Y-6580D01*
X91676Y-6302D01*
X91676Y-6777D01*
X91599Y-6853D01*
X91441Y-7234D01*
X91440Y-7645D01*
X91598Y-8026D01*
X91888Y-8317D01*
X92269Y-8475D01*
X92680Y-8476D01*
X93061Y-8318D01*
X93352Y-8028D01*
X93510Y-7647D01*
X93511Y-7236D01*
X93511Y-8574D01*
X89953Y-8574D01*
X89953Y-6336D01*
X89873Y-6142D01*
X89724Y-5994D01*
X89531Y-5914D01*
X89321Y-5913D01*
X89127Y-5993D01*
X88979Y-6142D01*
X88899Y-6335D01*
X88898Y-6545D01*
X88978Y-6739D01*
X89127Y-6887D01*
X89320Y-6967D01*
X89530Y-6968D01*
X89724Y-6888D01*
X89872Y-6739D01*
X89952Y-6546D01*
X89953Y-6336D01*
X89953Y-8574D01*
X86676Y-8574D01*
X86676Y-5302D01*
X86569Y-5045D01*
X86373Y-4847D01*
X86115Y-4741D01*
X85837Y-4740D01*
X85580Y-4847D01*
X85382Y-5043D01*
X85276Y-5301D01*
X85275Y-5579D01*
X85382Y-5837D01*
X85578Y-6034D01*
X85836Y-6140D01*
X86114Y-6141D01*
X86372Y-6034D01*
X86569Y-5838D01*
X86675Y-5580D01*
X86676Y-5302D01*
X86676Y-8574D01*
X86011Y-8574D01*
X86011Y-7236D01*
X85853Y-6855D01*
X85563Y-6564D01*
X85182Y-6406D01*
X84771Y-6405D01*
X84390Y-6563D01*
X84176Y-6777D01*
X84176Y-6302D01*
X84069Y-6045D01*
X83873Y-5847D01*
X83615Y-5741D01*
X83337Y-5740D01*
X83080Y-5847D01*
X82882Y-6043D01*
X82776Y-6301D01*
X82775Y-6579D01*
X82882Y-6837D01*
X83078Y-7034D01*
X83336Y-7140D01*
X83614Y-7141D01*
X83872Y-7034D01*
X84069Y-6838D01*
X84175Y-6580D01*
X84176Y-6302D01*
X84176Y-6777D01*
X84099Y-6853D01*
X83941Y-7234D01*
X83940Y-7645D01*
X84098Y-8026D01*
X84388Y-8317D01*
X84769Y-8475D01*
X85180Y-8476D01*
X85561Y-8318D01*
X85852Y-8028D01*
X86010Y-7647D01*
X86011Y-7236D01*
X86011Y-8574D01*
X82453Y-8574D01*
X82453Y-6336D01*
X82373Y-6142D01*
X82224Y-5994D01*
X82031Y-5914D01*
X81821Y-5913D01*
X81627Y-5993D01*
X81479Y-6142D01*
X81399Y-6335D01*
X81398Y-6545D01*
X81478Y-6739D01*
X81627Y-6887D01*
X81820Y-6967D01*
X82030Y-6968D01*
X82224Y-6888D01*
X82372Y-6739D01*
X82452Y-6546D01*
X82453Y-6336D01*
X82453Y-8574D01*
X79176Y-8574D01*
X79176Y-5302D01*
X79069Y-5045D01*
X78873Y-4847D01*
X78615Y-4741D01*
X78337Y-4740D01*
X78080Y-4847D01*
X77882Y-5043D01*
X77776Y-5301D01*
X77775Y-5579D01*
X77882Y-5837D01*
X78078Y-6034D01*
X78336Y-6140D01*
X78614Y-6141D01*
X78872Y-6034D01*
X79069Y-5838D01*
X79175Y-5580D01*
X79176Y-5302D01*
X79176Y-8574D01*
X78511Y-8574D01*
X78511Y-7236D01*
X78353Y-6855D01*
X78063Y-6564D01*
X77682Y-6406D01*
X77271Y-6405D01*
X76890Y-6563D01*
X76676Y-6777D01*
X76676Y-6302D01*
X76569Y-6045D01*
X76373Y-5847D01*
X76115Y-5741D01*
X75837Y-5740D01*
X75580Y-5847D01*
X75382Y-6043D01*
X75276Y-6301D01*
X75275Y-6579D01*
X75382Y-6837D01*
X75578Y-7034D01*
X75836Y-7140D01*
X76114Y-7141D01*
X76372Y-7034D01*
X76569Y-6838D01*
X76675Y-6580D01*
X76676Y-6302D01*
X76676Y-6777D01*
X76599Y-6853D01*
X76441Y-7234D01*
X76440Y-7645D01*
X76598Y-8026D01*
X76888Y-8317D01*
X77269Y-8475D01*
X77680Y-8476D01*
X78061Y-8318D01*
X78352Y-8028D01*
X78510Y-7647D01*
X78511Y-7236D01*
X78511Y-8574D01*
X74953Y-8574D01*
X74953Y-6336D01*
X74873Y-6142D01*
X74724Y-5994D01*
X74531Y-5914D01*
X74321Y-5913D01*
X74127Y-5993D01*
X73979Y-6142D01*
X73899Y-6335D01*
X73898Y-6545D01*
X73978Y-6739D01*
X74127Y-6887D01*
X74320Y-6967D01*
X74530Y-6968D01*
X74724Y-6888D01*
X74872Y-6739D01*
X74952Y-6546D01*
X74953Y-6336D01*
X74953Y-8574D01*
X71676Y-8574D01*
X71676Y-5302D01*
X71569Y-5045D01*
X71373Y-4847D01*
X71115Y-4741D01*
X70837Y-4740D01*
X70580Y-4847D01*
X70382Y-5043D01*
X70276Y-5301D01*
X70275Y-5579D01*
X70382Y-5837D01*
X70578Y-6034D01*
X70836Y-6140D01*
X71114Y-6141D01*
X71372Y-6034D01*
X71569Y-5838D01*
X71675Y-5580D01*
X71676Y-5302D01*
X71676Y-8574D01*
X71011Y-8574D01*
X71011Y-7236D01*
X70853Y-6855D01*
X70563Y-6564D01*
X70182Y-6406D01*
X69771Y-6405D01*
X69390Y-6563D01*
X69176Y-6777D01*
X69176Y-6302D01*
X69069Y-6045D01*
X68873Y-5847D01*
X68615Y-5741D01*
X68337Y-5740D01*
X68080Y-5847D01*
X67882Y-6043D01*
X67776Y-6301D01*
X67775Y-6579D01*
X67882Y-6837D01*
X68078Y-7034D01*
X68336Y-7140D01*
X68614Y-7141D01*
X68872Y-7034D01*
X69069Y-6838D01*
X69175Y-6580D01*
X69176Y-6302D01*
X69176Y-6777D01*
X69099Y-6853D01*
X68941Y-7234D01*
X68940Y-7645D01*
X69098Y-8026D01*
X69388Y-8317D01*
X69769Y-8475D01*
X70180Y-8476D01*
X70561Y-8318D01*
X70852Y-8028D01*
X71010Y-7647D01*
X71011Y-7236D01*
X71011Y-8574D01*
X67453Y-8574D01*
X67453Y-6336D01*
X67373Y-6142D01*
X67224Y-5994D01*
X67031Y-5914D01*
X66821Y-5913D01*
X66627Y-5993D01*
X66479Y-6142D01*
X66399Y-6335D01*
X66398Y-6545D01*
X66478Y-6739D01*
X66627Y-6887D01*
X66820Y-6967D01*
X67030Y-6968D01*
X67224Y-6888D01*
X67372Y-6739D01*
X67452Y-6546D01*
X67453Y-6336D01*
X67453Y-8574D01*
X66888Y-8574D01*
X66773Y-8596D01*
X66676Y-8662D01*
X64176Y-11162D01*
X64176Y-5302D01*
X64069Y-5045D01*
X63873Y-4847D01*
X63615Y-4741D01*
X63337Y-4740D01*
X63080Y-4847D01*
X62882Y-5043D01*
X62776Y-5301D01*
X62775Y-5579D01*
X62882Y-5837D01*
X63078Y-6034D01*
X63336Y-6140D01*
X63614Y-6141D01*
X63872Y-6034D01*
X64069Y-5838D01*
X64175Y-5580D01*
X64176Y-5302D01*
X64176Y-11162D01*
X63981Y-11357D01*
X63916Y-11454D01*
X63893Y-11569D01*
X63893Y-13547D01*
X63601Y-13839D01*
X63601Y-9816D01*
X63601Y-8966D01*
X63563Y-8874D01*
X63511Y-8822D01*
X63511Y-7236D01*
X63353Y-6855D01*
X63063Y-6564D01*
X62682Y-6406D01*
X62271Y-6405D01*
X61890Y-6563D01*
X61676Y-6777D01*
X61676Y-6302D01*
X61569Y-6045D01*
X61373Y-5847D01*
X61115Y-5741D01*
X60837Y-5740D01*
X60580Y-5847D01*
X60382Y-6043D01*
X60276Y-6301D01*
X60275Y-6579D01*
X60382Y-6837D01*
X60578Y-7034D01*
X60836Y-7140D01*
X61114Y-7141D01*
X61372Y-7034D01*
X61569Y-6838D01*
X61675Y-6580D01*
X61676Y-6302D01*
X61676Y-6777D01*
X61599Y-6853D01*
X61441Y-7234D01*
X61440Y-7645D01*
X61598Y-8026D01*
X61888Y-8317D01*
X62269Y-8475D01*
X62680Y-8476D01*
X63061Y-8318D01*
X63352Y-8028D01*
X63510Y-7647D01*
X63511Y-7236D01*
X63511Y-8822D01*
X63492Y-8804D01*
X63400Y-8766D01*
X63301Y-8765D01*
X62551Y-8765D01*
X62459Y-8803D01*
X62389Y-8874D01*
X62375Y-8907D01*
X62215Y-8800D01*
X61976Y-8752D01*
X61736Y-8800D01*
X61534Y-8935D01*
X61398Y-9138D01*
X61351Y-9377D01*
X61351Y-9504D01*
X61398Y-9743D01*
X61534Y-9946D01*
X61736Y-10081D01*
X61976Y-10129D01*
X62215Y-10081D01*
X62375Y-9974D01*
X62388Y-10007D01*
X62459Y-10077D01*
X62551Y-10115D01*
X62650Y-10116D01*
X63400Y-10116D01*
X63492Y-10078D01*
X63562Y-10007D01*
X63600Y-9915D01*
X63601Y-9816D01*
X63601Y-13839D01*
X63576Y-13864D01*
X63576Y-13802D01*
X63469Y-13545D01*
X63273Y-13347D01*
X63015Y-13241D01*
X62737Y-13240D01*
X62480Y-13347D01*
X62282Y-13543D01*
X62176Y-13801D01*
X62175Y-14079D01*
X62282Y-14337D01*
X62478Y-14534D01*
X62736Y-14640D01*
X62799Y-14640D01*
X62431Y-15008D01*
X62366Y-15106D01*
X62343Y-15220D01*
X62343Y-16096D01*
X61853Y-16587D01*
X61853Y-13836D01*
X61773Y-13642D01*
X61624Y-13494D01*
X61431Y-13414D01*
X61221Y-13413D01*
X61027Y-13493D01*
X60879Y-13642D01*
X60799Y-13835D01*
X60798Y-14045D01*
X60878Y-14239D01*
X61027Y-14387D01*
X61220Y-14467D01*
X61430Y-14468D01*
X61624Y-14388D01*
X61772Y-14239D01*
X61852Y-14046D01*
X61853Y-13836D01*
X61853Y-16587D01*
X61780Y-16660D01*
X61773Y-16642D01*
X61624Y-16494D01*
X61431Y-16414D01*
X61223Y-16413D01*
X59726Y-14916D01*
X59726Y-9886D01*
X59872Y-9739D01*
X59952Y-9546D01*
X59953Y-9336D01*
X59953Y-6336D01*
X59873Y-6142D01*
X59724Y-5994D01*
X59531Y-5914D01*
X59321Y-5913D01*
X59127Y-5993D01*
X58979Y-6142D01*
X58899Y-6335D01*
X58898Y-6545D01*
X58978Y-6739D01*
X59127Y-6887D01*
X59320Y-6967D01*
X59530Y-6968D01*
X59724Y-6888D01*
X59872Y-6739D01*
X59952Y-6546D01*
X59953Y-6336D01*
X59953Y-9336D01*
X59873Y-9142D01*
X59724Y-8994D01*
X59531Y-8914D01*
X59321Y-8913D01*
X59127Y-8993D01*
X58979Y-9142D01*
X58899Y-9335D01*
X58898Y-9545D01*
X58978Y-9739D01*
X59126Y-9886D01*
X59126Y-15041D01*
X59148Y-15155D01*
X59213Y-15253D01*
X60799Y-16838D01*
X60798Y-17045D01*
X60878Y-17239D01*
X60971Y-17332D01*
X60474Y-17332D01*
X60359Y-17354D01*
X60262Y-17419D01*
X58576Y-19106D01*
X58576Y-12802D01*
X58469Y-12545D01*
X58273Y-12347D01*
X58015Y-12241D01*
X57737Y-12240D01*
X57480Y-12347D01*
X57282Y-12543D01*
X57242Y-12641D01*
X56676Y-12641D01*
X56676Y-5302D01*
X56569Y-5045D01*
X56373Y-4847D01*
X56115Y-4741D01*
X55837Y-4740D01*
X55580Y-4847D01*
X55382Y-5043D01*
X55276Y-5301D01*
X55275Y-5579D01*
X55382Y-5837D01*
X55578Y-6034D01*
X55836Y-6140D01*
X56114Y-6141D01*
X56372Y-6034D01*
X56569Y-5838D01*
X56675Y-5580D01*
X56676Y-5302D01*
X56676Y-12641D01*
X56101Y-12641D01*
X56101Y-9816D01*
X56101Y-8966D01*
X56063Y-8874D01*
X56011Y-8822D01*
X56011Y-7236D01*
X55853Y-6855D01*
X55563Y-6564D01*
X55182Y-6406D01*
X54771Y-6405D01*
X54390Y-6563D01*
X54176Y-6777D01*
X54176Y-6302D01*
X54069Y-6045D01*
X53873Y-5847D01*
X53615Y-5741D01*
X53337Y-5740D01*
X53080Y-5847D01*
X52882Y-6043D01*
X52776Y-6301D01*
X52775Y-6579D01*
X52882Y-6837D01*
X53078Y-7034D01*
X53336Y-7140D01*
X53614Y-7141D01*
X53872Y-7034D01*
X54069Y-6838D01*
X54175Y-6580D01*
X54176Y-6302D01*
X54176Y-6777D01*
X54099Y-6853D01*
X53941Y-7234D01*
X53940Y-7645D01*
X54098Y-8026D01*
X54388Y-8317D01*
X54769Y-8475D01*
X55180Y-8476D01*
X55561Y-8318D01*
X55852Y-8028D01*
X56010Y-7647D01*
X56011Y-7236D01*
X56011Y-8822D01*
X55992Y-8804D01*
X55900Y-8766D01*
X55801Y-8765D01*
X55051Y-8765D01*
X54959Y-8803D01*
X54889Y-8874D01*
X54875Y-8907D01*
X54715Y-8800D01*
X54476Y-8752D01*
X54236Y-8800D01*
X54034Y-8935D01*
X53898Y-9138D01*
X53851Y-9377D01*
X53851Y-9504D01*
X53898Y-9743D01*
X54034Y-9946D01*
X54236Y-10081D01*
X54476Y-10129D01*
X54715Y-10081D01*
X54875Y-9974D01*
X54888Y-10007D01*
X54959Y-10077D01*
X55051Y-10115D01*
X55150Y-10116D01*
X55900Y-10116D01*
X55992Y-10078D01*
X56062Y-10007D01*
X56100Y-9915D01*
X56101Y-9816D01*
X56101Y-12641D01*
X52453Y-12641D01*
X52453Y-9336D01*
X52453Y-6336D01*
X52373Y-6142D01*
X52224Y-5994D01*
X52031Y-5914D01*
X51821Y-5913D01*
X51627Y-5993D01*
X51479Y-6142D01*
X51399Y-6335D01*
X51398Y-6545D01*
X51478Y-6739D01*
X51627Y-6887D01*
X51820Y-6967D01*
X52030Y-6968D01*
X52224Y-6888D01*
X52372Y-6739D01*
X52452Y-6546D01*
X52453Y-6336D01*
X52453Y-9336D01*
X52373Y-9142D01*
X52224Y-8994D01*
X52031Y-8914D01*
X51821Y-8913D01*
X51627Y-8993D01*
X51479Y-9142D01*
X51399Y-9335D01*
X51398Y-9545D01*
X51478Y-9739D01*
X51627Y-9887D01*
X51820Y-9967D01*
X52030Y-9968D01*
X52224Y-9888D01*
X52372Y-9739D01*
X52452Y-9546D01*
X52453Y-9336D01*
X52453Y-12641D01*
X51009Y-12641D01*
X50969Y-12545D01*
X50773Y-12347D01*
X50515Y-12241D01*
X50237Y-12240D01*
X49980Y-12347D01*
X49782Y-12543D01*
X49676Y-12801D01*
X49675Y-13079D01*
X49782Y-13337D01*
X49978Y-13534D01*
X50236Y-13640D01*
X50514Y-13641D01*
X50772Y-13534D01*
X50969Y-13338D01*
X51009Y-13241D01*
X55237Y-13241D01*
X54980Y-13347D01*
X54782Y-13543D01*
X54676Y-13801D01*
X54675Y-14079D01*
X54782Y-14337D01*
X54978Y-14534D01*
X55236Y-14640D01*
X55514Y-14641D01*
X55772Y-14534D01*
X55969Y-14338D01*
X56075Y-14080D01*
X56076Y-13802D01*
X55969Y-13545D01*
X55773Y-13347D01*
X55515Y-13241D01*
X55376Y-13241D01*
X57242Y-13241D01*
X57282Y-13337D01*
X57478Y-13534D01*
X57736Y-13640D01*
X58014Y-13641D01*
X58272Y-13534D01*
X58469Y-13338D01*
X58575Y-13080D01*
X58576Y-12802D01*
X58576Y-19106D01*
X54766Y-22915D01*
X54701Y-23012D01*
X54678Y-23127D01*
X54678Y-24303D01*
X54478Y-24503D01*
X54478Y-21765D01*
X55538Y-20705D01*
X55538Y-20705D01*
X55603Y-20608D01*
X55625Y-20493D01*
X55626Y-20493D01*
X55626Y-18741D01*
X57080Y-18741D01*
X57227Y-18887D01*
X57420Y-18967D01*
X57630Y-18968D01*
X57824Y-18888D01*
X57972Y-18739D01*
X58052Y-18546D01*
X58053Y-18336D01*
X58001Y-18210D01*
X58001Y-17316D01*
X58001Y-16466D01*
X57963Y-16374D01*
X57911Y-16322D01*
X57911Y-14736D01*
X57753Y-14355D01*
X57463Y-14064D01*
X57082Y-13906D01*
X56671Y-13905D01*
X56290Y-14063D01*
X55999Y-14353D01*
X55841Y-14734D01*
X55840Y-15145D01*
X55998Y-15526D01*
X56288Y-15817D01*
X56669Y-15975D01*
X57080Y-15976D01*
X57461Y-15818D01*
X57752Y-15528D01*
X57910Y-15147D01*
X57911Y-14736D01*
X57911Y-16322D01*
X57892Y-16304D01*
X57800Y-16266D01*
X57701Y-16265D01*
X56951Y-16265D01*
X56859Y-16303D01*
X56789Y-16374D01*
X56775Y-16407D01*
X56615Y-16300D01*
X56376Y-16252D01*
X56136Y-16300D01*
X55934Y-16435D01*
X55798Y-16638D01*
X55751Y-16877D01*
X55751Y-17004D01*
X55798Y-17243D01*
X55934Y-17446D01*
X56136Y-17581D01*
X56376Y-17629D01*
X56615Y-17581D01*
X56775Y-17474D01*
X56788Y-17507D01*
X56859Y-17577D01*
X56951Y-17615D01*
X57050Y-17616D01*
X57800Y-17616D01*
X57892Y-17578D01*
X57962Y-17507D01*
X58000Y-17415D01*
X58001Y-17316D01*
X58001Y-18210D01*
X57973Y-18142D01*
X57824Y-17994D01*
X57631Y-17914D01*
X57421Y-17913D01*
X57227Y-17993D01*
X57080Y-18141D01*
X55450Y-18141D01*
X54352Y-17043D01*
X54353Y-16836D01*
X54353Y-13836D01*
X54273Y-13642D01*
X54124Y-13494D01*
X53931Y-13414D01*
X53721Y-13413D01*
X53527Y-13493D01*
X53379Y-13642D01*
X53299Y-13835D01*
X53298Y-14045D01*
X53378Y-14239D01*
X53527Y-14387D01*
X53720Y-14467D01*
X53930Y-14468D01*
X54124Y-14388D01*
X54272Y-14239D01*
X54352Y-14046D01*
X54353Y-13836D01*
X54353Y-16836D01*
X54273Y-16642D01*
X54124Y-16494D01*
X53931Y-16414D01*
X53721Y-16413D01*
X53527Y-16493D01*
X53379Y-16642D01*
X53299Y-16835D01*
X53298Y-17045D01*
X53378Y-17239D01*
X53527Y-17387D01*
X53720Y-17467D01*
X53928Y-17468D01*
X55026Y-18565D01*
X55026Y-20369D01*
X54748Y-20647D01*
X54775Y-20580D01*
X54776Y-20302D01*
X54669Y-20045D01*
X54473Y-19847D01*
X54215Y-19741D01*
X53937Y-19740D01*
X53680Y-19847D01*
X53482Y-20043D01*
X53376Y-20301D01*
X53375Y-20579D01*
X53482Y-20837D01*
X53678Y-21034D01*
X53936Y-21140D01*
X54214Y-21141D01*
X54282Y-21113D01*
X53966Y-21429D01*
X53901Y-21526D01*
X53878Y-21641D01*
X53878Y-21779D01*
X53663Y-21564D01*
X53282Y-21406D01*
X52871Y-21405D01*
X52490Y-21563D01*
X52199Y-21853D01*
X52041Y-22234D01*
X52040Y-22645D01*
X52198Y-23026D01*
X52488Y-23317D01*
X52869Y-23475D01*
X53280Y-23476D01*
X53661Y-23318D01*
X53878Y-23102D01*
X53878Y-23765D01*
X53151Y-23765D01*
X53059Y-23803D01*
X52989Y-23874D01*
X52975Y-23907D01*
X52815Y-23800D01*
X52576Y-23752D01*
X52336Y-23800D01*
X52134Y-23935D01*
X51998Y-24138D01*
X51951Y-24377D01*
X51951Y-24504D01*
X51998Y-24743D01*
X52134Y-24946D01*
X52336Y-25081D01*
X52576Y-25129D01*
X52815Y-25081D01*
X52975Y-24974D01*
X52988Y-25007D01*
X53059Y-25077D01*
X53151Y-25115D01*
X53250Y-25116D01*
X53481Y-25116D01*
X52646Y-25950D01*
X52581Y-26048D01*
X52559Y-26162D01*
X52559Y-27261D01*
X52581Y-27376D01*
X52646Y-27473D01*
X55607Y-30434D01*
X55607Y-30434D01*
X55705Y-30499D01*
X55820Y-30522D01*
X56521Y-30522D01*
X57298Y-31299D01*
X57124Y-31415D01*
X56988Y-31618D01*
X56941Y-31857D01*
X56941Y-31871D01*
X50985Y-25915D01*
X50985Y-21840D01*
X51178Y-22034D01*
X51436Y-22140D01*
X51714Y-22141D01*
X51972Y-22034D01*
X52169Y-21838D01*
X52275Y-21580D01*
X52276Y-21302D01*
X52169Y-21045D01*
X51973Y-20847D01*
X51715Y-20741D01*
X51437Y-20740D01*
X51180Y-20847D01*
X50985Y-21041D01*
X50985Y-19100D01*
X50985Y-19100D01*
X50962Y-18985D01*
X50897Y-18888D01*
X50897Y-18888D01*
X50552Y-18543D01*
X50553Y-18336D01*
X50501Y-18210D01*
X50501Y-17316D01*
X50501Y-16466D01*
X50463Y-16374D01*
X50411Y-16322D01*
X50411Y-14736D01*
X50253Y-14355D01*
X49963Y-14064D01*
X49582Y-13906D01*
X49176Y-13905D01*
X49176Y-5302D01*
X49069Y-5045D01*
X48873Y-4847D01*
X48615Y-4741D01*
X48337Y-4740D01*
X48080Y-4847D01*
X47882Y-5043D01*
X47776Y-5301D01*
X47775Y-5579D01*
X47882Y-5837D01*
X48078Y-6034D01*
X48336Y-6140D01*
X48614Y-6141D01*
X48872Y-6034D01*
X49069Y-5838D01*
X49175Y-5580D01*
X49176Y-5302D01*
X49176Y-13905D01*
X49171Y-13905D01*
X48790Y-14063D01*
X48601Y-14252D01*
X48601Y-9816D01*
X48601Y-8966D01*
X48563Y-8874D01*
X48511Y-8822D01*
X48511Y-7236D01*
X48353Y-6855D01*
X48063Y-6564D01*
X47682Y-6406D01*
X47271Y-6405D01*
X46890Y-6563D01*
X46676Y-6777D01*
X46676Y-6302D01*
X46569Y-6045D01*
X46373Y-5847D01*
X46115Y-5741D01*
X45837Y-5740D01*
X45580Y-5847D01*
X45382Y-6043D01*
X45276Y-6301D01*
X45275Y-6579D01*
X45382Y-6837D01*
X45578Y-7034D01*
X45836Y-7140D01*
X46114Y-7141D01*
X46372Y-7034D01*
X46569Y-6838D01*
X46675Y-6580D01*
X46676Y-6302D01*
X46676Y-6777D01*
X46599Y-6853D01*
X46441Y-7234D01*
X46440Y-7645D01*
X46598Y-8026D01*
X46888Y-8317D01*
X47269Y-8475D01*
X47680Y-8476D01*
X48061Y-8318D01*
X48352Y-8028D01*
X48510Y-7647D01*
X48511Y-7236D01*
X48511Y-8822D01*
X48492Y-8804D01*
X48400Y-8766D01*
X48301Y-8765D01*
X47551Y-8765D01*
X47459Y-8803D01*
X47389Y-8874D01*
X47375Y-8907D01*
X47215Y-8800D01*
X46976Y-8752D01*
X46736Y-8800D01*
X46534Y-8935D01*
X46398Y-9138D01*
X46351Y-9377D01*
X46351Y-9504D01*
X46398Y-9743D01*
X46534Y-9946D01*
X46736Y-10081D01*
X46976Y-10129D01*
X47215Y-10081D01*
X47375Y-9974D01*
X47388Y-10007D01*
X47459Y-10077D01*
X47551Y-10115D01*
X47650Y-10116D01*
X48400Y-10116D01*
X48492Y-10078D01*
X48562Y-10007D01*
X48600Y-9915D01*
X48601Y-9816D01*
X48601Y-14252D01*
X48576Y-14277D01*
X48576Y-13802D01*
X48469Y-13545D01*
X48273Y-13347D01*
X48015Y-13241D01*
X47737Y-13240D01*
X47480Y-13347D01*
X47282Y-13543D01*
X47176Y-13801D01*
X47175Y-14079D01*
X47282Y-14337D01*
X47478Y-14534D01*
X47736Y-14640D01*
X48014Y-14641D01*
X48272Y-14534D01*
X48469Y-14338D01*
X48575Y-14080D01*
X48576Y-13802D01*
X48576Y-14277D01*
X48499Y-14353D01*
X48341Y-14734D01*
X48340Y-15145D01*
X48498Y-15526D01*
X48788Y-15817D01*
X49169Y-15975D01*
X49580Y-15976D01*
X49961Y-15818D01*
X50252Y-15528D01*
X50410Y-15147D01*
X50411Y-14736D01*
X50411Y-16322D01*
X50392Y-16304D01*
X50300Y-16266D01*
X50201Y-16265D01*
X49451Y-16265D01*
X49359Y-16303D01*
X49289Y-16374D01*
X49275Y-16407D01*
X49115Y-16300D01*
X48876Y-16252D01*
X48636Y-16300D01*
X48434Y-16435D01*
X48298Y-16638D01*
X48251Y-16877D01*
X48251Y-17004D01*
X48298Y-17243D01*
X48434Y-17446D01*
X48636Y-17581D01*
X48876Y-17629D01*
X49115Y-17581D01*
X49275Y-17474D01*
X49288Y-17507D01*
X49359Y-17577D01*
X49451Y-17615D01*
X49550Y-17616D01*
X50300Y-17616D01*
X50392Y-17578D01*
X50462Y-17507D01*
X50500Y-17415D01*
X50501Y-17316D01*
X50501Y-18210D01*
X50473Y-18142D01*
X50324Y-17994D01*
X50131Y-17914D01*
X49921Y-17913D01*
X49727Y-17993D01*
X49580Y-18141D01*
X48372Y-18141D01*
X47047Y-16816D01*
X47047Y-11762D01*
X47047Y-11762D01*
X47025Y-11648D01*
X46960Y-11550D01*
X46960Y-11550D01*
X44952Y-9543D01*
X44953Y-9336D01*
X44953Y-6336D01*
X44873Y-6142D01*
X44724Y-5994D01*
X44531Y-5914D01*
X44321Y-5913D01*
X44127Y-5993D01*
X43979Y-6142D01*
X43899Y-6335D01*
X43898Y-6545D01*
X43978Y-6739D01*
X44127Y-6887D01*
X44320Y-6967D01*
X44530Y-6968D01*
X44724Y-6888D01*
X44872Y-6739D01*
X44952Y-6546D01*
X44953Y-6336D01*
X44953Y-9336D01*
X44873Y-9142D01*
X44724Y-8994D01*
X44531Y-8914D01*
X44321Y-8913D01*
X44127Y-8993D01*
X43979Y-9142D01*
X43899Y-9335D01*
X43898Y-9545D01*
X43978Y-9739D01*
X44127Y-9887D01*
X44320Y-9967D01*
X44528Y-9968D01*
X46447Y-11887D01*
X46447Y-13420D01*
X46431Y-13414D01*
X46221Y-13413D01*
X46027Y-13493D01*
X45879Y-13642D01*
X45799Y-13835D01*
X45798Y-14045D01*
X45878Y-14239D01*
X46027Y-14387D01*
X46220Y-14467D01*
X46430Y-14468D01*
X46447Y-14460D01*
X46447Y-16420D01*
X46431Y-16414D01*
X46221Y-16413D01*
X46027Y-16493D01*
X45879Y-16642D01*
X45799Y-16835D01*
X45798Y-17045D01*
X45878Y-17239D01*
X46027Y-17387D01*
X46220Y-17467D01*
X46430Y-17468D01*
X46624Y-17388D01*
X46697Y-17314D01*
X48035Y-18653D01*
X48035Y-18653D01*
X48133Y-18718D01*
X48247Y-18741D01*
X49580Y-18741D01*
X49727Y-18887D01*
X49920Y-18967D01*
X50128Y-18968D01*
X50385Y-19224D01*
X50385Y-21055D01*
X50324Y-20994D01*
X50131Y-20914D01*
X49921Y-20913D01*
X49727Y-20993D01*
X49579Y-21142D01*
X49499Y-21335D01*
X49498Y-21545D01*
X49578Y-21739D01*
X49727Y-21887D01*
X49920Y-21967D01*
X50130Y-21968D01*
X50324Y-21888D01*
X50385Y-21826D01*
X50385Y-26040D01*
X50408Y-26154D01*
X50473Y-26252D01*
X56472Y-32251D01*
X56345Y-32276D01*
X54798Y-30728D01*
X54701Y-30663D01*
X54586Y-30641D01*
X47983Y-30641D01*
X48021Y-30549D01*
X48021Y-30333D01*
X48017Y-30323D01*
X48138Y-30202D01*
X48138Y-30202D01*
X48204Y-30104D01*
X48226Y-29990D01*
X48226Y-29990D01*
X48226Y-28275D01*
X48204Y-28160D01*
X48138Y-28063D01*
X45183Y-25107D01*
X45315Y-25081D01*
X45475Y-24974D01*
X45488Y-25007D01*
X45559Y-25077D01*
X45651Y-25115D01*
X45750Y-25116D01*
X46500Y-25116D01*
X46592Y-25078D01*
X46662Y-25007D01*
X46700Y-24915D01*
X46701Y-24816D01*
X46701Y-23966D01*
X46663Y-23874D01*
X46611Y-23822D01*
X46611Y-22236D01*
X46453Y-21855D01*
X46163Y-21564D01*
X45782Y-21406D01*
X45371Y-21405D01*
X44990Y-21563D01*
X44699Y-21853D01*
X44541Y-22234D01*
X44540Y-22645D01*
X44698Y-23026D01*
X44988Y-23317D01*
X45369Y-23475D01*
X45780Y-23476D01*
X46161Y-23318D01*
X46452Y-23028D01*
X46610Y-22647D01*
X46611Y-22236D01*
X46611Y-23822D01*
X46592Y-23804D01*
X46500Y-23766D01*
X46401Y-23765D01*
X45651Y-23765D01*
X45559Y-23803D01*
X45489Y-23874D01*
X45475Y-23907D01*
X45315Y-23800D01*
X45076Y-23752D01*
X44836Y-23800D01*
X44634Y-23935D01*
X44498Y-24138D01*
X44451Y-24375D01*
X43053Y-22977D01*
X43053Y-21336D01*
X42973Y-21142D01*
X42824Y-20994D01*
X42631Y-20914D01*
X42421Y-20913D01*
X42227Y-20993D01*
X42079Y-21142D01*
X41999Y-21335D01*
X41998Y-21545D01*
X42078Y-21739D01*
X42227Y-21887D01*
X42420Y-21967D01*
X42630Y-21968D01*
X42824Y-21888D01*
X42972Y-21739D01*
X43052Y-21546D01*
X43053Y-21336D01*
X43053Y-22977D01*
X40935Y-20859D01*
X40837Y-20794D01*
X40723Y-20771D01*
X39696Y-20771D01*
X39709Y-20741D01*
X43937Y-20741D01*
X43680Y-20847D01*
X43482Y-21043D01*
X43376Y-21301D01*
X43375Y-21579D01*
X43482Y-21837D01*
X43678Y-22034D01*
X43936Y-22140D01*
X44214Y-22141D01*
X44472Y-22034D01*
X44669Y-21838D01*
X44775Y-21580D01*
X44776Y-21302D01*
X44669Y-21045D01*
X44473Y-20847D01*
X44215Y-20741D01*
X44076Y-20741D01*
X45942Y-20741D01*
X45982Y-20837D01*
X46178Y-21034D01*
X46436Y-21140D01*
X46714Y-21141D01*
X46972Y-21034D01*
X47169Y-20838D01*
X47275Y-20580D01*
X47276Y-20302D01*
X47169Y-20045D01*
X46973Y-19847D01*
X46715Y-19741D01*
X46437Y-19740D01*
X46180Y-19847D01*
X45982Y-20043D01*
X45942Y-20141D01*
X43576Y-20141D01*
X43576Y-12802D01*
X43469Y-12545D01*
X43273Y-12347D01*
X43015Y-12241D01*
X42737Y-12240D01*
X42480Y-12347D01*
X42282Y-12543D01*
X42176Y-12801D01*
X42175Y-13079D01*
X42282Y-13337D01*
X42478Y-13534D01*
X42736Y-13640D01*
X43014Y-13641D01*
X43272Y-13534D01*
X43469Y-13338D01*
X43575Y-13080D01*
X43576Y-12802D01*
X43576Y-20141D01*
X43001Y-20141D01*
X43001Y-17316D01*
X43001Y-16466D01*
X42963Y-16374D01*
X42911Y-16322D01*
X42911Y-14736D01*
X42753Y-14355D01*
X42463Y-14064D01*
X42082Y-13906D01*
X41676Y-13905D01*
X41676Y-5302D01*
X41569Y-5045D01*
X41373Y-4847D01*
X41115Y-4741D01*
X40837Y-4740D01*
X40580Y-4847D01*
X40382Y-5043D01*
X40276Y-5301D01*
X40275Y-5579D01*
X40382Y-5837D01*
X40578Y-6034D01*
X40836Y-6140D01*
X41114Y-6141D01*
X41372Y-6034D01*
X41569Y-5838D01*
X41675Y-5580D01*
X41676Y-5302D01*
X41676Y-13905D01*
X41671Y-13905D01*
X41290Y-14063D01*
X41101Y-14252D01*
X41101Y-9816D01*
X41101Y-8966D01*
X41063Y-8874D01*
X41011Y-8822D01*
X41011Y-7236D01*
X40853Y-6855D01*
X40563Y-6564D01*
X40182Y-6406D01*
X39771Y-6405D01*
X39390Y-6563D01*
X39176Y-6777D01*
X39176Y-6302D01*
X39069Y-6045D01*
X38873Y-5847D01*
X38615Y-5741D01*
X38337Y-5740D01*
X38080Y-5847D01*
X37882Y-6043D01*
X37776Y-6301D01*
X37775Y-6579D01*
X37882Y-6837D01*
X38078Y-7034D01*
X38336Y-7140D01*
X38614Y-7141D01*
X38872Y-7034D01*
X39069Y-6838D01*
X39175Y-6580D01*
X39176Y-6302D01*
X39176Y-6777D01*
X39099Y-6853D01*
X38941Y-7234D01*
X38940Y-7645D01*
X39098Y-8026D01*
X39388Y-8317D01*
X39769Y-8475D01*
X40180Y-8476D01*
X40561Y-8318D01*
X40852Y-8028D01*
X41010Y-7647D01*
X41011Y-7236D01*
X41011Y-8822D01*
X40992Y-8804D01*
X40900Y-8766D01*
X40801Y-8765D01*
X40051Y-8765D01*
X39959Y-8803D01*
X39889Y-8874D01*
X39875Y-8907D01*
X39715Y-8800D01*
X39476Y-8752D01*
X39236Y-8800D01*
X39034Y-8935D01*
X38898Y-9138D01*
X38851Y-9377D01*
X38851Y-9504D01*
X38898Y-9743D01*
X39034Y-9946D01*
X39236Y-10081D01*
X39476Y-10129D01*
X39715Y-10081D01*
X39875Y-9974D01*
X39888Y-10007D01*
X39959Y-10077D01*
X40051Y-10115D01*
X40150Y-10116D01*
X40900Y-10116D01*
X40992Y-10078D01*
X41062Y-10007D01*
X41100Y-9915D01*
X41101Y-9816D01*
X41101Y-14252D01*
X41076Y-14277D01*
X41076Y-13802D01*
X40969Y-13545D01*
X40773Y-13347D01*
X40515Y-13241D01*
X40237Y-13240D01*
X39980Y-13347D01*
X39782Y-13543D01*
X39676Y-13801D01*
X39675Y-14079D01*
X39782Y-14337D01*
X39978Y-14534D01*
X40236Y-14640D01*
X40514Y-14641D01*
X40772Y-14534D01*
X40969Y-14338D01*
X41075Y-14080D01*
X41076Y-13802D01*
X41076Y-14277D01*
X40999Y-14353D01*
X40841Y-14734D01*
X40840Y-15145D01*
X40998Y-15526D01*
X41288Y-15817D01*
X41669Y-15975D01*
X42080Y-15976D01*
X42461Y-15818D01*
X42752Y-15528D01*
X42910Y-15147D01*
X42911Y-14736D01*
X42911Y-16322D01*
X42892Y-16304D01*
X42800Y-16266D01*
X42701Y-16265D01*
X41951Y-16265D01*
X41859Y-16303D01*
X41789Y-16374D01*
X41775Y-16407D01*
X41615Y-16300D01*
X41376Y-16252D01*
X41136Y-16300D01*
X40934Y-16435D01*
X40798Y-16638D01*
X40751Y-16877D01*
X40751Y-17004D01*
X40798Y-17243D01*
X40934Y-17446D01*
X41136Y-17581D01*
X41376Y-17629D01*
X41615Y-17581D01*
X41775Y-17474D01*
X41788Y-17507D01*
X41859Y-17577D01*
X41951Y-17615D01*
X42050Y-17616D01*
X42800Y-17616D01*
X42892Y-17578D01*
X42962Y-17507D01*
X43000Y-17415D01*
X43001Y-17316D01*
X43001Y-20141D01*
X39709Y-20141D01*
X39669Y-20045D01*
X39473Y-19847D01*
X39215Y-19741D01*
X38937Y-19740D01*
X38785Y-19803D01*
X38785Y-17467D01*
X38930Y-17468D01*
X39124Y-17388D01*
X39272Y-17239D01*
X39352Y-17046D01*
X39353Y-16836D01*
X39353Y-13836D01*
X39273Y-13642D01*
X39124Y-13494D01*
X38931Y-13414D01*
X38721Y-13413D01*
X38527Y-13493D01*
X38379Y-13642D01*
X38299Y-13835D01*
X38298Y-14045D01*
X38378Y-14239D01*
X38527Y-14387D01*
X38720Y-14467D01*
X38930Y-14468D01*
X39124Y-14388D01*
X39272Y-14239D01*
X39352Y-14046D01*
X39353Y-13836D01*
X39353Y-16836D01*
X39273Y-16642D01*
X39124Y-16494D01*
X38931Y-16414D01*
X38723Y-16413D01*
X37276Y-14966D01*
X37276Y-9886D01*
X37422Y-9739D01*
X37502Y-9546D01*
X37503Y-9336D01*
X37503Y-6336D01*
X37423Y-6142D01*
X37274Y-5994D01*
X37081Y-5914D01*
X36871Y-5913D01*
X36677Y-5993D01*
X36529Y-6142D01*
X36449Y-6335D01*
X36448Y-6545D01*
X36528Y-6739D01*
X36677Y-6887D01*
X36870Y-6967D01*
X37080Y-6968D01*
X37274Y-6888D01*
X37422Y-6739D01*
X37502Y-6546D01*
X37503Y-6336D01*
X37503Y-9336D01*
X37423Y-9142D01*
X37274Y-8994D01*
X37081Y-8914D01*
X36871Y-8913D01*
X36677Y-8993D01*
X36529Y-9142D01*
X36449Y-9335D01*
X36448Y-9545D01*
X36528Y-9739D01*
X36676Y-9886D01*
X36676Y-15028D01*
X35288Y-13640D01*
X35514Y-13641D01*
X35772Y-13534D01*
X35969Y-13338D01*
X36075Y-13080D01*
X36076Y-12802D01*
X36053Y-12746D01*
X36053Y-9336D01*
X36053Y-6336D01*
X35973Y-6142D01*
X35824Y-5994D01*
X35631Y-5914D01*
X35421Y-5913D01*
X35227Y-5993D01*
X35079Y-6142D01*
X34999Y-6335D01*
X34998Y-6545D01*
X35078Y-6739D01*
X35227Y-6887D01*
X35420Y-6967D01*
X35630Y-6968D01*
X35824Y-6888D01*
X35972Y-6739D01*
X36052Y-6546D01*
X36053Y-6336D01*
X36053Y-9336D01*
X35973Y-9142D01*
X35824Y-8994D01*
X35631Y-8914D01*
X35421Y-8913D01*
X35227Y-8993D01*
X35079Y-9142D01*
X34999Y-9335D01*
X34998Y-9545D01*
X35078Y-9739D01*
X35227Y-9887D01*
X35420Y-9967D01*
X35630Y-9968D01*
X35824Y-9888D01*
X35972Y-9739D01*
X36052Y-9546D01*
X36053Y-9336D01*
X36053Y-12746D01*
X35969Y-12545D01*
X35773Y-12347D01*
X35515Y-12241D01*
X35237Y-12240D01*
X34980Y-12347D01*
X34782Y-12543D01*
X34676Y-12801D01*
X34675Y-13028D01*
X34176Y-12528D01*
X34176Y-5302D01*
X34069Y-5045D01*
X33873Y-4847D01*
X33615Y-4741D01*
X33337Y-4740D01*
X33080Y-4847D01*
X32882Y-5043D01*
X32776Y-5301D01*
X32775Y-5579D01*
X32882Y-5837D01*
X33078Y-6034D01*
X33336Y-6140D01*
X33614Y-6141D01*
X33872Y-6034D01*
X34069Y-5838D01*
X34175Y-5580D01*
X34176Y-5302D01*
X34176Y-12528D01*
X31714Y-10066D01*
X31736Y-10081D01*
X31976Y-10129D01*
X32215Y-10081D01*
X32375Y-9974D01*
X32388Y-10007D01*
X32459Y-10077D01*
X32551Y-10115D01*
X32650Y-10116D01*
X33400Y-10116D01*
X33492Y-10078D01*
X33562Y-10007D01*
X33600Y-9915D01*
X33601Y-9816D01*
X33601Y-8966D01*
X33563Y-8874D01*
X33511Y-8822D01*
X33511Y-7236D01*
X33353Y-6855D01*
X33063Y-6564D01*
X32682Y-6406D01*
X32271Y-6405D01*
X31890Y-6563D01*
X31676Y-6777D01*
X31676Y-6302D01*
X31569Y-6045D01*
X31373Y-5847D01*
X31115Y-5741D01*
X30837Y-5740D01*
X30580Y-5847D01*
X30382Y-6043D01*
X30276Y-6301D01*
X30275Y-6579D01*
X30382Y-6837D01*
X30578Y-7034D01*
X30836Y-7140D01*
X31114Y-7141D01*
X31372Y-7034D01*
X31569Y-6838D01*
X31675Y-6580D01*
X31676Y-6302D01*
X31676Y-6777D01*
X31599Y-6853D01*
X31441Y-7234D01*
X31440Y-7645D01*
X31598Y-8026D01*
X31888Y-8317D01*
X32269Y-8475D01*
X32680Y-8476D01*
X33061Y-8318D01*
X33352Y-8028D01*
X33510Y-7647D01*
X33511Y-7236D01*
X33511Y-8822D01*
X33492Y-8804D01*
X33400Y-8766D01*
X33301Y-8765D01*
X32551Y-8765D01*
X32459Y-8803D01*
X32389Y-8874D01*
X32375Y-8907D01*
X32215Y-8800D01*
X31976Y-8752D01*
X31736Y-8800D01*
X31534Y-8935D01*
X31398Y-9138D01*
X31351Y-9377D01*
X31351Y-9504D01*
X31398Y-9743D01*
X31413Y-9766D01*
X30066Y-8419D01*
X30066Y-5856D01*
X30044Y-5742D01*
X29978Y-5644D01*
X29978Y-5644D01*
X29410Y-5076D01*
X29313Y-5011D01*
X29198Y-4988D01*
X28411Y-4988D01*
X28296Y-5011D01*
X28198Y-5076D01*
X28133Y-5174D01*
X28112Y-5283D01*
X28081Y-5304D01*
X27980Y-5455D01*
X27944Y-5634D01*
X27944Y-5828D01*
X27917Y-5834D01*
X27766Y-5935D01*
X27665Y-6086D01*
X27629Y-6265D01*
X27629Y-6504D01*
X27665Y-6683D01*
X27766Y-6834D01*
X27796Y-6854D01*
X27796Y-16046D01*
X27626Y-16216D01*
X27626Y-12802D01*
X27519Y-12545D01*
X27323Y-12347D01*
X27065Y-12241D01*
X26787Y-12240D01*
X26676Y-12286D01*
X26676Y-5302D01*
X26569Y-5045D01*
X26373Y-4847D01*
X26115Y-4741D01*
X25837Y-4740D01*
X25580Y-4847D01*
X25382Y-5043D01*
X25276Y-5301D01*
X25275Y-5579D01*
X25382Y-5837D01*
X25578Y-6034D01*
X25836Y-6140D01*
X26114Y-6141D01*
X26372Y-6034D01*
X26569Y-5838D01*
X26675Y-5580D01*
X26676Y-5302D01*
X26676Y-12286D01*
X26530Y-12347D01*
X26332Y-12543D01*
X26226Y-12801D01*
X26225Y-13079D01*
X26332Y-13337D01*
X26528Y-13534D01*
X26786Y-13640D01*
X27064Y-13641D01*
X27322Y-13534D01*
X27519Y-13338D01*
X27625Y-13080D01*
X27626Y-12802D01*
X27626Y-16216D01*
X27493Y-16349D01*
X27484Y-16345D01*
X27268Y-16345D01*
X27067Y-16428D01*
X27044Y-16451D01*
X27013Y-16374D01*
X26961Y-16322D01*
X26961Y-14736D01*
X26803Y-14355D01*
X26513Y-14064D01*
X26132Y-13906D01*
X26101Y-13906D01*
X26101Y-9816D01*
X26101Y-8966D01*
X26063Y-8874D01*
X26011Y-8822D01*
X26011Y-7236D01*
X25853Y-6855D01*
X25563Y-6564D01*
X25182Y-6406D01*
X24771Y-6405D01*
X24390Y-6563D01*
X24176Y-6777D01*
X24176Y-6302D01*
X24069Y-6045D01*
X23873Y-5847D01*
X23615Y-5741D01*
X23337Y-5740D01*
X23080Y-5847D01*
X22882Y-6043D01*
X22776Y-6301D01*
X22775Y-6579D01*
X22882Y-6837D01*
X23078Y-7034D01*
X23336Y-7140D01*
X23614Y-7141D01*
X23872Y-7034D01*
X24069Y-6838D01*
X24175Y-6580D01*
X24176Y-6302D01*
X24176Y-6777D01*
X24099Y-6853D01*
X23941Y-7234D01*
X23940Y-7645D01*
X24098Y-8026D01*
X24388Y-8317D01*
X24769Y-8475D01*
X25180Y-8476D01*
X25561Y-8318D01*
X25852Y-8028D01*
X26010Y-7647D01*
X26011Y-7236D01*
X26011Y-8822D01*
X25992Y-8804D01*
X25900Y-8766D01*
X25801Y-8765D01*
X25051Y-8765D01*
X24959Y-8803D01*
X24889Y-8874D01*
X24875Y-8907D01*
X24715Y-8800D01*
X24476Y-8752D01*
X24236Y-8800D01*
X24034Y-8935D01*
X23898Y-9138D01*
X23851Y-9377D01*
X23851Y-9504D01*
X23898Y-9743D01*
X24034Y-9946D01*
X24236Y-10081D01*
X24476Y-10129D01*
X24715Y-10081D01*
X24875Y-9974D01*
X24888Y-10007D01*
X24959Y-10077D01*
X25051Y-10115D01*
X25150Y-10116D01*
X25900Y-10116D01*
X25992Y-10078D01*
X26062Y-10007D01*
X26100Y-9915D01*
X26101Y-9816D01*
X26101Y-13906D01*
X25721Y-13905D01*
X25340Y-14063D01*
X25126Y-14277D01*
X25126Y-13802D01*
X25019Y-13545D01*
X24823Y-13347D01*
X24565Y-13241D01*
X24287Y-13240D01*
X24030Y-13347D01*
X23832Y-13543D01*
X23726Y-13801D01*
X23725Y-14079D01*
X23832Y-14337D01*
X24028Y-14534D01*
X24286Y-14640D01*
X24564Y-14641D01*
X24822Y-14534D01*
X25019Y-14338D01*
X25125Y-14080D01*
X25126Y-13802D01*
X25126Y-14277D01*
X25049Y-14353D01*
X24891Y-14734D01*
X24890Y-15145D01*
X25048Y-15526D01*
X25338Y-15817D01*
X25719Y-15975D01*
X26130Y-15976D01*
X26511Y-15818D01*
X26802Y-15528D01*
X26960Y-15147D01*
X26961Y-14736D01*
X26961Y-16322D01*
X26942Y-16304D01*
X26850Y-16266D01*
X26751Y-16265D01*
X26001Y-16265D01*
X25909Y-16303D01*
X25839Y-16374D01*
X25825Y-16407D01*
X25665Y-16300D01*
X25426Y-16252D01*
X25186Y-16300D01*
X24984Y-16435D01*
X24887Y-16580D01*
X24785Y-16479D01*
X24584Y-16395D01*
X24368Y-16395D01*
X24167Y-16478D01*
X24014Y-16631D01*
X23930Y-16832D01*
X23930Y-17048D01*
X24013Y-17249D01*
X24166Y-17402D01*
X24367Y-17486D01*
X24583Y-17486D01*
X24593Y-17482D01*
X26696Y-19585D01*
X26793Y-19650D01*
X26908Y-19673D01*
X30934Y-19673D01*
X31511Y-20250D01*
X31501Y-20276D01*
X31500Y-20504D01*
X31588Y-20716D01*
X31749Y-20878D01*
X31961Y-20965D01*
X32189Y-20966D01*
X32401Y-20878D01*
X32563Y-20717D01*
X32650Y-20505D01*
X32651Y-20277D01*
X32563Y-20065D01*
X32402Y-19903D01*
X32190Y-19816D01*
X31962Y-19815D01*
X31935Y-19826D01*
X31270Y-19161D01*
X31173Y-19096D01*
X31058Y-19073D01*
X27032Y-19073D01*
X25561Y-17602D01*
X25665Y-17581D01*
X25825Y-17474D01*
X25838Y-17507D01*
X25909Y-17577D01*
X26001Y-17615D01*
X26100Y-17616D01*
X26850Y-17616D01*
X26942Y-17578D01*
X27012Y-17507D01*
X27050Y-17415D01*
X27051Y-17337D01*
X27066Y-17352D01*
X27267Y-17436D01*
X27483Y-17436D01*
X27684Y-17353D01*
X27837Y-17200D01*
X27921Y-16999D01*
X27921Y-16783D01*
X27917Y-16773D01*
X28220Y-16471D01*
X31083Y-16471D01*
X31027Y-16493D01*
X30879Y-16642D01*
X30799Y-16835D01*
X30798Y-17045D01*
X30878Y-17239D01*
X31027Y-17387D01*
X31220Y-17467D01*
X31428Y-17468D01*
X33060Y-19100D01*
X33060Y-22775D01*
X33083Y-22890D01*
X33148Y-22987D01*
X34499Y-24338D01*
X34498Y-24543D01*
X33401Y-25641D01*
X32651Y-25641D01*
X32651Y-24277D01*
X32563Y-24065D01*
X32402Y-23903D01*
X32190Y-23816D01*
X31962Y-23815D01*
X31750Y-23903D01*
X31588Y-24064D01*
X31501Y-24276D01*
X31500Y-24504D01*
X31588Y-24716D01*
X31749Y-24878D01*
X31961Y-24965D01*
X32189Y-24966D01*
X32401Y-24878D01*
X32563Y-24717D01*
X32650Y-24505D01*
X32651Y-24277D01*
X32651Y-25641D01*
X31821Y-25641D01*
X31674Y-25494D01*
X31481Y-25414D01*
X31271Y-25413D01*
X31077Y-25493D01*
X30929Y-25642D01*
X30849Y-25835D01*
X30848Y-26045D01*
X30928Y-26239D01*
X31077Y-26387D01*
X31270Y-26467D01*
X31480Y-26468D01*
X31674Y-26388D01*
X31821Y-26241D01*
X33526Y-26241D01*
X33526Y-26240D01*
X33640Y-26218D01*
X33640Y-26218D01*
X33738Y-26153D01*
X34923Y-24967D01*
X35128Y-24968D01*
X37390Y-27229D01*
X37390Y-27229D01*
X37487Y-27294D01*
X37602Y-27317D01*
X40579Y-27317D01*
X42247Y-28984D01*
X42057Y-28906D01*
X41645Y-28905D01*
X41265Y-29063D01*
X41050Y-29277D01*
X41050Y-28802D01*
X40944Y-28545D01*
X40747Y-28347D01*
X40490Y-28241D01*
X40212Y-28240D01*
X39954Y-28347D01*
X39757Y-28543D01*
X39650Y-28801D01*
X39650Y-29079D01*
X39757Y-29337D01*
X39953Y-29534D01*
X40210Y-29640D01*
X40489Y-29641D01*
X40746Y-29534D01*
X40943Y-29338D01*
X41050Y-29080D01*
X41050Y-28802D01*
X41050Y-29277D01*
X40973Y-29353D01*
X40815Y-29734D01*
X40815Y-30145D01*
X40972Y-30526D01*
X41263Y-30817D01*
X41285Y-30826D01*
X39403Y-30826D01*
X39403Y-28836D01*
X39323Y-28642D01*
X39174Y-28494D01*
X38981Y-28414D01*
X38771Y-28413D01*
X38577Y-28493D01*
X38429Y-28642D01*
X38349Y-28835D01*
X38348Y-29045D01*
X38428Y-29239D01*
X38577Y-29387D01*
X38770Y-29467D01*
X38980Y-29468D01*
X39174Y-29388D01*
X39322Y-29239D01*
X39402Y-29046D01*
X39403Y-28836D01*
X39403Y-30826D01*
X36050Y-30826D01*
X36050Y-27802D01*
X35944Y-27545D01*
X35747Y-27347D01*
X35490Y-27241D01*
X35212Y-27240D01*
X34954Y-27347D01*
X34757Y-27543D01*
X34650Y-27801D01*
X34650Y-28079D01*
X34757Y-28337D01*
X34953Y-28534D01*
X35210Y-28640D01*
X35489Y-28641D01*
X35746Y-28534D01*
X35943Y-28338D01*
X36050Y-28080D01*
X36050Y-27802D01*
X36050Y-30826D01*
X34917Y-30826D01*
X34936Y-30818D01*
X35227Y-30528D01*
X35385Y-30147D01*
X35385Y-29736D01*
X35228Y-29355D01*
X34937Y-29064D01*
X34557Y-28906D01*
X34145Y-28905D01*
X33765Y-29063D01*
X33550Y-29277D01*
X33550Y-28802D01*
X33444Y-28545D01*
X33247Y-28347D01*
X32990Y-28241D01*
X32712Y-28240D01*
X32454Y-28347D01*
X32257Y-28543D01*
X32150Y-28801D01*
X32150Y-29079D01*
X32257Y-29337D01*
X32453Y-29534D01*
X32710Y-29640D01*
X32989Y-29641D01*
X33246Y-29534D01*
X33443Y-29338D01*
X33550Y-29080D01*
X33550Y-28802D01*
X33550Y-29277D01*
X33473Y-29353D01*
X33315Y-29734D01*
X33315Y-30145D01*
X33472Y-30526D01*
X33763Y-30817D01*
X33785Y-30826D01*
X31903Y-30826D01*
X31903Y-28836D01*
X31823Y-28642D01*
X31674Y-28494D01*
X31481Y-28414D01*
X31271Y-28413D01*
X31077Y-28493D01*
X30929Y-28642D01*
X30849Y-28835D01*
X30848Y-29045D01*
X30928Y-29239D01*
X31077Y-29387D01*
X31270Y-29467D01*
X31480Y-29468D01*
X31674Y-29388D01*
X31822Y-29239D01*
X31902Y-29046D01*
X31903Y-28836D01*
X31903Y-30826D01*
X31536Y-30826D01*
X29476Y-28766D01*
X29476Y-20302D01*
X29369Y-20045D01*
X29173Y-19847D01*
X28915Y-19741D01*
X28637Y-19740D01*
X28380Y-19847D01*
X28182Y-20043D01*
X28076Y-20301D01*
X28075Y-20579D01*
X28182Y-20837D01*
X28378Y-21034D01*
X28636Y-21140D01*
X28914Y-21141D01*
X29172Y-21034D01*
X29369Y-20838D01*
X29475Y-20580D01*
X29476Y-20302D01*
X29476Y-28766D01*
X28901Y-28191D01*
X28901Y-24816D01*
X28901Y-23966D01*
X28863Y-23874D01*
X28811Y-23822D01*
X28811Y-22236D01*
X28653Y-21855D01*
X28363Y-21564D01*
X27982Y-21406D01*
X27571Y-21405D01*
X27190Y-21563D01*
X26976Y-21777D01*
X26976Y-21302D01*
X26869Y-21045D01*
X26673Y-20847D01*
X26415Y-20741D01*
X26137Y-20740D01*
X25880Y-20847D01*
X25682Y-21043D01*
X25576Y-21301D01*
X25575Y-21579D01*
X25682Y-21837D01*
X25878Y-22034D01*
X26136Y-22140D01*
X26414Y-22141D01*
X26672Y-22034D01*
X26869Y-21838D01*
X26975Y-21580D01*
X26976Y-21302D01*
X26976Y-21777D01*
X26899Y-21853D01*
X26741Y-22234D01*
X26740Y-22645D01*
X26898Y-23026D01*
X27188Y-23317D01*
X27569Y-23475D01*
X27980Y-23476D01*
X28361Y-23318D01*
X28652Y-23028D01*
X28810Y-22647D01*
X28811Y-22236D01*
X28811Y-23822D01*
X28792Y-23804D01*
X28700Y-23766D01*
X28601Y-23765D01*
X27851Y-23765D01*
X27759Y-23803D01*
X27689Y-23874D01*
X27675Y-23907D01*
X27515Y-23800D01*
X27276Y-23752D01*
X27036Y-23800D01*
X26834Y-23935D01*
X26698Y-24138D01*
X26651Y-24377D01*
X26651Y-24504D01*
X26698Y-24743D01*
X26834Y-24946D01*
X27036Y-25081D01*
X27276Y-25129D01*
X27515Y-25081D01*
X27675Y-24974D01*
X27688Y-25007D01*
X27759Y-25077D01*
X27851Y-25115D01*
X27950Y-25116D01*
X28700Y-25116D01*
X28792Y-25078D01*
X28862Y-25007D01*
X28900Y-24915D01*
X28901Y-24816D01*
X28901Y-28191D01*
X25252Y-24543D01*
X25253Y-24336D01*
X25253Y-21336D01*
X25173Y-21142D01*
X25024Y-20994D01*
X24831Y-20914D01*
X24621Y-20913D01*
X24427Y-20993D01*
X24279Y-21142D01*
X24199Y-21335D01*
X24198Y-21545D01*
X24278Y-21739D01*
X24427Y-21887D01*
X24620Y-21967D01*
X24830Y-21968D01*
X25024Y-21888D01*
X25172Y-21739D01*
X25252Y-21546D01*
X25253Y-21336D01*
X25253Y-24336D01*
X25173Y-24142D01*
X25024Y-23994D01*
X24831Y-23914D01*
X24623Y-23913D01*
X23176Y-22466D01*
X23176Y-17386D01*
X23322Y-17239D01*
X23402Y-17046D01*
X23403Y-16836D01*
X23403Y-13836D01*
X23323Y-13642D01*
X23174Y-13494D01*
X22981Y-13414D01*
X22771Y-13413D01*
X22577Y-13493D01*
X22429Y-13642D01*
X22349Y-13835D01*
X22348Y-14045D01*
X22428Y-14239D01*
X22577Y-14387D01*
X22770Y-14467D01*
X22980Y-14468D01*
X23174Y-14388D01*
X23322Y-14239D01*
X23402Y-14046D01*
X23403Y-13836D01*
X23403Y-16836D01*
X23323Y-16642D01*
X23174Y-16494D01*
X22981Y-16414D01*
X22773Y-16413D01*
X22226Y-15866D01*
X22226Y-9886D01*
X22372Y-9739D01*
X22452Y-9546D01*
X22453Y-9336D01*
X22373Y-9142D01*
X22224Y-8994D01*
X22031Y-8914D01*
X21821Y-8913D01*
X21627Y-8993D01*
X21571Y-9050D01*
X21571Y-6831D01*
X21627Y-6887D01*
X21820Y-6967D01*
X22030Y-6968D01*
X22224Y-6888D01*
X22372Y-6739D01*
X22452Y-6546D01*
X22453Y-6336D01*
X22373Y-6142D01*
X22224Y-5994D01*
X22031Y-5914D01*
X21821Y-5913D01*
X21627Y-5993D01*
X21571Y-6050D01*
X21571Y-3956D01*
X26808Y-3956D01*
X26783Y-4086D01*
X26783Y-4547D01*
X26821Y-4741D01*
X26931Y-4905D01*
X27095Y-5015D01*
X27289Y-5053D01*
X27482Y-5015D01*
X27646Y-4905D01*
X27756Y-4741D01*
X27795Y-4547D01*
X27795Y-4086D01*
X27769Y-3956D01*
X29682Y-3956D01*
X29657Y-4086D01*
X29657Y-4547D01*
X29695Y-4741D01*
X29805Y-4905D01*
X29969Y-5015D01*
X30163Y-5053D01*
X30356Y-5015D01*
X30520Y-4905D01*
X30630Y-4741D01*
X30669Y-4547D01*
X30669Y-4086D01*
X30643Y-3956D01*
X110881Y-3956D01*
X110881Y-33346D01*
X110881Y-33346D01*
G37*
G54D21*
X110881Y-33346D02*
X109176Y-33346D01*
X109176Y-20302D01*
X109176Y-5302D01*
X109069Y-5045D01*
X108873Y-4847D01*
X108615Y-4741D01*
X108337Y-4740D01*
X108080Y-4847D01*
X107882Y-5043D01*
X107776Y-5301D01*
X107775Y-5579D01*
X107882Y-5837D01*
X108078Y-6034D01*
X108336Y-6140D01*
X108614Y-6141D01*
X108872Y-6034D01*
X109069Y-5838D01*
X109175Y-5580D01*
X109176Y-5302D01*
X109176Y-20302D01*
X109069Y-20045D01*
X108873Y-19847D01*
X108615Y-19741D01*
X108601Y-19741D01*
X108601Y-9816D01*
X108601Y-8966D01*
X108563Y-8874D01*
X108511Y-8822D01*
X108511Y-7236D01*
X108353Y-6855D01*
X108063Y-6564D01*
X107682Y-6406D01*
X107271Y-6405D01*
X106890Y-6563D01*
X106676Y-6777D01*
X106676Y-6302D01*
X106569Y-6045D01*
X106373Y-5847D01*
X106115Y-5741D01*
X105837Y-5740D01*
X105580Y-5847D01*
X105382Y-6043D01*
X105276Y-6301D01*
X105275Y-6579D01*
X105382Y-6837D01*
X105578Y-7034D01*
X105836Y-7140D01*
X106114Y-7141D01*
X106372Y-7034D01*
X106569Y-6838D01*
X106675Y-6580D01*
X106676Y-6302D01*
X106676Y-6777D01*
X106599Y-6853D01*
X106441Y-7234D01*
X106440Y-7645D01*
X106598Y-8026D01*
X106888Y-8317D01*
X107269Y-8475D01*
X107680Y-8476D01*
X108061Y-8318D01*
X108352Y-8028D01*
X108510Y-7647D01*
X108511Y-7236D01*
X108511Y-8822D01*
X108492Y-8804D01*
X108400Y-8766D01*
X108301Y-8765D01*
X107551Y-8765D01*
X107459Y-8803D01*
X107389Y-8874D01*
X107375Y-8907D01*
X107215Y-8800D01*
X106976Y-8752D01*
X106736Y-8800D01*
X106534Y-8935D01*
X106398Y-9138D01*
X106351Y-9377D01*
X106351Y-9504D01*
X106398Y-9743D01*
X106534Y-9946D01*
X106736Y-10081D01*
X106976Y-10129D01*
X107215Y-10081D01*
X107375Y-9974D01*
X107388Y-10007D01*
X107459Y-10077D01*
X107551Y-10115D01*
X107650Y-10116D01*
X108400Y-10116D01*
X108492Y-10078D01*
X108562Y-10007D01*
X108600Y-9915D01*
X108601Y-9816D01*
X108601Y-19741D01*
X108337Y-19740D01*
X108080Y-19847D01*
X107882Y-20043D01*
X107842Y-20141D01*
X106376Y-20141D01*
X106376Y-12802D01*
X106269Y-12545D01*
X106073Y-12347D01*
X105815Y-12241D01*
X105537Y-12240D01*
X105280Y-12347D01*
X105082Y-12543D01*
X104976Y-12801D01*
X104975Y-13079D01*
X105082Y-13337D01*
X105278Y-13534D01*
X105536Y-13640D01*
X105814Y-13641D01*
X106072Y-13534D01*
X106269Y-13338D01*
X106375Y-13080D01*
X106376Y-12802D01*
X106376Y-20141D01*
X105801Y-20141D01*
X105801Y-17316D01*
X105801Y-16466D01*
X105763Y-16374D01*
X105711Y-16322D01*
X105711Y-14736D01*
X105553Y-14355D01*
X105263Y-14064D01*
X104882Y-13906D01*
X104471Y-13905D01*
X104090Y-14063D01*
X103876Y-14277D01*
X103876Y-13802D01*
X103769Y-13545D01*
X103573Y-13347D01*
X103315Y-13241D01*
X103037Y-13240D01*
X102780Y-13347D01*
X102582Y-13543D01*
X102476Y-13801D01*
X102475Y-14079D01*
X102582Y-14337D01*
X102778Y-14534D01*
X103036Y-14640D01*
X103314Y-14641D01*
X103572Y-14534D01*
X103769Y-14338D01*
X103875Y-14080D01*
X103876Y-13802D01*
X103876Y-14277D01*
X103799Y-14353D01*
X103641Y-14734D01*
X103640Y-15145D01*
X103798Y-15526D01*
X104088Y-15817D01*
X104469Y-15975D01*
X104880Y-15976D01*
X105261Y-15818D01*
X105552Y-15528D01*
X105710Y-15147D01*
X105711Y-14736D01*
X105711Y-16322D01*
X105692Y-16304D01*
X105600Y-16266D01*
X105501Y-16265D01*
X104751Y-16265D01*
X104659Y-16303D01*
X104589Y-16374D01*
X104575Y-16407D01*
X104415Y-16300D01*
X104176Y-16252D01*
X103936Y-16300D01*
X103734Y-16435D01*
X103598Y-16638D01*
X103551Y-16877D01*
X103551Y-17004D01*
X103598Y-17243D01*
X103734Y-17446D01*
X103936Y-17581D01*
X104176Y-17629D01*
X104415Y-17581D01*
X104575Y-17474D01*
X104588Y-17507D01*
X104659Y-17577D01*
X104751Y-17615D01*
X104850Y-17616D01*
X105600Y-17616D01*
X105692Y-17578D01*
X105762Y-17507D01*
X105800Y-17415D01*
X105801Y-17316D01*
X105801Y-20141D01*
X100634Y-20141D01*
X100594Y-20045D01*
X100398Y-19847D01*
X100141Y-19741D01*
X99862Y-19740D01*
X99605Y-19847D01*
X99408Y-20043D01*
X99301Y-20301D01*
X99301Y-20579D01*
X99407Y-20837D01*
X99604Y-21034D01*
X99861Y-21140D01*
X100139Y-21141D01*
X100397Y-21034D01*
X100594Y-20838D01*
X100634Y-20741D01*
X105837Y-20741D01*
X105580Y-20847D01*
X105382Y-21043D01*
X105276Y-21301D01*
X105275Y-21579D01*
X105382Y-21837D01*
X105578Y-22034D01*
X105836Y-22140D01*
X106114Y-22141D01*
X106372Y-22034D01*
X106569Y-21838D01*
X106675Y-21580D01*
X106676Y-21302D01*
X106569Y-21045D01*
X106373Y-20847D01*
X106115Y-20741D01*
X105976Y-20741D01*
X107842Y-20741D01*
X107882Y-20837D01*
X108078Y-21034D01*
X108336Y-21140D01*
X108614Y-21141D01*
X108872Y-21034D01*
X109069Y-20838D01*
X109175Y-20580D01*
X109176Y-20302D01*
X109176Y-33346D01*
X108601Y-33346D01*
X108601Y-24816D01*
X108601Y-23966D01*
X108563Y-23874D01*
X108511Y-23822D01*
X108511Y-22236D01*
X108353Y-21855D01*
X108063Y-21564D01*
X107682Y-21406D01*
X107271Y-21405D01*
X106890Y-21563D01*
X106599Y-21853D01*
X106441Y-22234D01*
X106440Y-22645D01*
X106598Y-23026D01*
X106888Y-23317D01*
X107269Y-23475D01*
X107680Y-23476D01*
X108061Y-23318D01*
X108352Y-23028D01*
X108510Y-22647D01*
X108511Y-22236D01*
X108511Y-23822D01*
X108492Y-23804D01*
X108400Y-23766D01*
X108301Y-23765D01*
X107551Y-23765D01*
X107459Y-23803D01*
X107389Y-23874D01*
X107375Y-23907D01*
X107215Y-23800D01*
X106976Y-23752D01*
X106736Y-23800D01*
X106534Y-23935D01*
X106398Y-24138D01*
X106351Y-24377D01*
X106351Y-24504D01*
X106398Y-24743D01*
X106534Y-24946D01*
X106736Y-25081D01*
X106976Y-25129D01*
X107215Y-25081D01*
X107375Y-24974D01*
X107388Y-25007D01*
X107459Y-25077D01*
X107551Y-25115D01*
X107650Y-25116D01*
X108400Y-25116D01*
X108492Y-25078D01*
X108562Y-25007D01*
X108600Y-24915D01*
X108601Y-24816D01*
X108601Y-33346D01*
X108241Y-33346D01*
X108241Y-27802D01*
X108134Y-27545D01*
X107937Y-27347D01*
X107680Y-27241D01*
X107402Y-27240D01*
X107144Y-27347D01*
X106947Y-27543D01*
X106841Y-27801D01*
X106840Y-28079D01*
X106947Y-28337D01*
X107143Y-28534D01*
X107401Y-28640D01*
X107679Y-28641D01*
X107936Y-28534D01*
X108134Y-28338D01*
X108240Y-28080D01*
X108241Y-27802D01*
X108241Y-33346D01*
X107675Y-33346D01*
X107675Y-32316D01*
X107675Y-31466D01*
X107637Y-31374D01*
X107576Y-31312D01*
X107576Y-29736D01*
X107418Y-29355D01*
X107128Y-29064D01*
X106747Y-28906D01*
X106335Y-28905D01*
X105955Y-29063D01*
X105741Y-29277D01*
X105741Y-28802D01*
X105634Y-28545D01*
X105437Y-28347D01*
X105180Y-28241D01*
X104902Y-28240D01*
X104644Y-28347D01*
X104447Y-28543D01*
X104341Y-28801D01*
X104340Y-29079D01*
X104447Y-29337D01*
X104643Y-29534D01*
X104901Y-29640D01*
X105179Y-29641D01*
X105436Y-29534D01*
X105634Y-29338D01*
X105740Y-29080D01*
X105741Y-28802D01*
X105741Y-29277D01*
X105664Y-29353D01*
X105506Y-29734D01*
X105505Y-30145D01*
X105663Y-30526D01*
X105953Y-30817D01*
X106334Y-30975D01*
X106745Y-30976D01*
X107126Y-30818D01*
X107417Y-30528D01*
X107575Y-30147D01*
X107576Y-29736D01*
X107576Y-31312D01*
X107567Y-31304D01*
X107475Y-31266D01*
X107376Y-31265D01*
X106626Y-31265D01*
X106534Y-31303D01*
X106463Y-31374D01*
X106450Y-31407D01*
X106289Y-31300D01*
X106050Y-31252D01*
X105811Y-31300D01*
X105608Y-31435D01*
X105473Y-31638D01*
X105425Y-31877D01*
X105425Y-32004D01*
X105473Y-32243D01*
X105608Y-32446D01*
X105811Y-32581D01*
X106050Y-32629D01*
X106289Y-32581D01*
X106450Y-32474D01*
X106463Y-32507D01*
X106534Y-32577D01*
X106625Y-32615D01*
X106725Y-32616D01*
X107475Y-32616D01*
X107567Y-32578D01*
X107637Y-32507D01*
X107675Y-32415D01*
X107675Y-32316D01*
X107675Y-33346D01*
X104003Y-33346D01*
X104003Y-28836D01*
X103923Y-28642D01*
X103774Y-28494D01*
X103581Y-28414D01*
X103371Y-28413D01*
X103177Y-28493D01*
X103029Y-28642D01*
X102949Y-28835D01*
X102948Y-29045D01*
X103028Y-29239D01*
X103177Y-29387D01*
X103370Y-29467D01*
X103580Y-29468D01*
X103774Y-29388D01*
X103922Y-29239D01*
X104002Y-29046D01*
X104003Y-28836D01*
X104003Y-33346D01*
X98876Y-33346D01*
X98876Y-27802D01*
X98769Y-27545D01*
X98573Y-27347D01*
X98315Y-27241D01*
X98037Y-27240D01*
X97780Y-27347D01*
X97582Y-27543D01*
X97476Y-27801D01*
X97475Y-28079D01*
X97582Y-28337D01*
X97778Y-28534D01*
X98036Y-28640D01*
X98314Y-28641D01*
X98572Y-28534D01*
X98769Y-28338D01*
X98875Y-28080D01*
X98876Y-27802D01*
X98876Y-33346D01*
X98301Y-33346D01*
X98301Y-32316D01*
X98301Y-31466D01*
X98263Y-31374D01*
X98211Y-31322D01*
X98211Y-29736D01*
X98053Y-29355D01*
X97763Y-29064D01*
X97382Y-28906D01*
X96971Y-28905D01*
X96590Y-29063D01*
X96376Y-29277D01*
X96376Y-28802D01*
X96269Y-28545D01*
X96073Y-28347D01*
X95815Y-28241D01*
X95537Y-28240D01*
X95280Y-28347D01*
X95082Y-28543D01*
X94976Y-28801D01*
X94975Y-29079D01*
X95082Y-29337D01*
X95278Y-29534D01*
X95536Y-29640D01*
X95814Y-29641D01*
X96072Y-29534D01*
X96269Y-29338D01*
X96375Y-29080D01*
X96376Y-28802D01*
X96376Y-29277D01*
X96299Y-29353D01*
X96141Y-29734D01*
X96140Y-30145D01*
X96298Y-30526D01*
X96588Y-30817D01*
X96969Y-30975D01*
X97380Y-30976D01*
X97761Y-30818D01*
X98052Y-30528D01*
X98210Y-30147D01*
X98211Y-29736D01*
X98211Y-31322D01*
X98192Y-31304D01*
X98100Y-31266D01*
X98001Y-31265D01*
X97251Y-31265D01*
X97159Y-31303D01*
X97089Y-31374D01*
X97075Y-31407D01*
X96915Y-31300D01*
X96676Y-31252D01*
X96436Y-31300D01*
X96234Y-31435D01*
X96098Y-31638D01*
X96051Y-31877D01*
X96051Y-32004D01*
X96098Y-32243D01*
X96234Y-32446D01*
X96436Y-32581D01*
X96676Y-32629D01*
X96915Y-32581D01*
X97075Y-32474D01*
X97088Y-32507D01*
X97159Y-32577D01*
X97251Y-32615D01*
X97350Y-32616D01*
X98100Y-32616D01*
X98192Y-32578D01*
X98262Y-32507D01*
X98300Y-32415D01*
X98301Y-32316D01*
X98301Y-33346D01*
X89543Y-33346D01*
X93670Y-29218D01*
X93678Y-29239D01*
X93827Y-29387D01*
X94020Y-29467D01*
X94230Y-29468D01*
X94424Y-29388D01*
X94572Y-29239D01*
X94652Y-29046D01*
X94653Y-28836D01*
X94573Y-28642D01*
X94424Y-28494D01*
X94403Y-28485D01*
X96648Y-26241D01*
X103030Y-26241D01*
X103177Y-26387D01*
X103370Y-26467D01*
X103580Y-26468D01*
X103774Y-26388D01*
X103922Y-26239D01*
X104002Y-26046D01*
X104003Y-25836D01*
X103923Y-25642D01*
X103785Y-25505D01*
X104323Y-24967D01*
X104530Y-24968D01*
X104724Y-24888D01*
X104872Y-24739D01*
X104952Y-24546D01*
X104953Y-24336D01*
X104953Y-21336D01*
X104873Y-21142D01*
X104724Y-20994D01*
X104531Y-20914D01*
X104321Y-20913D01*
X104127Y-20993D01*
X103979Y-21142D01*
X103899Y-21335D01*
X103898Y-21545D01*
X103978Y-21739D01*
X104127Y-21887D01*
X104320Y-21967D01*
X104530Y-21968D01*
X104724Y-21888D01*
X104872Y-21739D01*
X104952Y-21546D01*
X104953Y-21336D01*
X104953Y-24336D01*
X104873Y-24142D01*
X104724Y-23994D01*
X104531Y-23914D01*
X104321Y-23913D01*
X104127Y-23993D01*
X103979Y-24142D01*
X103899Y-24335D01*
X103898Y-24543D01*
X103263Y-25178D01*
X103198Y-25276D01*
X103176Y-25391D01*
X103176Y-25495D01*
X103030Y-25641D01*
X100126Y-25641D01*
X100126Y-24816D01*
X100126Y-23966D01*
X100088Y-23874D01*
X100036Y-23822D01*
X100036Y-22236D01*
X99879Y-21855D01*
X99588Y-21564D01*
X99207Y-21406D01*
X98796Y-21405D01*
X98415Y-21563D01*
X98201Y-21777D01*
X98201Y-21302D01*
X98094Y-21045D01*
X97898Y-20847D01*
X97641Y-20741D01*
X97362Y-20740D01*
X97105Y-20847D01*
X96908Y-21043D01*
X96801Y-21301D01*
X96801Y-21579D01*
X96907Y-21837D01*
X97104Y-22034D01*
X97361Y-22140D01*
X97639Y-22141D01*
X97897Y-22034D01*
X98094Y-21838D01*
X98201Y-21580D01*
X98201Y-21302D01*
X98201Y-21777D01*
X98124Y-21853D01*
X97966Y-22234D01*
X97966Y-22645D01*
X98123Y-23026D01*
X98414Y-23317D01*
X98794Y-23475D01*
X99206Y-23476D01*
X99586Y-23318D01*
X99878Y-23028D01*
X100036Y-22647D01*
X100036Y-22236D01*
X100036Y-23822D01*
X100017Y-23804D01*
X99926Y-23766D01*
X99826Y-23765D01*
X99076Y-23765D01*
X98984Y-23803D01*
X98914Y-23874D01*
X98900Y-23907D01*
X98740Y-23800D01*
X98501Y-23752D01*
X98262Y-23800D01*
X98059Y-23935D01*
X97923Y-24138D01*
X97876Y-24377D01*
X97876Y-24504D01*
X97923Y-24743D01*
X98059Y-24946D01*
X98262Y-25081D01*
X98501Y-25129D01*
X98740Y-25081D01*
X98900Y-24974D01*
X98914Y-25007D01*
X98984Y-25077D01*
X99076Y-25115D01*
X99175Y-25116D01*
X99925Y-25116D01*
X100017Y-25078D01*
X100088Y-25007D01*
X100126Y-24915D01*
X100126Y-24816D01*
X100126Y-25641D01*
X96524Y-25641D01*
X96409Y-25663D01*
X96312Y-25728D01*
X91701Y-30339D01*
X91701Y-24816D01*
X91701Y-23966D01*
X91663Y-23874D01*
X91592Y-23804D01*
X91500Y-23766D01*
X91401Y-23765D01*
X90651Y-23765D01*
X90559Y-23803D01*
X90489Y-23874D01*
X90475Y-23907D01*
X90315Y-23800D01*
X90076Y-23752D01*
X89836Y-23800D01*
X89634Y-23935D01*
X89498Y-24138D01*
X89451Y-24377D01*
X89451Y-24504D01*
X89498Y-24743D01*
X89634Y-24946D01*
X89836Y-25081D01*
X90076Y-25129D01*
X90315Y-25081D01*
X90475Y-24974D01*
X90488Y-25007D01*
X90559Y-25077D01*
X90651Y-25115D01*
X90750Y-25116D01*
X91500Y-25116D01*
X91592Y-25078D01*
X91662Y-25007D01*
X91700Y-24915D01*
X91701Y-24816D01*
X91701Y-30339D01*
X88843Y-33196D01*
X88053Y-33196D01*
X88053Y-21336D01*
X87973Y-21142D01*
X87824Y-20994D01*
X87631Y-20914D01*
X87421Y-20913D01*
X87227Y-20993D01*
X87079Y-21142D01*
X86999Y-21335D01*
X86998Y-21545D01*
X87078Y-21739D01*
X87227Y-21887D01*
X87420Y-21967D01*
X87630Y-21968D01*
X87824Y-21888D01*
X87972Y-21739D01*
X88052Y-21546D01*
X88053Y-21336D01*
X88053Y-33196D01*
X84201Y-33196D01*
X84201Y-24816D01*
X84201Y-23966D01*
X84163Y-23874D01*
X84111Y-23822D01*
X84111Y-22236D01*
X83953Y-21855D01*
X83663Y-21564D01*
X83282Y-21406D01*
X82871Y-21405D01*
X82490Y-21563D01*
X82199Y-21853D01*
X82041Y-22234D01*
X82040Y-22645D01*
X82198Y-23026D01*
X82488Y-23317D01*
X82869Y-23475D01*
X83280Y-23476D01*
X83661Y-23318D01*
X83952Y-23028D01*
X84110Y-22647D01*
X84111Y-22236D01*
X84111Y-23822D01*
X84092Y-23804D01*
X84000Y-23766D01*
X83901Y-23765D01*
X83151Y-23765D01*
X83059Y-23803D01*
X82989Y-23874D01*
X82975Y-23907D01*
X82815Y-23800D01*
X82576Y-23752D01*
X82336Y-23800D01*
X82134Y-23935D01*
X81998Y-24138D01*
X81951Y-24377D01*
X81951Y-24504D01*
X81998Y-24743D01*
X82134Y-24946D01*
X82336Y-25081D01*
X82576Y-25129D01*
X82815Y-25081D01*
X82975Y-24974D01*
X82988Y-25007D01*
X83059Y-25077D01*
X83151Y-25115D01*
X83250Y-25116D01*
X84000Y-25116D01*
X84092Y-25078D01*
X84162Y-25007D01*
X84200Y-24915D01*
X84201Y-24816D01*
X84201Y-33196D01*
X80553Y-33196D01*
X80553Y-21336D01*
X80473Y-21142D01*
X80324Y-20994D01*
X80131Y-20914D01*
X79921Y-20913D01*
X79727Y-20993D01*
X79579Y-21142D01*
X79499Y-21335D01*
X79498Y-21545D01*
X79578Y-21739D01*
X79727Y-21887D01*
X79920Y-21967D01*
X80130Y-21968D01*
X80324Y-21888D01*
X80472Y-21739D01*
X80552Y-21546D01*
X80553Y-21336D01*
X80553Y-33196D01*
X76701Y-33196D01*
X76701Y-24816D01*
X76701Y-23966D01*
X76663Y-23874D01*
X76611Y-23822D01*
X76611Y-22236D01*
X76453Y-21855D01*
X76163Y-21564D01*
X75782Y-21406D01*
X75371Y-21405D01*
X74990Y-21563D01*
X74776Y-21777D01*
X74776Y-21302D01*
X74669Y-21045D01*
X74473Y-20847D01*
X74215Y-20741D01*
X73937Y-20740D01*
X73680Y-20847D01*
X73482Y-21043D01*
X73376Y-21301D01*
X73375Y-21579D01*
X73482Y-21837D01*
X73678Y-22034D01*
X73936Y-22140D01*
X74214Y-22141D01*
X74472Y-22034D01*
X74669Y-21838D01*
X74775Y-21580D01*
X74776Y-21302D01*
X74776Y-21777D01*
X74699Y-21853D01*
X74541Y-22234D01*
X74540Y-22645D01*
X74698Y-23026D01*
X74988Y-23317D01*
X75369Y-23475D01*
X75780Y-23476D01*
X76161Y-23318D01*
X76452Y-23028D01*
X76610Y-22647D01*
X76611Y-22236D01*
X76611Y-23822D01*
X76592Y-23804D01*
X76500Y-23766D01*
X76401Y-23765D01*
X75651Y-23765D01*
X75559Y-23803D01*
X75489Y-23874D01*
X75475Y-23907D01*
X75315Y-23800D01*
X75076Y-23752D01*
X74836Y-23800D01*
X74634Y-23935D01*
X74498Y-24138D01*
X74451Y-24377D01*
X74451Y-24504D01*
X74498Y-24743D01*
X74634Y-24946D01*
X74836Y-25081D01*
X75076Y-25129D01*
X75315Y-25081D01*
X75475Y-24974D01*
X75488Y-25007D01*
X75559Y-25077D01*
X75651Y-25115D01*
X75750Y-25116D01*
X76500Y-25116D01*
X76592Y-25078D01*
X76662Y-25007D01*
X76700Y-24915D01*
X76701Y-24816D01*
X76701Y-33196D01*
X73053Y-33196D01*
X73053Y-21336D01*
X72973Y-21142D01*
X72824Y-20994D01*
X72631Y-20914D01*
X72421Y-20913D01*
X72227Y-20993D01*
X72079Y-21142D01*
X71999Y-21335D01*
X71998Y-21545D01*
X72078Y-21739D01*
X72227Y-21887D01*
X72420Y-21967D01*
X72630Y-21968D01*
X72824Y-21888D01*
X72972Y-21739D01*
X73052Y-21546D01*
X73053Y-21336D01*
X73053Y-33196D01*
X70646Y-33196D01*
X70646Y-27952D01*
X70539Y-27695D01*
X70343Y-27497D01*
X70085Y-27391D01*
X70021Y-27391D01*
X70122Y-27289D01*
X70202Y-27096D01*
X70203Y-26886D01*
X70123Y-26692D01*
X69974Y-26544D01*
X69781Y-26464D01*
X69571Y-26463D01*
X69377Y-26543D01*
X69229Y-26692D01*
X69201Y-26760D01*
X69201Y-24816D01*
X69201Y-23966D01*
X69163Y-23874D01*
X69111Y-23822D01*
X69111Y-22236D01*
X68953Y-21855D01*
X68663Y-21564D01*
X68282Y-21406D01*
X67871Y-21405D01*
X67490Y-21563D01*
X67199Y-21853D01*
X67041Y-22234D01*
X67040Y-22645D01*
X67198Y-23026D01*
X67488Y-23317D01*
X67869Y-23475D01*
X68280Y-23476D01*
X68661Y-23318D01*
X68952Y-23028D01*
X69110Y-22647D01*
X69111Y-22236D01*
X69111Y-23822D01*
X69092Y-23804D01*
X69000Y-23766D01*
X68901Y-23765D01*
X68151Y-23765D01*
X68059Y-23803D01*
X67989Y-23874D01*
X67975Y-23907D01*
X67815Y-23800D01*
X67576Y-23752D01*
X67336Y-23800D01*
X67134Y-23935D01*
X66998Y-24138D01*
X66951Y-24377D01*
X66951Y-24504D01*
X66998Y-24743D01*
X67134Y-24946D01*
X67336Y-25081D01*
X67576Y-25129D01*
X67815Y-25081D01*
X67975Y-24974D01*
X67988Y-25007D01*
X68059Y-25077D01*
X68151Y-25115D01*
X68250Y-25116D01*
X69000Y-25116D01*
X69092Y-25078D01*
X69162Y-25007D01*
X69200Y-24915D01*
X69201Y-24816D01*
X69201Y-26760D01*
X69149Y-26885D01*
X69149Y-26963D01*
X67681Y-28430D01*
X67585Y-28391D01*
X67307Y-28390D01*
X67203Y-28433D01*
X67203Y-26886D01*
X67123Y-26692D01*
X66976Y-26545D01*
X66976Y-26091D01*
X66953Y-25976D01*
X66888Y-25878D01*
X65552Y-24543D01*
X65553Y-24336D01*
X65553Y-21336D01*
X65473Y-21142D01*
X65324Y-20994D01*
X65131Y-20914D01*
X64921Y-20913D01*
X64727Y-20993D01*
X64579Y-21142D01*
X64499Y-21335D01*
X64498Y-21545D01*
X64578Y-21739D01*
X64727Y-21887D01*
X64920Y-21967D01*
X65130Y-21968D01*
X65324Y-21888D01*
X65472Y-21739D01*
X65552Y-21546D01*
X65553Y-21336D01*
X65553Y-24336D01*
X65473Y-24142D01*
X65324Y-23994D01*
X65131Y-23914D01*
X64921Y-23913D01*
X64727Y-23993D01*
X64579Y-24142D01*
X64499Y-24335D01*
X64498Y-24545D01*
X64578Y-24739D01*
X64727Y-24887D01*
X64920Y-24967D01*
X65128Y-24968D01*
X66376Y-26215D01*
X66376Y-26545D01*
X66229Y-26692D01*
X66149Y-26885D01*
X66148Y-27095D01*
X66228Y-27289D01*
X66377Y-27437D01*
X66570Y-27517D01*
X66780Y-27518D01*
X66974Y-27438D01*
X67122Y-27289D01*
X67202Y-27096D01*
X67203Y-26886D01*
X67203Y-28433D01*
X67050Y-28497D01*
X66852Y-28693D01*
X66746Y-28951D01*
X66745Y-29229D01*
X66852Y-29487D01*
X67049Y-29684D01*
X67306Y-29790D01*
X67584Y-29791D01*
X67842Y-29684D01*
X68039Y-29488D01*
X68145Y-29230D01*
X68146Y-28952D01*
X68106Y-28855D01*
X69480Y-27480D01*
X69541Y-27505D01*
X69352Y-27693D01*
X69246Y-27951D01*
X69245Y-28229D01*
X69352Y-28487D01*
X69549Y-28684D01*
X69806Y-28790D01*
X70084Y-28791D01*
X70342Y-28684D01*
X70539Y-28488D01*
X70645Y-28230D01*
X70646Y-27952D01*
X70646Y-33196D01*
X70075Y-33196D01*
X70075Y-32466D01*
X70075Y-31616D01*
X70037Y-31524D01*
X69981Y-31467D01*
X69981Y-29886D01*
X69824Y-29505D01*
X69533Y-29214D01*
X69152Y-29056D01*
X68741Y-29055D01*
X68360Y-29213D01*
X68069Y-29503D01*
X67911Y-29884D01*
X67910Y-30295D01*
X68068Y-30676D01*
X68359Y-30967D01*
X68739Y-31125D01*
X69151Y-31126D01*
X69531Y-30968D01*
X69822Y-30678D01*
X69980Y-30297D01*
X69981Y-29886D01*
X69981Y-31467D01*
X69967Y-31454D01*
X69875Y-31416D01*
X69776Y-31415D01*
X69026Y-31415D01*
X68934Y-31453D01*
X68863Y-31524D01*
X68850Y-31557D01*
X68689Y-31450D01*
X68450Y-31402D01*
X68211Y-31450D01*
X68008Y-31585D01*
X67873Y-31788D01*
X67825Y-32027D01*
X67825Y-32154D01*
X67873Y-32393D01*
X68008Y-32596D01*
X68211Y-32731D01*
X68450Y-32779D01*
X68689Y-32731D01*
X68850Y-32624D01*
X68863Y-32657D01*
X68934Y-32727D01*
X69025Y-32765D01*
X69125Y-32766D01*
X69875Y-32766D01*
X69967Y-32728D01*
X70037Y-32657D01*
X70075Y-32565D01*
X70075Y-32466D01*
X70075Y-33196D01*
X65148Y-33196D01*
X65191Y-32984D01*
X65191Y-32857D01*
X65143Y-32618D01*
X65011Y-32420D01*
X65143Y-32223D01*
X65191Y-31984D01*
X65191Y-31857D01*
X65143Y-31618D01*
X65011Y-31420D01*
X65143Y-31223D01*
X65191Y-30984D01*
X65191Y-30857D01*
X65143Y-30618D01*
X65011Y-30420D01*
X65143Y-30223D01*
X65191Y-29984D01*
X65191Y-29857D01*
X65143Y-29618D01*
X65011Y-29420D01*
X65143Y-29223D01*
X65191Y-28984D01*
X65191Y-28857D01*
X65143Y-28618D01*
X65011Y-28420D01*
X65143Y-28223D01*
X65191Y-27984D01*
X65191Y-27857D01*
X65143Y-27618D01*
X65011Y-27420D01*
X65143Y-27223D01*
X65191Y-26984D01*
X65191Y-26857D01*
X65143Y-26618D01*
X65008Y-26415D01*
X64805Y-26280D01*
X64566Y-26232D01*
X64326Y-26280D01*
X64124Y-26415D01*
X64066Y-26502D01*
X64008Y-26415D01*
X63805Y-26280D01*
X63566Y-26232D01*
X63326Y-26280D01*
X63124Y-26415D01*
X63066Y-26502D01*
X63008Y-26415D01*
X62805Y-26280D01*
X62566Y-26232D01*
X62326Y-26280D01*
X62124Y-26415D01*
X62066Y-26502D01*
X62008Y-26415D01*
X61961Y-26384D01*
X62015Y-26330D01*
X62080Y-26233D01*
X62103Y-26118D01*
X62103Y-26118D01*
X62103Y-20903D01*
X62169Y-20838D01*
X62209Y-20741D01*
X66437Y-20741D01*
X66180Y-20847D01*
X65982Y-21043D01*
X65876Y-21301D01*
X65875Y-21579D01*
X65982Y-21837D01*
X66178Y-22034D01*
X66436Y-22140D01*
X66714Y-22141D01*
X66972Y-22034D01*
X67169Y-21838D01*
X67275Y-21580D01*
X67276Y-21302D01*
X67169Y-21045D01*
X66973Y-20847D01*
X66715Y-20741D01*
X66576Y-20741D01*
X68442Y-20741D01*
X68482Y-20837D01*
X68678Y-21034D01*
X68936Y-21140D01*
X69214Y-21141D01*
X69472Y-21034D01*
X69669Y-20838D01*
X69775Y-20580D01*
X69776Y-20302D01*
X69704Y-20129D01*
X75947Y-20129D01*
X75876Y-20301D01*
X75875Y-20579D01*
X75982Y-20837D01*
X76178Y-21034D01*
X76436Y-21140D01*
X76714Y-21141D01*
X76972Y-21034D01*
X77169Y-20838D01*
X77209Y-20741D01*
X81437Y-20741D01*
X81180Y-20847D01*
X80982Y-21043D01*
X80876Y-21301D01*
X80875Y-21579D01*
X80982Y-21837D01*
X81178Y-22034D01*
X81436Y-22140D01*
X81714Y-22141D01*
X81972Y-22034D01*
X82169Y-21838D01*
X82275Y-21580D01*
X82276Y-21302D01*
X82169Y-21045D01*
X81973Y-20847D01*
X81715Y-20741D01*
X81576Y-20741D01*
X83442Y-20741D01*
X83482Y-20837D01*
X83678Y-21034D01*
X83936Y-21140D01*
X84214Y-21141D01*
X84472Y-21034D01*
X84669Y-20838D01*
X84775Y-20580D01*
X84776Y-20302D01*
X84704Y-20129D01*
X89395Y-20129D01*
X90672Y-21406D01*
X90371Y-21405D01*
X89990Y-21563D01*
X89776Y-21777D01*
X89776Y-21302D01*
X89669Y-21045D01*
X89473Y-20847D01*
X89215Y-20741D01*
X88937Y-20740D01*
X88680Y-20847D01*
X88482Y-21043D01*
X88376Y-21301D01*
X88375Y-21579D01*
X88482Y-21837D01*
X88678Y-22034D01*
X88936Y-22140D01*
X89214Y-22141D01*
X89472Y-22034D01*
X89669Y-21838D01*
X89775Y-21580D01*
X89776Y-21302D01*
X89776Y-21777D01*
X89699Y-21853D01*
X89541Y-22234D01*
X89540Y-22645D01*
X89698Y-23026D01*
X89988Y-23317D01*
X90369Y-23475D01*
X90780Y-23476D01*
X91161Y-23318D01*
X91452Y-23028D01*
X91610Y-22647D01*
X91611Y-22344D01*
X93826Y-24559D01*
X93826Y-25495D01*
X93679Y-25642D01*
X93599Y-25835D01*
X93598Y-26045D01*
X93678Y-26239D01*
X93827Y-26387D01*
X94020Y-26467D01*
X94230Y-26468D01*
X94424Y-26388D01*
X94572Y-26239D01*
X94652Y-26046D01*
X94653Y-25836D01*
X94573Y-25642D01*
X94426Y-25495D01*
X94426Y-24741D01*
X95530Y-24741D01*
X95677Y-24887D01*
X95870Y-24967D01*
X96080Y-24968D01*
X96274Y-24888D01*
X96422Y-24739D01*
X96502Y-24546D01*
X96503Y-24336D01*
X96503Y-21336D01*
X96423Y-21142D01*
X96274Y-20994D01*
X96081Y-20914D01*
X96076Y-20914D01*
X96076Y-12802D01*
X95969Y-12545D01*
X95773Y-12347D01*
X95515Y-12241D01*
X95237Y-12240D01*
X94980Y-12347D01*
X94782Y-12543D01*
X94676Y-12801D01*
X94675Y-13079D01*
X94782Y-13337D01*
X94978Y-13534D01*
X95236Y-13640D01*
X95514Y-13641D01*
X95772Y-13534D01*
X95969Y-13338D01*
X96075Y-13080D01*
X96076Y-12802D01*
X96076Y-20914D01*
X95871Y-20913D01*
X95677Y-20993D01*
X95529Y-21142D01*
X95501Y-21210D01*
X95501Y-17316D01*
X95501Y-16466D01*
X95463Y-16374D01*
X95411Y-16322D01*
X95411Y-14736D01*
X95253Y-14355D01*
X94963Y-14064D01*
X94582Y-13906D01*
X94171Y-13905D01*
X93790Y-14063D01*
X93576Y-14277D01*
X93576Y-13802D01*
X93469Y-13545D01*
X93273Y-13347D01*
X93015Y-13241D01*
X92737Y-13240D01*
X92480Y-13347D01*
X92282Y-13543D01*
X92176Y-13801D01*
X92175Y-14079D01*
X92282Y-14337D01*
X92478Y-14534D01*
X92736Y-14640D01*
X93014Y-14641D01*
X93272Y-14534D01*
X93469Y-14338D01*
X93575Y-14080D01*
X93576Y-13802D01*
X93576Y-14277D01*
X93499Y-14353D01*
X93341Y-14734D01*
X93340Y-15145D01*
X93498Y-15526D01*
X93788Y-15817D01*
X94169Y-15975D01*
X94580Y-15976D01*
X94961Y-15818D01*
X95252Y-15528D01*
X95410Y-15147D01*
X95411Y-14736D01*
X95411Y-16322D01*
X95392Y-16304D01*
X95300Y-16266D01*
X95201Y-16265D01*
X94451Y-16265D01*
X94359Y-16303D01*
X94289Y-16374D01*
X94275Y-16407D01*
X94115Y-16300D01*
X93876Y-16252D01*
X93636Y-16300D01*
X93434Y-16435D01*
X93298Y-16638D01*
X93251Y-16877D01*
X93251Y-17004D01*
X93298Y-17243D01*
X93434Y-17446D01*
X93636Y-17581D01*
X93876Y-17629D01*
X94115Y-17581D01*
X94275Y-17474D01*
X94288Y-17507D01*
X94359Y-17577D01*
X94451Y-17615D01*
X94550Y-17616D01*
X95300Y-17616D01*
X95392Y-17578D01*
X95462Y-17507D01*
X95500Y-17415D01*
X95501Y-17316D01*
X95501Y-21210D01*
X95449Y-21335D01*
X95448Y-21545D01*
X95528Y-21739D01*
X95677Y-21887D01*
X95870Y-21967D01*
X96080Y-21968D01*
X96274Y-21888D01*
X96422Y-21739D01*
X96502Y-21546D01*
X96503Y-21336D01*
X96503Y-24336D01*
X96423Y-24142D01*
X96274Y-23994D01*
X96081Y-23914D01*
X95871Y-23913D01*
X95677Y-23993D01*
X95530Y-24141D01*
X94256Y-24141D01*
X92276Y-22160D01*
X92276Y-20302D01*
X92169Y-20045D01*
X91973Y-19847D01*
X91715Y-19741D01*
X91437Y-19740D01*
X91180Y-19847D01*
X90982Y-20043D01*
X90876Y-20301D01*
X90875Y-20579D01*
X90982Y-20837D01*
X91178Y-21034D01*
X91436Y-21140D01*
X91714Y-21141D01*
X91972Y-21034D01*
X92169Y-20838D01*
X92275Y-20580D01*
X92276Y-20302D01*
X92276Y-22160D01*
X89820Y-19705D01*
X89820Y-18871D01*
X91223Y-17467D01*
X91430Y-17468D01*
X91624Y-17388D01*
X91772Y-17239D01*
X91852Y-17046D01*
X91853Y-16836D01*
X91853Y-13836D01*
X91773Y-13642D01*
X91624Y-13494D01*
X91431Y-13414D01*
X91221Y-13413D01*
X91027Y-13493D01*
X90879Y-13642D01*
X90799Y-13835D01*
X90798Y-14045D01*
X90878Y-14239D01*
X91027Y-14387D01*
X91220Y-14467D01*
X91430Y-14468D01*
X91624Y-14388D01*
X91772Y-14239D01*
X91852Y-14046D01*
X91853Y-13836D01*
X91853Y-16836D01*
X91773Y-16642D01*
X91624Y-16494D01*
X91431Y-16414D01*
X91223Y-16413D01*
X89726Y-14916D01*
X89726Y-9886D01*
X89872Y-9739D01*
X89952Y-9546D01*
X89953Y-9336D01*
X89885Y-9174D01*
X91391Y-9174D01*
X91351Y-9377D01*
X91351Y-9504D01*
X91398Y-9743D01*
X91534Y-9946D01*
X91736Y-10081D01*
X91976Y-10129D01*
X92215Y-10081D01*
X92375Y-9974D01*
X92388Y-10007D01*
X92459Y-10077D01*
X92551Y-10115D01*
X92650Y-10116D01*
X93400Y-10116D01*
X93492Y-10078D01*
X93562Y-10007D01*
X93600Y-9915D01*
X93601Y-9816D01*
X93601Y-9174D01*
X96466Y-9174D01*
X96399Y-9335D01*
X96398Y-9545D01*
X96478Y-9739D01*
X96626Y-9886D01*
X96626Y-12241D01*
X96648Y-12355D01*
X96713Y-12453D01*
X101099Y-16838D01*
X101098Y-17045D01*
X101178Y-17239D01*
X101327Y-17387D01*
X101520Y-17467D01*
X101730Y-17468D01*
X101924Y-17388D01*
X102072Y-17239D01*
X102152Y-17046D01*
X102153Y-16836D01*
X102153Y-13836D01*
X102073Y-13642D01*
X101924Y-13494D01*
X101731Y-13414D01*
X101521Y-13413D01*
X101327Y-13493D01*
X101179Y-13642D01*
X101099Y-13835D01*
X101098Y-14045D01*
X101178Y-14239D01*
X101327Y-14387D01*
X101520Y-14467D01*
X101730Y-14468D01*
X101924Y-14388D01*
X102072Y-14239D01*
X102152Y-14046D01*
X102153Y-13836D01*
X102153Y-16836D01*
X102073Y-16642D01*
X101924Y-16494D01*
X101731Y-16414D01*
X101523Y-16413D01*
X97226Y-12116D01*
X97226Y-9886D01*
X97372Y-9739D01*
X97452Y-9546D01*
X97453Y-9336D01*
X97385Y-9174D01*
X98891Y-9174D01*
X98851Y-9377D01*
X98851Y-9504D01*
X98898Y-9743D01*
X99034Y-9946D01*
X99236Y-10081D01*
X99476Y-10129D01*
X99715Y-10081D01*
X99875Y-9974D01*
X99888Y-10007D01*
X99959Y-10077D01*
X100051Y-10115D01*
X100150Y-10116D01*
X100900Y-10116D01*
X100992Y-10078D01*
X101062Y-10007D01*
X101100Y-9915D01*
X101101Y-9816D01*
X101101Y-9174D01*
X103734Y-9174D01*
X103899Y-9338D01*
X103898Y-9545D01*
X103978Y-9739D01*
X104127Y-9887D01*
X104320Y-9967D01*
X104530Y-9968D01*
X104724Y-9888D01*
X104872Y-9739D01*
X104952Y-9546D01*
X104953Y-9336D01*
X104953Y-6336D01*
X104873Y-6142D01*
X104724Y-5994D01*
X104531Y-5914D01*
X104321Y-5913D01*
X104127Y-5993D01*
X103979Y-6142D01*
X103899Y-6335D01*
X103898Y-6545D01*
X103978Y-6739D01*
X104127Y-6887D01*
X104320Y-6967D01*
X104530Y-6968D01*
X104724Y-6888D01*
X104872Y-6739D01*
X104952Y-6546D01*
X104953Y-6336D01*
X104953Y-9336D01*
X104873Y-9142D01*
X104724Y-8994D01*
X104531Y-8914D01*
X104323Y-8913D01*
X104071Y-8662D01*
X103973Y-8596D01*
X103859Y-8574D01*
X101676Y-8574D01*
X101676Y-5302D01*
X101569Y-5045D01*
X101373Y-4847D01*
X101115Y-4741D01*
X100837Y-4740D01*
X100580Y-4847D01*
X100382Y-5043D01*
X100276Y-5301D01*
X100275Y-5579D01*
X100382Y-5837D01*
X100578Y-6034D01*
X100836Y-6140D01*
X101114Y-6141D01*
X101372Y-6034D01*
X101569Y-5838D01*
X101675Y-5580D01*
X101676Y-5302D01*
X101676Y-8574D01*
X101011Y-8574D01*
X101011Y-7236D01*
X100853Y-6855D01*
X100563Y-6564D01*
X100182Y-6406D01*
X99771Y-6405D01*
X99390Y-6563D01*
X99176Y-6777D01*
X99176Y-6302D01*
X99069Y-6045D01*
X98873Y-5847D01*
X98615Y-5741D01*
X98337Y-5740D01*
X98080Y-5847D01*
X97882Y-6043D01*
X97776Y-6301D01*
X97775Y-6579D01*
X97882Y-6837D01*
X98078Y-7034D01*
X98336Y-7140D01*
X98614Y-7141D01*
X98872Y-7034D01*
X99069Y-6838D01*
X99175Y-6580D01*
X99176Y-6302D01*
X99176Y-6777D01*
X99099Y-6853D01*
X98941Y-7234D01*
X98940Y-7645D01*
X99098Y-8026D01*
X99388Y-8317D01*
X99769Y-8475D01*
X100180Y-8476D01*
X100561Y-8318D01*
X100852Y-8028D01*
X101010Y-7647D01*
X101011Y-7236D01*
X101011Y-8574D01*
X97453Y-8574D01*
X97453Y-6336D01*
X97373Y-6142D01*
X97224Y-5994D01*
X97031Y-5914D01*
X96821Y-5913D01*
X96627Y-5993D01*
X96479Y-6142D01*
X96399Y-6335D01*
X96398Y-6545D01*
X96478Y-6739D01*
X96627Y-6887D01*
X96820Y-6967D01*
X97030Y-6968D01*
X97224Y-6888D01*
X97372Y-6739D01*
X97452Y-6546D01*
X97453Y-6336D01*
X97453Y-8574D01*
X94176Y-8574D01*
X94176Y-5302D01*
X94069Y-5045D01*
X93873Y-4847D01*
X93615Y-4741D01*
X93337Y-4740D01*
X93080Y-4847D01*
X92882Y-5043D01*
X92776Y-5301D01*
X92775Y-5579D01*
X92882Y-5837D01*
X93078Y-6034D01*
X93336Y-6140D01*
X93614Y-6141D01*
X93872Y-6034D01*
X94069Y-5838D01*
X94175Y-5580D01*
X94176Y-5302D01*
X94176Y-8574D01*
X93511Y-8574D01*
X93511Y-7236D01*
X93353Y-6855D01*
X93063Y-6564D01*
X92682Y-6406D01*
X92271Y-6405D01*
X91890Y-6563D01*
X91676Y-6777D01*
X91676Y-6302D01*
X91569Y-6045D01*
X91373Y-5847D01*
X91115Y-5741D01*
X90837Y-5740D01*
X90580Y-5847D01*
X90382Y-6043D01*
X90276Y-6301D01*
X90275Y-6579D01*
X90382Y-6837D01*
X90578Y-7034D01*
X90836Y-7140D01*
X91114Y-7141D01*
X91372Y-7034D01*
X91569Y-6838D01*
X91675Y-6580D01*
X91676Y-6302D01*
X91676Y-6777D01*
X91599Y-6853D01*
X91441Y-7234D01*
X91440Y-7645D01*
X91598Y-8026D01*
X91888Y-8317D01*
X92269Y-8475D01*
X92680Y-8476D01*
X93061Y-8318D01*
X93352Y-8028D01*
X93510Y-7647D01*
X93511Y-7236D01*
X93511Y-8574D01*
X89953Y-8574D01*
X89953Y-6336D01*
X89873Y-6142D01*
X89724Y-5994D01*
X89531Y-5914D01*
X89321Y-5913D01*
X89127Y-5993D01*
X88979Y-6142D01*
X88899Y-6335D01*
X88898Y-6545D01*
X88978Y-6739D01*
X89127Y-6887D01*
X89320Y-6967D01*
X89530Y-6968D01*
X89724Y-6888D01*
X89872Y-6739D01*
X89952Y-6546D01*
X89953Y-6336D01*
X89953Y-8574D01*
X86676Y-8574D01*
X86676Y-5302D01*
X86569Y-5045D01*
X86373Y-4847D01*
X86115Y-4741D01*
X85837Y-4740D01*
X85580Y-4847D01*
X85382Y-5043D01*
X85276Y-5301D01*
X85275Y-5579D01*
X85382Y-5837D01*
X85578Y-6034D01*
X85836Y-6140D01*
X86114Y-6141D01*
X86372Y-6034D01*
X86569Y-5838D01*
X86675Y-5580D01*
X86676Y-5302D01*
X86676Y-8574D01*
X86011Y-8574D01*
X86011Y-7236D01*
X85853Y-6855D01*
X85563Y-6564D01*
X85182Y-6406D01*
X84771Y-6405D01*
X84390Y-6563D01*
X84176Y-6777D01*
X84176Y-6302D01*
X84069Y-6045D01*
X83873Y-5847D01*
X83615Y-5741D01*
X83337Y-5740D01*
X83080Y-5847D01*
X82882Y-6043D01*
X82776Y-6301D01*
X82775Y-6579D01*
X82882Y-6837D01*
X83078Y-7034D01*
X83336Y-7140D01*
X83614Y-7141D01*
X83872Y-7034D01*
X84069Y-6838D01*
X84175Y-6580D01*
X84176Y-6302D01*
X84176Y-6777D01*
X84099Y-6853D01*
X83941Y-7234D01*
X83940Y-7645D01*
X84098Y-8026D01*
X84388Y-8317D01*
X84769Y-8475D01*
X85180Y-8476D01*
X85561Y-8318D01*
X85852Y-8028D01*
X86010Y-7647D01*
X86011Y-7236D01*
X86011Y-8574D01*
X82453Y-8574D01*
X82453Y-6336D01*
X82373Y-6142D01*
X82224Y-5994D01*
X82031Y-5914D01*
X81821Y-5913D01*
X81627Y-5993D01*
X81479Y-6142D01*
X81399Y-6335D01*
X81398Y-6545D01*
X81478Y-6739D01*
X81627Y-6887D01*
X81820Y-6967D01*
X82030Y-6968D01*
X82224Y-6888D01*
X82372Y-6739D01*
X82452Y-6546D01*
X82453Y-6336D01*
X82453Y-8574D01*
X79176Y-8574D01*
X79176Y-5302D01*
X79069Y-5045D01*
X78873Y-4847D01*
X78615Y-4741D01*
X78337Y-4740D01*
X78080Y-4847D01*
X77882Y-5043D01*
X77776Y-5301D01*
X77775Y-5579D01*
X77882Y-5837D01*
X78078Y-6034D01*
X78336Y-6140D01*
X78614Y-6141D01*
X78872Y-6034D01*
X79069Y-5838D01*
X79175Y-5580D01*
X79176Y-5302D01*
X79176Y-8574D01*
X78511Y-8574D01*
X78511Y-7236D01*
X78353Y-6855D01*
X78063Y-6564D01*
X77682Y-6406D01*
X77271Y-6405D01*
X76890Y-6563D01*
X76676Y-6777D01*
X76676Y-6302D01*
X76569Y-6045D01*
X76373Y-5847D01*
X76115Y-5741D01*
X75837Y-5740D01*
X75580Y-5847D01*
X75382Y-6043D01*
X75276Y-6301D01*
X75275Y-6579D01*
X75382Y-6837D01*
X75578Y-7034D01*
X75836Y-7140D01*
X76114Y-7141D01*
X76372Y-7034D01*
X76569Y-6838D01*
X76675Y-6580D01*
X76676Y-6302D01*
X76676Y-6777D01*
X76599Y-6853D01*
X76441Y-7234D01*
X76440Y-7645D01*
X76598Y-8026D01*
X76888Y-8317D01*
X77269Y-8475D01*
X77680Y-8476D01*
X78061Y-8318D01*
X78352Y-8028D01*
X78510Y-7647D01*
X78511Y-7236D01*
X78511Y-8574D01*
X74953Y-8574D01*
X74953Y-6336D01*
X74873Y-6142D01*
X74724Y-5994D01*
X74531Y-5914D01*
X74321Y-5913D01*
X74127Y-5993D01*
X73979Y-6142D01*
X73899Y-6335D01*
X73898Y-6545D01*
X73978Y-6739D01*
X74127Y-6887D01*
X74320Y-6967D01*
X74530Y-6968D01*
X74724Y-6888D01*
X74872Y-6739D01*
X74952Y-6546D01*
X74953Y-6336D01*
X74953Y-8574D01*
X71676Y-8574D01*
X71676Y-5302D01*
X71569Y-5045D01*
X71373Y-4847D01*
X71115Y-4741D01*
X70837Y-4740D01*
X70580Y-4847D01*
X70382Y-5043D01*
X70276Y-5301D01*
X70275Y-5579D01*
X70382Y-5837D01*
X70578Y-6034D01*
X70836Y-6140D01*
X71114Y-6141D01*
X71372Y-6034D01*
X71569Y-5838D01*
X71675Y-5580D01*
X71676Y-5302D01*
X71676Y-8574D01*
X71011Y-8574D01*
X71011Y-7236D01*
X70853Y-6855D01*
X70563Y-6564D01*
X70182Y-6406D01*
X69771Y-6405D01*
X69390Y-6563D01*
X69176Y-6777D01*
X69176Y-6302D01*
X69069Y-6045D01*
X68873Y-5847D01*
X68615Y-5741D01*
X68337Y-5740D01*
X68080Y-5847D01*
X67882Y-6043D01*
X67776Y-6301D01*
X67775Y-6579D01*
X67882Y-6837D01*
X68078Y-7034D01*
X68336Y-7140D01*
X68614Y-7141D01*
X68872Y-7034D01*
X69069Y-6838D01*
X69175Y-6580D01*
X69176Y-6302D01*
X69176Y-6777D01*
X69099Y-6853D01*
X68941Y-7234D01*
X68940Y-7645D01*
X69098Y-8026D01*
X69388Y-8317D01*
X69769Y-8475D01*
X70180Y-8476D01*
X70561Y-8318D01*
X70852Y-8028D01*
X71010Y-7647D01*
X71011Y-7236D01*
X71011Y-8574D01*
X67453Y-8574D01*
X67453Y-6336D01*
X67373Y-6142D01*
X67224Y-5994D01*
X67031Y-5914D01*
X66821Y-5913D01*
X66627Y-5993D01*
X66479Y-6142D01*
X66399Y-6335D01*
X66398Y-6545D01*
X66478Y-6739D01*
X66627Y-6887D01*
X66820Y-6967D01*
X67030Y-6968D01*
X67224Y-6888D01*
X67372Y-6739D01*
X67452Y-6546D01*
X67453Y-6336D01*
X67453Y-8574D01*
X66888Y-8574D01*
X66773Y-8596D01*
X66676Y-8662D01*
X64176Y-11162D01*
X64176Y-5302D01*
X64069Y-5045D01*
X63873Y-4847D01*
X63615Y-4741D01*
X63337Y-4740D01*
X63080Y-4847D01*
X62882Y-5043D01*
X62776Y-5301D01*
X62775Y-5579D01*
X62882Y-5837D01*
X63078Y-6034D01*
X63336Y-6140D01*
X63614Y-6141D01*
X63872Y-6034D01*
X64069Y-5838D01*
X64175Y-5580D01*
X64176Y-5302D01*
X64176Y-11162D01*
X63981Y-11357D01*
X63916Y-11454D01*
X63893Y-11569D01*
X63893Y-13547D01*
X63601Y-13839D01*
X63601Y-9816D01*
X63601Y-8966D01*
X63563Y-8874D01*
X63511Y-8822D01*
X63511Y-7236D01*
X63353Y-6855D01*
X63063Y-6564D01*
X62682Y-6406D01*
X62271Y-6405D01*
X61890Y-6563D01*
X61676Y-6777D01*
X61676Y-6302D01*
X61569Y-6045D01*
X61373Y-5847D01*
X61115Y-5741D01*
X60837Y-5740D01*
X60580Y-5847D01*
X60382Y-6043D01*
X60276Y-6301D01*
X60275Y-6579D01*
X60382Y-6837D01*
X60578Y-7034D01*
X60836Y-7140D01*
X61114Y-7141D01*
X61372Y-7034D01*
X61569Y-6838D01*
X61675Y-6580D01*
X61676Y-6302D01*
X61676Y-6777D01*
X61599Y-6853D01*
X61441Y-7234D01*
X61440Y-7645D01*
X61598Y-8026D01*
X61888Y-8317D01*
X62269Y-8475D01*
X62680Y-8476D01*
X63061Y-8318D01*
X63352Y-8028D01*
X63510Y-7647D01*
X63511Y-7236D01*
X63511Y-8822D01*
X63492Y-8804D01*
X63400Y-8766D01*
X63301Y-8765D01*
X62551Y-8765D01*
X62459Y-8803D01*
X62389Y-8874D01*
X62375Y-8907D01*
X62215Y-8800D01*
X61976Y-8752D01*
X61736Y-8800D01*
X61534Y-8935D01*
X61398Y-9138D01*
X61351Y-9377D01*
X61351Y-9504D01*
X61398Y-9743D01*
X61534Y-9946D01*
X61736Y-10081D01*
X61976Y-10129D01*
X62215Y-10081D01*
X62375Y-9974D01*
X62388Y-10007D01*
X62459Y-10077D01*
X62551Y-10115D01*
X62650Y-10116D01*
X63400Y-10116D01*
X63492Y-10078D01*
X63562Y-10007D01*
X63600Y-9915D01*
X63601Y-9816D01*
X63601Y-13839D01*
X63576Y-13864D01*
X63576Y-13802D01*
X63469Y-13545D01*
X63273Y-13347D01*
X63015Y-13241D01*
X62737Y-13240D01*
X62480Y-13347D01*
X62282Y-13543D01*
X62176Y-13801D01*
X62175Y-14079D01*
X62282Y-14337D01*
X62478Y-14534D01*
X62736Y-14640D01*
X62799Y-14640D01*
X62431Y-15008D01*
X62366Y-15106D01*
X62343Y-15220D01*
X62343Y-16096D01*
X61853Y-16587D01*
X61853Y-13836D01*
X61773Y-13642D01*
X61624Y-13494D01*
X61431Y-13414D01*
X61221Y-13413D01*
X61027Y-13493D01*
X60879Y-13642D01*
X60799Y-13835D01*
X60798Y-14045D01*
X60878Y-14239D01*
X61027Y-14387D01*
X61220Y-14467D01*
X61430Y-14468D01*
X61624Y-14388D01*
X61772Y-14239D01*
X61852Y-14046D01*
X61853Y-13836D01*
X61853Y-16587D01*
X61780Y-16660D01*
X61773Y-16642D01*
X61624Y-16494D01*
X61431Y-16414D01*
X61223Y-16413D01*
X59726Y-14916D01*
X59726Y-9886D01*
X59872Y-9739D01*
X59952Y-9546D01*
X59953Y-9336D01*
X59953Y-6336D01*
X59873Y-6142D01*
X59724Y-5994D01*
X59531Y-5914D01*
X59321Y-5913D01*
X59127Y-5993D01*
X58979Y-6142D01*
X58899Y-6335D01*
X58898Y-6545D01*
X58978Y-6739D01*
X59127Y-6887D01*
X59320Y-6967D01*
X59530Y-6968D01*
X59724Y-6888D01*
X59872Y-6739D01*
X59952Y-6546D01*
X59953Y-6336D01*
X59953Y-9336D01*
X59873Y-9142D01*
X59724Y-8994D01*
X59531Y-8914D01*
X59321Y-8913D01*
X59127Y-8993D01*
X58979Y-9142D01*
X58899Y-9335D01*
X58898Y-9545D01*
X58978Y-9739D01*
X59126Y-9886D01*
X59126Y-15041D01*
X59148Y-15155D01*
X59213Y-15253D01*
X60799Y-16838D01*
X60798Y-17045D01*
X60878Y-17239D01*
X60971Y-17332D01*
X60474Y-17332D01*
X60359Y-17354D01*
X60262Y-17419D01*
X58576Y-19106D01*
X58576Y-12802D01*
X58469Y-12545D01*
X58273Y-12347D01*
X58015Y-12241D01*
X57737Y-12240D01*
X57480Y-12347D01*
X57282Y-12543D01*
X57242Y-12641D01*
X56676Y-12641D01*
X56676Y-5302D01*
X56569Y-5045D01*
X56373Y-4847D01*
X56115Y-4741D01*
X55837Y-4740D01*
X55580Y-4847D01*
X55382Y-5043D01*
X55276Y-5301D01*
X55275Y-5579D01*
X55382Y-5837D01*
X55578Y-6034D01*
X55836Y-6140D01*
X56114Y-6141D01*
X56372Y-6034D01*
X56569Y-5838D01*
X56675Y-5580D01*
X56676Y-5302D01*
X56676Y-12641D01*
X56101Y-12641D01*
X56101Y-9816D01*
X56101Y-8966D01*
X56063Y-8874D01*
X56011Y-8822D01*
X56011Y-7236D01*
X55853Y-6855D01*
X55563Y-6564D01*
X55182Y-6406D01*
X54771Y-6405D01*
X54390Y-6563D01*
X54176Y-6777D01*
X54176Y-6302D01*
X54069Y-6045D01*
X53873Y-5847D01*
X53615Y-5741D01*
X53337Y-5740D01*
X53080Y-5847D01*
X52882Y-6043D01*
X52776Y-6301D01*
X52775Y-6579D01*
X52882Y-6837D01*
X53078Y-7034D01*
X53336Y-7140D01*
X53614Y-7141D01*
X53872Y-7034D01*
X54069Y-6838D01*
X54175Y-6580D01*
X54176Y-6302D01*
X54176Y-6777D01*
X54099Y-6853D01*
X53941Y-7234D01*
X53940Y-7645D01*
X54098Y-8026D01*
X54388Y-8317D01*
X54769Y-8475D01*
X55180Y-8476D01*
X55561Y-8318D01*
X55852Y-8028D01*
X56010Y-7647D01*
X56011Y-7236D01*
X56011Y-8822D01*
X55992Y-8804D01*
X55900Y-8766D01*
X55801Y-8765D01*
X55051Y-8765D01*
X54959Y-8803D01*
X54889Y-8874D01*
X54875Y-8907D01*
X54715Y-8800D01*
X54476Y-8752D01*
X54236Y-8800D01*
X54034Y-8935D01*
X53898Y-9138D01*
X53851Y-9377D01*
X53851Y-9504D01*
X53898Y-9743D01*
X54034Y-9946D01*
X54236Y-10081D01*
X54476Y-10129D01*
X54715Y-10081D01*
X54875Y-9974D01*
X54888Y-10007D01*
X54959Y-10077D01*
X55051Y-10115D01*
X55150Y-10116D01*
X55900Y-10116D01*
X55992Y-10078D01*
X56062Y-10007D01*
X56100Y-9915D01*
X56101Y-9816D01*
X56101Y-12641D01*
X52453Y-12641D01*
X52453Y-9336D01*
X52453Y-6336D01*
X52373Y-6142D01*
X52224Y-5994D01*
X52031Y-5914D01*
X51821Y-5913D01*
X51627Y-5993D01*
X51479Y-6142D01*
X51399Y-6335D01*
X51398Y-6545D01*
X51478Y-6739D01*
X51627Y-6887D01*
X51820Y-6967D01*
X52030Y-6968D01*
X52224Y-6888D01*
X52372Y-6739D01*
X52452Y-6546D01*
X52453Y-6336D01*
X52453Y-9336D01*
X52373Y-9142D01*
X52224Y-8994D01*
X52031Y-8914D01*
X51821Y-8913D01*
X51627Y-8993D01*
X51479Y-9142D01*
X51399Y-9335D01*
X51398Y-9545D01*
X51478Y-9739D01*
X51627Y-9887D01*
X51820Y-9967D01*
X52030Y-9968D01*
X52224Y-9888D01*
X52372Y-9739D01*
X52452Y-9546D01*
X52453Y-9336D01*
X52453Y-12641D01*
X51009Y-12641D01*
X50969Y-12545D01*
X50773Y-12347D01*
X50515Y-12241D01*
X50237Y-12240D01*
X49980Y-12347D01*
X49782Y-12543D01*
X49676Y-12801D01*
X49675Y-13079D01*
X49782Y-13337D01*
X49978Y-13534D01*
X50236Y-13640D01*
X50514Y-13641D01*
X50772Y-13534D01*
X50969Y-13338D01*
X51009Y-13241D01*
X55237Y-13241D01*
X54980Y-13347D01*
X54782Y-13543D01*
X54676Y-13801D01*
X54675Y-14079D01*
X54782Y-14337D01*
X54978Y-14534D01*
X55236Y-14640D01*
X55514Y-14641D01*
X55772Y-14534D01*
X55969Y-14338D01*
X56075Y-14080D01*
X56076Y-13802D01*
X55969Y-13545D01*
X55773Y-13347D01*
X55515Y-13241D01*
X55376Y-13241D01*
X57242Y-13241D01*
X57282Y-13337D01*
X57478Y-13534D01*
X57736Y-13640D01*
X58014Y-13641D01*
X58272Y-13534D01*
X58469Y-13338D01*
X58575Y-13080D01*
X58576Y-12802D01*
X58576Y-19106D01*
X54766Y-22915D01*
X54701Y-23012D01*
X54678Y-23127D01*
X54678Y-24303D01*
X54478Y-24503D01*
X54478Y-21765D01*
X55538Y-20705D01*
X55538Y-20705D01*
X55603Y-20608D01*
X55625Y-20493D01*
X55626Y-20493D01*
X55626Y-18741D01*
X57080Y-18741D01*
X57227Y-18887D01*
X57420Y-18967D01*
X57630Y-18968D01*
X57824Y-18888D01*
X57972Y-18739D01*
X58052Y-18546D01*
X58053Y-18336D01*
X58001Y-18210D01*
X58001Y-17316D01*
X58001Y-16466D01*
X57963Y-16374D01*
X57911Y-16322D01*
X57911Y-14736D01*
X57753Y-14355D01*
X57463Y-14064D01*
X57082Y-13906D01*
X56671Y-13905D01*
X56290Y-14063D01*
X55999Y-14353D01*
X55841Y-14734D01*
X55840Y-15145D01*
X55998Y-15526D01*
X56288Y-15817D01*
X56669Y-15975D01*
X57080Y-15976D01*
X57461Y-15818D01*
X57752Y-15528D01*
X57910Y-15147D01*
X57911Y-14736D01*
X57911Y-16322D01*
X57892Y-16304D01*
X57800Y-16266D01*
X57701Y-16265D01*
X56951Y-16265D01*
X56859Y-16303D01*
X56789Y-16374D01*
X56775Y-16407D01*
X56615Y-16300D01*
X56376Y-16252D01*
X56136Y-16300D01*
X55934Y-16435D01*
X55798Y-16638D01*
X55751Y-16877D01*
X55751Y-17004D01*
X55798Y-17243D01*
X55934Y-17446D01*
X56136Y-17581D01*
X56376Y-17629D01*
X56615Y-17581D01*
X56775Y-17474D01*
X56788Y-17507D01*
X56859Y-17577D01*
X56951Y-17615D01*
X57050Y-17616D01*
X57800Y-17616D01*
X57892Y-17578D01*
X57962Y-17507D01*
X58000Y-17415D01*
X58001Y-17316D01*
X58001Y-18210D01*
X57973Y-18142D01*
X57824Y-17994D01*
X57631Y-17914D01*
X57421Y-17913D01*
X57227Y-17993D01*
X57080Y-18141D01*
X55450Y-18141D01*
X54352Y-17043D01*
X54353Y-16836D01*
X54353Y-13836D01*
X54273Y-13642D01*
X54124Y-13494D01*
X53931Y-13414D01*
X53721Y-13413D01*
X53527Y-13493D01*
X53379Y-13642D01*
X53299Y-13835D01*
X53298Y-14045D01*
X53378Y-14239D01*
X53527Y-14387D01*
X53720Y-14467D01*
X53930Y-14468D01*
X54124Y-14388D01*
X54272Y-14239D01*
X54352Y-14046D01*
X54353Y-13836D01*
X54353Y-16836D01*
X54273Y-16642D01*
X54124Y-16494D01*
X53931Y-16414D01*
X53721Y-16413D01*
X53527Y-16493D01*
X53379Y-16642D01*
X53299Y-16835D01*
X53298Y-17045D01*
X53378Y-17239D01*
X53527Y-17387D01*
X53720Y-17467D01*
X53928Y-17468D01*
X55026Y-18565D01*
X55026Y-20369D01*
X54748Y-20647D01*
X54775Y-20580D01*
X54776Y-20302D01*
X54669Y-20045D01*
X54473Y-19847D01*
X54215Y-19741D01*
X53937Y-19740D01*
X53680Y-19847D01*
X53482Y-20043D01*
X53376Y-20301D01*
X53375Y-20579D01*
X53482Y-20837D01*
X53678Y-21034D01*
X53936Y-21140D01*
X54214Y-21141D01*
X54282Y-21113D01*
X53966Y-21429D01*
X53901Y-21526D01*
X53878Y-21641D01*
X53878Y-21779D01*
X53663Y-21564D01*
X53282Y-21406D01*
X52871Y-21405D01*
X52490Y-21563D01*
X52199Y-21853D01*
X52041Y-22234D01*
X52040Y-22645D01*
X52198Y-23026D01*
X52488Y-23317D01*
X52869Y-23475D01*
X53280Y-23476D01*
X53661Y-23318D01*
X53878Y-23102D01*
X53878Y-23765D01*
X53151Y-23765D01*
X53059Y-23803D01*
X52989Y-23874D01*
X52975Y-23907D01*
X52815Y-23800D01*
X52576Y-23752D01*
X52336Y-23800D01*
X52134Y-23935D01*
X51998Y-24138D01*
X51951Y-24377D01*
X51951Y-24504D01*
X51998Y-24743D01*
X52134Y-24946D01*
X52336Y-25081D01*
X52576Y-25129D01*
X52815Y-25081D01*
X52975Y-24974D01*
X52988Y-25007D01*
X53059Y-25077D01*
X53151Y-25115D01*
X53250Y-25116D01*
X53481Y-25116D01*
X52646Y-25950D01*
X52581Y-26048D01*
X52559Y-26162D01*
X52559Y-27261D01*
X52581Y-27376D01*
X52646Y-27473D01*
X55607Y-30434D01*
X55607Y-30434D01*
X55705Y-30499D01*
X55820Y-30522D01*
X56521Y-30522D01*
X57298Y-31299D01*
X57124Y-31415D01*
X56988Y-31618D01*
X56941Y-31857D01*
X56941Y-31871D01*
X50985Y-25915D01*
X50985Y-21840D01*
X51178Y-22034D01*
X51436Y-22140D01*
X51714Y-22141D01*
X51972Y-22034D01*
X52169Y-21838D01*
X52275Y-21580D01*
X52276Y-21302D01*
X52169Y-21045D01*
X51973Y-20847D01*
X51715Y-20741D01*
X51437Y-20740D01*
X51180Y-20847D01*
X50985Y-21041D01*
X50985Y-19100D01*
X50985Y-19100D01*
X50962Y-18985D01*
X50897Y-18888D01*
X50897Y-18888D01*
X50552Y-18543D01*
X50553Y-18336D01*
X50501Y-18210D01*
X50501Y-17316D01*
X50501Y-16466D01*
X50463Y-16374D01*
X50411Y-16322D01*
X50411Y-14736D01*
X50253Y-14355D01*
X49963Y-14064D01*
X49582Y-13906D01*
X49176Y-13905D01*
X49176Y-5302D01*
X49069Y-5045D01*
X48873Y-4847D01*
X48615Y-4741D01*
X48337Y-4740D01*
X48080Y-4847D01*
X47882Y-5043D01*
X47776Y-5301D01*
X47775Y-5579D01*
X47882Y-5837D01*
X48078Y-6034D01*
X48336Y-6140D01*
X48614Y-6141D01*
X48872Y-6034D01*
X49069Y-5838D01*
X49175Y-5580D01*
X49176Y-5302D01*
X49176Y-13905D01*
X49171Y-13905D01*
X48790Y-14063D01*
X48601Y-14252D01*
X48601Y-9816D01*
X48601Y-8966D01*
X48563Y-8874D01*
X48511Y-8822D01*
X48511Y-7236D01*
X48353Y-6855D01*
X48063Y-6564D01*
X47682Y-6406D01*
X47271Y-6405D01*
X46890Y-6563D01*
X46676Y-6777D01*
X46676Y-6302D01*
X46569Y-6045D01*
X46373Y-5847D01*
X46115Y-5741D01*
X45837Y-5740D01*
X45580Y-5847D01*
X45382Y-6043D01*
X45276Y-6301D01*
X45275Y-6579D01*
X45382Y-6837D01*
X45578Y-7034D01*
X45836Y-7140D01*
X46114Y-7141D01*
X46372Y-7034D01*
X46569Y-6838D01*
X46675Y-6580D01*
X46676Y-6302D01*
X46676Y-6777D01*
X46599Y-6853D01*
X46441Y-7234D01*
X46440Y-7645D01*
X46598Y-8026D01*
X46888Y-8317D01*
X47269Y-8475D01*
X47680Y-8476D01*
X48061Y-8318D01*
X48352Y-8028D01*
X48510Y-7647D01*
X48511Y-7236D01*
X48511Y-8822D01*
X48492Y-8804D01*
X48400Y-8766D01*
X48301Y-8765D01*
X47551Y-8765D01*
X47459Y-8803D01*
X47389Y-8874D01*
X47375Y-8907D01*
X47215Y-8800D01*
X46976Y-8752D01*
X46736Y-8800D01*
X46534Y-8935D01*
X46398Y-9138D01*
X46351Y-9377D01*
X46351Y-9504D01*
X46398Y-9743D01*
X46534Y-9946D01*
X46736Y-10081D01*
X46976Y-10129D01*
X47215Y-10081D01*
X47375Y-9974D01*
X47388Y-10007D01*
X47459Y-10077D01*
X47551Y-10115D01*
X47650Y-10116D01*
X48400Y-10116D01*
X48492Y-10078D01*
X48562Y-10007D01*
X48600Y-9915D01*
X48601Y-9816D01*
X48601Y-14252D01*
X48576Y-14277D01*
X48576Y-13802D01*
X48469Y-13545D01*
X48273Y-13347D01*
X48015Y-13241D01*
X47737Y-13240D01*
X47480Y-13347D01*
X47282Y-13543D01*
X47176Y-13801D01*
X47175Y-14079D01*
X47282Y-14337D01*
X47478Y-14534D01*
X47736Y-14640D01*
X48014Y-14641D01*
X48272Y-14534D01*
X48469Y-14338D01*
X48575Y-14080D01*
X48576Y-13802D01*
X48576Y-14277D01*
X48499Y-14353D01*
X48341Y-14734D01*
X48340Y-15145D01*
X48498Y-15526D01*
X48788Y-15817D01*
X49169Y-15975D01*
X49580Y-15976D01*
X49961Y-15818D01*
X50252Y-15528D01*
X50410Y-15147D01*
X50411Y-14736D01*
X50411Y-16322D01*
X50392Y-16304D01*
X50300Y-16266D01*
X50201Y-16265D01*
X49451Y-16265D01*
X49359Y-16303D01*
X49289Y-16374D01*
X49275Y-16407D01*
X49115Y-16300D01*
X48876Y-16252D01*
X48636Y-16300D01*
X48434Y-16435D01*
X48298Y-16638D01*
X48251Y-16877D01*
X48251Y-17004D01*
X48298Y-17243D01*
X48434Y-17446D01*
X48636Y-17581D01*
X48876Y-17629D01*
X49115Y-17581D01*
X49275Y-17474D01*
X49288Y-17507D01*
X49359Y-17577D01*
X49451Y-17615D01*
X49550Y-17616D01*
X50300Y-17616D01*
X50392Y-17578D01*
X50462Y-17507D01*
X50500Y-17415D01*
X50501Y-17316D01*
X50501Y-18210D01*
X50473Y-18142D01*
X50324Y-17994D01*
X50131Y-17914D01*
X49921Y-17913D01*
X49727Y-17993D01*
X49580Y-18141D01*
X48372Y-18141D01*
X47047Y-16816D01*
X47047Y-11762D01*
X47047Y-11762D01*
X47025Y-11648D01*
X46960Y-11550D01*
X46960Y-11550D01*
X44952Y-9543D01*
X44953Y-9336D01*
X44953Y-6336D01*
X44873Y-6142D01*
X44724Y-5994D01*
X44531Y-5914D01*
X44321Y-5913D01*
X44127Y-5993D01*
X43979Y-6142D01*
X43899Y-6335D01*
X43898Y-6545D01*
X43978Y-6739D01*
X44127Y-6887D01*
X44320Y-6967D01*
X44530Y-6968D01*
X44724Y-6888D01*
X44872Y-6739D01*
X44952Y-6546D01*
X44953Y-6336D01*
X44953Y-9336D01*
X44873Y-9142D01*
X44724Y-8994D01*
X44531Y-8914D01*
X44321Y-8913D01*
X44127Y-8993D01*
X43979Y-9142D01*
X43899Y-9335D01*
X43898Y-9545D01*
X43978Y-9739D01*
X44127Y-9887D01*
X44320Y-9967D01*
X44528Y-9968D01*
X46447Y-11887D01*
X46447Y-13420D01*
X46431Y-13414D01*
X46221Y-13413D01*
X46027Y-13493D01*
X45879Y-13642D01*
X45799Y-13835D01*
X45798Y-14045D01*
X45878Y-14239D01*
X46027Y-14387D01*
X46220Y-14467D01*
X46430Y-14468D01*
X46447Y-14460D01*
X46447Y-16420D01*
X46431Y-16414D01*
X46221Y-16413D01*
X46027Y-16493D01*
X45879Y-16642D01*
X45799Y-16835D01*
X45798Y-17045D01*
X45878Y-17239D01*
X46027Y-17387D01*
X46220Y-17467D01*
X46430Y-17468D01*
X46624Y-17388D01*
X46697Y-17314D01*
X48035Y-18653D01*
X48035Y-18653D01*
X48133Y-18718D01*
X48247Y-18741D01*
X49580Y-18741D01*
X49727Y-18887D01*
X49920Y-18967D01*
X50128Y-18968D01*
X50385Y-19224D01*
X50385Y-21055D01*
X50324Y-20994D01*
X50131Y-20914D01*
X49921Y-20913D01*
X49727Y-20993D01*
X49579Y-21142D01*
X49499Y-21335D01*
X49498Y-21545D01*
X49578Y-21739D01*
X49727Y-21887D01*
X49920Y-21967D01*
X50130Y-21968D01*
X50324Y-21888D01*
X50385Y-21826D01*
X50385Y-26040D01*
X50408Y-26154D01*
X50473Y-26252D01*
X56472Y-32251D01*
X56345Y-32276D01*
X54798Y-30728D01*
X54701Y-30663D01*
X54586Y-30641D01*
X47983Y-30641D01*
X48021Y-30549D01*
X48021Y-30333D01*
X48017Y-30323D01*
X48138Y-30202D01*
X48138Y-30202D01*
X48204Y-30104D01*
X48226Y-29990D01*
X48226Y-29990D01*
X48226Y-28275D01*
X48204Y-28160D01*
X48138Y-28063D01*
X45183Y-25107D01*
X45315Y-25081D01*
X45475Y-24974D01*
X45488Y-25007D01*
X45559Y-25077D01*
X45651Y-25115D01*
X45750Y-25116D01*
X46500Y-25116D01*
X46592Y-25078D01*
X46662Y-25007D01*
X46700Y-24915D01*
X46701Y-24816D01*
X46701Y-23966D01*
X46663Y-23874D01*
X46611Y-23822D01*
X46611Y-22236D01*
X46453Y-21855D01*
X46163Y-21564D01*
X45782Y-21406D01*
X45371Y-21405D01*
X44990Y-21563D01*
X44699Y-21853D01*
X44541Y-22234D01*
X44540Y-22645D01*
X44698Y-23026D01*
X44988Y-23317D01*
X45369Y-23475D01*
X45780Y-23476D01*
X46161Y-23318D01*
X46452Y-23028D01*
X46610Y-22647D01*
X46611Y-22236D01*
X46611Y-23822D01*
X46592Y-23804D01*
X46500Y-23766D01*
X46401Y-23765D01*
X45651Y-23765D01*
X45559Y-23803D01*
X45489Y-23874D01*
X45475Y-23907D01*
X45315Y-23800D01*
X45076Y-23752D01*
X44836Y-23800D01*
X44634Y-23935D01*
X44498Y-24138D01*
X44451Y-24375D01*
X43053Y-22977D01*
X43053Y-21336D01*
X42973Y-21142D01*
X42824Y-20994D01*
X42631Y-20914D01*
X42421Y-20913D01*
X42227Y-20993D01*
X42079Y-21142D01*
X41999Y-21335D01*
X41998Y-21545D01*
X42078Y-21739D01*
X42227Y-21887D01*
X42420Y-21967D01*
X42630Y-21968D01*
X42824Y-21888D01*
X42972Y-21739D01*
X43052Y-21546D01*
X43053Y-21336D01*
X43053Y-22977D01*
X40935Y-20859D01*
X40837Y-20794D01*
X40723Y-20771D01*
X39696Y-20771D01*
X39709Y-20741D01*
X43937Y-20741D01*
X43680Y-20847D01*
X43482Y-21043D01*
X43376Y-21301D01*
X43375Y-21579D01*
X43482Y-21837D01*
X43678Y-22034D01*
X43936Y-22140D01*
X44214Y-22141D01*
X44472Y-22034D01*
X44669Y-21838D01*
X44775Y-21580D01*
X44776Y-21302D01*
X44669Y-21045D01*
X44473Y-20847D01*
X44215Y-20741D01*
X44076Y-20741D01*
X45942Y-20741D01*
X45982Y-20837D01*
X46178Y-21034D01*
X46436Y-21140D01*
X46714Y-21141D01*
X46972Y-21034D01*
X47169Y-20838D01*
X47275Y-20580D01*
X47276Y-20302D01*
X47169Y-20045D01*
X46973Y-19847D01*
X46715Y-19741D01*
X46437Y-19740D01*
X46180Y-19847D01*
X45982Y-20043D01*
X45942Y-20141D01*
X43576Y-20141D01*
X43576Y-12802D01*
X43469Y-12545D01*
X43273Y-12347D01*
X43015Y-12241D01*
X42737Y-12240D01*
X42480Y-12347D01*
X42282Y-12543D01*
X42176Y-12801D01*
X42175Y-13079D01*
X42282Y-13337D01*
X42478Y-13534D01*
X42736Y-13640D01*
X43014Y-13641D01*
X43272Y-13534D01*
X43469Y-13338D01*
X43575Y-13080D01*
X43576Y-12802D01*
X43576Y-20141D01*
X43001Y-20141D01*
X43001Y-17316D01*
X43001Y-16466D01*
X42963Y-16374D01*
X42911Y-16322D01*
X42911Y-14736D01*
X42753Y-14355D01*
X42463Y-14064D01*
X42082Y-13906D01*
X41676Y-13905D01*
X41676Y-5302D01*
X41569Y-5045D01*
X41373Y-4847D01*
X41115Y-4741D01*
X40837Y-4740D01*
X40580Y-4847D01*
X40382Y-5043D01*
X40276Y-5301D01*
X40275Y-5579D01*
X40382Y-5837D01*
X40578Y-6034D01*
X40836Y-6140D01*
X41114Y-6141D01*
X41372Y-6034D01*
X41569Y-5838D01*
X41675Y-5580D01*
X41676Y-5302D01*
X41676Y-13905D01*
X41671Y-13905D01*
X41290Y-14063D01*
X41101Y-14252D01*
X41101Y-9816D01*
X41101Y-8966D01*
X41063Y-8874D01*
X41011Y-8822D01*
X41011Y-7236D01*
X40853Y-6855D01*
X40563Y-6564D01*
X40182Y-6406D01*
X39771Y-6405D01*
X39390Y-6563D01*
X39176Y-6777D01*
X39176Y-6302D01*
X39069Y-6045D01*
X38873Y-5847D01*
X38615Y-5741D01*
X38337Y-5740D01*
X38080Y-5847D01*
X37882Y-6043D01*
X37776Y-6301D01*
X37775Y-6579D01*
X37882Y-6837D01*
X38078Y-7034D01*
X38336Y-7140D01*
X38614Y-7141D01*
X38872Y-7034D01*
X39069Y-6838D01*
X39175Y-6580D01*
X39176Y-6302D01*
X39176Y-6777D01*
X39099Y-6853D01*
X38941Y-7234D01*
X38940Y-7645D01*
X39098Y-8026D01*
X39388Y-8317D01*
X39769Y-8475D01*
X40180Y-8476D01*
X40561Y-8318D01*
X40852Y-8028D01*
X41010Y-7647D01*
X41011Y-7236D01*
X41011Y-8822D01*
X40992Y-8804D01*
X40900Y-8766D01*
X40801Y-8765D01*
X40051Y-8765D01*
X39959Y-8803D01*
X39889Y-8874D01*
X39875Y-8907D01*
X39715Y-8800D01*
X39476Y-8752D01*
X39236Y-8800D01*
X39034Y-8935D01*
X38898Y-9138D01*
X38851Y-9377D01*
X38851Y-9504D01*
X38898Y-9743D01*
X39034Y-9946D01*
X39236Y-10081D01*
X39476Y-10129D01*
X39715Y-10081D01*
X39875Y-9974D01*
X39888Y-10007D01*
X39959Y-10077D01*
X40051Y-10115D01*
X40150Y-10116D01*
X40900Y-10116D01*
X40992Y-10078D01*
X41062Y-10007D01*
X41100Y-9915D01*
X41101Y-9816D01*
X41101Y-14252D01*
X41076Y-14277D01*
X41076Y-13802D01*
X40969Y-13545D01*
X40773Y-13347D01*
X40515Y-13241D01*
X40237Y-13240D01*
X39980Y-13347D01*
X39782Y-13543D01*
X39676Y-13801D01*
X39675Y-14079D01*
X39782Y-14337D01*
X39978Y-14534D01*
X40236Y-14640D01*
X40514Y-14641D01*
X40772Y-14534D01*
X40969Y-14338D01*
X41075Y-14080D01*
X41076Y-13802D01*
X41076Y-14277D01*
X40999Y-14353D01*
X40841Y-14734D01*
X40840Y-15145D01*
X40998Y-15526D01*
X41288Y-15817D01*
X41669Y-15975D01*
X42080Y-15976D01*
X42461Y-15818D01*
X42752Y-15528D01*
X42910Y-15147D01*
X42911Y-14736D01*
X42911Y-16322D01*
X42892Y-16304D01*
X42800Y-16266D01*
X42701Y-16265D01*
X41951Y-16265D01*
X41859Y-16303D01*
X41789Y-16374D01*
X41775Y-16407D01*
X41615Y-16300D01*
X41376Y-16252D01*
X41136Y-16300D01*
X40934Y-16435D01*
X40798Y-16638D01*
X40751Y-16877D01*
X40751Y-17004D01*
X40798Y-17243D01*
X40934Y-17446D01*
X41136Y-17581D01*
X41376Y-17629D01*
X41615Y-17581D01*
X41775Y-17474D01*
X41788Y-17507D01*
X41859Y-17577D01*
X41951Y-17615D01*
X42050Y-17616D01*
X42800Y-17616D01*
X42892Y-17578D01*
X42962Y-17507D01*
X43000Y-17415D01*
X43001Y-17316D01*
X43001Y-20141D01*
X39709Y-20141D01*
X39669Y-20045D01*
X39473Y-19847D01*
X39215Y-19741D01*
X38937Y-19740D01*
X38785Y-19803D01*
X38785Y-17467D01*
X38930Y-17468D01*
X39124Y-17388D01*
X39272Y-17239D01*
X39352Y-17046D01*
X39353Y-16836D01*
X39353Y-13836D01*
X39273Y-13642D01*
X39124Y-13494D01*
X38931Y-13414D01*
X38721Y-13413D01*
X38527Y-13493D01*
X38379Y-13642D01*
X38299Y-13835D01*
X38298Y-14045D01*
X38378Y-14239D01*
X38527Y-14387D01*
X38720Y-14467D01*
X38930Y-14468D01*
X39124Y-14388D01*
X39272Y-14239D01*
X39352Y-14046D01*
X39353Y-13836D01*
X39353Y-16836D01*
X39273Y-16642D01*
X39124Y-16494D01*
X38931Y-16414D01*
X38723Y-16413D01*
X37276Y-14966D01*
X37276Y-9886D01*
X37422Y-9739D01*
X37502Y-9546D01*
X37503Y-9336D01*
X37503Y-6336D01*
X37423Y-6142D01*
X37274Y-5994D01*
X37081Y-5914D01*
X36871Y-5913D01*
X36677Y-5993D01*
X36529Y-6142D01*
X36449Y-6335D01*
X36448Y-6545D01*
X36528Y-6739D01*
X36677Y-6887D01*
X36870Y-6967D01*
X37080Y-6968D01*
X37274Y-6888D01*
X37422Y-6739D01*
X37502Y-6546D01*
X37503Y-6336D01*
X37503Y-9336D01*
X37423Y-9142D01*
X37274Y-8994D01*
X37081Y-8914D01*
X36871Y-8913D01*
X36677Y-8993D01*
X36529Y-9142D01*
X36449Y-9335D01*
X36448Y-9545D01*
X36528Y-9739D01*
X36676Y-9886D01*
X36676Y-15028D01*
X35288Y-13640D01*
X35514Y-13641D01*
X35772Y-13534D01*
X35969Y-13338D01*
X36075Y-13080D01*
X36076Y-12802D01*
X36053Y-12746D01*
X36053Y-9336D01*
X36053Y-6336D01*
X35973Y-6142D01*
X35824Y-5994D01*
X35631Y-5914D01*
X35421Y-5913D01*
X35227Y-5993D01*
X35079Y-6142D01*
X34999Y-6335D01*
X34998Y-6545D01*
X35078Y-6739D01*
X35227Y-6887D01*
X35420Y-6967D01*
X35630Y-6968D01*
X35824Y-6888D01*
X35972Y-6739D01*
X36052Y-6546D01*
X36053Y-6336D01*
X36053Y-9336D01*
X35973Y-9142D01*
X35824Y-8994D01*
X35631Y-8914D01*
X35421Y-8913D01*
X35227Y-8993D01*
X35079Y-9142D01*
X34999Y-9335D01*
X34998Y-9545D01*
X35078Y-9739D01*
X35227Y-9887D01*
X35420Y-9967D01*
X35630Y-9968D01*
X35824Y-9888D01*
X35972Y-9739D01*
X36052Y-9546D01*
X36053Y-9336D01*
X36053Y-12746D01*
X35969Y-12545D01*
X35773Y-12347D01*
X35515Y-12241D01*
X35237Y-12240D01*
X34980Y-12347D01*
X34782Y-12543D01*
X34676Y-12801D01*
X34675Y-13028D01*
X34176Y-12528D01*
X34176Y-5302D01*
X34069Y-5045D01*
X33873Y-4847D01*
X33615Y-4741D01*
X33337Y-4740D01*
X33080Y-4847D01*
X32882Y-5043D01*
X32776Y-5301D01*
X32775Y-5579D01*
X32882Y-5837D01*
X33078Y-6034D01*
X33336Y-6140D01*
X33614Y-6141D01*
X33872Y-6034D01*
X34069Y-5838D01*
X34175Y-5580D01*
X34176Y-5302D01*
X34176Y-12528D01*
X31714Y-10066D01*
X31736Y-10081D01*
X31976Y-10129D01*
X32215Y-10081D01*
X32375Y-9974D01*
X32388Y-10007D01*
X32459Y-10077D01*
X32551Y-10115D01*
X32650Y-10116D01*
X33400Y-10116D01*
X33492Y-10078D01*
X33562Y-10007D01*
X33600Y-9915D01*
X33601Y-9816D01*
X33601Y-8966D01*
X33563Y-8874D01*
X33511Y-8822D01*
X33511Y-7236D01*
X33353Y-6855D01*
X33063Y-6564D01*
X32682Y-6406D01*
X32271Y-6405D01*
X31890Y-6563D01*
X31676Y-6777D01*
X31676Y-6302D01*
X31569Y-6045D01*
X31373Y-5847D01*
X31115Y-5741D01*
X30837Y-5740D01*
X30580Y-5847D01*
X30382Y-6043D01*
X30276Y-6301D01*
X30275Y-6579D01*
X30382Y-6837D01*
X30578Y-7034D01*
X30836Y-7140D01*
X31114Y-7141D01*
X31372Y-7034D01*
X31569Y-6838D01*
X31675Y-6580D01*
X31676Y-6302D01*
X31676Y-6777D01*
X31599Y-6853D01*
X31441Y-7234D01*
X31440Y-7645D01*
X31598Y-8026D01*
X31888Y-8317D01*
X32269Y-8475D01*
X32680Y-8476D01*
X33061Y-8318D01*
X33352Y-8028D01*
X33510Y-7647D01*
X33511Y-7236D01*
X33511Y-8822D01*
X33492Y-8804D01*
X33400Y-8766D01*
X33301Y-8765D01*
X32551Y-8765D01*
X32459Y-8803D01*
X32389Y-8874D01*
X32375Y-8907D01*
X32215Y-8800D01*
X31976Y-8752D01*
X31736Y-8800D01*
X31534Y-8935D01*
X31398Y-9138D01*
X31351Y-9377D01*
X31351Y-9504D01*
X31398Y-9743D01*
X31413Y-9766D01*
X30066Y-8419D01*
X30066Y-5856D01*
X30044Y-5742D01*
X29978Y-5644D01*
X29978Y-5644D01*
X29410Y-5076D01*
X29313Y-5011D01*
X29198Y-4988D01*
X28411Y-4988D01*
X28296Y-5011D01*
X28198Y-5076D01*
X28133Y-5174D01*
X28112Y-5283D01*
X28081Y-5304D01*
X27980Y-5455D01*
X27944Y-5634D01*
X27944Y-5828D01*
X27917Y-5834D01*
X27766Y-5935D01*
X27665Y-6086D01*
X27629Y-6265D01*
X27629Y-6504D01*
X27665Y-6683D01*
X27766Y-6834D01*
X27796Y-6854D01*
X27796Y-16046D01*
X27626Y-16216D01*
X27626Y-12802D01*
X27519Y-12545D01*
X27323Y-12347D01*
X27065Y-12241D01*
X26787Y-12240D01*
X26676Y-12286D01*
X26676Y-5302D01*
X26569Y-5045D01*
X26373Y-4847D01*
X26115Y-4741D01*
X25837Y-4740D01*
X25580Y-4847D01*
X25382Y-5043D01*
X25276Y-5301D01*
X25275Y-5579D01*
X25382Y-5837D01*
X25578Y-6034D01*
X25836Y-6140D01*
X26114Y-6141D01*
X26372Y-6034D01*
X26569Y-5838D01*
X26675Y-5580D01*
X26676Y-5302D01*
X26676Y-12286D01*
X26530Y-12347D01*
X26332Y-12543D01*
X26226Y-12801D01*
X26225Y-13079D01*
X26332Y-13337D01*
X26528Y-13534D01*
X26786Y-13640D01*
X27064Y-13641D01*
X27322Y-13534D01*
X27519Y-13338D01*
X27625Y-13080D01*
X27626Y-12802D01*
X27626Y-16216D01*
X27493Y-16349D01*
X27484Y-16345D01*
X27268Y-16345D01*
X27067Y-16428D01*
X27044Y-16451D01*
X27013Y-16374D01*
X26961Y-16322D01*
X26961Y-14736D01*
X26803Y-14355D01*
X26513Y-14064D01*
X26132Y-13906D01*
X26101Y-13906D01*
X26101Y-9816D01*
X26101Y-8966D01*
X26063Y-8874D01*
X26011Y-8822D01*
X26011Y-7236D01*
X25853Y-6855D01*
X25563Y-6564D01*
X25182Y-6406D01*
X24771Y-6405D01*
X24390Y-6563D01*
X24176Y-6777D01*
X24176Y-6302D01*
X24069Y-6045D01*
X23873Y-5847D01*
X23615Y-5741D01*
X23337Y-5740D01*
X23080Y-5847D01*
X22882Y-6043D01*
X22776Y-6301D01*
X22775Y-6579D01*
X22882Y-6837D01*
X23078Y-7034D01*
X23336Y-7140D01*
X23614Y-7141D01*
X23872Y-7034D01*
X24069Y-6838D01*
X24175Y-6580D01*
X24176Y-6302D01*
X24176Y-6777D01*
X24099Y-6853D01*
X23941Y-7234D01*
X23940Y-7645D01*
X24098Y-8026D01*
X24388Y-8317D01*
X24769Y-8475D01*
X25180Y-8476D01*
X25561Y-8318D01*
X25852Y-8028D01*
X26010Y-7647D01*
X26011Y-7236D01*
X26011Y-8822D01*
X25992Y-8804D01*
X25900Y-8766D01*
X25801Y-8765D01*
X25051Y-8765D01*
X24959Y-8803D01*
X24889Y-8874D01*
X24875Y-8907D01*
X24715Y-8800D01*
X24476Y-8752D01*
X24236Y-8800D01*
X24034Y-8935D01*
X23898Y-9138D01*
X23851Y-9377D01*
X23851Y-9504D01*
X23898Y-9743D01*
X24034Y-9946D01*
X24236Y-10081D01*
X24476Y-10129D01*
X24715Y-10081D01*
X24875Y-9974D01*
X24888Y-10007D01*
X24959Y-10077D01*
X25051Y-10115D01*
X25150Y-10116D01*
X25900Y-10116D01*
X25992Y-10078D01*
X26062Y-10007D01*
X26100Y-9915D01*
X26101Y-9816D01*
X26101Y-13906D01*
X25721Y-13905D01*
X25340Y-14063D01*
X25126Y-14277D01*
X25126Y-13802D01*
X25019Y-13545D01*
X24823Y-13347D01*
X24565Y-13241D01*
X24287Y-13240D01*
X24030Y-13347D01*
X23832Y-13543D01*
X23726Y-13801D01*
X23725Y-14079D01*
X23832Y-14337D01*
X24028Y-14534D01*
X24286Y-14640D01*
X24564Y-14641D01*
X24822Y-14534D01*
X25019Y-14338D01*
X25125Y-14080D01*
X25126Y-13802D01*
X25126Y-14277D01*
X25049Y-14353D01*
X24891Y-14734D01*
X24890Y-15145D01*
X25048Y-15526D01*
X25338Y-15817D01*
X25719Y-15975D01*
X26130Y-15976D01*
X26511Y-15818D01*
X26802Y-15528D01*
X26960Y-15147D01*
X26961Y-14736D01*
X26961Y-16322D01*
X26942Y-16304D01*
X26850Y-16266D01*
X26751Y-16265D01*
X26001Y-16265D01*
X25909Y-16303D01*
X25839Y-16374D01*
X25825Y-16407D01*
X25665Y-16300D01*
X25426Y-16252D01*
X25186Y-16300D01*
X24984Y-16435D01*
X24887Y-16580D01*
X24785Y-16479D01*
X24584Y-16395D01*
X24368Y-16395D01*
X24167Y-16478D01*
X24014Y-16631D01*
X23930Y-16832D01*
X23930Y-17048D01*
X24013Y-17249D01*
X24166Y-17402D01*
X24367Y-17486D01*
X24583Y-17486D01*
X24593Y-17482D01*
X26696Y-19585D01*
X26793Y-19650D01*
X26908Y-19673D01*
X30934Y-19673D01*
X31511Y-20250D01*
X31501Y-20276D01*
X31500Y-20504D01*
X31588Y-20716D01*
X31749Y-20878D01*
X31961Y-20965D01*
X32189Y-20966D01*
X32401Y-20878D01*
X32563Y-20717D01*
X32650Y-20505D01*
X32651Y-20277D01*
X32563Y-20065D01*
X32402Y-19903D01*
X32190Y-19816D01*
X31962Y-19815D01*
X31935Y-19826D01*
X31270Y-19161D01*
X31173Y-19096D01*
X31058Y-19073D01*
X27032Y-19073D01*
X25561Y-17602D01*
X25665Y-17581D01*
X25825Y-17474D01*
X25838Y-17507D01*
X25909Y-17577D01*
X26001Y-17615D01*
X26100Y-17616D01*
X26850Y-17616D01*
X26942Y-17578D01*
X27012Y-17507D01*
X27050Y-17415D01*
X27051Y-17337D01*
X27066Y-17352D01*
X27267Y-17436D01*
X27483Y-17436D01*
X27684Y-17353D01*
X27837Y-17200D01*
X27921Y-16999D01*
X27921Y-16783D01*
X27917Y-16773D01*
X28220Y-16471D01*
X31083Y-16471D01*
X31027Y-16493D01*
X30879Y-16642D01*
X30799Y-16835D01*
X30798Y-17045D01*
X30878Y-17239D01*
X31027Y-17387D01*
X31220Y-17467D01*
X31428Y-17468D01*
X33060Y-19100D01*
X33060Y-22775D01*
X33083Y-22890D01*
X33148Y-22987D01*
X34499Y-24338D01*
X34498Y-24543D01*
X33401Y-25641D01*
X32651Y-25641D01*
X32651Y-24277D01*
X32563Y-24065D01*
X32402Y-23903D01*
X32190Y-23816D01*
X31962Y-23815D01*
X31750Y-23903D01*
X31588Y-24064D01*
X31501Y-24276D01*
X31500Y-24504D01*
X31588Y-24716D01*
X31749Y-24878D01*
X31961Y-24965D01*
X32189Y-24966D01*
X32401Y-24878D01*
X32563Y-24717D01*
X32650Y-24505D01*
X32651Y-24277D01*
X32651Y-25641D01*
X31821Y-25641D01*
X31674Y-25494D01*
X31481Y-25414D01*
X31271Y-25413D01*
X31077Y-25493D01*
X30929Y-25642D01*
X30849Y-25835D01*
X30848Y-26045D01*
X30928Y-26239D01*
X31077Y-26387D01*
X31270Y-26467D01*
X31480Y-26468D01*
X31674Y-26388D01*
X31821Y-26241D01*
X33526Y-26241D01*
X33526Y-26240D01*
X33640Y-26218D01*
X33640Y-26218D01*
X33738Y-26153D01*
X34923Y-24967D01*
X35128Y-24968D01*
X37390Y-27229D01*
X37390Y-27229D01*
X37487Y-27294D01*
X37602Y-27317D01*
X40579Y-27317D01*
X42247Y-28984D01*
X42057Y-28906D01*
X41645Y-28905D01*
X41265Y-29063D01*
X41050Y-29277D01*
X41050Y-28802D01*
X40944Y-28545D01*
X40747Y-28347D01*
X40490Y-28241D01*
X40212Y-28240D01*
X39954Y-28347D01*
X39757Y-28543D01*
X39650Y-28801D01*
X39650Y-29079D01*
X39757Y-29337D01*
X39953Y-29534D01*
X40210Y-29640D01*
X40489Y-29641D01*
X40746Y-29534D01*
X40943Y-29338D01*
X41050Y-29080D01*
X41050Y-28802D01*
X41050Y-29277D01*
X40973Y-29353D01*
X40815Y-29734D01*
X40815Y-30145D01*
X40972Y-30526D01*
X41263Y-30817D01*
X41285Y-30826D01*
X39403Y-30826D01*
X39403Y-28836D01*
X39323Y-28642D01*
X39174Y-28494D01*
X38981Y-28414D01*
X38771Y-28413D01*
X38577Y-28493D01*
X38429Y-28642D01*
X38349Y-28835D01*
X38348Y-29045D01*
X38428Y-29239D01*
X38577Y-29387D01*
X38770Y-29467D01*
X38980Y-29468D01*
X39174Y-29388D01*
X39322Y-29239D01*
X39402Y-29046D01*
X39403Y-28836D01*
X39403Y-30826D01*
X36050Y-30826D01*
X36050Y-27802D01*
X35944Y-27545D01*
X35747Y-27347D01*
X35490Y-27241D01*
X35212Y-27240D01*
X34954Y-27347D01*
X34757Y-27543D01*
X34650Y-27801D01*
X34650Y-28079D01*
X34757Y-28337D01*
X34953Y-28534D01*
X35210Y-28640D01*
X35489Y-28641D01*
X35746Y-28534D01*
X35943Y-28338D01*
X36050Y-28080D01*
X36050Y-27802D01*
X36050Y-30826D01*
X34917Y-30826D01*
X34936Y-30818D01*
X35227Y-30528D01*
X35385Y-30147D01*
X35385Y-29736D01*
X35228Y-29355D01*
X34937Y-29064D01*
X34557Y-28906D01*
X34145Y-28905D01*
X33765Y-29063D01*
X33550Y-29277D01*
X33550Y-28802D01*
X33444Y-28545D01*
X33247Y-28347D01*
X32990Y-28241D01*
X32712Y-28240D01*
X32454Y-28347D01*
X32257Y-28543D01*
X32150Y-28801D01*
X32150Y-29079D01*
X32257Y-29337D01*
X32453Y-29534D01*
X32710Y-29640D01*
X32989Y-29641D01*
X33246Y-29534D01*
X33443Y-29338D01*
X33550Y-29080D01*
X33550Y-28802D01*
X33550Y-29277D01*
X33473Y-29353D01*
X33315Y-29734D01*
X33315Y-30145D01*
X33472Y-30526D01*
X33763Y-30817D01*
X33785Y-30826D01*
X31903Y-30826D01*
X31903Y-28836D01*
X31823Y-28642D01*
X31674Y-28494D01*
X31481Y-28414D01*
X31271Y-28413D01*
X31077Y-28493D01*
X30929Y-28642D01*
X30849Y-28835D01*
X30848Y-29045D01*
X30928Y-29239D01*
X31077Y-29387D01*
X31270Y-29467D01*
X31480Y-29468D01*
X31674Y-29388D01*
X31822Y-29239D01*
X31902Y-29046D01*
X31903Y-28836D01*
X31903Y-30826D01*
X31536Y-30826D01*
X29476Y-28766D01*
X29476Y-20302D01*
X29369Y-20045D01*
X29173Y-19847D01*
X28915Y-19741D01*
X28637Y-19740D01*
X28380Y-19847D01*
X28182Y-20043D01*
X28076Y-20301D01*
X28075Y-20579D01*
X28182Y-20837D01*
X28378Y-21034D01*
X28636Y-21140D01*
X28914Y-21141D01*
X29172Y-21034D01*
X29369Y-20838D01*
X29475Y-20580D01*
X29476Y-20302D01*
X29476Y-28766D01*
X28901Y-28191D01*
X28901Y-24816D01*
X28901Y-23966D01*
X28863Y-23874D01*
X28811Y-23822D01*
X28811Y-22236D01*
X28653Y-21855D01*
X28363Y-21564D01*
X27982Y-21406D01*
X27571Y-21405D01*
X27190Y-21563D01*
X26976Y-21777D01*
X26976Y-21302D01*
X26869Y-21045D01*
X26673Y-20847D01*
X26415Y-20741D01*
X26137Y-20740D01*
X25880Y-20847D01*
X25682Y-21043D01*
X25576Y-21301D01*
X25575Y-21579D01*
X25682Y-21837D01*
X25878Y-22034D01*
X26136Y-22140D01*
X26414Y-22141D01*
X26672Y-22034D01*
X26869Y-21838D01*
X26975Y-21580D01*
X26976Y-21302D01*
X26976Y-21777D01*
X26899Y-21853D01*
X26741Y-22234D01*
X26740Y-22645D01*
X26898Y-23026D01*
X27188Y-23317D01*
X27569Y-23475D01*
X27980Y-23476D01*
X28361Y-23318D01*
X28652Y-23028D01*
X28810Y-22647D01*
X28811Y-22236D01*
X28811Y-23822D01*
X28792Y-23804D01*
X28700Y-23766D01*
X28601Y-23765D01*
X27851Y-23765D01*
X27759Y-23803D01*
X27689Y-23874D01*
X27675Y-23907D01*
X27515Y-23800D01*
X27276Y-23752D01*
X27036Y-23800D01*
X26834Y-23935D01*
X26698Y-24138D01*
X26651Y-24377D01*
X26651Y-24504D01*
X26698Y-24743D01*
X26834Y-24946D01*
X27036Y-25081D01*
X27276Y-25129D01*
X27515Y-25081D01*
X27675Y-24974D01*
X27688Y-25007D01*
X27759Y-25077D01*
X27851Y-25115D01*
X27950Y-25116D01*
X28700Y-25116D01*
X28792Y-25078D01*
X28862Y-25007D01*
X28900Y-24915D01*
X28901Y-24816D01*
X28901Y-28191D01*
X25252Y-24543D01*
X25253Y-24336D01*
X25253Y-21336D01*
X25173Y-21142D01*
X25024Y-20994D01*
X24831Y-20914D01*
X24621Y-20913D01*
X24427Y-20993D01*
X24279Y-21142D01*
X24199Y-21335D01*
X24198Y-21545D01*
X24278Y-21739D01*
X24427Y-21887D01*
X24620Y-21967D01*
X24830Y-21968D01*
X25024Y-21888D01*
X25172Y-21739D01*
X25252Y-21546D01*
X25253Y-21336D01*
X25253Y-24336D01*
X25173Y-24142D01*
X25024Y-23994D01*
X24831Y-23914D01*
X24623Y-23913D01*
X23176Y-22466D01*
X23176Y-17386D01*
X23322Y-17239D01*
X23402Y-17046D01*
X23403Y-16836D01*
X23403Y-13836D01*
X23323Y-13642D01*
X23174Y-13494D01*
X22981Y-13414D01*
X22771Y-13413D01*
X22577Y-13493D01*
X22429Y-13642D01*
X22349Y-13835D01*
X22348Y-14045D01*
X22428Y-14239D01*
X22577Y-14387D01*
X22770Y-14467D01*
X22980Y-14468D01*
X23174Y-14388D01*
X23322Y-14239D01*
X23402Y-14046D01*
X23403Y-13836D01*
X23403Y-16836D01*
X23323Y-16642D01*
X23174Y-16494D01*
X22981Y-16414D01*
X22773Y-16413D01*
X22226Y-15866D01*
X22226Y-9886D01*
X22372Y-9739D01*
X22452Y-9546D01*
X22453Y-9336D01*
X22373Y-9142D01*
X22224Y-8994D01*
X22031Y-8914D01*
X21821Y-8913D01*
X21627Y-8993D01*
X21571Y-9050D01*
X21571Y-6831D01*
X21627Y-6887D01*
X21820Y-6967D01*
X22030Y-6968D01*
X22224Y-6888D01*
X22372Y-6739D01*
X22452Y-6546D01*
X22453Y-6336D01*
X22373Y-6142D01*
X22224Y-5994D01*
X22031Y-5914D01*
X21821Y-5913D01*
X21627Y-5993D01*
X21571Y-6050D01*
X21571Y-3956D01*
X26808Y-3956D01*
X26783Y-4086D01*
X26783Y-4547D01*
X26821Y-4741D01*
X26931Y-4905D01*
X27095Y-5015D01*
X27289Y-5053D01*
X27482Y-5015D01*
X27646Y-4905D01*
X27756Y-4741D01*
X27795Y-4547D01*
X27795Y-4086D01*
X27769Y-3956D01*
X29682Y-3956D01*
X29657Y-4086D01*
X29657Y-4547D01*
X29695Y-4741D01*
X29805Y-4905D01*
X29969Y-5015D01*
X30163Y-5053D01*
X30356Y-5015D01*
X30520Y-4905D01*
X30630Y-4741D01*
X30669Y-4547D01*
X30669Y-4086D01*
X30643Y-3956D01*
X110881Y-3956D01*
X110881Y-33346D01*
M02*
