M48
;DRILL file {Pcbnew (2013-02-13 BZR 3947)-testing} date 3/7/2013 9:22:19 AM
;FORMAT={2:4/ absolute / inch / suppress leading zeros}
FMAT,2
INCH,TZ
T1C0.157
%
G90
G05
M72
T1
X49500Y-33000
X50425Y-55500
X50450Y-40500
X52300Y-48000
X57000Y-33000
X58875Y-55500
X58900Y-40500
X62600Y-48000
X64500Y-33000
X66375Y-55500
X66400Y-40500
X70100Y-48000
X72000Y-33000
X73900Y-40500
X77600Y-48000
X79500Y-33000
X81400Y-40500
X85100Y-48000
X87000Y-33000
X88900Y-40500
X92600Y-48000
X93470Y-55650
X94500Y-33000
X96400Y-40500
X100100Y-48000
X102000Y-33000
X103900Y-40500
X107600Y-48000
X109500Y-33000
X111400Y-40500
X115100Y-48000
X117000Y-33000
X118900Y-40500
X121700Y-55500
X123525Y-48000
X124500Y-33000
X129200Y-40500
X131065Y-55500
X132000Y-33000
X132000Y-48000
T0
M30
