G04 (created by PCBNEW (2013-02-13 BZR 3947)-testing) date 9/20/2013 10:49:48 AM*
%MOIN*%
G04 Gerber Fmt 3.4, Leading zero omitted, Abs format*
%FSLAX34Y34*%
G01*
G70*
G90*
G04 APERTURE LIST*
%ADD10C,0*%
%ADD11O,0.3937X0.1969*%
%ADD12C,0.2756*%
%ADD13C,0.0354331*%
%ADD14C,0.0708661*%
%ADD15C,0.0629921*%
%ADD16C,0.09*%
%ADD17C,0.157*%
%ADD18C,0.067*%
%ADD19O,0.075X0.085*%
%ADD20R,0.075X0.085*%
%ADD21C,0.0393701*%
%ADD22C,0.12*%
%ADD23C,0.016*%
%ADD24C,0.02*%
%ADD25C,0.01*%
G04 APERTURE END LIST*
G54D10*
G54D11*
X89071Y-22244D03*
G54D12*
X78701Y-11122D03*
X16801Y-7722D03*
X50472Y-18503D03*
G54D11*
X574Y-22244D03*
G54D13*
X6299Y-1523D03*
X8031Y-1523D03*
G54D14*
X37376Y-2559D03*
X37376Y-3559D03*
X37376Y-4559D03*
X44876Y-5559D03*
X44876Y-4559D03*
X44876Y-1559D03*
X37376Y-5559D03*
X52376Y-2559D03*
X52376Y-5559D03*
X52376Y-4559D03*
X52376Y-3559D03*
X59876Y-1559D03*
X59876Y-3559D03*
X52376Y-1559D03*
X36576Y-23024D03*
X36576Y-24024D03*
X34576Y-24024D03*
X34576Y-23024D03*
X35576Y-24024D03*
X35576Y-23024D03*
X37111Y-28809D03*
X35111Y-28809D03*
X33111Y-28809D03*
X36111Y-28809D03*
X34111Y-28809D03*
X38111Y-28809D03*
X44876Y-2559D03*
X44876Y-3559D03*
X67376Y-5559D03*
X67376Y-1559D03*
X67376Y-3559D03*
X67376Y-4559D03*
X67376Y-2559D03*
X59876Y-5559D03*
G54D15*
X1376Y-13509D03*
X1376Y-10509D03*
X2701Y-16622D03*
X2701Y-19622D03*
G54D16*
X3551Y-28122D03*
X6051Y-27122D03*
G54D17*
X4551Y-26122D03*
G54D18*
X6551Y-26122D03*
X2551Y-26122D03*
G54D16*
X3551Y-13122D03*
X6051Y-12122D03*
G54D17*
X4551Y-11122D03*
G54D18*
X6551Y-11122D03*
X2551Y-11122D03*
G54D16*
X5401Y-20622D03*
X7901Y-19622D03*
G54D17*
X6401Y-18622D03*
G54D18*
X8401Y-18622D03*
X4401Y-18622D03*
G54D19*
X24701Y-16622D03*
G54D20*
X23701Y-16622D03*
G54D19*
X13501Y-24122D03*
G54D20*
X12501Y-24122D03*
G54D19*
X17201Y-16622D03*
G54D20*
X16201Y-16622D03*
G54D19*
X5051Y-9122D03*
G54D20*
X4051Y-9122D03*
G54D19*
X11601Y-1621D03*
G54D20*
X10601Y-1621D03*
G54D19*
X5051Y-24122D03*
G54D20*
X4051Y-24122D03*
G54D16*
X85101Y-20622D03*
X87601Y-19622D03*
G54D17*
X86101Y-18622D03*
G54D18*
X88101Y-18622D03*
X84101Y-18622D03*
G54D16*
X49501Y-13122D03*
X52001Y-12122D03*
G54D17*
X50501Y-11122D03*
G54D18*
X52501Y-11122D03*
X48501Y-11122D03*
G54D16*
X70101Y-5622D03*
X72601Y-4622D03*
G54D17*
X71101Y-3622D03*
G54D18*
X73101Y-3622D03*
X69101Y-3622D03*
G54D16*
X32601Y-5622D03*
X35101Y-4622D03*
G54D17*
X33601Y-3622D03*
G54D18*
X35601Y-3622D03*
X31601Y-3622D03*
G54D16*
X84151Y-28122D03*
X86651Y-27122D03*
G54D17*
X85151Y-26122D03*
G54D18*
X87151Y-26122D03*
X83151Y-26122D03*
G54D16*
X74801Y-28122D03*
X77301Y-27122D03*
G54D17*
X75801Y-26122D03*
G54D18*
X77801Y-26122D03*
X73801Y-26122D03*
G54D16*
X19501Y-28122D03*
X22001Y-27122D03*
G54D17*
X20501Y-26122D03*
G54D18*
X22501Y-26122D03*
X18501Y-26122D03*
G54D16*
X12001Y-28122D03*
X14501Y-27122D03*
G54D17*
X13001Y-26122D03*
G54D18*
X15001Y-26122D03*
X11001Y-26122D03*
G54D16*
X76651Y-20622D03*
X79151Y-19622D03*
G54D17*
X77651Y-18622D03*
G54D18*
X79651Y-18622D03*
X75651Y-18622D03*
G54D16*
X68201Y-20622D03*
X70701Y-19622D03*
G54D17*
X69201Y-18622D03*
G54D18*
X71201Y-18622D03*
X67201Y-18622D03*
G54D16*
X27001Y-13122D03*
X29501Y-12122D03*
G54D17*
X28001Y-11122D03*
G54D18*
X30001Y-11122D03*
X26001Y-11122D03*
G54D16*
X19501Y-13122D03*
X22001Y-12122D03*
G54D17*
X20501Y-11122D03*
G54D18*
X22501Y-11122D03*
X18501Y-11122D03*
G54D16*
X12001Y-13122D03*
X14501Y-12122D03*
G54D17*
X13001Y-11122D03*
G54D18*
X15001Y-11122D03*
X11001Y-11122D03*
G54D16*
X85101Y-5622D03*
X87601Y-4622D03*
G54D17*
X86101Y-3622D03*
G54D18*
X88101Y-3622D03*
X84101Y-3622D03*
G54D16*
X62601Y-5622D03*
X65101Y-4622D03*
G54D17*
X63601Y-3622D03*
G54D18*
X65601Y-3622D03*
X61601Y-3622D03*
G54D16*
X55101Y-5622D03*
X57601Y-4622D03*
G54D17*
X56101Y-3622D03*
G54D18*
X58101Y-3622D03*
X54101Y-3622D03*
G54D16*
X47601Y-5622D03*
X50101Y-4622D03*
G54D17*
X48601Y-3622D03*
G54D18*
X50601Y-3622D03*
X46601Y-3622D03*
G54D16*
X40101Y-5622D03*
X42601Y-4622D03*
G54D17*
X41101Y-3622D03*
G54D18*
X43101Y-3622D03*
X39101Y-3622D03*
G54D16*
X25101Y-5622D03*
X27601Y-4622D03*
G54D17*
X26101Y-3622D03*
G54D18*
X28101Y-3622D03*
X24101Y-3622D03*
G54D16*
X17601Y-5622D03*
X20101Y-4622D03*
G54D17*
X18601Y-3622D03*
G54D18*
X20601Y-3622D03*
X16601Y-3622D03*
G54D16*
X10101Y-5622D03*
X12601Y-4622D03*
G54D17*
X11101Y-3622D03*
G54D18*
X13101Y-3622D03*
X9101Y-3622D03*
G54D16*
X60701Y-20622D03*
X63201Y-19622D03*
G54D17*
X61701Y-18622D03*
G54D18*
X63701Y-18622D03*
X59701Y-18622D03*
G54D16*
X53201Y-20622D03*
X55701Y-19622D03*
G54D17*
X54201Y-18622D03*
G54D18*
X56201Y-18622D03*
X52201Y-18622D03*
G54D16*
X45701Y-20622D03*
X48201Y-19622D03*
G54D17*
X46701Y-18622D03*
G54D18*
X48701Y-18622D03*
X44701Y-18622D03*
G54D16*
X38201Y-20622D03*
X40701Y-19622D03*
G54D17*
X39201Y-18622D03*
G54D18*
X41201Y-18622D03*
X37201Y-18622D03*
G54D16*
X30701Y-20622D03*
X33201Y-19622D03*
G54D17*
X31701Y-18622D03*
G54D18*
X33701Y-18622D03*
X29701Y-18622D03*
G54D16*
X23201Y-20622D03*
X25701Y-19622D03*
G54D17*
X24201Y-18622D03*
G54D18*
X26201Y-18622D03*
X22201Y-18622D03*
G54D16*
X15701Y-20622D03*
X18201Y-19622D03*
G54D17*
X16701Y-18622D03*
G54D18*
X18701Y-18622D03*
X14701Y-18622D03*
G54D16*
X82301Y-13122D03*
X84801Y-12122D03*
G54D17*
X83301Y-11122D03*
G54D18*
X85301Y-11122D03*
X81301Y-11122D03*
G54D16*
X72001Y-13122D03*
X74501Y-12122D03*
G54D17*
X73001Y-11122D03*
G54D18*
X75001Y-11122D03*
X71001Y-11122D03*
G54D16*
X64501Y-13122D03*
X67001Y-12122D03*
G54D17*
X65501Y-11122D03*
G54D18*
X67501Y-11122D03*
X63501Y-11122D03*
G54D16*
X57001Y-13122D03*
X59501Y-12122D03*
G54D17*
X58001Y-11122D03*
G54D18*
X60001Y-11122D03*
X56001Y-11122D03*
G54D16*
X42001Y-13122D03*
X44501Y-12122D03*
G54D17*
X43001Y-11122D03*
G54D18*
X45001Y-11122D03*
X41001Y-11122D03*
G54D16*
X34501Y-13122D03*
X37001Y-12122D03*
G54D17*
X35501Y-11122D03*
G54D18*
X37501Y-11122D03*
X33501Y-11122D03*
G54D16*
X77601Y-5622D03*
X80101Y-4622D03*
G54D17*
X78601Y-3622D03*
G54D18*
X80601Y-3622D03*
X76601Y-3622D03*
G54D19*
X48271Y-24124D03*
G54D20*
X47271Y-24124D03*
G54D19*
X62201Y-16622D03*
G54D20*
X61201Y-16622D03*
G54D19*
X54701Y-16622D03*
G54D20*
X53701Y-16622D03*
G54D19*
X47201Y-16622D03*
G54D20*
X46201Y-16622D03*
G54D19*
X39701Y-16622D03*
G54D20*
X38701Y-16622D03*
G54D19*
X83801Y-9122D03*
G54D20*
X82801Y-9122D03*
G54D19*
X73501Y-9122D03*
G54D20*
X72501Y-9122D03*
G54D19*
X66001Y-9122D03*
G54D20*
X65001Y-9122D03*
G54D19*
X32201Y-16672D03*
G54D20*
X31201Y-16672D03*
G54D19*
X58501Y-9122D03*
G54D20*
X57501Y-9122D03*
G54D19*
X34101Y-1622D03*
G54D20*
X33101Y-1622D03*
G54D19*
X41601Y-1622D03*
G54D20*
X40601Y-1622D03*
G54D19*
X49101Y-1622D03*
G54D20*
X48101Y-1622D03*
G54D19*
X56601Y-1622D03*
G54D20*
X55601Y-1622D03*
G54D19*
X26601Y-1622D03*
G54D20*
X25601Y-1622D03*
G54D19*
X51001Y-9122D03*
G54D20*
X50001Y-9122D03*
G54D19*
X64101Y-1622D03*
G54D20*
X63101Y-1622D03*
G54D19*
X71601Y-1622D03*
G54D20*
X70601Y-1622D03*
G54D19*
X79101Y-1622D03*
G54D20*
X78101Y-1622D03*
G54D19*
X86601Y-1622D03*
G54D20*
X85601Y-1622D03*
G54D19*
X36001Y-9122D03*
G54D20*
X35001Y-9122D03*
G54D19*
X43501Y-9122D03*
G54D20*
X42501Y-9122D03*
G54D19*
X85651Y-24122D03*
G54D20*
X84651Y-24122D03*
G54D19*
X76301Y-24122D03*
G54D20*
X75301Y-24122D03*
G54D19*
X69701Y-16622D03*
G54D20*
X68701Y-16622D03*
G54D19*
X78151Y-16622D03*
G54D20*
X77151Y-16622D03*
G54D19*
X21001Y-24122D03*
G54D20*
X20001Y-24122D03*
G54D19*
X86601Y-16622D03*
G54D20*
X85601Y-16622D03*
G54D19*
X4101Y-1621D03*
G54D20*
X3101Y-1621D03*
G54D16*
X2601Y-5622D03*
X5101Y-4622D03*
G54D17*
X3601Y-3622D03*
G54D18*
X5601Y-3622D03*
X1601Y-3622D03*
G54D19*
X6901Y-16622D03*
G54D20*
X5901Y-16622D03*
G54D15*
X31301Y-12122D03*
X31301Y-9122D03*
X23851Y-12122D03*
X23851Y-9122D03*
X16301Y-13022D03*
X16301Y-10022D03*
X22001Y-4622D03*
X22001Y-1622D03*
G54D19*
X28501Y-9122D03*
G54D20*
X27501Y-9122D03*
G54D19*
X21001Y-9122D03*
G54D20*
X20001Y-9122D03*
G54D19*
X13501Y-9122D03*
G54D20*
X12501Y-9122D03*
G54D19*
X19101Y-1622D03*
G54D20*
X18101Y-1622D03*
G54D21*
X351Y-29472D03*
X89401Y-322D03*
X89401Y-29472D03*
X351Y-322D03*
X24976Y-23059D03*
X29976Y-559D03*
G54D16*
X46601Y-28122D03*
X49101Y-27122D03*
G54D17*
X47601Y-26122D03*
G54D18*
X49601Y-26122D03*
X45601Y-26122D03*
G54D22*
X67301Y-28822D03*
X27901Y-28822D03*
G54D17*
X67301Y-22822D03*
X27901Y-22822D03*
G54D16*
X84201Y-20622D03*
X86701Y-19622D03*
G54D17*
X85201Y-18622D03*
G54D18*
X87201Y-18622D03*
X83201Y-18622D03*
G54D16*
X75701Y-20622D03*
X78201Y-19622D03*
G54D17*
X76701Y-18622D03*
G54D18*
X78701Y-18622D03*
X74701Y-18622D03*
G54D19*
X76201Y-16622D03*
G54D20*
X77201Y-16622D03*
G54D19*
X84701Y-16622D03*
G54D20*
X85701Y-16622D03*
G54D21*
X49198Y-8762D03*
X52635Y-24712D03*
X26081Y-16937D03*
X52364Y-9573D03*
X53973Y-26118D03*
X67681Y-24904D03*
X53383Y-25535D03*
X21199Y-12607D03*
X42367Y-16622D03*
X73619Y-15682D03*
X34280Y-5768D03*
X46681Y-23030D03*
X44985Y-22076D03*
X58983Y-23069D03*
X23033Y-22669D03*
X57831Y-22251D03*
X8749Y-23499D03*
X53170Y-23686D03*
X85621Y-22382D03*
X67299Y-26793D03*
X87030Y-15444D03*
X73649Y-16233D03*
X19080Y-24853D03*
X55754Y-26449D03*
X17179Y-27115D03*
X30527Y-22087D03*
X55239Y-23842D03*
X35200Y-20990D03*
X48792Y-21739D03*
X51364Y-26548D03*
X49926Y-27433D03*
X64097Y-26356D03*
X64571Y-24586D03*
X49216Y-25081D03*
X58130Y-24728D03*
X64989Y-25075D03*
X66056Y-23094D03*
X60398Y-23094D03*
X72791Y-26090D03*
X68061Y-24377D03*
X65358Y-25450D03*
X58940Y-25759D03*
X53047Y-26605D03*
X58819Y-26655D03*
X58925Y-27129D03*
X60253Y-27547D03*
X62161Y-24666D03*
X62993Y-28474D03*
X63644Y-24701D03*
X60391Y-24666D03*
X13001Y-7822D03*
X14801Y-3772D03*
X6888Y-7834D03*
X10401Y-7822D03*
X14801Y-1672D03*
X8651Y-9597D03*
X4501Y-12422D03*
X4501Y-14722D03*
X8651Y-14722D03*
X6796Y-445D03*
X35935Y-21634D03*
X52911Y-28518D03*
X59282Y-27935D03*
X62491Y-26229D03*
X60569Y-25963D03*
X22781Y-27434D03*
X55977Y-26896D03*
X58692Y-22679D03*
X57860Y-22821D03*
X32085Y-21191D03*
X56187Y-22678D03*
X4016Y-5677D03*
X62241Y-28238D03*
X61382Y-23740D03*
X63748Y-5833D03*
X64746Y-13937D03*
X55266Y-23368D03*
X33924Y-23910D03*
X35364Y-25047D03*
X55164Y-28371D03*
X59488Y-23721D03*
G54D23*
X23851Y-12122D02*
X23851Y-12377D01*
X23244Y-12983D02*
X23851Y-12377D01*
X21070Y-12983D02*
X23244Y-12983D01*
X20582Y-12494D02*
X21070Y-12983D01*
X16828Y-12494D02*
X20582Y-12494D01*
X16301Y-13022D02*
X16828Y-12494D01*
X30686Y-12737D02*
X31301Y-12122D01*
X27617Y-12737D02*
X30686Y-12737D01*
X27256Y-12377D02*
X27617Y-12737D01*
X23851Y-12377D02*
X27256Y-12377D01*
X49198Y-8536D02*
X49198Y-8762D01*
X34534Y-8536D02*
X49198Y-8536D01*
X31301Y-11769D02*
X34534Y-8536D01*
X31301Y-12122D02*
X31301Y-11769D01*
X55626Y-8536D02*
X49198Y-8536D01*
X61636Y-2526D02*
X55626Y-8536D01*
X66408Y-2526D02*
X61636Y-2526D01*
X67376Y-1559D02*
X66408Y-2526D01*
X22891Y-13747D02*
X26081Y-16937D01*
X1614Y-13747D02*
X22891Y-13747D01*
X1376Y-13509D02*
X1614Y-13747D01*
X66919Y-3101D02*
X67376Y-3559D01*
X65412Y-3101D02*
X66919Y-3101D01*
X64986Y-3528D02*
X65412Y-3101D01*
X64986Y-3583D02*
X64986Y-3528D01*
X63705Y-4864D02*
X64986Y-3583D01*
X59638Y-4864D02*
X63705Y-4864D01*
X54929Y-9573D02*
X59638Y-4864D01*
X52364Y-9573D02*
X54929Y-9573D01*
X36265Y-24712D02*
X52635Y-24712D01*
X35576Y-24024D02*
X36265Y-24712D01*
X34306Y-23024D02*
X34576Y-23024D01*
X33547Y-23782D02*
X34306Y-23024D01*
X33547Y-24130D02*
X33547Y-23782D01*
X36244Y-26827D02*
X33547Y-24130D01*
X46969Y-26827D02*
X36244Y-26827D01*
X47933Y-27790D02*
X46969Y-26827D01*
X51357Y-27790D02*
X47933Y-27790D01*
X53029Y-26118D02*
X51357Y-27790D01*
X53973Y-26118D02*
X53029Y-26118D01*
X65873Y-26713D02*
X67681Y-24904D01*
X59502Y-26713D02*
X65873Y-26713D01*
X59062Y-26273D02*
X59502Y-26713D01*
X58676Y-26273D02*
X59062Y-26273D01*
X58245Y-25841D02*
X58676Y-26273D01*
X54249Y-25841D02*
X58245Y-25841D01*
X53973Y-26118D02*
X54249Y-25841D01*
X49084Y-25535D02*
X53383Y-25535D01*
X48528Y-24979D02*
X49084Y-25535D01*
X35920Y-24979D02*
X48528Y-24979D01*
X35479Y-24538D02*
X35920Y-24979D01*
X35090Y-24538D02*
X35479Y-24538D01*
X34576Y-24024D02*
X35090Y-24538D01*
X43737Y-6698D02*
X44876Y-5559D01*
X20178Y-6698D02*
X43737Y-6698D01*
X17611Y-9264D02*
X20178Y-6698D01*
X16119Y-9264D02*
X17611Y-9264D01*
X15371Y-8517D02*
X16119Y-9264D01*
X4656Y-8517D02*
X15371Y-8517D01*
X4051Y-9122D02*
X4656Y-8517D01*
X77201Y-16622D02*
X77151Y-16622D01*
X77841Y-17262D02*
X77201Y-16622D01*
X80062Y-17262D02*
X77841Y-17262D01*
X82439Y-19639D02*
X80062Y-17262D01*
X84992Y-19639D02*
X82439Y-19639D01*
X85979Y-20626D02*
X84992Y-19639D01*
X85979Y-22794D02*
X85979Y-20626D01*
X84651Y-24122D02*
X85979Y-22794D01*
X85701Y-16622D02*
X85601Y-16622D01*
X85601Y-1622D02*
X85066Y-1622D01*
X62645Y-789D02*
X59876Y-3559D01*
X84234Y-789D02*
X62645Y-789D01*
X85066Y-1622D02*
X84234Y-789D01*
X43347Y-1030D02*
X44876Y-2559D01*
X30679Y-1030D02*
X43347Y-1030D01*
X29256Y-2453D02*
X30679Y-1030D01*
X11432Y-2453D02*
X29256Y-2453D01*
X10601Y-1621D02*
X11432Y-2453D01*
X45400Y-5082D02*
X44876Y-4559D01*
X45400Y-5786D02*
X45400Y-5082D01*
X42951Y-8234D02*
X45400Y-5786D01*
X33829Y-8234D02*
X42951Y-8234D01*
X32062Y-10002D02*
X33829Y-8234D01*
X24998Y-10002D02*
X32062Y-10002D01*
X22257Y-12743D02*
X24998Y-10002D01*
X21335Y-12743D02*
X22257Y-12743D01*
X21199Y-12607D02*
X21335Y-12743D01*
X44103Y-785D02*
X44876Y-1559D01*
X30337Y-785D02*
X44103Y-785D01*
X30093Y-1030D02*
X30337Y-785D01*
X26193Y-1030D02*
X30093Y-1030D01*
X25601Y-1622D02*
X26193Y-1030D01*
X43818Y-2501D02*
X44876Y-3559D01*
X38184Y-2501D02*
X43818Y-2501D01*
X37712Y-2028D02*
X38184Y-2501D01*
X36800Y-2028D02*
X37712Y-2028D01*
X36620Y-2208D02*
X36800Y-2028D01*
X33687Y-2208D02*
X36620Y-2208D01*
X33101Y-1622D02*
X33687Y-2208D01*
X46201Y-16622D02*
X42367Y-16622D01*
X49038Y-2559D02*
X52376Y-2559D01*
X48101Y-1622D02*
X49038Y-2559D01*
X52885Y-5559D02*
X52376Y-5559D01*
X55066Y-3378D02*
X52885Y-5559D01*
X55066Y-1622D02*
X55066Y-3378D01*
X55601Y-1622D02*
X55066Y-1622D01*
X69641Y-15682D02*
X73619Y-15682D01*
X68701Y-16622D02*
X69641Y-15682D01*
X12722Y-2207D02*
X12136Y-1621D01*
X26601Y-2207D02*
X12722Y-2207D01*
X26601Y-1622D02*
X26601Y-2207D01*
X11601Y-1621D02*
X12136Y-1621D01*
X72721Y-2207D02*
X72136Y-1622D01*
X79101Y-2207D02*
X72721Y-2207D01*
X79101Y-1622D02*
X79101Y-2207D01*
X71601Y-1622D02*
X71869Y-1622D01*
X71869Y-1622D02*
X72136Y-1622D01*
X65228Y-1029D02*
X64636Y-1622D01*
X71276Y-1029D02*
X65228Y-1029D01*
X71869Y-1622D02*
X71276Y-1029D01*
X64101Y-1622D02*
X64636Y-1622D01*
X80238Y-9122D02*
X73501Y-9122D01*
X80823Y-9707D02*
X80238Y-9122D01*
X83801Y-9707D02*
X80823Y-9707D01*
X83801Y-9122D02*
X83801Y-9707D01*
X36443Y-3491D02*
X37376Y-2559D01*
X36443Y-4151D02*
X36443Y-3491D01*
X34826Y-5768D02*
X36443Y-4151D01*
X34280Y-5768D02*
X34826Y-5768D01*
X66001Y-9122D02*
X66001Y-9700D01*
X73501Y-9122D02*
X73501Y-9707D01*
X43501Y-9122D02*
X44036Y-9122D01*
X37121Y-9707D02*
X43501Y-9707D01*
X36536Y-9122D02*
X37121Y-9707D01*
X36001Y-9122D02*
X36536Y-9122D01*
X43501Y-9122D02*
X43501Y-9707D01*
X50984Y-9707D02*
X51001Y-9690D01*
X44621Y-9707D02*
X50984Y-9707D01*
X44036Y-9122D02*
X44621Y-9707D01*
X51001Y-9122D02*
X51001Y-9690D01*
X58264Y-9944D02*
X58501Y-9707D01*
X51255Y-9944D02*
X58264Y-9944D01*
X51001Y-9690D02*
X51255Y-9944D01*
X58501Y-9122D02*
X58501Y-9647D01*
X58501Y-9647D02*
X58501Y-9707D01*
X65995Y-9707D02*
X66001Y-9701D01*
X58501Y-9707D02*
X65995Y-9707D01*
X66001Y-9700D02*
X66001Y-9701D01*
X66007Y-9707D02*
X73501Y-9707D01*
X66001Y-9701D02*
X66007Y-9707D01*
X84701Y-16622D02*
X78151Y-16622D01*
X3200Y-16036D02*
X17201Y-16036D01*
X890Y-13726D02*
X3200Y-16036D01*
X890Y-13307D02*
X890Y-13726D01*
X1397Y-12800D02*
X890Y-13307D01*
X1580Y-12800D02*
X1397Y-12800D01*
X3233Y-11147D02*
X1580Y-12800D01*
X3233Y-11064D02*
X3233Y-11147D01*
X4590Y-9707D02*
X3233Y-11064D01*
X5051Y-9707D02*
X4590Y-9707D01*
X5051Y-9122D02*
X5051Y-9707D01*
X33271Y-17207D02*
X39701Y-17207D01*
X32736Y-16672D02*
X33271Y-17207D01*
X39701Y-16622D02*
X39701Y-17070D01*
X39701Y-17070D02*
X39701Y-17207D01*
X39838Y-17207D02*
X47201Y-17207D01*
X39701Y-17070D02*
X39838Y-17207D01*
X47201Y-16622D02*
X47201Y-17207D01*
X48321Y-16036D02*
X47736Y-16622D01*
X54701Y-16036D02*
X48321Y-16036D01*
X54701Y-16622D02*
X54701Y-16036D01*
X47201Y-16622D02*
X47736Y-16622D01*
X75666Y-16622D02*
X70236Y-16622D01*
X76201Y-16622D02*
X75666Y-16622D01*
X69969Y-16622D02*
X69864Y-16622D01*
X69701Y-16622D02*
X69864Y-16622D01*
X69969Y-16622D02*
X70236Y-16622D01*
X63321Y-17207D02*
X62736Y-16622D01*
X69279Y-17207D02*
X63321Y-17207D01*
X69864Y-16622D02*
X69279Y-17207D01*
X62201Y-16622D02*
X62736Y-16622D01*
X32469Y-16672D02*
X32283Y-16672D01*
X32201Y-16672D02*
X32283Y-16672D01*
X32469Y-16672D02*
X32736Y-16672D01*
X24701Y-16622D02*
X25236Y-16622D01*
X17201Y-16622D02*
X17201Y-16096D01*
X17201Y-16096D02*
X17201Y-16036D01*
X17201Y-16036D02*
X24701Y-16036D01*
X24701Y-16622D02*
X24701Y-16036D01*
X31661Y-17294D02*
X32283Y-16672D01*
X25908Y-17294D02*
X31661Y-17294D01*
X25236Y-16622D02*
X25908Y-17294D01*
X6171Y-24707D02*
X13501Y-24707D01*
X5586Y-24122D02*
X6171Y-24707D01*
X5051Y-24122D02*
X5586Y-24122D01*
X13501Y-24122D02*
X13501Y-24707D01*
X13501Y-24122D02*
X14036Y-24122D01*
X48271Y-24124D02*
X48271Y-23538D01*
X47189Y-23538D02*
X48271Y-23538D01*
X46681Y-23030D02*
X47189Y-23538D01*
X76301Y-24122D02*
X76301Y-24707D01*
X14621Y-23536D02*
X21001Y-23536D01*
X14036Y-24122D02*
X14621Y-23536D01*
X21001Y-24122D02*
X21001Y-23536D01*
X44118Y-23030D02*
X46681Y-23030D01*
X43581Y-22494D02*
X44118Y-23030D01*
X33307Y-22494D02*
X43581Y-22494D01*
X31679Y-24122D02*
X33307Y-22494D01*
X21001Y-24122D02*
X31679Y-24122D01*
X52259Y-23538D02*
X48271Y-23538D01*
X52939Y-24218D02*
X52259Y-23538D01*
X67715Y-24218D02*
X52939Y-24218D01*
X67913Y-24020D02*
X67715Y-24218D01*
X68209Y-24020D02*
X67913Y-24020D01*
X68896Y-24707D02*
X68209Y-24020D01*
X76301Y-24707D02*
X68896Y-24707D01*
X48284Y-22076D02*
X44985Y-22076D01*
X48624Y-22416D02*
X48284Y-22076D01*
X54831Y-22416D02*
X48624Y-22416D01*
X55605Y-23189D02*
X54831Y-22416D01*
X58864Y-23189D02*
X55605Y-23189D01*
X58983Y-23069D02*
X58864Y-23189D01*
X5748Y-22669D02*
X23033Y-22669D01*
X2701Y-19622D02*
X5748Y-22669D01*
X24278Y-21424D02*
X23033Y-22669D01*
X30837Y-21424D02*
X24278Y-21424D01*
X31631Y-20630D02*
X30837Y-21424D01*
X37009Y-20630D02*
X31631Y-20630D01*
X37610Y-21232D02*
X37009Y-20630D01*
X56812Y-21232D02*
X37610Y-21232D01*
X57831Y-22251D02*
X56812Y-21232D01*
X52397Y-22913D02*
X53170Y-23686D01*
X48322Y-22913D02*
X52397Y-22913D01*
X48082Y-22673D02*
X48322Y-22913D01*
X44440Y-22673D02*
X48082Y-22673D01*
X44020Y-22253D02*
X44440Y-22673D01*
X32387Y-22253D02*
X44020Y-22253D01*
X30868Y-23772D02*
X32387Y-22253D01*
X22434Y-23772D02*
X30868Y-23772D01*
X21958Y-23295D02*
X22434Y-23772D01*
X8953Y-23295D02*
X21958Y-23295D01*
X8749Y-23499D02*
X8953Y-23295D01*
X80815Y-22382D02*
X85621Y-22382D01*
X76765Y-26432D02*
X80815Y-22382D01*
X76765Y-26498D02*
X76765Y-26432D01*
X76191Y-27071D02*
X76765Y-26498D01*
X67577Y-27071D02*
X76191Y-27071D01*
X67299Y-26793D02*
X67577Y-27071D01*
X74438Y-15444D02*
X73649Y-16233D01*
X87030Y-15444D02*
X74438Y-15444D01*
X17179Y-26720D02*
X17179Y-27115D01*
X19047Y-24853D02*
X17179Y-26720D01*
X19080Y-24853D02*
X19047Y-24853D01*
X55376Y-26827D02*
X55754Y-26449D01*
X53421Y-26827D02*
X55376Y-26827D01*
X52567Y-27681D02*
X53421Y-26827D01*
X52407Y-27681D02*
X52567Y-27681D01*
X52058Y-28030D02*
X52407Y-27681D01*
X47762Y-28030D02*
X52058Y-28030D01*
X46798Y-27067D02*
X47762Y-28030D01*
X24697Y-27067D02*
X46798Y-27067D01*
X22484Y-24853D02*
X24697Y-27067D01*
X19080Y-24853D02*
X22484Y-24853D01*
X30602Y-22012D02*
X30527Y-22087D01*
X44119Y-22012D02*
X30602Y-22012D01*
X44539Y-22433D02*
X44119Y-22012D01*
X48302Y-22433D02*
X44539Y-22433D01*
X48542Y-22673D02*
X48302Y-22433D01*
X54067Y-22673D02*
X48542Y-22673D01*
X55235Y-23842D02*
X54067Y-22673D01*
X55239Y-23842D02*
X55235Y-23842D01*
X48525Y-21472D02*
X48792Y-21739D01*
X37373Y-21472D02*
X48525Y-21472D01*
X36890Y-20990D02*
X37373Y-21472D01*
X35200Y-20990D02*
X36890Y-20990D01*
X50811Y-26548D02*
X49926Y-27433D01*
X51364Y-26548D02*
X50811Y-26548D01*
X65005Y-24586D02*
X64571Y-24586D01*
X65721Y-25302D02*
X65005Y-24586D01*
X65721Y-25598D02*
X65721Y-25302D01*
X64964Y-26356D02*
X65721Y-25598D01*
X64097Y-26356D02*
X64964Y-26356D01*
X58130Y-24739D02*
X58130Y-24728D01*
X57789Y-25081D02*
X58130Y-24739D01*
X49216Y-25081D02*
X57789Y-25081D01*
X58466Y-25075D02*
X64989Y-25075D01*
X58130Y-24739D02*
X58466Y-25075D01*
X66056Y-23094D02*
X60398Y-23094D01*
X69774Y-26090D02*
X68061Y-24377D01*
X72791Y-26090D02*
X69774Y-26090D01*
X85101Y-5622D02*
X77601Y-5622D01*
X77601Y-5622D02*
X70101Y-5622D01*
X54650Y-6073D02*
X55101Y-5622D01*
X48053Y-6073D02*
X54650Y-6073D01*
X47601Y-5622D02*
X48053Y-6073D01*
X25101Y-5622D02*
X17601Y-5622D01*
X10101Y-5622D02*
X17601Y-5622D01*
X25101Y-5622D02*
X32601Y-5622D01*
X39597Y-6125D02*
X40101Y-5622D01*
X33105Y-6125D02*
X39597Y-6125D01*
X32601Y-5622D02*
X33105Y-6125D01*
X69532Y-6190D02*
X70101Y-5622D01*
X63170Y-6190D02*
X69532Y-6190D01*
X62601Y-5622D02*
X63170Y-6190D01*
X9689Y-6034D02*
X10101Y-5622D01*
X3013Y-6034D02*
X9689Y-6034D01*
X2601Y-5622D02*
X3013Y-6034D01*
X59250Y-25450D02*
X58940Y-25759D01*
X65358Y-25450D02*
X59250Y-25450D01*
X64501Y-13122D02*
X57001Y-13122D01*
X3551Y-13122D02*
X12001Y-13122D01*
X57001Y-13122D02*
X49501Y-13122D01*
X12386Y-13507D02*
X12001Y-13122D01*
X19116Y-13507D02*
X12386Y-13507D01*
X19501Y-13122D02*
X19116Y-13507D01*
X64501Y-13122D02*
X72001Y-13122D01*
X72001Y-13122D02*
X82301Y-13122D01*
X34501Y-13122D02*
X27001Y-13122D01*
X19602Y-13223D02*
X19501Y-13122D01*
X26900Y-13223D02*
X19602Y-13223D01*
X27001Y-13122D02*
X26900Y-13223D01*
X34501Y-13122D02*
X42001Y-13122D01*
X42001Y-13122D02*
X49501Y-13122D01*
X58752Y-26588D02*
X58819Y-26655D01*
X58752Y-26588D02*
X58752Y-26588D01*
X58652Y-26588D02*
X58752Y-26588D01*
X58156Y-26092D02*
X58652Y-26588D01*
X55031Y-26092D02*
X58156Y-26092D01*
X54536Y-26587D02*
X55031Y-26092D01*
X53065Y-26587D02*
X54536Y-26587D01*
X53047Y-26605D02*
X53065Y-26587D01*
X23201Y-20622D02*
X30701Y-20622D01*
X85101Y-20622D02*
X84201Y-20622D01*
X60701Y-20622D02*
X68201Y-20622D01*
X23201Y-20622D02*
X15701Y-20622D01*
X15701Y-20622D02*
X5401Y-20622D01*
X53201Y-20622D02*
X45701Y-20622D01*
X45701Y-20622D02*
X38201Y-20622D01*
X84201Y-20622D02*
X76841Y-20622D01*
X76841Y-20622D02*
X76651Y-20622D01*
X30935Y-20388D02*
X30701Y-20622D01*
X37967Y-20388D02*
X30935Y-20388D01*
X38201Y-20622D02*
X37967Y-20388D01*
X76651Y-20622D02*
X75701Y-20622D01*
X75701Y-20622D02*
X68201Y-20622D01*
X65866Y-27129D02*
X58925Y-27129D01*
X66581Y-26414D02*
X65866Y-27129D01*
X72610Y-26414D02*
X66581Y-26414D01*
X72668Y-26472D02*
X72610Y-26414D01*
X72915Y-26472D02*
X72668Y-26472D01*
X73231Y-26155D02*
X72915Y-26472D01*
X73231Y-25989D02*
X73231Y-26155D01*
X74244Y-24977D02*
X73231Y-25989D01*
X76372Y-24977D02*
X74244Y-24977D01*
X76841Y-24507D02*
X76372Y-24977D01*
X76841Y-20622D02*
X76841Y-24507D01*
X74801Y-28122D02*
X84151Y-28122D01*
X74226Y-27547D02*
X74801Y-28122D01*
X60253Y-27547D02*
X74226Y-27547D01*
X12001Y-28122D02*
X3551Y-28122D01*
X19564Y-28059D02*
X19501Y-28122D01*
X46539Y-28059D02*
X19564Y-28059D01*
X46601Y-28122D02*
X46539Y-28059D01*
X19501Y-28122D02*
X12001Y-28122D01*
X47009Y-28529D02*
X46601Y-28122D01*
X52238Y-28529D02*
X47009Y-28529D01*
X52606Y-28161D02*
X52238Y-28529D01*
X52771Y-28161D02*
X52606Y-28161D01*
X53385Y-27547D02*
X52771Y-28161D01*
X60253Y-27547D02*
X53385Y-27547D01*
X62161Y-24666D02*
X60391Y-24666D01*
X62196Y-24701D02*
X62161Y-24666D01*
X63644Y-24701D02*
X62196Y-24701D01*
X61853Y-29615D02*
X62993Y-28474D01*
X33917Y-29615D02*
X61853Y-29615D01*
X33111Y-28809D02*
X33917Y-29615D01*
G54D24*
X10401Y-7822D02*
X6901Y-7822D01*
X6901Y-7822D02*
X6888Y-7834D01*
X10401Y-7822D02*
X13001Y-7822D01*
X8651Y-9597D02*
X8651Y-9622D01*
X8651Y-14722D02*
X4501Y-14722D01*
X475Y-445D02*
X351Y-322D01*
X6796Y-445D02*
X475Y-445D01*
X6909Y-559D02*
X6796Y-445D01*
X29976Y-559D02*
X6909Y-559D01*
X35863Y-21706D02*
X35935Y-21634D01*
X26328Y-21706D02*
X35863Y-21706D01*
X24976Y-23059D02*
X26328Y-21706D01*
X89401Y-5686D02*
X88625Y-6462D01*
X89401Y-322D02*
X89401Y-5686D01*
X60779Y-6462D02*
X59876Y-5559D01*
X88625Y-6462D02*
X60779Y-6462D01*
X52621Y-28809D02*
X52911Y-28518D01*
X38111Y-28809D02*
X52621Y-28809D01*
X59282Y-27935D02*
X59282Y-27935D01*
X53494Y-27935D02*
X59282Y-27935D01*
X52911Y-28518D02*
X53494Y-27935D01*
X61853Y-27935D02*
X59282Y-27935D01*
X61930Y-27858D02*
X61853Y-27935D01*
X67936Y-27858D02*
X61930Y-27858D01*
X68842Y-28764D02*
X67936Y-27858D01*
X87675Y-28764D02*
X68842Y-28764D01*
X88383Y-29472D02*
X87675Y-28764D01*
X89401Y-29472D02*
X88383Y-29472D01*
X88625Y-19989D02*
X88625Y-6462D01*
X86918Y-21696D02*
X88625Y-19989D01*
X86918Y-23737D02*
X86918Y-21696D01*
X87675Y-24494D02*
X86918Y-23737D01*
X87675Y-28764D02*
X87675Y-24494D01*
G54D23*
X62225Y-25963D02*
X60569Y-25963D01*
X62491Y-26229D02*
X62225Y-25963D01*
X1376Y-5126D02*
X1376Y-10509D01*
X2283Y-4219D02*
X1376Y-5126D01*
X2283Y-3582D02*
X2283Y-4219D01*
X3659Y-2206D02*
X2283Y-3582D01*
X4101Y-2206D02*
X3659Y-2206D01*
X4101Y-1621D02*
X4101Y-2206D01*
X55806Y-27067D02*
X55977Y-26896D01*
X53521Y-27067D02*
X55806Y-27067D01*
X52667Y-27921D02*
X53521Y-27067D01*
X52506Y-27921D02*
X52667Y-27921D01*
X52157Y-28270D02*
X52506Y-27921D01*
X47662Y-28270D02*
X52157Y-28270D01*
X46826Y-27434D02*
X47662Y-28270D01*
X22781Y-27434D02*
X46826Y-27434D01*
X58002Y-22679D02*
X58692Y-22679D01*
X57860Y-22821D02*
X58002Y-22679D01*
X32249Y-21355D02*
X32085Y-21191D01*
X35374Y-21355D02*
X32249Y-21355D01*
X35468Y-21261D02*
X35374Y-21355D01*
X36085Y-21261D02*
X35468Y-21261D01*
X36536Y-21713D02*
X36085Y-21261D01*
X48260Y-21713D02*
X36536Y-21713D01*
X48723Y-22176D02*
X48260Y-21713D01*
X55685Y-22176D02*
X48723Y-22176D01*
X56187Y-22678D02*
X55685Y-22176D01*
X14936Y-10022D02*
X16301Y-10022D01*
X14036Y-9122D02*
X14936Y-10022D01*
X13501Y-9122D02*
X14036Y-9122D01*
X19101Y-1622D02*
X22001Y-1622D01*
X21001Y-9122D02*
X23851Y-9122D01*
X28501Y-9122D02*
X31301Y-9122D01*
X5071Y-4622D02*
X4016Y-5677D01*
X5101Y-4622D02*
X5071Y-4622D01*
X78201Y-19622D02*
X79151Y-19622D01*
X86701Y-19622D02*
X87601Y-19622D01*
G54D24*
X3706Y-1016D02*
X3101Y-1621D01*
X16940Y-1016D02*
X3706Y-1016D01*
X17546Y-1622D02*
X16940Y-1016D01*
X18101Y-1622D02*
X17546Y-1622D01*
X64023Y-5559D02*
X63748Y-5833D01*
X67376Y-5559D02*
X64023Y-5559D01*
X26326Y-9741D02*
X26946Y-9122D01*
X20621Y-9741D02*
X26326Y-9741D01*
X20001Y-9122D02*
X20621Y-9741D01*
X27501Y-9122D02*
X26946Y-9122D01*
X34833Y-25047D02*
X35364Y-25047D01*
X33924Y-24139D02*
X34833Y-25047D01*
X33924Y-23910D02*
X33924Y-24139D01*
X55359Y-23460D02*
X55266Y-23368D01*
X59253Y-23460D02*
X55359Y-23460D01*
X62825Y-13937D02*
X64746Y-13937D01*
X59186Y-17577D02*
X62825Y-13937D01*
X59186Y-19282D02*
X59186Y-17577D01*
X59363Y-19459D02*
X59186Y-19282D01*
X59363Y-23350D02*
X59363Y-19459D01*
X59253Y-23460D02*
X59363Y-23350D01*
X54181Y-29354D02*
X55164Y-28371D01*
X36657Y-29354D02*
X54181Y-29354D01*
X36111Y-28809D02*
X36657Y-29354D01*
X59488Y-23695D02*
X59488Y-23721D01*
X59253Y-23460D02*
X59488Y-23695D01*
X59508Y-23740D02*
X61382Y-23740D01*
X59488Y-23721D02*
X59508Y-23740D01*
X62108Y-28371D02*
X62241Y-28238D01*
X55164Y-28371D02*
X62108Y-28371D01*
G54D10*
G36*
X17310Y-1877D02*
X12858Y-1877D01*
X12369Y-1388D01*
X12336Y-1366D01*
X16795Y-1366D01*
X17298Y-1869D01*
X17298Y-1869D01*
X17310Y-1877D01*
X17310Y-1877D01*
G37*
G54D25*
X17310Y-1877D02*
X12858Y-1877D01*
X12369Y-1388D01*
X12336Y-1366D01*
X16795Y-1366D01*
X17298Y-1869D01*
X17298Y-1869D01*
X17310Y-1877D01*
G54D10*
G36*
X24384Y-15706D02*
X17201Y-15706D01*
X3337Y-15706D01*
X1707Y-14077D01*
X22754Y-14077D01*
X24384Y-15706D01*
X24384Y-15706D01*
G37*
G54D25*
X24384Y-15706D02*
X17201Y-15706D01*
X3337Y-15706D01*
X1707Y-14077D01*
X22754Y-14077D01*
X24384Y-15706D01*
G54D10*
G36*
X30052Y-564D02*
X29981Y-635D01*
X29976Y-629D01*
X29970Y-635D01*
X29900Y-564D01*
X29905Y-559D01*
X29900Y-553D01*
X29970Y-482D01*
X29976Y-488D01*
X29981Y-482D01*
X30052Y-553D01*
X30047Y-559D01*
X30052Y-564D01*
X30052Y-564D01*
G37*
G54D25*
X30052Y-564D02*
X29981Y-635D01*
X29976Y-629D01*
X29970Y-635D01*
X29900Y-564D01*
X29905Y-559D01*
X29900Y-553D01*
X29970Y-482D01*
X29976Y-488D01*
X29981Y-482D01*
X30052Y-553D01*
X30047Y-559D01*
X30052Y-564D01*
G54D10*
G36*
X31830Y-22342D02*
X30731Y-23442D01*
X28745Y-23442D01*
X28778Y-23409D01*
X28936Y-23028D01*
X28936Y-22617D01*
X28779Y-22236D01*
X28488Y-21945D01*
X28108Y-21787D01*
X27696Y-21786D01*
X27316Y-21944D01*
X27024Y-22235D01*
X26866Y-22615D01*
X26866Y-23027D01*
X27023Y-23407D01*
X27058Y-23442D01*
X25428Y-23442D01*
X25428Y-23116D01*
X25415Y-22938D01*
X25372Y-22833D01*
X25287Y-22818D01*
X25216Y-22889D01*
X25216Y-22747D01*
X25202Y-22663D01*
X25033Y-22607D01*
X24856Y-22619D01*
X24750Y-22663D01*
X24736Y-22747D01*
X24976Y-22988D01*
X25216Y-22747D01*
X25216Y-22889D01*
X25047Y-23059D01*
X25287Y-23299D01*
X25372Y-23284D01*
X25428Y-23116D01*
X25428Y-23442D01*
X25204Y-23442D01*
X25216Y-23370D01*
X24976Y-23129D01*
X24905Y-23200D01*
X24905Y-23059D01*
X24665Y-22818D01*
X24580Y-22833D01*
X24524Y-23001D01*
X24536Y-23179D01*
X24580Y-23284D01*
X24665Y-23299D01*
X24905Y-23059D01*
X24905Y-23200D01*
X24736Y-23370D01*
X24748Y-23442D01*
X22571Y-23442D01*
X22192Y-23062D01*
X22097Y-22999D01*
X22731Y-22999D01*
X22780Y-23047D01*
X22944Y-23115D01*
X23121Y-23116D01*
X23286Y-23048D01*
X23412Y-22922D01*
X23480Y-22758D01*
X23480Y-22688D01*
X24415Y-21754D01*
X30229Y-21754D01*
X30148Y-21834D01*
X30080Y-21998D01*
X30080Y-22176D01*
X30148Y-22340D01*
X30273Y-22466D01*
X30437Y-22534D01*
X30615Y-22534D01*
X30780Y-22467D01*
X30904Y-22342D01*
X31830Y-22342D01*
X31830Y-22342D01*
G37*
G54D25*
X31830Y-22342D02*
X30731Y-23442D01*
X28745Y-23442D01*
X28778Y-23409D01*
X28936Y-23028D01*
X28936Y-22617D01*
X28779Y-22236D01*
X28488Y-21945D01*
X28108Y-21787D01*
X27696Y-21786D01*
X27316Y-21944D01*
X27024Y-22235D01*
X26866Y-22615D01*
X26866Y-23027D01*
X27023Y-23407D01*
X27058Y-23442D01*
X25428Y-23442D01*
X25428Y-23116D01*
X25415Y-22938D01*
X25372Y-22833D01*
X25287Y-22818D01*
X25216Y-22889D01*
X25216Y-22747D01*
X25202Y-22663D01*
X25033Y-22607D01*
X24856Y-22619D01*
X24750Y-22663D01*
X24736Y-22747D01*
X24976Y-22988D01*
X25216Y-22747D01*
X25216Y-22889D01*
X25047Y-23059D01*
X25287Y-23299D01*
X25372Y-23284D01*
X25428Y-23116D01*
X25428Y-23442D01*
X25204Y-23442D01*
X25216Y-23370D01*
X24976Y-23129D01*
X24905Y-23200D01*
X24905Y-23059D01*
X24665Y-22818D01*
X24580Y-22833D01*
X24524Y-23001D01*
X24536Y-23179D01*
X24580Y-23284D01*
X24665Y-23299D01*
X24905Y-23059D01*
X24905Y-23200D01*
X24736Y-23370D01*
X24748Y-23442D01*
X22571Y-23442D01*
X22192Y-23062D01*
X22097Y-22999D01*
X22731Y-22999D01*
X22780Y-23047D01*
X22944Y-23115D01*
X23121Y-23116D01*
X23286Y-23048D01*
X23412Y-22922D01*
X23480Y-22758D01*
X23480Y-22688D01*
X24415Y-21754D01*
X30229Y-21754D01*
X30148Y-21834D01*
X30080Y-21998D01*
X30080Y-22176D01*
X30148Y-22340D01*
X30273Y-22466D01*
X30437Y-22534D01*
X30615Y-22534D01*
X30780Y-22467D01*
X30904Y-22342D01*
X31830Y-22342D01*
G54D10*
G36*
X36039Y-21682D02*
X35386Y-21682D01*
X35501Y-21659D01*
X35501Y-21659D01*
X35603Y-21591D01*
X35948Y-21591D01*
X36039Y-21682D01*
X36039Y-21682D01*
G37*
G54D25*
X36039Y-21682D02*
X35386Y-21682D01*
X35501Y-21659D01*
X35501Y-21659D01*
X35603Y-21591D01*
X35948Y-21591D01*
X36039Y-21682D01*
G54D10*
G36*
X38187Y-28814D02*
X38116Y-28885D01*
X38111Y-28879D01*
X38105Y-28885D01*
X38035Y-28814D01*
X38040Y-28809D01*
X38035Y-28803D01*
X38105Y-28732D01*
X38111Y-28738D01*
X38116Y-28732D01*
X38187Y-28803D01*
X38182Y-28809D01*
X38187Y-28814D01*
X38187Y-28814D01*
G37*
G54D25*
X38187Y-28814D02*
X38116Y-28885D01*
X38111Y-28879D01*
X38105Y-28885D01*
X38035Y-28814D01*
X38040Y-28809D01*
X38035Y-28803D01*
X38105Y-28732D01*
X38111Y-28738D01*
X38116Y-28732D01*
X38187Y-28803D01*
X38182Y-28809D01*
X38187Y-28814D01*
G54D10*
G36*
X43691Y-7028D02*
X42814Y-7904D01*
X33829Y-7904D01*
X33703Y-7930D01*
X33596Y-8001D01*
X31925Y-9672D01*
X31449Y-9672D01*
X31621Y-9601D01*
X31780Y-9442D01*
X31866Y-9234D01*
X31866Y-9010D01*
X31780Y-8802D01*
X31622Y-8643D01*
X31414Y-8557D01*
X31189Y-8556D01*
X30981Y-8642D01*
X30832Y-8792D01*
X29060Y-8792D01*
X28943Y-8616D01*
X28740Y-8481D01*
X28501Y-8433D01*
X28262Y-8481D01*
X28102Y-8588D01*
X28088Y-8555D01*
X28018Y-8485D01*
X27926Y-8447D01*
X27827Y-8447D01*
X27077Y-8447D01*
X26985Y-8484D01*
X26914Y-8555D01*
X26876Y-8647D01*
X26876Y-8746D01*
X26876Y-8785D01*
X26812Y-8798D01*
X26698Y-8874D01*
X26181Y-9391D01*
X24350Y-9391D01*
X24416Y-9234D01*
X24416Y-9010D01*
X24330Y-8802D01*
X24171Y-8643D01*
X23964Y-8557D01*
X23739Y-8556D01*
X23531Y-8642D01*
X23382Y-8792D01*
X21560Y-8792D01*
X21443Y-8616D01*
X21240Y-8481D01*
X21001Y-8433D01*
X20762Y-8481D01*
X20602Y-8588D01*
X20588Y-8555D01*
X20518Y-8485D01*
X20426Y-8447D01*
X20327Y-8447D01*
X19577Y-8447D01*
X19485Y-8484D01*
X19414Y-8555D01*
X19376Y-8647D01*
X19376Y-8746D01*
X19376Y-9596D01*
X19414Y-9688D01*
X19484Y-9758D01*
X19576Y-9797D01*
X19676Y-9797D01*
X20181Y-9797D01*
X20373Y-9989D01*
X20487Y-10065D01*
X20597Y-10087D01*
X20296Y-10086D01*
X19916Y-10244D01*
X19624Y-10535D01*
X19466Y-10915D01*
X19466Y-11327D01*
X19623Y-11707D01*
X19914Y-11998D01*
X20294Y-12156D01*
X20706Y-12157D01*
X21087Y-11999D01*
X21378Y-11709D01*
X21536Y-11328D01*
X21536Y-10917D01*
X21379Y-10536D01*
X21088Y-10245D01*
X20719Y-10091D01*
X24441Y-10091D01*
X22657Y-11876D01*
X22595Y-11726D01*
X22576Y-11707D01*
X22617Y-11707D01*
X22832Y-11618D01*
X22997Y-11453D01*
X23086Y-11238D01*
X23086Y-11006D01*
X22997Y-10791D01*
X22833Y-10626D01*
X22618Y-10537D01*
X22385Y-10536D01*
X22170Y-10625D01*
X22005Y-10790D01*
X21916Y-11005D01*
X21916Y-11237D01*
X21992Y-11422D01*
X21862Y-11421D01*
X21605Y-11528D01*
X21408Y-11725D01*
X21301Y-11982D01*
X21301Y-12166D01*
X21288Y-12160D01*
X21111Y-12160D01*
X20946Y-12228D01*
X20864Y-12310D01*
X20815Y-12261D01*
X20708Y-12190D01*
X20582Y-12164D01*
X19086Y-12164D01*
X19086Y-11006D01*
X18997Y-10791D01*
X18833Y-10626D01*
X18618Y-10537D01*
X18385Y-10536D01*
X18170Y-10625D01*
X18005Y-10790D01*
X17916Y-11005D01*
X17916Y-11237D01*
X18005Y-11452D01*
X18169Y-11617D01*
X18384Y-11706D01*
X18617Y-11707D01*
X18832Y-11618D01*
X18997Y-11453D01*
X19086Y-11238D01*
X19086Y-11006D01*
X19086Y-12164D01*
X16828Y-12164D01*
X16702Y-12190D01*
X16595Y-12261D01*
X16399Y-12457D01*
X16189Y-12456D01*
X15981Y-12542D01*
X15822Y-12701D01*
X15736Y-12909D01*
X15736Y-13133D01*
X15754Y-13177D01*
X15586Y-13177D01*
X15586Y-11006D01*
X15497Y-10791D01*
X15333Y-10626D01*
X15118Y-10537D01*
X14885Y-10536D01*
X14670Y-10625D01*
X14505Y-10790D01*
X14416Y-11005D01*
X14416Y-11237D01*
X14492Y-11422D01*
X14362Y-11421D01*
X14105Y-11528D01*
X14036Y-11596D01*
X14036Y-10917D01*
X13879Y-10536D01*
X13588Y-10245D01*
X13208Y-10087D01*
X12796Y-10086D01*
X12415Y-10244D01*
X12124Y-10535D01*
X11966Y-10915D01*
X11966Y-11327D01*
X12123Y-11707D01*
X12414Y-11998D01*
X12794Y-12156D01*
X13206Y-12157D01*
X13586Y-11999D01*
X13878Y-11709D01*
X14036Y-11328D01*
X14036Y-10917D01*
X14036Y-11596D01*
X13908Y-11725D01*
X13801Y-11982D01*
X13801Y-12260D01*
X13907Y-12518D01*
X14104Y-12715D01*
X14361Y-12821D01*
X14640Y-12822D01*
X14897Y-12715D01*
X15094Y-12519D01*
X15201Y-12261D01*
X15201Y-11983D01*
X15095Y-11726D01*
X15076Y-11707D01*
X15117Y-11707D01*
X15332Y-11618D01*
X15497Y-11453D01*
X15586Y-11238D01*
X15586Y-11006D01*
X15586Y-13177D01*
X12701Y-13177D01*
X12701Y-12983D01*
X12595Y-12726D01*
X12398Y-12528D01*
X12141Y-12422D01*
X11862Y-12421D01*
X11605Y-12528D01*
X11586Y-12547D01*
X11586Y-11006D01*
X11497Y-10791D01*
X11333Y-10626D01*
X11118Y-10537D01*
X10885Y-10536D01*
X10670Y-10625D01*
X10505Y-10790D01*
X10416Y-11005D01*
X10416Y-11237D01*
X10505Y-11452D01*
X10669Y-11617D01*
X10884Y-11706D01*
X11117Y-11707D01*
X11332Y-11618D01*
X11497Y-11453D01*
X11586Y-11238D01*
X11586Y-11006D01*
X11586Y-12547D01*
X11408Y-12725D01*
X11380Y-12792D01*
X6262Y-12792D01*
X6447Y-12715D01*
X6644Y-12519D01*
X6751Y-12261D01*
X6751Y-11983D01*
X6645Y-11726D01*
X6626Y-11707D01*
X6667Y-11707D01*
X6882Y-11618D01*
X7047Y-11453D01*
X7136Y-11238D01*
X7136Y-11006D01*
X7047Y-10791D01*
X6883Y-10626D01*
X6668Y-10537D01*
X6435Y-10536D01*
X6220Y-10625D01*
X6055Y-10790D01*
X5966Y-11005D01*
X5966Y-11237D01*
X6042Y-11422D01*
X5912Y-11421D01*
X5655Y-11528D01*
X5458Y-11725D01*
X5351Y-11982D01*
X5351Y-12260D01*
X5457Y-12518D01*
X5654Y-12715D01*
X5839Y-12792D01*
X4172Y-12792D01*
X4145Y-12726D01*
X3948Y-12528D01*
X3691Y-12422D01*
X3412Y-12421D01*
X3155Y-12528D01*
X2958Y-12725D01*
X2851Y-12982D01*
X2851Y-13260D01*
X2915Y-13417D01*
X1941Y-13417D01*
X1941Y-13397D01*
X1855Y-13189D01*
X1745Y-13079D01*
X1814Y-13033D01*
X3466Y-11380D01*
X3516Y-11306D01*
X3516Y-11327D01*
X3673Y-11707D01*
X3964Y-11998D01*
X4344Y-12156D01*
X4756Y-12157D01*
X5136Y-11999D01*
X5428Y-11709D01*
X5586Y-11328D01*
X5586Y-10917D01*
X5429Y-10536D01*
X5138Y-10245D01*
X4758Y-10087D01*
X4677Y-10087D01*
X4727Y-10037D01*
X5051Y-10037D01*
X5177Y-10012D01*
X5284Y-9940D01*
X5356Y-9833D01*
X5381Y-9707D01*
X5381Y-9702D01*
X5493Y-9627D01*
X5628Y-9424D01*
X5676Y-9185D01*
X5676Y-9058D01*
X5634Y-8847D01*
X11876Y-8847D01*
X11876Y-9596D01*
X11914Y-9688D01*
X11984Y-9758D01*
X12076Y-9797D01*
X12175Y-9797D01*
X12925Y-9797D01*
X13017Y-9759D01*
X13088Y-9688D01*
X13101Y-9655D01*
X13262Y-9762D01*
X13501Y-9810D01*
X13740Y-9762D01*
X13943Y-9627D01*
X13996Y-9548D01*
X14703Y-10255D01*
X14810Y-10326D01*
X14810Y-10326D01*
X14936Y-10352D01*
X15832Y-10352D01*
X15981Y-10500D01*
X16188Y-10586D01*
X16413Y-10587D01*
X16621Y-10501D01*
X16780Y-10342D01*
X16866Y-10134D01*
X16866Y-9910D01*
X16780Y-9702D01*
X16673Y-9594D01*
X17611Y-9594D01*
X17738Y-9569D01*
X17738Y-9569D01*
X17845Y-9498D01*
X20314Y-7028D01*
X43691Y-7028D01*
X43691Y-7028D01*
G37*
G54D25*
X43691Y-7028D02*
X42814Y-7904D01*
X33829Y-7904D01*
X33703Y-7930D01*
X33596Y-8001D01*
X31925Y-9672D01*
X31449Y-9672D01*
X31621Y-9601D01*
X31780Y-9442D01*
X31866Y-9234D01*
X31866Y-9010D01*
X31780Y-8802D01*
X31622Y-8643D01*
X31414Y-8557D01*
X31189Y-8556D01*
X30981Y-8642D01*
X30832Y-8792D01*
X29060Y-8792D01*
X28943Y-8616D01*
X28740Y-8481D01*
X28501Y-8433D01*
X28262Y-8481D01*
X28102Y-8588D01*
X28088Y-8555D01*
X28018Y-8485D01*
X27926Y-8447D01*
X27827Y-8447D01*
X27077Y-8447D01*
X26985Y-8484D01*
X26914Y-8555D01*
X26876Y-8647D01*
X26876Y-8746D01*
X26876Y-8785D01*
X26812Y-8798D01*
X26698Y-8874D01*
X26181Y-9391D01*
X24350Y-9391D01*
X24416Y-9234D01*
X24416Y-9010D01*
X24330Y-8802D01*
X24171Y-8643D01*
X23964Y-8557D01*
X23739Y-8556D01*
X23531Y-8642D01*
X23382Y-8792D01*
X21560Y-8792D01*
X21443Y-8616D01*
X21240Y-8481D01*
X21001Y-8433D01*
X20762Y-8481D01*
X20602Y-8588D01*
X20588Y-8555D01*
X20518Y-8485D01*
X20426Y-8447D01*
X20327Y-8447D01*
X19577Y-8447D01*
X19485Y-8484D01*
X19414Y-8555D01*
X19376Y-8647D01*
X19376Y-8746D01*
X19376Y-9596D01*
X19414Y-9688D01*
X19484Y-9758D01*
X19576Y-9797D01*
X19676Y-9797D01*
X20181Y-9797D01*
X20373Y-9989D01*
X20487Y-10065D01*
X20597Y-10087D01*
X20296Y-10086D01*
X19916Y-10244D01*
X19624Y-10535D01*
X19466Y-10915D01*
X19466Y-11327D01*
X19623Y-11707D01*
X19914Y-11998D01*
X20294Y-12156D01*
X20706Y-12157D01*
X21087Y-11999D01*
X21378Y-11709D01*
X21536Y-11328D01*
X21536Y-10917D01*
X21379Y-10536D01*
X21088Y-10245D01*
X20719Y-10091D01*
X24441Y-10091D01*
X22657Y-11876D01*
X22595Y-11726D01*
X22576Y-11707D01*
X22617Y-11707D01*
X22832Y-11618D01*
X22997Y-11453D01*
X23086Y-11238D01*
X23086Y-11006D01*
X22997Y-10791D01*
X22833Y-10626D01*
X22618Y-10537D01*
X22385Y-10536D01*
X22170Y-10625D01*
X22005Y-10790D01*
X21916Y-11005D01*
X21916Y-11237D01*
X21992Y-11422D01*
X21862Y-11421D01*
X21605Y-11528D01*
X21408Y-11725D01*
X21301Y-11982D01*
X21301Y-12166D01*
X21288Y-12160D01*
X21111Y-12160D01*
X20946Y-12228D01*
X20864Y-12310D01*
X20815Y-12261D01*
X20708Y-12190D01*
X20582Y-12164D01*
X19086Y-12164D01*
X19086Y-11006D01*
X18997Y-10791D01*
X18833Y-10626D01*
X18618Y-10537D01*
X18385Y-10536D01*
X18170Y-10625D01*
X18005Y-10790D01*
X17916Y-11005D01*
X17916Y-11237D01*
X18005Y-11452D01*
X18169Y-11617D01*
X18384Y-11706D01*
X18617Y-11707D01*
X18832Y-11618D01*
X18997Y-11453D01*
X19086Y-11238D01*
X19086Y-11006D01*
X19086Y-12164D01*
X16828Y-12164D01*
X16702Y-12190D01*
X16595Y-12261D01*
X16399Y-12457D01*
X16189Y-12456D01*
X15981Y-12542D01*
X15822Y-12701D01*
X15736Y-12909D01*
X15736Y-13133D01*
X15754Y-13177D01*
X15586Y-13177D01*
X15586Y-11006D01*
X15497Y-10791D01*
X15333Y-10626D01*
X15118Y-10537D01*
X14885Y-10536D01*
X14670Y-10625D01*
X14505Y-10790D01*
X14416Y-11005D01*
X14416Y-11237D01*
X14492Y-11422D01*
X14362Y-11421D01*
X14105Y-11528D01*
X14036Y-11596D01*
X14036Y-10917D01*
X13879Y-10536D01*
X13588Y-10245D01*
X13208Y-10087D01*
X12796Y-10086D01*
X12415Y-10244D01*
X12124Y-10535D01*
X11966Y-10915D01*
X11966Y-11327D01*
X12123Y-11707D01*
X12414Y-11998D01*
X12794Y-12156D01*
X13206Y-12157D01*
X13586Y-11999D01*
X13878Y-11709D01*
X14036Y-11328D01*
X14036Y-10917D01*
X14036Y-11596D01*
X13908Y-11725D01*
X13801Y-11982D01*
X13801Y-12260D01*
X13907Y-12518D01*
X14104Y-12715D01*
X14361Y-12821D01*
X14640Y-12822D01*
X14897Y-12715D01*
X15094Y-12519D01*
X15201Y-12261D01*
X15201Y-11983D01*
X15095Y-11726D01*
X15076Y-11707D01*
X15117Y-11707D01*
X15332Y-11618D01*
X15497Y-11453D01*
X15586Y-11238D01*
X15586Y-11006D01*
X15586Y-13177D01*
X12701Y-13177D01*
X12701Y-12983D01*
X12595Y-12726D01*
X12398Y-12528D01*
X12141Y-12422D01*
X11862Y-12421D01*
X11605Y-12528D01*
X11586Y-12547D01*
X11586Y-11006D01*
X11497Y-10791D01*
X11333Y-10626D01*
X11118Y-10537D01*
X10885Y-10536D01*
X10670Y-10625D01*
X10505Y-10790D01*
X10416Y-11005D01*
X10416Y-11237D01*
X10505Y-11452D01*
X10669Y-11617D01*
X10884Y-11706D01*
X11117Y-11707D01*
X11332Y-11618D01*
X11497Y-11453D01*
X11586Y-11238D01*
X11586Y-11006D01*
X11586Y-12547D01*
X11408Y-12725D01*
X11380Y-12792D01*
X6262Y-12792D01*
X6447Y-12715D01*
X6644Y-12519D01*
X6751Y-12261D01*
X6751Y-11983D01*
X6645Y-11726D01*
X6626Y-11707D01*
X6667Y-11707D01*
X6882Y-11618D01*
X7047Y-11453D01*
X7136Y-11238D01*
X7136Y-11006D01*
X7047Y-10791D01*
X6883Y-10626D01*
X6668Y-10537D01*
X6435Y-10536D01*
X6220Y-10625D01*
X6055Y-10790D01*
X5966Y-11005D01*
X5966Y-11237D01*
X6042Y-11422D01*
X5912Y-11421D01*
X5655Y-11528D01*
X5458Y-11725D01*
X5351Y-11982D01*
X5351Y-12260D01*
X5457Y-12518D01*
X5654Y-12715D01*
X5839Y-12792D01*
X4172Y-12792D01*
X4145Y-12726D01*
X3948Y-12528D01*
X3691Y-12422D01*
X3412Y-12421D01*
X3155Y-12528D01*
X2958Y-12725D01*
X2851Y-12982D01*
X2851Y-13260D01*
X2915Y-13417D01*
X1941Y-13417D01*
X1941Y-13397D01*
X1855Y-13189D01*
X1745Y-13079D01*
X1814Y-13033D01*
X3466Y-11380D01*
X3516Y-11306D01*
X3516Y-11327D01*
X3673Y-11707D01*
X3964Y-11998D01*
X4344Y-12156D01*
X4756Y-12157D01*
X5136Y-11999D01*
X5428Y-11709D01*
X5586Y-11328D01*
X5586Y-10917D01*
X5429Y-10536D01*
X5138Y-10245D01*
X4758Y-10087D01*
X4677Y-10087D01*
X4727Y-10037D01*
X5051Y-10037D01*
X5177Y-10012D01*
X5284Y-9940D01*
X5356Y-9833D01*
X5381Y-9707D01*
X5381Y-9702D01*
X5493Y-9627D01*
X5628Y-9424D01*
X5676Y-9185D01*
X5676Y-9058D01*
X5634Y-8847D01*
X11876Y-8847D01*
X11876Y-9596D01*
X11914Y-9688D01*
X11984Y-9758D01*
X12076Y-9797D01*
X12175Y-9797D01*
X12925Y-9797D01*
X13017Y-9759D01*
X13088Y-9688D01*
X13101Y-9655D01*
X13262Y-9762D01*
X13501Y-9810D01*
X13740Y-9762D01*
X13943Y-9627D01*
X13996Y-9548D01*
X14703Y-10255D01*
X14810Y-10326D01*
X14810Y-10326D01*
X14936Y-10352D01*
X15832Y-10352D01*
X15981Y-10500D01*
X16188Y-10586D01*
X16413Y-10587D01*
X16621Y-10501D01*
X16780Y-10342D01*
X16866Y-10134D01*
X16866Y-9910D01*
X16780Y-9702D01*
X16673Y-9594D01*
X17611Y-9594D01*
X17738Y-9569D01*
X17738Y-9569D01*
X17845Y-9498D01*
X20314Y-7028D01*
X43691Y-7028D01*
G54D10*
G36*
X46712Y-23528D02*
X46684Y-23557D01*
X46646Y-23649D01*
X46646Y-23748D01*
X46646Y-24382D01*
X37072Y-24382D01*
X37088Y-24366D01*
X37180Y-24144D01*
X37180Y-23904D01*
X37089Y-23682D01*
X36919Y-23511D01*
X36910Y-23508D01*
X36930Y-23449D01*
X36576Y-23094D01*
X36221Y-23449D01*
X36241Y-23508D01*
X36234Y-23511D01*
X36076Y-23669D01*
X35931Y-23523D01*
X36088Y-23366D01*
X36091Y-23358D01*
X36151Y-23378D01*
X36505Y-23024D01*
X36500Y-23018D01*
X36570Y-22947D01*
X36576Y-22953D01*
X36581Y-22947D01*
X36652Y-23018D01*
X36647Y-23024D01*
X37001Y-23378D01*
X37102Y-23344D01*
X37185Y-23118D01*
X37175Y-22878D01*
X37152Y-22824D01*
X43445Y-22824D01*
X43884Y-23263D01*
X43884Y-23263D01*
X43991Y-23335D01*
X43991Y-23335D01*
X44118Y-23360D01*
X44118Y-23360D01*
X46379Y-23360D01*
X46428Y-23409D01*
X46592Y-23477D01*
X46661Y-23477D01*
X46712Y-23528D01*
X46712Y-23528D01*
G37*
G54D25*
X46712Y-23528D02*
X46684Y-23557D01*
X46646Y-23649D01*
X46646Y-23748D01*
X46646Y-24382D01*
X37072Y-24382D01*
X37088Y-24366D01*
X37180Y-24144D01*
X37180Y-23904D01*
X37089Y-23682D01*
X36919Y-23511D01*
X36910Y-23508D01*
X36930Y-23449D01*
X36576Y-23094D01*
X36221Y-23449D01*
X36241Y-23508D01*
X36234Y-23511D01*
X36076Y-23669D01*
X35931Y-23523D01*
X36088Y-23366D01*
X36091Y-23358D01*
X36151Y-23378D01*
X36505Y-23024D01*
X36500Y-23018D01*
X36570Y-22947D01*
X36576Y-22953D01*
X36581Y-22947D01*
X36652Y-23018D01*
X36647Y-23024D01*
X37001Y-23378D01*
X37102Y-23344D01*
X37185Y-23118D01*
X37175Y-22878D01*
X37152Y-22824D01*
X43445Y-22824D01*
X43884Y-23263D01*
X43884Y-23263D01*
X43991Y-23335D01*
X43991Y-23335D01*
X44118Y-23360D01*
X44118Y-23360D01*
X46379Y-23360D01*
X46428Y-23409D01*
X46592Y-23477D01*
X46661Y-23477D01*
X46712Y-23528D01*
G54D10*
G36*
X61970Y-27877D02*
X61863Y-27984D01*
X61848Y-28021D01*
X55446Y-28021D01*
X55418Y-27993D01*
X55254Y-27924D01*
X55076Y-27924D01*
X54912Y-27992D01*
X54786Y-28118D01*
X54718Y-28282D01*
X54718Y-28323D01*
X54036Y-29004D01*
X38683Y-29004D01*
X38720Y-28903D01*
X38710Y-28663D01*
X38637Y-28488D01*
X38536Y-28454D01*
X38581Y-28409D01*
X38561Y-28389D01*
X45954Y-28389D01*
X46007Y-28518D01*
X46204Y-28715D01*
X46461Y-28821D01*
X46740Y-28822D01*
X46816Y-28790D01*
X46883Y-28834D01*
X46883Y-28834D01*
X47009Y-28859D01*
X47009Y-28859D01*
X52238Y-28859D01*
X52364Y-28834D01*
X52364Y-28834D01*
X52471Y-28763D01*
X52743Y-28491D01*
X52771Y-28491D01*
X52897Y-28466D01*
X52897Y-28466D01*
X53004Y-28395D01*
X53522Y-27877D01*
X59951Y-27877D01*
X59999Y-27926D01*
X60163Y-27994D01*
X60341Y-27994D01*
X60505Y-27926D01*
X60554Y-27877D01*
X61970Y-27877D01*
X61970Y-27877D01*
G37*
G54D25*
X61970Y-27877D02*
X61863Y-27984D01*
X61848Y-28021D01*
X55446Y-28021D01*
X55418Y-27993D01*
X55254Y-27924D01*
X55076Y-27924D01*
X54912Y-27992D01*
X54786Y-28118D01*
X54718Y-28282D01*
X54718Y-28323D01*
X54036Y-29004D01*
X38683Y-29004D01*
X38720Y-28903D01*
X38710Y-28663D01*
X38637Y-28488D01*
X38536Y-28454D01*
X38581Y-28409D01*
X38561Y-28389D01*
X45954Y-28389D01*
X46007Y-28518D01*
X46204Y-28715D01*
X46461Y-28821D01*
X46740Y-28822D01*
X46816Y-28790D01*
X46883Y-28834D01*
X46883Y-28834D01*
X47009Y-28859D01*
X47009Y-28859D01*
X52238Y-28859D01*
X52364Y-28834D01*
X52364Y-28834D01*
X52471Y-28763D01*
X52743Y-28491D01*
X52771Y-28491D01*
X52897Y-28466D01*
X52897Y-28466D01*
X53004Y-28395D01*
X53522Y-27877D01*
X59951Y-27877D01*
X59999Y-27926D01*
X60163Y-27994D01*
X60341Y-27994D01*
X60505Y-27926D01*
X60554Y-27877D01*
X61970Y-27877D01*
G54D10*
G36*
X63977Y-13587D02*
X62825Y-13587D01*
X62691Y-13614D01*
X62578Y-13690D01*
X58938Y-17330D01*
X58862Y-17443D01*
X58836Y-17577D01*
X58836Y-19282D01*
X58862Y-19416D01*
X58938Y-19529D01*
X59013Y-19604D01*
X59013Y-22368D01*
X58946Y-22300D01*
X58782Y-22232D01*
X58604Y-22232D01*
X58440Y-22300D01*
X58391Y-22349D01*
X58274Y-22349D01*
X58278Y-22340D01*
X58278Y-22162D01*
X58210Y-21998D01*
X58084Y-21872D01*
X57920Y-21804D01*
X57851Y-21804D01*
X57045Y-20998D01*
X56938Y-20927D01*
X56812Y-20902D01*
X56786Y-20902D01*
X56786Y-18506D01*
X56697Y-18291D01*
X56533Y-18126D01*
X56318Y-18037D01*
X56085Y-18036D01*
X55870Y-18125D01*
X55705Y-18290D01*
X55616Y-18505D01*
X55616Y-18737D01*
X55692Y-18922D01*
X55562Y-18921D01*
X55305Y-19028D01*
X55236Y-19096D01*
X55236Y-18417D01*
X55079Y-18036D01*
X54788Y-17745D01*
X54408Y-17587D01*
X53996Y-17586D01*
X53616Y-17744D01*
X53324Y-18035D01*
X53166Y-18415D01*
X53166Y-18827D01*
X53323Y-19207D01*
X53614Y-19498D01*
X53994Y-19656D01*
X54406Y-19657D01*
X54787Y-19499D01*
X55078Y-19209D01*
X55236Y-18828D01*
X55236Y-18417D01*
X55236Y-19096D01*
X55108Y-19225D01*
X55001Y-19482D01*
X55001Y-19760D01*
X55107Y-20018D01*
X55304Y-20215D01*
X55561Y-20321D01*
X55840Y-20322D01*
X56097Y-20215D01*
X56294Y-20019D01*
X56401Y-19761D01*
X56401Y-19483D01*
X56295Y-19226D01*
X56276Y-19207D01*
X56317Y-19207D01*
X56532Y-19118D01*
X56697Y-18953D01*
X56786Y-18738D01*
X56786Y-18506D01*
X56786Y-20902D01*
X53843Y-20902D01*
X53901Y-20761D01*
X53901Y-20483D01*
X53795Y-20226D01*
X53598Y-20028D01*
X53341Y-19922D01*
X53062Y-19921D01*
X52805Y-20028D01*
X52608Y-20225D01*
X52580Y-20292D01*
X48413Y-20292D01*
X48597Y-20215D01*
X48794Y-20019D01*
X48901Y-19761D01*
X48901Y-19483D01*
X48795Y-19226D01*
X48776Y-19207D01*
X48817Y-19207D01*
X48974Y-19142D01*
X49091Y-19424D01*
X49549Y-19883D01*
X50147Y-20131D01*
X50794Y-20132D01*
X51393Y-19884D01*
X51851Y-19427D01*
X51964Y-19156D01*
X52084Y-19206D01*
X52317Y-19207D01*
X52532Y-19118D01*
X52697Y-18953D01*
X52786Y-18738D01*
X52786Y-18506D01*
X52697Y-18291D01*
X52533Y-18126D01*
X52318Y-18037D01*
X52085Y-18036D01*
X52047Y-18052D01*
X51853Y-17582D01*
X51395Y-17124D01*
X50797Y-16876D01*
X50150Y-16875D01*
X49551Y-17122D01*
X49093Y-17580D01*
X48890Y-18067D01*
X48818Y-18037D01*
X48585Y-18036D01*
X48370Y-18125D01*
X48205Y-18290D01*
X48116Y-18505D01*
X48116Y-18737D01*
X48192Y-18922D01*
X48062Y-18921D01*
X47805Y-19028D01*
X47736Y-19096D01*
X47736Y-18417D01*
X47579Y-18036D01*
X47288Y-17745D01*
X46908Y-17587D01*
X46496Y-17586D01*
X46116Y-17744D01*
X45824Y-18035D01*
X45666Y-18415D01*
X45666Y-18827D01*
X45823Y-19207D01*
X46114Y-19498D01*
X46494Y-19656D01*
X46906Y-19657D01*
X47287Y-19499D01*
X47578Y-19209D01*
X47736Y-18828D01*
X47736Y-18417D01*
X47736Y-19096D01*
X47608Y-19225D01*
X47501Y-19482D01*
X47501Y-19760D01*
X47607Y-20018D01*
X47804Y-20215D01*
X47989Y-20292D01*
X46322Y-20292D01*
X46295Y-20226D01*
X46098Y-20028D01*
X45841Y-19922D01*
X45562Y-19921D01*
X45305Y-20028D01*
X45286Y-20047D01*
X45286Y-18506D01*
X45197Y-18291D01*
X45033Y-18126D01*
X44818Y-18037D01*
X44585Y-18036D01*
X44370Y-18125D01*
X44205Y-18290D01*
X44116Y-18505D01*
X44116Y-18737D01*
X44205Y-18952D01*
X44369Y-19117D01*
X44584Y-19206D01*
X44817Y-19207D01*
X45032Y-19118D01*
X45197Y-18953D01*
X45286Y-18738D01*
X45286Y-18506D01*
X45286Y-20047D01*
X45108Y-20225D01*
X45080Y-20292D01*
X40913Y-20292D01*
X41097Y-20215D01*
X41294Y-20019D01*
X41401Y-19761D01*
X41401Y-19483D01*
X41295Y-19226D01*
X41276Y-19207D01*
X41317Y-19207D01*
X41532Y-19118D01*
X41697Y-18953D01*
X41786Y-18738D01*
X41786Y-18506D01*
X41697Y-18291D01*
X41533Y-18126D01*
X41318Y-18037D01*
X41085Y-18036D01*
X40870Y-18125D01*
X40705Y-18290D01*
X40616Y-18505D01*
X40616Y-18737D01*
X40692Y-18922D01*
X40562Y-18921D01*
X40305Y-19028D01*
X40236Y-19096D01*
X40236Y-18417D01*
X40079Y-18036D01*
X39788Y-17745D01*
X39408Y-17587D01*
X38996Y-17586D01*
X38616Y-17744D01*
X38324Y-18035D01*
X38166Y-18415D01*
X38166Y-18827D01*
X38323Y-19207D01*
X38614Y-19498D01*
X38994Y-19656D01*
X39406Y-19657D01*
X39787Y-19499D01*
X40078Y-19209D01*
X40236Y-18828D01*
X40236Y-18417D01*
X40236Y-19096D01*
X40108Y-19225D01*
X40001Y-19482D01*
X40001Y-19760D01*
X40107Y-20018D01*
X40304Y-20215D01*
X40489Y-20292D01*
X38822Y-20292D01*
X38795Y-20226D01*
X38598Y-20028D01*
X38341Y-19922D01*
X38062Y-19921D01*
X37805Y-20028D01*
X37786Y-20047D01*
X37786Y-18506D01*
X37697Y-18291D01*
X37533Y-18126D01*
X37318Y-18037D01*
X37085Y-18036D01*
X36870Y-18125D01*
X36705Y-18290D01*
X36616Y-18505D01*
X36616Y-18737D01*
X36705Y-18952D01*
X36869Y-19117D01*
X37084Y-19206D01*
X37317Y-19207D01*
X37532Y-19118D01*
X37697Y-18953D01*
X37786Y-18738D01*
X37786Y-18506D01*
X37786Y-20047D01*
X37775Y-20058D01*
X33755Y-20058D01*
X33794Y-20019D01*
X33901Y-19761D01*
X33901Y-19483D01*
X33795Y-19226D01*
X33776Y-19207D01*
X33817Y-19207D01*
X34032Y-19118D01*
X34197Y-18953D01*
X34286Y-18738D01*
X34286Y-18506D01*
X34197Y-18291D01*
X34033Y-18126D01*
X33818Y-18037D01*
X33585Y-18036D01*
X33370Y-18125D01*
X33205Y-18290D01*
X33116Y-18505D01*
X33116Y-18737D01*
X33192Y-18922D01*
X33062Y-18921D01*
X32805Y-19028D01*
X32608Y-19225D01*
X32501Y-19482D01*
X32501Y-19760D01*
X32607Y-20018D01*
X32647Y-20058D01*
X31127Y-20058D01*
X31098Y-20028D01*
X30841Y-19922D01*
X30562Y-19921D01*
X30305Y-20028D01*
X30286Y-20047D01*
X30286Y-18506D01*
X30197Y-18291D01*
X30033Y-18126D01*
X29818Y-18037D01*
X29585Y-18036D01*
X29370Y-18125D01*
X29205Y-18290D01*
X29116Y-18505D01*
X29116Y-18737D01*
X29205Y-18952D01*
X29369Y-19117D01*
X29584Y-19206D01*
X29817Y-19207D01*
X30032Y-19118D01*
X30197Y-18953D01*
X30286Y-18738D01*
X30286Y-18506D01*
X30286Y-20047D01*
X30108Y-20225D01*
X30080Y-20292D01*
X25913Y-20292D01*
X26097Y-20215D01*
X26294Y-20019D01*
X26401Y-19761D01*
X26401Y-19483D01*
X26295Y-19226D01*
X26276Y-19207D01*
X26317Y-19207D01*
X26532Y-19118D01*
X26697Y-18953D01*
X26786Y-18738D01*
X26786Y-18506D01*
X26697Y-18291D01*
X26533Y-18126D01*
X26318Y-18037D01*
X26085Y-18036D01*
X25870Y-18125D01*
X25705Y-18290D01*
X25616Y-18505D01*
X25616Y-18737D01*
X25692Y-18922D01*
X25562Y-18921D01*
X25305Y-19028D01*
X25236Y-19096D01*
X25236Y-18417D01*
X25079Y-18036D01*
X24788Y-17745D01*
X24408Y-17587D01*
X23996Y-17586D01*
X23616Y-17744D01*
X23324Y-18035D01*
X23166Y-18415D01*
X23166Y-18827D01*
X23323Y-19207D01*
X23614Y-19498D01*
X23994Y-19656D01*
X24406Y-19657D01*
X24787Y-19499D01*
X25078Y-19209D01*
X25236Y-18828D01*
X25236Y-18417D01*
X25236Y-19096D01*
X25108Y-19225D01*
X25001Y-19482D01*
X25001Y-19760D01*
X25107Y-20018D01*
X25304Y-20215D01*
X25489Y-20292D01*
X23822Y-20292D01*
X23795Y-20226D01*
X23598Y-20028D01*
X23341Y-19922D01*
X23062Y-19921D01*
X22805Y-20028D01*
X22786Y-20047D01*
X22786Y-18506D01*
X22697Y-18291D01*
X22533Y-18126D01*
X22318Y-18037D01*
X22085Y-18036D01*
X21870Y-18125D01*
X21705Y-18290D01*
X21616Y-18505D01*
X21616Y-18737D01*
X21705Y-18952D01*
X21869Y-19117D01*
X22084Y-19206D01*
X22317Y-19207D01*
X22532Y-19118D01*
X22697Y-18953D01*
X22786Y-18738D01*
X22786Y-18506D01*
X22786Y-20047D01*
X22608Y-20225D01*
X22580Y-20292D01*
X18413Y-20292D01*
X18597Y-20215D01*
X18794Y-20019D01*
X18901Y-19761D01*
X18901Y-19483D01*
X18795Y-19226D01*
X18776Y-19207D01*
X18817Y-19207D01*
X19032Y-19118D01*
X19197Y-18953D01*
X19286Y-18738D01*
X19286Y-18506D01*
X19197Y-18291D01*
X19033Y-18126D01*
X18818Y-18037D01*
X18585Y-18036D01*
X18370Y-18125D01*
X18205Y-18290D01*
X18116Y-18505D01*
X18116Y-18737D01*
X18192Y-18922D01*
X18062Y-18921D01*
X17805Y-19028D01*
X17736Y-19096D01*
X17736Y-18417D01*
X17579Y-18036D01*
X17288Y-17745D01*
X16908Y-17587D01*
X16496Y-17586D01*
X16116Y-17744D01*
X15824Y-18035D01*
X15666Y-18415D01*
X15666Y-18827D01*
X15823Y-19207D01*
X16114Y-19498D01*
X16494Y-19656D01*
X16906Y-19657D01*
X17287Y-19499D01*
X17578Y-19209D01*
X17736Y-18828D01*
X17736Y-18417D01*
X17736Y-19096D01*
X17608Y-19225D01*
X17501Y-19482D01*
X17501Y-19760D01*
X17607Y-20018D01*
X17804Y-20215D01*
X17989Y-20292D01*
X16322Y-20292D01*
X16295Y-20226D01*
X16098Y-20028D01*
X15841Y-19922D01*
X15562Y-19921D01*
X15305Y-20028D01*
X15286Y-20047D01*
X15286Y-18506D01*
X15197Y-18291D01*
X15033Y-18126D01*
X14818Y-18037D01*
X14585Y-18036D01*
X14370Y-18125D01*
X14205Y-18290D01*
X14116Y-18505D01*
X14116Y-18737D01*
X14205Y-18952D01*
X14369Y-19117D01*
X14584Y-19206D01*
X14817Y-19207D01*
X15032Y-19118D01*
X15197Y-18953D01*
X15286Y-18738D01*
X15286Y-18506D01*
X15286Y-20047D01*
X15108Y-20225D01*
X15080Y-20292D01*
X8112Y-20292D01*
X8297Y-20215D01*
X8494Y-20019D01*
X8601Y-19761D01*
X8601Y-19483D01*
X8495Y-19226D01*
X8476Y-19207D01*
X8517Y-19207D01*
X8732Y-19118D01*
X8897Y-18953D01*
X8986Y-18738D01*
X8986Y-18506D01*
X8897Y-18291D01*
X8733Y-18126D01*
X8518Y-18037D01*
X8285Y-18036D01*
X8070Y-18125D01*
X7905Y-18290D01*
X7816Y-18505D01*
X7816Y-18737D01*
X7892Y-18922D01*
X7762Y-18921D01*
X7505Y-19028D01*
X7436Y-19096D01*
X7436Y-18417D01*
X7279Y-18036D01*
X6988Y-17745D01*
X6608Y-17587D01*
X6196Y-17586D01*
X5815Y-17744D01*
X5524Y-18035D01*
X5366Y-18415D01*
X5366Y-18827D01*
X5523Y-19207D01*
X5814Y-19498D01*
X6194Y-19656D01*
X6606Y-19657D01*
X6986Y-19499D01*
X7278Y-19209D01*
X7436Y-18828D01*
X7436Y-18417D01*
X7436Y-19096D01*
X7308Y-19225D01*
X7201Y-19482D01*
X7201Y-19760D01*
X7307Y-20018D01*
X7504Y-20215D01*
X7689Y-20292D01*
X6022Y-20292D01*
X5995Y-20226D01*
X5798Y-20028D01*
X5541Y-19922D01*
X5262Y-19921D01*
X5005Y-20028D01*
X4986Y-20047D01*
X4986Y-18506D01*
X4897Y-18291D01*
X4733Y-18126D01*
X4518Y-18037D01*
X4285Y-18036D01*
X4070Y-18125D01*
X3905Y-18290D01*
X3816Y-18505D01*
X3816Y-18737D01*
X3905Y-18952D01*
X4069Y-19117D01*
X4284Y-19206D01*
X4517Y-19207D01*
X4732Y-19118D01*
X4897Y-18953D01*
X4986Y-18738D01*
X4986Y-18506D01*
X4986Y-20047D01*
X4808Y-20225D01*
X4701Y-20482D01*
X4701Y-20760D01*
X4807Y-21018D01*
X5004Y-21215D01*
X5261Y-21321D01*
X5540Y-21322D01*
X5797Y-21215D01*
X5994Y-21019D01*
X6022Y-20952D01*
X15080Y-20952D01*
X15107Y-21018D01*
X15304Y-21215D01*
X15561Y-21321D01*
X15840Y-21322D01*
X16097Y-21215D01*
X16294Y-21019D01*
X16322Y-20952D01*
X22580Y-20952D01*
X22607Y-21018D01*
X22804Y-21215D01*
X23061Y-21321D01*
X23340Y-21322D01*
X23597Y-21215D01*
X23794Y-21019D01*
X23822Y-20952D01*
X30080Y-20952D01*
X30107Y-21018D01*
X30183Y-21094D01*
X24278Y-21094D01*
X24152Y-21119D01*
X24045Y-21190D01*
X23013Y-22222D01*
X22945Y-22222D01*
X22780Y-22290D01*
X22731Y-22339D01*
X5885Y-22339D01*
X3266Y-19720D01*
X3266Y-19510D01*
X3180Y-19302D01*
X3021Y-19143D01*
X2814Y-19057D01*
X2589Y-19056D01*
X2381Y-19142D01*
X2222Y-19301D01*
X2136Y-19509D01*
X2136Y-19733D01*
X2222Y-19941D01*
X2380Y-20100D01*
X2588Y-20186D01*
X2799Y-20187D01*
X5515Y-22902D01*
X5622Y-22974D01*
X5622Y-22974D01*
X5748Y-22999D01*
X8814Y-22999D01*
X8734Y-23052D01*
X8734Y-23052D01*
X8661Y-23052D01*
X8496Y-23120D01*
X8371Y-23245D01*
X8302Y-23410D01*
X8302Y-23587D01*
X8370Y-23752D01*
X8496Y-23878D01*
X8660Y-23946D01*
X8838Y-23946D01*
X9002Y-23878D01*
X9128Y-23752D01*
X9180Y-23625D01*
X11885Y-23625D01*
X11876Y-23647D01*
X11876Y-23746D01*
X11876Y-24377D01*
X6308Y-24377D01*
X5819Y-23888D01*
X5712Y-23817D01*
X5614Y-23797D01*
X5493Y-23616D01*
X5290Y-23481D01*
X5051Y-23433D01*
X4812Y-23481D01*
X4652Y-23588D01*
X4638Y-23555D01*
X4568Y-23485D01*
X4476Y-23447D01*
X4376Y-23447D01*
X3626Y-23447D01*
X3534Y-23484D01*
X3464Y-23555D01*
X3426Y-23647D01*
X3426Y-23746D01*
X3426Y-24596D01*
X3464Y-24688D01*
X3534Y-24758D01*
X3626Y-24797D01*
X3725Y-24797D01*
X4475Y-24797D01*
X4567Y-24759D01*
X4638Y-24688D01*
X4651Y-24655D01*
X4812Y-24762D01*
X5051Y-24810D01*
X5290Y-24762D01*
X5493Y-24627D01*
X5546Y-24548D01*
X5938Y-24940D01*
X6045Y-25012D01*
X6045Y-25012D01*
X6171Y-25037D01*
X13501Y-25037D01*
X13627Y-25012D01*
X13734Y-24940D01*
X13806Y-24833D01*
X13831Y-24707D01*
X13831Y-24702D01*
X13943Y-24627D01*
X14064Y-24446D01*
X14162Y-24426D01*
X14162Y-24426D01*
X14269Y-24355D01*
X14758Y-23866D01*
X19376Y-23866D01*
X19376Y-24517D01*
X19333Y-24474D01*
X19169Y-24406D01*
X18992Y-24406D01*
X18827Y-24474D01*
X18701Y-24599D01*
X18633Y-24764D01*
X18633Y-24800D01*
X16946Y-26487D01*
X16874Y-26594D01*
X16849Y-26720D01*
X16849Y-26813D01*
X16801Y-26862D01*
X16732Y-27026D01*
X16732Y-27204D01*
X16800Y-27368D01*
X16926Y-27494D01*
X17090Y-27562D01*
X17268Y-27562D01*
X17432Y-27494D01*
X17558Y-27369D01*
X17626Y-27205D01*
X17626Y-27027D01*
X17558Y-26863D01*
X17531Y-26835D01*
X17978Y-26388D01*
X18005Y-26452D01*
X18169Y-26617D01*
X18384Y-26706D01*
X18617Y-26707D01*
X18832Y-26618D01*
X18997Y-26453D01*
X19086Y-26238D01*
X19086Y-26006D01*
X18997Y-25791D01*
X18833Y-25626D01*
X18767Y-25599D01*
X19067Y-25300D01*
X19169Y-25300D01*
X19333Y-25232D01*
X19382Y-25183D01*
X20063Y-25183D01*
X19916Y-25244D01*
X19624Y-25535D01*
X19466Y-25915D01*
X19466Y-26327D01*
X19623Y-26707D01*
X19914Y-26998D01*
X20294Y-27156D01*
X20706Y-27157D01*
X21087Y-26999D01*
X21378Y-26709D01*
X21536Y-26328D01*
X21536Y-25917D01*
X21379Y-25536D01*
X21088Y-25245D01*
X20939Y-25183D01*
X22347Y-25183D01*
X22759Y-25595D01*
X22618Y-25537D01*
X22385Y-25536D01*
X22170Y-25625D01*
X22005Y-25790D01*
X21916Y-26005D01*
X21916Y-26237D01*
X21992Y-26422D01*
X21862Y-26421D01*
X21605Y-26528D01*
X21408Y-26725D01*
X21301Y-26982D01*
X21301Y-27260D01*
X21407Y-27518D01*
X21604Y-27715D01*
X21639Y-27729D01*
X20096Y-27729D01*
X20095Y-27726D01*
X19898Y-27528D01*
X19641Y-27422D01*
X19362Y-27421D01*
X19105Y-27528D01*
X18908Y-27725D01*
X18880Y-27792D01*
X14712Y-27792D01*
X14897Y-27715D01*
X15094Y-27519D01*
X15201Y-27261D01*
X15201Y-26983D01*
X15095Y-26726D01*
X15076Y-26707D01*
X15117Y-26707D01*
X15332Y-26618D01*
X15497Y-26453D01*
X15586Y-26238D01*
X15586Y-26006D01*
X15497Y-25791D01*
X15333Y-25626D01*
X15118Y-25537D01*
X14885Y-25536D01*
X14670Y-25625D01*
X14505Y-25790D01*
X14416Y-26005D01*
X14416Y-26237D01*
X14492Y-26422D01*
X14362Y-26421D01*
X14105Y-26528D01*
X14036Y-26596D01*
X14036Y-25917D01*
X13879Y-25536D01*
X13588Y-25245D01*
X13208Y-25087D01*
X12796Y-25086D01*
X12415Y-25244D01*
X12124Y-25535D01*
X11966Y-25915D01*
X11966Y-26327D01*
X12123Y-26707D01*
X12414Y-26998D01*
X12794Y-27156D01*
X13206Y-27157D01*
X13586Y-26999D01*
X13878Y-26709D01*
X14036Y-26328D01*
X14036Y-25917D01*
X14036Y-26596D01*
X13908Y-26725D01*
X13801Y-26982D01*
X13801Y-27260D01*
X13907Y-27518D01*
X14104Y-27715D01*
X14289Y-27792D01*
X12622Y-27792D01*
X12595Y-27726D01*
X12398Y-27528D01*
X12141Y-27422D01*
X11862Y-27421D01*
X11605Y-27528D01*
X11586Y-27547D01*
X11586Y-26006D01*
X11497Y-25791D01*
X11333Y-25626D01*
X11118Y-25537D01*
X10885Y-25536D01*
X10670Y-25625D01*
X10505Y-25790D01*
X10416Y-26005D01*
X10416Y-26237D01*
X10505Y-26452D01*
X10669Y-26617D01*
X10884Y-26706D01*
X11117Y-26707D01*
X11332Y-26618D01*
X11497Y-26453D01*
X11586Y-26238D01*
X11586Y-26006D01*
X11586Y-27547D01*
X11408Y-27725D01*
X11380Y-27792D01*
X6262Y-27792D01*
X6447Y-27715D01*
X6644Y-27519D01*
X6751Y-27261D01*
X6751Y-26983D01*
X6645Y-26726D01*
X6626Y-26707D01*
X6667Y-26707D01*
X6882Y-26618D01*
X7047Y-26453D01*
X7136Y-26238D01*
X7136Y-26006D01*
X7047Y-25791D01*
X6883Y-25626D01*
X6668Y-25537D01*
X6435Y-25536D01*
X6220Y-25625D01*
X6055Y-25790D01*
X5966Y-26005D01*
X5966Y-26237D01*
X6042Y-26422D01*
X5912Y-26421D01*
X5655Y-26528D01*
X5586Y-26596D01*
X5586Y-25917D01*
X5429Y-25536D01*
X5138Y-25245D01*
X4758Y-25087D01*
X4346Y-25086D01*
X3965Y-25244D01*
X3674Y-25535D01*
X3516Y-25915D01*
X3516Y-26327D01*
X3673Y-26707D01*
X3964Y-26998D01*
X4344Y-27156D01*
X4756Y-27157D01*
X5136Y-26999D01*
X5428Y-26709D01*
X5586Y-26328D01*
X5586Y-25917D01*
X5586Y-26596D01*
X5458Y-26725D01*
X5351Y-26982D01*
X5351Y-27260D01*
X5457Y-27518D01*
X5654Y-27715D01*
X5839Y-27792D01*
X4172Y-27792D01*
X4145Y-27726D01*
X3948Y-27528D01*
X3691Y-27422D01*
X3412Y-27421D01*
X3155Y-27528D01*
X3136Y-27547D01*
X3136Y-26006D01*
X3047Y-25791D01*
X2883Y-25626D01*
X2668Y-25537D01*
X2435Y-25536D01*
X2220Y-25625D01*
X2055Y-25790D01*
X1966Y-26005D01*
X1966Y-26237D01*
X2055Y-26452D01*
X2219Y-26617D01*
X2434Y-26706D01*
X2667Y-26707D01*
X2882Y-26618D01*
X3047Y-26453D01*
X3136Y-26238D01*
X3136Y-26006D01*
X3136Y-27547D01*
X2958Y-27725D01*
X2851Y-27982D01*
X2851Y-28260D01*
X2957Y-28518D01*
X3154Y-28715D01*
X3411Y-28821D01*
X3690Y-28822D01*
X3947Y-28715D01*
X4144Y-28519D01*
X4172Y-28452D01*
X11380Y-28452D01*
X11407Y-28518D01*
X11604Y-28715D01*
X11861Y-28821D01*
X12140Y-28822D01*
X12397Y-28715D01*
X12594Y-28519D01*
X12622Y-28452D01*
X18880Y-28452D01*
X18907Y-28518D01*
X19104Y-28715D01*
X19361Y-28821D01*
X19640Y-28822D01*
X19897Y-28715D01*
X20094Y-28519D01*
X20148Y-28389D01*
X27160Y-28389D01*
X27051Y-28652D01*
X27051Y-28990D01*
X27180Y-29302D01*
X27419Y-29542D01*
X27444Y-29552D01*
X795Y-29552D01*
X803Y-29529D01*
X790Y-29351D01*
X747Y-29246D01*
X662Y-29231D01*
X422Y-29472D01*
X427Y-29477D01*
X356Y-29548D01*
X351Y-29542D01*
X345Y-29548D01*
X275Y-29477D01*
X280Y-29472D01*
X275Y-29466D01*
X345Y-29395D01*
X351Y-29401D01*
X591Y-29160D01*
X577Y-29076D01*
X408Y-29020D01*
X270Y-29029D01*
X270Y-23478D01*
X1601Y-23478D01*
X2074Y-23385D01*
X2474Y-23117D01*
X2742Y-22716D01*
X2836Y-22244D01*
X2742Y-21772D01*
X2474Y-21371D01*
X2074Y-21103D01*
X1601Y-21009D01*
X270Y-21009D01*
X270Y-766D01*
X294Y-774D01*
X471Y-761D01*
X577Y-717D01*
X591Y-633D01*
X351Y-392D01*
X345Y-398D01*
X275Y-327D01*
X280Y-322D01*
X275Y-316D01*
X345Y-245D01*
X351Y-251D01*
X356Y-245D01*
X427Y-316D01*
X422Y-322D01*
X662Y-562D01*
X747Y-547D01*
X803Y-379D01*
X793Y-241D01*
X29650Y-241D01*
X29619Y-272D01*
X29665Y-318D01*
X29580Y-333D01*
X29524Y-501D01*
X29536Y-679D01*
X29545Y-700D01*
X26193Y-700D01*
X26066Y-725D01*
X25959Y-797D01*
X25809Y-947D01*
X25177Y-947D01*
X25085Y-984D01*
X25014Y-1055D01*
X24976Y-1147D01*
X24976Y-1246D01*
X24976Y-1877D01*
X22507Y-1877D01*
X22566Y-1734D01*
X22566Y-1510D01*
X22480Y-1302D01*
X22322Y-1143D01*
X22114Y-1057D01*
X21889Y-1056D01*
X21681Y-1142D01*
X21532Y-1292D01*
X19660Y-1292D01*
X19543Y-1116D01*
X19340Y-981D01*
X19101Y-933D01*
X18862Y-981D01*
X18702Y-1088D01*
X18688Y-1055D01*
X18618Y-985D01*
X18526Y-947D01*
X18427Y-947D01*
X17677Y-947D01*
X17585Y-984D01*
X17514Y-1055D01*
X17502Y-1083D01*
X17187Y-768D01*
X17074Y-692D01*
X16940Y-666D01*
X3706Y-666D01*
X3572Y-692D01*
X3459Y-768D01*
X3459Y-768D01*
X3459Y-768D01*
X3281Y-946D01*
X2676Y-946D01*
X2584Y-984D01*
X2514Y-1054D01*
X2476Y-1146D01*
X2476Y-1246D01*
X2476Y-2096D01*
X2514Y-2188D01*
X2584Y-2258D01*
X2676Y-2296D01*
X2775Y-2296D01*
X3102Y-2296D01*
X2100Y-3298D01*
X2097Y-3291D01*
X1933Y-3126D01*
X1718Y-3037D01*
X1485Y-3036D01*
X1270Y-3125D01*
X1105Y-3290D01*
X1016Y-3505D01*
X1016Y-3737D01*
X1105Y-3952D01*
X1269Y-4117D01*
X1484Y-4206D01*
X1717Y-4207D01*
X1906Y-4128D01*
X1143Y-4892D01*
X1071Y-4999D01*
X1046Y-5126D01*
X1046Y-10040D01*
X897Y-10188D01*
X811Y-10396D01*
X811Y-10620D01*
X897Y-10828D01*
X1055Y-10987D01*
X1263Y-11073D01*
X1488Y-11074D01*
X1695Y-10988D01*
X1855Y-10829D01*
X1941Y-10621D01*
X1941Y-10397D01*
X1855Y-10189D01*
X1706Y-10039D01*
X1706Y-5262D01*
X2516Y-4452D01*
X2588Y-4345D01*
X2588Y-4345D01*
X2613Y-4219D01*
X2613Y-3940D01*
X2723Y-4207D01*
X3014Y-4498D01*
X3394Y-4656D01*
X3806Y-4657D01*
X4186Y-4499D01*
X4478Y-4209D01*
X4636Y-3828D01*
X4636Y-3417D01*
X4479Y-3036D01*
X4188Y-2745D01*
X3808Y-2587D01*
X3745Y-2587D01*
X3795Y-2536D01*
X4101Y-2536D01*
X4227Y-2511D01*
X4334Y-2440D01*
X4406Y-2332D01*
X4431Y-2206D01*
X4431Y-2201D01*
X4543Y-2126D01*
X4678Y-1923D01*
X4726Y-1684D01*
X4726Y-1558D01*
X4688Y-1366D01*
X5902Y-1366D01*
X5872Y-1438D01*
X5871Y-1608D01*
X5936Y-1765D01*
X6056Y-1885D01*
X6213Y-1950D01*
X6383Y-1950D01*
X6540Y-1885D01*
X6661Y-1765D01*
X6726Y-1608D01*
X6726Y-1439D01*
X6696Y-1366D01*
X7634Y-1366D01*
X7604Y-1438D01*
X7604Y-1608D01*
X7669Y-1765D01*
X7789Y-1885D01*
X7946Y-1950D01*
X8116Y-1950D01*
X8273Y-1885D01*
X8393Y-1765D01*
X8458Y-1608D01*
X8458Y-1439D01*
X8428Y-1366D01*
X9976Y-1366D01*
X9976Y-2096D01*
X10014Y-2188D01*
X10084Y-2258D01*
X10176Y-2296D01*
X10275Y-2296D01*
X10809Y-2296D01*
X11100Y-2587D01*
X10896Y-2586D01*
X10515Y-2744D01*
X10224Y-3035D01*
X10066Y-3415D01*
X10066Y-3827D01*
X10223Y-4207D01*
X10514Y-4498D01*
X10894Y-4656D01*
X11306Y-4657D01*
X11686Y-4499D01*
X11978Y-4209D01*
X12136Y-3828D01*
X12136Y-3417D01*
X11979Y-3036D01*
X11726Y-2783D01*
X17976Y-2783D01*
X17724Y-3035D01*
X17566Y-3415D01*
X17566Y-3827D01*
X17723Y-4207D01*
X18014Y-4498D01*
X18394Y-4656D01*
X18806Y-4657D01*
X19187Y-4499D01*
X19478Y-4209D01*
X19636Y-3828D01*
X19636Y-3417D01*
X19479Y-3036D01*
X19226Y-2783D01*
X25476Y-2783D01*
X25224Y-3035D01*
X25066Y-3415D01*
X25066Y-3827D01*
X25223Y-4207D01*
X25514Y-4498D01*
X25894Y-4656D01*
X26306Y-4657D01*
X26687Y-4499D01*
X26978Y-4209D01*
X27136Y-3828D01*
X27136Y-3417D01*
X26979Y-3036D01*
X26726Y-2783D01*
X29256Y-2783D01*
X29383Y-2757D01*
X29383Y-2757D01*
X29490Y-2686D01*
X30816Y-1360D01*
X32476Y-1360D01*
X32476Y-2096D01*
X32514Y-2188D01*
X32584Y-2258D01*
X32676Y-2297D01*
X32776Y-2297D01*
X33309Y-2297D01*
X33454Y-2441D01*
X33561Y-2513D01*
X33561Y-2513D01*
X33687Y-2538D01*
X36620Y-2538D01*
X36746Y-2513D01*
X36746Y-2513D01*
X36772Y-2496D01*
X36771Y-2678D01*
X36777Y-2691D01*
X36210Y-3258D01*
X36138Y-3365D01*
X36135Y-3382D01*
X36097Y-3291D01*
X35933Y-3126D01*
X35718Y-3037D01*
X35485Y-3036D01*
X35270Y-3125D01*
X35105Y-3290D01*
X35016Y-3505D01*
X35016Y-3737D01*
X35092Y-3922D01*
X34962Y-3921D01*
X34705Y-4028D01*
X34636Y-4096D01*
X34636Y-3417D01*
X34479Y-3036D01*
X34188Y-2745D01*
X33808Y-2587D01*
X33396Y-2586D01*
X33016Y-2744D01*
X32724Y-3035D01*
X32566Y-3415D01*
X32566Y-3827D01*
X32723Y-4207D01*
X33014Y-4498D01*
X33394Y-4656D01*
X33806Y-4657D01*
X34187Y-4499D01*
X34478Y-4209D01*
X34636Y-3828D01*
X34636Y-3417D01*
X34636Y-4096D01*
X34508Y-4225D01*
X34401Y-4482D01*
X34401Y-4760D01*
X34507Y-5018D01*
X34704Y-5215D01*
X34852Y-5276D01*
X34690Y-5438D01*
X34582Y-5438D01*
X34534Y-5390D01*
X34369Y-5322D01*
X34192Y-5321D01*
X34027Y-5389D01*
X33902Y-5515D01*
X33833Y-5679D01*
X33833Y-5795D01*
X33287Y-5795D01*
X33301Y-5761D01*
X33301Y-5483D01*
X33195Y-5226D01*
X32998Y-5028D01*
X32741Y-4922D01*
X32462Y-4921D01*
X32205Y-5028D01*
X32186Y-5047D01*
X32186Y-3506D01*
X32097Y-3291D01*
X31933Y-3126D01*
X31718Y-3037D01*
X31485Y-3036D01*
X31270Y-3125D01*
X31105Y-3290D01*
X31016Y-3505D01*
X31016Y-3737D01*
X31105Y-3952D01*
X31269Y-4117D01*
X31484Y-4206D01*
X31717Y-4207D01*
X31932Y-4118D01*
X32097Y-3953D01*
X32186Y-3738D01*
X32186Y-3506D01*
X32186Y-5047D01*
X32008Y-5225D01*
X31980Y-5292D01*
X27813Y-5292D01*
X27997Y-5215D01*
X28194Y-5019D01*
X28301Y-4761D01*
X28301Y-4483D01*
X28195Y-4226D01*
X28176Y-4207D01*
X28217Y-4207D01*
X28432Y-4118D01*
X28597Y-3953D01*
X28686Y-3738D01*
X28686Y-3506D01*
X28597Y-3291D01*
X28433Y-3126D01*
X28218Y-3037D01*
X27985Y-3036D01*
X27770Y-3125D01*
X27605Y-3290D01*
X27516Y-3505D01*
X27516Y-3737D01*
X27592Y-3922D01*
X27462Y-3921D01*
X27205Y-4028D01*
X27008Y-4225D01*
X26901Y-4482D01*
X26901Y-4760D01*
X27007Y-5018D01*
X27204Y-5215D01*
X27389Y-5292D01*
X25722Y-5292D01*
X25695Y-5226D01*
X25498Y-5028D01*
X25241Y-4922D01*
X24962Y-4921D01*
X24705Y-5028D01*
X24686Y-5047D01*
X24686Y-3506D01*
X24597Y-3291D01*
X24433Y-3126D01*
X24218Y-3037D01*
X23985Y-3036D01*
X23770Y-3125D01*
X23605Y-3290D01*
X23516Y-3505D01*
X23516Y-3737D01*
X23605Y-3952D01*
X23769Y-4117D01*
X23984Y-4206D01*
X24217Y-4207D01*
X24432Y-4118D01*
X24597Y-3953D01*
X24686Y-3738D01*
X24686Y-3506D01*
X24686Y-5047D01*
X24508Y-5225D01*
X24480Y-5292D01*
X22566Y-5292D01*
X22566Y-4510D01*
X22480Y-4302D01*
X22322Y-4143D01*
X22114Y-4057D01*
X21889Y-4056D01*
X21681Y-4142D01*
X21522Y-4301D01*
X21436Y-4509D01*
X21436Y-4733D01*
X21522Y-4941D01*
X21681Y-5100D01*
X21888Y-5186D01*
X22113Y-5187D01*
X22321Y-5101D01*
X22480Y-4942D01*
X22566Y-4734D01*
X22566Y-4510D01*
X22566Y-5292D01*
X20313Y-5292D01*
X20497Y-5215D01*
X20694Y-5019D01*
X20801Y-4761D01*
X20801Y-4483D01*
X20695Y-4226D01*
X20676Y-4207D01*
X20717Y-4207D01*
X20932Y-4118D01*
X21097Y-3953D01*
X21186Y-3738D01*
X21186Y-3506D01*
X21097Y-3291D01*
X20933Y-3126D01*
X20718Y-3037D01*
X20485Y-3036D01*
X20270Y-3125D01*
X20105Y-3290D01*
X20016Y-3505D01*
X20016Y-3737D01*
X20092Y-3922D01*
X19962Y-3921D01*
X19705Y-4028D01*
X19508Y-4225D01*
X19401Y-4482D01*
X19401Y-4760D01*
X19507Y-5018D01*
X19704Y-5215D01*
X19889Y-5292D01*
X18222Y-5292D01*
X18195Y-5226D01*
X17998Y-5028D01*
X17741Y-4922D01*
X17462Y-4921D01*
X17205Y-5028D01*
X17186Y-5047D01*
X17186Y-3506D01*
X17097Y-3291D01*
X16933Y-3126D01*
X16718Y-3037D01*
X16485Y-3036D01*
X16270Y-3125D01*
X16105Y-3290D01*
X16016Y-3505D01*
X16016Y-3737D01*
X16105Y-3952D01*
X16269Y-4117D01*
X16484Y-4206D01*
X16717Y-4207D01*
X16932Y-4118D01*
X17097Y-3953D01*
X17186Y-3738D01*
X17186Y-3506D01*
X17186Y-5047D01*
X17008Y-5225D01*
X16980Y-5292D01*
X12812Y-5292D01*
X12997Y-5215D01*
X13194Y-5019D01*
X13301Y-4761D01*
X13301Y-4483D01*
X13195Y-4226D01*
X13176Y-4207D01*
X13217Y-4207D01*
X13432Y-4118D01*
X13597Y-3953D01*
X13686Y-3738D01*
X13686Y-3506D01*
X13597Y-3291D01*
X13433Y-3126D01*
X13218Y-3037D01*
X12985Y-3036D01*
X12770Y-3125D01*
X12605Y-3290D01*
X12516Y-3505D01*
X12516Y-3737D01*
X12592Y-3922D01*
X12462Y-3921D01*
X12205Y-4028D01*
X12008Y-4225D01*
X11901Y-4482D01*
X11901Y-4760D01*
X12007Y-5018D01*
X12204Y-5215D01*
X12389Y-5292D01*
X10722Y-5292D01*
X10695Y-5226D01*
X10498Y-5028D01*
X10241Y-4922D01*
X9962Y-4921D01*
X9705Y-5028D01*
X9686Y-5047D01*
X9686Y-3506D01*
X9597Y-3291D01*
X9433Y-3126D01*
X9218Y-3037D01*
X8985Y-3036D01*
X8770Y-3125D01*
X8605Y-3290D01*
X8516Y-3505D01*
X8516Y-3737D01*
X8605Y-3952D01*
X8769Y-4117D01*
X8984Y-4206D01*
X9217Y-4207D01*
X9432Y-4118D01*
X9597Y-3953D01*
X9686Y-3738D01*
X9686Y-3506D01*
X9686Y-5047D01*
X9508Y-5225D01*
X9401Y-5482D01*
X9401Y-5704D01*
X4463Y-5704D01*
X4463Y-5697D01*
X4874Y-5285D01*
X4961Y-5321D01*
X5240Y-5322D01*
X5497Y-5215D01*
X5694Y-5019D01*
X5801Y-4761D01*
X5801Y-4483D01*
X5695Y-4226D01*
X5676Y-4207D01*
X5717Y-4207D01*
X5932Y-4118D01*
X6097Y-3953D01*
X6186Y-3738D01*
X6186Y-3506D01*
X6097Y-3291D01*
X5933Y-3126D01*
X5718Y-3037D01*
X5485Y-3036D01*
X5270Y-3125D01*
X5105Y-3290D01*
X5016Y-3505D01*
X5016Y-3737D01*
X5092Y-3922D01*
X4962Y-3921D01*
X4705Y-4028D01*
X4508Y-4225D01*
X4401Y-4482D01*
X4401Y-4760D01*
X4420Y-4806D01*
X3996Y-5230D01*
X3928Y-5230D01*
X3763Y-5298D01*
X3638Y-5423D01*
X3569Y-5588D01*
X3569Y-5704D01*
X3301Y-5704D01*
X3301Y-5483D01*
X3195Y-5226D01*
X2998Y-5028D01*
X2741Y-4922D01*
X2462Y-4921D01*
X2205Y-5028D01*
X2008Y-5225D01*
X1901Y-5482D01*
X1901Y-5760D01*
X2007Y-6018D01*
X2204Y-6215D01*
X2461Y-6321D01*
X2740Y-6322D01*
X2815Y-6291D01*
X2887Y-6339D01*
X2887Y-6339D01*
X3013Y-6364D01*
X9689Y-6364D01*
X9815Y-6339D01*
X9815Y-6339D01*
X9887Y-6291D01*
X9961Y-6321D01*
X10240Y-6322D01*
X10497Y-6215D01*
X10694Y-6019D01*
X10722Y-5952D01*
X16980Y-5952D01*
X17007Y-6018D01*
X17083Y-6094D01*
X16479Y-6093D01*
X15880Y-6341D01*
X15422Y-6798D01*
X15173Y-7396D01*
X15173Y-8044D01*
X15232Y-8187D01*
X4656Y-8187D01*
X4530Y-8212D01*
X4423Y-8283D01*
X4259Y-8447D01*
X3626Y-8447D01*
X3534Y-8484D01*
X3464Y-8555D01*
X3426Y-8647D01*
X3426Y-8746D01*
X3426Y-9596D01*
X3464Y-9688D01*
X3534Y-9758D01*
X3626Y-9797D01*
X3725Y-9797D01*
X4033Y-9797D01*
X3043Y-10787D01*
X2883Y-10626D01*
X2668Y-10537D01*
X2435Y-10536D01*
X2220Y-10625D01*
X2055Y-10790D01*
X1966Y-11005D01*
X1966Y-11237D01*
X2055Y-11452D01*
X2219Y-11617D01*
X2273Y-11640D01*
X1443Y-12470D01*
X1397Y-12470D01*
X1271Y-12495D01*
X1164Y-12566D01*
X1164Y-12566D01*
X657Y-13073D01*
X585Y-13180D01*
X560Y-13307D01*
X560Y-13726D01*
X585Y-13853D01*
X657Y-13960D01*
X2754Y-16057D01*
X2589Y-16056D01*
X2381Y-16142D01*
X2222Y-16301D01*
X2136Y-16509D01*
X2136Y-16733D01*
X2222Y-16941D01*
X2380Y-17100D01*
X2588Y-17186D01*
X2813Y-17187D01*
X3020Y-17101D01*
X3180Y-16942D01*
X3266Y-16734D01*
X3266Y-16510D01*
X3207Y-16366D01*
X5276Y-16366D01*
X5276Y-17096D01*
X5314Y-17188D01*
X5384Y-17258D01*
X5476Y-17297D01*
X5575Y-17297D01*
X6325Y-17297D01*
X6417Y-17259D01*
X6488Y-17188D01*
X6501Y-17155D01*
X6662Y-17262D01*
X6901Y-17310D01*
X7140Y-17262D01*
X7343Y-17127D01*
X7478Y-16924D01*
X7526Y-16685D01*
X7526Y-16558D01*
X7488Y-16366D01*
X15576Y-16366D01*
X15576Y-17096D01*
X15614Y-17188D01*
X15684Y-17258D01*
X15776Y-17297D01*
X15876Y-17297D01*
X16626Y-17297D01*
X16718Y-17259D01*
X16788Y-17188D01*
X16802Y-17155D01*
X16962Y-17262D01*
X17201Y-17310D01*
X17440Y-17262D01*
X17643Y-17127D01*
X17778Y-16924D01*
X17826Y-16685D01*
X17826Y-16558D01*
X17788Y-16366D01*
X23076Y-16366D01*
X23076Y-17096D01*
X23114Y-17188D01*
X23184Y-17258D01*
X23276Y-17297D01*
X23376Y-17297D01*
X24126Y-17297D01*
X24218Y-17259D01*
X24288Y-17188D01*
X24302Y-17155D01*
X24462Y-17262D01*
X24701Y-17310D01*
X24940Y-17262D01*
X25143Y-17127D01*
X25196Y-17048D01*
X25675Y-17527D01*
X25675Y-17527D01*
X25782Y-17599D01*
X25782Y-17599D01*
X25908Y-17624D01*
X25908Y-17624D01*
X31406Y-17624D01*
X31116Y-17744D01*
X30824Y-18035D01*
X30666Y-18415D01*
X30666Y-18827D01*
X30823Y-19207D01*
X31114Y-19498D01*
X31494Y-19656D01*
X31906Y-19657D01*
X32287Y-19499D01*
X32578Y-19209D01*
X32736Y-18828D01*
X32736Y-18417D01*
X32579Y-18036D01*
X32288Y-17745D01*
X31908Y-17587D01*
X31805Y-17587D01*
X31894Y-17527D01*
X32084Y-17337D01*
X32201Y-17360D01*
X32440Y-17312D01*
X32643Y-17177D01*
X32696Y-17098D01*
X33038Y-17440D01*
X33145Y-17512D01*
X33145Y-17512D01*
X33271Y-17537D01*
X39701Y-17537D01*
X39769Y-17523D01*
X39769Y-17523D01*
X39838Y-17537D01*
X47201Y-17537D01*
X47327Y-17512D01*
X47434Y-17440D01*
X47506Y-17333D01*
X47531Y-17207D01*
X47531Y-17202D01*
X47643Y-17127D01*
X47764Y-16946D01*
X47862Y-16926D01*
X47862Y-16926D01*
X47970Y-16855D01*
X48458Y-16366D01*
X53076Y-16366D01*
X53076Y-17096D01*
X53114Y-17188D01*
X53184Y-17258D01*
X53276Y-17297D01*
X53376Y-17297D01*
X54126Y-17297D01*
X54218Y-17259D01*
X54288Y-17188D01*
X54302Y-17155D01*
X54462Y-17262D01*
X54701Y-17310D01*
X54940Y-17262D01*
X55143Y-17127D01*
X55278Y-16924D01*
X55326Y-16685D01*
X55326Y-16558D01*
X55278Y-16319D01*
X55143Y-16116D01*
X55031Y-16042D01*
X55031Y-16036D01*
X55006Y-15910D01*
X54934Y-15803D01*
X54827Y-15732D01*
X54701Y-15706D01*
X48321Y-15706D01*
X48195Y-15732D01*
X48088Y-15803D01*
X47696Y-16195D01*
X47643Y-16116D01*
X47440Y-15981D01*
X47201Y-15933D01*
X46962Y-15981D01*
X46802Y-16088D01*
X46788Y-16055D01*
X46718Y-15985D01*
X46626Y-15947D01*
X46527Y-15947D01*
X45777Y-15947D01*
X45685Y-15984D01*
X45614Y-16055D01*
X45576Y-16147D01*
X45576Y-16246D01*
X45576Y-16292D01*
X42669Y-16292D01*
X42621Y-16243D01*
X42456Y-16175D01*
X42279Y-16175D01*
X42114Y-16243D01*
X41988Y-16368D01*
X41920Y-16532D01*
X41920Y-16710D01*
X41988Y-16874D01*
X41990Y-16877D01*
X40288Y-16877D01*
X40326Y-16685D01*
X40326Y-16558D01*
X40278Y-16319D01*
X40143Y-16116D01*
X39940Y-15981D01*
X39701Y-15933D01*
X39462Y-15981D01*
X39302Y-16088D01*
X39288Y-16055D01*
X39218Y-15985D01*
X39126Y-15947D01*
X39027Y-15947D01*
X38277Y-15947D01*
X38185Y-15984D01*
X38114Y-16055D01*
X38076Y-16147D01*
X38076Y-16246D01*
X38076Y-16877D01*
X33408Y-16877D01*
X32970Y-16438D01*
X32862Y-16367D01*
X32764Y-16347D01*
X32643Y-16166D01*
X32440Y-16031D01*
X32201Y-15983D01*
X31962Y-16031D01*
X31802Y-16138D01*
X31788Y-16105D01*
X31718Y-16035D01*
X31626Y-15997D01*
X31527Y-15997D01*
X30777Y-15997D01*
X30685Y-16034D01*
X30614Y-16105D01*
X30576Y-16197D01*
X30576Y-16296D01*
X30576Y-16964D01*
X26527Y-16964D01*
X26527Y-16848D01*
X26460Y-16684D01*
X26334Y-16558D01*
X26170Y-16490D01*
X26100Y-16490D01*
X23164Y-13553D01*
X26443Y-13553D01*
X26604Y-13715D01*
X26861Y-13821D01*
X27140Y-13822D01*
X27397Y-13715D01*
X27594Y-13519D01*
X27622Y-13452D01*
X33880Y-13452D01*
X33907Y-13518D01*
X34104Y-13715D01*
X34361Y-13821D01*
X34640Y-13822D01*
X34897Y-13715D01*
X35094Y-13519D01*
X35122Y-13452D01*
X41380Y-13452D01*
X41407Y-13518D01*
X41604Y-13715D01*
X41861Y-13821D01*
X42140Y-13822D01*
X42397Y-13715D01*
X42594Y-13519D01*
X42622Y-13452D01*
X48880Y-13452D01*
X48907Y-13518D01*
X49104Y-13715D01*
X49361Y-13821D01*
X49640Y-13822D01*
X49897Y-13715D01*
X50094Y-13519D01*
X50122Y-13452D01*
X56380Y-13452D01*
X56407Y-13518D01*
X56604Y-13715D01*
X56861Y-13821D01*
X57140Y-13822D01*
X57397Y-13715D01*
X57594Y-13519D01*
X57622Y-13452D01*
X63880Y-13452D01*
X63907Y-13518D01*
X63977Y-13587D01*
X63977Y-13587D01*
G37*
G54D25*
X63977Y-13587D02*
X62825Y-13587D01*
X62691Y-13614D01*
X62578Y-13690D01*
X58938Y-17330D01*
X58862Y-17443D01*
X58836Y-17577D01*
X58836Y-19282D01*
X58862Y-19416D01*
X58938Y-19529D01*
X59013Y-19604D01*
X59013Y-22368D01*
X58946Y-22300D01*
X58782Y-22232D01*
X58604Y-22232D01*
X58440Y-22300D01*
X58391Y-22349D01*
X58274Y-22349D01*
X58278Y-22340D01*
X58278Y-22162D01*
X58210Y-21998D01*
X58084Y-21872D01*
X57920Y-21804D01*
X57851Y-21804D01*
X57045Y-20998D01*
X56938Y-20927D01*
X56812Y-20902D01*
X56786Y-20902D01*
X56786Y-18506D01*
X56697Y-18291D01*
X56533Y-18126D01*
X56318Y-18037D01*
X56085Y-18036D01*
X55870Y-18125D01*
X55705Y-18290D01*
X55616Y-18505D01*
X55616Y-18737D01*
X55692Y-18922D01*
X55562Y-18921D01*
X55305Y-19028D01*
X55236Y-19096D01*
X55236Y-18417D01*
X55079Y-18036D01*
X54788Y-17745D01*
X54408Y-17587D01*
X53996Y-17586D01*
X53616Y-17744D01*
X53324Y-18035D01*
X53166Y-18415D01*
X53166Y-18827D01*
X53323Y-19207D01*
X53614Y-19498D01*
X53994Y-19656D01*
X54406Y-19657D01*
X54787Y-19499D01*
X55078Y-19209D01*
X55236Y-18828D01*
X55236Y-18417D01*
X55236Y-19096D01*
X55108Y-19225D01*
X55001Y-19482D01*
X55001Y-19760D01*
X55107Y-20018D01*
X55304Y-20215D01*
X55561Y-20321D01*
X55840Y-20322D01*
X56097Y-20215D01*
X56294Y-20019D01*
X56401Y-19761D01*
X56401Y-19483D01*
X56295Y-19226D01*
X56276Y-19207D01*
X56317Y-19207D01*
X56532Y-19118D01*
X56697Y-18953D01*
X56786Y-18738D01*
X56786Y-18506D01*
X56786Y-20902D01*
X53843Y-20902D01*
X53901Y-20761D01*
X53901Y-20483D01*
X53795Y-20226D01*
X53598Y-20028D01*
X53341Y-19922D01*
X53062Y-19921D01*
X52805Y-20028D01*
X52608Y-20225D01*
X52580Y-20292D01*
X48413Y-20292D01*
X48597Y-20215D01*
X48794Y-20019D01*
X48901Y-19761D01*
X48901Y-19483D01*
X48795Y-19226D01*
X48776Y-19207D01*
X48817Y-19207D01*
X48974Y-19142D01*
X49091Y-19424D01*
X49549Y-19883D01*
X50147Y-20131D01*
X50794Y-20132D01*
X51393Y-19884D01*
X51851Y-19427D01*
X51964Y-19156D01*
X52084Y-19206D01*
X52317Y-19207D01*
X52532Y-19118D01*
X52697Y-18953D01*
X52786Y-18738D01*
X52786Y-18506D01*
X52697Y-18291D01*
X52533Y-18126D01*
X52318Y-18037D01*
X52085Y-18036D01*
X52047Y-18052D01*
X51853Y-17582D01*
X51395Y-17124D01*
X50797Y-16876D01*
X50150Y-16875D01*
X49551Y-17122D01*
X49093Y-17580D01*
X48890Y-18067D01*
X48818Y-18037D01*
X48585Y-18036D01*
X48370Y-18125D01*
X48205Y-18290D01*
X48116Y-18505D01*
X48116Y-18737D01*
X48192Y-18922D01*
X48062Y-18921D01*
X47805Y-19028D01*
X47736Y-19096D01*
X47736Y-18417D01*
X47579Y-18036D01*
X47288Y-17745D01*
X46908Y-17587D01*
X46496Y-17586D01*
X46116Y-17744D01*
X45824Y-18035D01*
X45666Y-18415D01*
X45666Y-18827D01*
X45823Y-19207D01*
X46114Y-19498D01*
X46494Y-19656D01*
X46906Y-19657D01*
X47287Y-19499D01*
X47578Y-19209D01*
X47736Y-18828D01*
X47736Y-18417D01*
X47736Y-19096D01*
X47608Y-19225D01*
X47501Y-19482D01*
X47501Y-19760D01*
X47607Y-20018D01*
X47804Y-20215D01*
X47989Y-20292D01*
X46322Y-20292D01*
X46295Y-20226D01*
X46098Y-20028D01*
X45841Y-19922D01*
X45562Y-19921D01*
X45305Y-20028D01*
X45286Y-20047D01*
X45286Y-18506D01*
X45197Y-18291D01*
X45033Y-18126D01*
X44818Y-18037D01*
X44585Y-18036D01*
X44370Y-18125D01*
X44205Y-18290D01*
X44116Y-18505D01*
X44116Y-18737D01*
X44205Y-18952D01*
X44369Y-19117D01*
X44584Y-19206D01*
X44817Y-19207D01*
X45032Y-19118D01*
X45197Y-18953D01*
X45286Y-18738D01*
X45286Y-18506D01*
X45286Y-20047D01*
X45108Y-20225D01*
X45080Y-20292D01*
X40913Y-20292D01*
X41097Y-20215D01*
X41294Y-20019D01*
X41401Y-19761D01*
X41401Y-19483D01*
X41295Y-19226D01*
X41276Y-19207D01*
X41317Y-19207D01*
X41532Y-19118D01*
X41697Y-18953D01*
X41786Y-18738D01*
X41786Y-18506D01*
X41697Y-18291D01*
X41533Y-18126D01*
X41318Y-18037D01*
X41085Y-18036D01*
X40870Y-18125D01*
X40705Y-18290D01*
X40616Y-18505D01*
X40616Y-18737D01*
X40692Y-18922D01*
X40562Y-18921D01*
X40305Y-19028D01*
X40236Y-19096D01*
X40236Y-18417D01*
X40079Y-18036D01*
X39788Y-17745D01*
X39408Y-17587D01*
X38996Y-17586D01*
X38616Y-17744D01*
X38324Y-18035D01*
X38166Y-18415D01*
X38166Y-18827D01*
X38323Y-19207D01*
X38614Y-19498D01*
X38994Y-19656D01*
X39406Y-19657D01*
X39787Y-19499D01*
X40078Y-19209D01*
X40236Y-18828D01*
X40236Y-18417D01*
X40236Y-19096D01*
X40108Y-19225D01*
X40001Y-19482D01*
X40001Y-19760D01*
X40107Y-20018D01*
X40304Y-20215D01*
X40489Y-20292D01*
X38822Y-20292D01*
X38795Y-20226D01*
X38598Y-20028D01*
X38341Y-19922D01*
X38062Y-19921D01*
X37805Y-20028D01*
X37786Y-20047D01*
X37786Y-18506D01*
X37697Y-18291D01*
X37533Y-18126D01*
X37318Y-18037D01*
X37085Y-18036D01*
X36870Y-18125D01*
X36705Y-18290D01*
X36616Y-18505D01*
X36616Y-18737D01*
X36705Y-18952D01*
X36869Y-19117D01*
X37084Y-19206D01*
X37317Y-19207D01*
X37532Y-19118D01*
X37697Y-18953D01*
X37786Y-18738D01*
X37786Y-18506D01*
X37786Y-20047D01*
X37775Y-20058D01*
X33755Y-20058D01*
X33794Y-20019D01*
X33901Y-19761D01*
X33901Y-19483D01*
X33795Y-19226D01*
X33776Y-19207D01*
X33817Y-19207D01*
X34032Y-19118D01*
X34197Y-18953D01*
X34286Y-18738D01*
X34286Y-18506D01*
X34197Y-18291D01*
X34033Y-18126D01*
X33818Y-18037D01*
X33585Y-18036D01*
X33370Y-18125D01*
X33205Y-18290D01*
X33116Y-18505D01*
X33116Y-18737D01*
X33192Y-18922D01*
X33062Y-18921D01*
X32805Y-19028D01*
X32608Y-19225D01*
X32501Y-19482D01*
X32501Y-19760D01*
X32607Y-20018D01*
X32647Y-20058D01*
X31127Y-20058D01*
X31098Y-20028D01*
X30841Y-19922D01*
X30562Y-19921D01*
X30305Y-20028D01*
X30286Y-20047D01*
X30286Y-18506D01*
X30197Y-18291D01*
X30033Y-18126D01*
X29818Y-18037D01*
X29585Y-18036D01*
X29370Y-18125D01*
X29205Y-18290D01*
X29116Y-18505D01*
X29116Y-18737D01*
X29205Y-18952D01*
X29369Y-19117D01*
X29584Y-19206D01*
X29817Y-19207D01*
X30032Y-19118D01*
X30197Y-18953D01*
X30286Y-18738D01*
X30286Y-18506D01*
X30286Y-20047D01*
X30108Y-20225D01*
X30080Y-20292D01*
X25913Y-20292D01*
X26097Y-20215D01*
X26294Y-20019D01*
X26401Y-19761D01*
X26401Y-19483D01*
X26295Y-19226D01*
X26276Y-19207D01*
X26317Y-19207D01*
X26532Y-19118D01*
X26697Y-18953D01*
X26786Y-18738D01*
X26786Y-18506D01*
X26697Y-18291D01*
X26533Y-18126D01*
X26318Y-18037D01*
X26085Y-18036D01*
X25870Y-18125D01*
X25705Y-18290D01*
X25616Y-18505D01*
X25616Y-18737D01*
X25692Y-18922D01*
X25562Y-18921D01*
X25305Y-19028D01*
X25236Y-19096D01*
X25236Y-18417D01*
X25079Y-18036D01*
X24788Y-17745D01*
X24408Y-17587D01*
X23996Y-17586D01*
X23616Y-17744D01*
X23324Y-18035D01*
X23166Y-18415D01*
X23166Y-18827D01*
X23323Y-19207D01*
X23614Y-19498D01*
X23994Y-19656D01*
X24406Y-19657D01*
X24787Y-19499D01*
X25078Y-19209D01*
X25236Y-18828D01*
X25236Y-18417D01*
X25236Y-19096D01*
X25108Y-19225D01*
X25001Y-19482D01*
X25001Y-19760D01*
X25107Y-20018D01*
X25304Y-20215D01*
X25489Y-20292D01*
X23822Y-20292D01*
X23795Y-20226D01*
X23598Y-20028D01*
X23341Y-19922D01*
X23062Y-19921D01*
X22805Y-20028D01*
X22786Y-20047D01*
X22786Y-18506D01*
X22697Y-18291D01*
X22533Y-18126D01*
X22318Y-18037D01*
X22085Y-18036D01*
X21870Y-18125D01*
X21705Y-18290D01*
X21616Y-18505D01*
X21616Y-18737D01*
X21705Y-18952D01*
X21869Y-19117D01*
X22084Y-19206D01*
X22317Y-19207D01*
X22532Y-19118D01*
X22697Y-18953D01*
X22786Y-18738D01*
X22786Y-18506D01*
X22786Y-20047D01*
X22608Y-20225D01*
X22580Y-20292D01*
X18413Y-20292D01*
X18597Y-20215D01*
X18794Y-20019D01*
X18901Y-19761D01*
X18901Y-19483D01*
X18795Y-19226D01*
X18776Y-19207D01*
X18817Y-19207D01*
X19032Y-19118D01*
X19197Y-18953D01*
X19286Y-18738D01*
X19286Y-18506D01*
X19197Y-18291D01*
X19033Y-18126D01*
X18818Y-18037D01*
X18585Y-18036D01*
X18370Y-18125D01*
X18205Y-18290D01*
X18116Y-18505D01*
X18116Y-18737D01*
X18192Y-18922D01*
X18062Y-18921D01*
X17805Y-19028D01*
X17736Y-19096D01*
X17736Y-18417D01*
X17579Y-18036D01*
X17288Y-17745D01*
X16908Y-17587D01*
X16496Y-17586D01*
X16116Y-17744D01*
X15824Y-18035D01*
X15666Y-18415D01*
X15666Y-18827D01*
X15823Y-19207D01*
X16114Y-19498D01*
X16494Y-19656D01*
X16906Y-19657D01*
X17287Y-19499D01*
X17578Y-19209D01*
X17736Y-18828D01*
X17736Y-18417D01*
X17736Y-19096D01*
X17608Y-19225D01*
X17501Y-19482D01*
X17501Y-19760D01*
X17607Y-20018D01*
X17804Y-20215D01*
X17989Y-20292D01*
X16322Y-20292D01*
X16295Y-20226D01*
X16098Y-20028D01*
X15841Y-19922D01*
X15562Y-19921D01*
X15305Y-20028D01*
X15286Y-20047D01*
X15286Y-18506D01*
X15197Y-18291D01*
X15033Y-18126D01*
X14818Y-18037D01*
X14585Y-18036D01*
X14370Y-18125D01*
X14205Y-18290D01*
X14116Y-18505D01*
X14116Y-18737D01*
X14205Y-18952D01*
X14369Y-19117D01*
X14584Y-19206D01*
X14817Y-19207D01*
X15032Y-19118D01*
X15197Y-18953D01*
X15286Y-18738D01*
X15286Y-18506D01*
X15286Y-20047D01*
X15108Y-20225D01*
X15080Y-20292D01*
X8112Y-20292D01*
X8297Y-20215D01*
X8494Y-20019D01*
X8601Y-19761D01*
X8601Y-19483D01*
X8495Y-19226D01*
X8476Y-19207D01*
X8517Y-19207D01*
X8732Y-19118D01*
X8897Y-18953D01*
X8986Y-18738D01*
X8986Y-18506D01*
X8897Y-18291D01*
X8733Y-18126D01*
X8518Y-18037D01*
X8285Y-18036D01*
X8070Y-18125D01*
X7905Y-18290D01*
X7816Y-18505D01*
X7816Y-18737D01*
X7892Y-18922D01*
X7762Y-18921D01*
X7505Y-19028D01*
X7436Y-19096D01*
X7436Y-18417D01*
X7279Y-18036D01*
X6988Y-17745D01*
X6608Y-17587D01*
X6196Y-17586D01*
X5815Y-17744D01*
X5524Y-18035D01*
X5366Y-18415D01*
X5366Y-18827D01*
X5523Y-19207D01*
X5814Y-19498D01*
X6194Y-19656D01*
X6606Y-19657D01*
X6986Y-19499D01*
X7278Y-19209D01*
X7436Y-18828D01*
X7436Y-18417D01*
X7436Y-19096D01*
X7308Y-19225D01*
X7201Y-19482D01*
X7201Y-19760D01*
X7307Y-20018D01*
X7504Y-20215D01*
X7689Y-20292D01*
X6022Y-20292D01*
X5995Y-20226D01*
X5798Y-20028D01*
X5541Y-19922D01*
X5262Y-19921D01*
X5005Y-20028D01*
X4986Y-20047D01*
X4986Y-18506D01*
X4897Y-18291D01*
X4733Y-18126D01*
X4518Y-18037D01*
X4285Y-18036D01*
X4070Y-18125D01*
X3905Y-18290D01*
X3816Y-18505D01*
X3816Y-18737D01*
X3905Y-18952D01*
X4069Y-19117D01*
X4284Y-19206D01*
X4517Y-19207D01*
X4732Y-19118D01*
X4897Y-18953D01*
X4986Y-18738D01*
X4986Y-18506D01*
X4986Y-20047D01*
X4808Y-20225D01*
X4701Y-20482D01*
X4701Y-20760D01*
X4807Y-21018D01*
X5004Y-21215D01*
X5261Y-21321D01*
X5540Y-21322D01*
X5797Y-21215D01*
X5994Y-21019D01*
X6022Y-20952D01*
X15080Y-20952D01*
X15107Y-21018D01*
X15304Y-21215D01*
X15561Y-21321D01*
X15840Y-21322D01*
X16097Y-21215D01*
X16294Y-21019D01*
X16322Y-20952D01*
X22580Y-20952D01*
X22607Y-21018D01*
X22804Y-21215D01*
X23061Y-21321D01*
X23340Y-21322D01*
X23597Y-21215D01*
X23794Y-21019D01*
X23822Y-20952D01*
X30080Y-20952D01*
X30107Y-21018D01*
X30183Y-21094D01*
X24278Y-21094D01*
X24152Y-21119D01*
X24045Y-21190D01*
X23013Y-22222D01*
X22945Y-22222D01*
X22780Y-22290D01*
X22731Y-22339D01*
X5885Y-22339D01*
X3266Y-19720D01*
X3266Y-19510D01*
X3180Y-19302D01*
X3021Y-19143D01*
X2814Y-19057D01*
X2589Y-19056D01*
X2381Y-19142D01*
X2222Y-19301D01*
X2136Y-19509D01*
X2136Y-19733D01*
X2222Y-19941D01*
X2380Y-20100D01*
X2588Y-20186D01*
X2799Y-20187D01*
X5515Y-22902D01*
X5622Y-22974D01*
X5622Y-22974D01*
X5748Y-22999D01*
X8814Y-22999D01*
X8734Y-23052D01*
X8734Y-23052D01*
X8661Y-23052D01*
X8496Y-23120D01*
X8371Y-23245D01*
X8302Y-23410D01*
X8302Y-23587D01*
X8370Y-23752D01*
X8496Y-23878D01*
X8660Y-23946D01*
X8838Y-23946D01*
X9002Y-23878D01*
X9128Y-23752D01*
X9180Y-23625D01*
X11885Y-23625D01*
X11876Y-23647D01*
X11876Y-23746D01*
X11876Y-24377D01*
X6308Y-24377D01*
X5819Y-23888D01*
X5712Y-23817D01*
X5614Y-23797D01*
X5493Y-23616D01*
X5290Y-23481D01*
X5051Y-23433D01*
X4812Y-23481D01*
X4652Y-23588D01*
X4638Y-23555D01*
X4568Y-23485D01*
X4476Y-23447D01*
X4376Y-23447D01*
X3626Y-23447D01*
X3534Y-23484D01*
X3464Y-23555D01*
X3426Y-23647D01*
X3426Y-23746D01*
X3426Y-24596D01*
X3464Y-24688D01*
X3534Y-24758D01*
X3626Y-24797D01*
X3725Y-24797D01*
X4475Y-24797D01*
X4567Y-24759D01*
X4638Y-24688D01*
X4651Y-24655D01*
X4812Y-24762D01*
X5051Y-24810D01*
X5290Y-24762D01*
X5493Y-24627D01*
X5546Y-24548D01*
X5938Y-24940D01*
X6045Y-25012D01*
X6045Y-25012D01*
X6171Y-25037D01*
X13501Y-25037D01*
X13627Y-25012D01*
X13734Y-24940D01*
X13806Y-24833D01*
X13831Y-24707D01*
X13831Y-24702D01*
X13943Y-24627D01*
X14064Y-24446D01*
X14162Y-24426D01*
X14162Y-24426D01*
X14269Y-24355D01*
X14758Y-23866D01*
X19376Y-23866D01*
X19376Y-24517D01*
X19333Y-24474D01*
X19169Y-24406D01*
X18992Y-24406D01*
X18827Y-24474D01*
X18701Y-24599D01*
X18633Y-24764D01*
X18633Y-24800D01*
X16946Y-26487D01*
X16874Y-26594D01*
X16849Y-26720D01*
X16849Y-26813D01*
X16801Y-26862D01*
X16732Y-27026D01*
X16732Y-27204D01*
X16800Y-27368D01*
X16926Y-27494D01*
X17090Y-27562D01*
X17268Y-27562D01*
X17432Y-27494D01*
X17558Y-27369D01*
X17626Y-27205D01*
X17626Y-27027D01*
X17558Y-26863D01*
X17531Y-26835D01*
X17978Y-26388D01*
X18005Y-26452D01*
X18169Y-26617D01*
X18384Y-26706D01*
X18617Y-26707D01*
X18832Y-26618D01*
X18997Y-26453D01*
X19086Y-26238D01*
X19086Y-26006D01*
X18997Y-25791D01*
X18833Y-25626D01*
X18767Y-25599D01*
X19067Y-25300D01*
X19169Y-25300D01*
X19333Y-25232D01*
X19382Y-25183D01*
X20063Y-25183D01*
X19916Y-25244D01*
X19624Y-25535D01*
X19466Y-25915D01*
X19466Y-26327D01*
X19623Y-26707D01*
X19914Y-26998D01*
X20294Y-27156D01*
X20706Y-27157D01*
X21087Y-26999D01*
X21378Y-26709D01*
X21536Y-26328D01*
X21536Y-25917D01*
X21379Y-25536D01*
X21088Y-25245D01*
X20939Y-25183D01*
X22347Y-25183D01*
X22759Y-25595D01*
X22618Y-25537D01*
X22385Y-25536D01*
X22170Y-25625D01*
X22005Y-25790D01*
X21916Y-26005D01*
X21916Y-26237D01*
X21992Y-26422D01*
X21862Y-26421D01*
X21605Y-26528D01*
X21408Y-26725D01*
X21301Y-26982D01*
X21301Y-27260D01*
X21407Y-27518D01*
X21604Y-27715D01*
X21639Y-27729D01*
X20096Y-27729D01*
X20095Y-27726D01*
X19898Y-27528D01*
X19641Y-27422D01*
X19362Y-27421D01*
X19105Y-27528D01*
X18908Y-27725D01*
X18880Y-27792D01*
X14712Y-27792D01*
X14897Y-27715D01*
X15094Y-27519D01*
X15201Y-27261D01*
X15201Y-26983D01*
X15095Y-26726D01*
X15076Y-26707D01*
X15117Y-26707D01*
X15332Y-26618D01*
X15497Y-26453D01*
X15586Y-26238D01*
X15586Y-26006D01*
X15497Y-25791D01*
X15333Y-25626D01*
X15118Y-25537D01*
X14885Y-25536D01*
X14670Y-25625D01*
X14505Y-25790D01*
X14416Y-26005D01*
X14416Y-26237D01*
X14492Y-26422D01*
X14362Y-26421D01*
X14105Y-26528D01*
X14036Y-26596D01*
X14036Y-25917D01*
X13879Y-25536D01*
X13588Y-25245D01*
X13208Y-25087D01*
X12796Y-25086D01*
X12415Y-25244D01*
X12124Y-25535D01*
X11966Y-25915D01*
X11966Y-26327D01*
X12123Y-26707D01*
X12414Y-26998D01*
X12794Y-27156D01*
X13206Y-27157D01*
X13586Y-26999D01*
X13878Y-26709D01*
X14036Y-26328D01*
X14036Y-25917D01*
X14036Y-26596D01*
X13908Y-26725D01*
X13801Y-26982D01*
X13801Y-27260D01*
X13907Y-27518D01*
X14104Y-27715D01*
X14289Y-27792D01*
X12622Y-27792D01*
X12595Y-27726D01*
X12398Y-27528D01*
X12141Y-27422D01*
X11862Y-27421D01*
X11605Y-27528D01*
X11586Y-27547D01*
X11586Y-26006D01*
X11497Y-25791D01*
X11333Y-25626D01*
X11118Y-25537D01*
X10885Y-25536D01*
X10670Y-25625D01*
X10505Y-25790D01*
X10416Y-26005D01*
X10416Y-26237D01*
X10505Y-26452D01*
X10669Y-26617D01*
X10884Y-26706D01*
X11117Y-26707D01*
X11332Y-26618D01*
X11497Y-26453D01*
X11586Y-26238D01*
X11586Y-26006D01*
X11586Y-27547D01*
X11408Y-27725D01*
X11380Y-27792D01*
X6262Y-27792D01*
X6447Y-27715D01*
X6644Y-27519D01*
X6751Y-27261D01*
X6751Y-26983D01*
X6645Y-26726D01*
X6626Y-26707D01*
X6667Y-26707D01*
X6882Y-26618D01*
X7047Y-26453D01*
X7136Y-26238D01*
X7136Y-26006D01*
X7047Y-25791D01*
X6883Y-25626D01*
X6668Y-25537D01*
X6435Y-25536D01*
X6220Y-25625D01*
X6055Y-25790D01*
X5966Y-26005D01*
X5966Y-26237D01*
X6042Y-26422D01*
X5912Y-26421D01*
X5655Y-26528D01*
X5586Y-26596D01*
X5586Y-25917D01*
X5429Y-25536D01*
X5138Y-25245D01*
X4758Y-25087D01*
X4346Y-25086D01*
X3965Y-25244D01*
X3674Y-25535D01*
X3516Y-25915D01*
X3516Y-26327D01*
X3673Y-26707D01*
X3964Y-26998D01*
X4344Y-27156D01*
X4756Y-27157D01*
X5136Y-26999D01*
X5428Y-26709D01*
X5586Y-26328D01*
X5586Y-25917D01*
X5586Y-26596D01*
X5458Y-26725D01*
X5351Y-26982D01*
X5351Y-27260D01*
X5457Y-27518D01*
X5654Y-27715D01*
X5839Y-27792D01*
X4172Y-27792D01*
X4145Y-27726D01*
X3948Y-27528D01*
X3691Y-27422D01*
X3412Y-27421D01*
X3155Y-27528D01*
X3136Y-27547D01*
X3136Y-26006D01*
X3047Y-25791D01*
X2883Y-25626D01*
X2668Y-25537D01*
X2435Y-25536D01*
X2220Y-25625D01*
X2055Y-25790D01*
X1966Y-26005D01*
X1966Y-26237D01*
X2055Y-26452D01*
X2219Y-26617D01*
X2434Y-26706D01*
X2667Y-26707D01*
X2882Y-26618D01*
X3047Y-26453D01*
X3136Y-26238D01*
X3136Y-26006D01*
X3136Y-27547D01*
X2958Y-27725D01*
X2851Y-27982D01*
X2851Y-28260D01*
X2957Y-28518D01*
X3154Y-28715D01*
X3411Y-28821D01*
X3690Y-28822D01*
X3947Y-28715D01*
X4144Y-28519D01*
X4172Y-28452D01*
X11380Y-28452D01*
X11407Y-28518D01*
X11604Y-28715D01*
X11861Y-28821D01*
X12140Y-28822D01*
X12397Y-28715D01*
X12594Y-28519D01*
X12622Y-28452D01*
X18880Y-28452D01*
X18907Y-28518D01*
X19104Y-28715D01*
X19361Y-28821D01*
X19640Y-28822D01*
X19897Y-28715D01*
X20094Y-28519D01*
X20148Y-28389D01*
X27160Y-28389D01*
X27051Y-28652D01*
X27051Y-28990D01*
X27180Y-29302D01*
X27419Y-29542D01*
X27444Y-29552D01*
X795Y-29552D01*
X803Y-29529D01*
X790Y-29351D01*
X747Y-29246D01*
X662Y-29231D01*
X422Y-29472D01*
X427Y-29477D01*
X356Y-29548D01*
X351Y-29542D01*
X345Y-29548D01*
X275Y-29477D01*
X280Y-29472D01*
X275Y-29466D01*
X345Y-29395D01*
X351Y-29401D01*
X591Y-29160D01*
X577Y-29076D01*
X408Y-29020D01*
X270Y-29029D01*
X270Y-23478D01*
X1601Y-23478D01*
X2074Y-23385D01*
X2474Y-23117D01*
X2742Y-22716D01*
X2836Y-22244D01*
X2742Y-21772D01*
X2474Y-21371D01*
X2074Y-21103D01*
X1601Y-21009D01*
X270Y-21009D01*
X270Y-766D01*
X294Y-774D01*
X471Y-761D01*
X577Y-717D01*
X591Y-633D01*
X351Y-392D01*
X345Y-398D01*
X275Y-327D01*
X280Y-322D01*
X275Y-316D01*
X345Y-245D01*
X351Y-251D01*
X356Y-245D01*
X427Y-316D01*
X422Y-322D01*
X662Y-562D01*
X747Y-547D01*
X803Y-379D01*
X793Y-241D01*
X29650Y-241D01*
X29619Y-272D01*
X29665Y-318D01*
X29580Y-333D01*
X29524Y-501D01*
X29536Y-679D01*
X29545Y-700D01*
X26193Y-700D01*
X26066Y-725D01*
X25959Y-797D01*
X25809Y-947D01*
X25177Y-947D01*
X25085Y-984D01*
X25014Y-1055D01*
X24976Y-1147D01*
X24976Y-1246D01*
X24976Y-1877D01*
X22507Y-1877D01*
X22566Y-1734D01*
X22566Y-1510D01*
X22480Y-1302D01*
X22322Y-1143D01*
X22114Y-1057D01*
X21889Y-1056D01*
X21681Y-1142D01*
X21532Y-1292D01*
X19660Y-1292D01*
X19543Y-1116D01*
X19340Y-981D01*
X19101Y-933D01*
X18862Y-981D01*
X18702Y-1088D01*
X18688Y-1055D01*
X18618Y-985D01*
X18526Y-947D01*
X18427Y-947D01*
X17677Y-947D01*
X17585Y-984D01*
X17514Y-1055D01*
X17502Y-1083D01*
X17187Y-768D01*
X17074Y-692D01*
X16940Y-666D01*
X3706Y-666D01*
X3572Y-692D01*
X3459Y-768D01*
X3459Y-768D01*
X3459Y-768D01*
X3281Y-946D01*
X2676Y-946D01*
X2584Y-984D01*
X2514Y-1054D01*
X2476Y-1146D01*
X2476Y-1246D01*
X2476Y-2096D01*
X2514Y-2188D01*
X2584Y-2258D01*
X2676Y-2296D01*
X2775Y-2296D01*
X3102Y-2296D01*
X2100Y-3298D01*
X2097Y-3291D01*
X1933Y-3126D01*
X1718Y-3037D01*
X1485Y-3036D01*
X1270Y-3125D01*
X1105Y-3290D01*
X1016Y-3505D01*
X1016Y-3737D01*
X1105Y-3952D01*
X1269Y-4117D01*
X1484Y-4206D01*
X1717Y-4207D01*
X1906Y-4128D01*
X1143Y-4892D01*
X1071Y-4999D01*
X1046Y-5126D01*
X1046Y-10040D01*
X897Y-10188D01*
X811Y-10396D01*
X811Y-10620D01*
X897Y-10828D01*
X1055Y-10987D01*
X1263Y-11073D01*
X1488Y-11074D01*
X1695Y-10988D01*
X1855Y-10829D01*
X1941Y-10621D01*
X1941Y-10397D01*
X1855Y-10189D01*
X1706Y-10039D01*
X1706Y-5262D01*
X2516Y-4452D01*
X2588Y-4345D01*
X2588Y-4345D01*
X2613Y-4219D01*
X2613Y-3940D01*
X2723Y-4207D01*
X3014Y-4498D01*
X3394Y-4656D01*
X3806Y-4657D01*
X4186Y-4499D01*
X4478Y-4209D01*
X4636Y-3828D01*
X4636Y-3417D01*
X4479Y-3036D01*
X4188Y-2745D01*
X3808Y-2587D01*
X3745Y-2587D01*
X3795Y-2536D01*
X4101Y-2536D01*
X4227Y-2511D01*
X4334Y-2440D01*
X4406Y-2332D01*
X4431Y-2206D01*
X4431Y-2201D01*
X4543Y-2126D01*
X4678Y-1923D01*
X4726Y-1684D01*
X4726Y-1558D01*
X4688Y-1366D01*
X5902Y-1366D01*
X5872Y-1438D01*
X5871Y-1608D01*
X5936Y-1765D01*
X6056Y-1885D01*
X6213Y-1950D01*
X6383Y-1950D01*
X6540Y-1885D01*
X6661Y-1765D01*
X6726Y-1608D01*
X6726Y-1439D01*
X6696Y-1366D01*
X7634Y-1366D01*
X7604Y-1438D01*
X7604Y-1608D01*
X7669Y-1765D01*
X7789Y-1885D01*
X7946Y-1950D01*
X8116Y-1950D01*
X8273Y-1885D01*
X8393Y-1765D01*
X8458Y-1608D01*
X8458Y-1439D01*
X8428Y-1366D01*
X9976Y-1366D01*
X9976Y-2096D01*
X10014Y-2188D01*
X10084Y-2258D01*
X10176Y-2296D01*
X10275Y-2296D01*
X10809Y-2296D01*
X11100Y-2587D01*
X10896Y-2586D01*
X10515Y-2744D01*
X10224Y-3035D01*
X10066Y-3415D01*
X10066Y-3827D01*
X10223Y-4207D01*
X10514Y-4498D01*
X10894Y-4656D01*
X11306Y-4657D01*
X11686Y-4499D01*
X11978Y-4209D01*
X12136Y-3828D01*
X12136Y-3417D01*
X11979Y-3036D01*
X11726Y-2783D01*
X17976Y-2783D01*
X17724Y-3035D01*
X17566Y-3415D01*
X17566Y-3827D01*
X17723Y-4207D01*
X18014Y-4498D01*
X18394Y-4656D01*
X18806Y-4657D01*
X19187Y-4499D01*
X19478Y-4209D01*
X19636Y-3828D01*
X19636Y-3417D01*
X19479Y-3036D01*
X19226Y-2783D01*
X25476Y-2783D01*
X25224Y-3035D01*
X25066Y-3415D01*
X25066Y-3827D01*
X25223Y-4207D01*
X25514Y-4498D01*
X25894Y-4656D01*
X26306Y-4657D01*
X26687Y-4499D01*
X26978Y-4209D01*
X27136Y-3828D01*
X27136Y-3417D01*
X26979Y-3036D01*
X26726Y-2783D01*
X29256Y-2783D01*
X29383Y-2757D01*
X29383Y-2757D01*
X29490Y-2686D01*
X30816Y-1360D01*
X32476Y-1360D01*
X32476Y-2096D01*
X32514Y-2188D01*
X32584Y-2258D01*
X32676Y-2297D01*
X32776Y-2297D01*
X33309Y-2297D01*
X33454Y-2441D01*
X33561Y-2513D01*
X33561Y-2513D01*
X33687Y-2538D01*
X36620Y-2538D01*
X36746Y-2513D01*
X36746Y-2513D01*
X36772Y-2496D01*
X36771Y-2678D01*
X36777Y-2691D01*
X36210Y-3258D01*
X36138Y-3365D01*
X36135Y-3382D01*
X36097Y-3291D01*
X35933Y-3126D01*
X35718Y-3037D01*
X35485Y-3036D01*
X35270Y-3125D01*
X35105Y-3290D01*
X35016Y-3505D01*
X35016Y-3737D01*
X35092Y-3922D01*
X34962Y-3921D01*
X34705Y-4028D01*
X34636Y-4096D01*
X34636Y-3417D01*
X34479Y-3036D01*
X34188Y-2745D01*
X33808Y-2587D01*
X33396Y-2586D01*
X33016Y-2744D01*
X32724Y-3035D01*
X32566Y-3415D01*
X32566Y-3827D01*
X32723Y-4207D01*
X33014Y-4498D01*
X33394Y-4656D01*
X33806Y-4657D01*
X34187Y-4499D01*
X34478Y-4209D01*
X34636Y-3828D01*
X34636Y-3417D01*
X34636Y-4096D01*
X34508Y-4225D01*
X34401Y-4482D01*
X34401Y-4760D01*
X34507Y-5018D01*
X34704Y-5215D01*
X34852Y-5276D01*
X34690Y-5438D01*
X34582Y-5438D01*
X34534Y-5390D01*
X34369Y-5322D01*
X34192Y-5321D01*
X34027Y-5389D01*
X33902Y-5515D01*
X33833Y-5679D01*
X33833Y-5795D01*
X33287Y-5795D01*
X33301Y-5761D01*
X33301Y-5483D01*
X33195Y-5226D01*
X32998Y-5028D01*
X32741Y-4922D01*
X32462Y-4921D01*
X32205Y-5028D01*
X32186Y-5047D01*
X32186Y-3506D01*
X32097Y-3291D01*
X31933Y-3126D01*
X31718Y-3037D01*
X31485Y-3036D01*
X31270Y-3125D01*
X31105Y-3290D01*
X31016Y-3505D01*
X31016Y-3737D01*
X31105Y-3952D01*
X31269Y-4117D01*
X31484Y-4206D01*
X31717Y-4207D01*
X31932Y-4118D01*
X32097Y-3953D01*
X32186Y-3738D01*
X32186Y-3506D01*
X32186Y-5047D01*
X32008Y-5225D01*
X31980Y-5292D01*
X27813Y-5292D01*
X27997Y-5215D01*
X28194Y-5019D01*
X28301Y-4761D01*
X28301Y-4483D01*
X28195Y-4226D01*
X28176Y-4207D01*
X28217Y-4207D01*
X28432Y-4118D01*
X28597Y-3953D01*
X28686Y-3738D01*
X28686Y-3506D01*
X28597Y-3291D01*
X28433Y-3126D01*
X28218Y-3037D01*
X27985Y-3036D01*
X27770Y-3125D01*
X27605Y-3290D01*
X27516Y-3505D01*
X27516Y-3737D01*
X27592Y-3922D01*
X27462Y-3921D01*
X27205Y-4028D01*
X27008Y-4225D01*
X26901Y-4482D01*
X26901Y-4760D01*
X27007Y-5018D01*
X27204Y-5215D01*
X27389Y-5292D01*
X25722Y-5292D01*
X25695Y-5226D01*
X25498Y-5028D01*
X25241Y-4922D01*
X24962Y-4921D01*
X24705Y-5028D01*
X24686Y-5047D01*
X24686Y-3506D01*
X24597Y-3291D01*
X24433Y-3126D01*
X24218Y-3037D01*
X23985Y-3036D01*
X23770Y-3125D01*
X23605Y-3290D01*
X23516Y-3505D01*
X23516Y-3737D01*
X23605Y-3952D01*
X23769Y-4117D01*
X23984Y-4206D01*
X24217Y-4207D01*
X24432Y-4118D01*
X24597Y-3953D01*
X24686Y-3738D01*
X24686Y-3506D01*
X24686Y-5047D01*
X24508Y-5225D01*
X24480Y-5292D01*
X22566Y-5292D01*
X22566Y-4510D01*
X22480Y-4302D01*
X22322Y-4143D01*
X22114Y-4057D01*
X21889Y-4056D01*
X21681Y-4142D01*
X21522Y-4301D01*
X21436Y-4509D01*
X21436Y-4733D01*
X21522Y-4941D01*
X21681Y-5100D01*
X21888Y-5186D01*
X22113Y-5187D01*
X22321Y-5101D01*
X22480Y-4942D01*
X22566Y-4734D01*
X22566Y-4510D01*
X22566Y-5292D01*
X20313Y-5292D01*
X20497Y-5215D01*
X20694Y-5019D01*
X20801Y-4761D01*
X20801Y-4483D01*
X20695Y-4226D01*
X20676Y-4207D01*
X20717Y-4207D01*
X20932Y-4118D01*
X21097Y-3953D01*
X21186Y-3738D01*
X21186Y-3506D01*
X21097Y-3291D01*
X20933Y-3126D01*
X20718Y-3037D01*
X20485Y-3036D01*
X20270Y-3125D01*
X20105Y-3290D01*
X20016Y-3505D01*
X20016Y-3737D01*
X20092Y-3922D01*
X19962Y-3921D01*
X19705Y-4028D01*
X19508Y-4225D01*
X19401Y-4482D01*
X19401Y-4760D01*
X19507Y-5018D01*
X19704Y-5215D01*
X19889Y-5292D01*
X18222Y-5292D01*
X18195Y-5226D01*
X17998Y-5028D01*
X17741Y-4922D01*
X17462Y-4921D01*
X17205Y-5028D01*
X17186Y-5047D01*
X17186Y-3506D01*
X17097Y-3291D01*
X16933Y-3126D01*
X16718Y-3037D01*
X16485Y-3036D01*
X16270Y-3125D01*
X16105Y-3290D01*
X16016Y-3505D01*
X16016Y-3737D01*
X16105Y-3952D01*
X16269Y-4117D01*
X16484Y-4206D01*
X16717Y-4207D01*
X16932Y-4118D01*
X17097Y-3953D01*
X17186Y-3738D01*
X17186Y-3506D01*
X17186Y-5047D01*
X17008Y-5225D01*
X16980Y-5292D01*
X12812Y-5292D01*
X12997Y-5215D01*
X13194Y-5019D01*
X13301Y-4761D01*
X13301Y-4483D01*
X13195Y-4226D01*
X13176Y-4207D01*
X13217Y-4207D01*
X13432Y-4118D01*
X13597Y-3953D01*
X13686Y-3738D01*
X13686Y-3506D01*
X13597Y-3291D01*
X13433Y-3126D01*
X13218Y-3037D01*
X12985Y-3036D01*
X12770Y-3125D01*
X12605Y-3290D01*
X12516Y-3505D01*
X12516Y-3737D01*
X12592Y-3922D01*
X12462Y-3921D01*
X12205Y-4028D01*
X12008Y-4225D01*
X11901Y-4482D01*
X11901Y-4760D01*
X12007Y-5018D01*
X12204Y-5215D01*
X12389Y-5292D01*
X10722Y-5292D01*
X10695Y-5226D01*
X10498Y-5028D01*
X10241Y-4922D01*
X9962Y-4921D01*
X9705Y-5028D01*
X9686Y-5047D01*
X9686Y-3506D01*
X9597Y-3291D01*
X9433Y-3126D01*
X9218Y-3037D01*
X8985Y-3036D01*
X8770Y-3125D01*
X8605Y-3290D01*
X8516Y-3505D01*
X8516Y-3737D01*
X8605Y-3952D01*
X8769Y-4117D01*
X8984Y-4206D01*
X9217Y-4207D01*
X9432Y-4118D01*
X9597Y-3953D01*
X9686Y-3738D01*
X9686Y-3506D01*
X9686Y-5047D01*
X9508Y-5225D01*
X9401Y-5482D01*
X9401Y-5704D01*
X4463Y-5704D01*
X4463Y-5697D01*
X4874Y-5285D01*
X4961Y-5321D01*
X5240Y-5322D01*
X5497Y-5215D01*
X5694Y-5019D01*
X5801Y-4761D01*
X5801Y-4483D01*
X5695Y-4226D01*
X5676Y-4207D01*
X5717Y-4207D01*
X5932Y-4118D01*
X6097Y-3953D01*
X6186Y-3738D01*
X6186Y-3506D01*
X6097Y-3291D01*
X5933Y-3126D01*
X5718Y-3037D01*
X5485Y-3036D01*
X5270Y-3125D01*
X5105Y-3290D01*
X5016Y-3505D01*
X5016Y-3737D01*
X5092Y-3922D01*
X4962Y-3921D01*
X4705Y-4028D01*
X4508Y-4225D01*
X4401Y-4482D01*
X4401Y-4760D01*
X4420Y-4806D01*
X3996Y-5230D01*
X3928Y-5230D01*
X3763Y-5298D01*
X3638Y-5423D01*
X3569Y-5588D01*
X3569Y-5704D01*
X3301Y-5704D01*
X3301Y-5483D01*
X3195Y-5226D01*
X2998Y-5028D01*
X2741Y-4922D01*
X2462Y-4921D01*
X2205Y-5028D01*
X2008Y-5225D01*
X1901Y-5482D01*
X1901Y-5760D01*
X2007Y-6018D01*
X2204Y-6215D01*
X2461Y-6321D01*
X2740Y-6322D01*
X2815Y-6291D01*
X2887Y-6339D01*
X2887Y-6339D01*
X3013Y-6364D01*
X9689Y-6364D01*
X9815Y-6339D01*
X9815Y-6339D01*
X9887Y-6291D01*
X9961Y-6321D01*
X10240Y-6322D01*
X10497Y-6215D01*
X10694Y-6019D01*
X10722Y-5952D01*
X16980Y-5952D01*
X17007Y-6018D01*
X17083Y-6094D01*
X16479Y-6093D01*
X15880Y-6341D01*
X15422Y-6798D01*
X15173Y-7396D01*
X15173Y-8044D01*
X15232Y-8187D01*
X4656Y-8187D01*
X4530Y-8212D01*
X4423Y-8283D01*
X4259Y-8447D01*
X3626Y-8447D01*
X3534Y-8484D01*
X3464Y-8555D01*
X3426Y-8647D01*
X3426Y-8746D01*
X3426Y-9596D01*
X3464Y-9688D01*
X3534Y-9758D01*
X3626Y-9797D01*
X3725Y-9797D01*
X4033Y-9797D01*
X3043Y-10787D01*
X2883Y-10626D01*
X2668Y-10537D01*
X2435Y-10536D01*
X2220Y-10625D01*
X2055Y-10790D01*
X1966Y-11005D01*
X1966Y-11237D01*
X2055Y-11452D01*
X2219Y-11617D01*
X2273Y-11640D01*
X1443Y-12470D01*
X1397Y-12470D01*
X1271Y-12495D01*
X1164Y-12566D01*
X1164Y-12566D01*
X657Y-13073D01*
X585Y-13180D01*
X560Y-13307D01*
X560Y-13726D01*
X585Y-13853D01*
X657Y-13960D01*
X2754Y-16057D01*
X2589Y-16056D01*
X2381Y-16142D01*
X2222Y-16301D01*
X2136Y-16509D01*
X2136Y-16733D01*
X2222Y-16941D01*
X2380Y-17100D01*
X2588Y-17186D01*
X2813Y-17187D01*
X3020Y-17101D01*
X3180Y-16942D01*
X3266Y-16734D01*
X3266Y-16510D01*
X3207Y-16366D01*
X5276Y-16366D01*
X5276Y-17096D01*
X5314Y-17188D01*
X5384Y-17258D01*
X5476Y-17297D01*
X5575Y-17297D01*
X6325Y-17297D01*
X6417Y-17259D01*
X6488Y-17188D01*
X6501Y-17155D01*
X6662Y-17262D01*
X6901Y-17310D01*
X7140Y-17262D01*
X7343Y-17127D01*
X7478Y-16924D01*
X7526Y-16685D01*
X7526Y-16558D01*
X7488Y-16366D01*
X15576Y-16366D01*
X15576Y-17096D01*
X15614Y-17188D01*
X15684Y-17258D01*
X15776Y-17297D01*
X15876Y-17297D01*
X16626Y-17297D01*
X16718Y-17259D01*
X16788Y-17188D01*
X16802Y-17155D01*
X16962Y-17262D01*
X17201Y-17310D01*
X17440Y-17262D01*
X17643Y-17127D01*
X17778Y-16924D01*
X17826Y-16685D01*
X17826Y-16558D01*
X17788Y-16366D01*
X23076Y-16366D01*
X23076Y-17096D01*
X23114Y-17188D01*
X23184Y-17258D01*
X23276Y-17297D01*
X23376Y-17297D01*
X24126Y-17297D01*
X24218Y-17259D01*
X24288Y-17188D01*
X24302Y-17155D01*
X24462Y-17262D01*
X24701Y-17310D01*
X24940Y-17262D01*
X25143Y-17127D01*
X25196Y-17048D01*
X25675Y-17527D01*
X25675Y-17527D01*
X25782Y-17599D01*
X25782Y-17599D01*
X25908Y-17624D01*
X25908Y-17624D01*
X31406Y-17624D01*
X31116Y-17744D01*
X30824Y-18035D01*
X30666Y-18415D01*
X30666Y-18827D01*
X30823Y-19207D01*
X31114Y-19498D01*
X31494Y-19656D01*
X31906Y-19657D01*
X32287Y-19499D01*
X32578Y-19209D01*
X32736Y-18828D01*
X32736Y-18417D01*
X32579Y-18036D01*
X32288Y-17745D01*
X31908Y-17587D01*
X31805Y-17587D01*
X31894Y-17527D01*
X32084Y-17337D01*
X32201Y-17360D01*
X32440Y-17312D01*
X32643Y-17177D01*
X32696Y-17098D01*
X33038Y-17440D01*
X33145Y-17512D01*
X33145Y-17512D01*
X33271Y-17537D01*
X39701Y-17537D01*
X39769Y-17523D01*
X39769Y-17523D01*
X39838Y-17537D01*
X47201Y-17537D01*
X47327Y-17512D01*
X47434Y-17440D01*
X47506Y-17333D01*
X47531Y-17207D01*
X47531Y-17202D01*
X47643Y-17127D01*
X47764Y-16946D01*
X47862Y-16926D01*
X47862Y-16926D01*
X47970Y-16855D01*
X48458Y-16366D01*
X53076Y-16366D01*
X53076Y-17096D01*
X53114Y-17188D01*
X53184Y-17258D01*
X53276Y-17297D01*
X53376Y-17297D01*
X54126Y-17297D01*
X54218Y-17259D01*
X54288Y-17188D01*
X54302Y-17155D01*
X54462Y-17262D01*
X54701Y-17310D01*
X54940Y-17262D01*
X55143Y-17127D01*
X55278Y-16924D01*
X55326Y-16685D01*
X55326Y-16558D01*
X55278Y-16319D01*
X55143Y-16116D01*
X55031Y-16042D01*
X55031Y-16036D01*
X55006Y-15910D01*
X54934Y-15803D01*
X54827Y-15732D01*
X54701Y-15706D01*
X48321Y-15706D01*
X48195Y-15732D01*
X48088Y-15803D01*
X47696Y-16195D01*
X47643Y-16116D01*
X47440Y-15981D01*
X47201Y-15933D01*
X46962Y-15981D01*
X46802Y-16088D01*
X46788Y-16055D01*
X46718Y-15985D01*
X46626Y-15947D01*
X46527Y-15947D01*
X45777Y-15947D01*
X45685Y-15984D01*
X45614Y-16055D01*
X45576Y-16147D01*
X45576Y-16246D01*
X45576Y-16292D01*
X42669Y-16292D01*
X42621Y-16243D01*
X42456Y-16175D01*
X42279Y-16175D01*
X42114Y-16243D01*
X41988Y-16368D01*
X41920Y-16532D01*
X41920Y-16710D01*
X41988Y-16874D01*
X41990Y-16877D01*
X40288Y-16877D01*
X40326Y-16685D01*
X40326Y-16558D01*
X40278Y-16319D01*
X40143Y-16116D01*
X39940Y-15981D01*
X39701Y-15933D01*
X39462Y-15981D01*
X39302Y-16088D01*
X39288Y-16055D01*
X39218Y-15985D01*
X39126Y-15947D01*
X39027Y-15947D01*
X38277Y-15947D01*
X38185Y-15984D01*
X38114Y-16055D01*
X38076Y-16147D01*
X38076Y-16246D01*
X38076Y-16877D01*
X33408Y-16877D01*
X32970Y-16438D01*
X32862Y-16367D01*
X32764Y-16347D01*
X32643Y-16166D01*
X32440Y-16031D01*
X32201Y-15983D01*
X31962Y-16031D01*
X31802Y-16138D01*
X31788Y-16105D01*
X31718Y-16035D01*
X31626Y-15997D01*
X31527Y-15997D01*
X30777Y-15997D01*
X30685Y-16034D01*
X30614Y-16105D01*
X30576Y-16197D01*
X30576Y-16296D01*
X30576Y-16964D01*
X26527Y-16964D01*
X26527Y-16848D01*
X26460Y-16684D01*
X26334Y-16558D01*
X26170Y-16490D01*
X26100Y-16490D01*
X23164Y-13553D01*
X26443Y-13553D01*
X26604Y-13715D01*
X26861Y-13821D01*
X27140Y-13822D01*
X27397Y-13715D01*
X27594Y-13519D01*
X27622Y-13452D01*
X33880Y-13452D01*
X33907Y-13518D01*
X34104Y-13715D01*
X34361Y-13821D01*
X34640Y-13822D01*
X34897Y-13715D01*
X35094Y-13519D01*
X35122Y-13452D01*
X41380Y-13452D01*
X41407Y-13518D01*
X41604Y-13715D01*
X41861Y-13821D01*
X42140Y-13822D01*
X42397Y-13715D01*
X42594Y-13519D01*
X42622Y-13452D01*
X48880Y-13452D01*
X48907Y-13518D01*
X49104Y-13715D01*
X49361Y-13821D01*
X49640Y-13822D01*
X49897Y-13715D01*
X50094Y-13519D01*
X50122Y-13452D01*
X56380Y-13452D01*
X56407Y-13518D01*
X56604Y-13715D01*
X56861Y-13821D01*
X57140Y-13822D01*
X57397Y-13715D01*
X57594Y-13519D01*
X57622Y-13452D01*
X63880Y-13452D01*
X63907Y-13518D01*
X63977Y-13587D01*
G54D10*
G36*
X89481Y-29027D02*
X89458Y-29020D01*
X89281Y-29032D01*
X89175Y-29076D01*
X89161Y-29160D01*
X89401Y-29401D01*
X89407Y-29395D01*
X89477Y-29466D01*
X89472Y-29472D01*
X89477Y-29477D01*
X89407Y-29548D01*
X89401Y-29542D01*
X89396Y-29548D01*
X89325Y-29477D01*
X89330Y-29472D01*
X89090Y-29231D01*
X89005Y-29246D01*
X88949Y-29414D01*
X88959Y-29552D01*
X87736Y-29552D01*
X87736Y-26006D01*
X87647Y-25791D01*
X87482Y-25626D01*
X87268Y-25537D01*
X87035Y-25536D01*
X86820Y-25625D01*
X86655Y-25790D01*
X86566Y-26005D01*
X86566Y-26237D01*
X86642Y-26422D01*
X86512Y-26421D01*
X86255Y-26528D01*
X86186Y-26596D01*
X86186Y-25917D01*
X86029Y-25536D01*
X85738Y-25245D01*
X85357Y-25087D01*
X84946Y-25086D01*
X84565Y-25244D01*
X84274Y-25535D01*
X84116Y-25915D01*
X84116Y-26327D01*
X84273Y-26707D01*
X84564Y-26998D01*
X84944Y-27156D01*
X85356Y-27157D01*
X85736Y-26999D01*
X86028Y-26709D01*
X86186Y-26328D01*
X86186Y-25917D01*
X86186Y-26596D01*
X86058Y-26725D01*
X85951Y-26982D01*
X85951Y-27260D01*
X86057Y-27518D01*
X86254Y-27715D01*
X86511Y-27821D01*
X86789Y-27822D01*
X87047Y-27715D01*
X87244Y-27519D01*
X87351Y-27261D01*
X87351Y-26983D01*
X87244Y-26726D01*
X87226Y-26707D01*
X87267Y-26707D01*
X87482Y-26618D01*
X87646Y-26453D01*
X87736Y-26238D01*
X87736Y-26006D01*
X87736Y-29552D01*
X67759Y-29552D01*
X67782Y-29543D01*
X68021Y-29304D01*
X68151Y-28991D01*
X68151Y-28653D01*
X68022Y-28341D01*
X67783Y-28101D01*
X67471Y-27972D01*
X67133Y-27971D01*
X66820Y-28101D01*
X66581Y-28339D01*
X66451Y-28652D01*
X66451Y-28990D01*
X66580Y-29302D01*
X66819Y-29542D01*
X66844Y-29552D01*
X62382Y-29552D01*
X63013Y-28921D01*
X63082Y-28921D01*
X63246Y-28853D01*
X63372Y-28727D01*
X63440Y-28563D01*
X63440Y-28386D01*
X63372Y-28221D01*
X63247Y-28095D01*
X63083Y-28027D01*
X62905Y-28027D01*
X62741Y-28095D01*
X62688Y-28148D01*
X62620Y-27985D01*
X62513Y-27877D01*
X74090Y-27877D01*
X74129Y-27916D01*
X74101Y-27982D01*
X74101Y-28260D01*
X74207Y-28518D01*
X74404Y-28715D01*
X74661Y-28821D01*
X74940Y-28822D01*
X75197Y-28715D01*
X75394Y-28519D01*
X75422Y-28452D01*
X83530Y-28452D01*
X83557Y-28518D01*
X83754Y-28715D01*
X84011Y-28821D01*
X84289Y-28822D01*
X84547Y-28715D01*
X84744Y-28519D01*
X84851Y-28261D01*
X84851Y-27983D01*
X84744Y-27726D01*
X84548Y-27528D01*
X84291Y-27422D01*
X84012Y-27421D01*
X83755Y-27528D01*
X83736Y-27547D01*
X83736Y-26006D01*
X83647Y-25791D01*
X83482Y-25626D01*
X83268Y-25537D01*
X83035Y-25536D01*
X82820Y-25625D01*
X82655Y-25790D01*
X82566Y-26005D01*
X82566Y-26237D01*
X82654Y-26452D01*
X82819Y-26617D01*
X83034Y-26706D01*
X83267Y-26707D01*
X83482Y-26618D01*
X83646Y-26453D01*
X83736Y-26238D01*
X83736Y-26006D01*
X83736Y-27547D01*
X83558Y-27725D01*
X83530Y-27792D01*
X77513Y-27792D01*
X77697Y-27715D01*
X77894Y-27519D01*
X78001Y-27261D01*
X78001Y-26983D01*
X77895Y-26726D01*
X77876Y-26707D01*
X77917Y-26707D01*
X78132Y-26618D01*
X78297Y-26453D01*
X78386Y-26238D01*
X78386Y-26006D01*
X78297Y-25791D01*
X78133Y-25626D01*
X78066Y-25598D01*
X80952Y-22712D01*
X85319Y-22712D01*
X85368Y-22760D01*
X85493Y-22812D01*
X84859Y-23447D01*
X84226Y-23447D01*
X84134Y-23484D01*
X84064Y-23555D01*
X84026Y-23647D01*
X84026Y-23746D01*
X84026Y-24596D01*
X84064Y-24688D01*
X84134Y-24758D01*
X84226Y-24797D01*
X84325Y-24797D01*
X85075Y-24797D01*
X85167Y-24759D01*
X85237Y-24688D01*
X85251Y-24655D01*
X85412Y-24762D01*
X85651Y-24810D01*
X85890Y-24762D01*
X86093Y-24627D01*
X86228Y-24424D01*
X86276Y-24185D01*
X86276Y-24058D01*
X86228Y-23819D01*
X86093Y-23616D01*
X85890Y-23481D01*
X85780Y-23459D01*
X86212Y-23027D01*
X86284Y-22920D01*
X86284Y-22920D01*
X86309Y-22794D01*
X86309Y-20626D01*
X86309Y-20626D01*
X86309Y-20626D01*
X86304Y-20601D01*
X86284Y-20500D01*
X86284Y-20500D01*
X86212Y-20393D01*
X86212Y-20393D01*
X85456Y-19636D01*
X85651Y-19555D01*
X85894Y-19656D01*
X86001Y-19656D01*
X86001Y-19760D01*
X86107Y-20018D01*
X86304Y-20215D01*
X86561Y-20321D01*
X86840Y-20322D01*
X87097Y-20215D01*
X87151Y-20161D01*
X87204Y-20215D01*
X87461Y-20321D01*
X87740Y-20322D01*
X87997Y-20215D01*
X88194Y-20019D01*
X88301Y-19761D01*
X88301Y-19483D01*
X88195Y-19226D01*
X88176Y-19207D01*
X88217Y-19207D01*
X88432Y-19118D01*
X88597Y-18953D01*
X88686Y-18738D01*
X88686Y-18506D01*
X88686Y-3506D01*
X88597Y-3291D01*
X88433Y-3126D01*
X88218Y-3037D01*
X87985Y-3036D01*
X87770Y-3125D01*
X87605Y-3290D01*
X87516Y-3505D01*
X87516Y-3737D01*
X87592Y-3922D01*
X87462Y-3921D01*
X87205Y-4028D01*
X87136Y-4096D01*
X87136Y-3417D01*
X86979Y-3036D01*
X86688Y-2745D01*
X86308Y-2587D01*
X85896Y-2586D01*
X85516Y-2744D01*
X85224Y-3035D01*
X85066Y-3415D01*
X85066Y-3827D01*
X85223Y-4207D01*
X85514Y-4498D01*
X85894Y-4656D01*
X86306Y-4657D01*
X86687Y-4499D01*
X86978Y-4209D01*
X87136Y-3828D01*
X87136Y-3417D01*
X87136Y-4096D01*
X87008Y-4225D01*
X86901Y-4482D01*
X86901Y-4760D01*
X87007Y-5018D01*
X87204Y-5215D01*
X87461Y-5321D01*
X87740Y-5322D01*
X87997Y-5215D01*
X88194Y-5019D01*
X88301Y-4761D01*
X88301Y-4483D01*
X88195Y-4226D01*
X88176Y-4207D01*
X88217Y-4207D01*
X88432Y-4118D01*
X88597Y-3953D01*
X88686Y-3738D01*
X88686Y-3506D01*
X88686Y-18506D01*
X88597Y-18291D01*
X88433Y-18126D01*
X88218Y-18037D01*
X87985Y-18036D01*
X87770Y-18125D01*
X87651Y-18244D01*
X87533Y-18126D01*
X87318Y-18037D01*
X87085Y-18036D01*
X86995Y-18074D01*
X86979Y-18036D01*
X86688Y-17745D01*
X86308Y-17587D01*
X85896Y-17586D01*
X85651Y-17688D01*
X85408Y-17587D01*
X84996Y-17586D01*
X84616Y-17744D01*
X84324Y-18035D01*
X84308Y-18074D01*
X84218Y-18037D01*
X83985Y-18036D01*
X83770Y-18125D01*
X83651Y-18244D01*
X83533Y-18126D01*
X83318Y-18037D01*
X83085Y-18036D01*
X82870Y-18125D01*
X82705Y-18290D01*
X82616Y-18505D01*
X82616Y-18737D01*
X82705Y-18952D01*
X82869Y-19117D01*
X83084Y-19206D01*
X83317Y-19207D01*
X83532Y-19118D01*
X83651Y-18999D01*
X83769Y-19117D01*
X83984Y-19206D01*
X84217Y-19207D01*
X84307Y-19169D01*
X84323Y-19207D01*
X84425Y-19309D01*
X82575Y-19309D01*
X80295Y-17029D01*
X80188Y-16957D01*
X80160Y-16952D01*
X84142Y-16952D01*
X84259Y-17127D01*
X84462Y-17262D01*
X84701Y-17310D01*
X84940Y-17262D01*
X85029Y-17203D01*
X85084Y-17258D01*
X85176Y-17297D01*
X85276Y-17297D01*
X85376Y-17297D01*
X86026Y-17297D01*
X86126Y-17297D01*
X86218Y-17259D01*
X86273Y-17203D01*
X86362Y-17262D01*
X86601Y-17310D01*
X86840Y-17262D01*
X87043Y-17127D01*
X87178Y-16924D01*
X87226Y-16685D01*
X87226Y-16558D01*
X87178Y-16319D01*
X87043Y-16116D01*
X86840Y-15981D01*
X86601Y-15933D01*
X86362Y-15981D01*
X86273Y-16040D01*
X86218Y-15985D01*
X86126Y-15947D01*
X86027Y-15947D01*
X85927Y-15947D01*
X85277Y-15947D01*
X85177Y-15947D01*
X85085Y-15984D01*
X85029Y-16040D01*
X84940Y-15981D01*
X84701Y-15933D01*
X84462Y-15981D01*
X84259Y-16116D01*
X84142Y-16292D01*
X78710Y-16292D01*
X78593Y-16116D01*
X78390Y-15981D01*
X78151Y-15933D01*
X77912Y-15981D01*
X77791Y-16062D01*
X77788Y-16055D01*
X77718Y-15985D01*
X77626Y-15947D01*
X77527Y-15947D01*
X77476Y-15947D01*
X76777Y-15947D01*
X76726Y-15947D01*
X76634Y-15984D01*
X76564Y-16055D01*
X76561Y-16062D01*
X76440Y-15981D01*
X76201Y-15933D01*
X75962Y-15981D01*
X75759Y-16116D01*
X75642Y-16292D01*
X74096Y-16292D01*
X74096Y-16253D01*
X74574Y-15774D01*
X86728Y-15774D01*
X86776Y-15823D01*
X86941Y-15891D01*
X87118Y-15891D01*
X87283Y-15823D01*
X87409Y-15698D01*
X87477Y-15534D01*
X87477Y-15356D01*
X87409Y-15192D01*
X87283Y-15066D01*
X87119Y-14998D01*
X86941Y-14997D01*
X86777Y-15065D01*
X86728Y-15114D01*
X85886Y-15114D01*
X85886Y-11006D01*
X85797Y-10791D01*
X85633Y-10626D01*
X85418Y-10537D01*
X85185Y-10536D01*
X84970Y-10625D01*
X84805Y-10790D01*
X84716Y-11005D01*
X84716Y-11237D01*
X84792Y-11422D01*
X84662Y-11421D01*
X84405Y-11528D01*
X84336Y-11596D01*
X84336Y-10917D01*
X84179Y-10536D01*
X83888Y-10245D01*
X83508Y-10087D01*
X83096Y-10086D01*
X82716Y-10244D01*
X82424Y-10535D01*
X82266Y-10915D01*
X82266Y-11327D01*
X82423Y-11707D01*
X82714Y-11998D01*
X83094Y-12156D01*
X83506Y-12157D01*
X83887Y-11999D01*
X84178Y-11709D01*
X84336Y-11328D01*
X84336Y-10917D01*
X84336Y-11596D01*
X84208Y-11725D01*
X84101Y-11982D01*
X84101Y-12260D01*
X84207Y-12518D01*
X84404Y-12715D01*
X84661Y-12821D01*
X84940Y-12822D01*
X85197Y-12715D01*
X85394Y-12519D01*
X85501Y-12261D01*
X85501Y-11983D01*
X85395Y-11726D01*
X85376Y-11707D01*
X85417Y-11707D01*
X85632Y-11618D01*
X85797Y-11453D01*
X85886Y-11238D01*
X85886Y-11006D01*
X85886Y-15114D01*
X74438Y-15114D01*
X74311Y-15139D01*
X74204Y-15211D01*
X74204Y-15211D01*
X73992Y-15423D01*
X73872Y-15303D01*
X73708Y-15235D01*
X73530Y-15235D01*
X73366Y-15303D01*
X73317Y-15352D01*
X69641Y-15352D01*
X69515Y-15377D01*
X69408Y-15448D01*
X68909Y-15947D01*
X68277Y-15947D01*
X68185Y-15984D01*
X68114Y-16055D01*
X68076Y-16147D01*
X68076Y-16246D01*
X68076Y-16877D01*
X63458Y-16877D01*
X62970Y-16388D01*
X62862Y-16317D01*
X62764Y-16297D01*
X62643Y-16116D01*
X62440Y-15981D01*
X62201Y-15933D01*
X61962Y-15981D01*
X61802Y-16088D01*
X61788Y-16055D01*
X61718Y-15985D01*
X61626Y-15947D01*
X61527Y-15947D01*
X61311Y-15947D01*
X62970Y-14287D01*
X64464Y-14287D01*
X64492Y-14316D01*
X64657Y-14384D01*
X64834Y-14384D01*
X64999Y-14316D01*
X65124Y-14191D01*
X65193Y-14027D01*
X65193Y-13849D01*
X65125Y-13685D01*
X65027Y-13586D01*
X65094Y-13519D01*
X65122Y-13452D01*
X71380Y-13452D01*
X71407Y-13518D01*
X71604Y-13715D01*
X71861Y-13821D01*
X72140Y-13822D01*
X72397Y-13715D01*
X72594Y-13519D01*
X72622Y-13452D01*
X81680Y-13452D01*
X81707Y-13518D01*
X81904Y-13715D01*
X82161Y-13821D01*
X82440Y-13822D01*
X82697Y-13715D01*
X82894Y-13519D01*
X83001Y-13261D01*
X83001Y-12983D01*
X82895Y-12726D01*
X82698Y-12528D01*
X82441Y-12422D01*
X82162Y-12421D01*
X81905Y-12528D01*
X81886Y-12547D01*
X81886Y-11006D01*
X81797Y-10791D01*
X81633Y-10626D01*
X81418Y-10537D01*
X81185Y-10536D01*
X80970Y-10625D01*
X80805Y-10790D01*
X80716Y-11005D01*
X80716Y-11237D01*
X80805Y-11452D01*
X80969Y-11617D01*
X81184Y-11706D01*
X81417Y-11707D01*
X81632Y-11618D01*
X81797Y-11453D01*
X81886Y-11238D01*
X81886Y-11006D01*
X81886Y-12547D01*
X81708Y-12725D01*
X81680Y-12792D01*
X80329Y-12792D01*
X80329Y-10799D01*
X80082Y-10201D01*
X79624Y-9742D01*
X79026Y-9494D01*
X78379Y-9493D01*
X77780Y-9741D01*
X77322Y-10198D01*
X77073Y-10796D01*
X77073Y-11444D01*
X77320Y-12043D01*
X77778Y-12501D01*
X78376Y-12749D01*
X79023Y-12750D01*
X79622Y-12503D01*
X80080Y-12045D01*
X80329Y-11447D01*
X80329Y-10799D01*
X80329Y-12792D01*
X74713Y-12792D01*
X74897Y-12715D01*
X75094Y-12519D01*
X75201Y-12261D01*
X75201Y-11983D01*
X75095Y-11726D01*
X75076Y-11707D01*
X75117Y-11707D01*
X75332Y-11618D01*
X75497Y-11453D01*
X75586Y-11238D01*
X75586Y-11006D01*
X75497Y-10791D01*
X75333Y-10626D01*
X75118Y-10537D01*
X74885Y-10536D01*
X74670Y-10625D01*
X74505Y-10790D01*
X74416Y-11005D01*
X74416Y-11237D01*
X74492Y-11422D01*
X74362Y-11421D01*
X74105Y-11528D01*
X74036Y-11596D01*
X74036Y-10917D01*
X73879Y-10536D01*
X73588Y-10245D01*
X73208Y-10087D01*
X72796Y-10086D01*
X72416Y-10244D01*
X72124Y-10535D01*
X71966Y-10915D01*
X71966Y-11327D01*
X72123Y-11707D01*
X72414Y-11998D01*
X72794Y-12156D01*
X73206Y-12157D01*
X73587Y-11999D01*
X73878Y-11709D01*
X74036Y-11328D01*
X74036Y-10917D01*
X74036Y-11596D01*
X73908Y-11725D01*
X73801Y-11982D01*
X73801Y-12260D01*
X73907Y-12518D01*
X74104Y-12715D01*
X74289Y-12792D01*
X72622Y-12792D01*
X72595Y-12726D01*
X72398Y-12528D01*
X72141Y-12422D01*
X71862Y-12421D01*
X71605Y-12528D01*
X71586Y-12547D01*
X71586Y-11006D01*
X71497Y-10791D01*
X71333Y-10626D01*
X71118Y-10537D01*
X70885Y-10536D01*
X70670Y-10625D01*
X70505Y-10790D01*
X70416Y-11005D01*
X70416Y-11237D01*
X70505Y-11452D01*
X70669Y-11617D01*
X70884Y-11706D01*
X71117Y-11707D01*
X71332Y-11618D01*
X71497Y-11453D01*
X71586Y-11238D01*
X71586Y-11006D01*
X71586Y-12547D01*
X71408Y-12725D01*
X71380Y-12792D01*
X67213Y-12792D01*
X67397Y-12715D01*
X67594Y-12519D01*
X67701Y-12261D01*
X67701Y-11983D01*
X67595Y-11726D01*
X67576Y-11707D01*
X67617Y-11707D01*
X67832Y-11618D01*
X67997Y-11453D01*
X68086Y-11238D01*
X68086Y-11006D01*
X67997Y-10791D01*
X67833Y-10626D01*
X67618Y-10537D01*
X67385Y-10536D01*
X67170Y-10625D01*
X67005Y-10790D01*
X66916Y-11005D01*
X66916Y-11237D01*
X66992Y-11422D01*
X66862Y-11421D01*
X66605Y-11528D01*
X66536Y-11596D01*
X66536Y-10917D01*
X66379Y-10536D01*
X66088Y-10245D01*
X65708Y-10087D01*
X65296Y-10086D01*
X64916Y-10244D01*
X64624Y-10535D01*
X64466Y-10915D01*
X64466Y-11327D01*
X64623Y-11707D01*
X64914Y-11998D01*
X65294Y-12156D01*
X65706Y-12157D01*
X66087Y-11999D01*
X66378Y-11709D01*
X66536Y-11328D01*
X66536Y-10917D01*
X66536Y-11596D01*
X66408Y-11725D01*
X66301Y-11982D01*
X66301Y-12260D01*
X66407Y-12518D01*
X66604Y-12715D01*
X66789Y-12792D01*
X65122Y-12792D01*
X65095Y-12726D01*
X64898Y-12528D01*
X64641Y-12422D01*
X64362Y-12421D01*
X64105Y-12528D01*
X64086Y-12547D01*
X64086Y-11006D01*
X63997Y-10791D01*
X63833Y-10626D01*
X63618Y-10537D01*
X63385Y-10536D01*
X63170Y-10625D01*
X63005Y-10790D01*
X62916Y-11005D01*
X62916Y-11237D01*
X63005Y-11452D01*
X63169Y-11617D01*
X63384Y-11706D01*
X63617Y-11707D01*
X63832Y-11618D01*
X63997Y-11453D01*
X64086Y-11238D01*
X64086Y-11006D01*
X64086Y-12547D01*
X63908Y-12725D01*
X63880Y-12792D01*
X59713Y-12792D01*
X59897Y-12715D01*
X60094Y-12519D01*
X60201Y-12261D01*
X60201Y-11983D01*
X60095Y-11726D01*
X60076Y-11707D01*
X60117Y-11707D01*
X60332Y-11618D01*
X60497Y-11453D01*
X60586Y-11238D01*
X60586Y-11006D01*
X60497Y-10791D01*
X60333Y-10626D01*
X60118Y-10537D01*
X59885Y-10536D01*
X59670Y-10625D01*
X59505Y-10790D01*
X59416Y-11005D01*
X59416Y-11237D01*
X59492Y-11422D01*
X59362Y-11421D01*
X59105Y-11528D01*
X58908Y-11725D01*
X58801Y-11982D01*
X58801Y-12260D01*
X58907Y-12518D01*
X59104Y-12715D01*
X59289Y-12792D01*
X57622Y-12792D01*
X57595Y-12726D01*
X57398Y-12528D01*
X57141Y-12422D01*
X56862Y-12421D01*
X56605Y-12528D01*
X56586Y-12547D01*
X56586Y-11006D01*
X56497Y-10791D01*
X56333Y-10626D01*
X56118Y-10537D01*
X55885Y-10536D01*
X55670Y-10625D01*
X55505Y-10790D01*
X55416Y-11005D01*
X55416Y-11237D01*
X55505Y-11452D01*
X55669Y-11617D01*
X55884Y-11706D01*
X56117Y-11707D01*
X56332Y-11618D01*
X56497Y-11453D01*
X56586Y-11238D01*
X56586Y-11006D01*
X56586Y-12547D01*
X56408Y-12725D01*
X56380Y-12792D01*
X52213Y-12792D01*
X52397Y-12715D01*
X52594Y-12519D01*
X52701Y-12261D01*
X52701Y-11983D01*
X52595Y-11726D01*
X52576Y-11707D01*
X52617Y-11707D01*
X52832Y-11618D01*
X52997Y-11453D01*
X53086Y-11238D01*
X53086Y-11006D01*
X52997Y-10791D01*
X52833Y-10626D01*
X52618Y-10537D01*
X52385Y-10536D01*
X52170Y-10625D01*
X52005Y-10790D01*
X51916Y-11005D01*
X51916Y-11237D01*
X51992Y-11422D01*
X51862Y-11421D01*
X51605Y-11528D01*
X51536Y-11596D01*
X51536Y-10917D01*
X51379Y-10536D01*
X51088Y-10245D01*
X50708Y-10087D01*
X50296Y-10086D01*
X49916Y-10244D01*
X49624Y-10535D01*
X49466Y-10915D01*
X49466Y-11327D01*
X49623Y-11707D01*
X49914Y-11998D01*
X50294Y-12156D01*
X50706Y-12157D01*
X51087Y-11999D01*
X51378Y-11709D01*
X51536Y-11328D01*
X51536Y-10917D01*
X51536Y-11596D01*
X51408Y-11725D01*
X51301Y-11982D01*
X51301Y-12260D01*
X51407Y-12518D01*
X51604Y-12715D01*
X51789Y-12792D01*
X50122Y-12792D01*
X50095Y-12726D01*
X49898Y-12528D01*
X49641Y-12422D01*
X49362Y-12421D01*
X49105Y-12528D01*
X49086Y-12547D01*
X49086Y-11006D01*
X48997Y-10791D01*
X48833Y-10626D01*
X48618Y-10537D01*
X48385Y-10536D01*
X48170Y-10625D01*
X48005Y-10790D01*
X47916Y-11005D01*
X47916Y-11237D01*
X48005Y-11452D01*
X48169Y-11617D01*
X48384Y-11706D01*
X48617Y-11707D01*
X48832Y-11618D01*
X48997Y-11453D01*
X49086Y-11238D01*
X49086Y-11006D01*
X49086Y-12547D01*
X48908Y-12725D01*
X48880Y-12792D01*
X44713Y-12792D01*
X44897Y-12715D01*
X45094Y-12519D01*
X45201Y-12261D01*
X45201Y-11983D01*
X45095Y-11726D01*
X45076Y-11707D01*
X45117Y-11707D01*
X45332Y-11618D01*
X45497Y-11453D01*
X45586Y-11238D01*
X45586Y-11006D01*
X45497Y-10791D01*
X45333Y-10626D01*
X45118Y-10537D01*
X44885Y-10536D01*
X44670Y-10625D01*
X44505Y-10790D01*
X44416Y-11005D01*
X44416Y-11237D01*
X44492Y-11422D01*
X44362Y-11421D01*
X44105Y-11528D01*
X44036Y-11596D01*
X44036Y-10917D01*
X43879Y-10536D01*
X43588Y-10245D01*
X43208Y-10087D01*
X42796Y-10086D01*
X42416Y-10244D01*
X42124Y-10535D01*
X41966Y-10915D01*
X41966Y-11327D01*
X42123Y-11707D01*
X42414Y-11998D01*
X42794Y-12156D01*
X43206Y-12157D01*
X43587Y-11999D01*
X43878Y-11709D01*
X44036Y-11328D01*
X44036Y-10917D01*
X44036Y-11596D01*
X43908Y-11725D01*
X43801Y-11982D01*
X43801Y-12260D01*
X43907Y-12518D01*
X44104Y-12715D01*
X44289Y-12792D01*
X42622Y-12792D01*
X42595Y-12726D01*
X42398Y-12528D01*
X42141Y-12422D01*
X41862Y-12421D01*
X41605Y-12528D01*
X41586Y-12547D01*
X41586Y-11006D01*
X41497Y-10791D01*
X41333Y-10626D01*
X41118Y-10537D01*
X40885Y-10536D01*
X40670Y-10625D01*
X40505Y-10790D01*
X40416Y-11005D01*
X40416Y-11237D01*
X40505Y-11452D01*
X40669Y-11617D01*
X40884Y-11706D01*
X41117Y-11707D01*
X41332Y-11618D01*
X41497Y-11453D01*
X41586Y-11238D01*
X41586Y-11006D01*
X41586Y-12547D01*
X41408Y-12725D01*
X41380Y-12792D01*
X37213Y-12792D01*
X37397Y-12715D01*
X37594Y-12519D01*
X37701Y-12261D01*
X37701Y-11983D01*
X37595Y-11726D01*
X37576Y-11707D01*
X37617Y-11707D01*
X37832Y-11618D01*
X37997Y-11453D01*
X38086Y-11238D01*
X38086Y-11006D01*
X37997Y-10791D01*
X37833Y-10626D01*
X37618Y-10537D01*
X37385Y-10536D01*
X37170Y-10625D01*
X37005Y-10790D01*
X36916Y-11005D01*
X36916Y-11237D01*
X36992Y-11422D01*
X36862Y-11421D01*
X36605Y-11528D01*
X36536Y-11596D01*
X36536Y-10917D01*
X36379Y-10536D01*
X36088Y-10245D01*
X35708Y-10087D01*
X35296Y-10086D01*
X34916Y-10244D01*
X34624Y-10535D01*
X34466Y-10915D01*
X34466Y-11327D01*
X34623Y-11707D01*
X34914Y-11998D01*
X35294Y-12156D01*
X35706Y-12157D01*
X36087Y-11999D01*
X36378Y-11709D01*
X36536Y-11328D01*
X36536Y-10917D01*
X36536Y-11596D01*
X36408Y-11725D01*
X36301Y-11982D01*
X36301Y-12260D01*
X36407Y-12518D01*
X36604Y-12715D01*
X36789Y-12792D01*
X35122Y-12792D01*
X35095Y-12726D01*
X34898Y-12528D01*
X34641Y-12422D01*
X34362Y-12421D01*
X34105Y-12528D01*
X34086Y-12547D01*
X34086Y-11006D01*
X33997Y-10791D01*
X33833Y-10626D01*
X33618Y-10537D01*
X33385Y-10536D01*
X33170Y-10625D01*
X33005Y-10790D01*
X32916Y-11005D01*
X32916Y-11237D01*
X33005Y-11452D01*
X33169Y-11617D01*
X33384Y-11706D01*
X33617Y-11707D01*
X33832Y-11618D01*
X33997Y-11453D01*
X34086Y-11238D01*
X34086Y-11006D01*
X34086Y-12547D01*
X33908Y-12725D01*
X33880Y-12792D01*
X31098Y-12792D01*
X31203Y-12686D01*
X31413Y-12687D01*
X31621Y-12601D01*
X31780Y-12442D01*
X31866Y-12234D01*
X31866Y-12010D01*
X31780Y-11802D01*
X31758Y-11779D01*
X34376Y-9161D01*
X34376Y-9596D01*
X34414Y-9688D01*
X34484Y-9758D01*
X34576Y-9797D01*
X34676Y-9797D01*
X35426Y-9797D01*
X35518Y-9759D01*
X35588Y-9688D01*
X35602Y-9655D01*
X35762Y-9762D01*
X36001Y-9810D01*
X36240Y-9762D01*
X36443Y-9627D01*
X36496Y-9548D01*
X36888Y-9940D01*
X36995Y-10012D01*
X36995Y-10012D01*
X37121Y-10037D01*
X43501Y-10037D01*
X43627Y-10012D01*
X43734Y-9940D01*
X43806Y-9833D01*
X43831Y-9707D01*
X43831Y-9702D01*
X43943Y-9627D01*
X43996Y-9548D01*
X44388Y-9940D01*
X44495Y-10012D01*
X44495Y-10012D01*
X44621Y-10037D01*
X50881Y-10037D01*
X51022Y-10177D01*
X51129Y-10249D01*
X51129Y-10249D01*
X51255Y-10274D01*
X57385Y-10274D01*
X57124Y-10535D01*
X56966Y-10915D01*
X56966Y-11327D01*
X57123Y-11707D01*
X57414Y-11998D01*
X57794Y-12156D01*
X58206Y-12157D01*
X58587Y-11999D01*
X58878Y-11709D01*
X59036Y-11328D01*
X59036Y-10917D01*
X58879Y-10536D01*
X58588Y-10245D01*
X58470Y-10196D01*
X58497Y-10177D01*
X58638Y-10037D01*
X65995Y-10037D01*
X66001Y-10035D01*
X66001Y-10035D01*
X66007Y-10037D01*
X66007Y-10037D01*
X66007Y-10037D01*
X73501Y-10037D01*
X73627Y-10012D01*
X73734Y-9940D01*
X73806Y-9833D01*
X73831Y-9707D01*
X73831Y-9702D01*
X73943Y-9627D01*
X74060Y-9452D01*
X80102Y-9452D01*
X80590Y-9940D01*
X80697Y-10012D01*
X80697Y-10012D01*
X80823Y-10037D01*
X83801Y-10037D01*
X83927Y-10012D01*
X84034Y-9940D01*
X84106Y-9833D01*
X84131Y-9707D01*
X84131Y-9702D01*
X84243Y-9627D01*
X84378Y-9424D01*
X84426Y-9185D01*
X84426Y-9058D01*
X84378Y-8819D01*
X84243Y-8616D01*
X84040Y-8481D01*
X83801Y-8433D01*
X83562Y-8481D01*
X83402Y-8588D01*
X83388Y-8555D01*
X83318Y-8485D01*
X83226Y-8447D01*
X83127Y-8447D01*
X82377Y-8447D01*
X82285Y-8484D01*
X82214Y-8555D01*
X82176Y-8647D01*
X82176Y-8746D01*
X82176Y-9377D01*
X80960Y-9377D01*
X80472Y-8888D01*
X80364Y-8817D01*
X80238Y-8792D01*
X74060Y-8792D01*
X73943Y-8616D01*
X73740Y-8481D01*
X73501Y-8433D01*
X73262Y-8481D01*
X73102Y-8588D01*
X73088Y-8555D01*
X73018Y-8485D01*
X72926Y-8447D01*
X72827Y-8447D01*
X72077Y-8447D01*
X71985Y-8484D01*
X71914Y-8555D01*
X71876Y-8647D01*
X71876Y-8746D01*
X71876Y-9377D01*
X66588Y-9377D01*
X66626Y-9185D01*
X66626Y-9058D01*
X66578Y-8819D01*
X66443Y-8616D01*
X66240Y-8481D01*
X66001Y-8433D01*
X65762Y-8481D01*
X65602Y-8588D01*
X65588Y-8555D01*
X65518Y-8485D01*
X65426Y-8447D01*
X65327Y-8447D01*
X64577Y-8447D01*
X64485Y-8484D01*
X64414Y-8555D01*
X64376Y-8647D01*
X64376Y-8746D01*
X64376Y-9377D01*
X60485Y-9377D01*
X60230Y-9377D01*
X60230Y-5984D01*
X59876Y-5629D01*
X59521Y-5984D01*
X59555Y-6085D01*
X59781Y-6167D01*
X60021Y-6157D01*
X60196Y-6085D01*
X60230Y-5984D01*
X60230Y-9377D01*
X59088Y-9377D01*
X59126Y-9185D01*
X59126Y-9058D01*
X59078Y-8819D01*
X58943Y-8616D01*
X58740Y-8481D01*
X58501Y-8433D01*
X58262Y-8481D01*
X58102Y-8588D01*
X58088Y-8555D01*
X58018Y-8485D01*
X57926Y-8447D01*
X57827Y-8447D01*
X57077Y-8447D01*
X56985Y-8484D01*
X56914Y-8555D01*
X56876Y-8647D01*
X56876Y-8746D01*
X56876Y-9596D01*
X56883Y-9614D01*
X55354Y-9614D01*
X59277Y-5692D01*
X59277Y-5704D01*
X59350Y-5879D01*
X59451Y-5913D01*
X59805Y-5559D01*
X59800Y-5553D01*
X59870Y-5482D01*
X59876Y-5488D01*
X59881Y-5482D01*
X59952Y-5553D01*
X59947Y-5559D01*
X60301Y-5913D01*
X60402Y-5879D01*
X60485Y-5653D01*
X60475Y-5413D01*
X60402Y-5238D01*
X60301Y-5204D01*
X60311Y-5194D01*
X62039Y-5194D01*
X62008Y-5225D01*
X61901Y-5482D01*
X61901Y-5760D01*
X62007Y-6018D01*
X62204Y-6215D01*
X62461Y-6321D01*
X62740Y-6322D01*
X62807Y-6294D01*
X62936Y-6423D01*
X63043Y-6495D01*
X63043Y-6495D01*
X63170Y-6520D01*
X69532Y-6520D01*
X69659Y-6495D01*
X69659Y-6495D01*
X69766Y-6423D01*
X69895Y-6294D01*
X69961Y-6321D01*
X70240Y-6322D01*
X70497Y-6215D01*
X70694Y-6019D01*
X70722Y-5952D01*
X76980Y-5952D01*
X77007Y-6018D01*
X77204Y-6215D01*
X77461Y-6321D01*
X77740Y-6322D01*
X77997Y-6215D01*
X78194Y-6019D01*
X78222Y-5952D01*
X84480Y-5952D01*
X84507Y-6018D01*
X84704Y-6215D01*
X84961Y-6321D01*
X85240Y-6322D01*
X85497Y-6215D01*
X85694Y-6019D01*
X85801Y-5761D01*
X85801Y-5483D01*
X85695Y-5226D01*
X85498Y-5028D01*
X85241Y-4922D01*
X84962Y-4921D01*
X84705Y-5028D01*
X84686Y-5047D01*
X84686Y-3506D01*
X84597Y-3291D01*
X84433Y-3126D01*
X84218Y-3037D01*
X83985Y-3036D01*
X83770Y-3125D01*
X83605Y-3290D01*
X83516Y-3505D01*
X83516Y-3737D01*
X83605Y-3952D01*
X83769Y-4117D01*
X83984Y-4206D01*
X84217Y-4207D01*
X84432Y-4118D01*
X84597Y-3953D01*
X84686Y-3738D01*
X84686Y-3506D01*
X84686Y-5047D01*
X84508Y-5225D01*
X84480Y-5292D01*
X80313Y-5292D01*
X80497Y-5215D01*
X80694Y-5019D01*
X80801Y-4761D01*
X80801Y-4483D01*
X80695Y-4226D01*
X80676Y-4207D01*
X80717Y-4207D01*
X80932Y-4118D01*
X81097Y-3953D01*
X81186Y-3738D01*
X81186Y-3506D01*
X81097Y-3291D01*
X80933Y-3126D01*
X80718Y-3037D01*
X80485Y-3036D01*
X80270Y-3125D01*
X80105Y-3290D01*
X80016Y-3505D01*
X80016Y-3737D01*
X80092Y-3922D01*
X79962Y-3921D01*
X79705Y-4028D01*
X79636Y-4096D01*
X79636Y-3417D01*
X79479Y-3036D01*
X79188Y-2745D01*
X78808Y-2587D01*
X78396Y-2586D01*
X78016Y-2744D01*
X77724Y-3035D01*
X77566Y-3415D01*
X77566Y-3827D01*
X77723Y-4207D01*
X78014Y-4498D01*
X78394Y-4656D01*
X78806Y-4657D01*
X79187Y-4499D01*
X79478Y-4209D01*
X79636Y-3828D01*
X79636Y-3417D01*
X79636Y-4096D01*
X79508Y-4225D01*
X79401Y-4482D01*
X79401Y-4760D01*
X79507Y-5018D01*
X79704Y-5215D01*
X79889Y-5292D01*
X78222Y-5292D01*
X78195Y-5226D01*
X77998Y-5028D01*
X77741Y-4922D01*
X77462Y-4921D01*
X77205Y-5028D01*
X77186Y-5047D01*
X77186Y-3506D01*
X77097Y-3291D01*
X76933Y-3126D01*
X76718Y-3037D01*
X76485Y-3036D01*
X76270Y-3125D01*
X76105Y-3290D01*
X76016Y-3505D01*
X76016Y-3737D01*
X76105Y-3952D01*
X76269Y-4117D01*
X76484Y-4206D01*
X76717Y-4207D01*
X76932Y-4118D01*
X77097Y-3953D01*
X77186Y-3738D01*
X77186Y-3506D01*
X77186Y-5047D01*
X77008Y-5225D01*
X76980Y-5292D01*
X72813Y-5292D01*
X72997Y-5215D01*
X73194Y-5019D01*
X73301Y-4761D01*
X73301Y-4483D01*
X73195Y-4226D01*
X73176Y-4207D01*
X73217Y-4207D01*
X73432Y-4118D01*
X73597Y-3953D01*
X73686Y-3738D01*
X73686Y-3506D01*
X73597Y-3291D01*
X73433Y-3126D01*
X73218Y-3037D01*
X72985Y-3036D01*
X72770Y-3125D01*
X72605Y-3290D01*
X72516Y-3505D01*
X72516Y-3737D01*
X72592Y-3922D01*
X72462Y-3921D01*
X72205Y-4028D01*
X72136Y-4096D01*
X72136Y-3417D01*
X71979Y-3036D01*
X71688Y-2745D01*
X71308Y-2587D01*
X70896Y-2586D01*
X70516Y-2744D01*
X70224Y-3035D01*
X70066Y-3415D01*
X70066Y-3827D01*
X70223Y-4207D01*
X70514Y-4498D01*
X70894Y-4656D01*
X71306Y-4657D01*
X71687Y-4499D01*
X71978Y-4209D01*
X72136Y-3828D01*
X72136Y-3417D01*
X72136Y-4096D01*
X72008Y-4225D01*
X71901Y-4482D01*
X71901Y-4760D01*
X72007Y-5018D01*
X72204Y-5215D01*
X72389Y-5292D01*
X70722Y-5292D01*
X70695Y-5226D01*
X70498Y-5028D01*
X70241Y-4922D01*
X69962Y-4921D01*
X69705Y-5028D01*
X69686Y-5047D01*
X69686Y-3506D01*
X69597Y-3291D01*
X69433Y-3126D01*
X69218Y-3037D01*
X68985Y-3036D01*
X68770Y-3125D01*
X68605Y-3290D01*
X68516Y-3505D01*
X68516Y-3737D01*
X68605Y-3952D01*
X68769Y-4117D01*
X68984Y-4206D01*
X69217Y-4207D01*
X69432Y-4118D01*
X69597Y-3953D01*
X69686Y-3738D01*
X69686Y-3506D01*
X69686Y-5047D01*
X69508Y-5225D01*
X69401Y-5482D01*
X69401Y-5760D01*
X69429Y-5827D01*
X69396Y-5860D01*
X67905Y-5860D01*
X67980Y-5679D01*
X67980Y-5439D01*
X67889Y-5217D01*
X67731Y-5058D01*
X67888Y-4901D01*
X67980Y-4679D01*
X67980Y-4439D01*
X67889Y-4217D01*
X67731Y-4058D01*
X67888Y-3901D01*
X67980Y-3679D01*
X67980Y-3439D01*
X67889Y-3217D01*
X67731Y-3058D01*
X67888Y-2901D01*
X67980Y-2679D01*
X67980Y-2439D01*
X67889Y-2217D01*
X67731Y-2058D01*
X67888Y-1901D01*
X67980Y-1679D01*
X67980Y-1439D01*
X67947Y-1359D01*
X69976Y-1359D01*
X69976Y-2096D01*
X70014Y-2188D01*
X70084Y-2258D01*
X70176Y-2297D01*
X70276Y-2297D01*
X71026Y-2297D01*
X71118Y-2259D01*
X71188Y-2188D01*
X71202Y-2155D01*
X71362Y-2262D01*
X71601Y-2310D01*
X71840Y-2262D01*
X72043Y-2127D01*
X72096Y-2048D01*
X72488Y-2440D01*
X72595Y-2512D01*
X72595Y-2512D01*
X72721Y-2537D01*
X79101Y-2537D01*
X79227Y-2512D01*
X79334Y-2440D01*
X79406Y-2333D01*
X79431Y-2207D01*
X79431Y-2202D01*
X79543Y-2127D01*
X79678Y-1924D01*
X79726Y-1685D01*
X79726Y-1558D01*
X79678Y-1319D01*
X79545Y-1119D01*
X84097Y-1119D01*
X84833Y-1855D01*
X84833Y-1855D01*
X84940Y-1926D01*
X84940Y-1926D01*
X84976Y-1934D01*
X84976Y-2096D01*
X85014Y-2188D01*
X85084Y-2258D01*
X85176Y-2297D01*
X85276Y-2297D01*
X86026Y-2297D01*
X86118Y-2259D01*
X86188Y-2188D01*
X86202Y-2155D01*
X86362Y-2262D01*
X86601Y-2310D01*
X86840Y-2262D01*
X87043Y-2127D01*
X87178Y-1924D01*
X87226Y-1685D01*
X87226Y-1558D01*
X87178Y-1319D01*
X87043Y-1116D01*
X86840Y-981D01*
X86601Y-933D01*
X86362Y-981D01*
X86202Y-1088D01*
X86188Y-1055D01*
X86118Y-985D01*
X86026Y-947D01*
X85927Y-947D01*
X85177Y-947D01*
X85085Y-984D01*
X85014Y-1055D01*
X85000Y-1089D01*
X84467Y-556D01*
X84360Y-484D01*
X84234Y-459D01*
X62645Y-459D01*
X62519Y-484D01*
X62412Y-556D01*
X62412Y-556D01*
X60480Y-2487D01*
X60480Y-1439D01*
X60389Y-1217D01*
X60219Y-1047D01*
X59997Y-954D01*
X59756Y-954D01*
X59534Y-1046D01*
X59364Y-1216D01*
X59272Y-1438D01*
X59271Y-1678D01*
X59363Y-1900D01*
X59533Y-2071D01*
X59755Y-2163D01*
X59996Y-2163D01*
X60218Y-2071D01*
X60388Y-1901D01*
X60480Y-1679D01*
X60480Y-1439D01*
X60480Y-2487D01*
X60008Y-2959D01*
X59997Y-2954D01*
X59756Y-2954D01*
X59534Y-3046D01*
X59364Y-3216D01*
X59272Y-3438D01*
X59271Y-3678D01*
X59363Y-3900D01*
X59533Y-4071D01*
X59598Y-4097D01*
X58686Y-5009D01*
X58686Y-3506D01*
X58597Y-3291D01*
X58433Y-3126D01*
X58218Y-3037D01*
X57985Y-3036D01*
X57770Y-3125D01*
X57605Y-3290D01*
X57516Y-3505D01*
X57516Y-3737D01*
X57592Y-3922D01*
X57462Y-3921D01*
X57226Y-4019D01*
X57226Y-1685D01*
X57226Y-1558D01*
X57178Y-1319D01*
X57043Y-1116D01*
X56840Y-981D01*
X56601Y-933D01*
X56362Y-981D01*
X56202Y-1088D01*
X56188Y-1055D01*
X56118Y-985D01*
X56026Y-947D01*
X55927Y-947D01*
X55177Y-947D01*
X55085Y-984D01*
X55014Y-1055D01*
X54976Y-1147D01*
X54976Y-1246D01*
X54976Y-1309D01*
X54940Y-1317D01*
X54833Y-1388D01*
X54761Y-1495D01*
X54736Y-1622D01*
X54736Y-3241D01*
X54623Y-3354D01*
X54597Y-3291D01*
X54433Y-3126D01*
X54218Y-3037D01*
X53985Y-3036D01*
X53770Y-3125D01*
X53605Y-3290D01*
X53516Y-3505D01*
X53516Y-3737D01*
X53605Y-3952D01*
X53769Y-4117D01*
X53833Y-4144D01*
X52824Y-5153D01*
X52731Y-5058D01*
X52888Y-4901D01*
X52980Y-4679D01*
X52980Y-4439D01*
X52889Y-4217D01*
X52731Y-4058D01*
X52888Y-3901D01*
X52980Y-3679D01*
X52980Y-3439D01*
X52889Y-3217D01*
X52731Y-3058D01*
X52888Y-2901D01*
X52980Y-2679D01*
X52980Y-2439D01*
X52889Y-2217D01*
X52731Y-2058D01*
X52888Y-1901D01*
X52980Y-1679D01*
X52980Y-1439D01*
X52889Y-1217D01*
X52719Y-1047D01*
X52497Y-954D01*
X52256Y-954D01*
X52034Y-1046D01*
X51864Y-1216D01*
X51772Y-1438D01*
X51771Y-1678D01*
X51863Y-1900D01*
X52021Y-2059D01*
X51864Y-2216D01*
X51859Y-2229D01*
X49391Y-2229D01*
X49543Y-2127D01*
X49678Y-1924D01*
X49726Y-1685D01*
X49726Y-1558D01*
X49678Y-1319D01*
X49543Y-1116D01*
X49340Y-981D01*
X49101Y-933D01*
X48862Y-981D01*
X48702Y-1088D01*
X48688Y-1055D01*
X48618Y-985D01*
X48526Y-947D01*
X48427Y-947D01*
X47677Y-947D01*
X47585Y-984D01*
X47514Y-1055D01*
X47476Y-1147D01*
X47476Y-1246D01*
X47476Y-2096D01*
X47514Y-2188D01*
X47584Y-2258D01*
X47676Y-2297D01*
X47776Y-2297D01*
X48309Y-2297D01*
X48599Y-2587D01*
X48396Y-2586D01*
X48016Y-2744D01*
X47724Y-3035D01*
X47566Y-3415D01*
X47566Y-3827D01*
X47723Y-4207D01*
X48014Y-4498D01*
X48394Y-4656D01*
X48806Y-4657D01*
X49187Y-4499D01*
X49478Y-4209D01*
X49636Y-3828D01*
X49636Y-3417D01*
X49479Y-3036D01*
X49332Y-2889D01*
X51858Y-2889D01*
X51863Y-2900D01*
X52021Y-3059D01*
X51864Y-3216D01*
X51772Y-3438D01*
X51771Y-3678D01*
X51863Y-3900D01*
X52021Y-4059D01*
X51864Y-4216D01*
X51772Y-4438D01*
X51771Y-4678D01*
X51863Y-4900D01*
X52021Y-5059D01*
X51864Y-5216D01*
X51772Y-5438D01*
X51771Y-5678D01*
X51798Y-5743D01*
X51186Y-5743D01*
X51186Y-3506D01*
X51097Y-3291D01*
X50933Y-3126D01*
X50718Y-3037D01*
X50485Y-3036D01*
X50270Y-3125D01*
X50105Y-3290D01*
X50016Y-3505D01*
X50016Y-3737D01*
X50092Y-3922D01*
X49962Y-3921D01*
X49705Y-4028D01*
X49508Y-4225D01*
X49401Y-4482D01*
X49401Y-4760D01*
X49507Y-5018D01*
X49704Y-5215D01*
X49961Y-5321D01*
X50240Y-5322D01*
X50497Y-5215D01*
X50694Y-5019D01*
X50801Y-4761D01*
X50801Y-4483D01*
X50695Y-4226D01*
X50676Y-4207D01*
X50717Y-4207D01*
X50932Y-4118D01*
X51097Y-3953D01*
X51186Y-3738D01*
X51186Y-3506D01*
X51186Y-5743D01*
X48301Y-5743D01*
X48301Y-5483D01*
X48195Y-5226D01*
X47998Y-5028D01*
X47741Y-4922D01*
X47462Y-4921D01*
X47205Y-5028D01*
X47186Y-5047D01*
X47186Y-3506D01*
X47097Y-3291D01*
X46933Y-3126D01*
X46718Y-3037D01*
X46485Y-3036D01*
X46270Y-3125D01*
X46105Y-3290D01*
X46016Y-3505D01*
X46016Y-3737D01*
X46105Y-3952D01*
X46269Y-4117D01*
X46484Y-4206D01*
X46717Y-4207D01*
X46932Y-4118D01*
X47097Y-3953D01*
X47186Y-3738D01*
X47186Y-3506D01*
X47186Y-5047D01*
X47008Y-5225D01*
X46901Y-5482D01*
X46901Y-5760D01*
X47007Y-6018D01*
X47204Y-6215D01*
X47461Y-6321D01*
X47740Y-6322D01*
X47807Y-6294D01*
X47819Y-6306D01*
X47926Y-6378D01*
X47926Y-6378D01*
X48053Y-6403D01*
X54650Y-6403D01*
X54776Y-6378D01*
X54776Y-6378D01*
X54883Y-6306D01*
X54895Y-6294D01*
X54961Y-6321D01*
X55240Y-6322D01*
X55497Y-6215D01*
X55694Y-6019D01*
X55801Y-5761D01*
X55801Y-5483D01*
X55695Y-5226D01*
X55498Y-5028D01*
X55241Y-4922D01*
X54962Y-4921D01*
X54705Y-5028D01*
X54508Y-5225D01*
X54401Y-5482D01*
X54401Y-5743D01*
X53167Y-5743D01*
X55071Y-3839D01*
X55223Y-4207D01*
X55514Y-4498D01*
X55894Y-4656D01*
X56306Y-4657D01*
X56687Y-4499D01*
X56978Y-4209D01*
X57136Y-3828D01*
X57136Y-3417D01*
X56979Y-3036D01*
X56688Y-2745D01*
X56308Y-2587D01*
X55896Y-2586D01*
X55516Y-2744D01*
X55396Y-2863D01*
X55396Y-2297D01*
X56026Y-2297D01*
X56118Y-2259D01*
X56188Y-2188D01*
X56202Y-2155D01*
X56362Y-2262D01*
X56601Y-2310D01*
X56840Y-2262D01*
X57043Y-2127D01*
X57178Y-1924D01*
X57226Y-1685D01*
X57226Y-4019D01*
X57205Y-4028D01*
X57008Y-4225D01*
X56901Y-4482D01*
X56901Y-4760D01*
X57007Y-5018D01*
X57204Y-5215D01*
X57461Y-5321D01*
X57740Y-5322D01*
X57997Y-5215D01*
X58194Y-5019D01*
X58301Y-4761D01*
X58301Y-4483D01*
X58195Y-4226D01*
X58176Y-4207D01*
X58217Y-4207D01*
X58432Y-4118D01*
X58597Y-3953D01*
X58686Y-3738D01*
X58686Y-3506D01*
X58686Y-5009D01*
X55489Y-8206D01*
X49198Y-8206D01*
X43446Y-8206D01*
X45633Y-6019D01*
X45705Y-5912D01*
X45705Y-5912D01*
X45730Y-5786D01*
X45730Y-5082D01*
X45705Y-4956D01*
X45705Y-4956D01*
X45633Y-4849D01*
X45475Y-4691D01*
X45480Y-4679D01*
X45480Y-4439D01*
X45389Y-4217D01*
X45231Y-4058D01*
X45388Y-3901D01*
X45480Y-3679D01*
X45480Y-3439D01*
X45389Y-3217D01*
X45231Y-3058D01*
X45388Y-2901D01*
X45480Y-2679D01*
X45480Y-2439D01*
X45389Y-2217D01*
X45231Y-2058D01*
X45388Y-1901D01*
X45480Y-1679D01*
X45480Y-1439D01*
X45389Y-1217D01*
X45219Y-1047D01*
X44997Y-954D01*
X44756Y-954D01*
X44743Y-959D01*
X44336Y-552D01*
X44229Y-480D01*
X44103Y-455D01*
X30417Y-455D01*
X30415Y-438D01*
X30372Y-333D01*
X30287Y-318D01*
X30333Y-272D01*
X30301Y-241D01*
X88957Y-241D01*
X88949Y-264D01*
X88962Y-442D01*
X89005Y-547D01*
X89090Y-562D01*
X89330Y-322D01*
X89325Y-316D01*
X89396Y-245D01*
X89401Y-251D01*
X89407Y-245D01*
X89477Y-316D01*
X89472Y-322D01*
X89477Y-327D01*
X89407Y-398D01*
X89401Y-392D01*
X89161Y-633D01*
X89175Y-717D01*
X89344Y-774D01*
X89481Y-764D01*
X89481Y-21009D01*
X88043Y-21009D01*
X87571Y-21103D01*
X87170Y-21371D01*
X86903Y-21771D01*
X86809Y-22244D01*
X86903Y-22716D01*
X87170Y-23117D01*
X87571Y-23384D01*
X88043Y-23478D01*
X89481Y-23478D01*
X89481Y-29027D01*
X89481Y-29027D01*
G37*
G54D25*
X89481Y-29027D02*
X89458Y-29020D01*
X89281Y-29032D01*
X89175Y-29076D01*
X89161Y-29160D01*
X89401Y-29401D01*
X89407Y-29395D01*
X89477Y-29466D01*
X89472Y-29472D01*
X89477Y-29477D01*
X89407Y-29548D01*
X89401Y-29542D01*
X89396Y-29548D01*
X89325Y-29477D01*
X89330Y-29472D01*
X89090Y-29231D01*
X89005Y-29246D01*
X88949Y-29414D01*
X88959Y-29552D01*
X87736Y-29552D01*
X87736Y-26006D01*
X87647Y-25791D01*
X87482Y-25626D01*
X87268Y-25537D01*
X87035Y-25536D01*
X86820Y-25625D01*
X86655Y-25790D01*
X86566Y-26005D01*
X86566Y-26237D01*
X86642Y-26422D01*
X86512Y-26421D01*
X86255Y-26528D01*
X86186Y-26596D01*
X86186Y-25917D01*
X86029Y-25536D01*
X85738Y-25245D01*
X85357Y-25087D01*
X84946Y-25086D01*
X84565Y-25244D01*
X84274Y-25535D01*
X84116Y-25915D01*
X84116Y-26327D01*
X84273Y-26707D01*
X84564Y-26998D01*
X84944Y-27156D01*
X85356Y-27157D01*
X85736Y-26999D01*
X86028Y-26709D01*
X86186Y-26328D01*
X86186Y-25917D01*
X86186Y-26596D01*
X86058Y-26725D01*
X85951Y-26982D01*
X85951Y-27260D01*
X86057Y-27518D01*
X86254Y-27715D01*
X86511Y-27821D01*
X86789Y-27822D01*
X87047Y-27715D01*
X87244Y-27519D01*
X87351Y-27261D01*
X87351Y-26983D01*
X87244Y-26726D01*
X87226Y-26707D01*
X87267Y-26707D01*
X87482Y-26618D01*
X87646Y-26453D01*
X87736Y-26238D01*
X87736Y-26006D01*
X87736Y-29552D01*
X67759Y-29552D01*
X67782Y-29543D01*
X68021Y-29304D01*
X68151Y-28991D01*
X68151Y-28653D01*
X68022Y-28341D01*
X67783Y-28101D01*
X67471Y-27972D01*
X67133Y-27971D01*
X66820Y-28101D01*
X66581Y-28339D01*
X66451Y-28652D01*
X66451Y-28990D01*
X66580Y-29302D01*
X66819Y-29542D01*
X66844Y-29552D01*
X62382Y-29552D01*
X63013Y-28921D01*
X63082Y-28921D01*
X63246Y-28853D01*
X63372Y-28727D01*
X63440Y-28563D01*
X63440Y-28386D01*
X63372Y-28221D01*
X63247Y-28095D01*
X63083Y-28027D01*
X62905Y-28027D01*
X62741Y-28095D01*
X62688Y-28148D01*
X62620Y-27985D01*
X62513Y-27877D01*
X74090Y-27877D01*
X74129Y-27916D01*
X74101Y-27982D01*
X74101Y-28260D01*
X74207Y-28518D01*
X74404Y-28715D01*
X74661Y-28821D01*
X74940Y-28822D01*
X75197Y-28715D01*
X75394Y-28519D01*
X75422Y-28452D01*
X83530Y-28452D01*
X83557Y-28518D01*
X83754Y-28715D01*
X84011Y-28821D01*
X84289Y-28822D01*
X84547Y-28715D01*
X84744Y-28519D01*
X84851Y-28261D01*
X84851Y-27983D01*
X84744Y-27726D01*
X84548Y-27528D01*
X84291Y-27422D01*
X84012Y-27421D01*
X83755Y-27528D01*
X83736Y-27547D01*
X83736Y-26006D01*
X83647Y-25791D01*
X83482Y-25626D01*
X83268Y-25537D01*
X83035Y-25536D01*
X82820Y-25625D01*
X82655Y-25790D01*
X82566Y-26005D01*
X82566Y-26237D01*
X82654Y-26452D01*
X82819Y-26617D01*
X83034Y-26706D01*
X83267Y-26707D01*
X83482Y-26618D01*
X83646Y-26453D01*
X83736Y-26238D01*
X83736Y-26006D01*
X83736Y-27547D01*
X83558Y-27725D01*
X83530Y-27792D01*
X77513Y-27792D01*
X77697Y-27715D01*
X77894Y-27519D01*
X78001Y-27261D01*
X78001Y-26983D01*
X77895Y-26726D01*
X77876Y-26707D01*
X77917Y-26707D01*
X78132Y-26618D01*
X78297Y-26453D01*
X78386Y-26238D01*
X78386Y-26006D01*
X78297Y-25791D01*
X78133Y-25626D01*
X78066Y-25598D01*
X80952Y-22712D01*
X85319Y-22712D01*
X85368Y-22760D01*
X85493Y-22812D01*
X84859Y-23447D01*
X84226Y-23447D01*
X84134Y-23484D01*
X84064Y-23555D01*
X84026Y-23647D01*
X84026Y-23746D01*
X84026Y-24596D01*
X84064Y-24688D01*
X84134Y-24758D01*
X84226Y-24797D01*
X84325Y-24797D01*
X85075Y-24797D01*
X85167Y-24759D01*
X85237Y-24688D01*
X85251Y-24655D01*
X85412Y-24762D01*
X85651Y-24810D01*
X85890Y-24762D01*
X86093Y-24627D01*
X86228Y-24424D01*
X86276Y-24185D01*
X86276Y-24058D01*
X86228Y-23819D01*
X86093Y-23616D01*
X85890Y-23481D01*
X85780Y-23459D01*
X86212Y-23027D01*
X86284Y-22920D01*
X86284Y-22920D01*
X86309Y-22794D01*
X86309Y-20626D01*
X86309Y-20626D01*
X86309Y-20626D01*
X86304Y-20601D01*
X86284Y-20500D01*
X86284Y-20500D01*
X86212Y-20393D01*
X86212Y-20393D01*
X85456Y-19636D01*
X85651Y-19555D01*
X85894Y-19656D01*
X86001Y-19656D01*
X86001Y-19760D01*
X86107Y-20018D01*
X86304Y-20215D01*
X86561Y-20321D01*
X86840Y-20322D01*
X87097Y-20215D01*
X87151Y-20161D01*
X87204Y-20215D01*
X87461Y-20321D01*
X87740Y-20322D01*
X87997Y-20215D01*
X88194Y-20019D01*
X88301Y-19761D01*
X88301Y-19483D01*
X88195Y-19226D01*
X88176Y-19207D01*
X88217Y-19207D01*
X88432Y-19118D01*
X88597Y-18953D01*
X88686Y-18738D01*
X88686Y-18506D01*
X88686Y-3506D01*
X88597Y-3291D01*
X88433Y-3126D01*
X88218Y-3037D01*
X87985Y-3036D01*
X87770Y-3125D01*
X87605Y-3290D01*
X87516Y-3505D01*
X87516Y-3737D01*
X87592Y-3922D01*
X87462Y-3921D01*
X87205Y-4028D01*
X87136Y-4096D01*
X87136Y-3417D01*
X86979Y-3036D01*
X86688Y-2745D01*
X86308Y-2587D01*
X85896Y-2586D01*
X85516Y-2744D01*
X85224Y-3035D01*
X85066Y-3415D01*
X85066Y-3827D01*
X85223Y-4207D01*
X85514Y-4498D01*
X85894Y-4656D01*
X86306Y-4657D01*
X86687Y-4499D01*
X86978Y-4209D01*
X87136Y-3828D01*
X87136Y-3417D01*
X87136Y-4096D01*
X87008Y-4225D01*
X86901Y-4482D01*
X86901Y-4760D01*
X87007Y-5018D01*
X87204Y-5215D01*
X87461Y-5321D01*
X87740Y-5322D01*
X87997Y-5215D01*
X88194Y-5019D01*
X88301Y-4761D01*
X88301Y-4483D01*
X88195Y-4226D01*
X88176Y-4207D01*
X88217Y-4207D01*
X88432Y-4118D01*
X88597Y-3953D01*
X88686Y-3738D01*
X88686Y-3506D01*
X88686Y-18506D01*
X88597Y-18291D01*
X88433Y-18126D01*
X88218Y-18037D01*
X87985Y-18036D01*
X87770Y-18125D01*
X87651Y-18244D01*
X87533Y-18126D01*
X87318Y-18037D01*
X87085Y-18036D01*
X86995Y-18074D01*
X86979Y-18036D01*
X86688Y-17745D01*
X86308Y-17587D01*
X85896Y-17586D01*
X85651Y-17688D01*
X85408Y-17587D01*
X84996Y-17586D01*
X84616Y-17744D01*
X84324Y-18035D01*
X84308Y-18074D01*
X84218Y-18037D01*
X83985Y-18036D01*
X83770Y-18125D01*
X83651Y-18244D01*
X83533Y-18126D01*
X83318Y-18037D01*
X83085Y-18036D01*
X82870Y-18125D01*
X82705Y-18290D01*
X82616Y-18505D01*
X82616Y-18737D01*
X82705Y-18952D01*
X82869Y-19117D01*
X83084Y-19206D01*
X83317Y-19207D01*
X83532Y-19118D01*
X83651Y-18999D01*
X83769Y-19117D01*
X83984Y-19206D01*
X84217Y-19207D01*
X84307Y-19169D01*
X84323Y-19207D01*
X84425Y-19309D01*
X82575Y-19309D01*
X80295Y-17029D01*
X80188Y-16957D01*
X80160Y-16952D01*
X84142Y-16952D01*
X84259Y-17127D01*
X84462Y-17262D01*
X84701Y-17310D01*
X84940Y-17262D01*
X85029Y-17203D01*
X85084Y-17258D01*
X85176Y-17297D01*
X85276Y-17297D01*
X85376Y-17297D01*
X86026Y-17297D01*
X86126Y-17297D01*
X86218Y-17259D01*
X86273Y-17203D01*
X86362Y-17262D01*
X86601Y-17310D01*
X86840Y-17262D01*
X87043Y-17127D01*
X87178Y-16924D01*
X87226Y-16685D01*
X87226Y-16558D01*
X87178Y-16319D01*
X87043Y-16116D01*
X86840Y-15981D01*
X86601Y-15933D01*
X86362Y-15981D01*
X86273Y-16040D01*
X86218Y-15985D01*
X86126Y-15947D01*
X86027Y-15947D01*
X85927Y-15947D01*
X85277Y-15947D01*
X85177Y-15947D01*
X85085Y-15984D01*
X85029Y-16040D01*
X84940Y-15981D01*
X84701Y-15933D01*
X84462Y-15981D01*
X84259Y-16116D01*
X84142Y-16292D01*
X78710Y-16292D01*
X78593Y-16116D01*
X78390Y-15981D01*
X78151Y-15933D01*
X77912Y-15981D01*
X77791Y-16062D01*
X77788Y-16055D01*
X77718Y-15985D01*
X77626Y-15947D01*
X77527Y-15947D01*
X77476Y-15947D01*
X76777Y-15947D01*
X76726Y-15947D01*
X76634Y-15984D01*
X76564Y-16055D01*
X76561Y-16062D01*
X76440Y-15981D01*
X76201Y-15933D01*
X75962Y-15981D01*
X75759Y-16116D01*
X75642Y-16292D01*
X74096Y-16292D01*
X74096Y-16253D01*
X74574Y-15774D01*
X86728Y-15774D01*
X86776Y-15823D01*
X86941Y-15891D01*
X87118Y-15891D01*
X87283Y-15823D01*
X87409Y-15698D01*
X87477Y-15534D01*
X87477Y-15356D01*
X87409Y-15192D01*
X87283Y-15066D01*
X87119Y-14998D01*
X86941Y-14997D01*
X86777Y-15065D01*
X86728Y-15114D01*
X85886Y-15114D01*
X85886Y-11006D01*
X85797Y-10791D01*
X85633Y-10626D01*
X85418Y-10537D01*
X85185Y-10536D01*
X84970Y-10625D01*
X84805Y-10790D01*
X84716Y-11005D01*
X84716Y-11237D01*
X84792Y-11422D01*
X84662Y-11421D01*
X84405Y-11528D01*
X84336Y-11596D01*
X84336Y-10917D01*
X84179Y-10536D01*
X83888Y-10245D01*
X83508Y-10087D01*
X83096Y-10086D01*
X82716Y-10244D01*
X82424Y-10535D01*
X82266Y-10915D01*
X82266Y-11327D01*
X82423Y-11707D01*
X82714Y-11998D01*
X83094Y-12156D01*
X83506Y-12157D01*
X83887Y-11999D01*
X84178Y-11709D01*
X84336Y-11328D01*
X84336Y-10917D01*
X84336Y-11596D01*
X84208Y-11725D01*
X84101Y-11982D01*
X84101Y-12260D01*
X84207Y-12518D01*
X84404Y-12715D01*
X84661Y-12821D01*
X84940Y-12822D01*
X85197Y-12715D01*
X85394Y-12519D01*
X85501Y-12261D01*
X85501Y-11983D01*
X85395Y-11726D01*
X85376Y-11707D01*
X85417Y-11707D01*
X85632Y-11618D01*
X85797Y-11453D01*
X85886Y-11238D01*
X85886Y-11006D01*
X85886Y-15114D01*
X74438Y-15114D01*
X74311Y-15139D01*
X74204Y-15211D01*
X74204Y-15211D01*
X73992Y-15423D01*
X73872Y-15303D01*
X73708Y-15235D01*
X73530Y-15235D01*
X73366Y-15303D01*
X73317Y-15352D01*
X69641Y-15352D01*
X69515Y-15377D01*
X69408Y-15448D01*
X68909Y-15947D01*
X68277Y-15947D01*
X68185Y-15984D01*
X68114Y-16055D01*
X68076Y-16147D01*
X68076Y-16246D01*
X68076Y-16877D01*
X63458Y-16877D01*
X62970Y-16388D01*
X62862Y-16317D01*
X62764Y-16297D01*
X62643Y-16116D01*
X62440Y-15981D01*
X62201Y-15933D01*
X61962Y-15981D01*
X61802Y-16088D01*
X61788Y-16055D01*
X61718Y-15985D01*
X61626Y-15947D01*
X61527Y-15947D01*
X61311Y-15947D01*
X62970Y-14287D01*
X64464Y-14287D01*
X64492Y-14316D01*
X64657Y-14384D01*
X64834Y-14384D01*
X64999Y-14316D01*
X65124Y-14191D01*
X65193Y-14027D01*
X65193Y-13849D01*
X65125Y-13685D01*
X65027Y-13586D01*
X65094Y-13519D01*
X65122Y-13452D01*
X71380Y-13452D01*
X71407Y-13518D01*
X71604Y-13715D01*
X71861Y-13821D01*
X72140Y-13822D01*
X72397Y-13715D01*
X72594Y-13519D01*
X72622Y-13452D01*
X81680Y-13452D01*
X81707Y-13518D01*
X81904Y-13715D01*
X82161Y-13821D01*
X82440Y-13822D01*
X82697Y-13715D01*
X82894Y-13519D01*
X83001Y-13261D01*
X83001Y-12983D01*
X82895Y-12726D01*
X82698Y-12528D01*
X82441Y-12422D01*
X82162Y-12421D01*
X81905Y-12528D01*
X81886Y-12547D01*
X81886Y-11006D01*
X81797Y-10791D01*
X81633Y-10626D01*
X81418Y-10537D01*
X81185Y-10536D01*
X80970Y-10625D01*
X80805Y-10790D01*
X80716Y-11005D01*
X80716Y-11237D01*
X80805Y-11452D01*
X80969Y-11617D01*
X81184Y-11706D01*
X81417Y-11707D01*
X81632Y-11618D01*
X81797Y-11453D01*
X81886Y-11238D01*
X81886Y-11006D01*
X81886Y-12547D01*
X81708Y-12725D01*
X81680Y-12792D01*
X80329Y-12792D01*
X80329Y-10799D01*
X80082Y-10201D01*
X79624Y-9742D01*
X79026Y-9494D01*
X78379Y-9493D01*
X77780Y-9741D01*
X77322Y-10198D01*
X77073Y-10796D01*
X77073Y-11444D01*
X77320Y-12043D01*
X77778Y-12501D01*
X78376Y-12749D01*
X79023Y-12750D01*
X79622Y-12503D01*
X80080Y-12045D01*
X80329Y-11447D01*
X80329Y-10799D01*
X80329Y-12792D01*
X74713Y-12792D01*
X74897Y-12715D01*
X75094Y-12519D01*
X75201Y-12261D01*
X75201Y-11983D01*
X75095Y-11726D01*
X75076Y-11707D01*
X75117Y-11707D01*
X75332Y-11618D01*
X75497Y-11453D01*
X75586Y-11238D01*
X75586Y-11006D01*
X75497Y-10791D01*
X75333Y-10626D01*
X75118Y-10537D01*
X74885Y-10536D01*
X74670Y-10625D01*
X74505Y-10790D01*
X74416Y-11005D01*
X74416Y-11237D01*
X74492Y-11422D01*
X74362Y-11421D01*
X74105Y-11528D01*
X74036Y-11596D01*
X74036Y-10917D01*
X73879Y-10536D01*
X73588Y-10245D01*
X73208Y-10087D01*
X72796Y-10086D01*
X72416Y-10244D01*
X72124Y-10535D01*
X71966Y-10915D01*
X71966Y-11327D01*
X72123Y-11707D01*
X72414Y-11998D01*
X72794Y-12156D01*
X73206Y-12157D01*
X73587Y-11999D01*
X73878Y-11709D01*
X74036Y-11328D01*
X74036Y-10917D01*
X74036Y-11596D01*
X73908Y-11725D01*
X73801Y-11982D01*
X73801Y-12260D01*
X73907Y-12518D01*
X74104Y-12715D01*
X74289Y-12792D01*
X72622Y-12792D01*
X72595Y-12726D01*
X72398Y-12528D01*
X72141Y-12422D01*
X71862Y-12421D01*
X71605Y-12528D01*
X71586Y-12547D01*
X71586Y-11006D01*
X71497Y-10791D01*
X71333Y-10626D01*
X71118Y-10537D01*
X70885Y-10536D01*
X70670Y-10625D01*
X70505Y-10790D01*
X70416Y-11005D01*
X70416Y-11237D01*
X70505Y-11452D01*
X70669Y-11617D01*
X70884Y-11706D01*
X71117Y-11707D01*
X71332Y-11618D01*
X71497Y-11453D01*
X71586Y-11238D01*
X71586Y-11006D01*
X71586Y-12547D01*
X71408Y-12725D01*
X71380Y-12792D01*
X67213Y-12792D01*
X67397Y-12715D01*
X67594Y-12519D01*
X67701Y-12261D01*
X67701Y-11983D01*
X67595Y-11726D01*
X67576Y-11707D01*
X67617Y-11707D01*
X67832Y-11618D01*
X67997Y-11453D01*
X68086Y-11238D01*
X68086Y-11006D01*
X67997Y-10791D01*
X67833Y-10626D01*
X67618Y-10537D01*
X67385Y-10536D01*
X67170Y-10625D01*
X67005Y-10790D01*
X66916Y-11005D01*
X66916Y-11237D01*
X66992Y-11422D01*
X66862Y-11421D01*
X66605Y-11528D01*
X66536Y-11596D01*
X66536Y-10917D01*
X66379Y-10536D01*
X66088Y-10245D01*
X65708Y-10087D01*
X65296Y-10086D01*
X64916Y-10244D01*
X64624Y-10535D01*
X64466Y-10915D01*
X64466Y-11327D01*
X64623Y-11707D01*
X64914Y-11998D01*
X65294Y-12156D01*
X65706Y-12157D01*
X66087Y-11999D01*
X66378Y-11709D01*
X66536Y-11328D01*
X66536Y-10917D01*
X66536Y-11596D01*
X66408Y-11725D01*
X66301Y-11982D01*
X66301Y-12260D01*
X66407Y-12518D01*
X66604Y-12715D01*
X66789Y-12792D01*
X65122Y-12792D01*
X65095Y-12726D01*
X64898Y-12528D01*
X64641Y-12422D01*
X64362Y-12421D01*
X64105Y-12528D01*
X64086Y-12547D01*
X64086Y-11006D01*
X63997Y-10791D01*
X63833Y-10626D01*
X63618Y-10537D01*
X63385Y-10536D01*
X63170Y-10625D01*
X63005Y-10790D01*
X62916Y-11005D01*
X62916Y-11237D01*
X63005Y-11452D01*
X63169Y-11617D01*
X63384Y-11706D01*
X63617Y-11707D01*
X63832Y-11618D01*
X63997Y-11453D01*
X64086Y-11238D01*
X64086Y-11006D01*
X64086Y-12547D01*
X63908Y-12725D01*
X63880Y-12792D01*
X59713Y-12792D01*
X59897Y-12715D01*
X60094Y-12519D01*
X60201Y-12261D01*
X60201Y-11983D01*
X60095Y-11726D01*
X60076Y-11707D01*
X60117Y-11707D01*
X60332Y-11618D01*
X60497Y-11453D01*
X60586Y-11238D01*
X60586Y-11006D01*
X60497Y-10791D01*
X60333Y-10626D01*
X60118Y-10537D01*
X59885Y-10536D01*
X59670Y-10625D01*
X59505Y-10790D01*
X59416Y-11005D01*
X59416Y-11237D01*
X59492Y-11422D01*
X59362Y-11421D01*
X59105Y-11528D01*
X58908Y-11725D01*
X58801Y-11982D01*
X58801Y-12260D01*
X58907Y-12518D01*
X59104Y-12715D01*
X59289Y-12792D01*
X57622Y-12792D01*
X57595Y-12726D01*
X57398Y-12528D01*
X57141Y-12422D01*
X56862Y-12421D01*
X56605Y-12528D01*
X56586Y-12547D01*
X56586Y-11006D01*
X56497Y-10791D01*
X56333Y-10626D01*
X56118Y-10537D01*
X55885Y-10536D01*
X55670Y-10625D01*
X55505Y-10790D01*
X55416Y-11005D01*
X55416Y-11237D01*
X55505Y-11452D01*
X55669Y-11617D01*
X55884Y-11706D01*
X56117Y-11707D01*
X56332Y-11618D01*
X56497Y-11453D01*
X56586Y-11238D01*
X56586Y-11006D01*
X56586Y-12547D01*
X56408Y-12725D01*
X56380Y-12792D01*
X52213Y-12792D01*
X52397Y-12715D01*
X52594Y-12519D01*
X52701Y-12261D01*
X52701Y-11983D01*
X52595Y-11726D01*
X52576Y-11707D01*
X52617Y-11707D01*
X52832Y-11618D01*
X52997Y-11453D01*
X53086Y-11238D01*
X53086Y-11006D01*
X52997Y-10791D01*
X52833Y-10626D01*
X52618Y-10537D01*
X52385Y-10536D01*
X52170Y-10625D01*
X52005Y-10790D01*
X51916Y-11005D01*
X51916Y-11237D01*
X51992Y-11422D01*
X51862Y-11421D01*
X51605Y-11528D01*
X51536Y-11596D01*
X51536Y-10917D01*
X51379Y-10536D01*
X51088Y-10245D01*
X50708Y-10087D01*
X50296Y-10086D01*
X49916Y-10244D01*
X49624Y-10535D01*
X49466Y-10915D01*
X49466Y-11327D01*
X49623Y-11707D01*
X49914Y-11998D01*
X50294Y-12156D01*
X50706Y-12157D01*
X51087Y-11999D01*
X51378Y-11709D01*
X51536Y-11328D01*
X51536Y-10917D01*
X51536Y-11596D01*
X51408Y-11725D01*
X51301Y-11982D01*
X51301Y-12260D01*
X51407Y-12518D01*
X51604Y-12715D01*
X51789Y-12792D01*
X50122Y-12792D01*
X50095Y-12726D01*
X49898Y-12528D01*
X49641Y-12422D01*
X49362Y-12421D01*
X49105Y-12528D01*
X49086Y-12547D01*
X49086Y-11006D01*
X48997Y-10791D01*
X48833Y-10626D01*
X48618Y-10537D01*
X48385Y-10536D01*
X48170Y-10625D01*
X48005Y-10790D01*
X47916Y-11005D01*
X47916Y-11237D01*
X48005Y-11452D01*
X48169Y-11617D01*
X48384Y-11706D01*
X48617Y-11707D01*
X48832Y-11618D01*
X48997Y-11453D01*
X49086Y-11238D01*
X49086Y-11006D01*
X49086Y-12547D01*
X48908Y-12725D01*
X48880Y-12792D01*
X44713Y-12792D01*
X44897Y-12715D01*
X45094Y-12519D01*
X45201Y-12261D01*
X45201Y-11983D01*
X45095Y-11726D01*
X45076Y-11707D01*
X45117Y-11707D01*
X45332Y-11618D01*
X45497Y-11453D01*
X45586Y-11238D01*
X45586Y-11006D01*
X45497Y-10791D01*
X45333Y-10626D01*
X45118Y-10537D01*
X44885Y-10536D01*
X44670Y-10625D01*
X44505Y-10790D01*
X44416Y-11005D01*
X44416Y-11237D01*
X44492Y-11422D01*
X44362Y-11421D01*
X44105Y-11528D01*
X44036Y-11596D01*
X44036Y-10917D01*
X43879Y-10536D01*
X43588Y-10245D01*
X43208Y-10087D01*
X42796Y-10086D01*
X42416Y-10244D01*
X42124Y-10535D01*
X41966Y-10915D01*
X41966Y-11327D01*
X42123Y-11707D01*
X42414Y-11998D01*
X42794Y-12156D01*
X43206Y-12157D01*
X43587Y-11999D01*
X43878Y-11709D01*
X44036Y-11328D01*
X44036Y-10917D01*
X44036Y-11596D01*
X43908Y-11725D01*
X43801Y-11982D01*
X43801Y-12260D01*
X43907Y-12518D01*
X44104Y-12715D01*
X44289Y-12792D01*
X42622Y-12792D01*
X42595Y-12726D01*
X42398Y-12528D01*
X42141Y-12422D01*
X41862Y-12421D01*
X41605Y-12528D01*
X41586Y-12547D01*
X41586Y-11006D01*
X41497Y-10791D01*
X41333Y-10626D01*
X41118Y-10537D01*
X40885Y-10536D01*
X40670Y-10625D01*
X40505Y-10790D01*
X40416Y-11005D01*
X40416Y-11237D01*
X40505Y-11452D01*
X40669Y-11617D01*
X40884Y-11706D01*
X41117Y-11707D01*
X41332Y-11618D01*
X41497Y-11453D01*
X41586Y-11238D01*
X41586Y-11006D01*
X41586Y-12547D01*
X41408Y-12725D01*
X41380Y-12792D01*
X37213Y-12792D01*
X37397Y-12715D01*
X37594Y-12519D01*
X37701Y-12261D01*
X37701Y-11983D01*
X37595Y-11726D01*
X37576Y-11707D01*
X37617Y-11707D01*
X37832Y-11618D01*
X37997Y-11453D01*
X38086Y-11238D01*
X38086Y-11006D01*
X37997Y-10791D01*
X37833Y-10626D01*
X37618Y-10537D01*
X37385Y-10536D01*
X37170Y-10625D01*
X37005Y-10790D01*
X36916Y-11005D01*
X36916Y-11237D01*
X36992Y-11422D01*
X36862Y-11421D01*
X36605Y-11528D01*
X36536Y-11596D01*
X36536Y-10917D01*
X36379Y-10536D01*
X36088Y-10245D01*
X35708Y-10087D01*
X35296Y-10086D01*
X34916Y-10244D01*
X34624Y-10535D01*
X34466Y-10915D01*
X34466Y-11327D01*
X34623Y-11707D01*
X34914Y-11998D01*
X35294Y-12156D01*
X35706Y-12157D01*
X36087Y-11999D01*
X36378Y-11709D01*
X36536Y-11328D01*
X36536Y-10917D01*
X36536Y-11596D01*
X36408Y-11725D01*
X36301Y-11982D01*
X36301Y-12260D01*
X36407Y-12518D01*
X36604Y-12715D01*
X36789Y-12792D01*
X35122Y-12792D01*
X35095Y-12726D01*
X34898Y-12528D01*
X34641Y-12422D01*
X34362Y-12421D01*
X34105Y-12528D01*
X34086Y-12547D01*
X34086Y-11006D01*
X33997Y-10791D01*
X33833Y-10626D01*
X33618Y-10537D01*
X33385Y-10536D01*
X33170Y-10625D01*
X33005Y-10790D01*
X32916Y-11005D01*
X32916Y-11237D01*
X33005Y-11452D01*
X33169Y-11617D01*
X33384Y-11706D01*
X33617Y-11707D01*
X33832Y-11618D01*
X33997Y-11453D01*
X34086Y-11238D01*
X34086Y-11006D01*
X34086Y-12547D01*
X33908Y-12725D01*
X33880Y-12792D01*
X31098Y-12792D01*
X31203Y-12686D01*
X31413Y-12687D01*
X31621Y-12601D01*
X31780Y-12442D01*
X31866Y-12234D01*
X31866Y-12010D01*
X31780Y-11802D01*
X31758Y-11779D01*
X34376Y-9161D01*
X34376Y-9596D01*
X34414Y-9688D01*
X34484Y-9758D01*
X34576Y-9797D01*
X34676Y-9797D01*
X35426Y-9797D01*
X35518Y-9759D01*
X35588Y-9688D01*
X35602Y-9655D01*
X35762Y-9762D01*
X36001Y-9810D01*
X36240Y-9762D01*
X36443Y-9627D01*
X36496Y-9548D01*
X36888Y-9940D01*
X36995Y-10012D01*
X36995Y-10012D01*
X37121Y-10037D01*
X43501Y-10037D01*
X43627Y-10012D01*
X43734Y-9940D01*
X43806Y-9833D01*
X43831Y-9707D01*
X43831Y-9702D01*
X43943Y-9627D01*
X43996Y-9548D01*
X44388Y-9940D01*
X44495Y-10012D01*
X44495Y-10012D01*
X44621Y-10037D01*
X50881Y-10037D01*
X51022Y-10177D01*
X51129Y-10249D01*
X51129Y-10249D01*
X51255Y-10274D01*
X57385Y-10274D01*
X57124Y-10535D01*
X56966Y-10915D01*
X56966Y-11327D01*
X57123Y-11707D01*
X57414Y-11998D01*
X57794Y-12156D01*
X58206Y-12157D01*
X58587Y-11999D01*
X58878Y-11709D01*
X59036Y-11328D01*
X59036Y-10917D01*
X58879Y-10536D01*
X58588Y-10245D01*
X58470Y-10196D01*
X58497Y-10177D01*
X58638Y-10037D01*
X65995Y-10037D01*
X66001Y-10035D01*
X66001Y-10035D01*
X66007Y-10037D01*
X66007Y-10037D01*
X66007Y-10037D01*
X73501Y-10037D01*
X73627Y-10012D01*
X73734Y-9940D01*
X73806Y-9833D01*
X73831Y-9707D01*
X73831Y-9702D01*
X73943Y-9627D01*
X74060Y-9452D01*
X80102Y-9452D01*
X80590Y-9940D01*
X80697Y-10012D01*
X80697Y-10012D01*
X80823Y-10037D01*
X83801Y-10037D01*
X83927Y-10012D01*
X84034Y-9940D01*
X84106Y-9833D01*
X84131Y-9707D01*
X84131Y-9702D01*
X84243Y-9627D01*
X84378Y-9424D01*
X84426Y-9185D01*
X84426Y-9058D01*
X84378Y-8819D01*
X84243Y-8616D01*
X84040Y-8481D01*
X83801Y-8433D01*
X83562Y-8481D01*
X83402Y-8588D01*
X83388Y-8555D01*
X83318Y-8485D01*
X83226Y-8447D01*
X83127Y-8447D01*
X82377Y-8447D01*
X82285Y-8484D01*
X82214Y-8555D01*
X82176Y-8647D01*
X82176Y-8746D01*
X82176Y-9377D01*
X80960Y-9377D01*
X80472Y-8888D01*
X80364Y-8817D01*
X80238Y-8792D01*
X74060Y-8792D01*
X73943Y-8616D01*
X73740Y-8481D01*
X73501Y-8433D01*
X73262Y-8481D01*
X73102Y-8588D01*
X73088Y-8555D01*
X73018Y-8485D01*
X72926Y-8447D01*
X72827Y-8447D01*
X72077Y-8447D01*
X71985Y-8484D01*
X71914Y-8555D01*
X71876Y-8647D01*
X71876Y-8746D01*
X71876Y-9377D01*
X66588Y-9377D01*
X66626Y-9185D01*
X66626Y-9058D01*
X66578Y-8819D01*
X66443Y-8616D01*
X66240Y-8481D01*
X66001Y-8433D01*
X65762Y-8481D01*
X65602Y-8588D01*
X65588Y-8555D01*
X65518Y-8485D01*
X65426Y-8447D01*
X65327Y-8447D01*
X64577Y-8447D01*
X64485Y-8484D01*
X64414Y-8555D01*
X64376Y-8647D01*
X64376Y-8746D01*
X64376Y-9377D01*
X60485Y-9377D01*
X60230Y-9377D01*
X60230Y-5984D01*
X59876Y-5629D01*
X59521Y-5984D01*
X59555Y-6085D01*
X59781Y-6167D01*
X60021Y-6157D01*
X60196Y-6085D01*
X60230Y-5984D01*
X60230Y-9377D01*
X59088Y-9377D01*
X59126Y-9185D01*
X59126Y-9058D01*
X59078Y-8819D01*
X58943Y-8616D01*
X58740Y-8481D01*
X58501Y-8433D01*
X58262Y-8481D01*
X58102Y-8588D01*
X58088Y-8555D01*
X58018Y-8485D01*
X57926Y-8447D01*
X57827Y-8447D01*
X57077Y-8447D01*
X56985Y-8484D01*
X56914Y-8555D01*
X56876Y-8647D01*
X56876Y-8746D01*
X56876Y-9596D01*
X56883Y-9614D01*
X55354Y-9614D01*
X59277Y-5692D01*
X59277Y-5704D01*
X59350Y-5879D01*
X59451Y-5913D01*
X59805Y-5559D01*
X59800Y-5553D01*
X59870Y-5482D01*
X59876Y-5488D01*
X59881Y-5482D01*
X59952Y-5553D01*
X59947Y-5559D01*
X60301Y-5913D01*
X60402Y-5879D01*
X60485Y-5653D01*
X60475Y-5413D01*
X60402Y-5238D01*
X60301Y-5204D01*
X60311Y-5194D01*
X62039Y-5194D01*
X62008Y-5225D01*
X61901Y-5482D01*
X61901Y-5760D01*
X62007Y-6018D01*
X62204Y-6215D01*
X62461Y-6321D01*
X62740Y-6322D01*
X62807Y-6294D01*
X62936Y-6423D01*
X63043Y-6495D01*
X63043Y-6495D01*
X63170Y-6520D01*
X69532Y-6520D01*
X69659Y-6495D01*
X69659Y-6495D01*
X69766Y-6423D01*
X69895Y-6294D01*
X69961Y-6321D01*
X70240Y-6322D01*
X70497Y-6215D01*
X70694Y-6019D01*
X70722Y-5952D01*
X76980Y-5952D01*
X77007Y-6018D01*
X77204Y-6215D01*
X77461Y-6321D01*
X77740Y-6322D01*
X77997Y-6215D01*
X78194Y-6019D01*
X78222Y-5952D01*
X84480Y-5952D01*
X84507Y-6018D01*
X84704Y-6215D01*
X84961Y-6321D01*
X85240Y-6322D01*
X85497Y-6215D01*
X85694Y-6019D01*
X85801Y-5761D01*
X85801Y-5483D01*
X85695Y-5226D01*
X85498Y-5028D01*
X85241Y-4922D01*
X84962Y-4921D01*
X84705Y-5028D01*
X84686Y-5047D01*
X84686Y-3506D01*
X84597Y-3291D01*
X84433Y-3126D01*
X84218Y-3037D01*
X83985Y-3036D01*
X83770Y-3125D01*
X83605Y-3290D01*
X83516Y-3505D01*
X83516Y-3737D01*
X83605Y-3952D01*
X83769Y-4117D01*
X83984Y-4206D01*
X84217Y-4207D01*
X84432Y-4118D01*
X84597Y-3953D01*
X84686Y-3738D01*
X84686Y-3506D01*
X84686Y-5047D01*
X84508Y-5225D01*
X84480Y-5292D01*
X80313Y-5292D01*
X80497Y-5215D01*
X80694Y-5019D01*
X80801Y-4761D01*
X80801Y-4483D01*
X80695Y-4226D01*
X80676Y-4207D01*
X80717Y-4207D01*
X80932Y-4118D01*
X81097Y-3953D01*
X81186Y-3738D01*
X81186Y-3506D01*
X81097Y-3291D01*
X80933Y-3126D01*
X80718Y-3037D01*
X80485Y-3036D01*
X80270Y-3125D01*
X80105Y-3290D01*
X80016Y-3505D01*
X80016Y-3737D01*
X80092Y-3922D01*
X79962Y-3921D01*
X79705Y-4028D01*
X79636Y-4096D01*
X79636Y-3417D01*
X79479Y-3036D01*
X79188Y-2745D01*
X78808Y-2587D01*
X78396Y-2586D01*
X78016Y-2744D01*
X77724Y-3035D01*
X77566Y-3415D01*
X77566Y-3827D01*
X77723Y-4207D01*
X78014Y-4498D01*
X78394Y-4656D01*
X78806Y-4657D01*
X79187Y-4499D01*
X79478Y-4209D01*
X79636Y-3828D01*
X79636Y-3417D01*
X79636Y-4096D01*
X79508Y-4225D01*
X79401Y-4482D01*
X79401Y-4760D01*
X79507Y-5018D01*
X79704Y-5215D01*
X79889Y-5292D01*
X78222Y-5292D01*
X78195Y-5226D01*
X77998Y-5028D01*
X77741Y-4922D01*
X77462Y-4921D01*
X77205Y-5028D01*
X77186Y-5047D01*
X77186Y-3506D01*
X77097Y-3291D01*
X76933Y-3126D01*
X76718Y-3037D01*
X76485Y-3036D01*
X76270Y-3125D01*
X76105Y-3290D01*
X76016Y-3505D01*
X76016Y-3737D01*
X76105Y-3952D01*
X76269Y-4117D01*
X76484Y-4206D01*
X76717Y-4207D01*
X76932Y-4118D01*
X77097Y-3953D01*
X77186Y-3738D01*
X77186Y-3506D01*
X77186Y-5047D01*
X77008Y-5225D01*
X76980Y-5292D01*
X72813Y-5292D01*
X72997Y-5215D01*
X73194Y-5019D01*
X73301Y-4761D01*
X73301Y-4483D01*
X73195Y-4226D01*
X73176Y-4207D01*
X73217Y-4207D01*
X73432Y-4118D01*
X73597Y-3953D01*
X73686Y-3738D01*
X73686Y-3506D01*
X73597Y-3291D01*
X73433Y-3126D01*
X73218Y-3037D01*
X72985Y-3036D01*
X72770Y-3125D01*
X72605Y-3290D01*
X72516Y-3505D01*
X72516Y-3737D01*
X72592Y-3922D01*
X72462Y-3921D01*
X72205Y-4028D01*
X72136Y-4096D01*
X72136Y-3417D01*
X71979Y-3036D01*
X71688Y-2745D01*
X71308Y-2587D01*
X70896Y-2586D01*
X70516Y-2744D01*
X70224Y-3035D01*
X70066Y-3415D01*
X70066Y-3827D01*
X70223Y-4207D01*
X70514Y-4498D01*
X70894Y-4656D01*
X71306Y-4657D01*
X71687Y-4499D01*
X71978Y-4209D01*
X72136Y-3828D01*
X72136Y-3417D01*
X72136Y-4096D01*
X72008Y-4225D01*
X71901Y-4482D01*
X71901Y-4760D01*
X72007Y-5018D01*
X72204Y-5215D01*
X72389Y-5292D01*
X70722Y-5292D01*
X70695Y-5226D01*
X70498Y-5028D01*
X70241Y-4922D01*
X69962Y-4921D01*
X69705Y-5028D01*
X69686Y-5047D01*
X69686Y-3506D01*
X69597Y-3291D01*
X69433Y-3126D01*
X69218Y-3037D01*
X68985Y-3036D01*
X68770Y-3125D01*
X68605Y-3290D01*
X68516Y-3505D01*
X68516Y-3737D01*
X68605Y-3952D01*
X68769Y-4117D01*
X68984Y-4206D01*
X69217Y-4207D01*
X69432Y-4118D01*
X69597Y-3953D01*
X69686Y-3738D01*
X69686Y-3506D01*
X69686Y-5047D01*
X69508Y-5225D01*
X69401Y-5482D01*
X69401Y-5760D01*
X69429Y-5827D01*
X69396Y-5860D01*
X67905Y-5860D01*
X67980Y-5679D01*
X67980Y-5439D01*
X67889Y-5217D01*
X67731Y-5058D01*
X67888Y-4901D01*
X67980Y-4679D01*
X67980Y-4439D01*
X67889Y-4217D01*
X67731Y-4058D01*
X67888Y-3901D01*
X67980Y-3679D01*
X67980Y-3439D01*
X67889Y-3217D01*
X67731Y-3058D01*
X67888Y-2901D01*
X67980Y-2679D01*
X67980Y-2439D01*
X67889Y-2217D01*
X67731Y-2058D01*
X67888Y-1901D01*
X67980Y-1679D01*
X67980Y-1439D01*
X67947Y-1359D01*
X69976Y-1359D01*
X69976Y-2096D01*
X70014Y-2188D01*
X70084Y-2258D01*
X70176Y-2297D01*
X70276Y-2297D01*
X71026Y-2297D01*
X71118Y-2259D01*
X71188Y-2188D01*
X71202Y-2155D01*
X71362Y-2262D01*
X71601Y-2310D01*
X71840Y-2262D01*
X72043Y-2127D01*
X72096Y-2048D01*
X72488Y-2440D01*
X72595Y-2512D01*
X72595Y-2512D01*
X72721Y-2537D01*
X79101Y-2537D01*
X79227Y-2512D01*
X79334Y-2440D01*
X79406Y-2333D01*
X79431Y-2207D01*
X79431Y-2202D01*
X79543Y-2127D01*
X79678Y-1924D01*
X79726Y-1685D01*
X79726Y-1558D01*
X79678Y-1319D01*
X79545Y-1119D01*
X84097Y-1119D01*
X84833Y-1855D01*
X84833Y-1855D01*
X84940Y-1926D01*
X84940Y-1926D01*
X84976Y-1934D01*
X84976Y-2096D01*
X85014Y-2188D01*
X85084Y-2258D01*
X85176Y-2297D01*
X85276Y-2297D01*
X86026Y-2297D01*
X86118Y-2259D01*
X86188Y-2188D01*
X86202Y-2155D01*
X86362Y-2262D01*
X86601Y-2310D01*
X86840Y-2262D01*
X87043Y-2127D01*
X87178Y-1924D01*
X87226Y-1685D01*
X87226Y-1558D01*
X87178Y-1319D01*
X87043Y-1116D01*
X86840Y-981D01*
X86601Y-933D01*
X86362Y-981D01*
X86202Y-1088D01*
X86188Y-1055D01*
X86118Y-985D01*
X86026Y-947D01*
X85927Y-947D01*
X85177Y-947D01*
X85085Y-984D01*
X85014Y-1055D01*
X85000Y-1089D01*
X84467Y-556D01*
X84360Y-484D01*
X84234Y-459D01*
X62645Y-459D01*
X62519Y-484D01*
X62412Y-556D01*
X62412Y-556D01*
X60480Y-2487D01*
X60480Y-1439D01*
X60389Y-1217D01*
X60219Y-1047D01*
X59997Y-954D01*
X59756Y-954D01*
X59534Y-1046D01*
X59364Y-1216D01*
X59272Y-1438D01*
X59271Y-1678D01*
X59363Y-1900D01*
X59533Y-2071D01*
X59755Y-2163D01*
X59996Y-2163D01*
X60218Y-2071D01*
X60388Y-1901D01*
X60480Y-1679D01*
X60480Y-1439D01*
X60480Y-2487D01*
X60008Y-2959D01*
X59997Y-2954D01*
X59756Y-2954D01*
X59534Y-3046D01*
X59364Y-3216D01*
X59272Y-3438D01*
X59271Y-3678D01*
X59363Y-3900D01*
X59533Y-4071D01*
X59598Y-4097D01*
X58686Y-5009D01*
X58686Y-3506D01*
X58597Y-3291D01*
X58433Y-3126D01*
X58218Y-3037D01*
X57985Y-3036D01*
X57770Y-3125D01*
X57605Y-3290D01*
X57516Y-3505D01*
X57516Y-3737D01*
X57592Y-3922D01*
X57462Y-3921D01*
X57226Y-4019D01*
X57226Y-1685D01*
X57226Y-1558D01*
X57178Y-1319D01*
X57043Y-1116D01*
X56840Y-981D01*
X56601Y-933D01*
X56362Y-981D01*
X56202Y-1088D01*
X56188Y-1055D01*
X56118Y-985D01*
X56026Y-947D01*
X55927Y-947D01*
X55177Y-947D01*
X55085Y-984D01*
X55014Y-1055D01*
X54976Y-1147D01*
X54976Y-1246D01*
X54976Y-1309D01*
X54940Y-1317D01*
X54833Y-1388D01*
X54761Y-1495D01*
X54736Y-1622D01*
X54736Y-3241D01*
X54623Y-3354D01*
X54597Y-3291D01*
X54433Y-3126D01*
X54218Y-3037D01*
X53985Y-3036D01*
X53770Y-3125D01*
X53605Y-3290D01*
X53516Y-3505D01*
X53516Y-3737D01*
X53605Y-3952D01*
X53769Y-4117D01*
X53833Y-4144D01*
X52824Y-5153D01*
X52731Y-5058D01*
X52888Y-4901D01*
X52980Y-4679D01*
X52980Y-4439D01*
X52889Y-4217D01*
X52731Y-4058D01*
X52888Y-3901D01*
X52980Y-3679D01*
X52980Y-3439D01*
X52889Y-3217D01*
X52731Y-3058D01*
X52888Y-2901D01*
X52980Y-2679D01*
X52980Y-2439D01*
X52889Y-2217D01*
X52731Y-2058D01*
X52888Y-1901D01*
X52980Y-1679D01*
X52980Y-1439D01*
X52889Y-1217D01*
X52719Y-1047D01*
X52497Y-954D01*
X52256Y-954D01*
X52034Y-1046D01*
X51864Y-1216D01*
X51772Y-1438D01*
X51771Y-1678D01*
X51863Y-1900D01*
X52021Y-2059D01*
X51864Y-2216D01*
X51859Y-2229D01*
X49391Y-2229D01*
X49543Y-2127D01*
X49678Y-1924D01*
X49726Y-1685D01*
X49726Y-1558D01*
X49678Y-1319D01*
X49543Y-1116D01*
X49340Y-981D01*
X49101Y-933D01*
X48862Y-981D01*
X48702Y-1088D01*
X48688Y-1055D01*
X48618Y-985D01*
X48526Y-947D01*
X48427Y-947D01*
X47677Y-947D01*
X47585Y-984D01*
X47514Y-1055D01*
X47476Y-1147D01*
X47476Y-1246D01*
X47476Y-2096D01*
X47514Y-2188D01*
X47584Y-2258D01*
X47676Y-2297D01*
X47776Y-2297D01*
X48309Y-2297D01*
X48599Y-2587D01*
X48396Y-2586D01*
X48016Y-2744D01*
X47724Y-3035D01*
X47566Y-3415D01*
X47566Y-3827D01*
X47723Y-4207D01*
X48014Y-4498D01*
X48394Y-4656D01*
X48806Y-4657D01*
X49187Y-4499D01*
X49478Y-4209D01*
X49636Y-3828D01*
X49636Y-3417D01*
X49479Y-3036D01*
X49332Y-2889D01*
X51858Y-2889D01*
X51863Y-2900D01*
X52021Y-3059D01*
X51864Y-3216D01*
X51772Y-3438D01*
X51771Y-3678D01*
X51863Y-3900D01*
X52021Y-4059D01*
X51864Y-4216D01*
X51772Y-4438D01*
X51771Y-4678D01*
X51863Y-4900D01*
X52021Y-5059D01*
X51864Y-5216D01*
X51772Y-5438D01*
X51771Y-5678D01*
X51798Y-5743D01*
X51186Y-5743D01*
X51186Y-3506D01*
X51097Y-3291D01*
X50933Y-3126D01*
X50718Y-3037D01*
X50485Y-3036D01*
X50270Y-3125D01*
X50105Y-3290D01*
X50016Y-3505D01*
X50016Y-3737D01*
X50092Y-3922D01*
X49962Y-3921D01*
X49705Y-4028D01*
X49508Y-4225D01*
X49401Y-4482D01*
X49401Y-4760D01*
X49507Y-5018D01*
X49704Y-5215D01*
X49961Y-5321D01*
X50240Y-5322D01*
X50497Y-5215D01*
X50694Y-5019D01*
X50801Y-4761D01*
X50801Y-4483D01*
X50695Y-4226D01*
X50676Y-4207D01*
X50717Y-4207D01*
X50932Y-4118D01*
X51097Y-3953D01*
X51186Y-3738D01*
X51186Y-3506D01*
X51186Y-5743D01*
X48301Y-5743D01*
X48301Y-5483D01*
X48195Y-5226D01*
X47998Y-5028D01*
X47741Y-4922D01*
X47462Y-4921D01*
X47205Y-5028D01*
X47186Y-5047D01*
X47186Y-3506D01*
X47097Y-3291D01*
X46933Y-3126D01*
X46718Y-3037D01*
X46485Y-3036D01*
X46270Y-3125D01*
X46105Y-3290D01*
X46016Y-3505D01*
X46016Y-3737D01*
X46105Y-3952D01*
X46269Y-4117D01*
X46484Y-4206D01*
X46717Y-4207D01*
X46932Y-4118D01*
X47097Y-3953D01*
X47186Y-3738D01*
X47186Y-3506D01*
X47186Y-5047D01*
X47008Y-5225D01*
X46901Y-5482D01*
X46901Y-5760D01*
X47007Y-6018D01*
X47204Y-6215D01*
X47461Y-6321D01*
X47740Y-6322D01*
X47807Y-6294D01*
X47819Y-6306D01*
X47926Y-6378D01*
X47926Y-6378D01*
X48053Y-6403D01*
X54650Y-6403D01*
X54776Y-6378D01*
X54776Y-6378D01*
X54883Y-6306D01*
X54895Y-6294D01*
X54961Y-6321D01*
X55240Y-6322D01*
X55497Y-6215D01*
X55694Y-6019D01*
X55801Y-5761D01*
X55801Y-5483D01*
X55695Y-5226D01*
X55498Y-5028D01*
X55241Y-4922D01*
X54962Y-4921D01*
X54705Y-5028D01*
X54508Y-5225D01*
X54401Y-5482D01*
X54401Y-5743D01*
X53167Y-5743D01*
X55071Y-3839D01*
X55223Y-4207D01*
X55514Y-4498D01*
X55894Y-4656D01*
X56306Y-4657D01*
X56687Y-4499D01*
X56978Y-4209D01*
X57136Y-3828D01*
X57136Y-3417D01*
X56979Y-3036D01*
X56688Y-2745D01*
X56308Y-2587D01*
X55896Y-2586D01*
X55516Y-2744D01*
X55396Y-2863D01*
X55396Y-2297D01*
X56026Y-2297D01*
X56118Y-2259D01*
X56188Y-2188D01*
X56202Y-2155D01*
X56362Y-2262D01*
X56601Y-2310D01*
X56840Y-2262D01*
X57043Y-2127D01*
X57178Y-1924D01*
X57226Y-1685D01*
X57226Y-4019D01*
X57205Y-4028D01*
X57008Y-4225D01*
X56901Y-4482D01*
X56901Y-4760D01*
X57007Y-5018D01*
X57204Y-5215D01*
X57461Y-5321D01*
X57740Y-5322D01*
X57997Y-5215D01*
X58194Y-5019D01*
X58301Y-4761D01*
X58301Y-4483D01*
X58195Y-4226D01*
X58176Y-4207D01*
X58217Y-4207D01*
X58432Y-4118D01*
X58597Y-3953D01*
X58686Y-3738D01*
X58686Y-3506D01*
X58686Y-5009D01*
X55489Y-8206D01*
X49198Y-8206D01*
X43446Y-8206D01*
X45633Y-6019D01*
X45705Y-5912D01*
X45705Y-5912D01*
X45730Y-5786D01*
X45730Y-5082D01*
X45705Y-4956D01*
X45705Y-4956D01*
X45633Y-4849D01*
X45475Y-4691D01*
X45480Y-4679D01*
X45480Y-4439D01*
X45389Y-4217D01*
X45231Y-4058D01*
X45388Y-3901D01*
X45480Y-3679D01*
X45480Y-3439D01*
X45389Y-3217D01*
X45231Y-3058D01*
X45388Y-2901D01*
X45480Y-2679D01*
X45480Y-2439D01*
X45389Y-2217D01*
X45231Y-2058D01*
X45388Y-1901D01*
X45480Y-1679D01*
X45480Y-1439D01*
X45389Y-1217D01*
X45219Y-1047D01*
X44997Y-954D01*
X44756Y-954D01*
X44743Y-959D01*
X44336Y-552D01*
X44229Y-480D01*
X44103Y-455D01*
X30417Y-455D01*
X30415Y-438D01*
X30372Y-333D01*
X30287Y-318D01*
X30333Y-272D01*
X30301Y-241D01*
X88957Y-241D01*
X88949Y-264D01*
X88962Y-442D01*
X89005Y-547D01*
X89090Y-562D01*
X89330Y-322D01*
X89325Y-316D01*
X89396Y-245D01*
X89401Y-251D01*
X89407Y-245D01*
X89477Y-316D01*
X89472Y-322D01*
X89477Y-327D01*
X89407Y-398D01*
X89401Y-392D01*
X89161Y-633D01*
X89175Y-717D01*
X89344Y-774D01*
X89481Y-764D01*
X89481Y-21009D01*
X88043Y-21009D01*
X87571Y-21103D01*
X87170Y-21371D01*
X86903Y-21771D01*
X86809Y-22244D01*
X86903Y-22716D01*
X87170Y-23117D01*
X87571Y-23384D01*
X88043Y-23478D01*
X89481Y-23478D01*
X89481Y-29027D01*
M02*
