G04 (created by PCBNEW (2013-02-13 BZR 3947)-testing) date 11/23/2013 4:30:54 PM*
%MOIN*%
G04 Gerber Fmt 3.4, Leading zero omitted, Abs format*
%FSLAX34Y34*%
G01*
G70*
G90*
G04 APERTURE LIST*
%ADD10C,0*%
%ADD11C,0.00390157*%
%ADD12C,0.008*%
%ADD13C,0.005*%
%ADD14C,0.012*%
%ADD15C,0.00787402*%
%ADD16C,0.00984252*%
%ADD17C,0.0079*%
%ADD18C,0.015*%
%ADD19C,0.011811*%
%ADD20C,0.00393701*%
%ADD21C,0.00625197*%
%ADD22C,0.00590551*%
%ADD23C,0.00885827*%
%ADD24R,0.0473701X0.130047*%
%ADD25R,0.0533X0.0631*%
%ADD26O,0.0828X0.024*%
%ADD27O,0.024X0.0828*%
%ADD28R,0.043X0.063*%
%ADD29R,0.063X0.043*%
%ADD30C,0.0788661*%
%ADD31C,0.0709921*%
%ADD32C,0.098*%
%ADD33C,0.165*%
%ADD34C,0.075*%
%ADD35O,0.083X0.093*%
%ADD36R,0.083X0.093*%
%ADD37O,0.068X0.05*%
%ADD38C,0.0473701*%
%ADD39C,0.2049*%
%ADD40R,0.0887X0.1655*%
%ADD41R,0.0887X0.1458*%
%ADD42O,0.0277008X0.12611*%
%ADD43C,0.0434331*%
%ADD44R,0.0473701X0.0473701*%
%ADD45C,0.0670551*%
%ADD46C,0.128*%
G04 APERTURE END LIST*
G54D10*
G54D11*
X89452Y-29823D02*
X302Y-29823D01*
X89452Y-29823D02*
G75*
G03X89752Y-29523I0J300D01*
G74*
G01*
X89752Y-273D02*
X89752Y-29523D01*
X89752Y-273D02*
G75*
G03X89452Y26I-300J0D01*
G74*
G01*
X302Y26D02*
X89452Y26D01*
X302Y26D02*
G75*
G03X2Y-273I0J-300D01*
G74*
G01*
X2Y-29523D02*
X2Y-273D01*
X2Y-29523D02*
G75*
G03X302Y-29823I299J0D01*
G74*
G01*
G54D12*
X73744Y-10187D02*
X73658Y-10211D01*
X73515Y-10211D01*
X73458Y-10187D01*
X73429Y-10163D01*
X73401Y-10116D01*
X73401Y-10068D01*
X73429Y-10020D01*
X73458Y-9997D01*
X73515Y-9973D01*
X73629Y-9949D01*
X73687Y-9925D01*
X73715Y-9901D01*
X73744Y-9854D01*
X73744Y-9806D01*
X73715Y-9759D01*
X73687Y-9735D01*
X73629Y-9711D01*
X73487Y-9711D01*
X73401Y-9735D01*
X72887Y-9878D02*
X72887Y-10211D01*
X73029Y-9687D02*
X73172Y-10044D01*
X72801Y-10044D01*
X72629Y-9711D02*
X72229Y-9711D01*
X72487Y-10211D01*
X69969Y-17687D02*
X69883Y-17711D01*
X69740Y-17711D01*
X69683Y-17687D01*
X69654Y-17663D01*
X69626Y-17616D01*
X69626Y-17568D01*
X69654Y-17520D01*
X69683Y-17497D01*
X69740Y-17473D01*
X69854Y-17449D01*
X69912Y-17425D01*
X69940Y-17401D01*
X69969Y-17354D01*
X69969Y-17306D01*
X69940Y-17259D01*
X69912Y-17235D01*
X69854Y-17211D01*
X69712Y-17211D01*
X69626Y-17235D01*
X69112Y-17378D02*
X69112Y-17711D01*
X69254Y-17187D02*
X69397Y-17544D01*
X69026Y-17544D01*
X68854Y-17211D02*
X68483Y-17211D01*
X68683Y-17401D01*
X68597Y-17401D01*
X68540Y-17425D01*
X68512Y-17449D01*
X68483Y-17497D01*
X68483Y-17616D01*
X68512Y-17663D01*
X68540Y-17687D01*
X68597Y-17711D01*
X68769Y-17711D01*
X68826Y-17687D01*
X68854Y-17663D01*
X62419Y-17662D02*
X62333Y-17686D01*
X62190Y-17686D01*
X62133Y-17662D01*
X62104Y-17638D01*
X62076Y-17591D01*
X62076Y-17543D01*
X62104Y-17495D01*
X62133Y-17472D01*
X62190Y-17448D01*
X62304Y-17424D01*
X62362Y-17400D01*
X62390Y-17376D01*
X62419Y-17329D01*
X62419Y-17281D01*
X62390Y-17234D01*
X62362Y-17210D01*
X62304Y-17186D01*
X62162Y-17186D01*
X62076Y-17210D01*
X61876Y-17186D02*
X61504Y-17186D01*
X61704Y-17376D01*
X61619Y-17376D01*
X61562Y-17400D01*
X61533Y-17424D01*
X61504Y-17472D01*
X61504Y-17591D01*
X61533Y-17638D01*
X61562Y-17662D01*
X61619Y-17686D01*
X61790Y-17686D01*
X61847Y-17662D01*
X61876Y-17638D01*
X61162Y-17400D02*
X61219Y-17376D01*
X61247Y-17353D01*
X61276Y-17305D01*
X61276Y-17281D01*
X61247Y-17234D01*
X61219Y-17210D01*
X61162Y-17186D01*
X61047Y-17186D01*
X60990Y-17210D01*
X60962Y-17234D01*
X60933Y-17281D01*
X60933Y-17305D01*
X60962Y-17353D01*
X60990Y-17376D01*
X61047Y-17400D01*
X61162Y-17400D01*
X61219Y-17424D01*
X61247Y-17448D01*
X61276Y-17495D01*
X61276Y-17591D01*
X61247Y-17638D01*
X61219Y-17662D01*
X61162Y-17686D01*
X61047Y-17686D01*
X60990Y-17662D01*
X60962Y-17638D01*
X60933Y-17591D01*
X60933Y-17495D01*
X60962Y-17448D01*
X60990Y-17424D01*
X61047Y-17400D01*
X66244Y-10187D02*
X66158Y-10211D01*
X66015Y-10211D01*
X65958Y-10187D01*
X65929Y-10163D01*
X65901Y-10116D01*
X65901Y-10068D01*
X65929Y-10020D01*
X65958Y-9997D01*
X66015Y-9973D01*
X66129Y-9949D01*
X66187Y-9925D01*
X66215Y-9901D01*
X66244Y-9854D01*
X66244Y-9806D01*
X66215Y-9759D01*
X66187Y-9735D01*
X66129Y-9711D01*
X65987Y-9711D01*
X65901Y-9735D01*
X65387Y-9878D02*
X65387Y-10211D01*
X65529Y-9687D02*
X65672Y-10044D01*
X65301Y-10044D01*
X65101Y-9759D02*
X65072Y-9735D01*
X65015Y-9711D01*
X64872Y-9711D01*
X64815Y-9735D01*
X64787Y-9759D01*
X64758Y-9806D01*
X64758Y-9854D01*
X64787Y-9925D01*
X65129Y-10211D01*
X64758Y-10211D01*
X58719Y-10187D02*
X58633Y-10211D01*
X58490Y-10211D01*
X58433Y-10187D01*
X58404Y-10163D01*
X58376Y-10116D01*
X58376Y-10068D01*
X58404Y-10020D01*
X58433Y-9997D01*
X58490Y-9973D01*
X58604Y-9949D01*
X58662Y-9925D01*
X58690Y-9901D01*
X58719Y-9854D01*
X58719Y-9806D01*
X58690Y-9759D01*
X58662Y-9735D01*
X58604Y-9711D01*
X58462Y-9711D01*
X58376Y-9735D01*
X58176Y-9711D02*
X57804Y-9711D01*
X58004Y-9901D01*
X57919Y-9901D01*
X57862Y-9925D01*
X57833Y-9949D01*
X57804Y-9997D01*
X57804Y-10116D01*
X57833Y-10163D01*
X57862Y-10187D01*
X57919Y-10211D01*
X58090Y-10211D01*
X58147Y-10187D01*
X58176Y-10163D01*
X57604Y-9711D02*
X57204Y-9711D01*
X57462Y-10211D01*
X51219Y-10187D02*
X51133Y-10211D01*
X50990Y-10211D01*
X50933Y-10187D01*
X50904Y-10163D01*
X50876Y-10116D01*
X50876Y-10068D01*
X50904Y-10020D01*
X50933Y-9997D01*
X50990Y-9973D01*
X51104Y-9949D01*
X51162Y-9925D01*
X51190Y-9901D01*
X51219Y-9854D01*
X51219Y-9806D01*
X51190Y-9759D01*
X51162Y-9735D01*
X51104Y-9711D01*
X50962Y-9711D01*
X50876Y-9735D01*
X50676Y-9711D02*
X50304Y-9711D01*
X50504Y-9901D01*
X50419Y-9901D01*
X50362Y-9925D01*
X50333Y-9949D01*
X50304Y-9997D01*
X50304Y-10116D01*
X50333Y-10163D01*
X50362Y-10187D01*
X50419Y-10211D01*
X50590Y-10211D01*
X50647Y-10187D01*
X50676Y-10163D01*
X50076Y-9759D02*
X50047Y-9735D01*
X49990Y-9711D01*
X49847Y-9711D01*
X49790Y-9735D01*
X49762Y-9759D01*
X49733Y-9806D01*
X49733Y-9854D01*
X49762Y-9925D01*
X50104Y-10211D01*
X49733Y-10211D01*
X43719Y-10187D02*
X43633Y-10211D01*
X43490Y-10211D01*
X43433Y-10187D01*
X43404Y-10163D01*
X43376Y-10116D01*
X43376Y-10068D01*
X43404Y-10020D01*
X43433Y-9997D01*
X43490Y-9973D01*
X43604Y-9949D01*
X43662Y-9925D01*
X43690Y-9901D01*
X43719Y-9854D01*
X43719Y-9806D01*
X43690Y-9759D01*
X43662Y-9735D01*
X43604Y-9711D01*
X43462Y-9711D01*
X43376Y-9735D01*
X43147Y-9759D02*
X43119Y-9735D01*
X43062Y-9711D01*
X42919Y-9711D01*
X42862Y-9735D01*
X42833Y-9759D01*
X42804Y-9806D01*
X42804Y-9854D01*
X42833Y-9925D01*
X43176Y-10211D01*
X42804Y-10211D01*
X42604Y-9711D02*
X42204Y-9711D01*
X42462Y-10211D01*
X54919Y-17662D02*
X54833Y-17686D01*
X54690Y-17686D01*
X54633Y-17662D01*
X54604Y-17638D01*
X54576Y-17591D01*
X54576Y-17543D01*
X54604Y-17495D01*
X54633Y-17472D01*
X54690Y-17448D01*
X54804Y-17424D01*
X54862Y-17400D01*
X54890Y-17376D01*
X54919Y-17329D01*
X54919Y-17281D01*
X54890Y-17234D01*
X54862Y-17210D01*
X54804Y-17186D01*
X54662Y-17186D01*
X54576Y-17210D01*
X54376Y-17186D02*
X54004Y-17186D01*
X54204Y-17376D01*
X54119Y-17376D01*
X54062Y-17400D01*
X54033Y-17424D01*
X54004Y-17472D01*
X54004Y-17591D01*
X54033Y-17638D01*
X54062Y-17662D01*
X54119Y-17686D01*
X54290Y-17686D01*
X54347Y-17662D01*
X54376Y-17638D01*
X53804Y-17186D02*
X53433Y-17186D01*
X53633Y-17376D01*
X53547Y-17376D01*
X53490Y-17400D01*
X53462Y-17424D01*
X53433Y-17472D01*
X53433Y-17591D01*
X53462Y-17638D01*
X53490Y-17662D01*
X53547Y-17686D01*
X53719Y-17686D01*
X53776Y-17662D01*
X53804Y-17638D01*
X47419Y-17687D02*
X47333Y-17711D01*
X47190Y-17711D01*
X47133Y-17687D01*
X47104Y-17663D01*
X47076Y-17616D01*
X47076Y-17568D01*
X47104Y-17520D01*
X47133Y-17497D01*
X47190Y-17473D01*
X47304Y-17449D01*
X47362Y-17425D01*
X47390Y-17401D01*
X47419Y-17354D01*
X47419Y-17306D01*
X47390Y-17259D01*
X47362Y-17235D01*
X47304Y-17211D01*
X47162Y-17211D01*
X47076Y-17235D01*
X46847Y-17259D02*
X46819Y-17235D01*
X46762Y-17211D01*
X46619Y-17211D01*
X46562Y-17235D01*
X46533Y-17259D01*
X46504Y-17306D01*
X46504Y-17354D01*
X46533Y-17425D01*
X46876Y-17711D01*
X46504Y-17711D01*
X46162Y-17425D02*
X46219Y-17401D01*
X46247Y-17378D01*
X46276Y-17330D01*
X46276Y-17306D01*
X46247Y-17259D01*
X46219Y-17235D01*
X46162Y-17211D01*
X46047Y-17211D01*
X45990Y-17235D01*
X45962Y-17259D01*
X45933Y-17306D01*
X45933Y-17330D01*
X45962Y-17378D01*
X45990Y-17401D01*
X46047Y-17425D01*
X46162Y-17425D01*
X46219Y-17449D01*
X46247Y-17473D01*
X46276Y-17520D01*
X46276Y-17616D01*
X46247Y-17663D01*
X46219Y-17687D01*
X46162Y-17711D01*
X46047Y-17711D01*
X45990Y-17687D01*
X45962Y-17663D01*
X45933Y-17616D01*
X45933Y-17520D01*
X45962Y-17473D01*
X45990Y-17449D01*
X46047Y-17425D01*
X39919Y-17662D02*
X39833Y-17686D01*
X39690Y-17686D01*
X39633Y-17662D01*
X39604Y-17638D01*
X39576Y-17591D01*
X39576Y-17543D01*
X39604Y-17495D01*
X39633Y-17472D01*
X39690Y-17448D01*
X39804Y-17424D01*
X39862Y-17400D01*
X39890Y-17376D01*
X39919Y-17329D01*
X39919Y-17281D01*
X39890Y-17234D01*
X39862Y-17210D01*
X39804Y-17186D01*
X39662Y-17186D01*
X39576Y-17210D01*
X39347Y-17234D02*
X39319Y-17210D01*
X39262Y-17186D01*
X39119Y-17186D01*
X39062Y-17210D01*
X39033Y-17234D01*
X39004Y-17281D01*
X39004Y-17329D01*
X39033Y-17400D01*
X39376Y-17686D01*
X39004Y-17686D01*
X38804Y-17186D02*
X38433Y-17186D01*
X38633Y-17376D01*
X38547Y-17376D01*
X38490Y-17400D01*
X38462Y-17424D01*
X38433Y-17472D01*
X38433Y-17591D01*
X38462Y-17638D01*
X38490Y-17662D01*
X38547Y-17686D01*
X38719Y-17686D01*
X38776Y-17662D01*
X38804Y-17638D01*
X36219Y-10187D02*
X36133Y-10211D01*
X35990Y-10211D01*
X35933Y-10187D01*
X35904Y-10163D01*
X35876Y-10116D01*
X35876Y-10068D01*
X35904Y-10020D01*
X35933Y-9997D01*
X35990Y-9973D01*
X36104Y-9949D01*
X36162Y-9925D01*
X36190Y-9901D01*
X36219Y-9854D01*
X36219Y-9806D01*
X36190Y-9759D01*
X36162Y-9735D01*
X36104Y-9711D01*
X35962Y-9711D01*
X35876Y-9735D01*
X35647Y-9759D02*
X35619Y-9735D01*
X35562Y-9711D01*
X35419Y-9711D01*
X35362Y-9735D01*
X35333Y-9759D01*
X35304Y-9806D01*
X35304Y-9854D01*
X35333Y-9925D01*
X35676Y-10211D01*
X35304Y-10211D01*
X35076Y-9759D02*
X35047Y-9735D01*
X34990Y-9711D01*
X34847Y-9711D01*
X34790Y-9735D01*
X34762Y-9759D01*
X34733Y-9806D01*
X34733Y-9854D01*
X34762Y-9925D01*
X35104Y-10211D01*
X34733Y-10211D01*
X32444Y-17737D02*
X32358Y-17761D01*
X32215Y-17761D01*
X32158Y-17737D01*
X32129Y-17713D01*
X32101Y-17666D01*
X32101Y-17618D01*
X32129Y-17570D01*
X32158Y-17547D01*
X32215Y-17523D01*
X32329Y-17499D01*
X32387Y-17475D01*
X32415Y-17451D01*
X32444Y-17404D01*
X32444Y-17356D01*
X32415Y-17309D01*
X32387Y-17285D01*
X32329Y-17261D01*
X32187Y-17261D01*
X32101Y-17285D01*
X31529Y-17761D02*
X31872Y-17761D01*
X31701Y-17761D02*
X31701Y-17261D01*
X31758Y-17332D01*
X31815Y-17380D01*
X31872Y-17404D01*
X31187Y-17475D02*
X31244Y-17451D01*
X31272Y-17428D01*
X31301Y-17380D01*
X31301Y-17356D01*
X31272Y-17309D01*
X31244Y-17285D01*
X31187Y-17261D01*
X31072Y-17261D01*
X31015Y-17285D01*
X30987Y-17309D01*
X30958Y-17356D01*
X30958Y-17380D01*
X30987Y-17428D01*
X31015Y-17451D01*
X31072Y-17475D01*
X31187Y-17475D01*
X31244Y-17499D01*
X31272Y-17523D01*
X31301Y-17570D01*
X31301Y-17666D01*
X31272Y-17713D01*
X31244Y-17737D01*
X31187Y-17761D01*
X31072Y-17761D01*
X31015Y-17737D01*
X30987Y-17713D01*
X30958Y-17666D01*
X30958Y-17570D01*
X30987Y-17523D01*
X31015Y-17499D01*
X31072Y-17475D01*
X24944Y-17662D02*
X24858Y-17686D01*
X24715Y-17686D01*
X24658Y-17662D01*
X24629Y-17638D01*
X24601Y-17591D01*
X24601Y-17543D01*
X24629Y-17495D01*
X24658Y-17472D01*
X24715Y-17448D01*
X24829Y-17424D01*
X24887Y-17400D01*
X24915Y-17376D01*
X24944Y-17329D01*
X24944Y-17281D01*
X24915Y-17234D01*
X24887Y-17210D01*
X24829Y-17186D01*
X24687Y-17186D01*
X24601Y-17210D01*
X24029Y-17686D02*
X24372Y-17686D01*
X24201Y-17686D02*
X24201Y-17186D01*
X24258Y-17257D01*
X24315Y-17305D01*
X24372Y-17329D01*
X23829Y-17186D02*
X23458Y-17186D01*
X23658Y-17376D01*
X23572Y-17376D01*
X23515Y-17400D01*
X23487Y-17424D01*
X23458Y-17472D01*
X23458Y-17591D01*
X23487Y-17638D01*
X23515Y-17662D01*
X23572Y-17686D01*
X23744Y-17686D01*
X23801Y-17662D01*
X23829Y-17638D01*
X21244Y-10162D02*
X21158Y-10186D01*
X21015Y-10186D01*
X20958Y-10162D01*
X20929Y-10138D01*
X20901Y-10091D01*
X20901Y-10043D01*
X20929Y-9995D01*
X20958Y-9972D01*
X21015Y-9948D01*
X21129Y-9924D01*
X21187Y-9900D01*
X21215Y-9876D01*
X21244Y-9829D01*
X21244Y-9781D01*
X21215Y-9734D01*
X21187Y-9710D01*
X21129Y-9686D01*
X20987Y-9686D01*
X20901Y-9710D01*
X20329Y-10186D02*
X20672Y-10186D01*
X20501Y-10186D02*
X20501Y-9686D01*
X20558Y-9757D01*
X20615Y-9805D01*
X20672Y-9829D01*
X20101Y-9734D02*
X20072Y-9710D01*
X20015Y-9686D01*
X19872Y-9686D01*
X19815Y-9710D01*
X19787Y-9734D01*
X19758Y-9781D01*
X19758Y-9829D01*
X19787Y-9900D01*
X20129Y-10186D01*
X19758Y-10186D01*
X28744Y-10162D02*
X28658Y-10186D01*
X28515Y-10186D01*
X28458Y-10162D01*
X28429Y-10138D01*
X28401Y-10091D01*
X28401Y-10043D01*
X28429Y-9995D01*
X28458Y-9972D01*
X28515Y-9948D01*
X28629Y-9924D01*
X28687Y-9900D01*
X28715Y-9876D01*
X28744Y-9829D01*
X28744Y-9781D01*
X28715Y-9734D01*
X28687Y-9710D01*
X28629Y-9686D01*
X28487Y-9686D01*
X28401Y-9710D01*
X27829Y-10186D02*
X28172Y-10186D01*
X28001Y-10186D02*
X28001Y-9686D01*
X28058Y-9757D01*
X28115Y-9805D01*
X28172Y-9829D01*
X27629Y-9686D02*
X27229Y-9686D01*
X27487Y-10186D01*
X34344Y-2637D02*
X34258Y-2661D01*
X34115Y-2661D01*
X34058Y-2637D01*
X34029Y-2613D01*
X34001Y-2566D01*
X34001Y-2518D01*
X34029Y-2470D01*
X34058Y-2447D01*
X34115Y-2423D01*
X34229Y-2399D01*
X34287Y-2375D01*
X34315Y-2351D01*
X34344Y-2304D01*
X34344Y-2256D01*
X34315Y-2209D01*
X34287Y-2185D01*
X34229Y-2161D01*
X34087Y-2161D01*
X34001Y-2185D01*
X33772Y-2209D02*
X33744Y-2185D01*
X33687Y-2161D01*
X33544Y-2161D01*
X33487Y-2185D01*
X33458Y-2209D01*
X33429Y-2256D01*
X33429Y-2304D01*
X33458Y-2375D01*
X33801Y-2661D01*
X33429Y-2661D01*
X32858Y-2661D02*
X33201Y-2661D01*
X33029Y-2661D02*
X33029Y-2161D01*
X33087Y-2232D01*
X33144Y-2280D01*
X33201Y-2304D01*
X41844Y-2637D02*
X41758Y-2661D01*
X41615Y-2661D01*
X41558Y-2637D01*
X41529Y-2613D01*
X41501Y-2566D01*
X41501Y-2518D01*
X41529Y-2470D01*
X41558Y-2447D01*
X41615Y-2423D01*
X41729Y-2399D01*
X41787Y-2375D01*
X41815Y-2351D01*
X41844Y-2304D01*
X41844Y-2256D01*
X41815Y-2209D01*
X41787Y-2185D01*
X41729Y-2161D01*
X41587Y-2161D01*
X41501Y-2185D01*
X41272Y-2209D02*
X41244Y-2185D01*
X41187Y-2161D01*
X41044Y-2161D01*
X40987Y-2185D01*
X40958Y-2209D01*
X40929Y-2256D01*
X40929Y-2304D01*
X40958Y-2375D01*
X41301Y-2661D01*
X40929Y-2661D01*
X40415Y-2161D02*
X40529Y-2161D01*
X40587Y-2185D01*
X40615Y-2209D01*
X40672Y-2280D01*
X40701Y-2375D01*
X40701Y-2566D01*
X40672Y-2613D01*
X40644Y-2637D01*
X40587Y-2661D01*
X40472Y-2661D01*
X40415Y-2637D01*
X40387Y-2613D01*
X40358Y-2566D01*
X40358Y-2447D01*
X40387Y-2399D01*
X40415Y-2375D01*
X40472Y-2351D01*
X40587Y-2351D01*
X40644Y-2375D01*
X40672Y-2399D01*
X40701Y-2447D01*
X49344Y-2637D02*
X49258Y-2661D01*
X49115Y-2661D01*
X49058Y-2637D01*
X49029Y-2613D01*
X49001Y-2566D01*
X49001Y-2518D01*
X49029Y-2470D01*
X49058Y-2447D01*
X49115Y-2423D01*
X49229Y-2399D01*
X49287Y-2375D01*
X49315Y-2351D01*
X49344Y-2304D01*
X49344Y-2256D01*
X49315Y-2209D01*
X49287Y-2185D01*
X49229Y-2161D01*
X49087Y-2161D01*
X49001Y-2185D01*
X48801Y-2161D02*
X48429Y-2161D01*
X48629Y-2351D01*
X48544Y-2351D01*
X48487Y-2375D01*
X48458Y-2399D01*
X48429Y-2447D01*
X48429Y-2566D01*
X48458Y-2613D01*
X48487Y-2637D01*
X48544Y-2661D01*
X48715Y-2661D01*
X48772Y-2637D01*
X48801Y-2613D01*
X47858Y-2661D02*
X48201Y-2661D01*
X48029Y-2661D02*
X48029Y-2161D01*
X48087Y-2232D01*
X48144Y-2280D01*
X48201Y-2304D01*
X56844Y-2687D02*
X56758Y-2711D01*
X56615Y-2711D01*
X56558Y-2687D01*
X56529Y-2663D01*
X56501Y-2616D01*
X56501Y-2568D01*
X56529Y-2520D01*
X56558Y-2497D01*
X56615Y-2473D01*
X56729Y-2449D01*
X56787Y-2425D01*
X56815Y-2401D01*
X56844Y-2354D01*
X56844Y-2306D01*
X56815Y-2259D01*
X56787Y-2235D01*
X56729Y-2211D01*
X56587Y-2211D01*
X56501Y-2235D01*
X56301Y-2211D02*
X55929Y-2211D01*
X56129Y-2401D01*
X56044Y-2401D01*
X55987Y-2425D01*
X55958Y-2449D01*
X55929Y-2497D01*
X55929Y-2616D01*
X55958Y-2663D01*
X55987Y-2687D01*
X56044Y-2711D01*
X56215Y-2711D01*
X56272Y-2687D01*
X56301Y-2663D01*
X55415Y-2211D02*
X55529Y-2211D01*
X55587Y-2235D01*
X55615Y-2259D01*
X55672Y-2330D01*
X55701Y-2425D01*
X55701Y-2616D01*
X55672Y-2663D01*
X55644Y-2687D01*
X55587Y-2711D01*
X55472Y-2711D01*
X55415Y-2687D01*
X55387Y-2663D01*
X55358Y-2616D01*
X55358Y-2497D01*
X55387Y-2449D01*
X55415Y-2425D01*
X55472Y-2401D01*
X55587Y-2401D01*
X55644Y-2425D01*
X55672Y-2449D01*
X55701Y-2497D01*
X71894Y-2637D02*
X71808Y-2661D01*
X71665Y-2661D01*
X71608Y-2637D01*
X71579Y-2613D01*
X71551Y-2566D01*
X71551Y-2518D01*
X71579Y-2470D01*
X71608Y-2447D01*
X71665Y-2423D01*
X71779Y-2399D01*
X71837Y-2375D01*
X71865Y-2351D01*
X71894Y-2304D01*
X71894Y-2256D01*
X71865Y-2209D01*
X71837Y-2185D01*
X71779Y-2161D01*
X71637Y-2161D01*
X71551Y-2185D01*
X71037Y-2328D02*
X71037Y-2661D01*
X71179Y-2137D02*
X71322Y-2494D01*
X70951Y-2494D01*
X70465Y-2161D02*
X70579Y-2161D01*
X70637Y-2185D01*
X70665Y-2209D01*
X70722Y-2280D01*
X70751Y-2375D01*
X70751Y-2566D01*
X70722Y-2613D01*
X70694Y-2637D01*
X70637Y-2661D01*
X70522Y-2661D01*
X70465Y-2637D01*
X70437Y-2613D01*
X70408Y-2566D01*
X70408Y-2447D01*
X70437Y-2399D01*
X70465Y-2375D01*
X70522Y-2351D01*
X70637Y-2351D01*
X70694Y-2375D01*
X70722Y-2399D01*
X70751Y-2447D01*
X64394Y-2687D02*
X64308Y-2711D01*
X64165Y-2711D01*
X64108Y-2687D01*
X64079Y-2663D01*
X64051Y-2616D01*
X64051Y-2568D01*
X64079Y-2520D01*
X64108Y-2497D01*
X64165Y-2473D01*
X64279Y-2449D01*
X64337Y-2425D01*
X64365Y-2401D01*
X64394Y-2354D01*
X64394Y-2306D01*
X64365Y-2259D01*
X64337Y-2235D01*
X64279Y-2211D01*
X64137Y-2211D01*
X64051Y-2235D01*
X63537Y-2378D02*
X63537Y-2711D01*
X63679Y-2187D02*
X63822Y-2544D01*
X63451Y-2544D01*
X62908Y-2711D02*
X63251Y-2711D01*
X63079Y-2711D02*
X63079Y-2211D01*
X63137Y-2282D01*
X63194Y-2330D01*
X63251Y-2354D01*
X79344Y-2637D02*
X79258Y-2661D01*
X79115Y-2661D01*
X79058Y-2637D01*
X79029Y-2613D01*
X79001Y-2566D01*
X79001Y-2518D01*
X79029Y-2470D01*
X79058Y-2447D01*
X79115Y-2423D01*
X79229Y-2399D01*
X79287Y-2375D01*
X79315Y-2351D01*
X79344Y-2304D01*
X79344Y-2256D01*
X79315Y-2209D01*
X79287Y-2185D01*
X79229Y-2161D01*
X79087Y-2161D01*
X79001Y-2185D01*
X78458Y-2161D02*
X78744Y-2161D01*
X78772Y-2399D01*
X78744Y-2375D01*
X78687Y-2351D01*
X78544Y-2351D01*
X78487Y-2375D01*
X78458Y-2399D01*
X78429Y-2447D01*
X78429Y-2566D01*
X78458Y-2613D01*
X78487Y-2637D01*
X78544Y-2661D01*
X78687Y-2661D01*
X78744Y-2637D01*
X78772Y-2613D01*
X77858Y-2661D02*
X78201Y-2661D01*
X78029Y-2661D02*
X78029Y-2161D01*
X78087Y-2232D01*
X78144Y-2280D01*
X78201Y-2304D01*
X86844Y-2687D02*
X86758Y-2711D01*
X86615Y-2711D01*
X86558Y-2687D01*
X86529Y-2663D01*
X86501Y-2616D01*
X86501Y-2568D01*
X86529Y-2520D01*
X86558Y-2497D01*
X86615Y-2473D01*
X86729Y-2449D01*
X86787Y-2425D01*
X86815Y-2401D01*
X86844Y-2354D01*
X86844Y-2306D01*
X86815Y-2259D01*
X86787Y-2235D01*
X86729Y-2211D01*
X86587Y-2211D01*
X86501Y-2235D01*
X85958Y-2211D02*
X86244Y-2211D01*
X86272Y-2449D01*
X86244Y-2425D01*
X86187Y-2401D01*
X86044Y-2401D01*
X85987Y-2425D01*
X85958Y-2449D01*
X85929Y-2497D01*
X85929Y-2616D01*
X85958Y-2663D01*
X85987Y-2687D01*
X86044Y-2711D01*
X86187Y-2711D01*
X86244Y-2687D01*
X86272Y-2663D01*
X85415Y-2211D02*
X85529Y-2211D01*
X85587Y-2235D01*
X85615Y-2259D01*
X85672Y-2330D01*
X85701Y-2425D01*
X85701Y-2616D01*
X85672Y-2663D01*
X85644Y-2687D01*
X85587Y-2711D01*
X85472Y-2711D01*
X85415Y-2687D01*
X85387Y-2663D01*
X85358Y-2616D01*
X85358Y-2497D01*
X85387Y-2449D01*
X85415Y-2425D01*
X85472Y-2401D01*
X85587Y-2401D01*
X85644Y-2425D01*
X85672Y-2449D01*
X85701Y-2497D01*
X76329Y-17687D02*
X76244Y-17711D01*
X76101Y-17711D01*
X76044Y-17687D01*
X76015Y-17663D01*
X75987Y-17616D01*
X75987Y-17568D01*
X76015Y-17520D01*
X76044Y-17497D01*
X76101Y-17473D01*
X76215Y-17449D01*
X76272Y-17425D01*
X76301Y-17401D01*
X76329Y-17354D01*
X76329Y-17306D01*
X76301Y-17259D01*
X76272Y-17235D01*
X76215Y-17211D01*
X76072Y-17211D01*
X75987Y-17235D01*
X75472Y-17378D02*
X75472Y-17711D01*
X75615Y-17187D02*
X75758Y-17544D01*
X75387Y-17544D01*
X75072Y-17425D02*
X75129Y-17401D01*
X75158Y-17378D01*
X75187Y-17330D01*
X75187Y-17306D01*
X75158Y-17259D01*
X75129Y-17235D01*
X75072Y-17211D01*
X74958Y-17211D01*
X74901Y-17235D01*
X74872Y-17259D01*
X74844Y-17306D01*
X74844Y-17330D01*
X74872Y-17378D01*
X74901Y-17401D01*
X74958Y-17425D01*
X75072Y-17425D01*
X75129Y-17449D01*
X75158Y-17473D01*
X75187Y-17520D01*
X75187Y-17616D01*
X75158Y-17663D01*
X75129Y-17687D01*
X75072Y-17711D01*
X74958Y-17711D01*
X74901Y-17687D01*
X74872Y-17663D01*
X74844Y-17616D01*
X74844Y-17520D01*
X74872Y-17473D01*
X74901Y-17449D01*
X74958Y-17425D01*
X74272Y-17711D02*
X74615Y-17711D01*
X74444Y-17711D02*
X74444Y-17211D01*
X74501Y-17282D01*
X74558Y-17330D01*
X74615Y-17354D01*
X78419Y-17687D02*
X78333Y-17711D01*
X78190Y-17711D01*
X78133Y-17687D01*
X78104Y-17663D01*
X78076Y-17616D01*
X78076Y-17568D01*
X78104Y-17520D01*
X78133Y-17497D01*
X78190Y-17473D01*
X78304Y-17449D01*
X78362Y-17425D01*
X78390Y-17401D01*
X78419Y-17354D01*
X78419Y-17306D01*
X78390Y-17259D01*
X78362Y-17235D01*
X78304Y-17211D01*
X78162Y-17211D01*
X78076Y-17235D01*
X77562Y-17378D02*
X77562Y-17711D01*
X77704Y-17187D02*
X77847Y-17544D01*
X77476Y-17544D01*
X77162Y-17425D02*
X77219Y-17401D01*
X77247Y-17378D01*
X77276Y-17330D01*
X77276Y-17306D01*
X77247Y-17259D01*
X77219Y-17235D01*
X77162Y-17211D01*
X77047Y-17211D01*
X76990Y-17235D01*
X76962Y-17259D01*
X76933Y-17306D01*
X76933Y-17330D01*
X76962Y-17378D01*
X76990Y-17401D01*
X77047Y-17425D01*
X77162Y-17425D01*
X77219Y-17449D01*
X77247Y-17473D01*
X77276Y-17520D01*
X77276Y-17616D01*
X77247Y-17663D01*
X77219Y-17687D01*
X77162Y-17711D01*
X77047Y-17711D01*
X76990Y-17687D01*
X76962Y-17663D01*
X76933Y-17616D01*
X76933Y-17520D01*
X76962Y-17473D01*
X76990Y-17449D01*
X77047Y-17425D01*
X84044Y-10162D02*
X83958Y-10186D01*
X83815Y-10186D01*
X83758Y-10162D01*
X83729Y-10138D01*
X83701Y-10091D01*
X83701Y-10043D01*
X83729Y-9995D01*
X83758Y-9972D01*
X83815Y-9948D01*
X83929Y-9924D01*
X83987Y-9900D01*
X84015Y-9876D01*
X84044Y-9829D01*
X84044Y-9781D01*
X84015Y-9734D01*
X83987Y-9710D01*
X83929Y-9686D01*
X83787Y-9686D01*
X83701Y-9710D01*
X83158Y-9686D02*
X83444Y-9686D01*
X83472Y-9924D01*
X83444Y-9900D01*
X83387Y-9876D01*
X83244Y-9876D01*
X83187Y-9900D01*
X83158Y-9924D01*
X83129Y-9972D01*
X83129Y-10091D01*
X83158Y-10138D01*
X83187Y-10162D01*
X83244Y-10186D01*
X83387Y-10186D01*
X83444Y-10162D01*
X83472Y-10138D01*
X82901Y-9734D02*
X82872Y-9710D01*
X82815Y-9686D01*
X82672Y-9686D01*
X82615Y-9710D01*
X82587Y-9734D01*
X82558Y-9781D01*
X82558Y-9829D01*
X82587Y-9900D01*
X82929Y-10186D01*
X82558Y-10186D01*
X84754Y-17687D02*
X84669Y-17711D01*
X84526Y-17711D01*
X84469Y-17687D01*
X84440Y-17663D01*
X84412Y-17616D01*
X84412Y-17568D01*
X84440Y-17520D01*
X84469Y-17497D01*
X84526Y-17473D01*
X84640Y-17449D01*
X84697Y-17425D01*
X84726Y-17401D01*
X84754Y-17354D01*
X84754Y-17306D01*
X84726Y-17259D01*
X84697Y-17235D01*
X84640Y-17211D01*
X84497Y-17211D01*
X84412Y-17235D01*
X83869Y-17211D02*
X84154Y-17211D01*
X84183Y-17449D01*
X84154Y-17425D01*
X84097Y-17401D01*
X83954Y-17401D01*
X83897Y-17425D01*
X83869Y-17449D01*
X83840Y-17497D01*
X83840Y-17616D01*
X83869Y-17663D01*
X83897Y-17687D01*
X83954Y-17711D01*
X84097Y-17711D01*
X84154Y-17687D01*
X84183Y-17663D01*
X83640Y-17211D02*
X83269Y-17211D01*
X83469Y-17401D01*
X83383Y-17401D01*
X83326Y-17425D01*
X83297Y-17449D01*
X83269Y-17497D01*
X83269Y-17616D01*
X83297Y-17663D01*
X83326Y-17687D01*
X83383Y-17711D01*
X83554Y-17711D01*
X83612Y-17687D01*
X83640Y-17663D01*
X82697Y-17711D02*
X83040Y-17711D01*
X82869Y-17711D02*
X82869Y-17211D01*
X82926Y-17282D01*
X82983Y-17330D01*
X83040Y-17354D01*
X86869Y-17687D02*
X86783Y-17711D01*
X86640Y-17711D01*
X86583Y-17687D01*
X86554Y-17663D01*
X86526Y-17616D01*
X86526Y-17568D01*
X86554Y-17520D01*
X86583Y-17497D01*
X86640Y-17473D01*
X86754Y-17449D01*
X86812Y-17425D01*
X86840Y-17401D01*
X86869Y-17354D01*
X86869Y-17306D01*
X86840Y-17259D01*
X86812Y-17235D01*
X86754Y-17211D01*
X86612Y-17211D01*
X86526Y-17235D01*
X85983Y-17211D02*
X86269Y-17211D01*
X86297Y-17449D01*
X86269Y-17425D01*
X86212Y-17401D01*
X86069Y-17401D01*
X86012Y-17425D01*
X85983Y-17449D01*
X85954Y-17497D01*
X85954Y-17616D01*
X85983Y-17663D01*
X86012Y-17687D01*
X86069Y-17711D01*
X86212Y-17711D01*
X86269Y-17687D01*
X86297Y-17663D01*
X85754Y-17211D02*
X85383Y-17211D01*
X85583Y-17401D01*
X85497Y-17401D01*
X85440Y-17425D01*
X85412Y-17449D01*
X85383Y-17497D01*
X85383Y-17616D01*
X85412Y-17663D01*
X85440Y-17687D01*
X85497Y-17711D01*
X85669Y-17711D01*
X85726Y-17687D01*
X85754Y-17663D01*
X85919Y-25187D02*
X85833Y-25211D01*
X85690Y-25211D01*
X85633Y-25187D01*
X85604Y-25163D01*
X85576Y-25116D01*
X85576Y-25068D01*
X85604Y-25020D01*
X85633Y-24997D01*
X85690Y-24973D01*
X85804Y-24949D01*
X85862Y-24925D01*
X85890Y-24901D01*
X85919Y-24854D01*
X85919Y-24806D01*
X85890Y-24759D01*
X85862Y-24735D01*
X85804Y-24711D01*
X85662Y-24711D01*
X85576Y-24735D01*
X85062Y-24878D02*
X85062Y-25211D01*
X85204Y-24687D02*
X85347Y-25044D01*
X84976Y-25044D01*
X84719Y-25211D02*
X84604Y-25211D01*
X84547Y-25187D01*
X84519Y-25163D01*
X84462Y-25092D01*
X84433Y-24997D01*
X84433Y-24806D01*
X84462Y-24759D01*
X84490Y-24735D01*
X84547Y-24711D01*
X84662Y-24711D01*
X84719Y-24735D01*
X84747Y-24759D01*
X84776Y-24806D01*
X84776Y-24925D01*
X84747Y-24973D01*
X84719Y-24997D01*
X84662Y-25020D01*
X84547Y-25020D01*
X84490Y-24997D01*
X84462Y-24973D01*
X84433Y-24925D01*
X76569Y-25187D02*
X76483Y-25211D01*
X76340Y-25211D01*
X76283Y-25187D01*
X76254Y-25163D01*
X76226Y-25116D01*
X76226Y-25068D01*
X76254Y-25020D01*
X76283Y-24997D01*
X76340Y-24973D01*
X76454Y-24949D01*
X76512Y-24925D01*
X76540Y-24901D01*
X76569Y-24854D01*
X76569Y-24806D01*
X76540Y-24759D01*
X76512Y-24735D01*
X76454Y-24711D01*
X76312Y-24711D01*
X76226Y-24735D01*
X75712Y-24878D02*
X75712Y-25211D01*
X75854Y-24687D02*
X75997Y-25044D01*
X75626Y-25044D01*
X75140Y-24878D02*
X75140Y-25211D01*
X75283Y-24687D02*
X75426Y-25044D01*
X75054Y-25044D01*
X48319Y-25162D02*
X48233Y-25186D01*
X48090Y-25186D01*
X48033Y-25162D01*
X48004Y-25138D01*
X47976Y-25091D01*
X47976Y-25043D01*
X48004Y-24995D01*
X48033Y-24972D01*
X48090Y-24948D01*
X48204Y-24924D01*
X48262Y-24900D01*
X48290Y-24876D01*
X48319Y-24829D01*
X48319Y-24781D01*
X48290Y-24734D01*
X48262Y-24710D01*
X48204Y-24686D01*
X48062Y-24686D01*
X47976Y-24710D01*
X47747Y-24734D02*
X47719Y-24710D01*
X47662Y-24686D01*
X47519Y-24686D01*
X47462Y-24710D01*
X47433Y-24734D01*
X47404Y-24781D01*
X47404Y-24829D01*
X47433Y-24900D01*
X47776Y-25186D01*
X47404Y-25186D01*
X47119Y-25186D02*
X47004Y-25186D01*
X46947Y-25162D01*
X46919Y-25138D01*
X46862Y-25067D01*
X46833Y-24972D01*
X46833Y-24781D01*
X46862Y-24734D01*
X46890Y-24710D01*
X46947Y-24686D01*
X47062Y-24686D01*
X47119Y-24710D01*
X47147Y-24734D01*
X47176Y-24781D01*
X47176Y-24900D01*
X47147Y-24948D01*
X47119Y-24972D01*
X47062Y-24995D01*
X46947Y-24995D01*
X46890Y-24972D01*
X46862Y-24948D01*
X46833Y-24900D01*
X21244Y-25162D02*
X21158Y-25186D01*
X21015Y-25186D01*
X20958Y-25162D01*
X20929Y-25138D01*
X20901Y-25091D01*
X20901Y-25043D01*
X20929Y-24995D01*
X20958Y-24972D01*
X21015Y-24948D01*
X21129Y-24924D01*
X21187Y-24900D01*
X21215Y-24876D01*
X21244Y-24829D01*
X21244Y-24781D01*
X21215Y-24734D01*
X21187Y-24710D01*
X21129Y-24686D01*
X20987Y-24686D01*
X20901Y-24710D01*
X20329Y-25186D02*
X20672Y-25186D01*
X20501Y-25186D02*
X20501Y-24686D01*
X20558Y-24757D01*
X20615Y-24805D01*
X20672Y-24829D01*
X19815Y-24853D02*
X19815Y-25186D01*
X19958Y-24662D02*
X20101Y-25019D01*
X19729Y-25019D01*
X13744Y-25187D02*
X13658Y-25211D01*
X13515Y-25211D01*
X13458Y-25187D01*
X13429Y-25163D01*
X13401Y-25116D01*
X13401Y-25068D01*
X13429Y-25020D01*
X13458Y-24997D01*
X13515Y-24973D01*
X13629Y-24949D01*
X13687Y-24925D01*
X13715Y-24901D01*
X13744Y-24854D01*
X13744Y-24806D01*
X13715Y-24759D01*
X13687Y-24735D01*
X13629Y-24711D01*
X13487Y-24711D01*
X13401Y-24735D01*
X13029Y-24711D02*
X12972Y-24711D01*
X12915Y-24735D01*
X12887Y-24759D01*
X12858Y-24806D01*
X12829Y-24901D01*
X12829Y-25020D01*
X12858Y-25116D01*
X12887Y-25163D01*
X12915Y-25187D01*
X12972Y-25211D01*
X13029Y-25211D01*
X13087Y-25187D01*
X13115Y-25163D01*
X13144Y-25116D01*
X13172Y-25020D01*
X13172Y-24901D01*
X13144Y-24806D01*
X13115Y-24759D01*
X13087Y-24735D01*
X13029Y-24711D01*
X12544Y-25211D02*
X12429Y-25211D01*
X12372Y-25187D01*
X12344Y-25163D01*
X12287Y-25092D01*
X12258Y-24997D01*
X12258Y-24806D01*
X12287Y-24759D01*
X12315Y-24735D01*
X12372Y-24711D01*
X12487Y-24711D01*
X12544Y-24735D01*
X12572Y-24759D01*
X12601Y-24806D01*
X12601Y-24925D01*
X12572Y-24973D01*
X12544Y-24997D01*
X12487Y-25020D01*
X12372Y-25020D01*
X12315Y-24997D01*
X12287Y-24973D01*
X12258Y-24925D01*
X17444Y-17687D02*
X17358Y-17711D01*
X17215Y-17711D01*
X17158Y-17687D01*
X17129Y-17663D01*
X17101Y-17616D01*
X17101Y-17568D01*
X17129Y-17520D01*
X17158Y-17497D01*
X17215Y-17473D01*
X17329Y-17449D01*
X17387Y-17425D01*
X17415Y-17401D01*
X17444Y-17354D01*
X17444Y-17306D01*
X17415Y-17259D01*
X17387Y-17235D01*
X17329Y-17211D01*
X17187Y-17211D01*
X17101Y-17235D01*
X16729Y-17211D02*
X16672Y-17211D01*
X16615Y-17235D01*
X16587Y-17259D01*
X16558Y-17306D01*
X16529Y-17401D01*
X16529Y-17520D01*
X16558Y-17616D01*
X16587Y-17663D01*
X16615Y-17687D01*
X16672Y-17711D01*
X16729Y-17711D01*
X16787Y-17687D01*
X16815Y-17663D01*
X16844Y-17616D01*
X16872Y-17520D01*
X16872Y-17401D01*
X16844Y-17306D01*
X16815Y-17259D01*
X16787Y-17235D01*
X16729Y-17211D01*
X16187Y-17425D02*
X16244Y-17401D01*
X16272Y-17378D01*
X16301Y-17330D01*
X16301Y-17306D01*
X16272Y-17259D01*
X16244Y-17235D01*
X16187Y-17211D01*
X16072Y-17211D01*
X16015Y-17235D01*
X15987Y-17259D01*
X15958Y-17306D01*
X15958Y-17330D01*
X15987Y-17378D01*
X16015Y-17401D01*
X16072Y-17425D01*
X16187Y-17425D01*
X16244Y-17449D01*
X16272Y-17473D01*
X16301Y-17520D01*
X16301Y-17616D01*
X16272Y-17663D01*
X16244Y-17687D01*
X16187Y-17711D01*
X16072Y-17711D01*
X16015Y-17687D01*
X15987Y-17663D01*
X15958Y-17616D01*
X15958Y-17520D01*
X15987Y-17473D01*
X16015Y-17449D01*
X16072Y-17425D01*
X13744Y-10187D02*
X13658Y-10211D01*
X13515Y-10211D01*
X13458Y-10187D01*
X13429Y-10163D01*
X13401Y-10116D01*
X13401Y-10068D01*
X13429Y-10020D01*
X13458Y-9997D01*
X13515Y-9973D01*
X13629Y-9949D01*
X13687Y-9925D01*
X13715Y-9901D01*
X13744Y-9854D01*
X13744Y-9806D01*
X13715Y-9759D01*
X13687Y-9735D01*
X13629Y-9711D01*
X13487Y-9711D01*
X13401Y-9735D01*
X13029Y-9711D02*
X12972Y-9711D01*
X12915Y-9735D01*
X12887Y-9759D01*
X12858Y-9806D01*
X12829Y-9901D01*
X12829Y-10020D01*
X12858Y-10116D01*
X12887Y-10163D01*
X12915Y-10187D01*
X12972Y-10211D01*
X13029Y-10211D01*
X13087Y-10187D01*
X13115Y-10163D01*
X13144Y-10116D01*
X13172Y-10020D01*
X13172Y-9901D01*
X13144Y-9806D01*
X13115Y-9759D01*
X13087Y-9735D01*
X13029Y-9711D01*
X12629Y-9711D02*
X12229Y-9711D01*
X12487Y-10211D01*
X5294Y-25162D02*
X5208Y-25186D01*
X5065Y-25186D01*
X5008Y-25162D01*
X4979Y-25138D01*
X4951Y-25091D01*
X4951Y-25043D01*
X4979Y-24995D01*
X5008Y-24972D01*
X5065Y-24948D01*
X5179Y-24924D01*
X5237Y-24900D01*
X5265Y-24876D01*
X5294Y-24829D01*
X5294Y-24781D01*
X5265Y-24734D01*
X5237Y-24710D01*
X5179Y-24686D01*
X5037Y-24686D01*
X4951Y-24710D01*
X4579Y-24686D02*
X4522Y-24686D01*
X4465Y-24710D01*
X4437Y-24734D01*
X4408Y-24781D01*
X4379Y-24876D01*
X4379Y-24995D01*
X4408Y-25091D01*
X4437Y-25138D01*
X4465Y-25162D01*
X4522Y-25186D01*
X4579Y-25186D01*
X4637Y-25162D01*
X4665Y-25138D01*
X4694Y-25091D01*
X4722Y-24995D01*
X4722Y-24876D01*
X4694Y-24781D01*
X4665Y-24734D01*
X4637Y-24710D01*
X4579Y-24686D01*
X3865Y-24853D02*
X3865Y-25186D01*
X4008Y-24662D02*
X4151Y-25019D01*
X3779Y-25019D01*
X7144Y-17687D02*
X7058Y-17711D01*
X6915Y-17711D01*
X6858Y-17687D01*
X6829Y-17663D01*
X6801Y-17616D01*
X6801Y-17568D01*
X6829Y-17520D01*
X6858Y-17497D01*
X6915Y-17473D01*
X7029Y-17449D01*
X7087Y-17425D01*
X7115Y-17401D01*
X7144Y-17354D01*
X7144Y-17306D01*
X7115Y-17259D01*
X7087Y-17235D01*
X7029Y-17211D01*
X6887Y-17211D01*
X6801Y-17235D01*
X6429Y-17211D02*
X6372Y-17211D01*
X6315Y-17235D01*
X6287Y-17259D01*
X6258Y-17306D01*
X6229Y-17401D01*
X6229Y-17520D01*
X6258Y-17616D01*
X6287Y-17663D01*
X6315Y-17687D01*
X6372Y-17711D01*
X6429Y-17711D01*
X6487Y-17687D01*
X6515Y-17663D01*
X6544Y-17616D01*
X6572Y-17520D01*
X6572Y-17401D01*
X6544Y-17306D01*
X6515Y-17259D01*
X6487Y-17235D01*
X6429Y-17211D01*
X6029Y-17211D02*
X5658Y-17211D01*
X5858Y-17401D01*
X5772Y-17401D01*
X5715Y-17425D01*
X5687Y-17449D01*
X5658Y-17497D01*
X5658Y-17616D01*
X5687Y-17663D01*
X5715Y-17687D01*
X5772Y-17711D01*
X5944Y-17711D01*
X6001Y-17687D01*
X6029Y-17663D01*
X5294Y-10187D02*
X5208Y-10211D01*
X5065Y-10211D01*
X5008Y-10187D01*
X4979Y-10163D01*
X4951Y-10116D01*
X4951Y-10068D01*
X4979Y-10020D01*
X5008Y-9997D01*
X5065Y-9973D01*
X5179Y-9949D01*
X5237Y-9925D01*
X5265Y-9901D01*
X5294Y-9854D01*
X5294Y-9806D01*
X5265Y-9759D01*
X5237Y-9735D01*
X5179Y-9711D01*
X5037Y-9711D01*
X4951Y-9735D01*
X4579Y-9711D02*
X4522Y-9711D01*
X4465Y-9735D01*
X4437Y-9759D01*
X4408Y-9806D01*
X4379Y-9901D01*
X4379Y-10020D01*
X4408Y-10116D01*
X4437Y-10163D01*
X4465Y-10187D01*
X4522Y-10211D01*
X4579Y-10211D01*
X4637Y-10187D01*
X4665Y-10163D01*
X4694Y-10116D01*
X4722Y-10020D01*
X4722Y-9901D01*
X4694Y-9806D01*
X4665Y-9759D01*
X4637Y-9735D01*
X4579Y-9711D01*
X4151Y-9759D02*
X4122Y-9735D01*
X4065Y-9711D01*
X3922Y-9711D01*
X3865Y-9735D01*
X3837Y-9759D01*
X3808Y-9806D01*
X3808Y-9854D01*
X3837Y-9925D01*
X4179Y-10211D01*
X3808Y-10211D01*
X26869Y-2637D02*
X26783Y-2661D01*
X26640Y-2661D01*
X26583Y-2637D01*
X26554Y-2613D01*
X26526Y-2566D01*
X26526Y-2518D01*
X26554Y-2470D01*
X26583Y-2447D01*
X26640Y-2423D01*
X26754Y-2399D01*
X26812Y-2375D01*
X26840Y-2351D01*
X26869Y-2304D01*
X26869Y-2256D01*
X26840Y-2209D01*
X26812Y-2185D01*
X26754Y-2161D01*
X26612Y-2161D01*
X26526Y-2185D01*
X25954Y-2661D02*
X26297Y-2661D01*
X26126Y-2661D02*
X26126Y-2161D01*
X26183Y-2232D01*
X26240Y-2280D01*
X26297Y-2304D01*
X25440Y-2161D02*
X25554Y-2161D01*
X25612Y-2185D01*
X25640Y-2209D01*
X25697Y-2280D01*
X25726Y-2375D01*
X25726Y-2566D01*
X25697Y-2613D01*
X25669Y-2637D01*
X25612Y-2661D01*
X25497Y-2661D01*
X25440Y-2637D01*
X25412Y-2613D01*
X25383Y-2566D01*
X25383Y-2447D01*
X25412Y-2399D01*
X25440Y-2375D01*
X25497Y-2351D01*
X25612Y-2351D01*
X25669Y-2375D01*
X25697Y-2399D01*
X25726Y-2447D01*
X19369Y-2637D02*
X19283Y-2661D01*
X19140Y-2661D01*
X19083Y-2637D01*
X19054Y-2613D01*
X19026Y-2566D01*
X19026Y-2518D01*
X19054Y-2470D01*
X19083Y-2447D01*
X19140Y-2423D01*
X19254Y-2399D01*
X19312Y-2375D01*
X19340Y-2351D01*
X19369Y-2304D01*
X19369Y-2256D01*
X19340Y-2209D01*
X19312Y-2185D01*
X19254Y-2161D01*
X19112Y-2161D01*
X19026Y-2185D01*
X18454Y-2661D02*
X18797Y-2661D01*
X18626Y-2661D02*
X18626Y-2161D01*
X18683Y-2232D01*
X18740Y-2280D01*
X18797Y-2304D01*
X17883Y-2661D02*
X18226Y-2661D01*
X18054Y-2661D02*
X18054Y-2161D01*
X18112Y-2232D01*
X18169Y-2280D01*
X18226Y-2304D01*
X11819Y-2687D02*
X11733Y-2711D01*
X11590Y-2711D01*
X11533Y-2687D01*
X11504Y-2663D01*
X11476Y-2616D01*
X11476Y-2568D01*
X11504Y-2520D01*
X11533Y-2497D01*
X11590Y-2473D01*
X11704Y-2449D01*
X11762Y-2425D01*
X11790Y-2401D01*
X11819Y-2354D01*
X11819Y-2306D01*
X11790Y-2259D01*
X11762Y-2235D01*
X11704Y-2211D01*
X11562Y-2211D01*
X11476Y-2235D01*
X11104Y-2211D02*
X11047Y-2211D01*
X10990Y-2235D01*
X10962Y-2259D01*
X10933Y-2306D01*
X10904Y-2401D01*
X10904Y-2520D01*
X10933Y-2616D01*
X10962Y-2663D01*
X10990Y-2687D01*
X11047Y-2711D01*
X11104Y-2711D01*
X11162Y-2687D01*
X11190Y-2663D01*
X11219Y-2616D01*
X11247Y-2520D01*
X11247Y-2401D01*
X11219Y-2306D01*
X11190Y-2259D01*
X11162Y-2235D01*
X11104Y-2211D01*
X10390Y-2211D02*
X10504Y-2211D01*
X10562Y-2235D01*
X10590Y-2259D01*
X10647Y-2330D01*
X10676Y-2425D01*
X10676Y-2616D01*
X10647Y-2663D01*
X10619Y-2687D01*
X10562Y-2711D01*
X10447Y-2711D01*
X10390Y-2687D01*
X10362Y-2663D01*
X10333Y-2616D01*
X10333Y-2497D01*
X10362Y-2449D01*
X10390Y-2425D01*
X10447Y-2401D01*
X10562Y-2401D01*
X10619Y-2425D01*
X10647Y-2449D01*
X10676Y-2497D01*
X4369Y-2687D02*
X4283Y-2711D01*
X4140Y-2711D01*
X4083Y-2687D01*
X4054Y-2663D01*
X4026Y-2616D01*
X4026Y-2568D01*
X4054Y-2520D01*
X4083Y-2497D01*
X4140Y-2473D01*
X4254Y-2449D01*
X4312Y-2425D01*
X4340Y-2401D01*
X4369Y-2354D01*
X4369Y-2306D01*
X4340Y-2259D01*
X4312Y-2235D01*
X4254Y-2211D01*
X4112Y-2211D01*
X4026Y-2235D01*
X3654Y-2211D02*
X3597Y-2211D01*
X3540Y-2235D01*
X3512Y-2259D01*
X3483Y-2306D01*
X3454Y-2401D01*
X3454Y-2520D01*
X3483Y-2616D01*
X3512Y-2663D01*
X3540Y-2687D01*
X3597Y-2711D01*
X3654Y-2711D01*
X3712Y-2687D01*
X3740Y-2663D01*
X3769Y-2616D01*
X3797Y-2520D01*
X3797Y-2401D01*
X3769Y-2306D01*
X3740Y-2259D01*
X3712Y-2235D01*
X3654Y-2211D01*
X2883Y-2711D02*
X3226Y-2711D01*
X3054Y-2711D02*
X3054Y-2211D01*
X3112Y-2282D01*
X3169Y-2330D01*
X3226Y-2354D01*
G54D13*
X86677Y-20831D02*
X86665Y-20807D01*
X86653Y-20795D01*
X86629Y-20784D01*
X86558Y-20784D01*
X86534Y-20795D01*
X86522Y-20807D01*
X86510Y-20831D01*
X86510Y-20867D01*
X86522Y-20891D01*
X86534Y-20903D01*
X86558Y-20915D01*
X86629Y-20915D01*
X86653Y-20903D01*
X86665Y-20891D01*
X86677Y-20867D01*
X86677Y-20831D01*
X86677Y-21022D02*
X86510Y-21022D01*
X86558Y-21022D02*
X86534Y-21034D01*
X86522Y-21045D01*
X86510Y-21069D01*
X86510Y-21093D01*
X86677Y-21176D02*
X86427Y-21176D01*
X86427Y-21236D01*
X86439Y-21272D01*
X86463Y-21295D01*
X86487Y-21307D01*
X86534Y-21319D01*
X86570Y-21319D01*
X86618Y-21307D01*
X86641Y-21295D01*
X86665Y-21272D01*
X86677Y-21236D01*
X86677Y-21176D01*
X86427Y-21545D02*
X86427Y-21426D01*
X86546Y-21415D01*
X86534Y-21426D01*
X86522Y-21450D01*
X86522Y-21510D01*
X86534Y-21534D01*
X86546Y-21545D01*
X86570Y-21557D01*
X86629Y-21557D01*
X86653Y-21545D01*
X86665Y-21534D01*
X86677Y-21510D01*
X86677Y-21450D01*
X86665Y-21426D01*
X86653Y-21415D01*
X86427Y-21641D02*
X86427Y-21795D01*
X86522Y-21712D01*
X86522Y-21748D01*
X86534Y-21772D01*
X86546Y-21784D01*
X86570Y-21795D01*
X86629Y-21795D01*
X86653Y-21784D01*
X86665Y-21772D01*
X86677Y-21748D01*
X86677Y-21676D01*
X86665Y-21653D01*
X86653Y-21641D01*
X86677Y-22034D02*
X86677Y-21891D01*
X86677Y-21962D02*
X86427Y-21962D01*
X86463Y-21938D01*
X86487Y-21915D01*
X86498Y-21891D01*
X78127Y-20781D02*
X78115Y-20757D01*
X78103Y-20745D01*
X78079Y-20734D01*
X78008Y-20734D01*
X77984Y-20745D01*
X77972Y-20757D01*
X77960Y-20781D01*
X77960Y-20817D01*
X77972Y-20841D01*
X77984Y-20853D01*
X78008Y-20865D01*
X78079Y-20865D01*
X78103Y-20853D01*
X78115Y-20841D01*
X78127Y-20817D01*
X78127Y-20781D01*
X78127Y-20972D02*
X77960Y-20972D01*
X78008Y-20972D02*
X77984Y-20984D01*
X77972Y-20995D01*
X77960Y-21019D01*
X77960Y-21043D01*
X78127Y-21126D02*
X77877Y-21126D01*
X77877Y-21186D01*
X77889Y-21222D01*
X77913Y-21245D01*
X77937Y-21257D01*
X77984Y-21269D01*
X78020Y-21269D01*
X78068Y-21257D01*
X78091Y-21245D01*
X78115Y-21222D01*
X78127Y-21186D01*
X78127Y-21126D01*
X77960Y-21484D02*
X78127Y-21484D01*
X77865Y-21424D02*
X78044Y-21365D01*
X78044Y-21519D01*
X77984Y-21650D02*
X77972Y-21626D01*
X77960Y-21615D01*
X77937Y-21603D01*
X77925Y-21603D01*
X77901Y-21615D01*
X77889Y-21626D01*
X77877Y-21650D01*
X77877Y-21698D01*
X77889Y-21722D01*
X77901Y-21734D01*
X77925Y-21745D01*
X77937Y-21745D01*
X77960Y-21734D01*
X77972Y-21722D01*
X77984Y-21698D01*
X77984Y-21650D01*
X77996Y-21626D01*
X78008Y-21615D01*
X78032Y-21603D01*
X78079Y-21603D01*
X78103Y-21615D01*
X78115Y-21626D01*
X78127Y-21650D01*
X78127Y-21698D01*
X78115Y-21722D01*
X78103Y-21734D01*
X78079Y-21745D01*
X78032Y-21745D01*
X78008Y-21734D01*
X77996Y-21722D01*
X77984Y-21698D01*
X78127Y-21984D02*
X78127Y-21841D01*
X78127Y-21912D02*
X77877Y-21912D01*
X77913Y-21888D01*
X77937Y-21865D01*
X77948Y-21841D01*
G54D14*
X17567Y-1421D02*
X17211Y-2996D01*
X16926Y-1871D01*
X16641Y-2996D01*
X16285Y-1421D01*
X11401Y-10046D02*
X10651Y-10046D01*
X11551Y-10496D02*
X11026Y-8921D01*
X10501Y-10496D01*
X19101Y-10421D02*
X18876Y-10496D01*
X18501Y-10496D01*
X18351Y-10421D01*
X18276Y-10346D01*
X18201Y-10196D01*
X18201Y-10046D01*
X18276Y-9896D01*
X18351Y-9821D01*
X18501Y-9746D01*
X18801Y-9671D01*
X18951Y-9596D01*
X19026Y-9521D01*
X19101Y-9371D01*
X19101Y-9221D01*
X19026Y-9071D01*
X18951Y-8996D01*
X18801Y-8921D01*
X18426Y-8921D01*
X18201Y-8996D01*
X26588Y-10521D02*
X26588Y-8946D01*
X26213Y-8946D01*
X25988Y-9021D01*
X25838Y-9171D01*
X25763Y-9321D01*
X25688Y-9621D01*
X25688Y-9846D01*
X25763Y-10146D01*
X25838Y-10296D01*
X25988Y-10446D01*
X26213Y-10521D01*
X26588Y-10521D01*
G54D15*
X89237Y-15899D02*
X89237Y-15584D01*
X89057Y-15899D01*
X89057Y-15584D01*
X88862Y-15899D02*
X88892Y-15884D01*
X88907Y-15869D01*
X88922Y-15839D01*
X88922Y-15749D01*
X88907Y-15719D01*
X88892Y-15704D01*
X88862Y-15689D01*
X88817Y-15689D01*
X88787Y-15704D01*
X88772Y-15719D01*
X88757Y-15749D01*
X88757Y-15839D01*
X88772Y-15869D01*
X88787Y-15884D01*
X88817Y-15899D01*
X88862Y-15899D01*
X88667Y-15689D02*
X88547Y-15689D01*
X88622Y-15584D02*
X88622Y-15854D01*
X88607Y-15884D01*
X88577Y-15899D01*
X88547Y-15899D01*
X88323Y-15884D02*
X88353Y-15899D01*
X88413Y-15899D01*
X88442Y-15884D01*
X88457Y-15854D01*
X88457Y-15734D01*
X88442Y-15704D01*
X88413Y-15689D01*
X88353Y-15689D01*
X88323Y-15704D01*
X88308Y-15734D01*
X88308Y-15764D01*
X88457Y-15794D01*
X87783Y-15899D02*
X87933Y-15899D01*
X87933Y-15584D01*
X87678Y-15734D02*
X87573Y-15734D01*
X87528Y-15899D02*
X87678Y-15899D01*
X87678Y-15584D01*
X87528Y-15584D01*
X87393Y-15899D02*
X87393Y-15584D01*
X87318Y-15584D01*
X87273Y-15599D01*
X87243Y-15629D01*
X87228Y-15659D01*
X87213Y-15719D01*
X87213Y-15764D01*
X87228Y-15824D01*
X87243Y-15854D01*
X87273Y-15884D01*
X87318Y-15899D01*
X87393Y-15899D01*
X86658Y-15899D02*
X86763Y-15749D01*
X86838Y-15899D02*
X86838Y-15584D01*
X86718Y-15584D01*
X86688Y-15599D01*
X86673Y-15614D01*
X86658Y-15644D01*
X86658Y-15689D01*
X86673Y-15719D01*
X86688Y-15734D01*
X86718Y-15749D01*
X86838Y-15749D01*
X86478Y-15899D02*
X86508Y-15884D01*
X86523Y-15869D01*
X86538Y-15839D01*
X86538Y-15749D01*
X86523Y-15719D01*
X86508Y-15704D01*
X86478Y-15689D01*
X86433Y-15689D01*
X86403Y-15704D01*
X86388Y-15719D01*
X86373Y-15749D01*
X86373Y-15839D01*
X86388Y-15869D01*
X86403Y-15884D01*
X86433Y-15899D01*
X86478Y-15899D01*
X86283Y-15689D02*
X86163Y-15689D01*
X86238Y-15584D02*
X86238Y-15854D01*
X86223Y-15884D01*
X86193Y-15899D01*
X86163Y-15899D01*
X85923Y-15899D02*
X85923Y-15734D01*
X85938Y-15704D01*
X85968Y-15689D01*
X86028Y-15689D01*
X86058Y-15704D01*
X85923Y-15884D02*
X85953Y-15899D01*
X86028Y-15899D01*
X86058Y-15884D01*
X86073Y-15854D01*
X86073Y-15824D01*
X86058Y-15794D01*
X86028Y-15779D01*
X85953Y-15779D01*
X85923Y-15764D01*
X85818Y-15689D02*
X85698Y-15689D01*
X85773Y-15584D02*
X85773Y-15854D01*
X85758Y-15884D01*
X85728Y-15899D01*
X85698Y-15899D01*
X85593Y-15899D02*
X85593Y-15689D01*
X85593Y-15584D02*
X85608Y-15599D01*
X85593Y-15614D01*
X85578Y-15599D01*
X85593Y-15584D01*
X85593Y-15614D01*
X85398Y-15899D02*
X85428Y-15884D01*
X85443Y-15869D01*
X85458Y-15839D01*
X85458Y-15749D01*
X85443Y-15719D01*
X85428Y-15704D01*
X85398Y-15689D01*
X85353Y-15689D01*
X85323Y-15704D01*
X85308Y-15719D01*
X85293Y-15749D01*
X85293Y-15839D01*
X85308Y-15869D01*
X85323Y-15884D01*
X85353Y-15899D01*
X85398Y-15899D01*
X85158Y-15689D02*
X85158Y-15899D01*
X85158Y-15719D02*
X85143Y-15704D01*
X85113Y-15689D01*
X85068Y-15689D01*
X85038Y-15704D01*
X85023Y-15734D01*
X85023Y-15899D01*
X84678Y-15689D02*
X84558Y-15689D01*
X84633Y-15899D02*
X84633Y-15629D01*
X84618Y-15599D01*
X84588Y-15584D01*
X84558Y-15584D01*
X84408Y-15899D02*
X84438Y-15884D01*
X84453Y-15869D01*
X84468Y-15839D01*
X84468Y-15749D01*
X84453Y-15719D01*
X84438Y-15704D01*
X84408Y-15689D01*
X84363Y-15689D01*
X84333Y-15704D01*
X84318Y-15719D01*
X84303Y-15749D01*
X84303Y-15839D01*
X84318Y-15869D01*
X84333Y-15884D01*
X84363Y-15899D01*
X84408Y-15899D01*
X84168Y-15899D02*
X84168Y-15689D01*
X84168Y-15749D02*
X84153Y-15719D01*
X84138Y-15704D01*
X84108Y-15689D01*
X84078Y-15689D01*
X83748Y-15809D02*
X83598Y-15809D01*
X83778Y-15899D02*
X83673Y-15584D01*
X83568Y-15899D01*
X83418Y-15899D02*
X83448Y-15884D01*
X83463Y-15854D01*
X83463Y-15584D01*
X83343Y-15689D02*
X83223Y-15689D01*
X83298Y-15584D02*
X83298Y-15854D01*
X83283Y-15884D01*
X83253Y-15899D01*
X83223Y-15899D01*
X82998Y-15884D02*
X83028Y-15899D01*
X83088Y-15899D01*
X83118Y-15884D01*
X83133Y-15854D01*
X83133Y-15734D01*
X83118Y-15704D01*
X83088Y-15689D01*
X83028Y-15689D01*
X82998Y-15704D01*
X82983Y-15734D01*
X82983Y-15764D01*
X83133Y-15794D01*
X82848Y-15899D02*
X82848Y-15689D01*
X82848Y-15749D02*
X82833Y-15719D01*
X82818Y-15704D01*
X82788Y-15689D01*
X82758Y-15689D01*
X82653Y-15689D02*
X82653Y-15899D01*
X82653Y-15719D02*
X82638Y-15704D01*
X82608Y-15689D01*
X82563Y-15689D01*
X82533Y-15704D01*
X82518Y-15734D01*
X82518Y-15899D01*
X82233Y-15899D02*
X82233Y-15734D01*
X82248Y-15704D01*
X82278Y-15689D01*
X82338Y-15689D01*
X82368Y-15704D01*
X82233Y-15884D02*
X82263Y-15899D01*
X82338Y-15899D01*
X82368Y-15884D01*
X82383Y-15854D01*
X82383Y-15824D01*
X82368Y-15794D01*
X82338Y-15779D01*
X82263Y-15779D01*
X82233Y-15764D01*
X82128Y-15689D02*
X82008Y-15689D01*
X82083Y-15584D02*
X82083Y-15854D01*
X82068Y-15884D01*
X82038Y-15899D01*
X82008Y-15899D01*
X81783Y-15884D02*
X81813Y-15899D01*
X81873Y-15899D01*
X81903Y-15884D01*
X81918Y-15854D01*
X81918Y-15734D01*
X81903Y-15704D01*
X81873Y-15689D01*
X81813Y-15689D01*
X81783Y-15704D01*
X81768Y-15734D01*
X81768Y-15764D01*
X81918Y-15794D01*
X81408Y-15884D02*
X81363Y-15899D01*
X81288Y-15899D01*
X81258Y-15884D01*
X81243Y-15869D01*
X81228Y-15839D01*
X81228Y-15809D01*
X81243Y-15779D01*
X81258Y-15764D01*
X81288Y-15749D01*
X81348Y-15734D01*
X81378Y-15719D01*
X81393Y-15704D01*
X81408Y-15674D01*
X81408Y-15644D01*
X81393Y-15614D01*
X81378Y-15599D01*
X81348Y-15584D01*
X81273Y-15584D01*
X81228Y-15599D01*
X80943Y-15584D02*
X81093Y-15584D01*
X81108Y-15734D01*
X81093Y-15719D01*
X81063Y-15704D01*
X80988Y-15704D01*
X80958Y-15719D01*
X80943Y-15734D01*
X80928Y-15764D01*
X80928Y-15839D01*
X80943Y-15869D01*
X80958Y-15884D01*
X80988Y-15899D01*
X81063Y-15899D01*
X81093Y-15884D01*
X81108Y-15869D01*
X80823Y-15584D02*
X80628Y-15584D01*
X80733Y-15704D01*
X80688Y-15704D01*
X80658Y-15719D01*
X80643Y-15734D01*
X80628Y-15764D01*
X80628Y-15839D01*
X80643Y-15869D01*
X80658Y-15884D01*
X80688Y-15899D01*
X80778Y-15899D01*
X80808Y-15884D01*
X80823Y-15869D01*
X80329Y-15899D02*
X80508Y-15899D01*
X80419Y-15899D02*
X80419Y-15584D01*
X80448Y-15629D01*
X80478Y-15659D01*
X80508Y-15674D01*
X79699Y-15899D02*
X79714Y-15899D01*
X79744Y-15884D01*
X79789Y-15839D01*
X79864Y-15749D01*
X79894Y-15704D01*
X79909Y-15659D01*
X79909Y-15629D01*
X79894Y-15599D01*
X79864Y-15584D01*
X79849Y-15584D01*
X79819Y-15599D01*
X79804Y-15629D01*
X79804Y-15644D01*
X79819Y-15674D01*
X79834Y-15689D01*
X79924Y-15749D01*
X79939Y-15764D01*
X79954Y-15794D01*
X79954Y-15839D01*
X79939Y-15869D01*
X79924Y-15884D01*
X79894Y-15899D01*
X79849Y-15899D01*
X79819Y-15884D01*
X79804Y-15869D01*
X79759Y-15809D01*
X79744Y-15764D01*
X79744Y-15734D01*
X79339Y-15884D02*
X79294Y-15899D01*
X79219Y-15899D01*
X79189Y-15884D01*
X79174Y-15869D01*
X79159Y-15839D01*
X79159Y-15809D01*
X79174Y-15779D01*
X79189Y-15764D01*
X79219Y-15749D01*
X79279Y-15734D01*
X79309Y-15719D01*
X79324Y-15704D01*
X79339Y-15674D01*
X79339Y-15644D01*
X79324Y-15614D01*
X79309Y-15599D01*
X79279Y-15584D01*
X79204Y-15584D01*
X79159Y-15599D01*
X78889Y-15689D02*
X78889Y-15899D01*
X78964Y-15569D02*
X79039Y-15794D01*
X78844Y-15794D01*
X78679Y-15719D02*
X78709Y-15704D01*
X78724Y-15689D01*
X78739Y-15659D01*
X78739Y-15644D01*
X78724Y-15614D01*
X78709Y-15599D01*
X78679Y-15584D01*
X78619Y-15584D01*
X78589Y-15599D01*
X78574Y-15614D01*
X78559Y-15644D01*
X78559Y-15659D01*
X78574Y-15689D01*
X78589Y-15704D01*
X78619Y-15719D01*
X78679Y-15719D01*
X78709Y-15734D01*
X78724Y-15749D01*
X78739Y-15779D01*
X78739Y-15839D01*
X78724Y-15869D01*
X78709Y-15884D01*
X78679Y-15899D01*
X78619Y-15899D01*
X78589Y-15884D01*
X78574Y-15869D01*
X78559Y-15839D01*
X78559Y-15779D01*
X78574Y-15749D01*
X78589Y-15734D01*
X78619Y-15719D01*
X78259Y-15899D02*
X78439Y-15899D01*
X78349Y-15899D02*
X78349Y-15584D01*
X78379Y-15629D01*
X78409Y-15659D01*
X78439Y-15674D01*
X77899Y-15884D02*
X77854Y-15899D01*
X77779Y-15899D01*
X77749Y-15884D01*
X77734Y-15869D01*
X77719Y-15839D01*
X77719Y-15809D01*
X77734Y-15779D01*
X77749Y-15764D01*
X77779Y-15749D01*
X77839Y-15734D01*
X77869Y-15719D01*
X77884Y-15704D01*
X77899Y-15674D01*
X77899Y-15644D01*
X77884Y-15614D01*
X77869Y-15599D01*
X77839Y-15584D01*
X77764Y-15584D01*
X77719Y-15599D01*
X77614Y-15689D02*
X77554Y-15899D01*
X77494Y-15749D01*
X77434Y-15899D01*
X77374Y-15689D01*
X77254Y-15899D02*
X77254Y-15689D01*
X77254Y-15584D02*
X77269Y-15599D01*
X77254Y-15614D01*
X77239Y-15599D01*
X77254Y-15584D01*
X77254Y-15614D01*
X77149Y-15689D02*
X77029Y-15689D01*
X77104Y-15584D02*
X77104Y-15854D01*
X77089Y-15884D01*
X77059Y-15899D01*
X77029Y-15899D01*
X76789Y-15884D02*
X76819Y-15899D01*
X76879Y-15899D01*
X76909Y-15884D01*
X76924Y-15869D01*
X76939Y-15839D01*
X76939Y-15749D01*
X76924Y-15719D01*
X76909Y-15704D01*
X76879Y-15689D01*
X76819Y-15689D01*
X76789Y-15704D01*
X76654Y-15899D02*
X76654Y-15584D01*
X76519Y-15899D02*
X76519Y-15734D01*
X76534Y-15704D01*
X76564Y-15689D01*
X76609Y-15689D01*
X76639Y-15704D01*
X76654Y-15719D01*
X76129Y-15899D02*
X76129Y-15584D01*
X76009Y-15584D01*
X75979Y-15599D01*
X75964Y-15614D01*
X75949Y-15644D01*
X75949Y-15689D01*
X75964Y-15719D01*
X75979Y-15734D01*
X76009Y-15749D01*
X76129Y-15749D01*
X75769Y-15899D02*
X75799Y-15884D01*
X75814Y-15854D01*
X75814Y-15584D01*
X75514Y-15899D02*
X75514Y-15734D01*
X75529Y-15704D01*
X75559Y-15689D01*
X75619Y-15689D01*
X75649Y-15704D01*
X75514Y-15884D02*
X75544Y-15899D01*
X75619Y-15899D01*
X75649Y-15884D01*
X75664Y-15854D01*
X75664Y-15824D01*
X75649Y-15794D01*
X75619Y-15779D01*
X75544Y-15779D01*
X75514Y-15764D01*
X75229Y-15884D02*
X75259Y-15899D01*
X75319Y-15899D01*
X75349Y-15884D01*
X75364Y-15869D01*
X75379Y-15839D01*
X75379Y-15749D01*
X75364Y-15719D01*
X75349Y-15704D01*
X75319Y-15689D01*
X75259Y-15689D01*
X75229Y-15704D01*
X74974Y-15884D02*
X75004Y-15899D01*
X75064Y-15899D01*
X75094Y-15884D01*
X75109Y-15854D01*
X75109Y-15734D01*
X75094Y-15704D01*
X75064Y-15689D01*
X75004Y-15689D01*
X74974Y-15704D01*
X74959Y-15734D01*
X74959Y-15764D01*
X75109Y-15794D01*
X74824Y-15899D02*
X74824Y-15689D01*
X74824Y-15719D02*
X74809Y-15704D01*
X74779Y-15689D01*
X74734Y-15689D01*
X74704Y-15704D01*
X74689Y-15734D01*
X74689Y-15899D01*
X74689Y-15734D02*
X74674Y-15704D01*
X74644Y-15689D01*
X74599Y-15689D01*
X74569Y-15704D01*
X74554Y-15734D01*
X74554Y-15899D01*
X74284Y-15884D02*
X74314Y-15899D01*
X74374Y-15899D01*
X74404Y-15884D01*
X74419Y-15854D01*
X74419Y-15734D01*
X74404Y-15704D01*
X74374Y-15689D01*
X74314Y-15689D01*
X74284Y-15704D01*
X74269Y-15734D01*
X74269Y-15764D01*
X74419Y-15794D01*
X74134Y-15689D02*
X74134Y-15899D01*
X74134Y-15719D02*
X74119Y-15704D01*
X74089Y-15689D01*
X74044Y-15689D01*
X74014Y-15704D01*
X73999Y-15734D01*
X73999Y-15899D01*
X73894Y-15689D02*
X73774Y-15689D01*
X73849Y-15584D02*
X73849Y-15854D01*
X73834Y-15884D01*
X73804Y-15899D01*
X73774Y-15899D01*
X73684Y-15884D02*
X73654Y-15899D01*
X73594Y-15899D01*
X73564Y-15884D01*
X73549Y-15854D01*
X73549Y-15839D01*
X73564Y-15809D01*
X73594Y-15794D01*
X73639Y-15794D01*
X73669Y-15779D01*
X73684Y-15749D01*
X73684Y-15734D01*
X73669Y-15704D01*
X73639Y-15689D01*
X73594Y-15689D01*
X73564Y-15704D01*
G54D16*
X23137Y-1524D02*
X23165Y-1581D01*
X23165Y-1674D01*
X23137Y-1712D01*
X23109Y-1731D01*
X23052Y-1749D01*
X22996Y-1749D01*
X22940Y-1731D01*
X22912Y-1712D01*
X22884Y-1674D01*
X22856Y-1599D01*
X22827Y-1562D01*
X22799Y-1543D01*
X22743Y-1524D01*
X22687Y-1524D01*
X22631Y-1543D01*
X22602Y-1562D01*
X22574Y-1599D01*
X22574Y-1693D01*
X22602Y-1749D01*
X23165Y-2124D02*
X23165Y-1899D01*
X23165Y-2012D02*
X22574Y-2012D01*
X22659Y-1974D01*
X22715Y-1937D01*
X22743Y-1899D01*
X23165Y-2499D02*
X23165Y-2274D01*
X23165Y-2387D02*
X22574Y-2387D01*
X22659Y-2349D01*
X22715Y-2312D01*
X22743Y-2274D01*
X22574Y-2987D02*
X22687Y-2949D01*
X22574Y-3118D02*
X23165Y-3212D01*
X22743Y-3287D01*
X23165Y-3362D01*
X22574Y-3455D01*
X22574Y-3624D02*
X22687Y-3587D01*
X23165Y-4280D02*
X23165Y-4093D01*
X22574Y-4093D01*
X22856Y-4412D02*
X22856Y-4543D01*
X23165Y-4599D02*
X23165Y-4412D01*
X22574Y-4412D01*
X22574Y-4599D01*
X23165Y-4768D02*
X22574Y-4768D01*
X22574Y-4861D01*
X22602Y-4918D01*
X22659Y-4955D01*
X22715Y-4974D01*
X22827Y-4993D01*
X22912Y-4993D01*
X23024Y-4974D01*
X23081Y-4955D01*
X23137Y-4918D01*
X23165Y-4861D01*
X23165Y-4768D01*
X32487Y-9103D02*
X32515Y-9159D01*
X32515Y-9253D01*
X32487Y-9290D01*
X32459Y-9309D01*
X32402Y-9327D01*
X32346Y-9327D01*
X32290Y-9309D01*
X32262Y-9290D01*
X32234Y-9253D01*
X32206Y-9178D01*
X32177Y-9140D01*
X32149Y-9121D01*
X32093Y-9103D01*
X32037Y-9103D01*
X31981Y-9121D01*
X31952Y-9140D01*
X31924Y-9178D01*
X31924Y-9271D01*
X31952Y-9327D01*
X32515Y-9702D02*
X32515Y-9477D01*
X32515Y-9590D02*
X31924Y-9590D01*
X32009Y-9552D01*
X32065Y-9515D01*
X32093Y-9477D01*
X31924Y-10040D02*
X31924Y-9965D01*
X31952Y-9927D01*
X31981Y-9909D01*
X32065Y-9871D01*
X32177Y-9852D01*
X32402Y-9852D01*
X32459Y-9871D01*
X32487Y-9890D01*
X32515Y-9927D01*
X32515Y-10002D01*
X32487Y-10040D01*
X32459Y-10059D01*
X32402Y-10077D01*
X32262Y-10077D01*
X32206Y-10059D01*
X32177Y-10040D01*
X32149Y-10002D01*
X32149Y-9927D01*
X32177Y-9890D01*
X32206Y-9871D01*
X32262Y-9852D01*
X31924Y-10565D02*
X32037Y-10527D01*
X32515Y-10734D02*
X31924Y-10734D01*
X31924Y-10827D01*
X31952Y-10884D01*
X32009Y-10921D01*
X32065Y-10940D01*
X32177Y-10959D01*
X32262Y-10959D01*
X32374Y-10940D01*
X32431Y-10921D01*
X32487Y-10884D01*
X32515Y-10827D01*
X32515Y-10734D01*
X31924Y-11146D02*
X32037Y-11109D01*
X32515Y-11802D02*
X32515Y-11615D01*
X31924Y-11615D01*
X32206Y-11933D02*
X32206Y-12065D01*
X32515Y-12121D02*
X32515Y-11933D01*
X31924Y-11933D01*
X31924Y-12121D01*
X32515Y-12290D02*
X31924Y-12290D01*
X31924Y-12383D01*
X31952Y-12440D01*
X32009Y-12477D01*
X32065Y-12496D01*
X32177Y-12515D01*
X32262Y-12515D01*
X32374Y-12496D01*
X32431Y-12477D01*
X32487Y-12440D01*
X32515Y-12383D01*
X32515Y-12290D01*
X24987Y-8912D02*
X25015Y-8968D01*
X25015Y-9062D01*
X24987Y-9099D01*
X24959Y-9118D01*
X24902Y-9137D01*
X24846Y-9137D01*
X24790Y-9118D01*
X24762Y-9099D01*
X24734Y-9062D01*
X24706Y-8987D01*
X24677Y-8949D01*
X24649Y-8931D01*
X24593Y-8912D01*
X24537Y-8912D01*
X24481Y-8931D01*
X24452Y-8949D01*
X24424Y-8987D01*
X24424Y-9081D01*
X24452Y-9137D01*
X25015Y-9512D02*
X25015Y-9287D01*
X25015Y-9399D02*
X24424Y-9399D01*
X24509Y-9362D01*
X24565Y-9324D01*
X24593Y-9287D01*
X24481Y-9662D02*
X24452Y-9681D01*
X24424Y-9718D01*
X24424Y-9812D01*
X24452Y-9849D01*
X24481Y-9868D01*
X24537Y-9887D01*
X24593Y-9887D01*
X24677Y-9868D01*
X25015Y-9643D01*
X25015Y-9887D01*
X24424Y-10374D02*
X24537Y-10337D01*
X24987Y-10524D02*
X25015Y-10580D01*
X25015Y-10674D01*
X24987Y-10712D01*
X24959Y-10730D01*
X24902Y-10749D01*
X24846Y-10749D01*
X24790Y-10730D01*
X24762Y-10712D01*
X24734Y-10674D01*
X24706Y-10599D01*
X24677Y-10562D01*
X24649Y-10543D01*
X24593Y-10524D01*
X24537Y-10524D01*
X24481Y-10543D01*
X24452Y-10562D01*
X24424Y-10599D01*
X24424Y-10693D01*
X24452Y-10749D01*
X24424Y-10937D02*
X24537Y-10899D01*
X25015Y-11593D02*
X25015Y-11405D01*
X24424Y-11405D01*
X24706Y-11724D02*
X24706Y-11855D01*
X25015Y-11912D02*
X25015Y-11724D01*
X24424Y-11724D01*
X24424Y-11912D01*
X25015Y-12080D02*
X24424Y-12080D01*
X24424Y-12174D01*
X24452Y-12230D01*
X24509Y-12268D01*
X24565Y-12286D01*
X24677Y-12305D01*
X24762Y-12305D01*
X24874Y-12286D01*
X24931Y-12268D01*
X24987Y-12230D01*
X25015Y-12174D01*
X25015Y-12080D01*
X17437Y-9881D02*
X17465Y-9937D01*
X17465Y-10031D01*
X17437Y-10068D01*
X17409Y-10087D01*
X17352Y-10106D01*
X17296Y-10106D01*
X17240Y-10087D01*
X17212Y-10068D01*
X17184Y-10031D01*
X17156Y-9956D01*
X17127Y-9918D01*
X17099Y-9899D01*
X17043Y-9881D01*
X16987Y-9881D01*
X16931Y-9899D01*
X16902Y-9918D01*
X16874Y-9956D01*
X16874Y-10049D01*
X16902Y-10106D01*
X16874Y-10349D02*
X16874Y-10387D01*
X16902Y-10424D01*
X16931Y-10443D01*
X16987Y-10462D01*
X17099Y-10481D01*
X17240Y-10481D01*
X17352Y-10462D01*
X17409Y-10443D01*
X17437Y-10424D01*
X17465Y-10387D01*
X17465Y-10349D01*
X17437Y-10312D01*
X17409Y-10293D01*
X17352Y-10274D01*
X17240Y-10256D01*
X17099Y-10256D01*
X16987Y-10274D01*
X16931Y-10293D01*
X16902Y-10312D01*
X16874Y-10349D01*
X16874Y-10612D02*
X16874Y-10874D01*
X17465Y-10706D01*
X16874Y-11343D02*
X16987Y-11305D01*
X17296Y-11493D02*
X17296Y-11680D01*
X17465Y-11455D02*
X16874Y-11587D01*
X17465Y-11718D01*
X16874Y-11868D02*
X16987Y-11830D01*
X17465Y-12524D02*
X17465Y-12337D01*
X16874Y-12337D01*
X17156Y-12655D02*
X17156Y-12787D01*
X17465Y-12843D02*
X17465Y-12655D01*
X16874Y-12655D01*
X16874Y-12843D01*
X17465Y-13011D02*
X16874Y-13011D01*
X16874Y-13105D01*
X16902Y-13161D01*
X16959Y-13199D01*
X17015Y-13218D01*
X17127Y-13236D01*
X17212Y-13236D01*
X17324Y-13218D01*
X17381Y-13199D01*
X17437Y-13161D01*
X17465Y-13105D01*
X17465Y-13011D01*
X787Y-10987D02*
X815Y-11043D01*
X815Y-11137D01*
X787Y-11174D01*
X759Y-11193D01*
X702Y-11212D01*
X646Y-11212D01*
X590Y-11193D01*
X562Y-11174D01*
X534Y-11137D01*
X506Y-11062D01*
X477Y-11024D01*
X449Y-11006D01*
X393Y-10987D01*
X337Y-10987D01*
X281Y-11006D01*
X252Y-11024D01*
X224Y-11062D01*
X224Y-11156D01*
X252Y-11212D01*
X224Y-11455D02*
X224Y-11493D01*
X252Y-11530D01*
X281Y-11549D01*
X337Y-11568D01*
X449Y-11587D01*
X590Y-11587D01*
X702Y-11568D01*
X759Y-11549D01*
X787Y-11530D01*
X815Y-11493D01*
X815Y-11455D01*
X787Y-11418D01*
X759Y-11399D01*
X702Y-11381D01*
X590Y-11362D01*
X449Y-11362D01*
X337Y-11381D01*
X281Y-11399D01*
X252Y-11418D01*
X224Y-11455D01*
X815Y-11962D02*
X815Y-11737D01*
X815Y-11849D02*
X224Y-11849D01*
X309Y-11812D01*
X365Y-11774D01*
X393Y-11737D01*
X815Y-12318D02*
X815Y-12130D01*
X224Y-12130D01*
X506Y-12449D02*
X506Y-12580D01*
X815Y-12637D02*
X815Y-12449D01*
X224Y-12449D01*
X224Y-12637D01*
X815Y-12805D02*
X224Y-12805D01*
X224Y-12899D01*
X252Y-12955D01*
X309Y-12993D01*
X365Y-13012D01*
X477Y-13030D01*
X562Y-13030D01*
X674Y-13012D01*
X731Y-12993D01*
X787Y-12955D01*
X815Y-12899D01*
X815Y-12805D01*
X1987Y-16987D02*
X2015Y-17043D01*
X2015Y-17137D01*
X1987Y-17174D01*
X1959Y-17193D01*
X1902Y-17212D01*
X1846Y-17212D01*
X1790Y-17193D01*
X1762Y-17174D01*
X1734Y-17137D01*
X1706Y-17062D01*
X1677Y-17024D01*
X1649Y-17006D01*
X1593Y-16987D01*
X1537Y-16987D01*
X1481Y-17006D01*
X1452Y-17024D01*
X1424Y-17062D01*
X1424Y-17156D01*
X1452Y-17212D01*
X1424Y-17456D02*
X1424Y-17493D01*
X1452Y-17531D01*
X1481Y-17549D01*
X1537Y-17568D01*
X1649Y-17587D01*
X1790Y-17587D01*
X1902Y-17568D01*
X1959Y-17549D01*
X1987Y-17531D01*
X2015Y-17493D01*
X2015Y-17456D01*
X1987Y-17418D01*
X1959Y-17399D01*
X1902Y-17381D01*
X1790Y-17362D01*
X1649Y-17362D01*
X1537Y-17381D01*
X1481Y-17399D01*
X1452Y-17418D01*
X1424Y-17456D01*
X1424Y-17718D02*
X1424Y-17962D01*
X1649Y-17830D01*
X1649Y-17887D01*
X1677Y-17924D01*
X1706Y-17943D01*
X1762Y-17962D01*
X1902Y-17962D01*
X1959Y-17943D01*
X1987Y-17924D01*
X2015Y-17887D01*
X2015Y-17774D01*
X1987Y-17737D01*
X1959Y-17718D01*
X2015Y-18618D02*
X2015Y-18430D01*
X1424Y-18430D01*
X1706Y-18749D02*
X1706Y-18880D01*
X2015Y-18937D02*
X2015Y-18749D01*
X1424Y-18749D01*
X1424Y-18937D01*
X2015Y-19105D02*
X1424Y-19105D01*
X1424Y-19199D01*
X1452Y-19255D01*
X1509Y-19293D01*
X1565Y-19312D01*
X1677Y-19330D01*
X1762Y-19330D01*
X1874Y-19312D01*
X1931Y-19293D01*
X1987Y-19255D01*
X2015Y-19199D01*
X2015Y-19105D01*
G54D14*
X60480Y-5546D02*
X60766Y-5546D01*
X60766Y-4746D01*
X60280Y-5127D02*
X60080Y-5127D01*
X59995Y-5546D02*
X60280Y-5546D01*
X60280Y-4746D01*
X59995Y-4746D01*
X59738Y-5546D02*
X59738Y-4746D01*
X59595Y-4746D01*
X59509Y-4784D01*
X59452Y-4861D01*
X59423Y-4937D01*
X59395Y-5089D01*
X59395Y-5204D01*
X59423Y-5356D01*
X59452Y-5432D01*
X59509Y-5508D01*
X59595Y-5546D01*
X59738Y-5546D01*
X59166Y-5508D02*
X59109Y-5546D01*
X58995Y-5546D01*
X58938Y-5508D01*
X58909Y-5432D01*
X58909Y-5394D01*
X58938Y-5318D01*
X58995Y-5280D01*
X59080Y-5280D01*
X59138Y-5242D01*
X59166Y-5165D01*
X59166Y-5127D01*
X59138Y-5051D01*
X59080Y-5013D01*
X58995Y-5013D01*
X58938Y-5051D01*
X52980Y-5546D02*
X53266Y-5546D01*
X53266Y-4746D01*
X52780Y-5127D02*
X52580Y-5127D01*
X52495Y-5546D02*
X52780Y-5546D01*
X52780Y-4746D01*
X52495Y-4746D01*
X52238Y-5546D02*
X52238Y-4746D01*
X52095Y-4746D01*
X52009Y-4784D01*
X51952Y-4861D01*
X51923Y-4937D01*
X51895Y-5089D01*
X51895Y-5204D01*
X51923Y-5356D01*
X51952Y-5432D01*
X52009Y-5508D01*
X52095Y-5546D01*
X52238Y-5546D01*
X51666Y-5508D02*
X51609Y-5546D01*
X51495Y-5546D01*
X51438Y-5508D01*
X51409Y-5432D01*
X51409Y-5394D01*
X51438Y-5318D01*
X51495Y-5280D01*
X51580Y-5280D01*
X51638Y-5242D01*
X51666Y-5165D01*
X51666Y-5127D01*
X51638Y-5051D01*
X51580Y-5013D01*
X51495Y-5013D01*
X51438Y-5051D01*
X45480Y-5546D02*
X45766Y-5546D01*
X45766Y-4746D01*
X45280Y-5127D02*
X45080Y-5127D01*
X44995Y-5546D02*
X45280Y-5546D01*
X45280Y-4746D01*
X44995Y-4746D01*
X44738Y-5546D02*
X44738Y-4746D01*
X44595Y-4746D01*
X44509Y-4784D01*
X44452Y-4861D01*
X44423Y-4937D01*
X44395Y-5089D01*
X44395Y-5204D01*
X44423Y-5356D01*
X44452Y-5432D01*
X44509Y-5508D01*
X44595Y-5546D01*
X44738Y-5546D01*
X44166Y-5508D02*
X44109Y-5546D01*
X43995Y-5546D01*
X43938Y-5508D01*
X43909Y-5432D01*
X43909Y-5394D01*
X43938Y-5318D01*
X43995Y-5280D01*
X44080Y-5280D01*
X44138Y-5242D01*
X44166Y-5165D01*
X44166Y-5127D01*
X44138Y-5051D01*
X44080Y-5013D01*
X43995Y-5013D01*
X43938Y-5051D01*
X38104Y-5632D02*
X38390Y-5632D01*
X38390Y-4832D01*
X37904Y-5213D02*
X37704Y-5213D01*
X37619Y-5632D02*
X37904Y-5632D01*
X37904Y-4832D01*
X37619Y-4832D01*
X37362Y-5632D02*
X37362Y-4832D01*
X37219Y-4832D01*
X37133Y-4870D01*
X37076Y-4947D01*
X37047Y-5023D01*
X37019Y-5175D01*
X37019Y-5290D01*
X37047Y-5442D01*
X37076Y-5518D01*
X37133Y-5594D01*
X37219Y-5632D01*
X37362Y-5632D01*
X36790Y-5594D02*
X36733Y-5632D01*
X36619Y-5632D01*
X36562Y-5594D01*
X36533Y-5518D01*
X36533Y-5480D01*
X36562Y-5404D01*
X36619Y-5366D01*
X36704Y-5366D01*
X36762Y-5328D01*
X36790Y-5251D01*
X36790Y-5213D01*
X36762Y-5137D01*
X36704Y-5099D01*
X36619Y-5099D01*
X36562Y-5137D01*
G54D17*
X12067Y-18975D02*
G75*
G03X12067Y-18975I-591J0D01*
G74*
G01*
X10551Y-17755D02*
X10551Y-17558D01*
X10551Y-17558D02*
X10826Y-17558D01*
X10826Y-17558D02*
X10826Y-17755D01*
X12401Y-17558D02*
X12401Y-17755D01*
X12126Y-17558D02*
X12401Y-17558D01*
X12126Y-17755D02*
X12126Y-17558D01*
X12126Y-20195D02*
X12126Y-20392D01*
X12126Y-20392D02*
X12401Y-20392D01*
X12401Y-20392D02*
X12401Y-20195D01*
X10551Y-20195D02*
X10551Y-20392D01*
X10551Y-20392D02*
X10826Y-20392D01*
X10826Y-20392D02*
X10826Y-20195D01*
G54D18*
X12696Y-17873D02*
X12696Y-20077D01*
X10256Y-17873D02*
X10256Y-20077D01*
X10295Y-17755D02*
X10295Y-20195D01*
X10295Y-20195D02*
X12657Y-20195D01*
X12657Y-20195D02*
X12657Y-17755D01*
X12657Y-17755D02*
X10295Y-17755D01*
G54D19*
X60746Y-27459D02*
X62046Y-27459D01*
X62046Y-27459D02*
X62046Y-25859D01*
X62046Y-25859D02*
X60746Y-25859D01*
X60746Y-25859D02*
X60746Y-27459D01*
G54D14*
X55374Y-27955D02*
X59314Y-27955D01*
X59314Y-27955D02*
X59314Y-24015D01*
X55564Y-24015D02*
X59314Y-24015D01*
X55374Y-24205D02*
X55374Y-27955D01*
X55564Y-24015D02*
X55374Y-24205D01*
G54D12*
X56094Y-24485D02*
G75*
G03X56094Y-24485I-250J0D01*
G74*
G01*
G54D19*
X6559Y-7323D02*
X7002Y-7323D01*
X7002Y-7323D02*
X7002Y-6523D01*
X7002Y-6523D02*
X6559Y-6523D01*
X6134Y-7323D02*
X5702Y-7323D01*
X5702Y-7323D02*
X5702Y-6523D01*
X5702Y-6523D02*
X6134Y-6523D01*
X63203Y-26059D02*
X63646Y-26059D01*
X63646Y-26059D02*
X63646Y-25259D01*
X63646Y-25259D02*
X63203Y-25259D01*
X62778Y-26059D02*
X62346Y-26059D01*
X62346Y-26059D02*
X62346Y-25259D01*
X62346Y-25259D02*
X62778Y-25259D01*
X63203Y-27809D02*
X63646Y-27809D01*
X63646Y-27809D02*
X63646Y-27009D01*
X63646Y-27009D02*
X63203Y-27009D01*
X62778Y-27809D02*
X62346Y-27809D01*
X62346Y-27809D02*
X62346Y-27009D01*
X62346Y-27009D02*
X62778Y-27009D01*
X53538Y-27259D02*
X53096Y-27259D01*
X53096Y-27259D02*
X53096Y-28059D01*
X53096Y-28059D02*
X53538Y-28059D01*
X53964Y-27259D02*
X54396Y-27259D01*
X54396Y-27259D02*
X54396Y-28059D01*
X54396Y-28059D02*
X53964Y-28059D01*
X53938Y-23284D02*
X53496Y-23284D01*
X53496Y-23284D02*
X53496Y-24084D01*
X53496Y-24084D02*
X53938Y-24084D01*
X54364Y-23284D02*
X54796Y-23284D01*
X54796Y-23284D02*
X54796Y-24084D01*
X54796Y-24084D02*
X54364Y-24084D01*
X61188Y-27709D02*
X60746Y-27709D01*
X60746Y-27709D02*
X60746Y-28509D01*
X60746Y-28509D02*
X61188Y-28509D01*
X61614Y-27709D02*
X62046Y-27709D01*
X62046Y-27709D02*
X62046Y-28509D01*
X62046Y-28509D02*
X61614Y-28509D01*
X61188Y-24809D02*
X60746Y-24809D01*
X60746Y-24809D02*
X60746Y-25609D01*
X60746Y-25609D02*
X61188Y-25609D01*
X61614Y-24809D02*
X62046Y-24809D01*
X62046Y-24809D02*
X62046Y-25609D01*
X62046Y-25609D02*
X61614Y-25609D01*
X7776Y-4951D02*
X7776Y-4509D01*
X7776Y-4509D02*
X6976Y-4509D01*
X6976Y-4509D02*
X6976Y-4951D01*
X7776Y-5377D02*
X7776Y-5809D01*
X7776Y-5809D02*
X6976Y-5809D01*
X6976Y-5809D02*
X6976Y-5377D01*
X8626Y-4951D02*
X8626Y-4509D01*
X8626Y-4509D02*
X7826Y-4509D01*
X7826Y-4509D02*
X7826Y-4951D01*
X8626Y-5377D02*
X8626Y-5809D01*
X8626Y-5809D02*
X7826Y-5809D01*
X7826Y-5809D02*
X7826Y-5377D01*
X60553Y-24059D02*
X60996Y-24059D01*
X60996Y-24059D02*
X60996Y-23259D01*
X60996Y-23259D02*
X60553Y-23259D01*
X60128Y-24059D02*
X59696Y-24059D01*
X59696Y-24059D02*
X59696Y-23259D01*
X59696Y-23259D02*
X60128Y-23259D01*
X53543Y-28233D02*
X53101Y-28233D01*
X53101Y-28233D02*
X53101Y-29033D01*
X53101Y-29033D02*
X53543Y-29033D01*
X53969Y-28233D02*
X54401Y-28233D01*
X54401Y-28233D02*
X54401Y-29033D01*
X54401Y-29033D02*
X53969Y-29033D01*
X62038Y-23609D02*
X61596Y-23609D01*
X61596Y-23609D02*
X61596Y-24409D01*
X61596Y-24409D02*
X62038Y-24409D01*
X62464Y-23609D02*
X62896Y-23609D01*
X62896Y-23609D02*
X62896Y-24409D01*
X62896Y-24409D02*
X62464Y-24409D01*
X1376Y-13509D02*
X1376Y-13309D01*
X1376Y-10509D02*
X1376Y-10709D01*
X1376Y-10709D02*
X1776Y-10709D01*
X1776Y-10709D02*
X1776Y-13309D01*
X1776Y-13309D02*
X976Y-13309D01*
X976Y-13309D02*
X976Y-10709D01*
X976Y-10709D02*
X1376Y-10709D01*
X2701Y-16622D02*
X2701Y-16822D01*
X2701Y-19622D02*
X2701Y-19422D01*
X2701Y-19422D02*
X2301Y-19422D01*
X2301Y-19422D02*
X2301Y-16822D01*
X2301Y-16822D02*
X3101Y-16822D01*
X3101Y-16822D02*
X3101Y-19422D01*
X3101Y-19422D02*
X2701Y-19422D01*
X31301Y-12122D02*
X31301Y-11922D01*
X31301Y-9122D02*
X31301Y-9322D01*
X31301Y-9322D02*
X31701Y-9322D01*
X31701Y-9322D02*
X31701Y-11922D01*
X31701Y-11922D02*
X30901Y-11922D01*
X30901Y-11922D02*
X30901Y-9322D01*
X30901Y-9322D02*
X31301Y-9322D01*
X23851Y-12122D02*
X23851Y-11922D01*
X23851Y-9122D02*
X23851Y-9322D01*
X23851Y-9322D02*
X24251Y-9322D01*
X24251Y-9322D02*
X24251Y-11922D01*
X24251Y-11922D02*
X23451Y-11922D01*
X23451Y-11922D02*
X23451Y-9322D01*
X23451Y-9322D02*
X23851Y-9322D01*
X16301Y-13022D02*
X16301Y-12822D01*
X16301Y-10022D02*
X16301Y-10222D01*
X16301Y-10222D02*
X16701Y-10222D01*
X16701Y-10222D02*
X16701Y-12822D01*
X16701Y-12822D02*
X15901Y-12822D01*
X15901Y-12822D02*
X15901Y-10222D01*
X15901Y-10222D02*
X16301Y-10222D01*
X22001Y-4622D02*
X22001Y-4422D01*
X22001Y-1622D02*
X22001Y-1822D01*
X22001Y-1822D02*
X22401Y-1822D01*
X22401Y-1822D02*
X22401Y-4422D01*
X22401Y-4422D02*
X21601Y-4422D01*
X21601Y-4422D02*
X21601Y-1822D01*
X21601Y-1822D02*
X22001Y-1822D01*
G54D15*
X8665Y-2488D02*
X8665Y11D01*
X8665Y11D02*
X5665Y11D01*
X5665Y11D02*
X5665Y-2488D01*
X8015Y-2488D02*
X8665Y-2488D01*
G54D17*
X5665Y-2488D02*
X6365Y-2488D01*
G54D20*
X72267Y-6727D02*
X72937Y-6727D01*
X72937Y-6727D02*
X72937Y-6688D01*
X72937Y-6688D02*
X72267Y-6688D01*
X72838Y-5802D02*
X72937Y-5802D01*
X72937Y-5802D02*
X72937Y-6943D01*
X72937Y-6943D02*
X72858Y-6943D01*
X72267Y-6943D02*
X72267Y-5802D01*
X72267Y-5802D02*
X72366Y-5802D01*
X72366Y-6943D02*
X72267Y-6943D01*
X72385Y-6510D02*
X72818Y-6510D01*
X72385Y-6235D02*
X72818Y-6235D01*
X72818Y-6235D02*
X72602Y-6491D01*
X72602Y-6491D02*
X72385Y-6235D01*
X66517Y-14227D02*
X67187Y-14227D01*
X67187Y-14227D02*
X67187Y-14188D01*
X67187Y-14188D02*
X66517Y-14188D01*
X67088Y-13302D02*
X67187Y-13302D01*
X67187Y-13302D02*
X67187Y-14443D01*
X67187Y-14443D02*
X67108Y-14443D01*
X66517Y-14443D02*
X66517Y-13302D01*
X66517Y-13302D02*
X66616Y-13302D01*
X66616Y-14443D02*
X66517Y-14443D01*
X66635Y-14010D02*
X67068Y-14010D01*
X66635Y-13735D02*
X67068Y-13735D01*
X67068Y-13735D02*
X66852Y-13991D01*
X66852Y-13991D02*
X66635Y-13735D01*
X70017Y-21727D02*
X70687Y-21727D01*
X70687Y-21727D02*
X70687Y-21688D01*
X70687Y-21688D02*
X70017Y-21688D01*
X70588Y-20802D02*
X70687Y-20802D01*
X70687Y-20802D02*
X70687Y-21944D01*
X70687Y-21944D02*
X70608Y-21944D01*
X70017Y-21944D02*
X70017Y-20802D01*
X70017Y-20802D02*
X70116Y-20802D01*
X70116Y-21944D02*
X70017Y-21944D01*
X70135Y-21511D02*
X70568Y-21511D01*
X70135Y-21235D02*
X70568Y-21235D01*
X70568Y-21235D02*
X70352Y-21491D01*
X70352Y-21491D02*
X70135Y-21235D01*
X36517Y-14227D02*
X37187Y-14227D01*
X37187Y-14227D02*
X37187Y-14188D01*
X37187Y-14188D02*
X36517Y-14188D01*
X37088Y-13302D02*
X37187Y-13302D01*
X37187Y-13302D02*
X37187Y-14443D01*
X37187Y-14443D02*
X37108Y-14443D01*
X36517Y-14443D02*
X36517Y-13302D01*
X36517Y-13302D02*
X36616Y-13302D01*
X36616Y-14443D02*
X36517Y-14443D01*
X36635Y-14010D02*
X37068Y-14010D01*
X36635Y-13735D02*
X37068Y-13735D01*
X37068Y-13735D02*
X36852Y-13991D01*
X36852Y-13991D02*
X36635Y-13735D01*
X62517Y-21727D02*
X63187Y-21727D01*
X63187Y-21727D02*
X63187Y-21688D01*
X63187Y-21688D02*
X62517Y-21688D01*
X63088Y-20802D02*
X63187Y-20802D01*
X63187Y-20802D02*
X63187Y-21944D01*
X63187Y-21944D02*
X63108Y-21944D01*
X62517Y-21944D02*
X62517Y-20802D01*
X62517Y-20802D02*
X62616Y-20802D01*
X62616Y-21944D02*
X62517Y-21944D01*
X62635Y-21511D02*
X63068Y-21511D01*
X62635Y-21235D02*
X63068Y-21235D01*
X63068Y-21235D02*
X62852Y-21491D01*
X62852Y-21491D02*
X62635Y-21235D01*
X59017Y-14227D02*
X59687Y-14227D01*
X59687Y-14227D02*
X59687Y-14188D01*
X59687Y-14188D02*
X59017Y-14188D01*
X59588Y-13302D02*
X59687Y-13302D01*
X59687Y-13302D02*
X59687Y-14443D01*
X59687Y-14443D02*
X59608Y-14443D01*
X59017Y-14443D02*
X59017Y-13302D01*
X59017Y-13302D02*
X59116Y-13302D01*
X59116Y-14443D02*
X59017Y-14443D01*
X59135Y-14010D02*
X59568Y-14010D01*
X59135Y-13735D02*
X59568Y-13735D01*
X59568Y-13735D02*
X59352Y-13991D01*
X59352Y-13991D02*
X59135Y-13735D01*
X64767Y-6727D02*
X65437Y-6727D01*
X65437Y-6727D02*
X65437Y-6688D01*
X65437Y-6688D02*
X64767Y-6688D01*
X65338Y-5802D02*
X65437Y-5802D01*
X65437Y-5802D02*
X65437Y-6943D01*
X65437Y-6943D02*
X65358Y-6943D01*
X64767Y-6943D02*
X64767Y-5802D01*
X64767Y-5802D02*
X64866Y-5802D01*
X64866Y-6943D02*
X64767Y-6943D01*
X64885Y-6510D02*
X65318Y-6510D01*
X64885Y-6235D02*
X65318Y-6235D01*
X65318Y-6235D02*
X65102Y-6491D01*
X65102Y-6491D02*
X64885Y-6235D01*
X57267Y-6727D02*
X57937Y-6727D01*
X57937Y-6727D02*
X57937Y-6688D01*
X57937Y-6688D02*
X57267Y-6688D01*
X57838Y-5802D02*
X57937Y-5802D01*
X57937Y-5802D02*
X57937Y-6943D01*
X57937Y-6943D02*
X57858Y-6943D01*
X57267Y-6943D02*
X57267Y-5802D01*
X57267Y-5802D02*
X57366Y-5802D01*
X57366Y-6943D02*
X57267Y-6943D01*
X57385Y-6510D02*
X57818Y-6510D01*
X57385Y-6235D02*
X57818Y-6235D01*
X57818Y-6235D02*
X57602Y-6491D01*
X57602Y-6491D02*
X57385Y-6235D01*
X51517Y-14227D02*
X52187Y-14227D01*
X52187Y-14227D02*
X52187Y-14188D01*
X52187Y-14188D02*
X51517Y-14188D01*
X52088Y-13302D02*
X52187Y-13302D01*
X52187Y-13302D02*
X52187Y-14443D01*
X52187Y-14443D02*
X52108Y-14443D01*
X51517Y-14443D02*
X51517Y-13302D01*
X51517Y-13302D02*
X51616Y-13302D01*
X51616Y-14443D02*
X51517Y-14443D01*
X51635Y-14010D02*
X52068Y-14010D01*
X51635Y-13735D02*
X52068Y-13735D01*
X52068Y-13735D02*
X51852Y-13991D01*
X51852Y-13991D02*
X51635Y-13735D01*
X55017Y-21727D02*
X55687Y-21727D01*
X55687Y-21727D02*
X55687Y-21688D01*
X55687Y-21688D02*
X55017Y-21688D01*
X55588Y-20802D02*
X55687Y-20802D01*
X55687Y-20802D02*
X55687Y-21944D01*
X55687Y-21944D02*
X55608Y-21944D01*
X55017Y-21944D02*
X55017Y-20802D01*
X55017Y-20802D02*
X55116Y-20802D01*
X55116Y-21944D02*
X55017Y-21944D01*
X55135Y-21511D02*
X55568Y-21511D01*
X55135Y-21235D02*
X55568Y-21235D01*
X55568Y-21235D02*
X55352Y-21491D01*
X55352Y-21491D02*
X55135Y-21235D01*
X40017Y-21727D02*
X40687Y-21727D01*
X40687Y-21727D02*
X40687Y-21688D01*
X40687Y-21688D02*
X40017Y-21688D01*
X40588Y-20802D02*
X40687Y-20802D01*
X40687Y-20802D02*
X40687Y-21944D01*
X40687Y-21944D02*
X40608Y-21944D01*
X40017Y-21944D02*
X40017Y-20802D01*
X40017Y-20802D02*
X40116Y-20802D01*
X40116Y-21944D02*
X40017Y-21944D01*
X40135Y-21511D02*
X40568Y-21511D01*
X40135Y-21235D02*
X40568Y-21235D01*
X40568Y-21235D02*
X40352Y-21491D01*
X40352Y-21491D02*
X40135Y-21235D01*
X4767Y-6727D02*
X5437Y-6727D01*
X5437Y-6727D02*
X5437Y-6688D01*
X5437Y-6688D02*
X4767Y-6688D01*
X5338Y-5802D02*
X5437Y-5802D01*
X5437Y-5802D02*
X5437Y-6943D01*
X5437Y-6943D02*
X5358Y-6943D01*
X4767Y-6943D02*
X4767Y-5802D01*
X4767Y-5802D02*
X4866Y-5802D01*
X4866Y-6943D02*
X4767Y-6943D01*
X4885Y-6510D02*
X5318Y-6510D01*
X4885Y-6235D02*
X5318Y-6235D01*
X5318Y-6235D02*
X5102Y-6491D01*
X5102Y-6491D02*
X4885Y-6235D01*
X49767Y-6727D02*
X50437Y-6727D01*
X50437Y-6727D02*
X50437Y-6688D01*
X50437Y-6688D02*
X49767Y-6688D01*
X50338Y-5802D02*
X50437Y-5802D01*
X50437Y-5802D02*
X50437Y-6943D01*
X50437Y-6943D02*
X50358Y-6943D01*
X49767Y-6943D02*
X49767Y-5802D01*
X49767Y-5802D02*
X49866Y-5802D01*
X49866Y-6943D02*
X49767Y-6943D01*
X49885Y-6510D02*
X50318Y-6510D01*
X49885Y-6235D02*
X50318Y-6235D01*
X50318Y-6235D02*
X50102Y-6491D01*
X50102Y-6491D02*
X49885Y-6235D01*
X34767Y-6727D02*
X35437Y-6727D01*
X35437Y-6727D02*
X35437Y-6688D01*
X35437Y-6688D02*
X34767Y-6688D01*
X35338Y-5802D02*
X35437Y-5802D01*
X35437Y-5802D02*
X35437Y-6943D01*
X35437Y-6943D02*
X35358Y-6943D01*
X34767Y-6943D02*
X34767Y-5802D01*
X34767Y-5802D02*
X34866Y-5802D01*
X34866Y-6943D02*
X34767Y-6943D01*
X34885Y-6510D02*
X35318Y-6510D01*
X34885Y-6235D02*
X35318Y-6235D01*
X35318Y-6235D02*
X35102Y-6491D01*
X35102Y-6491D02*
X34885Y-6235D01*
X32517Y-21727D02*
X33187Y-21727D01*
X33187Y-21727D02*
X33187Y-21688D01*
X33187Y-21688D02*
X32517Y-21688D01*
X33088Y-20802D02*
X33187Y-20802D01*
X33187Y-20802D02*
X33187Y-21944D01*
X33187Y-21944D02*
X33108Y-21944D01*
X32517Y-21944D02*
X32517Y-20802D01*
X32517Y-20802D02*
X32616Y-20802D01*
X32616Y-21944D02*
X32517Y-21944D01*
X32635Y-21511D02*
X33068Y-21511D01*
X32635Y-21235D02*
X33068Y-21235D01*
X33068Y-21235D02*
X32852Y-21491D01*
X32852Y-21491D02*
X32635Y-21235D01*
X29017Y-14227D02*
X29687Y-14227D01*
X29687Y-14227D02*
X29687Y-14188D01*
X29687Y-14188D02*
X29017Y-14188D01*
X29588Y-13302D02*
X29687Y-13302D01*
X29687Y-13302D02*
X29687Y-14443D01*
X29687Y-14443D02*
X29608Y-14443D01*
X29017Y-14443D02*
X29017Y-13302D01*
X29017Y-13302D02*
X29116Y-13302D01*
X29116Y-14443D02*
X29017Y-14443D01*
X29135Y-14010D02*
X29568Y-14010D01*
X29135Y-13735D02*
X29568Y-13735D01*
X29568Y-13735D02*
X29352Y-13991D01*
X29352Y-13991D02*
X29135Y-13735D01*
X27267Y-6727D02*
X27937Y-6727D01*
X27937Y-6727D02*
X27937Y-6688D01*
X27937Y-6688D02*
X27267Y-6688D01*
X27838Y-5802D02*
X27937Y-5802D01*
X27937Y-5802D02*
X27937Y-6943D01*
X27937Y-6943D02*
X27858Y-6943D01*
X27267Y-6943D02*
X27267Y-5802D01*
X27267Y-5802D02*
X27366Y-5802D01*
X27366Y-6943D02*
X27267Y-6943D01*
X27385Y-6510D02*
X27818Y-6510D01*
X27385Y-6235D02*
X27818Y-6235D01*
X27818Y-6235D02*
X27602Y-6491D01*
X27602Y-6491D02*
X27385Y-6235D01*
X49937Y-23768D02*
X49267Y-23768D01*
X49267Y-23768D02*
X49267Y-23808D01*
X49267Y-23808D02*
X49937Y-23808D01*
X49366Y-24694D02*
X49267Y-24694D01*
X49267Y-24694D02*
X49267Y-23552D01*
X49267Y-23552D02*
X49346Y-23552D01*
X49937Y-23552D02*
X49937Y-24694D01*
X49937Y-24694D02*
X49838Y-24694D01*
X49838Y-23552D02*
X49937Y-23552D01*
X49818Y-23985D02*
X49385Y-23985D01*
X49818Y-24261D02*
X49385Y-24261D01*
X49385Y-24261D02*
X49602Y-24005D01*
X49602Y-24005D02*
X49818Y-24261D01*
X47517Y-21727D02*
X48187Y-21727D01*
X48187Y-21727D02*
X48187Y-21688D01*
X48187Y-21688D02*
X47517Y-21688D01*
X48088Y-20802D02*
X48187Y-20802D01*
X48187Y-20802D02*
X48187Y-21944D01*
X48187Y-21944D02*
X48108Y-21944D01*
X47517Y-21944D02*
X47517Y-20802D01*
X47517Y-20802D02*
X47616Y-20802D01*
X47616Y-21944D02*
X47517Y-21944D01*
X47635Y-21511D02*
X48068Y-21511D01*
X47635Y-21235D02*
X48068Y-21235D01*
X48068Y-21235D02*
X47852Y-21491D01*
X47852Y-21491D02*
X47635Y-21235D01*
X44017Y-14227D02*
X44687Y-14227D01*
X44687Y-14227D02*
X44687Y-14188D01*
X44687Y-14188D02*
X44017Y-14188D01*
X44588Y-13302D02*
X44687Y-13302D01*
X44687Y-13302D02*
X44687Y-14443D01*
X44687Y-14443D02*
X44608Y-14443D01*
X44017Y-14443D02*
X44017Y-13302D01*
X44017Y-13302D02*
X44116Y-13302D01*
X44116Y-14443D02*
X44017Y-14443D01*
X44135Y-14010D02*
X44568Y-14010D01*
X44135Y-13735D02*
X44568Y-13735D01*
X44568Y-13735D02*
X44352Y-13991D01*
X44352Y-13991D02*
X44135Y-13735D01*
X42267Y-6727D02*
X42937Y-6727D01*
X42937Y-6727D02*
X42937Y-6688D01*
X42937Y-6688D02*
X42267Y-6688D01*
X42838Y-5802D02*
X42937Y-5802D01*
X42937Y-5802D02*
X42937Y-6943D01*
X42937Y-6943D02*
X42858Y-6943D01*
X42267Y-6943D02*
X42267Y-5802D01*
X42267Y-5802D02*
X42366Y-5802D01*
X42366Y-6943D02*
X42267Y-6943D01*
X42385Y-6510D02*
X42818Y-6510D01*
X42385Y-6235D02*
X42818Y-6235D01*
X42818Y-6235D02*
X42602Y-6491D01*
X42602Y-6491D02*
X42385Y-6235D01*
X22687Y-23768D02*
X22017Y-23768D01*
X22017Y-23768D02*
X22017Y-23808D01*
X22017Y-23808D02*
X22687Y-23808D01*
X22116Y-24694D02*
X22017Y-24694D01*
X22017Y-24694D02*
X22017Y-23552D01*
X22017Y-23552D02*
X22096Y-23552D01*
X22687Y-23552D02*
X22687Y-24694D01*
X22687Y-24694D02*
X22588Y-24694D01*
X22588Y-23552D02*
X22687Y-23552D01*
X22568Y-23985D02*
X22135Y-23985D01*
X22568Y-24261D02*
X22135Y-24261D01*
X22135Y-24261D02*
X22352Y-24005D01*
X22352Y-24005D02*
X22568Y-24261D01*
X15187Y-23768D02*
X14517Y-23768D01*
X14517Y-23768D02*
X14517Y-23808D01*
X14517Y-23808D02*
X15187Y-23808D01*
X14616Y-24694D02*
X14517Y-24694D01*
X14517Y-24694D02*
X14517Y-23552D01*
X14517Y-23552D02*
X14596Y-23552D01*
X15187Y-23552D02*
X15187Y-24694D01*
X15187Y-24694D02*
X15088Y-24694D01*
X15088Y-23552D02*
X15187Y-23552D01*
X15068Y-23985D02*
X14635Y-23985D01*
X15068Y-24261D02*
X14635Y-24261D01*
X14635Y-24261D02*
X14852Y-24005D01*
X14852Y-24005D02*
X15068Y-24261D01*
X25017Y-21727D02*
X25687Y-21727D01*
X25687Y-21727D02*
X25687Y-21688D01*
X25687Y-21688D02*
X25017Y-21688D01*
X25588Y-20802D02*
X25687Y-20802D01*
X25687Y-20802D02*
X25687Y-21944D01*
X25687Y-21944D02*
X25608Y-21944D01*
X25017Y-21944D02*
X25017Y-20802D01*
X25017Y-20802D02*
X25116Y-20802D01*
X25116Y-21944D02*
X25017Y-21944D01*
X25135Y-21511D02*
X25568Y-21511D01*
X25135Y-21235D02*
X25568Y-21235D01*
X25568Y-21235D02*
X25352Y-21491D01*
X25352Y-21491D02*
X25135Y-21235D01*
X21517Y-14227D02*
X22187Y-14227D01*
X22187Y-14227D02*
X22187Y-14188D01*
X22187Y-14188D02*
X21517Y-14188D01*
X22088Y-13302D02*
X22187Y-13302D01*
X22187Y-13302D02*
X22187Y-14443D01*
X22187Y-14443D02*
X22108Y-14443D01*
X21517Y-14443D02*
X21517Y-13302D01*
X21517Y-13302D02*
X21616Y-13302D01*
X21616Y-14443D02*
X21517Y-14443D01*
X21635Y-14010D02*
X22068Y-14010D01*
X21635Y-13735D02*
X22068Y-13735D01*
X22068Y-13735D02*
X21852Y-13991D01*
X21852Y-13991D02*
X21635Y-13735D01*
X17517Y-21727D02*
X18187Y-21727D01*
X18187Y-21727D02*
X18187Y-21688D01*
X18187Y-21688D02*
X17517Y-21688D01*
X18088Y-20802D02*
X18187Y-20802D01*
X18187Y-20802D02*
X18187Y-21944D01*
X18187Y-21944D02*
X18108Y-21944D01*
X17517Y-21944D02*
X17517Y-20802D01*
X17517Y-20802D02*
X17616Y-20802D01*
X17616Y-21944D02*
X17517Y-21944D01*
X17635Y-21511D02*
X18068Y-21511D01*
X17635Y-21235D02*
X18068Y-21235D01*
X18068Y-21235D02*
X17852Y-21491D01*
X17852Y-21491D02*
X17635Y-21235D01*
X14017Y-14227D02*
X14687Y-14227D01*
X14687Y-14227D02*
X14687Y-14188D01*
X14687Y-14188D02*
X14017Y-14188D01*
X14588Y-13302D02*
X14687Y-13302D01*
X14687Y-13302D02*
X14687Y-14443D01*
X14687Y-14443D02*
X14608Y-14443D01*
X14017Y-14443D02*
X14017Y-13302D01*
X14017Y-13302D02*
X14116Y-13302D01*
X14116Y-14443D02*
X14017Y-14443D01*
X14135Y-14010D02*
X14568Y-14010D01*
X14135Y-13735D02*
X14568Y-13735D01*
X14568Y-13735D02*
X14352Y-13991D01*
X14352Y-13991D02*
X14135Y-13735D01*
X6687Y-23768D02*
X6017Y-23768D01*
X6017Y-23768D02*
X6017Y-23808D01*
X6017Y-23808D02*
X6687Y-23808D01*
X6116Y-24694D02*
X6017Y-24694D01*
X6017Y-24694D02*
X6017Y-23552D01*
X6017Y-23552D02*
X6096Y-23552D01*
X6687Y-23552D02*
X6687Y-24694D01*
X6687Y-24694D02*
X6588Y-24694D01*
X6588Y-23552D02*
X6687Y-23552D01*
X6568Y-23985D02*
X6135Y-23985D01*
X6568Y-24261D02*
X6135Y-24261D01*
X6135Y-24261D02*
X6352Y-24005D01*
X6352Y-24005D02*
X6568Y-24261D01*
X5517Y-14227D02*
X6187Y-14227D01*
X6187Y-14227D02*
X6187Y-14188D01*
X6187Y-14188D02*
X5517Y-14188D01*
X6088Y-13302D02*
X6187Y-13302D01*
X6187Y-13302D02*
X6187Y-14443D01*
X6187Y-14443D02*
X6108Y-14443D01*
X5517Y-14443D02*
X5517Y-13302D01*
X5517Y-13302D02*
X5616Y-13302D01*
X5616Y-14443D02*
X5517Y-14443D01*
X5635Y-14010D02*
X6068Y-14010D01*
X5635Y-13735D02*
X6068Y-13735D01*
X6068Y-13735D02*
X5852Y-13991D01*
X5852Y-13991D02*
X5635Y-13735D01*
X19767Y-6727D02*
X20437Y-6727D01*
X20437Y-6727D02*
X20437Y-6688D01*
X20437Y-6688D02*
X19767Y-6688D01*
X20338Y-5802D02*
X20437Y-5802D01*
X20437Y-5802D02*
X20437Y-6943D01*
X20437Y-6943D02*
X20358Y-6943D01*
X19767Y-6943D02*
X19767Y-5802D01*
X19767Y-5802D02*
X19866Y-5802D01*
X19866Y-6943D02*
X19767Y-6943D01*
X19885Y-6510D02*
X20318Y-6510D01*
X19885Y-6235D02*
X20318Y-6235D01*
X20318Y-6235D02*
X20102Y-6491D01*
X20102Y-6491D02*
X19885Y-6235D01*
X12267Y-6727D02*
X12937Y-6727D01*
X12937Y-6727D02*
X12937Y-6688D01*
X12937Y-6688D02*
X12267Y-6688D01*
X12838Y-5802D02*
X12937Y-5802D01*
X12937Y-5802D02*
X12937Y-6943D01*
X12937Y-6943D02*
X12858Y-6943D01*
X12267Y-6943D02*
X12267Y-5802D01*
X12267Y-5802D02*
X12366Y-5802D01*
X12366Y-6943D02*
X12267Y-6943D01*
X12385Y-6510D02*
X12818Y-6510D01*
X12385Y-6235D02*
X12818Y-6235D01*
X12818Y-6235D02*
X12602Y-6491D01*
X12602Y-6491D02*
X12385Y-6235D01*
X7267Y-21727D02*
X7937Y-21727D01*
X7937Y-21727D02*
X7937Y-21688D01*
X7937Y-21688D02*
X7267Y-21688D01*
X7838Y-20802D02*
X7937Y-20802D01*
X7937Y-20802D02*
X7937Y-21944D01*
X7937Y-21944D02*
X7858Y-21944D01*
X7267Y-21944D02*
X7267Y-20802D01*
X7267Y-20802D02*
X7366Y-20802D01*
X7366Y-21944D02*
X7267Y-21944D01*
X7385Y-21511D02*
X7818Y-21511D01*
X7385Y-21235D02*
X7818Y-21235D01*
X7818Y-21235D02*
X7602Y-21491D01*
X7602Y-21491D02*
X7385Y-21235D01*
X87267Y-6727D02*
X87937Y-6727D01*
X87937Y-6727D02*
X87937Y-6688D01*
X87937Y-6688D02*
X87267Y-6688D01*
X87838Y-5802D02*
X87937Y-5802D01*
X87937Y-5802D02*
X87937Y-6943D01*
X87937Y-6943D02*
X87858Y-6943D01*
X87267Y-6943D02*
X87267Y-5802D01*
X87267Y-5802D02*
X87366Y-5802D01*
X87366Y-6943D02*
X87267Y-6943D01*
X87385Y-6510D02*
X87818Y-6510D01*
X87385Y-6235D02*
X87818Y-6235D01*
X87818Y-6235D02*
X87602Y-6491D01*
X87602Y-6491D02*
X87385Y-6235D01*
X86767Y-21727D02*
X87437Y-21727D01*
X87437Y-21727D02*
X87437Y-21688D01*
X87437Y-21688D02*
X86767Y-21688D01*
X87338Y-20802D02*
X87437Y-20802D01*
X87437Y-20802D02*
X87437Y-21944D01*
X87437Y-21944D02*
X87358Y-21944D01*
X86767Y-21944D02*
X86767Y-20802D01*
X86767Y-20802D02*
X86866Y-20802D01*
X86866Y-21944D02*
X86767Y-21944D01*
X86885Y-21511D02*
X87318Y-21511D01*
X86885Y-21235D02*
X87318Y-21235D01*
X87318Y-21235D02*
X87102Y-21491D01*
X87102Y-21491D02*
X86885Y-21235D01*
X87437Y-23768D02*
X86767Y-23768D01*
X86767Y-23768D02*
X86767Y-23808D01*
X86767Y-23808D02*
X87437Y-23808D01*
X86866Y-24694D02*
X86767Y-24694D01*
X86767Y-24694D02*
X86767Y-23552D01*
X86767Y-23552D02*
X86846Y-23552D01*
X87437Y-23552D02*
X87437Y-24694D01*
X87437Y-24694D02*
X87338Y-24694D01*
X87338Y-23552D02*
X87437Y-23552D01*
X87318Y-23985D02*
X86885Y-23985D01*
X87318Y-24261D02*
X86885Y-24261D01*
X86885Y-24261D02*
X87102Y-24005D01*
X87102Y-24005D02*
X87318Y-24261D01*
X78187Y-23768D02*
X77517Y-23768D01*
X77517Y-23768D02*
X77517Y-23808D01*
X77517Y-23808D02*
X78187Y-23808D01*
X77616Y-24694D02*
X77517Y-24694D01*
X77517Y-24694D02*
X77517Y-23552D01*
X77517Y-23552D02*
X77596Y-23552D01*
X78187Y-23552D02*
X78187Y-24694D01*
X78187Y-24694D02*
X78088Y-24694D01*
X78088Y-23552D02*
X78187Y-23552D01*
X78068Y-23985D02*
X77635Y-23985D01*
X78068Y-24261D02*
X77635Y-24261D01*
X77635Y-24261D02*
X77852Y-24005D01*
X77852Y-24005D02*
X78068Y-24261D01*
X83517Y-14227D02*
X84187Y-14227D01*
X84187Y-14227D02*
X84187Y-14188D01*
X84187Y-14188D02*
X83517Y-14188D01*
X84088Y-13302D02*
X84187Y-13302D01*
X84187Y-13302D02*
X84187Y-14443D01*
X84187Y-14443D02*
X84108Y-14443D01*
X83517Y-14443D02*
X83517Y-13302D01*
X83517Y-13302D02*
X83616Y-13302D01*
X83616Y-14443D02*
X83517Y-14443D01*
X83635Y-14010D02*
X84068Y-14010D01*
X83635Y-13735D02*
X84068Y-13735D01*
X84068Y-13735D02*
X83852Y-13991D01*
X83852Y-13991D02*
X83635Y-13735D01*
X79767Y-6727D02*
X80437Y-6727D01*
X80437Y-6727D02*
X80437Y-6688D01*
X80437Y-6688D02*
X79767Y-6688D01*
X80338Y-5802D02*
X80437Y-5802D01*
X80437Y-5802D02*
X80437Y-6943D01*
X80437Y-6943D02*
X80358Y-6943D01*
X79767Y-6943D02*
X79767Y-5802D01*
X79767Y-5802D02*
X79866Y-5802D01*
X79866Y-6943D02*
X79767Y-6943D01*
X79885Y-6510D02*
X80318Y-6510D01*
X79885Y-6235D02*
X80318Y-6235D01*
X80318Y-6235D02*
X80102Y-6491D01*
X80102Y-6491D02*
X79885Y-6235D01*
X74017Y-14227D02*
X74687Y-14227D01*
X74687Y-14227D02*
X74687Y-14188D01*
X74687Y-14188D02*
X74017Y-14188D01*
X74588Y-13302D02*
X74687Y-13302D01*
X74687Y-13302D02*
X74687Y-14443D01*
X74687Y-14443D02*
X74608Y-14443D01*
X74017Y-14443D02*
X74017Y-13302D01*
X74017Y-13302D02*
X74116Y-13302D01*
X74116Y-14443D02*
X74017Y-14443D01*
X74135Y-14010D02*
X74568Y-14010D01*
X74135Y-13735D02*
X74568Y-13735D01*
X74568Y-13735D02*
X74352Y-13991D01*
X74352Y-13991D02*
X74135Y-13735D01*
X78267Y-21727D02*
X78937Y-21727D01*
X78937Y-21727D02*
X78937Y-21688D01*
X78937Y-21688D02*
X78267Y-21688D01*
X78838Y-20802D02*
X78937Y-20802D01*
X78937Y-20802D02*
X78937Y-21944D01*
X78937Y-21944D02*
X78858Y-21944D01*
X78267Y-21944D02*
X78267Y-20802D01*
X78267Y-20802D02*
X78366Y-20802D01*
X78366Y-21944D02*
X78267Y-21944D01*
X78385Y-21511D02*
X78818Y-21511D01*
X78385Y-21235D02*
X78818Y-21235D01*
X78818Y-21235D02*
X78602Y-21491D01*
X78602Y-21491D02*
X78385Y-21235D01*
G54D14*
X11933Y-21023D02*
X11847Y-21051D01*
X11704Y-21051D01*
X11647Y-21023D01*
X11619Y-20994D01*
X11590Y-20937D01*
X11590Y-20880D01*
X11619Y-20823D01*
X11647Y-20794D01*
X11704Y-20766D01*
X11819Y-20737D01*
X11876Y-20709D01*
X11904Y-20680D01*
X11933Y-20623D01*
X11933Y-20566D01*
X11904Y-20509D01*
X11876Y-20480D01*
X11819Y-20451D01*
X11676Y-20451D01*
X11590Y-20480D01*
X11219Y-20451D02*
X11162Y-20451D01*
X11104Y-20480D01*
X11076Y-20509D01*
X11047Y-20566D01*
X11019Y-20680D01*
X11019Y-20823D01*
X11047Y-20937D01*
X11076Y-20994D01*
X11104Y-21023D01*
X11162Y-21051D01*
X11219Y-21051D01*
X11276Y-21023D01*
X11304Y-20994D01*
X11333Y-20937D01*
X11362Y-20823D01*
X11362Y-20680D01*
X11333Y-20566D01*
X11304Y-20509D01*
X11276Y-20480D01*
X11219Y-20451D01*
G54D21*
X62142Y-26240D02*
X62535Y-26502D01*
X62142Y-26502D02*
X62535Y-26240D01*
X62535Y-26859D02*
X62535Y-26634D01*
X62535Y-26746D02*
X62142Y-26746D01*
X62198Y-26709D01*
X62235Y-26671D01*
X62254Y-26634D01*
G54D22*
X58751Y-25955D02*
X58601Y-25955D01*
X58781Y-26068D02*
X58676Y-25674D01*
X58571Y-26068D01*
X58511Y-25674D02*
X58331Y-25674D01*
X58421Y-26068D02*
X58421Y-25674D01*
X58226Y-26068D02*
X58226Y-25674D01*
X58121Y-25955D01*
X58016Y-25674D01*
X58016Y-26068D01*
X57866Y-25862D02*
X57761Y-25862D01*
X57716Y-26068D02*
X57866Y-26068D01*
X57866Y-25674D01*
X57716Y-25674D01*
X57416Y-25693D02*
X57446Y-25674D01*
X57491Y-25674D01*
X57536Y-25693D01*
X57566Y-25730D01*
X57581Y-25768D01*
X57596Y-25843D01*
X57596Y-25899D01*
X57581Y-25974D01*
X57566Y-26012D01*
X57536Y-26049D01*
X57491Y-26068D01*
X57461Y-26068D01*
X57416Y-26049D01*
X57401Y-26030D01*
X57401Y-25899D01*
X57461Y-25899D01*
X57281Y-25955D02*
X57131Y-25955D01*
X57311Y-26068D02*
X57206Y-25674D01*
X57101Y-26068D01*
X57026Y-25674D02*
X56831Y-25674D01*
X56936Y-25824D01*
X56891Y-25824D01*
X56861Y-25843D01*
X56846Y-25862D01*
X56831Y-25899D01*
X56831Y-25993D01*
X56846Y-26030D01*
X56861Y-26049D01*
X56891Y-26068D01*
X56981Y-26068D01*
X57011Y-26049D01*
X57026Y-26030D01*
X56711Y-25712D02*
X56696Y-25693D01*
X56666Y-25674D01*
X56591Y-25674D01*
X56561Y-25693D01*
X56546Y-25712D01*
X56531Y-25749D01*
X56531Y-25787D01*
X56546Y-25843D01*
X56726Y-26068D01*
X56531Y-26068D01*
X56396Y-25674D02*
X56396Y-25993D01*
X56381Y-26030D01*
X56366Y-26049D01*
X56336Y-26068D01*
X56276Y-26068D01*
X56246Y-26049D01*
X56231Y-26030D01*
X56216Y-25993D01*
X56216Y-25674D01*
X55931Y-25805D02*
X55931Y-26068D01*
X56006Y-25655D02*
X56081Y-25937D01*
X55886Y-25937D01*
G54D21*
X6413Y-6349D02*
X6431Y-6366D01*
X6483Y-6384D01*
X6518Y-6384D01*
X6571Y-6366D01*
X6606Y-6331D01*
X6624Y-6296D01*
X6641Y-6226D01*
X6641Y-6173D01*
X6624Y-6103D01*
X6606Y-6068D01*
X6571Y-6033D01*
X6518Y-6015D01*
X6483Y-6015D01*
X6431Y-6033D01*
X6413Y-6051D01*
X6203Y-6173D02*
X6238Y-6156D01*
X6255Y-6138D01*
X6273Y-6103D01*
X6273Y-6086D01*
X6255Y-6051D01*
X6238Y-6033D01*
X6203Y-6015D01*
X6133Y-6015D01*
X6098Y-6033D01*
X6080Y-6051D01*
X6063Y-6086D01*
X6063Y-6103D01*
X6080Y-6138D01*
X6098Y-6156D01*
X6133Y-6173D01*
X6203Y-6173D01*
X6238Y-6191D01*
X6255Y-6208D01*
X6273Y-6243D01*
X6273Y-6313D01*
X6255Y-6349D01*
X6238Y-6366D01*
X6203Y-6384D01*
X6133Y-6384D01*
X6098Y-6366D01*
X6080Y-6349D01*
X6063Y-6313D01*
X6063Y-6243D01*
X6080Y-6208D01*
X6098Y-6191D01*
X6133Y-6173D01*
X64166Y-25780D02*
X64185Y-25799D01*
X64241Y-25818D01*
X64279Y-25818D01*
X64335Y-25799D01*
X64373Y-25762D01*
X64391Y-25724D01*
X64410Y-25649D01*
X64410Y-25593D01*
X64391Y-25518D01*
X64373Y-25480D01*
X64335Y-25443D01*
X64279Y-25424D01*
X64241Y-25424D01*
X64185Y-25443D01*
X64166Y-25462D01*
X63792Y-25818D02*
X64017Y-25818D01*
X63904Y-25818D02*
X63904Y-25424D01*
X63942Y-25480D01*
X63979Y-25518D01*
X64017Y-25537D01*
X64166Y-27555D02*
X64185Y-27574D01*
X64241Y-27593D01*
X64279Y-27593D01*
X64335Y-27574D01*
X64373Y-27537D01*
X64391Y-27499D01*
X64410Y-27424D01*
X64410Y-27368D01*
X64391Y-27293D01*
X64373Y-27255D01*
X64335Y-27218D01*
X64279Y-27199D01*
X64241Y-27199D01*
X64185Y-27218D01*
X64166Y-27237D01*
X64017Y-27237D02*
X63998Y-27218D01*
X63960Y-27199D01*
X63867Y-27199D01*
X63829Y-27218D01*
X63810Y-27237D01*
X63792Y-27274D01*
X63792Y-27312D01*
X63810Y-27368D01*
X64035Y-27593D01*
X63792Y-27593D01*
X52741Y-27780D02*
X52760Y-27799D01*
X52816Y-27818D01*
X52854Y-27818D01*
X52910Y-27799D01*
X52948Y-27762D01*
X52966Y-27724D01*
X52985Y-27649D01*
X52985Y-27593D01*
X52966Y-27518D01*
X52948Y-27480D01*
X52910Y-27443D01*
X52854Y-27424D01*
X52816Y-27424D01*
X52760Y-27443D01*
X52741Y-27462D01*
X52404Y-27555D02*
X52404Y-27818D01*
X52498Y-27405D02*
X52592Y-27687D01*
X52348Y-27687D01*
X54216Y-23130D02*
X54235Y-23149D01*
X54291Y-23168D01*
X54329Y-23168D01*
X54385Y-23149D01*
X54423Y-23112D01*
X54441Y-23074D01*
X54460Y-22999D01*
X54460Y-22943D01*
X54441Y-22868D01*
X54423Y-22830D01*
X54385Y-22793D01*
X54329Y-22774D01*
X54291Y-22774D01*
X54235Y-22793D01*
X54216Y-22812D01*
X53860Y-22774D02*
X54048Y-22774D01*
X54067Y-22962D01*
X54048Y-22943D01*
X54010Y-22924D01*
X53917Y-22924D01*
X53879Y-22943D01*
X53860Y-22962D01*
X53842Y-22999D01*
X53842Y-23093D01*
X53860Y-23130D01*
X53879Y-23149D01*
X53917Y-23168D01*
X54010Y-23168D01*
X54048Y-23149D01*
X54067Y-23130D01*
X61466Y-28980D02*
X61485Y-28999D01*
X61541Y-29018D01*
X61579Y-29018D01*
X61635Y-28999D01*
X61673Y-28962D01*
X61691Y-28924D01*
X61710Y-28849D01*
X61710Y-28793D01*
X61691Y-28718D01*
X61673Y-28680D01*
X61635Y-28643D01*
X61579Y-28624D01*
X61541Y-28624D01*
X61485Y-28643D01*
X61466Y-28662D01*
X61129Y-28624D02*
X61204Y-28624D01*
X61242Y-28643D01*
X61260Y-28662D01*
X61298Y-28718D01*
X61317Y-28793D01*
X61317Y-28943D01*
X61298Y-28980D01*
X61279Y-28999D01*
X61242Y-29018D01*
X61167Y-29018D01*
X61129Y-28999D01*
X61110Y-28980D01*
X61092Y-28943D01*
X61092Y-28849D01*
X61110Y-28812D01*
X61129Y-28793D01*
X61167Y-28774D01*
X61242Y-28774D01*
X61279Y-28793D01*
X61298Y-28812D01*
X61317Y-28849D01*
X61166Y-24680D02*
X61185Y-24699D01*
X61241Y-24718D01*
X61279Y-24718D01*
X61335Y-24699D01*
X61373Y-24662D01*
X61391Y-24624D01*
X61410Y-24549D01*
X61410Y-24493D01*
X61391Y-24418D01*
X61373Y-24380D01*
X61335Y-24343D01*
X61279Y-24324D01*
X61241Y-24324D01*
X61185Y-24343D01*
X61166Y-24362D01*
X61035Y-24324D02*
X60773Y-24324D01*
X60942Y-24718D01*
X6637Y-5308D02*
X6760Y-5132D01*
X6848Y-5308D02*
X6848Y-4939D01*
X6707Y-4939D01*
X6672Y-4957D01*
X6655Y-4975D01*
X6637Y-5010D01*
X6637Y-5062D01*
X6655Y-5097D01*
X6672Y-5115D01*
X6707Y-5132D01*
X6848Y-5132D01*
X6287Y-5308D02*
X6497Y-5308D01*
X6392Y-5308D02*
X6392Y-4939D01*
X6427Y-4992D01*
X6462Y-5027D01*
X6497Y-5045D01*
X9112Y-5308D02*
X9235Y-5132D01*
X9323Y-5308D02*
X9323Y-4939D01*
X9182Y-4939D01*
X9147Y-4957D01*
X9130Y-4975D01*
X9112Y-5010D01*
X9112Y-5062D01*
X9130Y-5097D01*
X9147Y-5115D01*
X9182Y-5132D01*
X9323Y-5132D01*
X8972Y-4975D02*
X8954Y-4957D01*
X8919Y-4939D01*
X8832Y-4939D01*
X8797Y-4957D01*
X8779Y-4975D01*
X8762Y-5010D01*
X8762Y-5045D01*
X8779Y-5097D01*
X8990Y-5308D01*
X8762Y-5308D01*
X60416Y-23105D02*
X60435Y-23124D01*
X60491Y-23143D01*
X60529Y-23143D01*
X60585Y-23124D01*
X60623Y-23087D01*
X60641Y-23049D01*
X60660Y-22974D01*
X60660Y-22918D01*
X60641Y-22843D01*
X60623Y-22805D01*
X60585Y-22768D01*
X60529Y-22749D01*
X60491Y-22749D01*
X60435Y-22768D01*
X60416Y-22787D01*
X60285Y-22749D02*
X60042Y-22749D01*
X60173Y-22899D01*
X60117Y-22899D01*
X60079Y-22918D01*
X60060Y-22937D01*
X60042Y-22974D01*
X60042Y-23068D01*
X60060Y-23105D01*
X60079Y-23124D01*
X60117Y-23143D01*
X60229Y-23143D01*
X60267Y-23124D01*
X60285Y-23105D01*
X52716Y-28793D02*
X52848Y-28605D01*
X52941Y-28793D02*
X52941Y-28399D01*
X52791Y-28399D01*
X52754Y-28418D01*
X52735Y-28437D01*
X52716Y-28474D01*
X52716Y-28530D01*
X52735Y-28568D01*
X52754Y-28587D01*
X52791Y-28605D01*
X52941Y-28605D01*
X52585Y-28399D02*
X52342Y-28399D01*
X52473Y-28549D01*
X52417Y-28549D01*
X52379Y-28568D01*
X52360Y-28587D01*
X52342Y-28624D01*
X52342Y-28718D01*
X52360Y-28755D01*
X52379Y-28774D01*
X52417Y-28793D01*
X52529Y-28793D01*
X52567Y-28774D01*
X52585Y-28755D01*
X62316Y-23518D02*
X62448Y-23330D01*
X62541Y-23518D02*
X62541Y-23124D01*
X62391Y-23124D01*
X62354Y-23143D01*
X62335Y-23162D01*
X62316Y-23199D01*
X62316Y-23255D01*
X62335Y-23293D01*
X62354Y-23312D01*
X62391Y-23330D01*
X62541Y-23330D01*
X61960Y-23124D02*
X62148Y-23124D01*
X62167Y-23312D01*
X62148Y-23293D01*
X62110Y-23274D01*
X62017Y-23274D01*
X61979Y-23293D01*
X61960Y-23312D01*
X61942Y-23349D01*
X61942Y-23443D01*
X61960Y-23480D01*
X61979Y-23499D01*
X62017Y-23518D01*
X62110Y-23518D01*
X62148Y-23499D01*
X62167Y-23480D01*
G54D23*
X88387Y-7702D02*
X88387Y-7348D01*
X88252Y-7348D01*
X88219Y-7365D01*
X88202Y-7381D01*
X88185Y-7415D01*
X88185Y-7466D01*
X88202Y-7500D01*
X88219Y-7516D01*
X88252Y-7533D01*
X88387Y-7533D01*
X88067Y-7348D02*
X87831Y-7348D01*
X87982Y-7702D01*
X87223Y-7702D02*
X87341Y-7533D01*
X87425Y-7702D02*
X87425Y-7348D01*
X87291Y-7348D01*
X87257Y-7365D01*
X87240Y-7381D01*
X87223Y-7415D01*
X87223Y-7466D01*
X87240Y-7500D01*
X87257Y-7516D01*
X87291Y-7533D01*
X87425Y-7533D01*
X87004Y-7348D02*
X86936Y-7348D01*
X86902Y-7365D01*
X86869Y-7398D01*
X86852Y-7466D01*
X86852Y-7584D01*
X86869Y-7651D01*
X86902Y-7685D01*
X86936Y-7702D01*
X87004Y-7702D01*
X87037Y-7685D01*
X87071Y-7651D01*
X87088Y-7584D01*
X87088Y-7466D01*
X87071Y-7398D01*
X87037Y-7365D01*
X87004Y-7348D01*
X86734Y-7348D02*
X86649Y-7702D01*
X86582Y-7449D01*
X86514Y-7702D01*
X86430Y-7348D01*
X86109Y-7702D02*
X86312Y-7702D01*
X86211Y-7702D02*
X86211Y-7348D01*
X86244Y-7398D01*
X86278Y-7432D01*
X86312Y-7449D01*
X88387Y-8202D02*
X88387Y-7848D01*
X88252Y-7848D01*
X88219Y-7865D01*
X88202Y-7881D01*
X88185Y-7915D01*
X88185Y-7966D01*
X88202Y-8000D01*
X88219Y-8016D01*
X88252Y-8033D01*
X88387Y-8033D01*
X87982Y-8000D02*
X88016Y-7983D01*
X88033Y-7966D01*
X88050Y-7932D01*
X88050Y-7915D01*
X88033Y-7881D01*
X88016Y-7865D01*
X87982Y-7848D01*
X87915Y-7848D01*
X87881Y-7865D01*
X87864Y-7881D01*
X87847Y-7915D01*
X87847Y-7932D01*
X87864Y-7966D01*
X87881Y-7983D01*
X87915Y-8000D01*
X87982Y-8000D01*
X88016Y-8016D01*
X88033Y-8033D01*
X88050Y-8067D01*
X88050Y-8134D01*
X88033Y-8168D01*
X88016Y-8185D01*
X87982Y-8202D01*
X87915Y-8202D01*
X87881Y-8185D01*
X87864Y-8168D01*
X87847Y-8134D01*
X87847Y-8067D01*
X87864Y-8033D01*
X87881Y-8016D01*
X87915Y-8000D01*
X87223Y-8202D02*
X87341Y-8033D01*
X87425Y-8202D02*
X87425Y-7848D01*
X87291Y-7848D01*
X87257Y-7865D01*
X87240Y-7881D01*
X87223Y-7915D01*
X87223Y-7966D01*
X87240Y-8000D01*
X87257Y-8016D01*
X87291Y-8033D01*
X87425Y-8033D01*
X87004Y-7848D02*
X86936Y-7848D01*
X86902Y-7865D01*
X86869Y-7898D01*
X86852Y-7966D01*
X86852Y-8084D01*
X86869Y-8151D01*
X86902Y-8185D01*
X86936Y-8202D01*
X87004Y-8202D01*
X87037Y-8185D01*
X87071Y-8151D01*
X87088Y-8084D01*
X87088Y-7966D01*
X87071Y-7898D01*
X87037Y-7865D01*
X87004Y-7848D01*
X86734Y-7848D02*
X86649Y-8202D01*
X86582Y-7949D01*
X86514Y-8202D01*
X86430Y-7848D01*
X86312Y-7881D02*
X86295Y-7865D01*
X86261Y-7848D01*
X86177Y-7848D01*
X86143Y-7865D01*
X86126Y-7881D01*
X86109Y-7915D01*
X86109Y-7949D01*
X86126Y-8000D01*
X86329Y-8202D01*
X86109Y-8202D01*
X88387Y-8702D02*
X88387Y-8348D01*
X88252Y-8348D01*
X88219Y-8365D01*
X88202Y-8381D01*
X88185Y-8415D01*
X88185Y-8466D01*
X88202Y-8500D01*
X88219Y-8516D01*
X88252Y-8533D01*
X88387Y-8533D01*
X88016Y-8702D02*
X87949Y-8702D01*
X87915Y-8685D01*
X87898Y-8668D01*
X87864Y-8618D01*
X87847Y-8550D01*
X87847Y-8415D01*
X87864Y-8381D01*
X87881Y-8365D01*
X87915Y-8348D01*
X87982Y-8348D01*
X88016Y-8365D01*
X88033Y-8381D01*
X88050Y-8415D01*
X88050Y-8500D01*
X88033Y-8533D01*
X88016Y-8550D01*
X87982Y-8567D01*
X87915Y-8567D01*
X87881Y-8550D01*
X87864Y-8533D01*
X87847Y-8500D01*
X87223Y-8702D02*
X87341Y-8533D01*
X87425Y-8702D02*
X87425Y-8348D01*
X87291Y-8348D01*
X87257Y-8365D01*
X87240Y-8381D01*
X87223Y-8415D01*
X87223Y-8466D01*
X87240Y-8500D01*
X87257Y-8516D01*
X87291Y-8533D01*
X87425Y-8533D01*
X87004Y-8348D02*
X86936Y-8348D01*
X86902Y-8365D01*
X86869Y-8398D01*
X86852Y-8466D01*
X86852Y-8584D01*
X86869Y-8651D01*
X86902Y-8685D01*
X86936Y-8702D01*
X87004Y-8702D01*
X87037Y-8685D01*
X87071Y-8651D01*
X87088Y-8584D01*
X87088Y-8466D01*
X87071Y-8398D01*
X87037Y-8365D01*
X87004Y-8348D01*
X86734Y-8348D02*
X86649Y-8702D01*
X86582Y-8449D01*
X86514Y-8702D01*
X86430Y-8348D01*
X86329Y-8348D02*
X86109Y-8348D01*
X86228Y-8483D01*
X86177Y-8483D01*
X86143Y-8500D01*
X86126Y-8516D01*
X86109Y-8550D01*
X86109Y-8634D01*
X86126Y-8668D01*
X86143Y-8685D01*
X86177Y-8702D01*
X86278Y-8702D01*
X86312Y-8685D01*
X86329Y-8668D01*
X88506Y-9202D02*
X88506Y-8848D01*
X88371Y-8848D01*
X88337Y-8865D01*
X88321Y-8881D01*
X88304Y-8915D01*
X88304Y-8966D01*
X88321Y-9000D01*
X88337Y-9016D01*
X88371Y-9033D01*
X88506Y-9033D01*
X87966Y-9202D02*
X88169Y-9202D01*
X88067Y-9202D02*
X88067Y-8848D01*
X88101Y-8898D01*
X88135Y-8932D01*
X88169Y-8949D01*
X87747Y-8848D02*
X87713Y-8848D01*
X87679Y-8865D01*
X87662Y-8881D01*
X87646Y-8915D01*
X87629Y-8983D01*
X87629Y-9067D01*
X87646Y-9134D01*
X87662Y-9168D01*
X87679Y-9185D01*
X87713Y-9202D01*
X87747Y-9202D01*
X87781Y-9185D01*
X87797Y-9168D01*
X87814Y-9134D01*
X87831Y-9067D01*
X87831Y-8983D01*
X87814Y-8915D01*
X87797Y-8881D01*
X87781Y-8865D01*
X87747Y-8848D01*
X87223Y-9202D02*
X87341Y-9033D01*
X87425Y-9202D02*
X87425Y-8848D01*
X87291Y-8848D01*
X87257Y-8865D01*
X87240Y-8881D01*
X87223Y-8915D01*
X87223Y-8966D01*
X87240Y-9000D01*
X87257Y-9016D01*
X87291Y-9033D01*
X87425Y-9033D01*
X87004Y-8848D02*
X86936Y-8848D01*
X86902Y-8865D01*
X86869Y-8898D01*
X86852Y-8966D01*
X86852Y-9084D01*
X86869Y-9151D01*
X86902Y-9185D01*
X86936Y-9202D01*
X87004Y-9202D01*
X87037Y-9185D01*
X87071Y-9151D01*
X87088Y-9084D01*
X87088Y-8966D01*
X87071Y-8898D01*
X87037Y-8865D01*
X87004Y-8848D01*
X86734Y-8848D02*
X86649Y-9202D01*
X86582Y-8949D01*
X86514Y-9202D01*
X86430Y-8848D01*
X86143Y-8966D02*
X86143Y-9202D01*
X86228Y-8831D02*
X86312Y-9084D01*
X86093Y-9084D01*
X88556Y-13202D02*
X88556Y-12848D01*
X88421Y-12848D01*
X88387Y-12865D01*
X88371Y-12881D01*
X88354Y-12915D01*
X88354Y-12966D01*
X88371Y-13000D01*
X88387Y-13016D01*
X88421Y-13033D01*
X88556Y-13033D01*
X88050Y-12966D02*
X88050Y-13202D01*
X88134Y-12831D02*
X88219Y-13084D01*
X87999Y-13084D01*
X87898Y-12848D02*
X87679Y-12848D01*
X87797Y-12983D01*
X87746Y-12983D01*
X87712Y-13000D01*
X87696Y-13016D01*
X87679Y-13050D01*
X87679Y-13134D01*
X87696Y-13168D01*
X87712Y-13185D01*
X87746Y-13202D01*
X87847Y-13202D01*
X87881Y-13185D01*
X87898Y-13168D01*
X87358Y-12865D02*
X87392Y-12848D01*
X87443Y-12848D01*
X87493Y-12865D01*
X87527Y-12898D01*
X87544Y-12932D01*
X87561Y-13000D01*
X87561Y-13050D01*
X87544Y-13118D01*
X87527Y-13151D01*
X87493Y-13185D01*
X87443Y-13202D01*
X87409Y-13202D01*
X87358Y-13185D01*
X87341Y-13168D01*
X87341Y-13050D01*
X87409Y-13050D01*
X87189Y-13202D02*
X87189Y-12848D01*
X87055Y-12848D01*
X87021Y-12865D01*
X87004Y-12881D01*
X86987Y-12915D01*
X86987Y-12966D01*
X87004Y-13000D01*
X87021Y-13016D01*
X87055Y-13033D01*
X87189Y-13033D01*
X86835Y-13202D02*
X86835Y-12848D01*
X86599Y-12848D02*
X86531Y-12848D01*
X86498Y-12865D01*
X86464Y-12898D01*
X86447Y-12966D01*
X86447Y-13084D01*
X86464Y-13151D01*
X86498Y-13185D01*
X86531Y-13202D01*
X86599Y-13202D01*
X86633Y-13185D01*
X86666Y-13151D01*
X86683Y-13084D01*
X86683Y-12966D01*
X86666Y-12898D01*
X86633Y-12865D01*
X86599Y-12848D01*
X86126Y-12848D02*
X86295Y-12848D01*
X86312Y-13016D01*
X86295Y-13000D01*
X86261Y-12983D01*
X86177Y-12983D01*
X86143Y-13000D01*
X86126Y-13016D01*
X86110Y-13050D01*
X86110Y-13134D01*
X86126Y-13168D01*
X86143Y-13185D01*
X86177Y-13202D01*
X86261Y-13202D01*
X86295Y-13185D01*
X86312Y-13168D01*
X85857Y-13337D02*
X85873Y-13320D01*
X85907Y-13269D01*
X85924Y-13236D01*
X85941Y-13185D01*
X85958Y-13101D01*
X85958Y-13033D01*
X85941Y-12949D01*
X85924Y-12898D01*
X85907Y-12865D01*
X85873Y-12814D01*
X85857Y-12797D01*
X85738Y-13185D02*
X85688Y-13202D01*
X85603Y-13202D01*
X85570Y-13185D01*
X85553Y-13168D01*
X85536Y-13134D01*
X85536Y-13101D01*
X85553Y-13067D01*
X85570Y-13050D01*
X85603Y-13033D01*
X85671Y-13016D01*
X85705Y-13000D01*
X85722Y-12983D01*
X85738Y-12949D01*
X85738Y-12915D01*
X85722Y-12881D01*
X85705Y-12865D01*
X85671Y-12848D01*
X85587Y-12848D01*
X85536Y-12865D01*
X85182Y-13168D02*
X85198Y-13185D01*
X85249Y-13202D01*
X85283Y-13202D01*
X85333Y-13185D01*
X85367Y-13151D01*
X85384Y-13118D01*
X85401Y-13050D01*
X85401Y-13000D01*
X85384Y-12932D01*
X85367Y-12898D01*
X85333Y-12865D01*
X85283Y-12848D01*
X85249Y-12848D01*
X85198Y-12865D01*
X85182Y-12881D01*
X85030Y-13202D02*
X85030Y-12848D01*
X84827Y-13202D02*
X84979Y-13000D01*
X84827Y-12848D02*
X85030Y-13050D01*
X84709Y-13337D02*
X84692Y-13320D01*
X84659Y-13269D01*
X84642Y-13236D01*
X84625Y-13185D01*
X84608Y-13101D01*
X84608Y-13033D01*
X84625Y-12949D01*
X84642Y-12898D01*
X84659Y-12865D01*
X84692Y-12814D01*
X84709Y-12797D01*
X88556Y-13702D02*
X88556Y-13348D01*
X88421Y-13348D01*
X88387Y-13365D01*
X88371Y-13381D01*
X88354Y-13415D01*
X88354Y-13466D01*
X88371Y-13500D01*
X88387Y-13516D01*
X88421Y-13533D01*
X88556Y-13533D01*
X88050Y-13466D02*
X88050Y-13702D01*
X88134Y-13331D02*
X88219Y-13584D01*
X87999Y-13584D01*
X87712Y-13466D02*
X87712Y-13702D01*
X87797Y-13331D02*
X87881Y-13584D01*
X87662Y-13584D01*
X87376Y-13365D02*
X87410Y-13348D01*
X87461Y-13348D01*
X87511Y-13365D01*
X87545Y-13398D01*
X87562Y-13432D01*
X87579Y-13500D01*
X87579Y-13550D01*
X87562Y-13618D01*
X87545Y-13651D01*
X87511Y-13685D01*
X87461Y-13702D01*
X87427Y-13702D01*
X87376Y-13685D01*
X87359Y-13668D01*
X87359Y-13550D01*
X87427Y-13550D01*
X87208Y-13702D02*
X87208Y-13348D01*
X87073Y-13348D01*
X87039Y-13365D01*
X87022Y-13381D01*
X87005Y-13415D01*
X87005Y-13466D01*
X87022Y-13500D01*
X87039Y-13516D01*
X87073Y-13533D01*
X87208Y-13533D01*
X86853Y-13702D02*
X86853Y-13348D01*
X86617Y-13348D02*
X86550Y-13348D01*
X86516Y-13365D01*
X86482Y-13398D01*
X86465Y-13466D01*
X86465Y-13584D01*
X86482Y-13651D01*
X86516Y-13685D01*
X86550Y-13702D01*
X86617Y-13702D01*
X86651Y-13685D01*
X86685Y-13651D01*
X86701Y-13584D01*
X86701Y-13466D01*
X86685Y-13398D01*
X86651Y-13365D01*
X86617Y-13348D01*
X86161Y-13348D02*
X86229Y-13348D01*
X86263Y-13365D01*
X86280Y-13381D01*
X86313Y-13432D01*
X86330Y-13500D01*
X86330Y-13634D01*
X86313Y-13668D01*
X86296Y-13685D01*
X86263Y-13702D01*
X86195Y-13702D01*
X86161Y-13685D01*
X86145Y-13668D01*
X86128Y-13634D01*
X86128Y-13550D01*
X86145Y-13516D01*
X86161Y-13500D01*
X86195Y-13483D01*
X86263Y-13483D01*
X86296Y-13500D01*
X86313Y-13516D01*
X86330Y-13550D01*
X85875Y-13837D02*
X85892Y-13820D01*
X85925Y-13769D01*
X85942Y-13736D01*
X85959Y-13685D01*
X85976Y-13601D01*
X85976Y-13533D01*
X85959Y-13449D01*
X85942Y-13398D01*
X85925Y-13365D01*
X85892Y-13314D01*
X85875Y-13297D01*
X85740Y-13702D02*
X85740Y-13348D01*
X85622Y-13601D01*
X85503Y-13348D01*
X85503Y-13702D01*
X85267Y-13348D02*
X85200Y-13348D01*
X85166Y-13365D01*
X85132Y-13398D01*
X85115Y-13466D01*
X85115Y-13584D01*
X85132Y-13651D01*
X85166Y-13685D01*
X85200Y-13702D01*
X85267Y-13702D01*
X85301Y-13685D01*
X85335Y-13651D01*
X85352Y-13584D01*
X85352Y-13466D01*
X85335Y-13398D01*
X85301Y-13365D01*
X85267Y-13348D01*
X84980Y-13685D02*
X84930Y-13702D01*
X84845Y-13702D01*
X84812Y-13685D01*
X84795Y-13668D01*
X84778Y-13634D01*
X84778Y-13601D01*
X84795Y-13567D01*
X84812Y-13550D01*
X84845Y-13533D01*
X84913Y-13516D01*
X84947Y-13500D01*
X84964Y-13483D01*
X84980Y-13449D01*
X84980Y-13415D01*
X84964Y-13381D01*
X84947Y-13365D01*
X84913Y-13348D01*
X84829Y-13348D01*
X84778Y-13365D01*
X84626Y-13702D02*
X84626Y-13348D01*
X84491Y-13837D02*
X84474Y-13820D01*
X84440Y-13769D01*
X84424Y-13736D01*
X84407Y-13685D01*
X84390Y-13601D01*
X84390Y-13533D01*
X84407Y-13449D01*
X84424Y-13398D01*
X84440Y-13365D01*
X84474Y-13314D01*
X84491Y-13297D01*
X88556Y-10702D02*
X88556Y-10348D01*
X88421Y-10348D01*
X88387Y-10365D01*
X88371Y-10381D01*
X88354Y-10415D01*
X88354Y-10466D01*
X88371Y-10500D01*
X88387Y-10516D01*
X88421Y-10533D01*
X88556Y-10533D01*
X88236Y-10348D02*
X88016Y-10348D01*
X88134Y-10483D01*
X88084Y-10483D01*
X88050Y-10500D01*
X88033Y-10516D01*
X88016Y-10550D01*
X88016Y-10634D01*
X88033Y-10668D01*
X88050Y-10685D01*
X88084Y-10702D01*
X88185Y-10702D01*
X88219Y-10685D01*
X88236Y-10668D01*
X87814Y-10500D02*
X87847Y-10483D01*
X87864Y-10466D01*
X87881Y-10432D01*
X87881Y-10415D01*
X87864Y-10381D01*
X87847Y-10365D01*
X87814Y-10348D01*
X87746Y-10348D01*
X87712Y-10365D01*
X87696Y-10381D01*
X87679Y-10415D01*
X87679Y-10432D01*
X87696Y-10466D01*
X87712Y-10483D01*
X87746Y-10500D01*
X87814Y-10500D01*
X87847Y-10516D01*
X87864Y-10533D01*
X87881Y-10567D01*
X87881Y-10634D01*
X87864Y-10668D01*
X87847Y-10685D01*
X87814Y-10702D01*
X87746Y-10702D01*
X87712Y-10685D01*
X87696Y-10668D01*
X87679Y-10634D01*
X87679Y-10567D01*
X87696Y-10533D01*
X87712Y-10516D01*
X87746Y-10500D01*
X87299Y-10365D02*
X87333Y-10348D01*
X87383Y-10348D01*
X87434Y-10365D01*
X87468Y-10398D01*
X87485Y-10432D01*
X87501Y-10500D01*
X87501Y-10550D01*
X87485Y-10618D01*
X87468Y-10651D01*
X87434Y-10685D01*
X87383Y-10702D01*
X87350Y-10702D01*
X87299Y-10685D01*
X87282Y-10668D01*
X87282Y-10550D01*
X87350Y-10550D01*
X87130Y-10702D02*
X87130Y-10348D01*
X86995Y-10348D01*
X86961Y-10365D01*
X86945Y-10381D01*
X86928Y-10415D01*
X86928Y-10466D01*
X86945Y-10500D01*
X86961Y-10516D01*
X86995Y-10533D01*
X87130Y-10533D01*
X86776Y-10702D02*
X86776Y-10348D01*
X86540Y-10348D02*
X86472Y-10348D01*
X86438Y-10365D01*
X86405Y-10398D01*
X86388Y-10466D01*
X86388Y-10584D01*
X86405Y-10651D01*
X86438Y-10685D01*
X86472Y-10702D01*
X86540Y-10702D01*
X86573Y-10685D01*
X86607Y-10651D01*
X86624Y-10584D01*
X86624Y-10466D01*
X86607Y-10398D01*
X86573Y-10365D01*
X86540Y-10348D01*
X86168Y-10348D02*
X86135Y-10348D01*
X86101Y-10365D01*
X86084Y-10381D01*
X86067Y-10415D01*
X86050Y-10483D01*
X86050Y-10567D01*
X86067Y-10634D01*
X86084Y-10668D01*
X86101Y-10685D01*
X86135Y-10702D01*
X86168Y-10702D01*
X86202Y-10685D01*
X86219Y-10668D01*
X86236Y-10634D01*
X86253Y-10567D01*
X86253Y-10483D01*
X86236Y-10415D01*
X86219Y-10381D01*
X86202Y-10365D01*
X86168Y-10348D01*
X88556Y-11202D02*
X88556Y-10848D01*
X88421Y-10848D01*
X88387Y-10865D01*
X88371Y-10881D01*
X88354Y-10915D01*
X88354Y-10966D01*
X88371Y-11000D01*
X88387Y-11016D01*
X88421Y-11033D01*
X88556Y-11033D01*
X88236Y-10848D02*
X88016Y-10848D01*
X88134Y-10983D01*
X88084Y-10983D01*
X88050Y-11000D01*
X88033Y-11016D01*
X88016Y-11050D01*
X88016Y-11134D01*
X88033Y-11168D01*
X88050Y-11185D01*
X88084Y-11202D01*
X88185Y-11202D01*
X88219Y-11185D01*
X88236Y-11168D01*
X87847Y-11202D02*
X87780Y-11202D01*
X87746Y-11185D01*
X87729Y-11168D01*
X87696Y-11118D01*
X87679Y-11050D01*
X87679Y-10915D01*
X87696Y-10881D01*
X87712Y-10865D01*
X87746Y-10848D01*
X87814Y-10848D01*
X87847Y-10865D01*
X87864Y-10881D01*
X87881Y-10915D01*
X87881Y-11000D01*
X87864Y-11033D01*
X87847Y-11050D01*
X87814Y-11067D01*
X87746Y-11067D01*
X87712Y-11050D01*
X87696Y-11033D01*
X87679Y-11000D01*
X87299Y-10865D02*
X87333Y-10848D01*
X87383Y-10848D01*
X87434Y-10865D01*
X87468Y-10898D01*
X87485Y-10932D01*
X87501Y-11000D01*
X87501Y-11050D01*
X87485Y-11118D01*
X87468Y-11151D01*
X87434Y-11185D01*
X87383Y-11202D01*
X87350Y-11202D01*
X87299Y-11185D01*
X87282Y-11168D01*
X87282Y-11050D01*
X87350Y-11050D01*
X87130Y-11202D02*
X87130Y-10848D01*
X86995Y-10848D01*
X86961Y-10865D01*
X86945Y-10881D01*
X86928Y-10915D01*
X86928Y-10966D01*
X86945Y-11000D01*
X86961Y-11016D01*
X86995Y-11033D01*
X87130Y-11033D01*
X86776Y-11202D02*
X86776Y-10848D01*
X86540Y-10848D02*
X86472Y-10848D01*
X86438Y-10865D01*
X86405Y-10898D01*
X86388Y-10966D01*
X86388Y-11084D01*
X86405Y-11151D01*
X86438Y-11185D01*
X86472Y-11202D01*
X86540Y-11202D01*
X86573Y-11185D01*
X86607Y-11151D01*
X86624Y-11084D01*
X86624Y-10966D01*
X86607Y-10898D01*
X86573Y-10865D01*
X86540Y-10848D01*
X86050Y-11202D02*
X86253Y-11202D01*
X86152Y-11202D02*
X86152Y-10848D01*
X86185Y-10898D01*
X86219Y-10932D01*
X86253Y-10949D01*
X88556Y-11702D02*
X88556Y-11348D01*
X88421Y-11348D01*
X88387Y-11365D01*
X88371Y-11381D01*
X88354Y-11415D01*
X88354Y-11466D01*
X88371Y-11500D01*
X88387Y-11516D01*
X88421Y-11533D01*
X88556Y-11533D01*
X88050Y-11466D02*
X88050Y-11702D01*
X88134Y-11331D02*
X88219Y-11584D01*
X87999Y-11584D01*
X87797Y-11348D02*
X87763Y-11348D01*
X87729Y-11365D01*
X87712Y-11381D01*
X87696Y-11415D01*
X87679Y-11483D01*
X87679Y-11567D01*
X87696Y-11634D01*
X87712Y-11668D01*
X87729Y-11685D01*
X87763Y-11702D01*
X87797Y-11702D01*
X87831Y-11685D01*
X87847Y-11668D01*
X87864Y-11634D01*
X87881Y-11567D01*
X87881Y-11483D01*
X87864Y-11415D01*
X87847Y-11381D01*
X87831Y-11365D01*
X87797Y-11348D01*
X87299Y-11365D02*
X87333Y-11348D01*
X87383Y-11348D01*
X87434Y-11365D01*
X87468Y-11398D01*
X87485Y-11432D01*
X87501Y-11500D01*
X87501Y-11550D01*
X87485Y-11618D01*
X87468Y-11651D01*
X87434Y-11685D01*
X87383Y-11702D01*
X87350Y-11702D01*
X87299Y-11685D01*
X87282Y-11668D01*
X87282Y-11550D01*
X87350Y-11550D01*
X87130Y-11702D02*
X87130Y-11348D01*
X86995Y-11348D01*
X86961Y-11365D01*
X86945Y-11381D01*
X86928Y-11415D01*
X86928Y-11466D01*
X86945Y-11500D01*
X86961Y-11516D01*
X86995Y-11533D01*
X87130Y-11533D01*
X86776Y-11702D02*
X86776Y-11348D01*
X86540Y-11348D02*
X86472Y-11348D01*
X86438Y-11365D01*
X86405Y-11398D01*
X86388Y-11466D01*
X86388Y-11584D01*
X86405Y-11651D01*
X86438Y-11685D01*
X86472Y-11702D01*
X86540Y-11702D01*
X86573Y-11685D01*
X86607Y-11651D01*
X86624Y-11584D01*
X86624Y-11466D01*
X86607Y-11398D01*
X86573Y-11365D01*
X86540Y-11348D01*
X86253Y-11381D02*
X86236Y-11365D01*
X86202Y-11348D01*
X86118Y-11348D01*
X86084Y-11365D01*
X86067Y-11381D01*
X86050Y-11415D01*
X86050Y-11449D01*
X86067Y-11500D01*
X86270Y-11702D01*
X86050Y-11702D01*
X88556Y-12202D02*
X88556Y-11848D01*
X88421Y-11848D01*
X88387Y-11865D01*
X88371Y-11881D01*
X88354Y-11915D01*
X88354Y-11966D01*
X88371Y-12000D01*
X88387Y-12016D01*
X88421Y-12033D01*
X88556Y-12033D01*
X88050Y-11966D02*
X88050Y-12202D01*
X88134Y-11831D02*
X88219Y-12084D01*
X87999Y-12084D01*
X87679Y-12202D02*
X87881Y-12202D01*
X87780Y-12202D02*
X87780Y-11848D01*
X87814Y-11898D01*
X87847Y-11932D01*
X87881Y-11949D01*
X87299Y-11865D02*
X87333Y-11848D01*
X87383Y-11848D01*
X87434Y-11865D01*
X87468Y-11898D01*
X87485Y-11932D01*
X87501Y-12000D01*
X87501Y-12050D01*
X87485Y-12118D01*
X87468Y-12151D01*
X87434Y-12185D01*
X87383Y-12202D01*
X87350Y-12202D01*
X87299Y-12185D01*
X87282Y-12168D01*
X87282Y-12050D01*
X87350Y-12050D01*
X87130Y-12202D02*
X87130Y-11848D01*
X86995Y-11848D01*
X86961Y-11865D01*
X86945Y-11881D01*
X86928Y-11915D01*
X86928Y-11966D01*
X86945Y-12000D01*
X86961Y-12016D01*
X86995Y-12033D01*
X87130Y-12033D01*
X86776Y-12202D02*
X86776Y-11848D01*
X86540Y-11848D02*
X86472Y-11848D01*
X86438Y-11865D01*
X86405Y-11898D01*
X86388Y-11966D01*
X86388Y-12084D01*
X86405Y-12151D01*
X86438Y-12185D01*
X86472Y-12202D01*
X86540Y-12202D01*
X86573Y-12185D01*
X86607Y-12151D01*
X86624Y-12084D01*
X86624Y-11966D01*
X86607Y-11898D01*
X86573Y-11865D01*
X86540Y-11848D01*
X86270Y-11848D02*
X86050Y-11848D01*
X86168Y-11983D01*
X86118Y-11983D01*
X86084Y-12000D01*
X86067Y-12016D01*
X86050Y-12050D01*
X86050Y-12134D01*
X86067Y-12168D01*
X86084Y-12185D01*
X86118Y-12202D01*
X86219Y-12202D01*
X86253Y-12185D01*
X86270Y-12168D01*
X88556Y-12702D02*
X88556Y-12348D01*
X88421Y-12348D01*
X88387Y-12365D01*
X88371Y-12381D01*
X88354Y-12415D01*
X88354Y-12466D01*
X88371Y-12500D01*
X88387Y-12516D01*
X88421Y-12533D01*
X88556Y-12533D01*
X88050Y-12466D02*
X88050Y-12702D01*
X88134Y-12331D02*
X88219Y-12584D01*
X87999Y-12584D01*
X87881Y-12381D02*
X87864Y-12365D01*
X87831Y-12348D01*
X87746Y-12348D01*
X87712Y-12365D01*
X87696Y-12381D01*
X87679Y-12415D01*
X87679Y-12449D01*
X87696Y-12500D01*
X87898Y-12702D01*
X87679Y-12702D01*
X87373Y-12365D02*
X87406Y-12348D01*
X87457Y-12348D01*
X87508Y-12365D01*
X87541Y-12398D01*
X87558Y-12432D01*
X87575Y-12500D01*
X87575Y-12550D01*
X87558Y-12618D01*
X87541Y-12651D01*
X87508Y-12685D01*
X87457Y-12702D01*
X87423Y-12702D01*
X87373Y-12685D01*
X87356Y-12668D01*
X87356Y-12550D01*
X87423Y-12550D01*
X87204Y-12702D02*
X87204Y-12348D01*
X87069Y-12348D01*
X87035Y-12365D01*
X87018Y-12381D01*
X87001Y-12415D01*
X87001Y-12466D01*
X87018Y-12500D01*
X87035Y-12516D01*
X87069Y-12533D01*
X87204Y-12533D01*
X86850Y-12702D02*
X86850Y-12348D01*
X86613Y-12348D02*
X86546Y-12348D01*
X86512Y-12365D01*
X86478Y-12398D01*
X86461Y-12466D01*
X86461Y-12584D01*
X86478Y-12651D01*
X86512Y-12685D01*
X86546Y-12702D01*
X86613Y-12702D01*
X86647Y-12685D01*
X86681Y-12651D01*
X86698Y-12584D01*
X86698Y-12466D01*
X86681Y-12398D01*
X86647Y-12365D01*
X86613Y-12348D01*
X86158Y-12466D02*
X86158Y-12702D01*
X86242Y-12331D02*
X86326Y-12584D01*
X86107Y-12584D01*
X85871Y-12837D02*
X85888Y-12820D01*
X85922Y-12769D01*
X85938Y-12736D01*
X85955Y-12685D01*
X85972Y-12601D01*
X85972Y-12533D01*
X85955Y-12449D01*
X85938Y-12398D01*
X85922Y-12365D01*
X85888Y-12314D01*
X85871Y-12297D01*
X85753Y-12685D02*
X85702Y-12702D01*
X85618Y-12702D01*
X85584Y-12685D01*
X85567Y-12668D01*
X85550Y-12634D01*
X85550Y-12601D01*
X85567Y-12567D01*
X85584Y-12550D01*
X85618Y-12533D01*
X85685Y-12516D01*
X85719Y-12500D01*
X85736Y-12483D01*
X85753Y-12449D01*
X85753Y-12415D01*
X85736Y-12381D01*
X85719Y-12365D01*
X85685Y-12348D01*
X85601Y-12348D01*
X85550Y-12365D01*
X85415Y-12685D02*
X85365Y-12702D01*
X85280Y-12702D01*
X85247Y-12685D01*
X85230Y-12668D01*
X85213Y-12634D01*
X85213Y-12601D01*
X85230Y-12567D01*
X85247Y-12550D01*
X85280Y-12533D01*
X85348Y-12516D01*
X85382Y-12500D01*
X85398Y-12483D01*
X85415Y-12449D01*
X85415Y-12415D01*
X85398Y-12381D01*
X85382Y-12365D01*
X85348Y-12348D01*
X85264Y-12348D01*
X85213Y-12365D01*
X85095Y-12837D02*
X85078Y-12820D01*
X85044Y-12769D01*
X85027Y-12736D01*
X85010Y-12685D01*
X84994Y-12601D01*
X84994Y-12533D01*
X85010Y-12449D01*
X85027Y-12398D01*
X85044Y-12365D01*
X85078Y-12314D01*
X85095Y-12297D01*
X88556Y-14202D02*
X88556Y-13848D01*
X88421Y-13848D01*
X88387Y-13865D01*
X88371Y-13881D01*
X88354Y-13915D01*
X88354Y-13966D01*
X88371Y-14000D01*
X88387Y-14016D01*
X88421Y-14033D01*
X88556Y-14033D01*
X88050Y-13966D02*
X88050Y-14202D01*
X88134Y-13831D02*
X88219Y-14084D01*
X87999Y-14084D01*
X87696Y-13848D02*
X87864Y-13848D01*
X87881Y-14016D01*
X87864Y-14000D01*
X87831Y-13983D01*
X87746Y-13983D01*
X87712Y-14000D01*
X87696Y-14016D01*
X87679Y-14050D01*
X87679Y-14134D01*
X87696Y-14168D01*
X87712Y-14185D01*
X87746Y-14202D01*
X87831Y-14202D01*
X87864Y-14185D01*
X87881Y-14168D01*
X87374Y-13865D02*
X87408Y-13848D01*
X87459Y-13848D01*
X87509Y-13865D01*
X87543Y-13898D01*
X87560Y-13932D01*
X87577Y-14000D01*
X87577Y-14050D01*
X87560Y-14118D01*
X87543Y-14151D01*
X87509Y-14185D01*
X87459Y-14202D01*
X87425Y-14202D01*
X87374Y-14185D01*
X87358Y-14168D01*
X87358Y-14050D01*
X87425Y-14050D01*
X87206Y-14202D02*
X87206Y-13848D01*
X87071Y-13848D01*
X87037Y-13865D01*
X87020Y-13881D01*
X87003Y-13915D01*
X87003Y-13966D01*
X87020Y-14000D01*
X87037Y-14016D01*
X87071Y-14033D01*
X87206Y-14033D01*
X86851Y-14202D02*
X86851Y-13848D01*
X86615Y-13848D02*
X86548Y-13848D01*
X86514Y-13865D01*
X86480Y-13898D01*
X86463Y-13966D01*
X86463Y-14084D01*
X86480Y-14151D01*
X86514Y-14185D01*
X86548Y-14202D01*
X86615Y-14202D01*
X86649Y-14185D01*
X86683Y-14151D01*
X86700Y-14084D01*
X86700Y-13966D01*
X86683Y-13898D01*
X86649Y-13865D01*
X86615Y-13848D01*
X86345Y-13848D02*
X86109Y-13848D01*
X86261Y-14202D01*
X85873Y-14337D02*
X85890Y-14320D01*
X85923Y-14269D01*
X85940Y-14236D01*
X85957Y-14185D01*
X85974Y-14101D01*
X85974Y-14033D01*
X85957Y-13949D01*
X85940Y-13898D01*
X85923Y-13865D01*
X85890Y-13814D01*
X85873Y-13797D01*
X85755Y-14185D02*
X85704Y-14202D01*
X85620Y-14202D01*
X85586Y-14185D01*
X85569Y-14168D01*
X85552Y-14134D01*
X85552Y-14101D01*
X85569Y-14067D01*
X85586Y-14050D01*
X85620Y-14033D01*
X85687Y-14016D01*
X85721Y-14000D01*
X85738Y-13983D01*
X85755Y-13949D01*
X85755Y-13915D01*
X85738Y-13881D01*
X85721Y-13865D01*
X85687Y-13848D01*
X85603Y-13848D01*
X85552Y-13865D01*
X85198Y-14168D02*
X85215Y-14185D01*
X85265Y-14202D01*
X85299Y-14202D01*
X85350Y-14185D01*
X85383Y-14151D01*
X85400Y-14118D01*
X85417Y-14050D01*
X85417Y-14000D01*
X85400Y-13932D01*
X85383Y-13898D01*
X85350Y-13865D01*
X85299Y-13848D01*
X85265Y-13848D01*
X85215Y-13865D01*
X85198Y-13881D01*
X84877Y-14202D02*
X85046Y-14202D01*
X85046Y-13848D01*
X84793Y-14337D02*
X84776Y-14320D01*
X84742Y-14269D01*
X84725Y-14236D01*
X84709Y-14185D01*
X84692Y-14101D01*
X84692Y-14033D01*
X84709Y-13949D01*
X84725Y-13898D01*
X84742Y-13865D01*
X84776Y-13814D01*
X84793Y-13797D01*
X88556Y-10202D02*
X88556Y-9848D01*
X88421Y-9848D01*
X88387Y-9865D01*
X88371Y-9881D01*
X88354Y-9915D01*
X88354Y-9966D01*
X88371Y-10000D01*
X88387Y-10016D01*
X88421Y-10033D01*
X88556Y-10033D01*
X88236Y-9848D02*
X88016Y-9848D01*
X88134Y-9983D01*
X88084Y-9983D01*
X88050Y-10000D01*
X88033Y-10016D01*
X88016Y-10050D01*
X88016Y-10134D01*
X88033Y-10168D01*
X88050Y-10185D01*
X88084Y-10202D01*
X88185Y-10202D01*
X88219Y-10185D01*
X88236Y-10168D01*
X87898Y-9848D02*
X87662Y-9848D01*
X87814Y-10202D01*
X87198Y-9848D02*
X87080Y-10202D01*
X86961Y-9848D01*
X86692Y-10185D02*
X86725Y-10202D01*
X86793Y-10202D01*
X86826Y-10185D01*
X86843Y-10168D01*
X86860Y-10134D01*
X86860Y-10033D01*
X86843Y-10000D01*
X86826Y-9983D01*
X86793Y-9966D01*
X86725Y-9966D01*
X86692Y-9983D01*
X86388Y-10185D02*
X86422Y-10202D01*
X86489Y-10202D01*
X86523Y-10185D01*
X86540Y-10168D01*
X86557Y-10134D01*
X86557Y-10033D01*
X86540Y-10000D01*
X86523Y-9983D01*
X86489Y-9966D01*
X86422Y-9966D01*
X86388Y-9983D01*
X88556Y-14702D02*
X88556Y-14348D01*
X88421Y-14348D01*
X88387Y-14365D01*
X88371Y-14381D01*
X88354Y-14415D01*
X88354Y-14466D01*
X88371Y-14500D01*
X88387Y-14516D01*
X88421Y-14533D01*
X88556Y-14533D01*
X88050Y-14466D02*
X88050Y-14702D01*
X88134Y-14331D02*
X88219Y-14584D01*
X87999Y-14584D01*
X87712Y-14348D02*
X87780Y-14348D01*
X87814Y-14365D01*
X87831Y-14381D01*
X87864Y-14432D01*
X87881Y-14500D01*
X87881Y-14634D01*
X87864Y-14668D01*
X87847Y-14685D01*
X87814Y-14702D01*
X87746Y-14702D01*
X87712Y-14685D01*
X87696Y-14668D01*
X87679Y-14634D01*
X87679Y-14550D01*
X87696Y-14516D01*
X87712Y-14500D01*
X87746Y-14483D01*
X87814Y-14483D01*
X87847Y-14500D01*
X87864Y-14516D01*
X87881Y-14550D01*
X87333Y-14365D02*
X87367Y-14348D01*
X87417Y-14348D01*
X87468Y-14365D01*
X87502Y-14398D01*
X87519Y-14432D01*
X87535Y-14500D01*
X87535Y-14550D01*
X87519Y-14618D01*
X87502Y-14651D01*
X87468Y-14685D01*
X87417Y-14702D01*
X87384Y-14702D01*
X87333Y-14685D01*
X87316Y-14668D01*
X87316Y-14550D01*
X87384Y-14550D01*
X87164Y-14702D02*
X87164Y-14348D01*
X87029Y-14348D01*
X86995Y-14365D01*
X86979Y-14381D01*
X86962Y-14415D01*
X86962Y-14466D01*
X86979Y-14500D01*
X86995Y-14516D01*
X87029Y-14533D01*
X87164Y-14533D01*
X86810Y-14702D02*
X86810Y-14348D01*
X86574Y-14348D02*
X86506Y-14348D01*
X86472Y-14365D01*
X86439Y-14398D01*
X86422Y-14466D01*
X86422Y-14584D01*
X86439Y-14651D01*
X86472Y-14685D01*
X86506Y-14702D01*
X86574Y-14702D01*
X86607Y-14685D01*
X86641Y-14651D01*
X86658Y-14584D01*
X86658Y-14466D01*
X86641Y-14398D01*
X86607Y-14365D01*
X86574Y-14348D01*
X86219Y-14500D02*
X86253Y-14483D01*
X86270Y-14466D01*
X86287Y-14432D01*
X86287Y-14415D01*
X86270Y-14381D01*
X86253Y-14365D01*
X86219Y-14348D01*
X86152Y-14348D01*
X86118Y-14365D01*
X86101Y-14381D01*
X86084Y-14415D01*
X86084Y-14432D01*
X86101Y-14466D01*
X86118Y-14483D01*
X86152Y-14500D01*
X86219Y-14500D01*
X86253Y-14516D01*
X86270Y-14533D01*
X86287Y-14567D01*
X86287Y-14634D01*
X86270Y-14668D01*
X86253Y-14685D01*
X86219Y-14702D01*
X86152Y-14702D01*
X86118Y-14685D01*
X86101Y-14668D01*
X86084Y-14634D01*
X86084Y-14567D01*
X86101Y-14533D01*
X86118Y-14516D01*
X86152Y-14500D01*
X85831Y-14837D02*
X85848Y-14820D01*
X85882Y-14769D01*
X85899Y-14736D01*
X85916Y-14685D01*
X85932Y-14601D01*
X85932Y-14533D01*
X85916Y-14449D01*
X85899Y-14398D01*
X85882Y-14365D01*
X85848Y-14314D01*
X85831Y-14297D01*
X85713Y-14685D02*
X85662Y-14702D01*
X85578Y-14702D01*
X85544Y-14685D01*
X85528Y-14668D01*
X85511Y-14634D01*
X85511Y-14601D01*
X85528Y-14567D01*
X85544Y-14550D01*
X85578Y-14533D01*
X85646Y-14516D01*
X85679Y-14500D01*
X85696Y-14483D01*
X85713Y-14449D01*
X85713Y-14415D01*
X85696Y-14381D01*
X85679Y-14365D01*
X85646Y-14348D01*
X85561Y-14348D01*
X85511Y-14365D01*
X85359Y-14702D02*
X85359Y-14348D01*
X85274Y-14348D01*
X85224Y-14365D01*
X85190Y-14398D01*
X85173Y-14432D01*
X85156Y-14500D01*
X85156Y-14550D01*
X85173Y-14618D01*
X85190Y-14651D01*
X85224Y-14685D01*
X85274Y-14702D01*
X85359Y-14702D01*
X85021Y-14601D02*
X84853Y-14601D01*
X85055Y-14702D02*
X84937Y-14348D01*
X84819Y-14702D01*
X84734Y-14837D02*
X84718Y-14820D01*
X84684Y-14769D01*
X84667Y-14736D01*
X84650Y-14685D01*
X84633Y-14601D01*
X84633Y-14533D01*
X84650Y-14449D01*
X84667Y-14398D01*
X84684Y-14365D01*
X84718Y-14314D01*
X84734Y-14297D01*
X88556Y-15202D02*
X88556Y-14848D01*
X88421Y-14848D01*
X88387Y-14865D01*
X88371Y-14881D01*
X88354Y-14915D01*
X88354Y-14966D01*
X88371Y-15000D01*
X88387Y-15016D01*
X88421Y-15033D01*
X88556Y-15033D01*
X88050Y-14966D02*
X88050Y-15202D01*
X88134Y-14831D02*
X88219Y-15084D01*
X87999Y-15084D01*
X87898Y-14848D02*
X87662Y-14848D01*
X87814Y-15202D01*
X87046Y-14865D02*
X87080Y-14848D01*
X87130Y-14848D01*
X87181Y-14865D01*
X87215Y-14898D01*
X87231Y-14932D01*
X87248Y-15000D01*
X87248Y-15050D01*
X87231Y-15118D01*
X87215Y-15151D01*
X87181Y-15185D01*
X87130Y-15202D01*
X87096Y-15202D01*
X87046Y-15185D01*
X87029Y-15168D01*
X87029Y-15050D01*
X87096Y-15050D01*
X86877Y-15202D02*
X86877Y-14848D01*
X86675Y-15202D01*
X86675Y-14848D01*
X86506Y-15202D02*
X86506Y-14848D01*
X86422Y-14848D01*
X86371Y-14865D01*
X86337Y-14898D01*
X86320Y-14932D01*
X86303Y-15000D01*
X86303Y-15050D01*
X86320Y-15118D01*
X86337Y-15151D01*
X86371Y-15185D01*
X86422Y-15202D01*
X86506Y-15202D01*
G54D13*
X73274Y-6069D02*
X73024Y-6069D01*
X73024Y-6129D01*
X73036Y-6164D01*
X73060Y-6188D01*
X73083Y-6200D01*
X73131Y-6212D01*
X73167Y-6212D01*
X73214Y-6200D01*
X73238Y-6188D01*
X73262Y-6164D01*
X73274Y-6129D01*
X73274Y-6069D01*
X73107Y-6426D02*
X73274Y-6426D01*
X73012Y-6367D02*
X73191Y-6307D01*
X73191Y-6462D01*
X73024Y-6664D02*
X73024Y-6617D01*
X73036Y-6593D01*
X73048Y-6581D01*
X73083Y-6557D01*
X73131Y-6545D01*
X73226Y-6545D01*
X73250Y-6557D01*
X73262Y-6569D01*
X73274Y-6593D01*
X73274Y-6640D01*
X73262Y-6664D01*
X73250Y-6676D01*
X73226Y-6688D01*
X73167Y-6688D01*
X73143Y-6676D01*
X73131Y-6664D01*
X73119Y-6640D01*
X73119Y-6593D01*
X73131Y-6569D01*
X73143Y-6557D01*
X73167Y-6545D01*
X67524Y-13569D02*
X67274Y-13569D01*
X67274Y-13629D01*
X67286Y-13664D01*
X67310Y-13688D01*
X67333Y-13700D01*
X67381Y-13712D01*
X67417Y-13712D01*
X67464Y-13700D01*
X67488Y-13688D01*
X67512Y-13664D01*
X67524Y-13629D01*
X67524Y-13569D01*
X67357Y-13926D02*
X67524Y-13926D01*
X67262Y-13867D02*
X67441Y-13807D01*
X67441Y-13962D01*
X67298Y-14045D02*
X67286Y-14057D01*
X67274Y-14081D01*
X67274Y-14140D01*
X67286Y-14164D01*
X67298Y-14176D01*
X67322Y-14188D01*
X67345Y-14188D01*
X67381Y-14176D01*
X67524Y-14033D01*
X67524Y-14188D01*
X71024Y-21069D02*
X70774Y-21069D01*
X70774Y-21129D01*
X70786Y-21164D01*
X70810Y-21188D01*
X70833Y-21200D01*
X70881Y-21212D01*
X70917Y-21212D01*
X70964Y-21200D01*
X70988Y-21188D01*
X71012Y-21164D01*
X71024Y-21129D01*
X71024Y-21069D01*
X70857Y-21426D02*
X71024Y-21426D01*
X70762Y-21367D02*
X70941Y-21307D01*
X70941Y-21462D01*
X70774Y-21533D02*
X70774Y-21688D01*
X70869Y-21605D01*
X70869Y-21641D01*
X70881Y-21664D01*
X70893Y-21676D01*
X70917Y-21688D01*
X70976Y-21688D01*
X71000Y-21676D01*
X71012Y-21664D01*
X71024Y-21641D01*
X71024Y-21569D01*
X71012Y-21545D01*
X71000Y-21533D01*
X37524Y-13569D02*
X37274Y-13569D01*
X37274Y-13629D01*
X37286Y-13664D01*
X37310Y-13688D01*
X37333Y-13700D01*
X37381Y-13712D01*
X37417Y-13712D01*
X37464Y-13700D01*
X37488Y-13688D01*
X37512Y-13664D01*
X37524Y-13629D01*
X37524Y-13569D01*
X37298Y-13807D02*
X37286Y-13819D01*
X37274Y-13843D01*
X37274Y-13902D01*
X37286Y-13926D01*
X37298Y-13938D01*
X37322Y-13950D01*
X37345Y-13950D01*
X37381Y-13938D01*
X37524Y-13795D01*
X37524Y-13950D01*
X37298Y-14045D02*
X37286Y-14057D01*
X37274Y-14081D01*
X37274Y-14140D01*
X37286Y-14164D01*
X37298Y-14176D01*
X37322Y-14188D01*
X37345Y-14188D01*
X37381Y-14176D01*
X37524Y-14033D01*
X37524Y-14188D01*
X63524Y-21069D02*
X63274Y-21069D01*
X63274Y-21129D01*
X63286Y-21164D01*
X63310Y-21188D01*
X63333Y-21200D01*
X63381Y-21212D01*
X63417Y-21212D01*
X63464Y-21200D01*
X63488Y-21188D01*
X63512Y-21164D01*
X63524Y-21129D01*
X63524Y-21069D01*
X63274Y-21295D02*
X63274Y-21450D01*
X63369Y-21367D01*
X63369Y-21402D01*
X63381Y-21426D01*
X63393Y-21438D01*
X63417Y-21450D01*
X63476Y-21450D01*
X63500Y-21438D01*
X63512Y-21426D01*
X63524Y-21402D01*
X63524Y-21331D01*
X63512Y-21307D01*
X63500Y-21295D01*
X63381Y-21593D02*
X63369Y-21569D01*
X63357Y-21557D01*
X63333Y-21545D01*
X63322Y-21545D01*
X63298Y-21557D01*
X63286Y-21569D01*
X63274Y-21593D01*
X63274Y-21641D01*
X63286Y-21664D01*
X63298Y-21676D01*
X63322Y-21688D01*
X63333Y-21688D01*
X63357Y-21676D01*
X63369Y-21664D01*
X63381Y-21641D01*
X63381Y-21593D01*
X63393Y-21569D01*
X63405Y-21557D01*
X63429Y-21545D01*
X63476Y-21545D01*
X63500Y-21557D01*
X63512Y-21569D01*
X63524Y-21593D01*
X63524Y-21641D01*
X63512Y-21664D01*
X63500Y-21676D01*
X63476Y-21688D01*
X63429Y-21688D01*
X63405Y-21676D01*
X63393Y-21664D01*
X63381Y-21641D01*
X60024Y-13569D02*
X59774Y-13569D01*
X59774Y-13629D01*
X59786Y-13664D01*
X59810Y-13688D01*
X59833Y-13700D01*
X59881Y-13712D01*
X59917Y-13712D01*
X59964Y-13700D01*
X59988Y-13688D01*
X60012Y-13664D01*
X60024Y-13629D01*
X60024Y-13569D01*
X59774Y-13795D02*
X59774Y-13950D01*
X59869Y-13867D01*
X59869Y-13902D01*
X59881Y-13926D01*
X59893Y-13938D01*
X59917Y-13950D01*
X59976Y-13950D01*
X60000Y-13938D01*
X60012Y-13926D01*
X60024Y-13902D01*
X60024Y-13831D01*
X60012Y-13807D01*
X60000Y-13795D01*
X59774Y-14033D02*
X59774Y-14200D01*
X60024Y-14093D01*
X65774Y-6069D02*
X65524Y-6069D01*
X65524Y-6129D01*
X65536Y-6164D01*
X65560Y-6188D01*
X65583Y-6200D01*
X65631Y-6212D01*
X65667Y-6212D01*
X65714Y-6200D01*
X65738Y-6188D01*
X65762Y-6164D01*
X65774Y-6129D01*
X65774Y-6069D01*
X65607Y-6426D02*
X65774Y-6426D01*
X65512Y-6367D02*
X65691Y-6307D01*
X65691Y-6462D01*
X65774Y-6688D02*
X65774Y-6545D01*
X65774Y-6617D02*
X65524Y-6617D01*
X65560Y-6593D01*
X65583Y-6569D01*
X65595Y-6545D01*
X58274Y-6069D02*
X58024Y-6069D01*
X58024Y-6129D01*
X58036Y-6164D01*
X58060Y-6188D01*
X58083Y-6200D01*
X58131Y-6212D01*
X58167Y-6212D01*
X58214Y-6200D01*
X58238Y-6188D01*
X58262Y-6164D01*
X58274Y-6129D01*
X58274Y-6069D01*
X58024Y-6295D02*
X58024Y-6450D01*
X58119Y-6367D01*
X58119Y-6402D01*
X58131Y-6426D01*
X58143Y-6438D01*
X58167Y-6450D01*
X58226Y-6450D01*
X58250Y-6438D01*
X58262Y-6426D01*
X58274Y-6402D01*
X58274Y-6331D01*
X58262Y-6307D01*
X58250Y-6295D01*
X58024Y-6664D02*
X58024Y-6617D01*
X58036Y-6593D01*
X58048Y-6581D01*
X58083Y-6557D01*
X58131Y-6545D01*
X58226Y-6545D01*
X58250Y-6557D01*
X58262Y-6569D01*
X58274Y-6593D01*
X58274Y-6640D01*
X58262Y-6664D01*
X58250Y-6676D01*
X58226Y-6688D01*
X58167Y-6688D01*
X58143Y-6676D01*
X58131Y-6664D01*
X58119Y-6640D01*
X58119Y-6593D01*
X58131Y-6569D01*
X58143Y-6557D01*
X58167Y-6545D01*
X52524Y-13569D02*
X52274Y-13569D01*
X52274Y-13629D01*
X52286Y-13664D01*
X52310Y-13688D01*
X52333Y-13700D01*
X52381Y-13712D01*
X52417Y-13712D01*
X52464Y-13700D01*
X52488Y-13688D01*
X52512Y-13664D01*
X52524Y-13629D01*
X52524Y-13569D01*
X52274Y-13795D02*
X52274Y-13950D01*
X52369Y-13867D01*
X52369Y-13902D01*
X52381Y-13926D01*
X52393Y-13938D01*
X52417Y-13950D01*
X52476Y-13950D01*
X52500Y-13938D01*
X52512Y-13926D01*
X52524Y-13902D01*
X52524Y-13831D01*
X52512Y-13807D01*
X52500Y-13795D01*
X52298Y-14045D02*
X52286Y-14057D01*
X52274Y-14081D01*
X52274Y-14140D01*
X52286Y-14164D01*
X52298Y-14176D01*
X52322Y-14188D01*
X52345Y-14188D01*
X52381Y-14176D01*
X52524Y-14033D01*
X52524Y-14188D01*
X56024Y-21069D02*
X55774Y-21069D01*
X55774Y-21129D01*
X55786Y-21164D01*
X55810Y-21188D01*
X55833Y-21200D01*
X55881Y-21212D01*
X55917Y-21212D01*
X55964Y-21200D01*
X55988Y-21188D01*
X56012Y-21164D01*
X56024Y-21129D01*
X56024Y-21069D01*
X55774Y-21295D02*
X55774Y-21450D01*
X55869Y-21367D01*
X55869Y-21402D01*
X55881Y-21426D01*
X55893Y-21438D01*
X55917Y-21450D01*
X55976Y-21450D01*
X56000Y-21438D01*
X56012Y-21426D01*
X56024Y-21402D01*
X56024Y-21331D01*
X56012Y-21307D01*
X56000Y-21295D01*
X55774Y-21533D02*
X55774Y-21688D01*
X55869Y-21605D01*
X55869Y-21641D01*
X55881Y-21664D01*
X55893Y-21676D01*
X55917Y-21688D01*
X55976Y-21688D01*
X56000Y-21676D01*
X56012Y-21664D01*
X56024Y-21641D01*
X56024Y-21569D01*
X56012Y-21545D01*
X56000Y-21533D01*
X41024Y-21069D02*
X40774Y-21069D01*
X40774Y-21129D01*
X40786Y-21164D01*
X40810Y-21188D01*
X40833Y-21200D01*
X40881Y-21212D01*
X40917Y-21212D01*
X40964Y-21200D01*
X40988Y-21188D01*
X41012Y-21164D01*
X41024Y-21129D01*
X41024Y-21069D01*
X40798Y-21307D02*
X40786Y-21319D01*
X40774Y-21343D01*
X40774Y-21402D01*
X40786Y-21426D01*
X40798Y-21438D01*
X40822Y-21450D01*
X40845Y-21450D01*
X40881Y-21438D01*
X41024Y-21295D01*
X41024Y-21450D01*
X40774Y-21533D02*
X40774Y-21688D01*
X40869Y-21605D01*
X40869Y-21641D01*
X40881Y-21664D01*
X40893Y-21676D01*
X40917Y-21688D01*
X40976Y-21688D01*
X41000Y-21676D01*
X41012Y-21664D01*
X41024Y-21641D01*
X41024Y-21569D01*
X41012Y-21545D01*
X41000Y-21533D01*
X4677Y-6055D02*
X4427Y-6055D01*
X4427Y-6115D01*
X4439Y-6150D01*
X4463Y-6174D01*
X4487Y-6186D01*
X4534Y-6198D01*
X4570Y-6198D01*
X4618Y-6186D01*
X4641Y-6174D01*
X4665Y-6150D01*
X4677Y-6115D01*
X4677Y-6055D01*
X4427Y-6353D02*
X4427Y-6376D01*
X4439Y-6400D01*
X4451Y-6412D01*
X4475Y-6424D01*
X4522Y-6436D01*
X4582Y-6436D01*
X4629Y-6424D01*
X4653Y-6412D01*
X4665Y-6400D01*
X4677Y-6376D01*
X4677Y-6353D01*
X4665Y-6329D01*
X4653Y-6317D01*
X4629Y-6305D01*
X4582Y-6293D01*
X4522Y-6293D01*
X4475Y-6305D01*
X4451Y-6317D01*
X4439Y-6329D01*
X4427Y-6353D01*
X4677Y-6674D02*
X4677Y-6531D01*
X4677Y-6603D02*
X4427Y-6603D01*
X4463Y-6579D01*
X4487Y-6555D01*
X4498Y-6531D01*
X50774Y-6069D02*
X50524Y-6069D01*
X50524Y-6129D01*
X50536Y-6164D01*
X50560Y-6188D01*
X50583Y-6200D01*
X50631Y-6212D01*
X50667Y-6212D01*
X50714Y-6200D01*
X50738Y-6188D01*
X50762Y-6164D01*
X50774Y-6129D01*
X50774Y-6069D01*
X50524Y-6295D02*
X50524Y-6450D01*
X50619Y-6367D01*
X50619Y-6402D01*
X50631Y-6426D01*
X50643Y-6438D01*
X50667Y-6450D01*
X50726Y-6450D01*
X50750Y-6438D01*
X50762Y-6426D01*
X50774Y-6402D01*
X50774Y-6331D01*
X50762Y-6307D01*
X50750Y-6295D01*
X50774Y-6688D02*
X50774Y-6545D01*
X50774Y-6617D02*
X50524Y-6617D01*
X50560Y-6593D01*
X50583Y-6569D01*
X50595Y-6545D01*
X35774Y-6069D02*
X35524Y-6069D01*
X35524Y-6129D01*
X35536Y-6164D01*
X35560Y-6188D01*
X35583Y-6200D01*
X35631Y-6212D01*
X35667Y-6212D01*
X35714Y-6200D01*
X35738Y-6188D01*
X35762Y-6164D01*
X35774Y-6129D01*
X35774Y-6069D01*
X35548Y-6307D02*
X35536Y-6319D01*
X35524Y-6343D01*
X35524Y-6402D01*
X35536Y-6426D01*
X35548Y-6438D01*
X35572Y-6450D01*
X35595Y-6450D01*
X35631Y-6438D01*
X35774Y-6295D01*
X35774Y-6450D01*
X35774Y-6688D02*
X35774Y-6545D01*
X35774Y-6617D02*
X35524Y-6617D01*
X35560Y-6593D01*
X35583Y-6569D01*
X35595Y-6545D01*
X33524Y-21069D02*
X33274Y-21069D01*
X33274Y-21129D01*
X33286Y-21164D01*
X33310Y-21188D01*
X33333Y-21200D01*
X33381Y-21212D01*
X33417Y-21212D01*
X33464Y-21200D01*
X33488Y-21188D01*
X33512Y-21164D01*
X33524Y-21129D01*
X33524Y-21069D01*
X33524Y-21450D02*
X33524Y-21307D01*
X33524Y-21379D02*
X33274Y-21379D01*
X33310Y-21355D01*
X33333Y-21331D01*
X33345Y-21307D01*
X33381Y-21593D02*
X33369Y-21569D01*
X33357Y-21557D01*
X33333Y-21545D01*
X33322Y-21545D01*
X33298Y-21557D01*
X33286Y-21569D01*
X33274Y-21593D01*
X33274Y-21641D01*
X33286Y-21664D01*
X33298Y-21676D01*
X33322Y-21688D01*
X33333Y-21688D01*
X33357Y-21676D01*
X33369Y-21664D01*
X33381Y-21641D01*
X33381Y-21593D01*
X33393Y-21569D01*
X33405Y-21557D01*
X33429Y-21545D01*
X33476Y-21545D01*
X33500Y-21557D01*
X33512Y-21569D01*
X33524Y-21593D01*
X33524Y-21641D01*
X33512Y-21664D01*
X33500Y-21676D01*
X33476Y-21688D01*
X33429Y-21688D01*
X33405Y-21676D01*
X33393Y-21664D01*
X33381Y-21641D01*
X30024Y-13569D02*
X29774Y-13569D01*
X29774Y-13629D01*
X29786Y-13664D01*
X29810Y-13688D01*
X29833Y-13700D01*
X29881Y-13712D01*
X29917Y-13712D01*
X29964Y-13700D01*
X29988Y-13688D01*
X30012Y-13664D01*
X30024Y-13629D01*
X30024Y-13569D01*
X30024Y-13950D02*
X30024Y-13807D01*
X30024Y-13879D02*
X29774Y-13879D01*
X29810Y-13855D01*
X29833Y-13831D01*
X29845Y-13807D01*
X29774Y-14033D02*
X29774Y-14200D01*
X30024Y-14093D01*
X28274Y-6069D02*
X28024Y-6069D01*
X28024Y-6129D01*
X28036Y-6164D01*
X28060Y-6188D01*
X28083Y-6200D01*
X28131Y-6212D01*
X28167Y-6212D01*
X28214Y-6200D01*
X28238Y-6188D01*
X28262Y-6164D01*
X28274Y-6129D01*
X28274Y-6069D01*
X28274Y-6450D02*
X28274Y-6307D01*
X28274Y-6379D02*
X28024Y-6379D01*
X28060Y-6355D01*
X28083Y-6331D01*
X28095Y-6307D01*
X28024Y-6664D02*
X28024Y-6617D01*
X28036Y-6593D01*
X28048Y-6581D01*
X28083Y-6557D01*
X28131Y-6545D01*
X28226Y-6545D01*
X28250Y-6557D01*
X28262Y-6569D01*
X28274Y-6593D01*
X28274Y-6640D01*
X28262Y-6664D01*
X28250Y-6676D01*
X28226Y-6688D01*
X28167Y-6688D01*
X28143Y-6676D01*
X28131Y-6664D01*
X28119Y-6640D01*
X28119Y-6593D01*
X28131Y-6569D01*
X28143Y-6557D01*
X28167Y-6545D01*
X49132Y-23819D02*
X48882Y-23819D01*
X48882Y-23879D01*
X48894Y-23914D01*
X48918Y-23938D01*
X48942Y-23950D01*
X48989Y-23962D01*
X49025Y-23962D01*
X49073Y-23950D01*
X49096Y-23938D01*
X49120Y-23914D01*
X49132Y-23879D01*
X49132Y-23819D01*
X48906Y-24057D02*
X48894Y-24069D01*
X48882Y-24093D01*
X48882Y-24152D01*
X48894Y-24176D01*
X48906Y-24188D01*
X48930Y-24200D01*
X48954Y-24200D01*
X48989Y-24188D01*
X49132Y-24045D01*
X49132Y-24200D01*
X49132Y-24319D02*
X49132Y-24367D01*
X49120Y-24391D01*
X49108Y-24402D01*
X49073Y-24426D01*
X49025Y-24438D01*
X48930Y-24438D01*
X48906Y-24426D01*
X48894Y-24414D01*
X48882Y-24391D01*
X48882Y-24343D01*
X48894Y-24319D01*
X48906Y-24307D01*
X48930Y-24295D01*
X48989Y-24295D01*
X49013Y-24307D01*
X49025Y-24319D01*
X49037Y-24343D01*
X49037Y-24391D01*
X49025Y-24414D01*
X49013Y-24426D01*
X48989Y-24438D01*
X48524Y-21069D02*
X48274Y-21069D01*
X48274Y-21129D01*
X48286Y-21164D01*
X48310Y-21188D01*
X48333Y-21200D01*
X48381Y-21212D01*
X48417Y-21212D01*
X48464Y-21200D01*
X48488Y-21188D01*
X48512Y-21164D01*
X48524Y-21129D01*
X48524Y-21069D01*
X48298Y-21307D02*
X48286Y-21319D01*
X48274Y-21343D01*
X48274Y-21402D01*
X48286Y-21426D01*
X48298Y-21438D01*
X48322Y-21450D01*
X48345Y-21450D01*
X48381Y-21438D01*
X48524Y-21295D01*
X48524Y-21450D01*
X48381Y-21593D02*
X48369Y-21569D01*
X48357Y-21557D01*
X48333Y-21545D01*
X48322Y-21545D01*
X48298Y-21557D01*
X48286Y-21569D01*
X48274Y-21593D01*
X48274Y-21641D01*
X48286Y-21664D01*
X48298Y-21676D01*
X48322Y-21688D01*
X48333Y-21688D01*
X48357Y-21676D01*
X48369Y-21664D01*
X48381Y-21641D01*
X48381Y-21593D01*
X48393Y-21569D01*
X48405Y-21557D01*
X48429Y-21545D01*
X48476Y-21545D01*
X48500Y-21557D01*
X48512Y-21569D01*
X48524Y-21593D01*
X48524Y-21641D01*
X48512Y-21664D01*
X48500Y-21676D01*
X48476Y-21688D01*
X48429Y-21688D01*
X48405Y-21676D01*
X48393Y-21664D01*
X48381Y-21641D01*
X45024Y-13569D02*
X44774Y-13569D01*
X44774Y-13629D01*
X44786Y-13664D01*
X44810Y-13688D01*
X44833Y-13700D01*
X44881Y-13712D01*
X44917Y-13712D01*
X44964Y-13700D01*
X44988Y-13688D01*
X45012Y-13664D01*
X45024Y-13629D01*
X45024Y-13569D01*
X44798Y-13807D02*
X44786Y-13819D01*
X44774Y-13843D01*
X44774Y-13902D01*
X44786Y-13926D01*
X44798Y-13938D01*
X44822Y-13950D01*
X44845Y-13950D01*
X44881Y-13938D01*
X45024Y-13795D01*
X45024Y-13950D01*
X44774Y-14033D02*
X44774Y-14200D01*
X45024Y-14093D01*
X43274Y-6069D02*
X43024Y-6069D01*
X43024Y-6129D01*
X43036Y-6164D01*
X43060Y-6188D01*
X43083Y-6200D01*
X43131Y-6212D01*
X43167Y-6212D01*
X43214Y-6200D01*
X43238Y-6188D01*
X43262Y-6164D01*
X43274Y-6129D01*
X43274Y-6069D01*
X43048Y-6307D02*
X43036Y-6319D01*
X43024Y-6343D01*
X43024Y-6402D01*
X43036Y-6426D01*
X43048Y-6438D01*
X43072Y-6450D01*
X43095Y-6450D01*
X43131Y-6438D01*
X43274Y-6295D01*
X43274Y-6450D01*
X43024Y-6664D02*
X43024Y-6617D01*
X43036Y-6593D01*
X43048Y-6581D01*
X43083Y-6557D01*
X43131Y-6545D01*
X43226Y-6545D01*
X43250Y-6557D01*
X43262Y-6569D01*
X43274Y-6593D01*
X43274Y-6640D01*
X43262Y-6664D01*
X43250Y-6676D01*
X43226Y-6688D01*
X43167Y-6688D01*
X43143Y-6676D01*
X43131Y-6664D01*
X43119Y-6640D01*
X43119Y-6593D01*
X43131Y-6569D01*
X43143Y-6557D01*
X43167Y-6545D01*
X21882Y-23819D02*
X21632Y-23819D01*
X21632Y-23879D01*
X21644Y-23914D01*
X21668Y-23938D01*
X21692Y-23950D01*
X21739Y-23962D01*
X21775Y-23962D01*
X21823Y-23950D01*
X21846Y-23938D01*
X21870Y-23914D01*
X21882Y-23879D01*
X21882Y-23819D01*
X21882Y-24200D02*
X21882Y-24057D01*
X21882Y-24129D02*
X21632Y-24129D01*
X21668Y-24105D01*
X21692Y-24081D01*
X21704Y-24057D01*
X21716Y-24414D02*
X21882Y-24414D01*
X21620Y-24355D02*
X21799Y-24295D01*
X21799Y-24450D01*
X14382Y-23819D02*
X14132Y-23819D01*
X14132Y-23879D01*
X14144Y-23914D01*
X14168Y-23938D01*
X14192Y-23950D01*
X14239Y-23962D01*
X14275Y-23962D01*
X14323Y-23950D01*
X14346Y-23938D01*
X14370Y-23914D01*
X14382Y-23879D01*
X14382Y-23819D01*
X14132Y-24117D02*
X14132Y-24141D01*
X14144Y-24164D01*
X14156Y-24176D01*
X14180Y-24188D01*
X14227Y-24200D01*
X14287Y-24200D01*
X14335Y-24188D01*
X14358Y-24176D01*
X14370Y-24164D01*
X14382Y-24141D01*
X14382Y-24117D01*
X14370Y-24093D01*
X14358Y-24081D01*
X14335Y-24069D01*
X14287Y-24057D01*
X14227Y-24057D01*
X14180Y-24069D01*
X14156Y-24081D01*
X14144Y-24093D01*
X14132Y-24117D01*
X14382Y-24319D02*
X14382Y-24367D01*
X14370Y-24391D01*
X14358Y-24402D01*
X14323Y-24426D01*
X14275Y-24438D01*
X14180Y-24438D01*
X14156Y-24426D01*
X14144Y-24414D01*
X14132Y-24391D01*
X14132Y-24343D01*
X14144Y-24319D01*
X14156Y-24307D01*
X14180Y-24295D01*
X14239Y-24295D01*
X14263Y-24307D01*
X14275Y-24319D01*
X14287Y-24343D01*
X14287Y-24391D01*
X14275Y-24414D01*
X14263Y-24426D01*
X14239Y-24438D01*
X26024Y-21069D02*
X25774Y-21069D01*
X25774Y-21129D01*
X25786Y-21164D01*
X25810Y-21188D01*
X25833Y-21200D01*
X25881Y-21212D01*
X25917Y-21212D01*
X25964Y-21200D01*
X25988Y-21188D01*
X26012Y-21164D01*
X26024Y-21129D01*
X26024Y-21069D01*
X26024Y-21450D02*
X26024Y-21307D01*
X26024Y-21379D02*
X25774Y-21379D01*
X25810Y-21355D01*
X25833Y-21331D01*
X25845Y-21307D01*
X25774Y-21533D02*
X25774Y-21688D01*
X25869Y-21605D01*
X25869Y-21641D01*
X25881Y-21664D01*
X25893Y-21676D01*
X25917Y-21688D01*
X25976Y-21688D01*
X26000Y-21676D01*
X26012Y-21664D01*
X26024Y-21641D01*
X26024Y-21569D01*
X26012Y-21545D01*
X26000Y-21533D01*
X22524Y-13569D02*
X22274Y-13569D01*
X22274Y-13629D01*
X22286Y-13664D01*
X22310Y-13688D01*
X22333Y-13700D01*
X22381Y-13712D01*
X22417Y-13712D01*
X22464Y-13700D01*
X22488Y-13688D01*
X22512Y-13664D01*
X22524Y-13629D01*
X22524Y-13569D01*
X22524Y-13950D02*
X22524Y-13807D01*
X22524Y-13879D02*
X22274Y-13879D01*
X22310Y-13855D01*
X22333Y-13831D01*
X22345Y-13807D01*
X22298Y-14045D02*
X22286Y-14057D01*
X22274Y-14081D01*
X22274Y-14140D01*
X22286Y-14164D01*
X22298Y-14176D01*
X22322Y-14188D01*
X22345Y-14188D01*
X22381Y-14176D01*
X22524Y-14033D01*
X22524Y-14188D01*
X18524Y-21069D02*
X18274Y-21069D01*
X18274Y-21129D01*
X18286Y-21164D01*
X18310Y-21188D01*
X18333Y-21200D01*
X18381Y-21212D01*
X18417Y-21212D01*
X18464Y-21200D01*
X18488Y-21188D01*
X18512Y-21164D01*
X18524Y-21129D01*
X18524Y-21069D01*
X18274Y-21367D02*
X18274Y-21391D01*
X18286Y-21414D01*
X18298Y-21426D01*
X18322Y-21438D01*
X18369Y-21450D01*
X18429Y-21450D01*
X18476Y-21438D01*
X18500Y-21426D01*
X18512Y-21414D01*
X18524Y-21391D01*
X18524Y-21367D01*
X18512Y-21343D01*
X18500Y-21331D01*
X18476Y-21319D01*
X18429Y-21307D01*
X18369Y-21307D01*
X18322Y-21319D01*
X18298Y-21331D01*
X18286Y-21343D01*
X18274Y-21367D01*
X18381Y-21593D02*
X18369Y-21569D01*
X18357Y-21557D01*
X18333Y-21545D01*
X18322Y-21545D01*
X18298Y-21557D01*
X18286Y-21569D01*
X18274Y-21593D01*
X18274Y-21641D01*
X18286Y-21664D01*
X18298Y-21676D01*
X18322Y-21688D01*
X18333Y-21688D01*
X18357Y-21676D01*
X18369Y-21664D01*
X18381Y-21641D01*
X18381Y-21593D01*
X18393Y-21569D01*
X18405Y-21557D01*
X18429Y-21545D01*
X18476Y-21545D01*
X18500Y-21557D01*
X18512Y-21569D01*
X18524Y-21593D01*
X18524Y-21641D01*
X18512Y-21664D01*
X18500Y-21676D01*
X18476Y-21688D01*
X18429Y-21688D01*
X18405Y-21676D01*
X18393Y-21664D01*
X18381Y-21641D01*
X15024Y-13569D02*
X14774Y-13569D01*
X14774Y-13629D01*
X14786Y-13664D01*
X14810Y-13688D01*
X14833Y-13700D01*
X14881Y-13712D01*
X14917Y-13712D01*
X14964Y-13700D01*
X14988Y-13688D01*
X15012Y-13664D01*
X15024Y-13629D01*
X15024Y-13569D01*
X14774Y-13867D02*
X14774Y-13890D01*
X14786Y-13914D01*
X14798Y-13926D01*
X14822Y-13938D01*
X14869Y-13950D01*
X14929Y-13950D01*
X14976Y-13938D01*
X15000Y-13926D01*
X15012Y-13914D01*
X15024Y-13890D01*
X15024Y-13867D01*
X15012Y-13843D01*
X15000Y-13831D01*
X14976Y-13819D01*
X14929Y-13807D01*
X14869Y-13807D01*
X14822Y-13819D01*
X14798Y-13831D01*
X14786Y-13843D01*
X14774Y-13867D01*
X14774Y-14033D02*
X14774Y-14200D01*
X15024Y-14093D01*
X5882Y-23819D02*
X5632Y-23819D01*
X5632Y-23879D01*
X5644Y-23914D01*
X5668Y-23938D01*
X5692Y-23950D01*
X5739Y-23962D01*
X5775Y-23962D01*
X5823Y-23950D01*
X5846Y-23938D01*
X5870Y-23914D01*
X5882Y-23879D01*
X5882Y-23819D01*
X5632Y-24117D02*
X5632Y-24141D01*
X5644Y-24164D01*
X5656Y-24176D01*
X5680Y-24188D01*
X5727Y-24200D01*
X5787Y-24200D01*
X5835Y-24188D01*
X5858Y-24176D01*
X5870Y-24164D01*
X5882Y-24141D01*
X5882Y-24117D01*
X5870Y-24093D01*
X5858Y-24081D01*
X5835Y-24069D01*
X5787Y-24057D01*
X5727Y-24057D01*
X5680Y-24069D01*
X5656Y-24081D01*
X5644Y-24093D01*
X5632Y-24117D01*
X5716Y-24414D02*
X5882Y-24414D01*
X5620Y-24355D02*
X5799Y-24295D01*
X5799Y-24450D01*
X6524Y-13569D02*
X6274Y-13569D01*
X6274Y-13629D01*
X6286Y-13664D01*
X6310Y-13688D01*
X6333Y-13700D01*
X6381Y-13712D01*
X6417Y-13712D01*
X6464Y-13700D01*
X6488Y-13688D01*
X6512Y-13664D01*
X6524Y-13629D01*
X6524Y-13569D01*
X6274Y-13867D02*
X6274Y-13890D01*
X6286Y-13914D01*
X6298Y-13926D01*
X6322Y-13938D01*
X6369Y-13950D01*
X6429Y-13950D01*
X6476Y-13938D01*
X6500Y-13926D01*
X6512Y-13914D01*
X6524Y-13890D01*
X6524Y-13867D01*
X6512Y-13843D01*
X6500Y-13831D01*
X6476Y-13819D01*
X6429Y-13807D01*
X6369Y-13807D01*
X6322Y-13819D01*
X6298Y-13831D01*
X6286Y-13843D01*
X6274Y-13867D01*
X6298Y-14045D02*
X6286Y-14057D01*
X6274Y-14081D01*
X6274Y-14140D01*
X6286Y-14164D01*
X6298Y-14176D01*
X6322Y-14188D01*
X6345Y-14188D01*
X6381Y-14176D01*
X6524Y-14033D01*
X6524Y-14188D01*
X20774Y-6069D02*
X20524Y-6069D01*
X20524Y-6129D01*
X20536Y-6164D01*
X20560Y-6188D01*
X20583Y-6200D01*
X20631Y-6212D01*
X20667Y-6212D01*
X20714Y-6200D01*
X20738Y-6188D01*
X20762Y-6164D01*
X20774Y-6129D01*
X20774Y-6069D01*
X20774Y-6450D02*
X20774Y-6307D01*
X20774Y-6379D02*
X20524Y-6379D01*
X20560Y-6355D01*
X20583Y-6331D01*
X20595Y-6307D01*
X20774Y-6688D02*
X20774Y-6545D01*
X20774Y-6617D02*
X20524Y-6617D01*
X20560Y-6593D01*
X20583Y-6569D01*
X20595Y-6545D01*
X13274Y-6069D02*
X13024Y-6069D01*
X13024Y-6129D01*
X13036Y-6164D01*
X13060Y-6188D01*
X13083Y-6200D01*
X13131Y-6212D01*
X13167Y-6212D01*
X13214Y-6200D01*
X13238Y-6188D01*
X13262Y-6164D01*
X13274Y-6129D01*
X13274Y-6069D01*
X13024Y-6367D02*
X13024Y-6390D01*
X13036Y-6414D01*
X13048Y-6426D01*
X13072Y-6438D01*
X13119Y-6450D01*
X13179Y-6450D01*
X13226Y-6438D01*
X13250Y-6426D01*
X13262Y-6414D01*
X13274Y-6390D01*
X13274Y-6367D01*
X13262Y-6343D01*
X13250Y-6331D01*
X13226Y-6319D01*
X13179Y-6307D01*
X13119Y-6307D01*
X13072Y-6319D01*
X13048Y-6331D01*
X13036Y-6343D01*
X13024Y-6367D01*
X13024Y-6664D02*
X13024Y-6617D01*
X13036Y-6593D01*
X13048Y-6581D01*
X13083Y-6557D01*
X13131Y-6545D01*
X13226Y-6545D01*
X13250Y-6557D01*
X13262Y-6569D01*
X13274Y-6593D01*
X13274Y-6640D01*
X13262Y-6664D01*
X13250Y-6676D01*
X13226Y-6688D01*
X13167Y-6688D01*
X13143Y-6676D01*
X13131Y-6664D01*
X13119Y-6640D01*
X13119Y-6593D01*
X13131Y-6569D01*
X13143Y-6557D01*
X13167Y-6545D01*
X8274Y-21069D02*
X8024Y-21069D01*
X8024Y-21129D01*
X8036Y-21164D01*
X8060Y-21188D01*
X8083Y-21200D01*
X8131Y-21212D01*
X8167Y-21212D01*
X8214Y-21200D01*
X8238Y-21188D01*
X8262Y-21164D01*
X8274Y-21129D01*
X8274Y-21069D01*
X8024Y-21367D02*
X8024Y-21391D01*
X8036Y-21414D01*
X8048Y-21426D01*
X8072Y-21438D01*
X8119Y-21450D01*
X8179Y-21450D01*
X8226Y-21438D01*
X8250Y-21426D01*
X8262Y-21414D01*
X8274Y-21391D01*
X8274Y-21367D01*
X8262Y-21343D01*
X8250Y-21331D01*
X8226Y-21319D01*
X8179Y-21307D01*
X8119Y-21307D01*
X8072Y-21319D01*
X8048Y-21331D01*
X8036Y-21343D01*
X8024Y-21367D01*
X8024Y-21533D02*
X8024Y-21688D01*
X8119Y-21605D01*
X8119Y-21641D01*
X8131Y-21664D01*
X8143Y-21676D01*
X8167Y-21688D01*
X8226Y-21688D01*
X8250Y-21676D01*
X8262Y-21664D01*
X8274Y-21641D01*
X8274Y-21569D01*
X8262Y-21545D01*
X8250Y-21533D01*
X88274Y-6069D02*
X88024Y-6069D01*
X88024Y-6129D01*
X88036Y-6164D01*
X88060Y-6188D01*
X88083Y-6200D01*
X88131Y-6212D01*
X88167Y-6212D01*
X88214Y-6200D01*
X88238Y-6188D01*
X88262Y-6164D01*
X88274Y-6129D01*
X88274Y-6069D01*
X88024Y-6438D02*
X88024Y-6319D01*
X88143Y-6307D01*
X88131Y-6319D01*
X88119Y-6343D01*
X88119Y-6402D01*
X88131Y-6426D01*
X88143Y-6438D01*
X88167Y-6450D01*
X88226Y-6450D01*
X88250Y-6438D01*
X88262Y-6426D01*
X88274Y-6402D01*
X88274Y-6343D01*
X88262Y-6319D01*
X88250Y-6307D01*
X88024Y-6664D02*
X88024Y-6617D01*
X88036Y-6593D01*
X88048Y-6581D01*
X88083Y-6557D01*
X88131Y-6545D01*
X88226Y-6545D01*
X88250Y-6557D01*
X88262Y-6569D01*
X88274Y-6593D01*
X88274Y-6640D01*
X88262Y-6664D01*
X88250Y-6676D01*
X88226Y-6688D01*
X88167Y-6688D01*
X88143Y-6676D01*
X88131Y-6664D01*
X88119Y-6640D01*
X88119Y-6593D01*
X88131Y-6569D01*
X88143Y-6557D01*
X88167Y-6545D01*
X87774Y-21069D02*
X87524Y-21069D01*
X87524Y-21129D01*
X87536Y-21164D01*
X87560Y-21188D01*
X87583Y-21200D01*
X87631Y-21212D01*
X87667Y-21212D01*
X87714Y-21200D01*
X87738Y-21188D01*
X87762Y-21164D01*
X87774Y-21129D01*
X87774Y-21069D01*
X87524Y-21438D02*
X87524Y-21319D01*
X87643Y-21307D01*
X87631Y-21319D01*
X87619Y-21343D01*
X87619Y-21402D01*
X87631Y-21426D01*
X87643Y-21438D01*
X87667Y-21450D01*
X87726Y-21450D01*
X87750Y-21438D01*
X87762Y-21426D01*
X87774Y-21402D01*
X87774Y-21343D01*
X87762Y-21319D01*
X87750Y-21307D01*
X87524Y-21533D02*
X87524Y-21688D01*
X87619Y-21605D01*
X87619Y-21641D01*
X87631Y-21664D01*
X87643Y-21676D01*
X87667Y-21688D01*
X87726Y-21688D01*
X87750Y-21676D01*
X87762Y-21664D01*
X87774Y-21641D01*
X87774Y-21569D01*
X87762Y-21545D01*
X87750Y-21533D01*
X86632Y-23819D02*
X86382Y-23819D01*
X86382Y-23879D01*
X86394Y-23914D01*
X86418Y-23938D01*
X86442Y-23950D01*
X86489Y-23962D01*
X86525Y-23962D01*
X86573Y-23950D01*
X86596Y-23938D01*
X86620Y-23914D01*
X86632Y-23879D01*
X86632Y-23819D01*
X86466Y-24176D02*
X86632Y-24176D01*
X86370Y-24117D02*
X86549Y-24057D01*
X86549Y-24212D01*
X86632Y-24319D02*
X86632Y-24367D01*
X86620Y-24391D01*
X86608Y-24402D01*
X86573Y-24426D01*
X86525Y-24438D01*
X86430Y-24438D01*
X86406Y-24426D01*
X86394Y-24414D01*
X86382Y-24391D01*
X86382Y-24343D01*
X86394Y-24319D01*
X86406Y-24307D01*
X86430Y-24295D01*
X86489Y-24295D01*
X86513Y-24307D01*
X86525Y-24319D01*
X86537Y-24343D01*
X86537Y-24391D01*
X86525Y-24414D01*
X86513Y-24426D01*
X86489Y-24438D01*
X77382Y-23819D02*
X77132Y-23819D01*
X77132Y-23879D01*
X77144Y-23914D01*
X77168Y-23938D01*
X77192Y-23950D01*
X77239Y-23962D01*
X77275Y-23962D01*
X77323Y-23950D01*
X77346Y-23938D01*
X77370Y-23914D01*
X77382Y-23879D01*
X77382Y-23819D01*
X77216Y-24176D02*
X77382Y-24176D01*
X77120Y-24117D02*
X77299Y-24057D01*
X77299Y-24212D01*
X77216Y-24414D02*
X77382Y-24414D01*
X77120Y-24355D02*
X77299Y-24295D01*
X77299Y-24450D01*
X83427Y-13605D02*
X83177Y-13605D01*
X83177Y-13665D01*
X83189Y-13700D01*
X83213Y-13724D01*
X83237Y-13736D01*
X83284Y-13748D01*
X83320Y-13748D01*
X83368Y-13736D01*
X83391Y-13724D01*
X83415Y-13700D01*
X83427Y-13665D01*
X83427Y-13605D01*
X83177Y-13974D02*
X83177Y-13855D01*
X83296Y-13843D01*
X83284Y-13855D01*
X83272Y-13879D01*
X83272Y-13938D01*
X83284Y-13962D01*
X83296Y-13974D01*
X83320Y-13986D01*
X83379Y-13986D01*
X83403Y-13974D01*
X83415Y-13962D01*
X83427Y-13938D01*
X83427Y-13879D01*
X83415Y-13855D01*
X83403Y-13843D01*
X83201Y-14081D02*
X83189Y-14093D01*
X83177Y-14117D01*
X83177Y-14176D01*
X83189Y-14200D01*
X83201Y-14212D01*
X83225Y-14224D01*
X83248Y-14224D01*
X83284Y-14212D01*
X83427Y-14069D01*
X83427Y-14224D01*
X80774Y-6069D02*
X80524Y-6069D01*
X80524Y-6129D01*
X80536Y-6164D01*
X80560Y-6188D01*
X80583Y-6200D01*
X80631Y-6212D01*
X80667Y-6212D01*
X80714Y-6200D01*
X80738Y-6188D01*
X80762Y-6164D01*
X80774Y-6129D01*
X80774Y-6069D01*
X80524Y-6438D02*
X80524Y-6319D01*
X80643Y-6307D01*
X80631Y-6319D01*
X80619Y-6343D01*
X80619Y-6402D01*
X80631Y-6426D01*
X80643Y-6438D01*
X80667Y-6450D01*
X80726Y-6450D01*
X80750Y-6438D01*
X80762Y-6426D01*
X80774Y-6402D01*
X80774Y-6343D01*
X80762Y-6319D01*
X80750Y-6307D01*
X80774Y-6688D02*
X80774Y-6545D01*
X80774Y-6617D02*
X80524Y-6617D01*
X80560Y-6593D01*
X80583Y-6569D01*
X80595Y-6545D01*
X75024Y-13569D02*
X74774Y-13569D01*
X74774Y-13629D01*
X74786Y-13664D01*
X74810Y-13688D01*
X74833Y-13700D01*
X74881Y-13712D01*
X74917Y-13712D01*
X74964Y-13700D01*
X74988Y-13688D01*
X75012Y-13664D01*
X75024Y-13629D01*
X75024Y-13569D01*
X74857Y-13926D02*
X75024Y-13926D01*
X74762Y-13867D02*
X74941Y-13807D01*
X74941Y-13962D01*
X74774Y-14033D02*
X74774Y-14200D01*
X75024Y-14093D01*
X79274Y-21069D02*
X79024Y-21069D01*
X79024Y-21129D01*
X79036Y-21164D01*
X79060Y-21188D01*
X79083Y-21200D01*
X79131Y-21212D01*
X79167Y-21212D01*
X79214Y-21200D01*
X79238Y-21188D01*
X79262Y-21164D01*
X79274Y-21129D01*
X79274Y-21069D01*
X79107Y-21426D02*
X79274Y-21426D01*
X79012Y-21367D02*
X79191Y-21307D01*
X79191Y-21462D01*
X79131Y-21593D02*
X79119Y-21569D01*
X79107Y-21557D01*
X79083Y-21545D01*
X79072Y-21545D01*
X79048Y-21557D01*
X79036Y-21569D01*
X79024Y-21593D01*
X79024Y-21641D01*
X79036Y-21664D01*
X79048Y-21676D01*
X79072Y-21688D01*
X79083Y-21688D01*
X79107Y-21676D01*
X79119Y-21664D01*
X79131Y-21641D01*
X79131Y-21593D01*
X79143Y-21569D01*
X79155Y-21557D01*
X79179Y-21545D01*
X79226Y-21545D01*
X79250Y-21557D01*
X79262Y-21569D01*
X79274Y-21593D01*
X79274Y-21641D01*
X79262Y-21664D01*
X79250Y-21676D01*
X79226Y-21688D01*
X79179Y-21688D01*
X79155Y-21676D01*
X79143Y-21664D01*
X79131Y-21641D01*
G54D22*
X37156Y-2302D02*
X37156Y-1948D01*
X37021Y-1948D01*
X36987Y-1965D01*
X36971Y-1981D01*
X36954Y-2015D01*
X36954Y-2066D01*
X36971Y-2100D01*
X36987Y-2116D01*
X37021Y-2133D01*
X37156Y-2133D01*
X36616Y-2302D02*
X36819Y-2302D01*
X36717Y-2302D02*
X36717Y-1948D01*
X36751Y-1998D01*
X36785Y-2032D01*
X36819Y-2049D01*
X36447Y-2302D02*
X36380Y-2302D01*
X36346Y-2285D01*
X36329Y-2268D01*
X36296Y-2218D01*
X36279Y-2150D01*
X36279Y-2015D01*
X36296Y-1981D01*
X36312Y-1965D01*
X36346Y-1948D01*
X36414Y-1948D01*
X36447Y-1965D01*
X36464Y-1981D01*
X36481Y-2015D01*
X36481Y-2100D01*
X36464Y-2133D01*
X36447Y-2150D01*
X36414Y-2167D01*
X36346Y-2167D01*
X36312Y-2150D01*
X36296Y-2133D01*
X36279Y-2100D01*
X38712Y-2252D02*
X38881Y-2252D01*
X38881Y-1898D01*
X38392Y-2252D02*
X38510Y-2083D01*
X38594Y-2252D02*
X38594Y-1898D01*
X38459Y-1898D01*
X38425Y-1915D01*
X38408Y-1931D01*
X38392Y-1965D01*
X38392Y-2016D01*
X38408Y-2050D01*
X38425Y-2066D01*
X38459Y-2083D01*
X38594Y-2083D01*
X38257Y-1931D02*
X38240Y-1915D01*
X38206Y-1898D01*
X38122Y-1898D01*
X38088Y-1915D01*
X38071Y-1931D01*
X38054Y-1965D01*
X38054Y-1999D01*
X38071Y-2050D01*
X38273Y-2252D01*
X38054Y-2252D01*
X37156Y-3252D02*
X37156Y-2898D01*
X37021Y-2898D01*
X36987Y-2915D01*
X36971Y-2931D01*
X36954Y-2965D01*
X36954Y-3016D01*
X36971Y-3050D01*
X36987Y-3066D01*
X37021Y-3083D01*
X37156Y-3083D01*
X36819Y-2931D02*
X36802Y-2915D01*
X36768Y-2898D01*
X36684Y-2898D01*
X36650Y-2915D01*
X36633Y-2931D01*
X36616Y-2965D01*
X36616Y-2999D01*
X36633Y-3050D01*
X36836Y-3252D01*
X36616Y-3252D01*
X36397Y-2898D02*
X36363Y-2898D01*
X36329Y-2915D01*
X36312Y-2931D01*
X36296Y-2965D01*
X36279Y-3033D01*
X36279Y-3117D01*
X36296Y-3184D01*
X36312Y-3218D01*
X36329Y-3235D01*
X36363Y-3252D01*
X36397Y-3252D01*
X36431Y-3235D01*
X36447Y-3218D01*
X36464Y-3184D01*
X36481Y-3117D01*
X36481Y-3033D01*
X36464Y-2965D01*
X36447Y-2931D01*
X36431Y-2915D01*
X36397Y-2898D01*
X38712Y-3102D02*
X38881Y-3102D01*
X38881Y-2748D01*
X38392Y-3102D02*
X38510Y-2933D01*
X38594Y-3102D02*
X38594Y-2748D01*
X38459Y-2748D01*
X38425Y-2765D01*
X38408Y-2781D01*
X38392Y-2815D01*
X38392Y-2866D01*
X38408Y-2900D01*
X38425Y-2916D01*
X38459Y-2933D01*
X38594Y-2933D01*
X38273Y-2748D02*
X38054Y-2748D01*
X38172Y-2883D01*
X38122Y-2883D01*
X38088Y-2900D01*
X38071Y-2916D01*
X38054Y-2950D01*
X38054Y-3034D01*
X38071Y-3068D01*
X38088Y-3085D01*
X38122Y-3102D01*
X38223Y-3102D01*
X38257Y-3085D01*
X38273Y-3068D01*
X37156Y-4252D02*
X37156Y-3898D01*
X37021Y-3898D01*
X36987Y-3915D01*
X36971Y-3931D01*
X36954Y-3965D01*
X36954Y-4016D01*
X36971Y-4050D01*
X36987Y-4066D01*
X37021Y-4083D01*
X37156Y-4083D01*
X36819Y-3931D02*
X36802Y-3915D01*
X36768Y-3898D01*
X36684Y-3898D01*
X36650Y-3915D01*
X36633Y-3931D01*
X36616Y-3965D01*
X36616Y-3999D01*
X36633Y-4050D01*
X36836Y-4252D01*
X36616Y-4252D01*
X36279Y-4252D02*
X36481Y-4252D01*
X36380Y-4252D02*
X36380Y-3898D01*
X36414Y-3948D01*
X36447Y-3982D01*
X36481Y-3999D01*
X38712Y-4502D02*
X38881Y-4502D01*
X38881Y-4148D01*
X38392Y-4502D02*
X38510Y-4333D01*
X38594Y-4502D02*
X38594Y-4148D01*
X38459Y-4148D01*
X38425Y-4165D01*
X38408Y-4181D01*
X38392Y-4215D01*
X38392Y-4266D01*
X38408Y-4300D01*
X38425Y-4316D01*
X38459Y-4333D01*
X38594Y-4333D01*
X38088Y-4266D02*
X38088Y-4502D01*
X38172Y-4131D02*
X38257Y-4384D01*
X38037Y-4384D01*
X44606Y-1252D02*
X44606Y-898D01*
X44471Y-898D01*
X44437Y-915D01*
X44421Y-931D01*
X44404Y-965D01*
X44404Y-1016D01*
X44421Y-1050D01*
X44437Y-1066D01*
X44471Y-1083D01*
X44606Y-1083D01*
X44269Y-931D02*
X44252Y-915D01*
X44218Y-898D01*
X44134Y-898D01*
X44100Y-915D01*
X44083Y-931D01*
X44066Y-965D01*
X44066Y-999D01*
X44083Y-1050D01*
X44286Y-1252D01*
X44066Y-1252D01*
X43948Y-898D02*
X43729Y-898D01*
X43847Y-1033D01*
X43796Y-1033D01*
X43762Y-1050D01*
X43746Y-1066D01*
X43729Y-1100D01*
X43729Y-1184D01*
X43746Y-1218D01*
X43762Y-1235D01*
X43796Y-1252D01*
X43897Y-1252D01*
X43931Y-1235D01*
X43948Y-1218D01*
X46162Y-1252D02*
X46331Y-1252D01*
X46331Y-898D01*
X45842Y-1218D02*
X45858Y-1235D01*
X45909Y-1252D01*
X45943Y-1252D01*
X45993Y-1235D01*
X46027Y-1201D01*
X46044Y-1168D01*
X46061Y-1100D01*
X46061Y-1050D01*
X46044Y-982D01*
X46027Y-948D01*
X45993Y-915D01*
X45943Y-898D01*
X45909Y-898D01*
X45858Y-915D01*
X45842Y-931D01*
X45504Y-1252D02*
X45707Y-1252D01*
X45605Y-1252D02*
X45605Y-898D01*
X45639Y-948D01*
X45673Y-982D01*
X45707Y-999D01*
X44656Y-3252D02*
X44656Y-2898D01*
X44521Y-2898D01*
X44487Y-2915D01*
X44471Y-2931D01*
X44454Y-2965D01*
X44454Y-3016D01*
X44471Y-3050D01*
X44487Y-3066D01*
X44521Y-3083D01*
X44656Y-3083D01*
X44319Y-2931D02*
X44302Y-2915D01*
X44268Y-2898D01*
X44184Y-2898D01*
X44150Y-2915D01*
X44133Y-2931D01*
X44116Y-2965D01*
X44116Y-2999D01*
X44133Y-3050D01*
X44336Y-3252D01*
X44116Y-3252D01*
X43796Y-2898D02*
X43964Y-2898D01*
X43981Y-3066D01*
X43964Y-3050D01*
X43931Y-3033D01*
X43846Y-3033D01*
X43812Y-3050D01*
X43796Y-3066D01*
X43779Y-3100D01*
X43779Y-3184D01*
X43796Y-3218D01*
X43812Y-3235D01*
X43846Y-3252D01*
X43931Y-3252D01*
X43964Y-3235D01*
X43981Y-3218D01*
X46212Y-3152D02*
X46381Y-3152D01*
X46381Y-2798D01*
X45892Y-3118D02*
X45908Y-3135D01*
X45959Y-3152D01*
X45993Y-3152D01*
X46043Y-3135D01*
X46077Y-3101D01*
X46094Y-3068D01*
X46111Y-3000D01*
X46111Y-2950D01*
X46094Y-2882D01*
X46077Y-2848D01*
X46043Y-2815D01*
X45993Y-2798D01*
X45959Y-2798D01*
X45908Y-2815D01*
X45892Y-2831D01*
X45773Y-2798D02*
X45554Y-2798D01*
X45672Y-2933D01*
X45622Y-2933D01*
X45588Y-2950D01*
X45571Y-2966D01*
X45554Y-3000D01*
X45554Y-3084D01*
X45571Y-3118D01*
X45588Y-3135D01*
X45622Y-3152D01*
X45723Y-3152D01*
X45757Y-3135D01*
X45773Y-3118D01*
X44656Y-4252D02*
X44656Y-3898D01*
X44521Y-3898D01*
X44487Y-3915D01*
X44471Y-3931D01*
X44454Y-3965D01*
X44454Y-4016D01*
X44471Y-4050D01*
X44487Y-4066D01*
X44521Y-4083D01*
X44656Y-4083D01*
X44319Y-3931D02*
X44302Y-3915D01*
X44268Y-3898D01*
X44184Y-3898D01*
X44150Y-3915D01*
X44133Y-3931D01*
X44116Y-3965D01*
X44116Y-3999D01*
X44133Y-4050D01*
X44336Y-4252D01*
X44116Y-4252D01*
X43812Y-3898D02*
X43880Y-3898D01*
X43914Y-3915D01*
X43931Y-3931D01*
X43964Y-3982D01*
X43981Y-4050D01*
X43981Y-4184D01*
X43964Y-4218D01*
X43947Y-4235D01*
X43914Y-4252D01*
X43846Y-4252D01*
X43812Y-4235D01*
X43796Y-4218D01*
X43779Y-4184D01*
X43779Y-4100D01*
X43796Y-4066D01*
X43812Y-4050D01*
X43846Y-4033D01*
X43914Y-4033D01*
X43947Y-4050D01*
X43964Y-4066D01*
X43981Y-4100D01*
X46212Y-4402D02*
X46381Y-4402D01*
X46381Y-4048D01*
X45892Y-4368D02*
X45908Y-4385D01*
X45959Y-4402D01*
X45993Y-4402D01*
X46043Y-4385D01*
X46077Y-4351D01*
X46094Y-4318D01*
X46111Y-4250D01*
X46111Y-4200D01*
X46094Y-4132D01*
X46077Y-4098D01*
X46043Y-4065D01*
X45993Y-4048D01*
X45959Y-4048D01*
X45908Y-4065D01*
X45892Y-4081D01*
X45588Y-4166D02*
X45588Y-4402D01*
X45672Y-4031D02*
X45757Y-4284D01*
X45537Y-4284D01*
X37156Y-1252D02*
X37156Y-898D01*
X37021Y-898D01*
X36987Y-915D01*
X36971Y-931D01*
X36954Y-965D01*
X36954Y-1016D01*
X36971Y-1050D01*
X36987Y-1066D01*
X37021Y-1083D01*
X37156Y-1083D01*
X36616Y-1252D02*
X36819Y-1252D01*
X36717Y-1252D02*
X36717Y-898D01*
X36751Y-948D01*
X36785Y-982D01*
X36819Y-999D01*
X36414Y-1050D02*
X36447Y-1033D01*
X36464Y-1016D01*
X36481Y-982D01*
X36481Y-965D01*
X36464Y-931D01*
X36447Y-915D01*
X36414Y-898D01*
X36346Y-898D01*
X36312Y-915D01*
X36296Y-931D01*
X36279Y-965D01*
X36279Y-982D01*
X36296Y-1016D01*
X36312Y-1033D01*
X36346Y-1050D01*
X36414Y-1050D01*
X36447Y-1066D01*
X36464Y-1083D01*
X36481Y-1117D01*
X36481Y-1184D01*
X36464Y-1218D01*
X36447Y-1235D01*
X36414Y-1252D01*
X36346Y-1252D01*
X36312Y-1235D01*
X36296Y-1218D01*
X36279Y-1184D01*
X36279Y-1117D01*
X36296Y-1083D01*
X36312Y-1066D01*
X36346Y-1050D01*
X38712Y-1252D02*
X38881Y-1252D01*
X38881Y-898D01*
X38392Y-1252D02*
X38510Y-1083D01*
X38594Y-1252D02*
X38594Y-898D01*
X38459Y-898D01*
X38425Y-915D01*
X38408Y-931D01*
X38392Y-965D01*
X38392Y-1016D01*
X38408Y-1050D01*
X38425Y-1066D01*
X38459Y-1083D01*
X38594Y-1083D01*
X38054Y-1252D02*
X38257Y-1252D01*
X38155Y-1252D02*
X38155Y-898D01*
X38189Y-948D01*
X38223Y-982D01*
X38257Y-999D01*
X52156Y-3252D02*
X52156Y-2898D01*
X52021Y-2898D01*
X51987Y-2915D01*
X51971Y-2931D01*
X51954Y-2965D01*
X51954Y-3016D01*
X51971Y-3050D01*
X51987Y-3066D01*
X52021Y-3083D01*
X52156Y-3083D01*
X51819Y-2931D02*
X51802Y-2915D01*
X51768Y-2898D01*
X51684Y-2898D01*
X51650Y-2915D01*
X51633Y-2931D01*
X51616Y-2965D01*
X51616Y-2999D01*
X51633Y-3050D01*
X51836Y-3252D01*
X51616Y-3252D01*
X51447Y-3252D02*
X51380Y-3252D01*
X51346Y-3235D01*
X51329Y-3218D01*
X51296Y-3168D01*
X51279Y-3100D01*
X51279Y-2965D01*
X51296Y-2931D01*
X51312Y-2915D01*
X51346Y-2898D01*
X51414Y-2898D01*
X51447Y-2915D01*
X51464Y-2931D01*
X51481Y-2965D01*
X51481Y-3050D01*
X51464Y-3083D01*
X51447Y-3100D01*
X51414Y-3117D01*
X51346Y-3117D01*
X51312Y-3100D01*
X51296Y-3083D01*
X51279Y-3050D01*
X53712Y-3152D02*
X53881Y-3152D01*
X53881Y-2798D01*
X53392Y-3118D02*
X53408Y-3135D01*
X53459Y-3152D01*
X53493Y-3152D01*
X53543Y-3135D01*
X53577Y-3101D01*
X53594Y-3068D01*
X53611Y-3000D01*
X53611Y-2950D01*
X53594Y-2882D01*
X53577Y-2848D01*
X53543Y-2815D01*
X53493Y-2798D01*
X53459Y-2798D01*
X53408Y-2815D01*
X53392Y-2831D01*
X53273Y-2798D02*
X53037Y-2798D01*
X53189Y-3152D01*
X52156Y-4252D02*
X52156Y-3898D01*
X52021Y-3898D01*
X51987Y-3915D01*
X51971Y-3931D01*
X51954Y-3965D01*
X51954Y-4016D01*
X51971Y-4050D01*
X51987Y-4066D01*
X52021Y-4083D01*
X52156Y-4083D01*
X51836Y-3898D02*
X51616Y-3898D01*
X51734Y-4033D01*
X51684Y-4033D01*
X51650Y-4050D01*
X51633Y-4066D01*
X51616Y-4100D01*
X51616Y-4184D01*
X51633Y-4218D01*
X51650Y-4235D01*
X51684Y-4252D01*
X51785Y-4252D01*
X51819Y-4235D01*
X51836Y-4218D01*
X51397Y-3898D02*
X51363Y-3898D01*
X51329Y-3915D01*
X51312Y-3931D01*
X51296Y-3965D01*
X51279Y-4033D01*
X51279Y-4117D01*
X51296Y-4184D01*
X51312Y-4218D01*
X51329Y-4235D01*
X51363Y-4252D01*
X51397Y-4252D01*
X51431Y-4235D01*
X51447Y-4218D01*
X51464Y-4184D01*
X51481Y-4117D01*
X51481Y-4033D01*
X51464Y-3965D01*
X51447Y-3931D01*
X51431Y-3915D01*
X51397Y-3898D01*
X53712Y-4452D02*
X53881Y-4452D01*
X53881Y-4098D01*
X53392Y-4418D02*
X53408Y-4435D01*
X53459Y-4452D01*
X53493Y-4452D01*
X53543Y-4435D01*
X53577Y-4401D01*
X53594Y-4368D01*
X53611Y-4300D01*
X53611Y-4250D01*
X53594Y-4182D01*
X53577Y-4148D01*
X53543Y-4115D01*
X53493Y-4098D01*
X53459Y-4098D01*
X53408Y-4115D01*
X53392Y-4131D01*
X53189Y-4250D02*
X53223Y-4233D01*
X53240Y-4216D01*
X53257Y-4182D01*
X53257Y-4165D01*
X53240Y-4131D01*
X53223Y-4115D01*
X53189Y-4098D01*
X53122Y-4098D01*
X53088Y-4115D01*
X53071Y-4131D01*
X53054Y-4165D01*
X53054Y-4182D01*
X53071Y-4216D01*
X53088Y-4233D01*
X53122Y-4250D01*
X53189Y-4250D01*
X53223Y-4266D01*
X53240Y-4283D01*
X53257Y-4317D01*
X53257Y-4384D01*
X53240Y-4418D01*
X53223Y-4435D01*
X53189Y-4452D01*
X53122Y-4452D01*
X53088Y-4435D01*
X53071Y-4418D01*
X53054Y-4384D01*
X53054Y-4317D01*
X53071Y-4283D01*
X53088Y-4266D01*
X53122Y-4250D01*
X59656Y-4252D02*
X59656Y-3898D01*
X59521Y-3898D01*
X59487Y-3915D01*
X59471Y-3931D01*
X59454Y-3965D01*
X59454Y-4016D01*
X59471Y-4050D01*
X59487Y-4066D01*
X59521Y-4083D01*
X59656Y-4083D01*
X59336Y-3898D02*
X59116Y-3898D01*
X59234Y-4033D01*
X59184Y-4033D01*
X59150Y-4050D01*
X59133Y-4066D01*
X59116Y-4100D01*
X59116Y-4184D01*
X59133Y-4218D01*
X59150Y-4235D01*
X59184Y-4252D01*
X59285Y-4252D01*
X59319Y-4235D01*
X59336Y-4218D01*
X58779Y-4252D02*
X58981Y-4252D01*
X58880Y-4252D02*
X58880Y-3898D01*
X58914Y-3948D01*
X58947Y-3982D01*
X58981Y-3999D01*
X61262Y-4452D02*
X61431Y-4452D01*
X61431Y-4098D01*
X60942Y-4418D02*
X60958Y-4435D01*
X61009Y-4452D01*
X61043Y-4452D01*
X61093Y-4435D01*
X61127Y-4401D01*
X61144Y-4368D01*
X61161Y-4300D01*
X61161Y-4250D01*
X61144Y-4182D01*
X61127Y-4148D01*
X61093Y-4115D01*
X61043Y-4098D01*
X61009Y-4098D01*
X60958Y-4115D01*
X60942Y-4131D01*
X60773Y-4452D02*
X60705Y-4452D01*
X60672Y-4435D01*
X60655Y-4418D01*
X60621Y-4368D01*
X60604Y-4300D01*
X60604Y-4165D01*
X60621Y-4131D01*
X60638Y-4115D01*
X60672Y-4098D01*
X60739Y-4098D01*
X60773Y-4115D01*
X60790Y-4131D01*
X60807Y-4165D01*
X60807Y-4250D01*
X60790Y-4283D01*
X60773Y-4300D01*
X60739Y-4317D01*
X60672Y-4317D01*
X60638Y-4300D01*
X60621Y-4283D01*
X60604Y-4250D01*
X59656Y-3252D02*
X59656Y-2898D01*
X59521Y-2898D01*
X59487Y-2915D01*
X59471Y-2931D01*
X59454Y-2965D01*
X59454Y-3016D01*
X59471Y-3050D01*
X59487Y-3066D01*
X59521Y-3083D01*
X59656Y-3083D01*
X59336Y-2898D02*
X59116Y-2898D01*
X59234Y-3033D01*
X59184Y-3033D01*
X59150Y-3050D01*
X59133Y-3066D01*
X59116Y-3100D01*
X59116Y-3184D01*
X59133Y-3218D01*
X59150Y-3235D01*
X59184Y-3252D01*
X59285Y-3252D01*
X59319Y-3235D01*
X59336Y-3218D01*
X58981Y-2931D02*
X58964Y-2915D01*
X58931Y-2898D01*
X58846Y-2898D01*
X58812Y-2915D01*
X58796Y-2931D01*
X58779Y-2965D01*
X58779Y-2999D01*
X58796Y-3050D01*
X58998Y-3252D01*
X58779Y-3252D01*
X61531Y-3052D02*
X61700Y-3052D01*
X61700Y-2698D01*
X61210Y-3018D02*
X61227Y-3035D01*
X61278Y-3052D01*
X61311Y-3052D01*
X61362Y-3035D01*
X61396Y-3001D01*
X61413Y-2968D01*
X61430Y-2900D01*
X61430Y-2850D01*
X61413Y-2782D01*
X61396Y-2748D01*
X61362Y-2715D01*
X61311Y-2698D01*
X61278Y-2698D01*
X61227Y-2715D01*
X61210Y-2731D01*
X60873Y-3052D02*
X61075Y-3052D01*
X60974Y-3052D02*
X60974Y-2698D01*
X61008Y-2748D01*
X61042Y-2782D01*
X61075Y-2799D01*
X60653Y-2698D02*
X60620Y-2698D01*
X60586Y-2715D01*
X60569Y-2731D01*
X60552Y-2765D01*
X60535Y-2833D01*
X60535Y-2917D01*
X60552Y-2984D01*
X60569Y-3018D01*
X60586Y-3035D01*
X60620Y-3052D01*
X60653Y-3052D01*
X60687Y-3035D01*
X60704Y-3018D01*
X60721Y-2984D01*
X60738Y-2917D01*
X60738Y-2833D01*
X60721Y-2765D01*
X60704Y-2731D01*
X60687Y-2715D01*
X60653Y-2698D01*
X59656Y-2252D02*
X59656Y-1898D01*
X59521Y-1898D01*
X59487Y-1915D01*
X59471Y-1931D01*
X59454Y-1965D01*
X59454Y-2016D01*
X59471Y-2050D01*
X59487Y-2066D01*
X59521Y-2083D01*
X59656Y-2083D01*
X59336Y-1898D02*
X59116Y-1898D01*
X59234Y-2033D01*
X59184Y-2033D01*
X59150Y-2050D01*
X59133Y-2066D01*
X59116Y-2100D01*
X59116Y-2184D01*
X59133Y-2218D01*
X59150Y-2235D01*
X59184Y-2252D01*
X59285Y-2252D01*
X59319Y-2235D01*
X59336Y-2218D01*
X58998Y-1898D02*
X58779Y-1898D01*
X58897Y-2033D01*
X58846Y-2033D01*
X58812Y-2050D01*
X58796Y-2066D01*
X58779Y-2100D01*
X58779Y-2184D01*
X58796Y-2218D01*
X58812Y-2235D01*
X58846Y-2252D01*
X58947Y-2252D01*
X58981Y-2235D01*
X58998Y-2218D01*
X61531Y-2252D02*
X61700Y-2252D01*
X61700Y-1898D01*
X61210Y-2218D02*
X61227Y-2235D01*
X61278Y-2252D01*
X61311Y-2252D01*
X61362Y-2235D01*
X61396Y-2201D01*
X61413Y-2168D01*
X61430Y-2100D01*
X61430Y-2050D01*
X61413Y-1982D01*
X61396Y-1948D01*
X61362Y-1915D01*
X61311Y-1898D01*
X61278Y-1898D01*
X61227Y-1915D01*
X61210Y-1931D01*
X60873Y-2252D02*
X61075Y-2252D01*
X60974Y-2252D02*
X60974Y-1898D01*
X61008Y-1948D01*
X61042Y-1982D01*
X61075Y-1999D01*
X60535Y-2252D02*
X60738Y-2252D01*
X60637Y-2252D02*
X60637Y-1898D01*
X60670Y-1948D01*
X60704Y-1982D01*
X60738Y-1999D01*
X59656Y-1252D02*
X59656Y-898D01*
X59521Y-898D01*
X59487Y-915D01*
X59471Y-931D01*
X59454Y-965D01*
X59454Y-1016D01*
X59471Y-1050D01*
X59487Y-1066D01*
X59521Y-1083D01*
X59656Y-1083D01*
X59336Y-898D02*
X59116Y-898D01*
X59234Y-1033D01*
X59184Y-1033D01*
X59150Y-1050D01*
X59133Y-1066D01*
X59116Y-1100D01*
X59116Y-1184D01*
X59133Y-1218D01*
X59150Y-1235D01*
X59184Y-1252D01*
X59285Y-1252D01*
X59319Y-1235D01*
X59336Y-1218D01*
X58812Y-1016D02*
X58812Y-1252D01*
X58897Y-881D02*
X58981Y-1134D01*
X58762Y-1134D01*
X61581Y-1252D02*
X61750Y-1252D01*
X61750Y-898D01*
X61260Y-1218D02*
X61277Y-1235D01*
X61328Y-1252D01*
X61361Y-1252D01*
X61412Y-1235D01*
X61446Y-1201D01*
X61463Y-1168D01*
X61480Y-1100D01*
X61480Y-1050D01*
X61463Y-982D01*
X61446Y-948D01*
X61412Y-915D01*
X61361Y-898D01*
X61328Y-898D01*
X61277Y-915D01*
X61260Y-931D01*
X60923Y-1252D02*
X61125Y-1252D01*
X61024Y-1252D02*
X61024Y-898D01*
X61058Y-948D01*
X61092Y-982D01*
X61125Y-999D01*
X60788Y-931D02*
X60771Y-915D01*
X60737Y-898D01*
X60653Y-898D01*
X60619Y-915D01*
X60602Y-931D01*
X60585Y-965D01*
X60585Y-999D01*
X60602Y-1050D01*
X60805Y-1252D01*
X60585Y-1252D01*
X52156Y-2252D02*
X52156Y-1898D01*
X52021Y-1898D01*
X51987Y-1915D01*
X51971Y-1931D01*
X51954Y-1965D01*
X51954Y-2016D01*
X51971Y-2050D01*
X51987Y-2066D01*
X52021Y-2083D01*
X52156Y-2083D01*
X51819Y-1931D02*
X51802Y-1915D01*
X51768Y-1898D01*
X51684Y-1898D01*
X51650Y-1915D01*
X51633Y-1931D01*
X51616Y-1965D01*
X51616Y-1999D01*
X51633Y-2050D01*
X51836Y-2252D01*
X51616Y-2252D01*
X51414Y-2050D02*
X51447Y-2033D01*
X51464Y-2016D01*
X51481Y-1982D01*
X51481Y-1965D01*
X51464Y-1931D01*
X51447Y-1915D01*
X51414Y-1898D01*
X51346Y-1898D01*
X51312Y-1915D01*
X51296Y-1931D01*
X51279Y-1965D01*
X51279Y-1982D01*
X51296Y-2016D01*
X51312Y-2033D01*
X51346Y-2050D01*
X51414Y-2050D01*
X51447Y-2066D01*
X51464Y-2083D01*
X51481Y-2117D01*
X51481Y-2184D01*
X51464Y-2218D01*
X51447Y-2235D01*
X51414Y-2252D01*
X51346Y-2252D01*
X51312Y-2235D01*
X51296Y-2218D01*
X51279Y-2184D01*
X51279Y-2117D01*
X51296Y-2083D01*
X51312Y-2066D01*
X51346Y-2050D01*
X53712Y-2252D02*
X53881Y-2252D01*
X53881Y-1898D01*
X53392Y-2218D02*
X53408Y-2235D01*
X53459Y-2252D01*
X53493Y-2252D01*
X53543Y-2235D01*
X53577Y-2201D01*
X53594Y-2168D01*
X53611Y-2100D01*
X53611Y-2050D01*
X53594Y-1982D01*
X53577Y-1948D01*
X53543Y-1915D01*
X53493Y-1898D01*
X53459Y-1898D01*
X53408Y-1915D01*
X53392Y-1931D01*
X53088Y-1898D02*
X53155Y-1898D01*
X53189Y-1915D01*
X53206Y-1931D01*
X53240Y-1982D01*
X53257Y-2050D01*
X53257Y-2184D01*
X53240Y-2218D01*
X53223Y-2235D01*
X53189Y-2252D01*
X53122Y-2252D01*
X53088Y-2235D01*
X53071Y-2218D01*
X53054Y-2184D01*
X53054Y-2100D01*
X53071Y-2066D01*
X53088Y-2050D01*
X53122Y-2033D01*
X53189Y-2033D01*
X53223Y-2050D01*
X53240Y-2066D01*
X53257Y-2100D01*
X44656Y-2252D02*
X44656Y-1898D01*
X44521Y-1898D01*
X44487Y-1915D01*
X44471Y-1931D01*
X44454Y-1965D01*
X44454Y-2016D01*
X44471Y-2050D01*
X44487Y-2066D01*
X44521Y-2083D01*
X44656Y-2083D01*
X44319Y-1931D02*
X44302Y-1915D01*
X44268Y-1898D01*
X44184Y-1898D01*
X44150Y-1915D01*
X44133Y-1931D01*
X44116Y-1965D01*
X44116Y-1999D01*
X44133Y-2050D01*
X44336Y-2252D01*
X44116Y-2252D01*
X43812Y-2016D02*
X43812Y-2252D01*
X43897Y-1881D02*
X43981Y-2134D01*
X43762Y-2134D01*
X46212Y-2252D02*
X46381Y-2252D01*
X46381Y-1898D01*
X45892Y-2218D02*
X45908Y-2235D01*
X45959Y-2252D01*
X45993Y-2252D01*
X46043Y-2235D01*
X46077Y-2201D01*
X46094Y-2168D01*
X46111Y-2100D01*
X46111Y-2050D01*
X46094Y-1982D01*
X46077Y-1948D01*
X46043Y-1915D01*
X45993Y-1898D01*
X45959Y-1898D01*
X45908Y-1915D01*
X45892Y-1931D01*
X45757Y-1931D02*
X45740Y-1915D01*
X45706Y-1898D01*
X45622Y-1898D01*
X45588Y-1915D01*
X45571Y-1931D01*
X45554Y-1965D01*
X45554Y-1999D01*
X45571Y-2050D01*
X45773Y-2252D01*
X45554Y-2252D01*
X52106Y-1252D02*
X52106Y-898D01*
X51971Y-898D01*
X51937Y-915D01*
X51921Y-931D01*
X51904Y-965D01*
X51904Y-1016D01*
X51921Y-1050D01*
X51937Y-1066D01*
X51971Y-1083D01*
X52106Y-1083D01*
X51769Y-931D02*
X51752Y-915D01*
X51718Y-898D01*
X51634Y-898D01*
X51600Y-915D01*
X51583Y-931D01*
X51566Y-965D01*
X51566Y-999D01*
X51583Y-1050D01*
X51786Y-1252D01*
X51566Y-1252D01*
X51448Y-898D02*
X51212Y-898D01*
X51364Y-1252D01*
X53712Y-1252D02*
X53881Y-1252D01*
X53881Y-898D01*
X53392Y-1218D02*
X53408Y-1235D01*
X53459Y-1252D01*
X53493Y-1252D01*
X53543Y-1235D01*
X53577Y-1201D01*
X53594Y-1168D01*
X53611Y-1100D01*
X53611Y-1050D01*
X53594Y-982D01*
X53577Y-948D01*
X53543Y-915D01*
X53493Y-898D01*
X53459Y-898D01*
X53408Y-915D01*
X53392Y-931D01*
X53071Y-898D02*
X53240Y-898D01*
X53257Y-1066D01*
X53240Y-1050D01*
X53206Y-1033D01*
X53122Y-1033D01*
X53088Y-1050D01*
X53071Y-1066D01*
X53054Y-1100D01*
X53054Y-1184D01*
X53071Y-1218D01*
X53088Y-1235D01*
X53122Y-1252D01*
X53206Y-1252D01*
X53240Y-1235D01*
X53257Y-1218D01*
X52156Y-6252D02*
X52156Y-5898D01*
X52021Y-5898D01*
X51987Y-5915D01*
X51971Y-5931D01*
X51954Y-5965D01*
X51954Y-6016D01*
X51971Y-6050D01*
X51987Y-6066D01*
X52021Y-6083D01*
X52156Y-6083D01*
X51836Y-5898D02*
X51616Y-5898D01*
X51734Y-6033D01*
X51684Y-6033D01*
X51650Y-6050D01*
X51633Y-6066D01*
X51616Y-6100D01*
X51616Y-6184D01*
X51633Y-6218D01*
X51650Y-6235D01*
X51684Y-6252D01*
X51785Y-6252D01*
X51819Y-6235D01*
X51836Y-6218D01*
X51296Y-5898D02*
X51464Y-5898D01*
X51481Y-6066D01*
X51464Y-6050D01*
X51431Y-6033D01*
X51346Y-6033D01*
X51312Y-6050D01*
X51296Y-6066D01*
X51279Y-6100D01*
X51279Y-6184D01*
X51296Y-6218D01*
X51312Y-6235D01*
X51346Y-6252D01*
X51431Y-6252D01*
X51464Y-6235D01*
X51481Y-6218D01*
X54106Y-6252D02*
X54275Y-6252D01*
X54275Y-5898D01*
X53802Y-5915D02*
X53836Y-5898D01*
X53887Y-5898D01*
X53937Y-5915D01*
X53971Y-5948D01*
X53988Y-5982D01*
X54005Y-6050D01*
X54005Y-6100D01*
X53988Y-6168D01*
X53971Y-6201D01*
X53937Y-6235D01*
X53887Y-6252D01*
X53853Y-6252D01*
X53802Y-6235D01*
X53786Y-6218D01*
X53786Y-6100D01*
X53853Y-6100D01*
X53634Y-6252D02*
X53634Y-5898D01*
X53431Y-6252D01*
X53431Y-5898D01*
X53262Y-6252D02*
X53262Y-5898D01*
X53178Y-5898D01*
X53128Y-5915D01*
X53094Y-5948D01*
X53077Y-5982D01*
X53060Y-6050D01*
X53060Y-6100D01*
X53077Y-6168D01*
X53094Y-6201D01*
X53128Y-6235D01*
X53178Y-6252D01*
X53262Y-6252D01*
X59656Y-6252D02*
X59656Y-5898D01*
X59521Y-5898D01*
X59487Y-5915D01*
X59471Y-5931D01*
X59454Y-5965D01*
X59454Y-6016D01*
X59471Y-6050D01*
X59487Y-6066D01*
X59521Y-6083D01*
X59656Y-6083D01*
X59336Y-5898D02*
X59116Y-5898D01*
X59234Y-6033D01*
X59184Y-6033D01*
X59150Y-6050D01*
X59133Y-6066D01*
X59116Y-6100D01*
X59116Y-6184D01*
X59133Y-6218D01*
X59150Y-6235D01*
X59184Y-6252D01*
X59285Y-6252D01*
X59319Y-6235D01*
X59336Y-6218D01*
X58812Y-5898D02*
X58880Y-5898D01*
X58914Y-5915D01*
X58931Y-5931D01*
X58964Y-5982D01*
X58981Y-6050D01*
X58981Y-6184D01*
X58964Y-6218D01*
X58947Y-6235D01*
X58914Y-6252D01*
X58846Y-6252D01*
X58812Y-6235D01*
X58796Y-6218D01*
X58779Y-6184D01*
X58779Y-6100D01*
X58796Y-6066D01*
X58812Y-6050D01*
X58846Y-6033D01*
X58914Y-6033D01*
X58947Y-6050D01*
X58964Y-6066D01*
X58981Y-6100D01*
X61472Y-6252D02*
X61641Y-6252D01*
X61641Y-5898D01*
X61404Y-5898D02*
X61286Y-6252D01*
X61168Y-5898D01*
X60898Y-6235D02*
X60932Y-6252D01*
X60999Y-6252D01*
X61033Y-6235D01*
X61050Y-6218D01*
X61067Y-6184D01*
X61067Y-6083D01*
X61050Y-6050D01*
X61033Y-6033D01*
X60999Y-6016D01*
X60932Y-6016D01*
X60898Y-6033D01*
X60594Y-6235D02*
X60628Y-6252D01*
X60696Y-6252D01*
X60729Y-6235D01*
X60746Y-6218D01*
X60763Y-6184D01*
X60763Y-6083D01*
X60746Y-6050D01*
X60729Y-6033D01*
X60696Y-6016D01*
X60628Y-6016D01*
X60594Y-6033D01*
%LPC*%
G54D24*
X10688Y-17223D03*
X12263Y-20727D03*
X10689Y-20727D03*
X12263Y-17223D03*
G54D25*
X61081Y-26226D03*
X61081Y-27092D03*
X61711Y-26226D03*
X61711Y-27092D03*
G54D26*
X55094Y-25985D03*
X55094Y-25670D03*
X55094Y-25355D03*
X55094Y-25040D03*
X55094Y-24725D03*
X55094Y-24410D03*
X55094Y-26300D03*
X55094Y-26615D03*
X55094Y-26930D03*
X55094Y-27245D03*
X55094Y-27560D03*
X59594Y-25985D03*
X59594Y-25670D03*
X59594Y-25355D03*
X59594Y-25040D03*
X59594Y-24725D03*
X59594Y-24410D03*
X59594Y-26300D03*
X59594Y-26615D03*
X59594Y-26930D03*
X59594Y-27245D03*
X59594Y-27560D03*
G54D27*
X57344Y-23735D03*
X57344Y-28235D03*
X57659Y-23735D03*
X57659Y-28235D03*
X57974Y-28235D03*
X57974Y-23735D03*
X58289Y-23735D03*
X58289Y-28235D03*
X58604Y-28235D03*
X58604Y-23735D03*
X58919Y-23735D03*
X58919Y-28235D03*
X57029Y-28235D03*
X57029Y-23735D03*
X56714Y-23735D03*
X56714Y-28235D03*
X56399Y-28235D03*
X56399Y-23735D03*
X56084Y-23735D03*
X56084Y-28235D03*
X55769Y-28235D03*
X55769Y-23735D03*
G54D28*
X5977Y-6923D03*
X6727Y-6923D03*
X62621Y-25659D03*
X63371Y-25659D03*
X62621Y-27409D03*
X63371Y-27409D03*
X54121Y-27659D03*
X53371Y-27659D03*
X54521Y-23684D03*
X53771Y-23684D03*
X61771Y-28109D03*
X61021Y-28109D03*
X61771Y-25209D03*
X61021Y-25209D03*
G54D29*
X7376Y-5534D03*
X7376Y-4784D03*
X8226Y-5534D03*
X8226Y-4784D03*
G54D28*
X59971Y-23659D03*
X60721Y-23659D03*
X54126Y-28633D03*
X53376Y-28633D03*
X62621Y-24009D03*
X61871Y-24009D03*
G54D30*
X37111Y-28809D03*
X35111Y-28809D03*
X33111Y-28809D03*
X36111Y-28809D03*
X34111Y-28809D03*
X38111Y-28809D03*
G54D31*
X1376Y-13509D03*
X1376Y-10509D03*
X2701Y-16622D03*
X2701Y-19622D03*
G54D32*
X3551Y-28122D03*
X6051Y-27122D03*
G54D33*
X4551Y-26122D03*
G54D34*
X6551Y-26122D03*
X2551Y-26122D03*
G54D32*
X3551Y-13122D03*
X6051Y-12122D03*
G54D33*
X4551Y-11122D03*
G54D34*
X6551Y-11122D03*
X2551Y-11122D03*
G54D32*
X5401Y-20622D03*
X7901Y-19622D03*
G54D33*
X6401Y-18622D03*
G54D34*
X8401Y-18622D03*
X4401Y-18622D03*
G54D35*
X24701Y-16622D03*
G54D36*
X23701Y-16622D03*
G54D35*
X13501Y-24122D03*
G54D36*
X12501Y-24122D03*
G54D35*
X17201Y-16622D03*
G54D36*
X16201Y-16622D03*
G54D35*
X5051Y-9122D03*
G54D36*
X4051Y-9122D03*
G54D35*
X11601Y-1621D03*
G54D36*
X10601Y-1621D03*
G54D35*
X5051Y-24122D03*
G54D36*
X4051Y-24122D03*
G54D32*
X85101Y-20622D03*
X87601Y-19622D03*
G54D33*
X86101Y-18622D03*
G54D34*
X88101Y-18622D03*
X84101Y-18622D03*
G54D32*
X49501Y-13122D03*
X52001Y-12122D03*
G54D33*
X50501Y-11122D03*
G54D34*
X52501Y-11122D03*
X48501Y-11122D03*
G54D32*
X70101Y-5622D03*
X72601Y-4622D03*
G54D33*
X71101Y-3622D03*
G54D34*
X73101Y-3622D03*
X69101Y-3622D03*
G54D32*
X32601Y-5622D03*
X35101Y-4622D03*
G54D33*
X33601Y-3622D03*
G54D34*
X35601Y-3622D03*
X31601Y-3622D03*
G54D32*
X84151Y-28122D03*
X86651Y-27122D03*
G54D33*
X85151Y-26122D03*
G54D34*
X87151Y-26122D03*
X83151Y-26122D03*
G54D32*
X74801Y-28122D03*
X77301Y-27122D03*
G54D33*
X75801Y-26122D03*
G54D34*
X77801Y-26122D03*
X73801Y-26122D03*
G54D32*
X19501Y-28122D03*
X22001Y-27122D03*
G54D33*
X20501Y-26122D03*
G54D34*
X22501Y-26122D03*
X18501Y-26122D03*
G54D32*
X12001Y-28122D03*
X14501Y-27122D03*
G54D33*
X13001Y-26122D03*
G54D34*
X15001Y-26122D03*
X11001Y-26122D03*
G54D32*
X76651Y-20622D03*
X79151Y-19622D03*
G54D33*
X77651Y-18622D03*
G54D34*
X79651Y-18622D03*
X75651Y-18622D03*
G54D32*
X68201Y-20622D03*
X70701Y-19622D03*
G54D33*
X69201Y-18622D03*
G54D34*
X71201Y-18622D03*
X67201Y-18622D03*
G54D32*
X27001Y-13122D03*
X29501Y-12122D03*
G54D33*
X28001Y-11122D03*
G54D34*
X30001Y-11122D03*
X26001Y-11122D03*
G54D32*
X19501Y-13122D03*
X22001Y-12122D03*
G54D33*
X20501Y-11122D03*
G54D34*
X22501Y-11122D03*
X18501Y-11122D03*
G54D32*
X12001Y-13122D03*
X14501Y-12122D03*
G54D33*
X13001Y-11122D03*
G54D34*
X15001Y-11122D03*
X11001Y-11122D03*
G54D32*
X85101Y-5622D03*
X87601Y-4622D03*
G54D33*
X86101Y-3622D03*
G54D34*
X88101Y-3622D03*
X84101Y-3622D03*
G54D32*
X62601Y-5622D03*
X65101Y-4622D03*
G54D33*
X63601Y-3622D03*
G54D34*
X65601Y-3622D03*
X61601Y-3622D03*
G54D32*
X55101Y-5622D03*
X57601Y-4622D03*
G54D33*
X56101Y-3622D03*
G54D34*
X58101Y-3622D03*
X54101Y-3622D03*
G54D32*
X47601Y-5622D03*
X50101Y-4622D03*
G54D33*
X48601Y-3622D03*
G54D34*
X50601Y-3622D03*
X46601Y-3622D03*
G54D32*
X40101Y-5622D03*
X42601Y-4622D03*
G54D33*
X41101Y-3622D03*
G54D34*
X43101Y-3622D03*
X39101Y-3622D03*
G54D32*
X25101Y-5622D03*
X27601Y-4622D03*
G54D33*
X26101Y-3622D03*
G54D34*
X28101Y-3622D03*
X24101Y-3622D03*
G54D32*
X17601Y-5622D03*
X20101Y-4622D03*
G54D33*
X18601Y-3622D03*
G54D34*
X20601Y-3622D03*
X16601Y-3622D03*
G54D32*
X10101Y-5622D03*
X12601Y-4622D03*
G54D33*
X11101Y-3622D03*
G54D34*
X13101Y-3622D03*
X9101Y-3622D03*
G54D32*
X60701Y-20622D03*
X63201Y-19622D03*
G54D33*
X61701Y-18622D03*
G54D34*
X63701Y-18622D03*
X59701Y-18622D03*
G54D32*
X53201Y-20622D03*
X55701Y-19622D03*
G54D33*
X54201Y-18622D03*
G54D34*
X56201Y-18622D03*
X52201Y-18622D03*
G54D32*
X45701Y-20622D03*
X48201Y-19622D03*
G54D33*
X46701Y-18622D03*
G54D34*
X48701Y-18622D03*
X44701Y-18622D03*
G54D32*
X38201Y-20622D03*
X40701Y-19622D03*
G54D33*
X39201Y-18622D03*
G54D34*
X41201Y-18622D03*
X37201Y-18622D03*
G54D32*
X30701Y-20622D03*
X33201Y-19622D03*
G54D33*
X31701Y-18622D03*
G54D34*
X33701Y-18622D03*
X29701Y-18622D03*
G54D32*
X23201Y-20622D03*
X25701Y-19622D03*
G54D33*
X24201Y-18622D03*
G54D34*
X26201Y-18622D03*
X22201Y-18622D03*
G54D32*
X15701Y-20622D03*
X18201Y-19622D03*
G54D33*
X16701Y-18622D03*
G54D34*
X18701Y-18622D03*
X14701Y-18622D03*
G54D32*
X82301Y-13122D03*
X84801Y-12122D03*
G54D33*
X83301Y-11122D03*
G54D34*
X85301Y-11122D03*
X81301Y-11122D03*
G54D32*
X72001Y-13122D03*
X74501Y-12122D03*
G54D33*
X73001Y-11122D03*
G54D34*
X75001Y-11122D03*
X71001Y-11122D03*
G54D32*
X64501Y-13122D03*
X67001Y-12122D03*
G54D33*
X65501Y-11122D03*
G54D34*
X67501Y-11122D03*
X63501Y-11122D03*
G54D32*
X57001Y-13122D03*
X59501Y-12122D03*
G54D33*
X58001Y-11122D03*
G54D34*
X60001Y-11122D03*
X56001Y-11122D03*
G54D32*
X42001Y-13122D03*
X44501Y-12122D03*
G54D33*
X43001Y-11122D03*
G54D34*
X45001Y-11122D03*
X41001Y-11122D03*
G54D32*
X34501Y-13122D03*
X37001Y-12122D03*
G54D33*
X35501Y-11122D03*
G54D34*
X37501Y-11122D03*
X33501Y-11122D03*
G54D32*
X77601Y-5622D03*
X80101Y-4622D03*
G54D33*
X78601Y-3622D03*
G54D34*
X80601Y-3622D03*
X76601Y-3622D03*
G54D35*
X48271Y-24124D03*
G54D36*
X47271Y-24124D03*
G54D35*
X62201Y-16622D03*
G54D36*
X61201Y-16622D03*
G54D35*
X54701Y-16622D03*
G54D36*
X53701Y-16622D03*
G54D35*
X47201Y-16622D03*
G54D36*
X46201Y-16622D03*
G54D35*
X39701Y-16622D03*
G54D36*
X38701Y-16622D03*
G54D35*
X83801Y-9122D03*
G54D36*
X82801Y-9122D03*
G54D35*
X73501Y-9122D03*
G54D36*
X72501Y-9122D03*
G54D35*
X66001Y-9122D03*
G54D36*
X65001Y-9122D03*
G54D35*
X32201Y-16672D03*
G54D36*
X31201Y-16672D03*
G54D35*
X58501Y-9122D03*
G54D36*
X57501Y-9122D03*
G54D35*
X34101Y-1622D03*
G54D36*
X33101Y-1622D03*
G54D35*
X41601Y-1622D03*
G54D36*
X40601Y-1622D03*
G54D35*
X49101Y-1622D03*
G54D36*
X48101Y-1622D03*
G54D35*
X56601Y-1622D03*
G54D36*
X55601Y-1622D03*
G54D35*
X26601Y-1622D03*
G54D36*
X25601Y-1622D03*
G54D35*
X51001Y-9122D03*
G54D36*
X50001Y-9122D03*
G54D35*
X64101Y-1622D03*
G54D36*
X63101Y-1622D03*
G54D35*
X71601Y-1622D03*
G54D36*
X70601Y-1622D03*
G54D35*
X79101Y-1622D03*
G54D36*
X78101Y-1622D03*
G54D35*
X86601Y-1622D03*
G54D36*
X85601Y-1622D03*
G54D35*
X36001Y-9122D03*
G54D36*
X35001Y-9122D03*
G54D35*
X43501Y-9122D03*
G54D36*
X42501Y-9122D03*
G54D35*
X85651Y-24122D03*
G54D36*
X84651Y-24122D03*
G54D35*
X76301Y-24122D03*
G54D36*
X75301Y-24122D03*
G54D35*
X69701Y-16622D03*
G54D36*
X68701Y-16622D03*
G54D35*
X78151Y-16622D03*
G54D36*
X77151Y-16622D03*
G54D35*
X21001Y-24122D03*
G54D36*
X20001Y-24122D03*
G54D35*
X86601Y-16622D03*
G54D36*
X85601Y-16622D03*
G54D35*
X4101Y-1621D03*
G54D36*
X3101Y-1621D03*
G54D32*
X2601Y-5622D03*
X5101Y-4622D03*
G54D33*
X3601Y-3622D03*
G54D34*
X5601Y-3622D03*
X1601Y-3622D03*
G54D35*
X6901Y-16622D03*
G54D36*
X5901Y-16622D03*
G54D31*
X31301Y-12122D03*
X31301Y-9122D03*
X23851Y-12122D03*
X23851Y-9122D03*
X16301Y-13022D03*
X16301Y-10022D03*
X22001Y-4622D03*
X22001Y-1622D03*
G54D35*
X28501Y-9122D03*
G54D36*
X27501Y-9122D03*
G54D35*
X21001Y-9122D03*
G54D36*
X20001Y-9122D03*
G54D35*
X13501Y-9122D03*
G54D36*
X12501Y-9122D03*
G54D35*
X19101Y-1622D03*
G54D36*
X18101Y-1622D03*
G54D32*
X84201Y-20622D03*
X86701Y-19622D03*
G54D33*
X85201Y-18622D03*
G54D34*
X87201Y-18622D03*
X83201Y-18622D03*
G54D32*
X75701Y-20622D03*
X78201Y-19622D03*
G54D33*
X76701Y-18622D03*
G54D34*
X78701Y-18622D03*
X74701Y-18622D03*
G54D35*
X76201Y-16622D03*
G54D36*
X77201Y-16622D03*
G54D35*
X84701Y-16622D03*
G54D36*
X85701Y-16622D03*
G54D37*
X88976Y-7559D03*
X88976Y-8059D03*
X88976Y-8559D03*
X88976Y-9059D03*
X88976Y-13059D03*
X88976Y-13559D03*
X88976Y-10559D03*
X88976Y-11059D03*
X88976Y-11559D03*
X88976Y-12059D03*
X88976Y-12559D03*
G54D38*
X351Y-29472D03*
X89401Y-322D03*
X89376Y-29468D03*
X351Y-322D03*
G54D37*
X88976Y-14059D03*
X88976Y-10059D03*
X88976Y-14559D03*
X88976Y-15059D03*
G54D39*
X89071Y-22244D03*
X78701Y-11122D03*
X16801Y-7722D03*
X50472Y-18503D03*
X574Y-22244D03*
G54D40*
X9104Y-775D03*
X5226Y-775D03*
G54D41*
X5226Y-2449D03*
X9104Y-2449D03*
G54D42*
X7165Y-2549D03*
X6850Y-2549D03*
X6535Y-2549D03*
X7480Y-2549D03*
X7795Y-2549D03*
G54D43*
X6299Y-1523D03*
X8031Y-1523D03*
G54D44*
X72602Y-5703D03*
X72602Y-7042D03*
X66852Y-13203D03*
X66852Y-14542D03*
X70352Y-20703D03*
X70352Y-22042D03*
X36852Y-13203D03*
X36852Y-14542D03*
X62852Y-20703D03*
X62852Y-22042D03*
X59352Y-13203D03*
X59352Y-14542D03*
X65102Y-5703D03*
X65102Y-7042D03*
X57602Y-5703D03*
X57602Y-7042D03*
X51852Y-13203D03*
X51852Y-14542D03*
X55352Y-20703D03*
X55352Y-22042D03*
X40352Y-20703D03*
X40352Y-22042D03*
X5102Y-5703D03*
X5102Y-7042D03*
X50102Y-5703D03*
X50102Y-7042D03*
X35102Y-5703D03*
X35102Y-7042D03*
X32852Y-20703D03*
X32852Y-22042D03*
X29352Y-13203D03*
X29352Y-14542D03*
X27602Y-5703D03*
X27602Y-7042D03*
X49602Y-24792D03*
X49602Y-23453D03*
X47852Y-20703D03*
X47852Y-22042D03*
X44352Y-13203D03*
X44352Y-14542D03*
X42602Y-5703D03*
X42602Y-7042D03*
X22352Y-24792D03*
X22352Y-23453D03*
X14852Y-24792D03*
X14852Y-23453D03*
X25352Y-20703D03*
X25352Y-22042D03*
X21852Y-13203D03*
X21852Y-14542D03*
X17852Y-20703D03*
X17852Y-22042D03*
X14352Y-13203D03*
X14352Y-14542D03*
X6352Y-24792D03*
X6352Y-23453D03*
X5852Y-13203D03*
X5852Y-14542D03*
X20102Y-5703D03*
X20102Y-7042D03*
X12602Y-5703D03*
X12602Y-7042D03*
X7602Y-20703D03*
X7602Y-22042D03*
X87602Y-5703D03*
X87602Y-7042D03*
X87102Y-20703D03*
X87102Y-22042D03*
X87102Y-24792D03*
X87102Y-23453D03*
X77852Y-24792D03*
X77852Y-23453D03*
X83852Y-13203D03*
X83852Y-14542D03*
X80102Y-5703D03*
X80102Y-7042D03*
X74352Y-13203D03*
X74352Y-14542D03*
X78602Y-20703D03*
X78602Y-22042D03*
G54D45*
X37602Y-2123D03*
X37602Y-3123D03*
X37602Y-4123D03*
X45102Y-1123D03*
X45102Y-3123D03*
X45102Y-4123D03*
X37602Y-1123D03*
X52602Y-3123D03*
X52602Y-4123D03*
X60102Y-4123D03*
X60102Y-3123D03*
X60102Y-2123D03*
X60102Y-1123D03*
X52602Y-2123D03*
X45102Y-2123D03*
X52602Y-1123D03*
X52602Y-6123D03*
X60102Y-6123D03*
G54D32*
X46602Y-28123D03*
X49102Y-27123D03*
G54D33*
X47602Y-26123D03*
G54D34*
X49602Y-26123D03*
X45602Y-26123D03*
G54D46*
X67302Y-28873D03*
X27902Y-28873D03*
G54D33*
X67302Y-22873D03*
X27902Y-22873D03*
M02*
