G04 (created by PCBNEW (2013-02-13 BZR 3947)-testing) date 10/16/2013 3:34:35 PM*
%MOIN*%
G04 Gerber Fmt 3.4, Leading zero omitted, Abs format*
%FSLAX34Y34*%
G01*
G70*
G90*
G04 APERTURE LIST*
%ADD10C,0*%
%ADD11R,0.0473701X0.130047*%
%ADD12R,0.0887X0.1655*%
%ADD13R,0.0887X0.1458*%
%ADD14O,0.0277008X0.106425*%
%ADD15C,0.0434331*%
%ADD16R,0.0533X0.0631*%
%ADD17O,0.0828X0.024*%
%ADD18O,0.024X0.0828*%
%ADD19R,0.043X0.063*%
%ADD20R,0.063X0.043*%
%ADD21C,0.0788661*%
%ADD22C,0.0709921*%
%ADD23C,0.098*%
%ADD24C,0.165*%
%ADD25C,0.075*%
%ADD26O,0.083X0.093*%
%ADD27R,0.083X0.093*%
%ADD28C,0.128*%
%ADD29O,0.068X0.05*%
%ADD30O,0.401701X0.20485*%
%ADD31C,0.106425*%
%ADD32C,0.283591*%
%ADD33C,0.0473701*%
G04 APERTURE END LIST*
G54D10*
G54D11*
X10688Y-17223D03*
X12263Y-20727D03*
X10689Y-20727D03*
X12263Y-17223D03*
G54D12*
X9104Y-775D03*
X5226Y-775D03*
G54D13*
X5226Y-2449D03*
X9104Y-2449D03*
G54D14*
X7165Y-2449D03*
X6850Y-2449D03*
X6535Y-2449D03*
X7480Y-2449D03*
X7795Y-2449D03*
G54D15*
X6299Y-1523D03*
X8031Y-1523D03*
G54D16*
X61081Y-26226D03*
X61081Y-27092D03*
X61711Y-26226D03*
X61711Y-27092D03*
G54D17*
X55094Y-25985D03*
X55094Y-25670D03*
X55094Y-25355D03*
X55094Y-25040D03*
X55094Y-24725D03*
X55094Y-24410D03*
X55094Y-26300D03*
X55094Y-26615D03*
X55094Y-26930D03*
X55094Y-27245D03*
X55094Y-27560D03*
X59594Y-25985D03*
X59594Y-25670D03*
X59594Y-25355D03*
X59594Y-25040D03*
X59594Y-24725D03*
X59594Y-24410D03*
X59594Y-26300D03*
X59594Y-26615D03*
X59594Y-26930D03*
X59594Y-27245D03*
X59594Y-27560D03*
G54D18*
X57344Y-23735D03*
X57344Y-28235D03*
X57659Y-23735D03*
X57659Y-28235D03*
X57974Y-28235D03*
X57974Y-23735D03*
X58289Y-23735D03*
X58289Y-28235D03*
X58604Y-28235D03*
X58604Y-23735D03*
X58919Y-23735D03*
X58919Y-28235D03*
X57029Y-28235D03*
X57029Y-23735D03*
X56714Y-23735D03*
X56714Y-28235D03*
X56399Y-28235D03*
X56399Y-23735D03*
X56084Y-23735D03*
X56084Y-28235D03*
X55769Y-28235D03*
X55769Y-23735D03*
G54D19*
X5226Y-6922D03*
X5976Y-6922D03*
X62621Y-25659D03*
X63371Y-25659D03*
X62621Y-27409D03*
X63371Y-27409D03*
X54121Y-27659D03*
X53371Y-27659D03*
X54521Y-23684D03*
X53771Y-23684D03*
X61771Y-28109D03*
X61021Y-28109D03*
X61771Y-25209D03*
X61021Y-25209D03*
G54D20*
X7376Y-5534D03*
X7376Y-4784D03*
X8226Y-5534D03*
X8226Y-4784D03*
G54D19*
X59971Y-23659D03*
X60721Y-23659D03*
X54126Y-28633D03*
X53376Y-28633D03*
X62621Y-24009D03*
X61871Y-24009D03*
G54D20*
X72601Y-6747D03*
X72601Y-5997D03*
G54D19*
X69226Y-12122D03*
X68476Y-12122D03*
X72726Y-19622D03*
X71976Y-19622D03*
X39226Y-12122D03*
X38476Y-12122D03*
X65226Y-19622D03*
X64476Y-19622D03*
X61726Y-12122D03*
X60976Y-12122D03*
G54D20*
X65101Y-6747D03*
X65101Y-5997D03*
X57601Y-6747D03*
X57601Y-5997D03*
G54D19*
X54226Y-12122D03*
X53476Y-12122D03*
X57726Y-19622D03*
X56976Y-19622D03*
X42726Y-19622D03*
X41976Y-19622D03*
X3226Y-6922D03*
X3976Y-6922D03*
G54D20*
X50101Y-6747D03*
X50101Y-5997D03*
X35101Y-6747D03*
X35101Y-5997D03*
G54D19*
X35226Y-19622D03*
X34476Y-19622D03*
X28726Y-13872D03*
X29476Y-13872D03*
G54D20*
X27601Y-6747D03*
X27601Y-5997D03*
G54D19*
X51226Y-27122D03*
X50476Y-27122D03*
X48951Y-21109D03*
X48201Y-21109D03*
X46726Y-12122D03*
X45976Y-12122D03*
G54D20*
X42601Y-6747D03*
X42601Y-5997D03*
G54D19*
X24226Y-27122D03*
X23476Y-27122D03*
X16726Y-27122D03*
X15976Y-27122D03*
X27726Y-19622D03*
X26976Y-19622D03*
X21226Y-13872D03*
X21976Y-13872D03*
X20226Y-19622D03*
X19476Y-19622D03*
X13726Y-13872D03*
X14476Y-13872D03*
X8226Y-27122D03*
X7476Y-27122D03*
X6801Y-13609D03*
X6051Y-13609D03*
G54D20*
X20101Y-6747D03*
X20101Y-5997D03*
X12601Y-6747D03*
X12601Y-5997D03*
X7851Y-21747D03*
X7851Y-20997D03*
X87601Y-6997D03*
X87601Y-6247D03*
G54D19*
X86376Y-21822D03*
X85626Y-21822D03*
X88726Y-27122D03*
X87976Y-27122D03*
X79476Y-27122D03*
X78726Y-27122D03*
X84226Y-13622D03*
X84976Y-13622D03*
G54D20*
X80101Y-6747D03*
X80101Y-5997D03*
G54D19*
X76726Y-12122D03*
X75976Y-12122D03*
X81226Y-19622D03*
X80476Y-19622D03*
G54D21*
X37111Y-28809D03*
X35111Y-28809D03*
X33111Y-28809D03*
X36111Y-28809D03*
X34111Y-28809D03*
X38111Y-28809D03*
G54D22*
X1376Y-13509D03*
X1376Y-10509D03*
X2701Y-16622D03*
X2701Y-19622D03*
G54D23*
X3551Y-28122D03*
X6051Y-27122D03*
G54D24*
X4551Y-26122D03*
G54D25*
X6551Y-26122D03*
X2551Y-26122D03*
G54D23*
X3551Y-13122D03*
X6051Y-12122D03*
G54D24*
X4551Y-11122D03*
G54D25*
X6551Y-11122D03*
X2551Y-11122D03*
G54D23*
X5401Y-20622D03*
X7901Y-19622D03*
G54D24*
X6401Y-18622D03*
G54D25*
X8401Y-18622D03*
X4401Y-18622D03*
G54D26*
X24701Y-16622D03*
G54D27*
X23701Y-16622D03*
G54D26*
X13501Y-24122D03*
G54D27*
X12501Y-24122D03*
G54D26*
X17201Y-16622D03*
G54D27*
X16201Y-16622D03*
G54D26*
X5051Y-9122D03*
G54D27*
X4051Y-9122D03*
G54D26*
X11601Y-1621D03*
G54D27*
X10601Y-1621D03*
G54D26*
X5051Y-24122D03*
G54D27*
X4051Y-24122D03*
G54D23*
X85101Y-20622D03*
X87601Y-19622D03*
G54D24*
X86101Y-18622D03*
G54D25*
X88101Y-18622D03*
X84101Y-18622D03*
G54D23*
X49501Y-13122D03*
X52001Y-12122D03*
G54D24*
X50501Y-11122D03*
G54D25*
X52501Y-11122D03*
X48501Y-11122D03*
G54D23*
X70101Y-5622D03*
X72601Y-4622D03*
G54D24*
X71101Y-3622D03*
G54D25*
X73101Y-3622D03*
X69101Y-3622D03*
G54D23*
X32601Y-5622D03*
X35101Y-4622D03*
G54D24*
X33601Y-3622D03*
G54D25*
X35601Y-3622D03*
X31601Y-3622D03*
G54D23*
X84151Y-28122D03*
X86651Y-27122D03*
G54D24*
X85151Y-26122D03*
G54D25*
X87151Y-26122D03*
X83151Y-26122D03*
G54D23*
X74801Y-28122D03*
X77301Y-27122D03*
G54D24*
X75801Y-26122D03*
G54D25*
X77801Y-26122D03*
X73801Y-26122D03*
G54D23*
X19501Y-28122D03*
X22001Y-27122D03*
G54D24*
X20501Y-26122D03*
G54D25*
X22501Y-26122D03*
X18501Y-26122D03*
G54D23*
X12001Y-28122D03*
X14501Y-27122D03*
G54D24*
X13001Y-26122D03*
G54D25*
X15001Y-26122D03*
X11001Y-26122D03*
G54D23*
X76651Y-20622D03*
X79151Y-19622D03*
G54D24*
X77651Y-18622D03*
G54D25*
X79651Y-18622D03*
X75651Y-18622D03*
G54D23*
X68201Y-20622D03*
X70701Y-19622D03*
G54D24*
X69201Y-18622D03*
G54D25*
X71201Y-18622D03*
X67201Y-18622D03*
G54D23*
X27001Y-13122D03*
X29501Y-12122D03*
G54D24*
X28001Y-11122D03*
G54D25*
X30001Y-11122D03*
X26001Y-11122D03*
G54D23*
X19501Y-13122D03*
X22001Y-12122D03*
G54D24*
X20501Y-11122D03*
G54D25*
X22501Y-11122D03*
X18501Y-11122D03*
G54D23*
X12001Y-13122D03*
X14501Y-12122D03*
G54D24*
X13001Y-11122D03*
G54D25*
X15001Y-11122D03*
X11001Y-11122D03*
G54D23*
X85101Y-5622D03*
X87601Y-4622D03*
G54D24*
X86101Y-3622D03*
G54D25*
X88101Y-3622D03*
X84101Y-3622D03*
G54D23*
X62601Y-5622D03*
X65101Y-4622D03*
G54D24*
X63601Y-3622D03*
G54D25*
X65601Y-3622D03*
X61601Y-3622D03*
G54D23*
X55101Y-5622D03*
X57601Y-4622D03*
G54D24*
X56101Y-3622D03*
G54D25*
X58101Y-3622D03*
X54101Y-3622D03*
G54D23*
X47601Y-5622D03*
X50101Y-4622D03*
G54D24*
X48601Y-3622D03*
G54D25*
X50601Y-3622D03*
X46601Y-3622D03*
G54D23*
X40101Y-5622D03*
X42601Y-4622D03*
G54D24*
X41101Y-3622D03*
G54D25*
X43101Y-3622D03*
X39101Y-3622D03*
G54D23*
X25101Y-5622D03*
X27601Y-4622D03*
G54D24*
X26101Y-3622D03*
G54D25*
X28101Y-3622D03*
X24101Y-3622D03*
G54D23*
X17601Y-5622D03*
X20101Y-4622D03*
G54D24*
X18601Y-3622D03*
G54D25*
X20601Y-3622D03*
X16601Y-3622D03*
G54D23*
X10101Y-5622D03*
X12601Y-4622D03*
G54D24*
X11101Y-3622D03*
G54D25*
X13101Y-3622D03*
X9101Y-3622D03*
G54D23*
X60701Y-20622D03*
X63201Y-19622D03*
G54D24*
X61701Y-18622D03*
G54D25*
X63701Y-18622D03*
X59701Y-18622D03*
G54D23*
X53201Y-20622D03*
X55701Y-19622D03*
G54D24*
X54201Y-18622D03*
G54D25*
X56201Y-18622D03*
X52201Y-18622D03*
G54D23*
X45701Y-20622D03*
X48201Y-19622D03*
G54D24*
X46701Y-18622D03*
G54D25*
X48701Y-18622D03*
X44701Y-18622D03*
G54D23*
X38201Y-20622D03*
X40701Y-19622D03*
G54D24*
X39201Y-18622D03*
G54D25*
X41201Y-18622D03*
X37201Y-18622D03*
G54D23*
X30701Y-20622D03*
X33201Y-19622D03*
G54D24*
X31701Y-18622D03*
G54D25*
X33701Y-18622D03*
X29701Y-18622D03*
G54D23*
X23201Y-20622D03*
X25701Y-19622D03*
G54D24*
X24201Y-18622D03*
G54D25*
X26201Y-18622D03*
X22201Y-18622D03*
G54D23*
X15701Y-20622D03*
X18201Y-19622D03*
G54D24*
X16701Y-18622D03*
G54D25*
X18701Y-18622D03*
X14701Y-18622D03*
G54D23*
X82301Y-13122D03*
X84801Y-12122D03*
G54D24*
X83301Y-11122D03*
G54D25*
X85301Y-11122D03*
X81301Y-11122D03*
G54D23*
X72001Y-13122D03*
X74501Y-12122D03*
G54D24*
X73001Y-11122D03*
G54D25*
X75001Y-11122D03*
X71001Y-11122D03*
G54D23*
X64501Y-13122D03*
X67001Y-12122D03*
G54D24*
X65501Y-11122D03*
G54D25*
X67501Y-11122D03*
X63501Y-11122D03*
G54D23*
X57001Y-13122D03*
X59501Y-12122D03*
G54D24*
X58001Y-11122D03*
G54D25*
X60001Y-11122D03*
X56001Y-11122D03*
G54D23*
X42001Y-13122D03*
X44501Y-12122D03*
G54D24*
X43001Y-11122D03*
G54D25*
X45001Y-11122D03*
X41001Y-11122D03*
G54D23*
X34501Y-13122D03*
X37001Y-12122D03*
G54D24*
X35501Y-11122D03*
G54D25*
X37501Y-11122D03*
X33501Y-11122D03*
G54D23*
X77601Y-5622D03*
X80101Y-4622D03*
G54D24*
X78601Y-3622D03*
G54D25*
X80601Y-3622D03*
X76601Y-3622D03*
G54D26*
X48271Y-24124D03*
G54D27*
X47271Y-24124D03*
G54D26*
X62201Y-16622D03*
G54D27*
X61201Y-16622D03*
G54D26*
X54701Y-16622D03*
G54D27*
X53701Y-16622D03*
G54D26*
X47201Y-16622D03*
G54D27*
X46201Y-16622D03*
G54D26*
X39701Y-16622D03*
G54D27*
X38701Y-16622D03*
G54D26*
X83801Y-9122D03*
G54D27*
X82801Y-9122D03*
G54D26*
X73501Y-9122D03*
G54D27*
X72501Y-9122D03*
G54D26*
X66001Y-9122D03*
G54D27*
X65001Y-9122D03*
G54D26*
X32201Y-16672D03*
G54D27*
X31201Y-16672D03*
G54D26*
X58501Y-9122D03*
G54D27*
X57501Y-9122D03*
G54D26*
X34101Y-1622D03*
G54D27*
X33101Y-1622D03*
G54D26*
X41601Y-1622D03*
G54D27*
X40601Y-1622D03*
G54D26*
X49101Y-1622D03*
G54D27*
X48101Y-1622D03*
G54D26*
X56601Y-1622D03*
G54D27*
X55601Y-1622D03*
G54D26*
X26601Y-1622D03*
G54D27*
X25601Y-1622D03*
G54D26*
X51001Y-9122D03*
G54D27*
X50001Y-9122D03*
G54D26*
X64101Y-1622D03*
G54D27*
X63101Y-1622D03*
G54D26*
X71601Y-1622D03*
G54D27*
X70601Y-1622D03*
G54D26*
X79101Y-1622D03*
G54D27*
X78101Y-1622D03*
G54D26*
X86601Y-1622D03*
G54D27*
X85601Y-1622D03*
G54D26*
X36001Y-9122D03*
G54D27*
X35001Y-9122D03*
G54D26*
X43501Y-9122D03*
G54D27*
X42501Y-9122D03*
G54D26*
X85651Y-24122D03*
G54D27*
X84651Y-24122D03*
G54D26*
X76301Y-24122D03*
G54D27*
X75301Y-24122D03*
G54D26*
X69701Y-16622D03*
G54D27*
X68701Y-16622D03*
G54D26*
X78151Y-16622D03*
G54D27*
X77151Y-16622D03*
G54D26*
X21001Y-24122D03*
G54D27*
X20001Y-24122D03*
G54D26*
X86601Y-16622D03*
G54D27*
X85601Y-16622D03*
G54D26*
X4101Y-1621D03*
G54D27*
X3101Y-1621D03*
G54D23*
X2601Y-5622D03*
X5101Y-4622D03*
G54D24*
X3601Y-3622D03*
G54D25*
X5601Y-3622D03*
X1601Y-3622D03*
G54D26*
X6901Y-16622D03*
G54D27*
X5901Y-16622D03*
G54D22*
X31301Y-12122D03*
X31301Y-9122D03*
X23851Y-12122D03*
X23851Y-9122D03*
X16301Y-13022D03*
X16301Y-10022D03*
X22001Y-4622D03*
X22001Y-1622D03*
G54D26*
X28501Y-9122D03*
G54D27*
X27501Y-9122D03*
G54D26*
X21001Y-9122D03*
G54D27*
X20001Y-9122D03*
G54D26*
X13501Y-9122D03*
G54D27*
X12501Y-9122D03*
G54D26*
X19101Y-1622D03*
G54D27*
X18101Y-1622D03*
G54D23*
X46601Y-28122D03*
X49101Y-27122D03*
G54D24*
X47601Y-26122D03*
G54D25*
X49601Y-26122D03*
X45601Y-26122D03*
G54D28*
X67301Y-28822D03*
X27901Y-28822D03*
G54D24*
X67301Y-22822D03*
X27901Y-22822D03*
G54D23*
X84201Y-20622D03*
X86701Y-19622D03*
G54D24*
X85201Y-18622D03*
G54D25*
X87201Y-18622D03*
X83201Y-18622D03*
G54D23*
X75701Y-20622D03*
X78201Y-19622D03*
G54D24*
X76701Y-18622D03*
G54D25*
X78701Y-18622D03*
X74701Y-18622D03*
G54D26*
X76201Y-16622D03*
G54D27*
X77201Y-16622D03*
G54D26*
X84701Y-16622D03*
G54D27*
X85701Y-16622D03*
G54D29*
X88976Y-8059D03*
X88976Y-8559D03*
X88976Y-9059D03*
X88976Y-9559D03*
X88976Y-10059D03*
X88976Y-14059D03*
X88976Y-14559D03*
G54D30*
X89071Y-22244D03*
G54D31*
X88171Y-22244D03*
X88771Y-22244D03*
X89371Y-22244D03*
X89971Y-22244D03*
G54D32*
X78701Y-11122D03*
G54D31*
X79201Y-11122D03*
X78201Y-11122D03*
X78701Y-11122D03*
G54D32*
X16801Y-7722D03*
G54D31*
X17301Y-7722D03*
X16301Y-7722D03*
X16801Y-7722D03*
G54D32*
X50472Y-18503D03*
G54D31*
X50972Y-18503D03*
X49972Y-18503D03*
X50472Y-18503D03*
G54D30*
X574Y-22244D03*
G54D31*
X-325Y-22244D03*
X274Y-22244D03*
X874Y-22244D03*
X1474Y-22244D03*
G54D29*
X88976Y-11559D03*
X88976Y-12059D03*
X88976Y-12559D03*
X88976Y-13059D03*
X88976Y-13559D03*
G54D33*
X351Y-29472D03*
X89401Y-322D03*
X89376Y-29468D03*
X351Y-322D03*
X24976Y-23059D03*
X29876Y-359D03*
G54D29*
X88976Y-15059D03*
X88976Y-11059D03*
X37476Y-2059D03*
X37476Y-2559D03*
X37476Y-3059D03*
X44876Y-1559D03*
X44876Y-2559D03*
X44876Y-3059D03*
X37476Y-1559D03*
X52476Y-2559D03*
X52476Y-3059D03*
X59876Y-1559D03*
X59876Y-2059D03*
X59876Y-2559D03*
X59876Y-3059D03*
X52476Y-2059D03*
X44876Y-2059D03*
X52476Y-1559D03*
M02*
