G04 (created by PCBNEW (2013-02-13 BZR 3947)-testing) date 9/20/2013 10:49:50 AM*
%MOIN*%
G04 Gerber Fmt 3.4, Leading zero omitted, Abs format*
%FSLAX34Y34*%
G01*
G70*
G90*
G04 APERTURE LIST*
%ADD10C,0*%
%ADD11C,0.00393701*%
%ADD12C,0.00787402*%
%ADD13C,0.00984252*%
%ADD14C,0.0177165*%
%ADD15C,0.015*%
%ADD16C,0.012*%
%ADD17C,0.00590551*%
%ADD18C,0.008*%
%ADD19O,0.4017X0.2049*%
%ADD20C,0.2836*%
%ADD21C,0.0434331*%
%ADD22C,0.0788661*%
%ADD23C,0.0709921*%
%ADD24C,0.098*%
%ADD25C,0.165*%
%ADD26C,0.075*%
%ADD27O,0.083X0.093*%
%ADD28R,0.083X0.093*%
%ADD29C,0.0473701*%
%ADD30C,0.128*%
G04 APERTURE END LIST*
G54D10*
G54D11*
X53786Y-28362D02*
X53842Y-28381D01*
X53936Y-28381D01*
X53973Y-28362D01*
X53992Y-28343D01*
X54011Y-28306D01*
X54011Y-28268D01*
X53992Y-28231D01*
X53973Y-28212D01*
X53936Y-28193D01*
X53861Y-28175D01*
X53823Y-28156D01*
X53805Y-28137D01*
X53786Y-28100D01*
X53786Y-28062D01*
X53805Y-28025D01*
X53823Y-28006D01*
X53861Y-27987D01*
X53955Y-27987D01*
X54011Y-28006D01*
X54180Y-28118D02*
X54180Y-28512D01*
X54180Y-28137D02*
X54217Y-28118D01*
X54292Y-28118D01*
X54329Y-28137D01*
X54348Y-28156D01*
X54367Y-28193D01*
X54367Y-28306D01*
X54348Y-28343D01*
X54329Y-28362D01*
X54292Y-28381D01*
X54217Y-28381D01*
X54180Y-28362D01*
X54686Y-28362D02*
X54648Y-28381D01*
X54573Y-28381D01*
X54536Y-28362D01*
X54517Y-28325D01*
X54517Y-28175D01*
X54536Y-28137D01*
X54573Y-28118D01*
X54648Y-28118D01*
X54686Y-28137D01*
X54704Y-28175D01*
X54704Y-28212D01*
X54517Y-28250D01*
X55042Y-28362D02*
X55004Y-28381D01*
X54929Y-28381D01*
X54892Y-28362D01*
X54873Y-28343D01*
X54854Y-28306D01*
X54854Y-28193D01*
X54873Y-28156D01*
X54892Y-28137D01*
X54929Y-28118D01*
X55004Y-28118D01*
X55042Y-28137D01*
X55211Y-28381D02*
X55211Y-28118D01*
X55211Y-27987D02*
X55192Y-28006D01*
X55211Y-28025D01*
X55229Y-28006D01*
X55211Y-27987D01*
X55211Y-28025D01*
X55567Y-28381D02*
X55567Y-28175D01*
X55548Y-28137D01*
X55511Y-28118D01*
X55436Y-28118D01*
X55398Y-28137D01*
X55567Y-28362D02*
X55529Y-28381D01*
X55436Y-28381D01*
X55398Y-28362D01*
X55379Y-28325D01*
X55379Y-28287D01*
X55398Y-28250D01*
X55436Y-28231D01*
X55529Y-28231D01*
X55567Y-28212D01*
X55811Y-28381D02*
X55773Y-28362D01*
X55754Y-28325D01*
X55754Y-27987D01*
X56204Y-28118D02*
X56354Y-28118D01*
X56260Y-27987D02*
X56260Y-28325D01*
X56279Y-28362D01*
X56317Y-28381D01*
X56354Y-28381D01*
X56485Y-28381D02*
X56485Y-27987D01*
X56654Y-28381D02*
X56654Y-28175D01*
X56635Y-28137D01*
X56598Y-28118D01*
X56542Y-28118D01*
X56504Y-28137D01*
X56485Y-28156D01*
X57010Y-28381D02*
X57010Y-28175D01*
X56992Y-28137D01*
X56954Y-28118D01*
X56879Y-28118D01*
X56842Y-28137D01*
X57010Y-28362D02*
X56973Y-28381D01*
X56879Y-28381D01*
X56842Y-28362D01*
X56823Y-28325D01*
X56823Y-28287D01*
X56842Y-28250D01*
X56879Y-28231D01*
X56973Y-28231D01*
X57010Y-28212D01*
X57198Y-28118D02*
X57198Y-28381D01*
X57198Y-28156D02*
X57217Y-28137D01*
X57254Y-28118D01*
X57310Y-28118D01*
X57348Y-28137D01*
X57367Y-28175D01*
X57367Y-28381D01*
X57554Y-28381D02*
X57554Y-27987D01*
X57592Y-28231D02*
X57704Y-28381D01*
X57704Y-28118D02*
X57554Y-28268D01*
X57854Y-28362D02*
X57892Y-28381D01*
X57967Y-28381D01*
X58004Y-28362D01*
X58023Y-28325D01*
X58023Y-28306D01*
X58004Y-28268D01*
X57967Y-28250D01*
X57910Y-28250D01*
X57873Y-28231D01*
X57854Y-28193D01*
X57854Y-28175D01*
X57873Y-28137D01*
X57910Y-28118D01*
X57967Y-28118D01*
X58004Y-28137D01*
X58435Y-28118D02*
X58585Y-28118D01*
X58491Y-27987D02*
X58491Y-28325D01*
X58510Y-28362D01*
X58548Y-28381D01*
X58585Y-28381D01*
X58773Y-28381D02*
X58735Y-28362D01*
X58716Y-28343D01*
X58698Y-28306D01*
X58698Y-28193D01*
X58716Y-28156D01*
X58735Y-28137D01*
X58773Y-28118D01*
X58829Y-28118D01*
X58866Y-28137D01*
X58885Y-28156D01*
X58904Y-28193D01*
X58904Y-28306D01*
X58885Y-28343D01*
X58866Y-28362D01*
X58829Y-28381D01*
X58773Y-28381D01*
X59373Y-28381D02*
X59373Y-27987D01*
X59410Y-28231D02*
X59523Y-28381D01*
X59523Y-28118D02*
X59373Y-28268D01*
X59748Y-28381D02*
X59710Y-28362D01*
X59691Y-28343D01*
X59673Y-28306D01*
X59673Y-28193D01*
X59691Y-28156D01*
X59710Y-28137D01*
X59748Y-28118D01*
X59804Y-28118D01*
X59841Y-28137D01*
X59860Y-28156D01*
X59879Y-28193D01*
X59879Y-28306D01*
X59860Y-28343D01*
X59841Y-28362D01*
X59804Y-28381D01*
X59748Y-28381D01*
X60048Y-28381D02*
X60048Y-28118D01*
X60048Y-28156D02*
X60066Y-28137D01*
X60104Y-28118D01*
X60160Y-28118D01*
X60198Y-28137D01*
X60216Y-28175D01*
X60216Y-28381D01*
X60216Y-28175D02*
X60235Y-28137D01*
X60272Y-28118D01*
X60329Y-28118D01*
X60366Y-28137D01*
X60385Y-28175D01*
X60385Y-28381D01*
X60741Y-28381D02*
X60741Y-28175D01*
X60722Y-28137D01*
X60685Y-28118D01*
X60610Y-28118D01*
X60572Y-28137D01*
X60741Y-28362D02*
X60704Y-28381D01*
X60610Y-28381D01*
X60572Y-28362D01*
X60554Y-28325D01*
X60554Y-28287D01*
X60572Y-28250D01*
X60610Y-28231D01*
X60704Y-28231D01*
X60741Y-28212D01*
X60929Y-28381D02*
X60929Y-28118D01*
X60929Y-28193D02*
X60947Y-28156D01*
X60966Y-28137D01*
X61004Y-28118D01*
X61041Y-28118D01*
X61247Y-27987D02*
X61285Y-27987D01*
X61322Y-28006D01*
X61341Y-28025D01*
X61360Y-28062D01*
X61379Y-28137D01*
X61379Y-28231D01*
X61360Y-28306D01*
X61341Y-28343D01*
X61322Y-28362D01*
X61285Y-28381D01*
X61247Y-28381D01*
X61210Y-28362D01*
X61191Y-28343D01*
X61172Y-28306D01*
X61154Y-28231D01*
X61154Y-28137D01*
X61172Y-28062D01*
X61191Y-28025D01*
X61210Y-28006D01*
X61247Y-27987D01*
X61622Y-27987D02*
X61660Y-27987D01*
X61697Y-28006D01*
X61716Y-28025D01*
X61735Y-28062D01*
X61754Y-28137D01*
X61754Y-28231D01*
X61735Y-28306D01*
X61716Y-28343D01*
X61697Y-28362D01*
X61660Y-28381D01*
X61622Y-28381D01*
X61585Y-28362D01*
X61566Y-28343D01*
X61547Y-28306D01*
X61529Y-28231D01*
X61529Y-28137D01*
X61547Y-28062D01*
X61566Y-28025D01*
X61585Y-28006D01*
X61622Y-27987D01*
X61885Y-27987D02*
X62147Y-27987D01*
X61979Y-28381D01*
X62316Y-28362D02*
X62316Y-28381D01*
X62297Y-28418D01*
X62278Y-28437D01*
X54320Y-28971D02*
X54320Y-28578D01*
X54320Y-28728D02*
X54358Y-28709D01*
X54433Y-28709D01*
X54470Y-28728D01*
X54489Y-28746D01*
X54508Y-28784D01*
X54508Y-28896D01*
X54489Y-28934D01*
X54470Y-28953D01*
X54433Y-28971D01*
X54358Y-28971D01*
X54320Y-28953D01*
X54676Y-28709D02*
X54676Y-29103D01*
X54676Y-28728D02*
X54714Y-28709D01*
X54789Y-28709D01*
X54826Y-28728D01*
X54845Y-28746D01*
X54864Y-28784D01*
X54864Y-28896D01*
X54845Y-28934D01*
X54826Y-28953D01*
X54789Y-28971D01*
X54714Y-28971D01*
X54676Y-28953D01*
X55033Y-28971D02*
X55033Y-28709D01*
X55033Y-28578D02*
X55014Y-28597D01*
X55033Y-28615D01*
X55051Y-28597D01*
X55033Y-28578D01*
X55033Y-28615D01*
X55220Y-28709D02*
X55220Y-29103D01*
X55220Y-28728D02*
X55257Y-28709D01*
X55332Y-28709D01*
X55370Y-28728D01*
X55389Y-28746D01*
X55407Y-28784D01*
X55407Y-28896D01*
X55389Y-28934D01*
X55370Y-28953D01*
X55332Y-28971D01*
X55257Y-28971D01*
X55220Y-28953D01*
X55576Y-28971D02*
X55576Y-28578D01*
X55745Y-28971D02*
X55745Y-28765D01*
X55726Y-28728D01*
X55689Y-28709D01*
X55632Y-28709D01*
X55595Y-28728D01*
X55576Y-28746D01*
X56101Y-28971D02*
X56101Y-28765D01*
X56082Y-28728D01*
X56045Y-28709D01*
X55970Y-28709D01*
X55932Y-28728D01*
X56101Y-28953D02*
X56064Y-28971D01*
X55970Y-28971D01*
X55932Y-28953D01*
X55914Y-28915D01*
X55914Y-28878D01*
X55932Y-28840D01*
X55970Y-28821D01*
X56064Y-28821D01*
X56101Y-28803D01*
X56289Y-28709D02*
X56289Y-28971D01*
X56289Y-28746D02*
X56307Y-28728D01*
X56345Y-28709D01*
X56401Y-28709D01*
X56439Y-28728D01*
X56457Y-28765D01*
X56457Y-28971D01*
X56607Y-28709D02*
X56701Y-28971D01*
X56795Y-28709D02*
X56701Y-28971D01*
X56664Y-29065D01*
X56645Y-29084D01*
X56607Y-29103D01*
X56964Y-28953D02*
X56964Y-28971D01*
X56945Y-29009D01*
X56926Y-29028D01*
X57432Y-28971D02*
X57432Y-28578D01*
X57526Y-28578D01*
X57582Y-28597D01*
X57620Y-28634D01*
X57638Y-28671D01*
X57657Y-28746D01*
X57657Y-28803D01*
X57638Y-28878D01*
X57620Y-28915D01*
X57582Y-28953D01*
X57526Y-28971D01*
X57432Y-28971D01*
X57882Y-28971D02*
X57845Y-28953D01*
X57826Y-28934D01*
X57807Y-28896D01*
X57807Y-28784D01*
X57826Y-28746D01*
X57845Y-28728D01*
X57882Y-28709D01*
X57938Y-28709D01*
X57976Y-28728D01*
X57995Y-28746D01*
X58013Y-28784D01*
X58013Y-28896D01*
X57995Y-28934D01*
X57976Y-28953D01*
X57938Y-28971D01*
X57882Y-28971D01*
X58145Y-28971D02*
X58351Y-28709D01*
X58145Y-28709D02*
X58351Y-28971D01*
X58970Y-28971D02*
X58970Y-28765D01*
X58951Y-28728D01*
X58913Y-28709D01*
X58838Y-28709D01*
X58801Y-28728D01*
X58970Y-28953D02*
X58932Y-28971D01*
X58838Y-28971D01*
X58801Y-28953D01*
X58782Y-28915D01*
X58782Y-28878D01*
X58801Y-28840D01*
X58838Y-28821D01*
X58932Y-28821D01*
X58970Y-28803D01*
X59157Y-28709D02*
X59157Y-28971D01*
X59157Y-28746D02*
X59176Y-28728D01*
X59213Y-28709D01*
X59269Y-28709D01*
X59307Y-28728D01*
X59326Y-28765D01*
X59326Y-28971D01*
X59682Y-28971D02*
X59682Y-28578D01*
X59682Y-28953D02*
X59644Y-28971D01*
X59569Y-28971D01*
X59532Y-28953D01*
X59513Y-28934D01*
X59494Y-28896D01*
X59494Y-28784D01*
X59513Y-28746D01*
X59532Y-28728D01*
X59569Y-28709D01*
X59644Y-28709D01*
X59682Y-28728D01*
X60394Y-28971D02*
X60263Y-28784D01*
X60169Y-28971D02*
X60169Y-28578D01*
X60319Y-28578D01*
X60357Y-28597D01*
X60376Y-28615D01*
X60394Y-28653D01*
X60394Y-28709D01*
X60376Y-28746D01*
X60357Y-28765D01*
X60319Y-28784D01*
X60169Y-28784D01*
X60713Y-28953D02*
X60676Y-28971D01*
X60601Y-28971D01*
X60563Y-28953D01*
X60544Y-28915D01*
X60544Y-28765D01*
X60563Y-28728D01*
X60601Y-28709D01*
X60676Y-28709D01*
X60713Y-28728D01*
X60732Y-28765D01*
X60732Y-28803D01*
X60544Y-28840D01*
X61069Y-28709D02*
X61069Y-29028D01*
X61051Y-29065D01*
X61032Y-29084D01*
X60994Y-29103D01*
X60938Y-29103D01*
X60901Y-29084D01*
X61069Y-28953D02*
X61032Y-28971D01*
X60957Y-28971D01*
X60919Y-28953D01*
X60901Y-28934D01*
X60882Y-28896D01*
X60882Y-28784D01*
X60901Y-28746D01*
X60919Y-28728D01*
X60957Y-28709D01*
X61032Y-28709D01*
X61069Y-28728D01*
X61425Y-28971D02*
X61425Y-28765D01*
X61407Y-28728D01*
X61369Y-28709D01*
X61294Y-28709D01*
X61257Y-28728D01*
X61425Y-28953D02*
X61388Y-28971D01*
X61294Y-28971D01*
X61257Y-28953D01*
X61238Y-28915D01*
X61238Y-28878D01*
X61257Y-28840D01*
X61294Y-28821D01*
X61388Y-28821D01*
X61425Y-28803D01*
X61782Y-28953D02*
X61744Y-28971D01*
X61669Y-28971D01*
X61632Y-28953D01*
X61613Y-28934D01*
X61594Y-28896D01*
X61594Y-28784D01*
X61613Y-28746D01*
X61632Y-28728D01*
X61669Y-28709D01*
X61744Y-28709D01*
X61782Y-28728D01*
X61950Y-28971D02*
X61950Y-28578D01*
X61988Y-28821D02*
X62100Y-28971D01*
X62100Y-28709D02*
X61950Y-28859D01*
G54D12*
X51069Y-27321D02*
X51069Y-26993D01*
X51069Y-26829D02*
X51041Y-26852D01*
X51069Y-26875D01*
X51097Y-26852D01*
X51069Y-26829D01*
X51069Y-26875D01*
X51350Y-26993D02*
X51350Y-27321D01*
X51350Y-27040D02*
X51378Y-27016D01*
X51435Y-26993D01*
X51519Y-26993D01*
X51575Y-27016D01*
X51603Y-27063D01*
X51603Y-27321D01*
X52334Y-27321D02*
X52334Y-26993D01*
X52334Y-27086D02*
X52363Y-27040D01*
X52391Y-27016D01*
X52447Y-26993D01*
X52503Y-26993D01*
X52925Y-27297D02*
X52869Y-27321D01*
X52756Y-27321D01*
X52700Y-27297D01*
X52672Y-27250D01*
X52672Y-27063D01*
X52700Y-27016D01*
X52756Y-26993D01*
X52869Y-26993D01*
X52925Y-27016D01*
X52953Y-27063D01*
X52953Y-27110D01*
X52672Y-27157D01*
X53206Y-27321D02*
X53206Y-26993D01*
X53206Y-27040D02*
X53234Y-27016D01*
X53291Y-26993D01*
X53375Y-26993D01*
X53431Y-27016D01*
X53459Y-27063D01*
X53459Y-27321D01*
X53459Y-27063D02*
X53487Y-27016D01*
X53544Y-26993D01*
X53628Y-26993D01*
X53684Y-27016D01*
X53712Y-27063D01*
X53712Y-27321D01*
X54219Y-27297D02*
X54162Y-27321D01*
X54050Y-27321D01*
X53994Y-27297D01*
X53965Y-27250D01*
X53965Y-27063D01*
X53994Y-27016D01*
X54050Y-26993D01*
X54162Y-26993D01*
X54219Y-27016D01*
X54247Y-27063D01*
X54247Y-27110D01*
X53965Y-27157D01*
X54500Y-27321D02*
X54500Y-26993D01*
X54500Y-27040D02*
X54528Y-27016D01*
X54584Y-26993D01*
X54668Y-26993D01*
X54725Y-27016D01*
X54753Y-27063D01*
X54753Y-27321D01*
X54753Y-27063D02*
X54781Y-27016D01*
X54837Y-26993D01*
X54922Y-26993D01*
X54978Y-27016D01*
X55006Y-27063D01*
X55006Y-27321D01*
X55287Y-27321D02*
X55287Y-26829D01*
X55287Y-27016D02*
X55343Y-26993D01*
X55456Y-26993D01*
X55512Y-27016D01*
X55540Y-27040D01*
X55568Y-27086D01*
X55568Y-27227D01*
X55540Y-27274D01*
X55512Y-27297D01*
X55456Y-27321D01*
X55343Y-27321D01*
X55287Y-27297D01*
X55821Y-27321D02*
X55821Y-26993D01*
X55821Y-27086D02*
X55850Y-27040D01*
X55878Y-27016D01*
X55934Y-26993D01*
X55990Y-26993D01*
X56440Y-27321D02*
X56440Y-27063D01*
X56412Y-27016D01*
X56356Y-26993D01*
X56243Y-26993D01*
X56187Y-27016D01*
X56440Y-27297D02*
X56384Y-27321D01*
X56243Y-27321D01*
X56187Y-27297D01*
X56159Y-27250D01*
X56159Y-27204D01*
X56187Y-27157D01*
X56243Y-27133D01*
X56384Y-27133D01*
X56440Y-27110D01*
X56721Y-26993D02*
X56721Y-27321D01*
X56721Y-27040D02*
X56749Y-27016D01*
X56806Y-26993D01*
X56890Y-26993D01*
X56946Y-27016D01*
X56974Y-27063D01*
X56974Y-27321D01*
X57509Y-27297D02*
X57453Y-27321D01*
X57340Y-27321D01*
X57284Y-27297D01*
X57256Y-27274D01*
X57228Y-27227D01*
X57228Y-27086D01*
X57256Y-27040D01*
X57284Y-27016D01*
X57340Y-26993D01*
X57453Y-26993D01*
X57509Y-27016D01*
X57987Y-27297D02*
X57931Y-27321D01*
X57818Y-27321D01*
X57762Y-27297D01*
X57734Y-27250D01*
X57734Y-27063D01*
X57762Y-27016D01*
X57818Y-26993D01*
X57931Y-26993D01*
X57987Y-27016D01*
X58015Y-27063D01*
X58015Y-27110D01*
X57734Y-27157D01*
X58802Y-27321D02*
X58746Y-27297D01*
X58718Y-27274D01*
X58690Y-27227D01*
X58690Y-27086D01*
X58718Y-27040D01*
X58746Y-27016D01*
X58802Y-26993D01*
X58887Y-26993D01*
X58943Y-27016D01*
X58971Y-27040D01*
X58999Y-27086D01*
X58999Y-27227D01*
X58971Y-27274D01*
X58943Y-27297D01*
X58887Y-27321D01*
X58802Y-27321D01*
X59168Y-26993D02*
X59393Y-26993D01*
X59252Y-27321D02*
X59252Y-26899D01*
X59280Y-26852D01*
X59337Y-26829D01*
X59393Y-26829D01*
X60040Y-27321D02*
X60040Y-26829D01*
X60377Y-27321D01*
X60377Y-26829D01*
X60911Y-27321D02*
X60911Y-27063D01*
X60883Y-27016D01*
X60827Y-26993D01*
X60715Y-26993D01*
X60658Y-27016D01*
X60911Y-27297D02*
X60855Y-27321D01*
X60715Y-27321D01*
X60658Y-27297D01*
X60630Y-27250D01*
X60630Y-27204D01*
X60658Y-27157D01*
X60715Y-27133D01*
X60855Y-27133D01*
X60911Y-27110D01*
X61108Y-26993D02*
X61333Y-26993D01*
X61193Y-26829D02*
X61193Y-27250D01*
X61221Y-27297D01*
X61277Y-27321D01*
X61333Y-27321D01*
X61755Y-27297D02*
X61699Y-27321D01*
X61586Y-27321D01*
X61530Y-27297D01*
X61502Y-27250D01*
X61502Y-27063D01*
X61530Y-27016D01*
X61586Y-26993D01*
X61699Y-26993D01*
X61755Y-27016D01*
X61783Y-27063D01*
X61783Y-27110D01*
X61502Y-27157D01*
X62430Y-26829D02*
X62571Y-27321D01*
X62683Y-26969D01*
X62796Y-27321D01*
X62936Y-26829D01*
X63414Y-27321D02*
X63414Y-27063D01*
X63386Y-27016D01*
X63330Y-26993D01*
X63217Y-26993D01*
X63161Y-27016D01*
X63414Y-27297D02*
X63358Y-27321D01*
X63217Y-27321D01*
X63161Y-27297D01*
X63133Y-27250D01*
X63133Y-27204D01*
X63161Y-27157D01*
X63217Y-27133D01*
X63358Y-27133D01*
X63414Y-27110D01*
X63780Y-27321D02*
X63724Y-27297D01*
X63695Y-27250D01*
X63695Y-26829D01*
X63920Y-26993D02*
X64145Y-26993D01*
X64005Y-26829D02*
X64005Y-27250D01*
X64033Y-27297D01*
X64089Y-27321D01*
X64145Y-27321D01*
X64567Y-27297D02*
X64511Y-27321D01*
X64399Y-27321D01*
X64342Y-27297D01*
X64314Y-27250D01*
X64314Y-27063D01*
X64342Y-27016D01*
X64399Y-26993D01*
X64511Y-26993D01*
X64567Y-27016D01*
X64595Y-27063D01*
X64595Y-27110D01*
X64314Y-27157D01*
X64848Y-27321D02*
X64848Y-26993D01*
X64848Y-27086D02*
X64877Y-27040D01*
X64905Y-27016D01*
X64961Y-26993D01*
X65017Y-26993D01*
G54D13*
X55633Y-25930D02*
X55867Y-25930D01*
X55568Y-26071D02*
X55794Y-25579D01*
X55897Y-26071D01*
X56687Y-25743D02*
X56646Y-26071D01*
X56594Y-25555D02*
X56433Y-25907D01*
X56737Y-25907D01*
X57060Y-25579D02*
X57106Y-25579D01*
X57150Y-25602D01*
X57171Y-25625D01*
X57188Y-25672D01*
X57200Y-25766D01*
X57185Y-25883D01*
X57150Y-25977D01*
X57121Y-26024D01*
X57095Y-26047D01*
X57045Y-26071D01*
X56998Y-26071D01*
X56954Y-26047D01*
X56934Y-26024D01*
X56916Y-25977D01*
X56904Y-25883D01*
X56919Y-25766D01*
X56954Y-25672D01*
X56983Y-25625D01*
X57010Y-25602D01*
X57060Y-25579D01*
X57350Y-26071D02*
X57786Y-25579D01*
X57481Y-25579D02*
X57525Y-25602D01*
X57543Y-25649D01*
X57514Y-25696D01*
X57464Y-25719D01*
X57420Y-25696D01*
X57402Y-25649D01*
X57432Y-25602D01*
X57481Y-25579D01*
X57704Y-26047D02*
X57733Y-26000D01*
X57716Y-25954D01*
X57672Y-25930D01*
X57622Y-25954D01*
X57593Y-26000D01*
X57610Y-26047D01*
X57654Y-26071D01*
X57704Y-26047D01*
X58310Y-26071D02*
X58372Y-25579D01*
X58489Y-25579D01*
X58556Y-25602D01*
X58597Y-25649D01*
X58615Y-25696D01*
X58627Y-25790D01*
X58618Y-25860D01*
X58583Y-25954D01*
X58553Y-26000D01*
X58501Y-26047D01*
X58427Y-26071D01*
X58310Y-26071D01*
X58993Y-26047D02*
X58943Y-26071D01*
X58849Y-26071D01*
X58805Y-26047D01*
X58788Y-26000D01*
X58811Y-25813D01*
X58841Y-25766D01*
X58890Y-25743D01*
X58984Y-25743D01*
X59028Y-25766D01*
X59046Y-25813D01*
X59040Y-25860D01*
X58800Y-25907D01*
X59204Y-26047D02*
X59248Y-26071D01*
X59341Y-26071D01*
X59391Y-26047D01*
X59421Y-26000D01*
X59423Y-25977D01*
X59406Y-25930D01*
X59362Y-25907D01*
X59292Y-25907D01*
X59248Y-25883D01*
X59230Y-25836D01*
X59233Y-25813D01*
X59262Y-25766D01*
X59312Y-25743D01*
X59382Y-25743D01*
X59426Y-25766D01*
X59623Y-26071D02*
X59664Y-25743D01*
X59684Y-25579D02*
X59658Y-25602D01*
X59678Y-25625D01*
X59705Y-25602D01*
X59684Y-25579D01*
X59678Y-25625D01*
X60109Y-25743D02*
X60059Y-26141D01*
X60030Y-26188D01*
X60003Y-26211D01*
X59954Y-26235D01*
X59883Y-26235D01*
X59839Y-26211D01*
X60071Y-26047D02*
X60021Y-26071D01*
X59927Y-26071D01*
X59883Y-26047D01*
X59863Y-26024D01*
X59845Y-25977D01*
X59863Y-25836D01*
X59892Y-25790D01*
X59919Y-25766D01*
X59968Y-25743D01*
X60062Y-25743D01*
X60106Y-25766D01*
X60343Y-25743D02*
X60302Y-26071D01*
X60337Y-25790D02*
X60364Y-25766D01*
X60414Y-25743D01*
X60484Y-25743D01*
X60528Y-25766D01*
X60545Y-25813D01*
X60513Y-26071D01*
G54D14*
X51095Y-23669D02*
X51545Y-23669D01*
X51173Y-24850D02*
X51320Y-23669D01*
X51660Y-24850D02*
X51808Y-23669D01*
X51998Y-24850D02*
X52075Y-24231D01*
X52052Y-24118D01*
X51984Y-24062D01*
X51871Y-24062D01*
X51789Y-24118D01*
X51745Y-24175D01*
X52680Y-24793D02*
X52598Y-24850D01*
X52448Y-24850D01*
X52380Y-24793D01*
X52356Y-24681D01*
X52412Y-24231D01*
X52464Y-24118D01*
X52546Y-24062D01*
X52696Y-24062D01*
X52764Y-24118D01*
X52787Y-24231D01*
X52773Y-24343D01*
X52384Y-24456D01*
X53617Y-24793D02*
X53722Y-24850D01*
X53910Y-24850D01*
X53992Y-24793D01*
X54036Y-24737D01*
X54088Y-24625D01*
X54102Y-24512D01*
X54079Y-24400D01*
X54048Y-24343D01*
X53980Y-24287D01*
X53837Y-24231D01*
X53769Y-24175D01*
X53739Y-24118D01*
X53715Y-24006D01*
X53730Y-23893D01*
X53781Y-23781D01*
X53826Y-23725D01*
X53908Y-23669D01*
X54095Y-23669D01*
X54201Y-23725D01*
X54397Y-24850D02*
X54496Y-24062D01*
X54482Y-24175D02*
X54526Y-24118D01*
X54608Y-24062D01*
X54721Y-24062D01*
X54789Y-24118D01*
X54812Y-24231D01*
X54735Y-24850D01*
X54812Y-24231D02*
X54864Y-24118D01*
X54946Y-24062D01*
X55058Y-24062D01*
X55126Y-24118D01*
X55150Y-24231D01*
X55072Y-24850D01*
X55785Y-24850D02*
X55862Y-24231D01*
X55839Y-24118D01*
X55771Y-24062D01*
X55621Y-24062D01*
X55539Y-24118D01*
X55792Y-24793D02*
X55710Y-24850D01*
X55522Y-24850D01*
X55454Y-24793D01*
X55431Y-24681D01*
X55445Y-24568D01*
X55496Y-24456D01*
X55578Y-24400D01*
X55766Y-24400D01*
X55848Y-24343D01*
X56272Y-24850D02*
X56204Y-24793D01*
X56181Y-24681D01*
X56307Y-23669D01*
X56685Y-24850D02*
X56617Y-24793D01*
X56593Y-24681D01*
X56720Y-23669D01*
X57324Y-24231D02*
X57062Y-24231D01*
X56985Y-24850D02*
X57132Y-23669D01*
X57507Y-23669D01*
X57659Y-24850D02*
X57758Y-24062D01*
X57730Y-24287D02*
X57781Y-24175D01*
X57826Y-24118D01*
X57908Y-24062D01*
X57983Y-24062D01*
X58170Y-24062D02*
X58259Y-24850D01*
X58545Y-24062D02*
X58259Y-24850D01*
X58149Y-25131D01*
X58105Y-25187D01*
X58023Y-25243D01*
X59347Y-24850D02*
X59494Y-23669D01*
X59797Y-24850D02*
X59544Y-24175D01*
X59944Y-23669D02*
X59410Y-24343D01*
X60441Y-24793D02*
X60359Y-24850D01*
X60209Y-24850D01*
X60141Y-24793D01*
X60118Y-24681D01*
X60174Y-24231D01*
X60226Y-24118D01*
X60308Y-24062D01*
X60458Y-24062D01*
X60526Y-24118D01*
X60549Y-24231D01*
X60535Y-24343D01*
X60146Y-24456D01*
X60833Y-24062D02*
X60922Y-24850D01*
X61207Y-24062D02*
X60922Y-24850D01*
X60811Y-25131D01*
X60767Y-25187D01*
X60685Y-25243D01*
X61409Y-24850D02*
X61557Y-23669D01*
X61500Y-24118D02*
X61582Y-24062D01*
X61732Y-24062D01*
X61800Y-24118D01*
X61831Y-24175D01*
X61854Y-24287D01*
X61812Y-24625D01*
X61761Y-24737D01*
X61716Y-24793D01*
X61634Y-24850D01*
X61484Y-24850D01*
X61416Y-24793D01*
X62234Y-24850D02*
X62166Y-24793D01*
X62135Y-24737D01*
X62112Y-24625D01*
X62154Y-24287D01*
X62206Y-24175D01*
X62250Y-24118D01*
X62332Y-24062D01*
X62445Y-24062D01*
X62513Y-24118D01*
X62543Y-24175D01*
X62567Y-24287D01*
X62525Y-24625D01*
X62473Y-24737D01*
X62428Y-24793D01*
X62346Y-24850D01*
X62234Y-24850D01*
X63171Y-24850D02*
X63249Y-24231D01*
X63225Y-24118D01*
X63157Y-24062D01*
X63007Y-24062D01*
X62925Y-24118D01*
X63178Y-24793D02*
X63096Y-24850D01*
X62909Y-24850D01*
X62841Y-24793D01*
X62817Y-24681D01*
X62831Y-24568D01*
X62883Y-24456D01*
X62965Y-24400D01*
X63153Y-24400D01*
X63235Y-24343D01*
X63546Y-24850D02*
X63645Y-24062D01*
X63617Y-24287D02*
X63668Y-24175D01*
X63713Y-24118D01*
X63795Y-24062D01*
X63870Y-24062D01*
X64371Y-24850D02*
X64519Y-23669D01*
X64378Y-24793D02*
X64296Y-24850D01*
X64146Y-24850D01*
X64078Y-24793D01*
X64048Y-24737D01*
X64024Y-24625D01*
X64066Y-24287D01*
X64118Y-24175D01*
X64163Y-24118D01*
X64245Y-24062D01*
X64395Y-24062D01*
X64463Y-24118D01*
G54D15*
X7051Y-28622D02*
X6351Y-28622D01*
X2751Y-28622D02*
X2051Y-28622D01*
X2051Y-28622D02*
X2051Y-27922D01*
X2051Y-24322D02*
X2051Y-23622D01*
X2051Y-23622D02*
X2751Y-23622D01*
X6351Y-23622D02*
X7051Y-23622D01*
X7051Y-23622D02*
X7051Y-24322D01*
X7051Y-27922D02*
X7051Y-28622D01*
X7051Y-13622D02*
X6351Y-13622D01*
X2751Y-13622D02*
X2051Y-13622D01*
X2051Y-13622D02*
X2051Y-12922D01*
X2051Y-9322D02*
X2051Y-8622D01*
X2051Y-8622D02*
X2751Y-8622D01*
X6351Y-8622D02*
X7051Y-8622D01*
X7051Y-8622D02*
X7051Y-9322D01*
X7051Y-12922D02*
X7051Y-13622D01*
X8901Y-21122D02*
X8201Y-21122D01*
X4601Y-21122D02*
X3901Y-21122D01*
X3901Y-21122D02*
X3901Y-20422D01*
X3901Y-16822D02*
X3901Y-16122D01*
X3901Y-16122D02*
X4601Y-16122D01*
X8201Y-16122D02*
X8901Y-16122D01*
X8901Y-16122D02*
X8901Y-16822D01*
X8901Y-20422D02*
X8901Y-21122D01*
X88601Y-21122D02*
X87901Y-21122D01*
X84301Y-21122D02*
X83601Y-21122D01*
X83601Y-21122D02*
X83601Y-20422D01*
X83601Y-16822D02*
X83601Y-16122D01*
X83601Y-16122D02*
X84301Y-16122D01*
X87901Y-16122D02*
X88601Y-16122D01*
X88601Y-16122D02*
X88601Y-16822D01*
X88601Y-20422D02*
X88601Y-21122D01*
X53001Y-13622D02*
X52301Y-13622D01*
X48701Y-13622D02*
X48001Y-13622D01*
X48001Y-13622D02*
X48001Y-12922D01*
X48001Y-9322D02*
X48001Y-8622D01*
X48001Y-8622D02*
X48701Y-8622D01*
X52301Y-8622D02*
X53001Y-8622D01*
X53001Y-8622D02*
X53001Y-9322D01*
X53001Y-12922D02*
X53001Y-13622D01*
X73601Y-6122D02*
X72901Y-6122D01*
X69301Y-6122D02*
X68601Y-6122D01*
X68601Y-6122D02*
X68601Y-5422D01*
X68601Y-1822D02*
X68601Y-1122D01*
X68601Y-1122D02*
X69301Y-1122D01*
X72901Y-1122D02*
X73601Y-1122D01*
X73601Y-1122D02*
X73601Y-1822D01*
X73601Y-5422D02*
X73601Y-6122D01*
X36101Y-6122D02*
X35401Y-6122D01*
X31801Y-6122D02*
X31101Y-6122D01*
X31101Y-6122D02*
X31101Y-5422D01*
X31101Y-1822D02*
X31101Y-1122D01*
X31101Y-1122D02*
X31801Y-1122D01*
X35401Y-1122D02*
X36101Y-1122D01*
X36101Y-1122D02*
X36101Y-1822D01*
X36101Y-5422D02*
X36101Y-6122D01*
X87651Y-28622D02*
X86951Y-28622D01*
X83351Y-28622D02*
X82651Y-28622D01*
X82651Y-28622D02*
X82651Y-27922D01*
X82651Y-24322D02*
X82651Y-23622D01*
X82651Y-23622D02*
X83351Y-23622D01*
X86951Y-23622D02*
X87651Y-23622D01*
X87651Y-23622D02*
X87651Y-24322D01*
X87651Y-27922D02*
X87651Y-28622D01*
X78301Y-28622D02*
X77601Y-28622D01*
X74001Y-28622D02*
X73301Y-28622D01*
X73301Y-28622D02*
X73301Y-27922D01*
X73301Y-24322D02*
X73301Y-23622D01*
X73301Y-23622D02*
X74001Y-23622D01*
X77601Y-23622D02*
X78301Y-23622D01*
X78301Y-23622D02*
X78301Y-24322D01*
X78301Y-27922D02*
X78301Y-28622D01*
X23001Y-28622D02*
X22301Y-28622D01*
X18701Y-28622D02*
X18001Y-28622D01*
X18001Y-28622D02*
X18001Y-27922D01*
X18001Y-24322D02*
X18001Y-23622D01*
X18001Y-23622D02*
X18701Y-23622D01*
X22301Y-23622D02*
X23001Y-23622D01*
X23001Y-23622D02*
X23001Y-24322D01*
X23001Y-27922D02*
X23001Y-28622D01*
X15501Y-28622D02*
X14801Y-28622D01*
X11201Y-28622D02*
X10501Y-28622D01*
X10501Y-28622D02*
X10501Y-27922D01*
X10501Y-24322D02*
X10501Y-23622D01*
X10501Y-23622D02*
X11201Y-23622D01*
X14801Y-23622D02*
X15501Y-23622D01*
X15501Y-23622D02*
X15501Y-24322D01*
X15501Y-27922D02*
X15501Y-28622D01*
X80151Y-21122D02*
X79451Y-21122D01*
X75851Y-21122D02*
X75151Y-21122D01*
X75151Y-21122D02*
X75151Y-20422D01*
X75151Y-16822D02*
X75151Y-16122D01*
X75151Y-16122D02*
X75851Y-16122D01*
X79451Y-16122D02*
X80151Y-16122D01*
X80151Y-16122D02*
X80151Y-16822D01*
X80151Y-20422D02*
X80151Y-21122D01*
X71701Y-21122D02*
X71001Y-21122D01*
X67401Y-21122D02*
X66701Y-21122D01*
X66701Y-21122D02*
X66701Y-20422D01*
X66701Y-16822D02*
X66701Y-16122D01*
X66701Y-16122D02*
X67401Y-16122D01*
X71001Y-16122D02*
X71701Y-16122D01*
X71701Y-16122D02*
X71701Y-16822D01*
X71701Y-20422D02*
X71701Y-21122D01*
X30501Y-13622D02*
X29801Y-13622D01*
X26201Y-13622D02*
X25501Y-13622D01*
X25501Y-13622D02*
X25501Y-12922D01*
X25501Y-9322D02*
X25501Y-8622D01*
X25501Y-8622D02*
X26201Y-8622D01*
X29801Y-8622D02*
X30501Y-8622D01*
X30501Y-8622D02*
X30501Y-9322D01*
X30501Y-12922D02*
X30501Y-13622D01*
X23001Y-13622D02*
X22301Y-13622D01*
X18701Y-13622D02*
X18001Y-13622D01*
X18001Y-13622D02*
X18001Y-12922D01*
X18001Y-9322D02*
X18001Y-8622D01*
X18001Y-8622D02*
X18701Y-8622D01*
X22301Y-8622D02*
X23001Y-8622D01*
X23001Y-8622D02*
X23001Y-9322D01*
X23001Y-12922D02*
X23001Y-13622D01*
X15501Y-13622D02*
X14801Y-13622D01*
X11201Y-13622D02*
X10501Y-13622D01*
X10501Y-13622D02*
X10501Y-12922D01*
X10501Y-9322D02*
X10501Y-8622D01*
X10501Y-8622D02*
X11201Y-8622D01*
X14801Y-8622D02*
X15501Y-8622D01*
X15501Y-8622D02*
X15501Y-9322D01*
X15501Y-12922D02*
X15501Y-13622D01*
X88601Y-6122D02*
X87901Y-6122D01*
X84301Y-6122D02*
X83601Y-6122D01*
X83601Y-6122D02*
X83601Y-5422D01*
X83601Y-1822D02*
X83601Y-1122D01*
X83601Y-1122D02*
X84301Y-1122D01*
X87901Y-1122D02*
X88601Y-1122D01*
X88601Y-1122D02*
X88601Y-1822D01*
X88601Y-5422D02*
X88601Y-6122D01*
X66101Y-6122D02*
X65401Y-6122D01*
X61801Y-6122D02*
X61101Y-6122D01*
X61101Y-6122D02*
X61101Y-5422D01*
X61101Y-1822D02*
X61101Y-1122D01*
X61101Y-1122D02*
X61801Y-1122D01*
X65401Y-1122D02*
X66101Y-1122D01*
X66101Y-1122D02*
X66101Y-1822D01*
X66101Y-5422D02*
X66101Y-6122D01*
X58601Y-6122D02*
X57901Y-6122D01*
X54301Y-6122D02*
X53601Y-6122D01*
X53601Y-6122D02*
X53601Y-5422D01*
X53601Y-1822D02*
X53601Y-1122D01*
X53601Y-1122D02*
X54301Y-1122D01*
X57901Y-1122D02*
X58601Y-1122D01*
X58601Y-1122D02*
X58601Y-1822D01*
X58601Y-5422D02*
X58601Y-6122D01*
X51101Y-6122D02*
X50401Y-6122D01*
X46801Y-6122D02*
X46101Y-6122D01*
X46101Y-6122D02*
X46101Y-5422D01*
X46101Y-1822D02*
X46101Y-1122D01*
X46101Y-1122D02*
X46801Y-1122D01*
X50401Y-1122D02*
X51101Y-1122D01*
X51101Y-1122D02*
X51101Y-1822D01*
X51101Y-5422D02*
X51101Y-6122D01*
X43601Y-6122D02*
X42901Y-6122D01*
X39301Y-6122D02*
X38601Y-6122D01*
X38601Y-6122D02*
X38601Y-5422D01*
X38601Y-1822D02*
X38601Y-1122D01*
X38601Y-1122D02*
X39301Y-1122D01*
X42901Y-1122D02*
X43601Y-1122D01*
X43601Y-1122D02*
X43601Y-1822D01*
X43601Y-5422D02*
X43601Y-6122D01*
X28601Y-6122D02*
X27901Y-6122D01*
X24301Y-6122D02*
X23601Y-6122D01*
X23601Y-6122D02*
X23601Y-5422D01*
X23601Y-1822D02*
X23601Y-1122D01*
X23601Y-1122D02*
X24301Y-1122D01*
X27901Y-1122D02*
X28601Y-1122D01*
X28601Y-1122D02*
X28601Y-1822D01*
X28601Y-5422D02*
X28601Y-6122D01*
X21101Y-6122D02*
X20401Y-6122D01*
X16801Y-6122D02*
X16101Y-6122D01*
X16101Y-6122D02*
X16101Y-5422D01*
X16101Y-1822D02*
X16101Y-1122D01*
X16101Y-1122D02*
X16801Y-1122D01*
X20401Y-1122D02*
X21101Y-1122D01*
X21101Y-1122D02*
X21101Y-1822D01*
X21101Y-5422D02*
X21101Y-6122D01*
X13601Y-6122D02*
X12901Y-6122D01*
X9301Y-6122D02*
X8601Y-6122D01*
X8601Y-6122D02*
X8601Y-5422D01*
X8601Y-1822D02*
X8601Y-1122D01*
X8601Y-1122D02*
X9301Y-1122D01*
X12901Y-1122D02*
X13601Y-1122D01*
X13601Y-1122D02*
X13601Y-1822D01*
X13601Y-5422D02*
X13601Y-6122D01*
X64201Y-21122D02*
X63501Y-21122D01*
X59901Y-21122D02*
X59201Y-21122D01*
X59201Y-21122D02*
X59201Y-20422D01*
X59201Y-16822D02*
X59201Y-16122D01*
X59201Y-16122D02*
X59901Y-16122D01*
X63501Y-16122D02*
X64201Y-16122D01*
X64201Y-16122D02*
X64201Y-16822D01*
X64201Y-20422D02*
X64201Y-21122D01*
X56701Y-21122D02*
X56001Y-21122D01*
X52401Y-21122D02*
X51701Y-21122D01*
X51701Y-21122D02*
X51701Y-20422D01*
X51701Y-16822D02*
X51701Y-16122D01*
X51701Y-16122D02*
X52401Y-16122D01*
X56001Y-16122D02*
X56701Y-16122D01*
X56701Y-16122D02*
X56701Y-16822D01*
X56701Y-20422D02*
X56701Y-21122D01*
X49201Y-21122D02*
X48501Y-21122D01*
X44901Y-21122D02*
X44201Y-21122D01*
X44201Y-21122D02*
X44201Y-20422D01*
X44201Y-16822D02*
X44201Y-16122D01*
X44201Y-16122D02*
X44901Y-16122D01*
X48501Y-16122D02*
X49201Y-16122D01*
X49201Y-16122D02*
X49201Y-16822D01*
X49201Y-20422D02*
X49201Y-21122D01*
X41701Y-21122D02*
X41001Y-21122D01*
X37401Y-21122D02*
X36701Y-21122D01*
X36701Y-21122D02*
X36701Y-20422D01*
X36701Y-16822D02*
X36701Y-16122D01*
X36701Y-16122D02*
X37401Y-16122D01*
X41001Y-16122D02*
X41701Y-16122D01*
X41701Y-16122D02*
X41701Y-16822D01*
X41701Y-20422D02*
X41701Y-21122D01*
X34201Y-21122D02*
X33501Y-21122D01*
X29901Y-21122D02*
X29201Y-21122D01*
X29201Y-21122D02*
X29201Y-20422D01*
X29201Y-16822D02*
X29201Y-16122D01*
X29201Y-16122D02*
X29901Y-16122D01*
X33501Y-16122D02*
X34201Y-16122D01*
X34201Y-16122D02*
X34201Y-16822D01*
X34201Y-20422D02*
X34201Y-21122D01*
X26701Y-21122D02*
X26001Y-21122D01*
X22401Y-21122D02*
X21701Y-21122D01*
X21701Y-21122D02*
X21701Y-20422D01*
X21701Y-16822D02*
X21701Y-16122D01*
X21701Y-16122D02*
X22401Y-16122D01*
X26001Y-16122D02*
X26701Y-16122D01*
X26701Y-16122D02*
X26701Y-16822D01*
X26701Y-20422D02*
X26701Y-21122D01*
X19201Y-21122D02*
X18501Y-21122D01*
X14901Y-21122D02*
X14201Y-21122D01*
X14201Y-21122D02*
X14201Y-20422D01*
X14201Y-16822D02*
X14201Y-16122D01*
X14201Y-16122D02*
X14901Y-16122D01*
X18501Y-16122D02*
X19201Y-16122D01*
X19201Y-16122D02*
X19201Y-16822D01*
X19201Y-20422D02*
X19201Y-21122D01*
X85801Y-13622D02*
X85101Y-13622D01*
X81501Y-13622D02*
X80801Y-13622D01*
X80801Y-13622D02*
X80801Y-12922D01*
X80801Y-9322D02*
X80801Y-8622D01*
X80801Y-8622D02*
X81501Y-8622D01*
X85101Y-8622D02*
X85801Y-8622D01*
X85801Y-8622D02*
X85801Y-9322D01*
X85801Y-12922D02*
X85801Y-13622D01*
X75501Y-13622D02*
X74801Y-13622D01*
X71201Y-13622D02*
X70501Y-13622D01*
X70501Y-13622D02*
X70501Y-12922D01*
X70501Y-9322D02*
X70501Y-8622D01*
X70501Y-8622D02*
X71201Y-8622D01*
X74801Y-8622D02*
X75501Y-8622D01*
X75501Y-8622D02*
X75501Y-9322D01*
X75501Y-12922D02*
X75501Y-13622D01*
X68001Y-13622D02*
X67301Y-13622D01*
X63701Y-13622D02*
X63001Y-13622D01*
X63001Y-13622D02*
X63001Y-12922D01*
X63001Y-9322D02*
X63001Y-8622D01*
X63001Y-8622D02*
X63701Y-8622D01*
X67301Y-8622D02*
X68001Y-8622D01*
X68001Y-8622D02*
X68001Y-9322D01*
X68001Y-12922D02*
X68001Y-13622D01*
X60501Y-13622D02*
X59801Y-13622D01*
X56201Y-13622D02*
X55501Y-13622D01*
X55501Y-13622D02*
X55501Y-12922D01*
X55501Y-9322D02*
X55501Y-8622D01*
X55501Y-8622D02*
X56201Y-8622D01*
X59801Y-8622D02*
X60501Y-8622D01*
X60501Y-8622D02*
X60501Y-9322D01*
X60501Y-12922D02*
X60501Y-13622D01*
X45501Y-13622D02*
X44801Y-13622D01*
X41201Y-13622D02*
X40501Y-13622D01*
X40501Y-13622D02*
X40501Y-12922D01*
X40501Y-9322D02*
X40501Y-8622D01*
X40501Y-8622D02*
X41201Y-8622D01*
X44801Y-8622D02*
X45501Y-8622D01*
X45501Y-8622D02*
X45501Y-9322D01*
X45501Y-12922D02*
X45501Y-13622D01*
X38001Y-13622D02*
X37301Y-13622D01*
X33701Y-13622D02*
X33001Y-13622D01*
X33001Y-13622D02*
X33001Y-12922D01*
X33001Y-9322D02*
X33001Y-8622D01*
X33001Y-8622D02*
X33701Y-8622D01*
X37301Y-8622D02*
X38001Y-8622D01*
X38001Y-8622D02*
X38001Y-9322D01*
X38001Y-12922D02*
X38001Y-13622D01*
X81101Y-6122D02*
X80401Y-6122D01*
X76801Y-6122D02*
X76101Y-6122D01*
X76101Y-6122D02*
X76101Y-5422D01*
X76101Y-1822D02*
X76101Y-1122D01*
X76101Y-1122D02*
X76801Y-1122D01*
X80401Y-1122D02*
X81101Y-1122D01*
X81101Y-1122D02*
X81101Y-1822D01*
X81101Y-5422D02*
X81101Y-6122D01*
X6101Y-6122D02*
X5401Y-6122D01*
X1801Y-6122D02*
X1101Y-6122D01*
X1101Y-6122D02*
X1101Y-5422D01*
X1101Y-1822D02*
X1101Y-1122D01*
X1101Y-1122D02*
X1801Y-1122D01*
X5401Y-1122D02*
X6101Y-1122D01*
X6101Y-1122D02*
X6101Y-1822D01*
X6101Y-5422D02*
X6101Y-6122D01*
X50101Y-28622D02*
X49401Y-28622D01*
X45801Y-28622D02*
X45101Y-28622D01*
X45101Y-28622D02*
X45101Y-27922D01*
X45101Y-24322D02*
X45101Y-23622D01*
X45101Y-23622D02*
X45801Y-23622D01*
X49401Y-23622D02*
X50101Y-23622D01*
X50101Y-23622D02*
X50101Y-24322D01*
X50101Y-27922D02*
X50101Y-28622D01*
X87701Y-21122D02*
X87001Y-21122D01*
X83401Y-21122D02*
X82701Y-21122D01*
X82701Y-21122D02*
X82701Y-20422D01*
X82701Y-16822D02*
X82701Y-16122D01*
X82701Y-16122D02*
X83401Y-16122D01*
X87001Y-16122D02*
X87701Y-16122D01*
X87701Y-16122D02*
X87701Y-16822D01*
X87701Y-20422D02*
X87701Y-21122D01*
X79201Y-21122D02*
X78501Y-21122D01*
X74901Y-21122D02*
X74201Y-21122D01*
X74201Y-21122D02*
X74201Y-20422D01*
X74201Y-16822D02*
X74201Y-16122D01*
X74201Y-16122D02*
X74901Y-16122D01*
X78501Y-16122D02*
X79201Y-16122D01*
X79201Y-16122D02*
X79201Y-16822D01*
X79201Y-20422D02*
X79201Y-21122D01*
G54D16*
X88873Y-20901D02*
X88873Y-20301D01*
X88873Y-20587D02*
X89216Y-20587D01*
X89216Y-20901D02*
X89216Y-20301D01*
X89616Y-20301D02*
X89730Y-20301D01*
X89787Y-20330D01*
X89844Y-20387D01*
X89873Y-20501D01*
X89873Y-20701D01*
X89844Y-20815D01*
X89787Y-20872D01*
X89730Y-20901D01*
X89616Y-20901D01*
X89558Y-20872D01*
X89501Y-20815D01*
X89473Y-20701D01*
X89473Y-20501D01*
X89501Y-20387D01*
X89558Y-20330D01*
X89616Y-20301D01*
X90416Y-20901D02*
X90130Y-20901D01*
X90130Y-20301D01*
X90616Y-20587D02*
X90816Y-20587D01*
X90901Y-20901D02*
X90616Y-20901D01*
X90616Y-20301D01*
X90901Y-20301D01*
X77601Y-9564D02*
X77601Y-8964D01*
X77601Y-9250D02*
X77944Y-9250D01*
X77944Y-9564D02*
X77944Y-8964D01*
X78344Y-8964D02*
X78458Y-8964D01*
X78515Y-8993D01*
X78573Y-9050D01*
X78601Y-9164D01*
X78601Y-9364D01*
X78573Y-9479D01*
X78515Y-9536D01*
X78458Y-9564D01*
X78344Y-9564D01*
X78287Y-9536D01*
X78230Y-9479D01*
X78201Y-9364D01*
X78201Y-9164D01*
X78230Y-9050D01*
X78287Y-8993D01*
X78344Y-8964D01*
X79144Y-9564D02*
X78858Y-9564D01*
X78858Y-8964D01*
X79344Y-9250D02*
X79544Y-9250D01*
X79630Y-9564D02*
X79344Y-9564D01*
X79344Y-8964D01*
X79630Y-8964D01*
X18401Y-7964D02*
X18401Y-7364D01*
X18401Y-7650D02*
X18744Y-7650D01*
X18744Y-7964D02*
X18744Y-7364D01*
X19144Y-7364D02*
X19258Y-7364D01*
X19315Y-7393D01*
X19373Y-7450D01*
X19401Y-7564D01*
X19401Y-7764D01*
X19373Y-7879D01*
X19315Y-7936D01*
X19258Y-7964D01*
X19144Y-7964D01*
X19087Y-7936D01*
X19030Y-7879D01*
X19001Y-7764D01*
X19001Y-7564D01*
X19030Y-7450D01*
X19087Y-7393D01*
X19144Y-7364D01*
X19944Y-7964D02*
X19658Y-7964D01*
X19658Y-7364D01*
X20144Y-7650D02*
X20344Y-7650D01*
X20430Y-7964D02*
X20144Y-7964D01*
X20144Y-7364D01*
X20430Y-7364D01*
X49541Y-16816D02*
X49541Y-16216D01*
X49541Y-16502D02*
X49884Y-16502D01*
X49884Y-16816D02*
X49884Y-16216D01*
X50284Y-16216D02*
X50398Y-16216D01*
X50455Y-16245D01*
X50512Y-16302D01*
X50541Y-16416D01*
X50541Y-16616D01*
X50512Y-16731D01*
X50455Y-16788D01*
X50398Y-16816D01*
X50284Y-16816D01*
X50227Y-16788D01*
X50170Y-16731D01*
X50141Y-16616D01*
X50141Y-16416D01*
X50170Y-16302D01*
X50227Y-16245D01*
X50284Y-16216D01*
X51084Y-16816D02*
X50798Y-16816D01*
X50798Y-16216D01*
X51284Y-16502D02*
X51484Y-16502D01*
X51570Y-16816D02*
X51284Y-16816D01*
X51284Y-16216D01*
X51570Y-16216D01*
X376Y-20901D02*
X376Y-20301D01*
X376Y-20587D02*
X719Y-20587D01*
X719Y-20901D02*
X719Y-20301D01*
X1119Y-20301D02*
X1233Y-20301D01*
X1290Y-20330D01*
X1347Y-20387D01*
X1376Y-20501D01*
X1376Y-20701D01*
X1347Y-20816D01*
X1290Y-20873D01*
X1233Y-20901D01*
X1119Y-20901D01*
X1062Y-20873D01*
X1004Y-20816D01*
X976Y-20701D01*
X976Y-20501D01*
X1004Y-20387D01*
X1062Y-20330D01*
X1119Y-20301D01*
X1919Y-20901D02*
X1633Y-20901D01*
X1633Y-20301D01*
X2119Y-20587D02*
X2319Y-20587D01*
X2404Y-20901D02*
X2119Y-20901D01*
X2119Y-20301D01*
X2404Y-20301D01*
G54D17*
X36946Y-3452D02*
X36946Y-3098D01*
X37081Y-3098D01*
X37114Y-3115D01*
X37131Y-3131D01*
X37148Y-3165D01*
X37148Y-3216D01*
X37131Y-3250D01*
X37114Y-3266D01*
X37081Y-3283D01*
X36946Y-3283D01*
X37486Y-3452D02*
X37283Y-3452D01*
X37384Y-3452D02*
X37384Y-3098D01*
X37351Y-3148D01*
X37317Y-3182D01*
X37283Y-3199D01*
X37654Y-3452D02*
X37722Y-3452D01*
X37756Y-3435D01*
X37772Y-3418D01*
X37806Y-3368D01*
X37823Y-3300D01*
X37823Y-3165D01*
X37806Y-3131D01*
X37789Y-3115D01*
X37756Y-3098D01*
X37688Y-3098D01*
X37654Y-3115D01*
X37637Y-3131D01*
X37621Y-3165D01*
X37621Y-3250D01*
X37637Y-3283D01*
X37654Y-3300D01*
X37688Y-3317D01*
X37756Y-3317D01*
X37789Y-3300D01*
X37806Y-3283D01*
X37823Y-3250D01*
X37271Y-1777D02*
X37153Y-1608D01*
X37068Y-1777D02*
X37068Y-1423D01*
X37203Y-1423D01*
X37237Y-1440D01*
X37254Y-1456D01*
X37271Y-1490D01*
X37271Y-1541D01*
X37254Y-1575D01*
X37237Y-1591D01*
X37203Y-1608D01*
X37068Y-1608D01*
X37473Y-1777D02*
X37440Y-1760D01*
X37423Y-1743D01*
X37406Y-1709D01*
X37406Y-1608D01*
X37423Y-1575D01*
X37440Y-1558D01*
X37473Y-1541D01*
X37524Y-1541D01*
X37558Y-1558D01*
X37575Y-1575D01*
X37592Y-1608D01*
X37592Y-1709D01*
X37575Y-1743D01*
X37558Y-1760D01*
X37524Y-1777D01*
X37473Y-1777D01*
X37710Y-1541D02*
X37777Y-1777D01*
X37845Y-1608D01*
X37912Y-1777D01*
X37980Y-1541D01*
X38098Y-1456D02*
X38115Y-1440D01*
X38148Y-1423D01*
X38233Y-1423D01*
X38266Y-1440D01*
X38283Y-1456D01*
X38300Y-1490D01*
X38300Y-1524D01*
X38283Y-1575D01*
X38081Y-1777D01*
X38300Y-1777D01*
X36946Y-4452D02*
X36946Y-4098D01*
X37081Y-4098D01*
X37114Y-4115D01*
X37131Y-4131D01*
X37148Y-4165D01*
X37148Y-4216D01*
X37131Y-4250D01*
X37114Y-4266D01*
X37081Y-4283D01*
X36946Y-4283D01*
X37283Y-4131D02*
X37300Y-4115D01*
X37334Y-4098D01*
X37418Y-4098D01*
X37452Y-4115D01*
X37469Y-4131D01*
X37486Y-4165D01*
X37486Y-4199D01*
X37469Y-4250D01*
X37266Y-4452D01*
X37486Y-4452D01*
X37705Y-4098D02*
X37739Y-4098D01*
X37772Y-4115D01*
X37789Y-4131D01*
X37806Y-4165D01*
X37823Y-4233D01*
X37823Y-4317D01*
X37806Y-4384D01*
X37789Y-4418D01*
X37772Y-4435D01*
X37739Y-4452D01*
X37705Y-4452D01*
X37671Y-4435D01*
X37654Y-4418D01*
X37637Y-4384D01*
X37621Y-4317D01*
X37621Y-4233D01*
X37637Y-4165D01*
X37654Y-4131D01*
X37671Y-4115D01*
X37705Y-4098D01*
X37271Y-2777D02*
X37153Y-2608D01*
X37068Y-2777D02*
X37068Y-2423D01*
X37203Y-2423D01*
X37237Y-2440D01*
X37254Y-2456D01*
X37271Y-2490D01*
X37271Y-2541D01*
X37254Y-2575D01*
X37237Y-2591D01*
X37203Y-2608D01*
X37068Y-2608D01*
X37473Y-2777D02*
X37440Y-2760D01*
X37423Y-2743D01*
X37406Y-2709D01*
X37406Y-2608D01*
X37423Y-2575D01*
X37440Y-2558D01*
X37473Y-2541D01*
X37524Y-2541D01*
X37558Y-2558D01*
X37575Y-2575D01*
X37592Y-2608D01*
X37592Y-2709D01*
X37575Y-2743D01*
X37558Y-2760D01*
X37524Y-2777D01*
X37473Y-2777D01*
X37710Y-2541D02*
X37777Y-2777D01*
X37845Y-2608D01*
X37912Y-2777D01*
X37980Y-2541D01*
X38081Y-2423D02*
X38300Y-2423D01*
X38182Y-2558D01*
X38233Y-2558D01*
X38266Y-2575D01*
X38283Y-2591D01*
X38300Y-2625D01*
X38300Y-2709D01*
X38283Y-2743D01*
X38266Y-2760D01*
X38233Y-2777D01*
X38131Y-2777D01*
X38098Y-2760D01*
X38081Y-2743D01*
X36946Y-5452D02*
X36946Y-5098D01*
X37081Y-5098D01*
X37114Y-5115D01*
X37131Y-5131D01*
X37148Y-5165D01*
X37148Y-5216D01*
X37131Y-5250D01*
X37114Y-5266D01*
X37081Y-5283D01*
X36946Y-5283D01*
X37283Y-5131D02*
X37300Y-5115D01*
X37334Y-5098D01*
X37418Y-5098D01*
X37452Y-5115D01*
X37469Y-5131D01*
X37486Y-5165D01*
X37486Y-5199D01*
X37469Y-5250D01*
X37266Y-5452D01*
X37486Y-5452D01*
X37823Y-5452D02*
X37621Y-5452D01*
X37722Y-5452D02*
X37722Y-5098D01*
X37688Y-5148D01*
X37654Y-5182D01*
X37621Y-5199D01*
X37271Y-3777D02*
X37153Y-3608D01*
X37068Y-3777D02*
X37068Y-3423D01*
X37203Y-3423D01*
X37237Y-3440D01*
X37254Y-3456D01*
X37271Y-3490D01*
X37271Y-3541D01*
X37254Y-3575D01*
X37237Y-3591D01*
X37203Y-3608D01*
X37068Y-3608D01*
X37473Y-3777D02*
X37440Y-3760D01*
X37423Y-3743D01*
X37406Y-3709D01*
X37406Y-3608D01*
X37423Y-3575D01*
X37440Y-3558D01*
X37473Y-3541D01*
X37524Y-3541D01*
X37558Y-3558D01*
X37575Y-3575D01*
X37592Y-3608D01*
X37592Y-3709D01*
X37575Y-3743D01*
X37558Y-3760D01*
X37524Y-3777D01*
X37473Y-3777D01*
X37710Y-3541D02*
X37777Y-3777D01*
X37845Y-3608D01*
X37912Y-3777D01*
X37980Y-3541D01*
X38266Y-3541D02*
X38266Y-3777D01*
X38182Y-3406D02*
X38098Y-3659D01*
X38317Y-3659D01*
X44446Y-6452D02*
X44446Y-6098D01*
X44581Y-6098D01*
X44614Y-6115D01*
X44631Y-6131D01*
X44648Y-6165D01*
X44648Y-6216D01*
X44631Y-6250D01*
X44614Y-6266D01*
X44581Y-6283D01*
X44446Y-6283D01*
X44783Y-6131D02*
X44800Y-6115D01*
X44834Y-6098D01*
X44918Y-6098D01*
X44952Y-6115D01*
X44969Y-6131D01*
X44986Y-6165D01*
X44986Y-6199D01*
X44969Y-6250D01*
X44766Y-6452D01*
X44986Y-6452D01*
X45104Y-6098D02*
X45323Y-6098D01*
X45205Y-6233D01*
X45256Y-6233D01*
X45289Y-6250D01*
X45306Y-6266D01*
X45323Y-6300D01*
X45323Y-6384D01*
X45306Y-6418D01*
X45289Y-6435D01*
X45256Y-6452D01*
X45154Y-6452D01*
X45121Y-6435D01*
X45104Y-6418D01*
X44864Y-4743D02*
X44847Y-4760D01*
X44796Y-4777D01*
X44762Y-4777D01*
X44712Y-4760D01*
X44678Y-4726D01*
X44661Y-4693D01*
X44644Y-4625D01*
X44644Y-4575D01*
X44661Y-4507D01*
X44678Y-4473D01*
X44712Y-4440D01*
X44762Y-4423D01*
X44796Y-4423D01*
X44847Y-4440D01*
X44864Y-4456D01*
X45066Y-4777D02*
X45032Y-4760D01*
X45016Y-4743D01*
X44999Y-4709D01*
X44999Y-4608D01*
X45016Y-4575D01*
X45032Y-4558D01*
X45066Y-4541D01*
X45117Y-4541D01*
X45151Y-4558D01*
X45167Y-4575D01*
X45184Y-4608D01*
X45184Y-4709D01*
X45167Y-4743D01*
X45151Y-4760D01*
X45117Y-4777D01*
X45066Y-4777D01*
X45387Y-4777D02*
X45353Y-4760D01*
X45336Y-4726D01*
X45336Y-4423D01*
X45707Y-4777D02*
X45505Y-4777D01*
X45606Y-4777D02*
X45606Y-4423D01*
X45572Y-4473D01*
X45539Y-4507D01*
X45505Y-4524D01*
X44446Y-5452D02*
X44446Y-5098D01*
X44581Y-5098D01*
X44614Y-5115D01*
X44631Y-5131D01*
X44648Y-5165D01*
X44648Y-5216D01*
X44631Y-5250D01*
X44614Y-5266D01*
X44581Y-5283D01*
X44446Y-5283D01*
X44783Y-5131D02*
X44800Y-5115D01*
X44834Y-5098D01*
X44918Y-5098D01*
X44952Y-5115D01*
X44969Y-5131D01*
X44986Y-5165D01*
X44986Y-5199D01*
X44969Y-5250D01*
X44766Y-5452D01*
X44986Y-5452D01*
X45306Y-5098D02*
X45137Y-5098D01*
X45121Y-5266D01*
X45137Y-5250D01*
X45171Y-5233D01*
X45256Y-5233D01*
X45289Y-5250D01*
X45306Y-5266D01*
X45323Y-5300D01*
X45323Y-5384D01*
X45306Y-5418D01*
X45289Y-5435D01*
X45256Y-5452D01*
X45171Y-5452D01*
X45137Y-5435D01*
X45121Y-5418D01*
X44864Y-3743D02*
X44847Y-3760D01*
X44796Y-3777D01*
X44762Y-3777D01*
X44712Y-3760D01*
X44678Y-3726D01*
X44661Y-3693D01*
X44644Y-3625D01*
X44644Y-3575D01*
X44661Y-3507D01*
X44678Y-3473D01*
X44712Y-3440D01*
X44762Y-3423D01*
X44796Y-3423D01*
X44847Y-3440D01*
X44864Y-3456D01*
X45066Y-3777D02*
X45032Y-3760D01*
X45016Y-3743D01*
X44999Y-3709D01*
X44999Y-3608D01*
X45016Y-3575D01*
X45032Y-3558D01*
X45066Y-3541D01*
X45117Y-3541D01*
X45151Y-3558D01*
X45167Y-3575D01*
X45184Y-3608D01*
X45184Y-3709D01*
X45167Y-3743D01*
X45151Y-3760D01*
X45117Y-3777D01*
X45066Y-3777D01*
X45387Y-3777D02*
X45353Y-3760D01*
X45336Y-3726D01*
X45336Y-3423D01*
X45488Y-3423D02*
X45707Y-3423D01*
X45589Y-3558D01*
X45640Y-3558D01*
X45674Y-3575D01*
X45691Y-3591D01*
X45707Y-3625D01*
X45707Y-3709D01*
X45691Y-3743D01*
X45674Y-3760D01*
X45640Y-3777D01*
X45539Y-3777D01*
X45505Y-3760D01*
X45488Y-3743D01*
X44446Y-2452D02*
X44446Y-2098D01*
X44581Y-2098D01*
X44614Y-2115D01*
X44631Y-2131D01*
X44648Y-2165D01*
X44648Y-2216D01*
X44631Y-2250D01*
X44614Y-2266D01*
X44581Y-2283D01*
X44446Y-2283D01*
X44783Y-2131D02*
X44800Y-2115D01*
X44834Y-2098D01*
X44918Y-2098D01*
X44952Y-2115D01*
X44969Y-2131D01*
X44986Y-2165D01*
X44986Y-2199D01*
X44969Y-2250D01*
X44766Y-2452D01*
X44986Y-2452D01*
X45289Y-2098D02*
X45222Y-2098D01*
X45188Y-2115D01*
X45171Y-2131D01*
X45137Y-2182D01*
X45121Y-2250D01*
X45121Y-2384D01*
X45137Y-2418D01*
X45154Y-2435D01*
X45188Y-2452D01*
X45256Y-2452D01*
X45289Y-2435D01*
X45306Y-2418D01*
X45323Y-2384D01*
X45323Y-2300D01*
X45306Y-2266D01*
X45289Y-2250D01*
X45256Y-2233D01*
X45188Y-2233D01*
X45154Y-2250D01*
X45137Y-2266D01*
X45121Y-2300D01*
X44864Y-743D02*
X44847Y-760D01*
X44796Y-777D01*
X44762Y-777D01*
X44712Y-760D01*
X44678Y-726D01*
X44661Y-693D01*
X44644Y-625D01*
X44644Y-575D01*
X44661Y-507D01*
X44678Y-473D01*
X44712Y-440D01*
X44762Y-423D01*
X44796Y-423D01*
X44847Y-440D01*
X44864Y-456D01*
X45066Y-777D02*
X45032Y-760D01*
X45016Y-743D01*
X44999Y-709D01*
X44999Y-608D01*
X45016Y-575D01*
X45032Y-558D01*
X45066Y-541D01*
X45117Y-541D01*
X45151Y-558D01*
X45167Y-575D01*
X45184Y-608D01*
X45184Y-709D01*
X45167Y-743D01*
X45151Y-760D01*
X45117Y-777D01*
X45066Y-777D01*
X45387Y-777D02*
X45353Y-760D01*
X45336Y-726D01*
X45336Y-423D01*
X45674Y-541D02*
X45674Y-777D01*
X45589Y-406D02*
X45505Y-659D01*
X45724Y-659D01*
X36946Y-6452D02*
X36946Y-6098D01*
X37081Y-6098D01*
X37114Y-6115D01*
X37131Y-6131D01*
X37148Y-6165D01*
X37148Y-6216D01*
X37131Y-6250D01*
X37114Y-6266D01*
X37081Y-6283D01*
X36946Y-6283D01*
X37486Y-6452D02*
X37283Y-6452D01*
X37384Y-6452D02*
X37384Y-6098D01*
X37351Y-6148D01*
X37317Y-6182D01*
X37283Y-6199D01*
X37688Y-6250D02*
X37654Y-6233D01*
X37637Y-6216D01*
X37621Y-6182D01*
X37621Y-6165D01*
X37637Y-6131D01*
X37654Y-6115D01*
X37688Y-6098D01*
X37756Y-6098D01*
X37789Y-6115D01*
X37806Y-6131D01*
X37823Y-6165D01*
X37823Y-6182D01*
X37806Y-6216D01*
X37789Y-6233D01*
X37756Y-6250D01*
X37688Y-6250D01*
X37654Y-6266D01*
X37637Y-6283D01*
X37621Y-6317D01*
X37621Y-6384D01*
X37637Y-6418D01*
X37654Y-6435D01*
X37688Y-6452D01*
X37756Y-6452D01*
X37789Y-6435D01*
X37806Y-6418D01*
X37823Y-6384D01*
X37823Y-6317D01*
X37806Y-6283D01*
X37789Y-6266D01*
X37756Y-6250D01*
X37271Y-4777D02*
X37153Y-4608D01*
X37068Y-4777D02*
X37068Y-4423D01*
X37203Y-4423D01*
X37237Y-4440D01*
X37254Y-4456D01*
X37271Y-4490D01*
X37271Y-4541D01*
X37254Y-4575D01*
X37237Y-4591D01*
X37203Y-4608D01*
X37068Y-4608D01*
X37473Y-4777D02*
X37440Y-4760D01*
X37423Y-4743D01*
X37406Y-4709D01*
X37406Y-4608D01*
X37423Y-4575D01*
X37440Y-4558D01*
X37473Y-4541D01*
X37524Y-4541D01*
X37558Y-4558D01*
X37575Y-4575D01*
X37592Y-4608D01*
X37592Y-4709D01*
X37575Y-4743D01*
X37558Y-4760D01*
X37524Y-4777D01*
X37473Y-4777D01*
X37710Y-4541D02*
X37777Y-4777D01*
X37845Y-4608D01*
X37912Y-4777D01*
X37980Y-4541D01*
X38300Y-4777D02*
X38098Y-4777D01*
X38199Y-4777D02*
X38199Y-4423D01*
X38165Y-4473D01*
X38131Y-4507D01*
X38098Y-4524D01*
X51946Y-3452D02*
X51946Y-3098D01*
X52081Y-3098D01*
X52114Y-3115D01*
X52131Y-3131D01*
X52148Y-3165D01*
X52148Y-3216D01*
X52131Y-3250D01*
X52114Y-3266D01*
X52081Y-3283D01*
X51946Y-3283D01*
X52283Y-3131D02*
X52300Y-3115D01*
X52334Y-3098D01*
X52418Y-3098D01*
X52452Y-3115D01*
X52469Y-3131D01*
X52486Y-3165D01*
X52486Y-3199D01*
X52469Y-3250D01*
X52266Y-3452D01*
X52486Y-3452D01*
X52654Y-3452D02*
X52722Y-3452D01*
X52756Y-3435D01*
X52772Y-3418D01*
X52806Y-3368D01*
X52823Y-3300D01*
X52823Y-3165D01*
X52806Y-3131D01*
X52789Y-3115D01*
X52756Y-3098D01*
X52688Y-3098D01*
X52654Y-3115D01*
X52637Y-3131D01*
X52621Y-3165D01*
X52621Y-3250D01*
X52637Y-3283D01*
X52654Y-3300D01*
X52688Y-3317D01*
X52756Y-3317D01*
X52789Y-3300D01*
X52806Y-3283D01*
X52823Y-3250D01*
X52364Y-1743D02*
X52347Y-1760D01*
X52296Y-1777D01*
X52262Y-1777D01*
X52212Y-1760D01*
X52178Y-1726D01*
X52161Y-1693D01*
X52144Y-1625D01*
X52144Y-1575D01*
X52161Y-1507D01*
X52178Y-1473D01*
X52212Y-1440D01*
X52262Y-1423D01*
X52296Y-1423D01*
X52347Y-1440D01*
X52364Y-1456D01*
X52566Y-1777D02*
X52532Y-1760D01*
X52516Y-1743D01*
X52499Y-1709D01*
X52499Y-1608D01*
X52516Y-1575D01*
X52532Y-1558D01*
X52566Y-1541D01*
X52617Y-1541D01*
X52651Y-1558D01*
X52667Y-1575D01*
X52684Y-1608D01*
X52684Y-1709D01*
X52667Y-1743D01*
X52651Y-1760D01*
X52617Y-1777D01*
X52566Y-1777D01*
X52887Y-1777D02*
X52853Y-1760D01*
X52836Y-1726D01*
X52836Y-1423D01*
X52988Y-1423D02*
X53224Y-1423D01*
X53072Y-1777D01*
X51946Y-6452D02*
X51946Y-6098D01*
X52081Y-6098D01*
X52114Y-6115D01*
X52131Y-6131D01*
X52148Y-6165D01*
X52148Y-6216D01*
X52131Y-6250D01*
X52114Y-6266D01*
X52081Y-6283D01*
X51946Y-6283D01*
X52266Y-6098D02*
X52486Y-6098D01*
X52367Y-6233D01*
X52418Y-6233D01*
X52452Y-6250D01*
X52469Y-6266D01*
X52486Y-6300D01*
X52486Y-6384D01*
X52469Y-6418D01*
X52452Y-6435D01*
X52418Y-6452D01*
X52317Y-6452D01*
X52283Y-6435D01*
X52266Y-6418D01*
X52705Y-6098D02*
X52739Y-6098D01*
X52772Y-6115D01*
X52789Y-6131D01*
X52806Y-6165D01*
X52823Y-6233D01*
X52823Y-6317D01*
X52806Y-6384D01*
X52789Y-6418D01*
X52772Y-6435D01*
X52739Y-6452D01*
X52705Y-6452D01*
X52671Y-6435D01*
X52654Y-6418D01*
X52637Y-6384D01*
X52621Y-6317D01*
X52621Y-6233D01*
X52637Y-6165D01*
X52654Y-6131D01*
X52671Y-6115D01*
X52705Y-6098D01*
X52364Y-4743D02*
X52347Y-4760D01*
X52296Y-4777D01*
X52262Y-4777D01*
X52212Y-4760D01*
X52178Y-4726D01*
X52161Y-4693D01*
X52144Y-4625D01*
X52144Y-4575D01*
X52161Y-4507D01*
X52178Y-4473D01*
X52212Y-4440D01*
X52262Y-4423D01*
X52296Y-4423D01*
X52347Y-4440D01*
X52364Y-4456D01*
X52566Y-4777D02*
X52532Y-4760D01*
X52516Y-4743D01*
X52499Y-4709D01*
X52499Y-4608D01*
X52516Y-4575D01*
X52532Y-4558D01*
X52566Y-4541D01*
X52617Y-4541D01*
X52651Y-4558D01*
X52667Y-4575D01*
X52684Y-4608D01*
X52684Y-4709D01*
X52667Y-4743D01*
X52651Y-4760D01*
X52617Y-4777D01*
X52566Y-4777D01*
X52887Y-4777D02*
X52853Y-4760D01*
X52836Y-4726D01*
X52836Y-4423D01*
X53072Y-4575D02*
X53039Y-4558D01*
X53022Y-4541D01*
X53005Y-4507D01*
X53005Y-4490D01*
X53022Y-4456D01*
X53039Y-4440D01*
X53072Y-4423D01*
X53140Y-4423D01*
X53174Y-4440D01*
X53191Y-4456D01*
X53207Y-4490D01*
X53207Y-4507D01*
X53191Y-4541D01*
X53174Y-4558D01*
X53140Y-4575D01*
X53072Y-4575D01*
X53039Y-4591D01*
X53022Y-4608D01*
X53005Y-4642D01*
X53005Y-4709D01*
X53022Y-4743D01*
X53039Y-4760D01*
X53072Y-4777D01*
X53140Y-4777D01*
X53174Y-4760D01*
X53191Y-4743D01*
X53207Y-4709D01*
X53207Y-4642D01*
X53191Y-4608D01*
X53174Y-4591D01*
X53140Y-4575D01*
X51946Y-5452D02*
X51946Y-5098D01*
X52081Y-5098D01*
X52114Y-5115D01*
X52131Y-5131D01*
X52148Y-5165D01*
X52148Y-5216D01*
X52131Y-5250D01*
X52114Y-5266D01*
X52081Y-5283D01*
X51946Y-5283D01*
X52266Y-5098D02*
X52486Y-5098D01*
X52367Y-5233D01*
X52418Y-5233D01*
X52452Y-5250D01*
X52469Y-5266D01*
X52486Y-5300D01*
X52486Y-5384D01*
X52469Y-5418D01*
X52452Y-5435D01*
X52418Y-5452D01*
X52317Y-5452D01*
X52283Y-5435D01*
X52266Y-5418D01*
X52823Y-5452D02*
X52621Y-5452D01*
X52722Y-5452D02*
X52722Y-5098D01*
X52688Y-5148D01*
X52654Y-5182D01*
X52621Y-5199D01*
X52364Y-3743D02*
X52347Y-3760D01*
X52296Y-3777D01*
X52262Y-3777D01*
X52212Y-3760D01*
X52178Y-3726D01*
X52161Y-3693D01*
X52144Y-3625D01*
X52144Y-3575D01*
X52161Y-3507D01*
X52178Y-3473D01*
X52212Y-3440D01*
X52262Y-3423D01*
X52296Y-3423D01*
X52347Y-3440D01*
X52364Y-3456D01*
X52566Y-3777D02*
X52532Y-3760D01*
X52516Y-3743D01*
X52499Y-3709D01*
X52499Y-3608D01*
X52516Y-3575D01*
X52532Y-3558D01*
X52566Y-3541D01*
X52617Y-3541D01*
X52651Y-3558D01*
X52667Y-3575D01*
X52684Y-3608D01*
X52684Y-3709D01*
X52667Y-3743D01*
X52651Y-3760D01*
X52617Y-3777D01*
X52566Y-3777D01*
X52887Y-3777D02*
X52853Y-3760D01*
X52836Y-3726D01*
X52836Y-3423D01*
X53039Y-3777D02*
X53106Y-3777D01*
X53140Y-3760D01*
X53157Y-3743D01*
X53191Y-3693D01*
X53207Y-3625D01*
X53207Y-3490D01*
X53191Y-3456D01*
X53174Y-3440D01*
X53140Y-3423D01*
X53072Y-3423D01*
X53039Y-3440D01*
X53022Y-3456D01*
X53005Y-3490D01*
X53005Y-3575D01*
X53022Y-3608D01*
X53039Y-3625D01*
X53072Y-3642D01*
X53140Y-3642D01*
X53174Y-3625D01*
X53191Y-3608D01*
X53207Y-3575D01*
X51946Y-4452D02*
X51946Y-4098D01*
X52081Y-4098D01*
X52114Y-4115D01*
X52131Y-4131D01*
X52148Y-4165D01*
X52148Y-4216D01*
X52131Y-4250D01*
X52114Y-4266D01*
X52081Y-4283D01*
X51946Y-4283D01*
X52266Y-4098D02*
X52486Y-4098D01*
X52367Y-4233D01*
X52418Y-4233D01*
X52452Y-4250D01*
X52469Y-4266D01*
X52486Y-4300D01*
X52486Y-4384D01*
X52469Y-4418D01*
X52452Y-4435D01*
X52418Y-4452D01*
X52317Y-4452D01*
X52283Y-4435D01*
X52266Y-4418D01*
X52621Y-4131D02*
X52637Y-4115D01*
X52671Y-4098D01*
X52756Y-4098D01*
X52789Y-4115D01*
X52806Y-4131D01*
X52823Y-4165D01*
X52823Y-4199D01*
X52806Y-4250D01*
X52604Y-4452D01*
X52823Y-4452D01*
X52195Y-2743D02*
X52178Y-2760D01*
X52128Y-2777D01*
X52094Y-2777D01*
X52043Y-2760D01*
X52009Y-2726D01*
X51993Y-2693D01*
X51976Y-2625D01*
X51976Y-2575D01*
X51993Y-2507D01*
X52009Y-2473D01*
X52043Y-2440D01*
X52094Y-2423D01*
X52128Y-2423D01*
X52178Y-2440D01*
X52195Y-2456D01*
X52397Y-2777D02*
X52364Y-2760D01*
X52347Y-2743D01*
X52330Y-2709D01*
X52330Y-2608D01*
X52347Y-2575D01*
X52364Y-2558D01*
X52397Y-2541D01*
X52448Y-2541D01*
X52482Y-2558D01*
X52499Y-2575D01*
X52516Y-2608D01*
X52516Y-2709D01*
X52499Y-2743D01*
X52482Y-2760D01*
X52448Y-2777D01*
X52397Y-2777D01*
X52718Y-2777D02*
X52684Y-2760D01*
X52667Y-2726D01*
X52667Y-2423D01*
X53039Y-2777D02*
X52836Y-2777D01*
X52937Y-2777D02*
X52937Y-2423D01*
X52904Y-2473D01*
X52870Y-2507D01*
X52836Y-2524D01*
X53258Y-2423D02*
X53292Y-2423D01*
X53325Y-2440D01*
X53342Y-2456D01*
X53359Y-2490D01*
X53376Y-2558D01*
X53376Y-2642D01*
X53359Y-2709D01*
X53342Y-2743D01*
X53325Y-2760D01*
X53292Y-2777D01*
X53258Y-2777D01*
X53224Y-2760D01*
X53207Y-2743D01*
X53191Y-2709D01*
X53174Y-2642D01*
X53174Y-2558D01*
X53191Y-2490D01*
X53207Y-2456D01*
X53224Y-2440D01*
X53258Y-2423D01*
X59471Y-2365D02*
X59471Y-2011D01*
X59606Y-2011D01*
X59639Y-2028D01*
X59656Y-2044D01*
X59673Y-2078D01*
X59673Y-2129D01*
X59656Y-2163D01*
X59639Y-2179D01*
X59606Y-2196D01*
X59471Y-2196D01*
X59791Y-2011D02*
X60011Y-2011D01*
X59892Y-2146D01*
X59943Y-2146D01*
X59977Y-2163D01*
X59994Y-2179D01*
X60011Y-2213D01*
X60011Y-2297D01*
X59994Y-2331D01*
X59977Y-2348D01*
X59943Y-2365D01*
X59842Y-2365D01*
X59808Y-2348D01*
X59791Y-2331D01*
X60129Y-2011D02*
X60348Y-2011D01*
X60230Y-2146D01*
X60281Y-2146D01*
X60314Y-2163D01*
X60331Y-2179D01*
X60348Y-2213D01*
X60348Y-2297D01*
X60331Y-2331D01*
X60314Y-2348D01*
X60281Y-2365D01*
X60179Y-2365D01*
X60146Y-2348D01*
X60129Y-2331D01*
X59370Y-1031D02*
X59353Y-1048D01*
X59303Y-1065D01*
X59269Y-1065D01*
X59218Y-1048D01*
X59184Y-1014D01*
X59168Y-981D01*
X59151Y-913D01*
X59151Y-863D01*
X59168Y-795D01*
X59184Y-761D01*
X59218Y-728D01*
X59269Y-711D01*
X59303Y-711D01*
X59353Y-728D01*
X59370Y-744D01*
X59572Y-1065D02*
X59539Y-1048D01*
X59522Y-1031D01*
X59505Y-997D01*
X59505Y-896D01*
X59522Y-863D01*
X59539Y-846D01*
X59572Y-829D01*
X59623Y-829D01*
X59657Y-846D01*
X59674Y-863D01*
X59691Y-896D01*
X59691Y-997D01*
X59674Y-1031D01*
X59657Y-1048D01*
X59623Y-1065D01*
X59572Y-1065D01*
X59893Y-1065D02*
X59859Y-1048D01*
X59842Y-1014D01*
X59842Y-711D01*
X60214Y-1065D02*
X60011Y-1065D01*
X60112Y-1065D02*
X60112Y-711D01*
X60079Y-761D01*
X60045Y-795D01*
X60011Y-812D01*
X60551Y-1065D02*
X60349Y-1065D01*
X60450Y-1065D02*
X60450Y-711D01*
X60416Y-761D01*
X60382Y-795D01*
X60349Y-812D01*
X59421Y-4415D02*
X59421Y-4061D01*
X59556Y-4061D01*
X59589Y-4078D01*
X59606Y-4094D01*
X59623Y-4128D01*
X59623Y-4179D01*
X59606Y-4213D01*
X59589Y-4229D01*
X59556Y-4246D01*
X59421Y-4246D01*
X59741Y-4061D02*
X59961Y-4061D01*
X59842Y-4196D01*
X59893Y-4196D01*
X59927Y-4213D01*
X59944Y-4229D01*
X59961Y-4263D01*
X59961Y-4347D01*
X59944Y-4381D01*
X59927Y-4398D01*
X59893Y-4415D01*
X59792Y-4415D01*
X59758Y-4398D01*
X59741Y-4381D01*
X60264Y-4179D02*
X60264Y-4415D01*
X60180Y-4044D02*
X60096Y-4297D01*
X60315Y-4297D01*
X59370Y-3081D02*
X59353Y-3098D01*
X59303Y-3115D01*
X59269Y-3115D01*
X59218Y-3098D01*
X59184Y-3064D01*
X59168Y-3031D01*
X59151Y-2963D01*
X59151Y-2913D01*
X59168Y-2845D01*
X59184Y-2811D01*
X59218Y-2778D01*
X59269Y-2761D01*
X59303Y-2761D01*
X59353Y-2778D01*
X59370Y-2794D01*
X59572Y-3115D02*
X59539Y-3098D01*
X59522Y-3081D01*
X59505Y-3047D01*
X59505Y-2946D01*
X59522Y-2913D01*
X59539Y-2896D01*
X59572Y-2879D01*
X59623Y-2879D01*
X59657Y-2896D01*
X59674Y-2913D01*
X59691Y-2946D01*
X59691Y-3047D01*
X59674Y-3081D01*
X59657Y-3098D01*
X59623Y-3115D01*
X59572Y-3115D01*
X59893Y-3115D02*
X59859Y-3098D01*
X59842Y-3064D01*
X59842Y-2761D01*
X60214Y-3115D02*
X60011Y-3115D01*
X60112Y-3115D02*
X60112Y-2761D01*
X60079Y-2811D01*
X60045Y-2845D01*
X60011Y-2862D01*
X60349Y-2794D02*
X60366Y-2778D01*
X60399Y-2761D01*
X60484Y-2761D01*
X60517Y-2778D01*
X60534Y-2794D01*
X60551Y-2828D01*
X60551Y-2862D01*
X60534Y-2913D01*
X60332Y-3115D01*
X60551Y-3115D01*
X51946Y-2452D02*
X51946Y-2098D01*
X52081Y-2098D01*
X52114Y-2115D01*
X52131Y-2131D01*
X52148Y-2165D01*
X52148Y-2216D01*
X52131Y-2250D01*
X52114Y-2266D01*
X52081Y-2283D01*
X51946Y-2283D01*
X52283Y-2131D02*
X52300Y-2115D01*
X52334Y-2098D01*
X52418Y-2098D01*
X52452Y-2115D01*
X52469Y-2131D01*
X52486Y-2165D01*
X52486Y-2199D01*
X52469Y-2250D01*
X52266Y-2452D01*
X52486Y-2452D01*
X52688Y-2250D02*
X52654Y-2233D01*
X52637Y-2216D01*
X52621Y-2182D01*
X52621Y-2165D01*
X52637Y-2131D01*
X52654Y-2115D01*
X52688Y-2098D01*
X52756Y-2098D01*
X52789Y-2115D01*
X52806Y-2131D01*
X52823Y-2165D01*
X52823Y-2182D01*
X52806Y-2216D01*
X52789Y-2233D01*
X52756Y-2250D01*
X52688Y-2250D01*
X52654Y-2266D01*
X52637Y-2283D01*
X52621Y-2317D01*
X52621Y-2384D01*
X52637Y-2418D01*
X52654Y-2435D01*
X52688Y-2452D01*
X52756Y-2452D01*
X52789Y-2435D01*
X52806Y-2418D01*
X52823Y-2384D01*
X52823Y-2317D01*
X52806Y-2283D01*
X52789Y-2266D01*
X52756Y-2250D01*
X52364Y-743D02*
X52347Y-760D01*
X52296Y-777D01*
X52262Y-777D01*
X52212Y-760D01*
X52178Y-726D01*
X52161Y-693D01*
X52144Y-625D01*
X52144Y-575D01*
X52161Y-507D01*
X52178Y-473D01*
X52212Y-440D01*
X52262Y-423D01*
X52296Y-423D01*
X52347Y-440D01*
X52364Y-456D01*
X52566Y-777D02*
X52532Y-760D01*
X52516Y-743D01*
X52499Y-709D01*
X52499Y-608D01*
X52516Y-575D01*
X52532Y-558D01*
X52566Y-541D01*
X52617Y-541D01*
X52651Y-558D01*
X52667Y-575D01*
X52684Y-608D01*
X52684Y-709D01*
X52667Y-743D01*
X52651Y-760D01*
X52617Y-777D01*
X52566Y-777D01*
X52887Y-777D02*
X52853Y-760D01*
X52836Y-726D01*
X52836Y-423D01*
X53174Y-423D02*
X53106Y-423D01*
X53072Y-440D01*
X53056Y-456D01*
X53022Y-507D01*
X53005Y-575D01*
X53005Y-709D01*
X53022Y-743D01*
X53039Y-760D01*
X53072Y-777D01*
X53140Y-777D01*
X53174Y-760D01*
X53191Y-743D01*
X53207Y-709D01*
X53207Y-625D01*
X53191Y-591D01*
X53174Y-575D01*
X53140Y-558D01*
X53072Y-558D01*
X53039Y-575D01*
X53022Y-591D01*
X53005Y-625D01*
X36171Y-22515D02*
X36171Y-22161D01*
X36306Y-22161D01*
X36339Y-22178D01*
X36356Y-22194D01*
X36373Y-22228D01*
X36373Y-22279D01*
X36356Y-22313D01*
X36339Y-22329D01*
X36306Y-22346D01*
X36171Y-22346D01*
X36711Y-22515D02*
X36508Y-22515D01*
X36609Y-22515D02*
X36609Y-22161D01*
X36576Y-22211D01*
X36542Y-22245D01*
X36508Y-22262D01*
X36829Y-22161D02*
X37065Y-22161D01*
X36913Y-22515D01*
X37281Y-22828D02*
X37247Y-22811D01*
X37197Y-22811D01*
X37146Y-22828D01*
X37112Y-22861D01*
X37095Y-22895D01*
X37078Y-22963D01*
X37078Y-23013D01*
X37095Y-23081D01*
X37112Y-23114D01*
X37146Y-23148D01*
X37197Y-23165D01*
X37230Y-23165D01*
X37281Y-23148D01*
X37298Y-23131D01*
X37298Y-23013D01*
X37230Y-23013D01*
X37450Y-23165D02*
X37450Y-22811D01*
X37652Y-23165D01*
X37652Y-22811D01*
X37821Y-23165D02*
X37821Y-22811D01*
X37905Y-22811D01*
X37956Y-22828D01*
X37990Y-22861D01*
X38006Y-22895D01*
X38023Y-22963D01*
X38023Y-23013D01*
X38006Y-23081D01*
X37990Y-23114D01*
X37956Y-23148D01*
X37905Y-23165D01*
X37821Y-23165D01*
X36146Y-24917D02*
X36146Y-24563D01*
X36281Y-24563D01*
X36314Y-24579D01*
X36331Y-24596D01*
X36348Y-24630D01*
X36348Y-24681D01*
X36331Y-24714D01*
X36314Y-24731D01*
X36281Y-24748D01*
X36146Y-24748D01*
X36686Y-24917D02*
X36483Y-24917D01*
X36584Y-24917D02*
X36584Y-24563D01*
X36551Y-24613D01*
X36517Y-24647D01*
X36483Y-24664D01*
X36989Y-24563D02*
X36922Y-24563D01*
X36888Y-24579D01*
X36871Y-24596D01*
X36837Y-24647D01*
X36821Y-24714D01*
X36821Y-24849D01*
X36837Y-24883D01*
X36854Y-24900D01*
X36888Y-24917D01*
X36956Y-24917D01*
X36989Y-24900D01*
X37006Y-24883D01*
X37023Y-24849D01*
X37023Y-24765D01*
X37006Y-24731D01*
X36989Y-24714D01*
X36956Y-24698D01*
X36888Y-24698D01*
X36854Y-24714D01*
X36837Y-24731D01*
X36821Y-24765D01*
X37129Y-23811D02*
X37247Y-24165D01*
X37365Y-23811D01*
X37635Y-24148D02*
X37601Y-24165D01*
X37534Y-24165D01*
X37500Y-24148D01*
X37483Y-24131D01*
X37467Y-24097D01*
X37467Y-23996D01*
X37483Y-23963D01*
X37500Y-23946D01*
X37534Y-23929D01*
X37601Y-23929D01*
X37635Y-23946D01*
X37939Y-24148D02*
X37905Y-24165D01*
X37838Y-24165D01*
X37804Y-24148D01*
X37787Y-24131D01*
X37770Y-24097D01*
X37770Y-23996D01*
X37787Y-23963D01*
X37804Y-23946D01*
X37838Y-23929D01*
X37905Y-23929D01*
X37939Y-23946D01*
X34146Y-24917D02*
X34146Y-24563D01*
X34281Y-24563D01*
X34314Y-24579D01*
X34331Y-24596D01*
X34348Y-24630D01*
X34348Y-24681D01*
X34331Y-24714D01*
X34314Y-24731D01*
X34281Y-24748D01*
X34146Y-24748D01*
X34686Y-24917D02*
X34483Y-24917D01*
X34584Y-24917D02*
X34584Y-24563D01*
X34551Y-24613D01*
X34517Y-24647D01*
X34483Y-24664D01*
X34905Y-24563D02*
X34939Y-24563D01*
X34972Y-24579D01*
X34989Y-24596D01*
X35006Y-24630D01*
X35023Y-24698D01*
X35023Y-24782D01*
X35006Y-24849D01*
X34989Y-24883D01*
X34972Y-24900D01*
X34939Y-24917D01*
X34905Y-24917D01*
X34871Y-24900D01*
X34854Y-24883D01*
X34837Y-24849D01*
X34821Y-24782D01*
X34821Y-24698D01*
X34837Y-24630D01*
X34854Y-24596D01*
X34871Y-24579D01*
X34905Y-24563D01*
X34457Y-26295D02*
X34440Y-26328D01*
X34440Y-26379D01*
X34457Y-26430D01*
X34491Y-26463D01*
X34524Y-26480D01*
X34592Y-26497D01*
X34642Y-26497D01*
X34710Y-26480D01*
X34744Y-26463D01*
X34777Y-26430D01*
X34794Y-26379D01*
X34794Y-26345D01*
X34777Y-26295D01*
X34761Y-26278D01*
X34642Y-26278D01*
X34642Y-26345D01*
X34794Y-26126D02*
X34440Y-26126D01*
X34440Y-25991D01*
X34457Y-25957D01*
X34474Y-25940D01*
X34507Y-25923D01*
X34558Y-25923D01*
X34592Y-25940D01*
X34609Y-25957D01*
X34626Y-25991D01*
X34626Y-26126D01*
X34794Y-25772D02*
X34440Y-25772D01*
X34440Y-25535D02*
X34440Y-25468D01*
X34457Y-25434D01*
X34491Y-25400D01*
X34558Y-25383D01*
X34676Y-25383D01*
X34744Y-25400D01*
X34777Y-25434D01*
X34794Y-25468D01*
X34794Y-25535D01*
X34777Y-25569D01*
X34744Y-25603D01*
X34676Y-25620D01*
X34558Y-25620D01*
X34491Y-25603D01*
X34457Y-25569D01*
X34440Y-25535D01*
X34440Y-25265D02*
X34440Y-25046D01*
X34575Y-25164D01*
X34575Y-25114D01*
X34592Y-25080D01*
X34609Y-25063D01*
X34642Y-25046D01*
X34727Y-25046D01*
X34761Y-25063D01*
X34777Y-25080D01*
X34794Y-25114D01*
X34794Y-25215D01*
X34777Y-25248D01*
X34761Y-25265D01*
X34289Y-22515D02*
X34289Y-22161D01*
X34424Y-22161D01*
X34458Y-22178D01*
X34475Y-22194D01*
X34492Y-22228D01*
X34492Y-22279D01*
X34475Y-22313D01*
X34458Y-22329D01*
X34424Y-22346D01*
X34289Y-22346D01*
X34661Y-22515D02*
X34728Y-22515D01*
X34762Y-22498D01*
X34779Y-22481D01*
X34812Y-22431D01*
X34829Y-22363D01*
X34829Y-22228D01*
X34812Y-22194D01*
X34796Y-22178D01*
X34762Y-22161D01*
X34694Y-22161D01*
X34661Y-22178D01*
X34644Y-22194D01*
X34627Y-22228D01*
X34627Y-22313D01*
X34644Y-22346D01*
X34661Y-22363D01*
X34694Y-22380D01*
X34762Y-22380D01*
X34796Y-22363D01*
X34812Y-22346D01*
X34829Y-22313D01*
X34357Y-21845D02*
X34340Y-21878D01*
X34340Y-21929D01*
X34357Y-21980D01*
X34391Y-22013D01*
X34424Y-22030D01*
X34492Y-22047D01*
X34542Y-22047D01*
X34610Y-22030D01*
X34644Y-22013D01*
X34677Y-21980D01*
X34694Y-21929D01*
X34694Y-21895D01*
X34677Y-21845D01*
X34661Y-21828D01*
X34542Y-21828D01*
X34542Y-21895D01*
X34694Y-21676D02*
X34340Y-21676D01*
X34340Y-21541D01*
X34357Y-21507D01*
X34374Y-21490D01*
X34407Y-21473D01*
X34458Y-21473D01*
X34492Y-21490D01*
X34509Y-21507D01*
X34526Y-21541D01*
X34526Y-21676D01*
X34694Y-21322D02*
X34340Y-21322D01*
X34340Y-21085D02*
X34340Y-21018D01*
X34357Y-20984D01*
X34391Y-20950D01*
X34458Y-20933D01*
X34576Y-20933D01*
X34644Y-20950D01*
X34677Y-20984D01*
X34694Y-21018D01*
X34694Y-21085D01*
X34677Y-21119D01*
X34644Y-21153D01*
X34576Y-21170D01*
X34458Y-21170D01*
X34391Y-21153D01*
X34357Y-21119D01*
X34340Y-21085D01*
X34374Y-20798D02*
X34357Y-20782D01*
X34340Y-20748D01*
X34340Y-20664D01*
X34357Y-20630D01*
X34374Y-20613D01*
X34407Y-20596D01*
X34441Y-20596D01*
X34492Y-20613D01*
X34694Y-20815D01*
X34694Y-20596D01*
X35314Y-24917D02*
X35314Y-24563D01*
X35449Y-24563D01*
X35483Y-24579D01*
X35500Y-24596D01*
X35517Y-24630D01*
X35517Y-24681D01*
X35500Y-24714D01*
X35483Y-24731D01*
X35449Y-24748D01*
X35314Y-24748D01*
X35719Y-24714D02*
X35686Y-24698D01*
X35669Y-24681D01*
X35652Y-24647D01*
X35652Y-24630D01*
X35669Y-24596D01*
X35686Y-24579D01*
X35719Y-24563D01*
X35787Y-24563D01*
X35821Y-24579D01*
X35837Y-24596D01*
X35854Y-24630D01*
X35854Y-24647D01*
X35837Y-24681D01*
X35821Y-24698D01*
X35787Y-24714D01*
X35719Y-24714D01*
X35686Y-24731D01*
X35669Y-24748D01*
X35652Y-24782D01*
X35652Y-24849D01*
X35669Y-24883D01*
X35686Y-24900D01*
X35719Y-24917D01*
X35787Y-24917D01*
X35821Y-24900D01*
X35837Y-24883D01*
X35854Y-24849D01*
X35854Y-24782D01*
X35837Y-24748D01*
X35821Y-24731D01*
X35787Y-24714D01*
X35357Y-26245D02*
X35340Y-26278D01*
X35340Y-26329D01*
X35357Y-26380D01*
X35391Y-26413D01*
X35424Y-26430D01*
X35492Y-26447D01*
X35542Y-26447D01*
X35610Y-26430D01*
X35644Y-26413D01*
X35677Y-26380D01*
X35694Y-26329D01*
X35694Y-26295D01*
X35677Y-26245D01*
X35661Y-26228D01*
X35542Y-26228D01*
X35542Y-26295D01*
X35694Y-26076D02*
X35340Y-26076D01*
X35340Y-25941D01*
X35357Y-25907D01*
X35374Y-25890D01*
X35407Y-25873D01*
X35458Y-25873D01*
X35492Y-25890D01*
X35509Y-25907D01*
X35526Y-25941D01*
X35526Y-26076D01*
X35694Y-25722D02*
X35340Y-25722D01*
X35340Y-25485D02*
X35340Y-25418D01*
X35357Y-25384D01*
X35391Y-25350D01*
X35458Y-25333D01*
X35576Y-25333D01*
X35644Y-25350D01*
X35677Y-25384D01*
X35694Y-25418D01*
X35694Y-25485D01*
X35677Y-25519D01*
X35644Y-25553D01*
X35576Y-25570D01*
X35458Y-25570D01*
X35391Y-25553D01*
X35357Y-25519D01*
X35340Y-25485D01*
X35694Y-24996D02*
X35694Y-25198D01*
X35694Y-25097D02*
X35340Y-25097D01*
X35391Y-25131D01*
X35424Y-25165D01*
X35441Y-25198D01*
X35339Y-22565D02*
X35339Y-22211D01*
X35474Y-22211D01*
X35508Y-22228D01*
X35525Y-22244D01*
X35542Y-22278D01*
X35542Y-22329D01*
X35525Y-22363D01*
X35508Y-22379D01*
X35474Y-22396D01*
X35339Y-22396D01*
X35660Y-22211D02*
X35896Y-22211D01*
X35744Y-22565D01*
X35407Y-21845D02*
X35390Y-21878D01*
X35390Y-21929D01*
X35407Y-21980D01*
X35441Y-22013D01*
X35474Y-22030D01*
X35542Y-22047D01*
X35592Y-22047D01*
X35660Y-22030D01*
X35694Y-22013D01*
X35727Y-21980D01*
X35744Y-21929D01*
X35744Y-21895D01*
X35727Y-21845D01*
X35711Y-21828D01*
X35592Y-21828D01*
X35592Y-21895D01*
X35744Y-21676D02*
X35390Y-21676D01*
X35390Y-21541D01*
X35407Y-21507D01*
X35424Y-21490D01*
X35457Y-21473D01*
X35508Y-21473D01*
X35542Y-21490D01*
X35559Y-21507D01*
X35576Y-21541D01*
X35576Y-21676D01*
X35744Y-21322D02*
X35390Y-21322D01*
X35390Y-21085D02*
X35390Y-21018D01*
X35407Y-20984D01*
X35441Y-20950D01*
X35508Y-20933D01*
X35626Y-20933D01*
X35694Y-20950D01*
X35727Y-20984D01*
X35744Y-21018D01*
X35744Y-21085D01*
X35727Y-21119D01*
X35694Y-21153D01*
X35626Y-21170D01*
X35508Y-21170D01*
X35441Y-21153D01*
X35407Y-21119D01*
X35390Y-21085D01*
X35390Y-20714D02*
X35390Y-20680D01*
X35407Y-20647D01*
X35424Y-20630D01*
X35457Y-20613D01*
X35525Y-20596D01*
X35609Y-20596D01*
X35677Y-20613D01*
X35711Y-20630D01*
X35727Y-20647D01*
X35744Y-20680D01*
X35744Y-20714D01*
X35727Y-20748D01*
X35711Y-20765D01*
X35677Y-20782D01*
X35609Y-20798D01*
X35525Y-20798D01*
X35457Y-20782D01*
X35424Y-20765D01*
X35407Y-20748D01*
X35390Y-20714D01*
X36849Y-29702D02*
X36849Y-29348D01*
X36984Y-29348D01*
X37018Y-29365D01*
X37035Y-29381D01*
X37052Y-29415D01*
X37052Y-29466D01*
X37035Y-29500D01*
X37018Y-29516D01*
X36984Y-29533D01*
X36849Y-29533D01*
X37389Y-29702D02*
X37187Y-29702D01*
X37288Y-29702D02*
X37288Y-29348D01*
X37254Y-29398D01*
X37221Y-29432D01*
X37187Y-29449D01*
X37244Y-28128D02*
X36890Y-28128D01*
X37143Y-28010D01*
X36890Y-27892D01*
X37244Y-27892D01*
X37244Y-27723D02*
X36890Y-27723D01*
X37227Y-27572D02*
X37244Y-27521D01*
X37244Y-27437D01*
X37227Y-27403D01*
X37211Y-27386D01*
X37177Y-27369D01*
X37143Y-27369D01*
X37109Y-27386D01*
X37092Y-27403D01*
X37076Y-27437D01*
X37059Y-27504D01*
X37042Y-27538D01*
X37025Y-27555D01*
X36991Y-27572D01*
X36957Y-27572D01*
X36924Y-27555D01*
X36907Y-27538D01*
X36890Y-27504D01*
X36890Y-27420D01*
X36907Y-27369D01*
X36890Y-27150D02*
X36890Y-27082D01*
X36907Y-27048D01*
X36941Y-27015D01*
X37008Y-26998D01*
X37126Y-26998D01*
X37194Y-27015D01*
X37227Y-27048D01*
X37244Y-27082D01*
X37244Y-27150D01*
X37227Y-27183D01*
X37194Y-27217D01*
X37126Y-27234D01*
X37008Y-27234D01*
X36941Y-27217D01*
X36907Y-27183D01*
X36890Y-27150D01*
X34849Y-29702D02*
X34849Y-29348D01*
X34984Y-29348D01*
X35018Y-29365D01*
X35035Y-29381D01*
X35052Y-29415D01*
X35052Y-29466D01*
X35035Y-29500D01*
X35018Y-29516D01*
X34984Y-29533D01*
X34849Y-29533D01*
X35170Y-29348D02*
X35389Y-29348D01*
X35271Y-29483D01*
X35322Y-29483D01*
X35356Y-29500D01*
X35372Y-29516D01*
X35389Y-29550D01*
X35389Y-29634D01*
X35372Y-29668D01*
X35356Y-29685D01*
X35322Y-29702D01*
X35221Y-29702D01*
X35187Y-29685D01*
X35170Y-29668D01*
X35227Y-28177D02*
X35244Y-28127D01*
X35244Y-28042D01*
X35227Y-28008D01*
X35211Y-27992D01*
X35177Y-27975D01*
X35143Y-27975D01*
X35109Y-27992D01*
X35092Y-28008D01*
X35076Y-28042D01*
X35059Y-28110D01*
X35042Y-28143D01*
X35025Y-28160D01*
X34991Y-28177D01*
X34957Y-28177D01*
X34924Y-28160D01*
X34907Y-28143D01*
X34890Y-28110D01*
X34890Y-28025D01*
X34907Y-27975D01*
X35211Y-27620D02*
X35227Y-27637D01*
X35244Y-27688D01*
X35244Y-27722D01*
X35227Y-27772D01*
X35194Y-27806D01*
X35160Y-27823D01*
X35092Y-27840D01*
X35042Y-27840D01*
X34974Y-27823D01*
X34941Y-27806D01*
X34907Y-27772D01*
X34890Y-27722D01*
X34890Y-27688D01*
X34907Y-27637D01*
X34924Y-27620D01*
X35244Y-27468D02*
X34890Y-27468D01*
X35244Y-27266D02*
X35042Y-27418D01*
X34890Y-27266D02*
X35092Y-27468D01*
X32849Y-29702D02*
X32849Y-29348D01*
X32984Y-29348D01*
X33018Y-29365D01*
X33035Y-29381D01*
X33052Y-29415D01*
X33052Y-29466D01*
X33035Y-29500D01*
X33018Y-29516D01*
X32984Y-29533D01*
X32849Y-29533D01*
X33372Y-29348D02*
X33204Y-29348D01*
X33187Y-29516D01*
X33204Y-29500D01*
X33237Y-29483D01*
X33322Y-29483D01*
X33356Y-29500D01*
X33372Y-29516D01*
X33389Y-29550D01*
X33389Y-29634D01*
X33372Y-29668D01*
X33356Y-29685D01*
X33322Y-29702D01*
X33237Y-29702D01*
X33204Y-29685D01*
X33187Y-29668D01*
X33244Y-27941D02*
X33076Y-28059D01*
X33244Y-28143D02*
X32890Y-28143D01*
X32890Y-28008D01*
X32907Y-27975D01*
X32924Y-27958D01*
X32957Y-27941D01*
X33008Y-27941D01*
X33042Y-27958D01*
X33059Y-27975D01*
X33076Y-28008D01*
X33076Y-28143D01*
X33059Y-27789D02*
X33059Y-27671D01*
X33244Y-27620D02*
X33244Y-27789D01*
X32890Y-27789D01*
X32890Y-27620D01*
X33227Y-27485D02*
X33244Y-27435D01*
X33244Y-27350D01*
X33227Y-27317D01*
X33211Y-27300D01*
X33177Y-27283D01*
X33143Y-27283D01*
X33109Y-27300D01*
X33092Y-27317D01*
X33076Y-27350D01*
X33059Y-27418D01*
X33042Y-27452D01*
X33025Y-27468D01*
X32991Y-27485D01*
X32957Y-27485D01*
X32924Y-27468D01*
X32907Y-27452D01*
X32890Y-27418D01*
X32890Y-27333D01*
X32907Y-27283D01*
X35849Y-29702D02*
X35849Y-29348D01*
X35984Y-29348D01*
X36018Y-29365D01*
X36035Y-29381D01*
X36052Y-29415D01*
X36052Y-29466D01*
X36035Y-29500D01*
X36018Y-29516D01*
X35984Y-29533D01*
X35849Y-29533D01*
X36187Y-29381D02*
X36204Y-29365D01*
X36237Y-29348D01*
X36322Y-29348D01*
X36356Y-29365D01*
X36372Y-29381D01*
X36389Y-29415D01*
X36389Y-29449D01*
X36372Y-29500D01*
X36170Y-29702D01*
X36389Y-29702D01*
X35890Y-27743D02*
X36244Y-27625D01*
X35890Y-27507D01*
X36227Y-27237D02*
X36244Y-27271D01*
X36244Y-27338D01*
X36227Y-27372D01*
X36211Y-27389D01*
X36177Y-27406D01*
X36076Y-27406D01*
X36042Y-27389D01*
X36025Y-27372D01*
X36008Y-27338D01*
X36008Y-27271D01*
X36025Y-27237D01*
X36227Y-26933D02*
X36244Y-26967D01*
X36244Y-27035D01*
X36227Y-27068D01*
X36211Y-27085D01*
X36177Y-27102D01*
X36076Y-27102D01*
X36042Y-27085D01*
X36025Y-27068D01*
X36008Y-27035D01*
X36008Y-26967D01*
X36025Y-26933D01*
X33849Y-29702D02*
X33849Y-29348D01*
X33984Y-29348D01*
X34018Y-29365D01*
X34035Y-29381D01*
X34052Y-29415D01*
X34052Y-29466D01*
X34035Y-29500D01*
X34018Y-29516D01*
X33984Y-29533D01*
X33849Y-29533D01*
X34356Y-29466D02*
X34356Y-29702D01*
X34271Y-29331D02*
X34187Y-29584D01*
X34406Y-29584D01*
X34244Y-28178D02*
X33890Y-28178D01*
X34143Y-28060D01*
X33890Y-27942D01*
X34244Y-27942D01*
X33890Y-27706D02*
X33890Y-27638D01*
X33907Y-27605D01*
X33941Y-27571D01*
X34008Y-27554D01*
X34126Y-27554D01*
X34194Y-27571D01*
X34227Y-27605D01*
X34244Y-27638D01*
X34244Y-27706D01*
X34227Y-27740D01*
X34194Y-27773D01*
X34126Y-27790D01*
X34008Y-27790D01*
X33941Y-27773D01*
X33907Y-27740D01*
X33890Y-27706D01*
X34227Y-27419D02*
X34244Y-27368D01*
X34244Y-27284D01*
X34227Y-27250D01*
X34211Y-27233D01*
X34177Y-27217D01*
X34143Y-27217D01*
X34109Y-27233D01*
X34092Y-27250D01*
X34076Y-27284D01*
X34059Y-27352D01*
X34042Y-27385D01*
X34025Y-27402D01*
X33991Y-27419D01*
X33957Y-27419D01*
X33924Y-27402D01*
X33907Y-27385D01*
X33890Y-27352D01*
X33890Y-27267D01*
X33907Y-27217D01*
X34244Y-27065D02*
X33890Y-27065D01*
X37849Y-29702D02*
X37849Y-29348D01*
X37984Y-29348D01*
X38018Y-29365D01*
X38035Y-29381D01*
X38052Y-29415D01*
X38052Y-29466D01*
X38035Y-29500D01*
X38018Y-29516D01*
X37984Y-29533D01*
X37849Y-29533D01*
X38356Y-29348D02*
X38288Y-29348D01*
X38254Y-29365D01*
X38237Y-29381D01*
X38204Y-29432D01*
X38187Y-29500D01*
X38187Y-29634D01*
X38204Y-29668D01*
X38221Y-29685D01*
X38254Y-29702D01*
X38322Y-29702D01*
X38356Y-29685D01*
X38372Y-29668D01*
X38389Y-29634D01*
X38389Y-29550D01*
X38372Y-29516D01*
X38356Y-29500D01*
X38322Y-29483D01*
X38254Y-29483D01*
X38221Y-29500D01*
X38204Y-29516D01*
X38187Y-29550D01*
X37907Y-27992D02*
X37890Y-28025D01*
X37890Y-28076D01*
X37907Y-28127D01*
X37941Y-28160D01*
X37974Y-28177D01*
X38042Y-28194D01*
X38092Y-28194D01*
X38160Y-28177D01*
X38194Y-28160D01*
X38227Y-28127D01*
X38244Y-28076D01*
X38244Y-28042D01*
X38227Y-27992D01*
X38211Y-27975D01*
X38092Y-27975D01*
X38092Y-28042D01*
X38244Y-27823D02*
X37890Y-27823D01*
X38244Y-27620D01*
X37890Y-27620D01*
X38244Y-27452D02*
X37890Y-27452D01*
X37890Y-27367D01*
X37907Y-27317D01*
X37941Y-27283D01*
X37974Y-27266D01*
X38042Y-27249D01*
X38092Y-27249D01*
X38160Y-27266D01*
X38194Y-27283D01*
X38227Y-27317D01*
X38244Y-27367D01*
X38244Y-27452D01*
X44446Y-3452D02*
X44446Y-3098D01*
X44581Y-3098D01*
X44614Y-3115D01*
X44631Y-3131D01*
X44648Y-3165D01*
X44648Y-3216D01*
X44631Y-3250D01*
X44614Y-3266D01*
X44581Y-3283D01*
X44446Y-3283D01*
X44783Y-3131D02*
X44800Y-3115D01*
X44834Y-3098D01*
X44918Y-3098D01*
X44952Y-3115D01*
X44969Y-3131D01*
X44986Y-3165D01*
X44986Y-3199D01*
X44969Y-3250D01*
X44766Y-3452D01*
X44986Y-3452D01*
X45289Y-3216D02*
X45289Y-3452D01*
X45205Y-3081D02*
X45121Y-3334D01*
X45340Y-3334D01*
X44864Y-1743D02*
X44847Y-1760D01*
X44796Y-1777D01*
X44762Y-1777D01*
X44712Y-1760D01*
X44678Y-1726D01*
X44661Y-1693D01*
X44644Y-1625D01*
X44644Y-1575D01*
X44661Y-1507D01*
X44678Y-1473D01*
X44712Y-1440D01*
X44762Y-1423D01*
X44796Y-1423D01*
X44847Y-1440D01*
X44864Y-1456D01*
X45066Y-1777D02*
X45032Y-1760D01*
X45016Y-1743D01*
X44999Y-1709D01*
X44999Y-1608D01*
X45016Y-1575D01*
X45032Y-1558D01*
X45066Y-1541D01*
X45117Y-1541D01*
X45151Y-1558D01*
X45167Y-1575D01*
X45184Y-1608D01*
X45184Y-1709D01*
X45167Y-1743D01*
X45151Y-1760D01*
X45117Y-1777D01*
X45066Y-1777D01*
X45387Y-1777D02*
X45353Y-1760D01*
X45336Y-1726D01*
X45336Y-1423D01*
X45505Y-1456D02*
X45522Y-1440D01*
X45556Y-1423D01*
X45640Y-1423D01*
X45674Y-1440D01*
X45691Y-1456D01*
X45707Y-1490D01*
X45707Y-1524D01*
X45691Y-1575D01*
X45488Y-1777D01*
X45707Y-1777D01*
X44446Y-4452D02*
X44446Y-4098D01*
X44581Y-4098D01*
X44614Y-4115D01*
X44631Y-4131D01*
X44648Y-4165D01*
X44648Y-4216D01*
X44631Y-4250D01*
X44614Y-4266D01*
X44581Y-4283D01*
X44446Y-4283D01*
X44783Y-4131D02*
X44800Y-4115D01*
X44834Y-4098D01*
X44918Y-4098D01*
X44952Y-4115D01*
X44969Y-4131D01*
X44986Y-4165D01*
X44986Y-4199D01*
X44969Y-4250D01*
X44766Y-4452D01*
X44986Y-4452D01*
X45104Y-4098D02*
X45340Y-4098D01*
X45188Y-4452D01*
X44864Y-2743D02*
X44847Y-2760D01*
X44796Y-2777D01*
X44762Y-2777D01*
X44712Y-2760D01*
X44678Y-2726D01*
X44661Y-2693D01*
X44644Y-2625D01*
X44644Y-2575D01*
X44661Y-2507D01*
X44678Y-2473D01*
X44712Y-2440D01*
X44762Y-2423D01*
X44796Y-2423D01*
X44847Y-2440D01*
X44864Y-2456D01*
X45066Y-2777D02*
X45032Y-2760D01*
X45016Y-2743D01*
X44999Y-2709D01*
X44999Y-2608D01*
X45016Y-2575D01*
X45032Y-2558D01*
X45066Y-2541D01*
X45117Y-2541D01*
X45151Y-2558D01*
X45167Y-2575D01*
X45184Y-2608D01*
X45184Y-2709D01*
X45167Y-2743D01*
X45151Y-2760D01*
X45117Y-2777D01*
X45066Y-2777D01*
X45387Y-2777D02*
X45353Y-2760D01*
X45336Y-2726D01*
X45336Y-2423D01*
X45691Y-2423D02*
X45522Y-2423D01*
X45505Y-2591D01*
X45522Y-2575D01*
X45556Y-2558D01*
X45640Y-2558D01*
X45674Y-2575D01*
X45691Y-2591D01*
X45707Y-2625D01*
X45707Y-2709D01*
X45691Y-2743D01*
X45674Y-2760D01*
X45640Y-2777D01*
X45556Y-2777D01*
X45522Y-2760D01*
X45505Y-2743D01*
X66021Y-5715D02*
X66021Y-5361D01*
X66156Y-5361D01*
X66189Y-5378D01*
X66206Y-5394D01*
X66223Y-5428D01*
X66223Y-5479D01*
X66206Y-5513D01*
X66189Y-5529D01*
X66156Y-5546D01*
X66021Y-5546D01*
X66341Y-5361D02*
X66561Y-5361D01*
X66442Y-5496D01*
X66493Y-5496D01*
X66527Y-5513D01*
X66544Y-5529D01*
X66561Y-5563D01*
X66561Y-5647D01*
X66544Y-5681D01*
X66527Y-5698D01*
X66493Y-5715D01*
X66392Y-5715D01*
X66358Y-5698D01*
X66341Y-5681D01*
X66679Y-5361D02*
X66915Y-5361D01*
X66763Y-5715D01*
X67829Y-5361D02*
X67947Y-5715D01*
X68065Y-5361D01*
X68335Y-5698D02*
X68301Y-5715D01*
X68234Y-5715D01*
X68200Y-5698D01*
X68183Y-5681D01*
X68167Y-5647D01*
X68167Y-5546D01*
X68183Y-5513D01*
X68200Y-5496D01*
X68234Y-5479D01*
X68301Y-5479D01*
X68335Y-5496D01*
X68639Y-5698D02*
X68605Y-5715D01*
X68538Y-5715D01*
X68504Y-5698D01*
X68487Y-5681D01*
X68470Y-5647D01*
X68470Y-5546D01*
X68487Y-5513D01*
X68504Y-5496D01*
X68538Y-5479D01*
X68605Y-5479D01*
X68639Y-5496D01*
X65971Y-1715D02*
X65971Y-1361D01*
X66106Y-1361D01*
X66139Y-1378D01*
X66156Y-1394D01*
X66173Y-1428D01*
X66173Y-1479D01*
X66156Y-1513D01*
X66139Y-1529D01*
X66106Y-1546D01*
X65971Y-1546D01*
X66291Y-1361D02*
X66511Y-1361D01*
X66392Y-1496D01*
X66443Y-1496D01*
X66477Y-1513D01*
X66494Y-1529D01*
X66511Y-1563D01*
X66511Y-1647D01*
X66494Y-1681D01*
X66477Y-1698D01*
X66443Y-1715D01*
X66342Y-1715D01*
X66308Y-1698D01*
X66291Y-1681D01*
X66713Y-1513D02*
X66679Y-1496D01*
X66662Y-1479D01*
X66646Y-1445D01*
X66646Y-1428D01*
X66662Y-1394D01*
X66679Y-1378D01*
X66713Y-1361D01*
X66781Y-1361D01*
X66814Y-1378D01*
X66831Y-1394D01*
X66848Y-1428D01*
X66848Y-1445D01*
X66831Y-1479D01*
X66814Y-1496D01*
X66781Y-1513D01*
X66713Y-1513D01*
X66679Y-1529D01*
X66662Y-1546D01*
X66646Y-1580D01*
X66646Y-1647D01*
X66662Y-1681D01*
X66679Y-1698D01*
X66713Y-1715D01*
X66781Y-1715D01*
X66814Y-1698D01*
X66831Y-1681D01*
X66848Y-1647D01*
X66848Y-1580D01*
X66831Y-1546D01*
X66814Y-1529D01*
X66781Y-1513D01*
X68078Y-1378D02*
X68044Y-1361D01*
X67993Y-1361D01*
X67943Y-1378D01*
X67909Y-1411D01*
X67892Y-1445D01*
X67875Y-1513D01*
X67875Y-1563D01*
X67892Y-1631D01*
X67909Y-1664D01*
X67943Y-1698D01*
X67993Y-1715D01*
X68027Y-1715D01*
X68078Y-1698D01*
X68095Y-1681D01*
X68095Y-1563D01*
X68027Y-1563D01*
X68247Y-1715D02*
X68247Y-1361D01*
X68382Y-1361D01*
X68415Y-1378D01*
X68432Y-1394D01*
X68449Y-1428D01*
X68449Y-1479D01*
X68432Y-1513D01*
X68415Y-1529D01*
X68382Y-1546D01*
X68247Y-1546D01*
X68601Y-1715D02*
X68601Y-1361D01*
X68837Y-1361D02*
X68905Y-1361D01*
X68938Y-1378D01*
X68972Y-1411D01*
X68989Y-1479D01*
X68989Y-1597D01*
X68972Y-1664D01*
X68938Y-1698D01*
X68905Y-1715D01*
X68837Y-1715D01*
X68803Y-1698D01*
X68770Y-1664D01*
X68753Y-1597D01*
X68753Y-1479D01*
X68770Y-1411D01*
X68803Y-1378D01*
X68837Y-1361D01*
X69208Y-1361D02*
X69242Y-1361D01*
X69276Y-1378D01*
X69293Y-1394D01*
X69310Y-1428D01*
X69326Y-1496D01*
X69326Y-1580D01*
X69310Y-1647D01*
X69293Y-1681D01*
X69276Y-1698D01*
X69242Y-1715D01*
X69208Y-1715D01*
X69175Y-1698D01*
X69158Y-1681D01*
X69141Y-1647D01*
X69124Y-1580D01*
X69124Y-1496D01*
X69141Y-1428D01*
X69158Y-1394D01*
X69175Y-1378D01*
X69208Y-1361D01*
X66021Y-3715D02*
X66021Y-3361D01*
X66156Y-3361D01*
X66189Y-3378D01*
X66206Y-3394D01*
X66223Y-3428D01*
X66223Y-3479D01*
X66206Y-3513D01*
X66189Y-3529D01*
X66156Y-3546D01*
X66021Y-3546D01*
X66341Y-3361D02*
X66561Y-3361D01*
X66442Y-3496D01*
X66493Y-3496D01*
X66527Y-3513D01*
X66544Y-3529D01*
X66561Y-3563D01*
X66561Y-3647D01*
X66544Y-3681D01*
X66527Y-3698D01*
X66493Y-3715D01*
X66392Y-3715D01*
X66358Y-3698D01*
X66341Y-3681D01*
X66729Y-3715D02*
X66797Y-3715D01*
X66831Y-3698D01*
X66847Y-3681D01*
X66881Y-3631D01*
X66898Y-3563D01*
X66898Y-3428D01*
X66881Y-3394D01*
X66864Y-3378D01*
X66831Y-3361D01*
X66763Y-3361D01*
X66729Y-3378D01*
X66712Y-3394D01*
X66696Y-3428D01*
X66696Y-3513D01*
X66712Y-3546D01*
X66729Y-3563D01*
X66763Y-3580D01*
X66831Y-3580D01*
X66864Y-3563D01*
X66881Y-3546D01*
X66898Y-3513D01*
X67928Y-2928D02*
X67894Y-2911D01*
X67843Y-2911D01*
X67793Y-2928D01*
X67759Y-2961D01*
X67742Y-2995D01*
X67725Y-3063D01*
X67725Y-3113D01*
X67742Y-3181D01*
X67759Y-3214D01*
X67793Y-3248D01*
X67843Y-3265D01*
X67877Y-3265D01*
X67928Y-3248D01*
X67945Y-3231D01*
X67945Y-3113D01*
X67877Y-3113D01*
X68097Y-3265D02*
X68097Y-2911D01*
X68232Y-2911D01*
X68265Y-2928D01*
X68282Y-2944D01*
X68299Y-2978D01*
X68299Y-3029D01*
X68282Y-3063D01*
X68265Y-3079D01*
X68232Y-3096D01*
X68097Y-3096D01*
X68451Y-3265D02*
X68451Y-2911D01*
X68687Y-2911D02*
X68755Y-2911D01*
X68788Y-2928D01*
X68822Y-2961D01*
X68839Y-3029D01*
X68839Y-3147D01*
X68822Y-3214D01*
X68788Y-3248D01*
X68755Y-3265D01*
X68687Y-3265D01*
X68653Y-3248D01*
X68620Y-3214D01*
X68603Y-3147D01*
X68603Y-3029D01*
X68620Y-2961D01*
X68653Y-2928D01*
X68687Y-2911D01*
X69176Y-3265D02*
X68974Y-3265D01*
X69075Y-3265D02*
X69075Y-2911D01*
X69041Y-2961D01*
X69008Y-2995D01*
X68974Y-3012D01*
X65971Y-4715D02*
X65971Y-4361D01*
X66106Y-4361D01*
X66139Y-4378D01*
X66156Y-4394D01*
X66173Y-4428D01*
X66173Y-4479D01*
X66156Y-4513D01*
X66139Y-4529D01*
X66106Y-4546D01*
X65971Y-4546D01*
X66477Y-4479D02*
X66477Y-4715D01*
X66392Y-4344D02*
X66308Y-4597D01*
X66527Y-4597D01*
X66730Y-4361D02*
X66764Y-4361D01*
X66797Y-4378D01*
X66814Y-4394D01*
X66831Y-4428D01*
X66848Y-4496D01*
X66848Y-4580D01*
X66831Y-4647D01*
X66814Y-4681D01*
X66797Y-4698D01*
X66764Y-4715D01*
X66730Y-4715D01*
X66696Y-4698D01*
X66679Y-4681D01*
X66662Y-4647D01*
X66646Y-4580D01*
X66646Y-4496D01*
X66662Y-4428D01*
X66679Y-4394D01*
X66696Y-4378D01*
X66730Y-4361D01*
X68078Y-4378D02*
X68044Y-4361D01*
X67993Y-4361D01*
X67943Y-4378D01*
X67909Y-4411D01*
X67892Y-4445D01*
X67875Y-4513D01*
X67875Y-4563D01*
X67892Y-4631D01*
X67909Y-4664D01*
X67943Y-4698D01*
X67993Y-4715D01*
X68027Y-4715D01*
X68078Y-4698D01*
X68095Y-4681D01*
X68095Y-4563D01*
X68027Y-4563D01*
X68247Y-4715D02*
X68247Y-4361D01*
X68382Y-4361D01*
X68415Y-4378D01*
X68432Y-4394D01*
X68449Y-4428D01*
X68449Y-4479D01*
X68432Y-4513D01*
X68415Y-4529D01*
X68382Y-4546D01*
X68247Y-4546D01*
X68601Y-4715D02*
X68601Y-4361D01*
X68837Y-4361D02*
X68905Y-4361D01*
X68938Y-4378D01*
X68972Y-4411D01*
X68989Y-4479D01*
X68989Y-4597D01*
X68972Y-4664D01*
X68938Y-4698D01*
X68905Y-4715D01*
X68837Y-4715D01*
X68803Y-4698D01*
X68770Y-4664D01*
X68753Y-4597D01*
X68753Y-4479D01*
X68770Y-4411D01*
X68803Y-4378D01*
X68837Y-4361D01*
X69124Y-4394D02*
X69141Y-4378D01*
X69175Y-4361D01*
X69259Y-4361D01*
X69293Y-4378D01*
X69310Y-4394D01*
X69326Y-4428D01*
X69326Y-4462D01*
X69310Y-4513D01*
X69107Y-4715D01*
X69326Y-4715D01*
X66071Y-2715D02*
X66071Y-2361D01*
X66206Y-2361D01*
X66239Y-2378D01*
X66256Y-2394D01*
X66273Y-2428D01*
X66273Y-2479D01*
X66256Y-2513D01*
X66239Y-2529D01*
X66206Y-2546D01*
X66071Y-2546D01*
X66577Y-2479D02*
X66577Y-2715D01*
X66492Y-2344D02*
X66408Y-2597D01*
X66627Y-2597D01*
X66948Y-2715D02*
X66746Y-2715D01*
X66847Y-2715D02*
X66847Y-2361D01*
X66813Y-2411D01*
X66779Y-2445D01*
X66746Y-2462D01*
X68078Y-2378D02*
X68044Y-2361D01*
X67993Y-2361D01*
X67943Y-2378D01*
X67909Y-2411D01*
X67892Y-2445D01*
X67875Y-2513D01*
X67875Y-2563D01*
X67892Y-2631D01*
X67909Y-2664D01*
X67943Y-2698D01*
X67993Y-2715D01*
X68027Y-2715D01*
X68078Y-2698D01*
X68095Y-2681D01*
X68095Y-2563D01*
X68027Y-2563D01*
X68247Y-2715D02*
X68247Y-2361D01*
X68382Y-2361D01*
X68415Y-2378D01*
X68432Y-2394D01*
X68449Y-2428D01*
X68449Y-2479D01*
X68432Y-2513D01*
X68415Y-2529D01*
X68382Y-2546D01*
X68247Y-2546D01*
X68601Y-2715D02*
X68601Y-2361D01*
X68837Y-2361D02*
X68905Y-2361D01*
X68938Y-2378D01*
X68972Y-2411D01*
X68989Y-2479D01*
X68989Y-2597D01*
X68972Y-2664D01*
X68938Y-2698D01*
X68905Y-2715D01*
X68837Y-2715D01*
X68803Y-2698D01*
X68770Y-2664D01*
X68753Y-2597D01*
X68753Y-2479D01*
X68770Y-2411D01*
X68803Y-2378D01*
X68837Y-2361D01*
X69107Y-2361D02*
X69326Y-2361D01*
X69208Y-2496D01*
X69259Y-2496D01*
X69293Y-2513D01*
X69310Y-2529D01*
X69326Y-2563D01*
X69326Y-2647D01*
X69310Y-2681D01*
X69293Y-2698D01*
X69259Y-2715D01*
X69158Y-2715D01*
X69124Y-2698D01*
X69107Y-2681D01*
X59471Y-6415D02*
X59471Y-6061D01*
X59606Y-6061D01*
X59639Y-6078D01*
X59656Y-6094D01*
X59673Y-6128D01*
X59673Y-6179D01*
X59656Y-6213D01*
X59639Y-6229D01*
X59606Y-6246D01*
X59471Y-6246D01*
X59977Y-6179D02*
X59977Y-6415D01*
X59892Y-6044D02*
X59808Y-6297D01*
X60027Y-6297D01*
X60146Y-6094D02*
X60162Y-6078D01*
X60196Y-6061D01*
X60281Y-6061D01*
X60314Y-6078D01*
X60331Y-6094D01*
X60348Y-6128D01*
X60348Y-6162D01*
X60331Y-6213D01*
X60129Y-6415D01*
X60348Y-6415D01*
X59581Y-4778D02*
X59547Y-4761D01*
X59497Y-4761D01*
X59446Y-4778D01*
X59412Y-4811D01*
X59395Y-4845D01*
X59378Y-4913D01*
X59378Y-4963D01*
X59395Y-5031D01*
X59412Y-5064D01*
X59446Y-5098D01*
X59497Y-5115D01*
X59530Y-5115D01*
X59581Y-5098D01*
X59598Y-5081D01*
X59598Y-4963D01*
X59530Y-4963D01*
X59750Y-5115D02*
X59750Y-4761D01*
X59952Y-5115D01*
X59952Y-4761D01*
X60121Y-5115D02*
X60121Y-4761D01*
X60205Y-4761D01*
X60256Y-4778D01*
X60290Y-4811D01*
X60306Y-4845D01*
X60323Y-4913D01*
X60323Y-4963D01*
X60306Y-5031D01*
X60290Y-5064D01*
X60256Y-5098D01*
X60205Y-5115D01*
X60121Y-5115D01*
G54D18*
X3808Y-25050D02*
X3894Y-25074D01*
X4037Y-25074D01*
X4094Y-25050D01*
X4122Y-25026D01*
X4151Y-24979D01*
X4151Y-24931D01*
X4122Y-24883D01*
X4094Y-24860D01*
X4037Y-24836D01*
X3922Y-24812D01*
X3865Y-24788D01*
X3837Y-24764D01*
X3808Y-24717D01*
X3808Y-24669D01*
X3837Y-24622D01*
X3865Y-24598D01*
X3922Y-24574D01*
X4065Y-24574D01*
X4151Y-24598D01*
X4522Y-24574D02*
X4579Y-24574D01*
X4637Y-24598D01*
X4665Y-24622D01*
X4694Y-24669D01*
X4722Y-24764D01*
X4722Y-24883D01*
X4694Y-24979D01*
X4665Y-25026D01*
X4637Y-25050D01*
X4579Y-25074D01*
X4522Y-25074D01*
X4465Y-25050D01*
X4437Y-25026D01*
X4408Y-24979D01*
X4379Y-24883D01*
X4379Y-24764D01*
X4408Y-24669D01*
X4437Y-24622D01*
X4465Y-24598D01*
X4522Y-24574D01*
X5237Y-24741D02*
X5237Y-25074D01*
X5094Y-24550D02*
X4951Y-24907D01*
X5322Y-24907D01*
X3808Y-10050D02*
X3894Y-10074D01*
X4037Y-10074D01*
X4094Y-10050D01*
X4122Y-10026D01*
X4151Y-9979D01*
X4151Y-9931D01*
X4122Y-9883D01*
X4094Y-9860D01*
X4037Y-9836D01*
X3922Y-9812D01*
X3865Y-9788D01*
X3837Y-9764D01*
X3808Y-9717D01*
X3808Y-9669D01*
X3837Y-9622D01*
X3865Y-9598D01*
X3922Y-9574D01*
X4065Y-9574D01*
X4151Y-9598D01*
X4522Y-9574D02*
X4579Y-9574D01*
X4637Y-9598D01*
X4665Y-9622D01*
X4694Y-9669D01*
X4722Y-9764D01*
X4722Y-9883D01*
X4694Y-9979D01*
X4665Y-10026D01*
X4637Y-10050D01*
X4579Y-10074D01*
X4522Y-10074D01*
X4465Y-10050D01*
X4437Y-10026D01*
X4408Y-9979D01*
X4379Y-9883D01*
X4379Y-9764D01*
X4408Y-9669D01*
X4437Y-9622D01*
X4465Y-9598D01*
X4522Y-9574D01*
X4951Y-9622D02*
X4979Y-9598D01*
X5037Y-9574D01*
X5179Y-9574D01*
X5237Y-9598D01*
X5265Y-9622D01*
X5294Y-9669D01*
X5294Y-9717D01*
X5265Y-9788D01*
X4922Y-10074D01*
X5294Y-10074D01*
X5658Y-17550D02*
X5744Y-17574D01*
X5887Y-17574D01*
X5944Y-17550D01*
X5972Y-17526D01*
X6001Y-17479D01*
X6001Y-17431D01*
X5972Y-17383D01*
X5944Y-17360D01*
X5887Y-17336D01*
X5772Y-17312D01*
X5715Y-17288D01*
X5687Y-17264D01*
X5658Y-17217D01*
X5658Y-17169D01*
X5687Y-17122D01*
X5715Y-17098D01*
X5772Y-17074D01*
X5915Y-17074D01*
X6001Y-17098D01*
X6372Y-17074D02*
X6429Y-17074D01*
X6487Y-17098D01*
X6515Y-17122D01*
X6544Y-17169D01*
X6572Y-17264D01*
X6572Y-17383D01*
X6544Y-17479D01*
X6515Y-17526D01*
X6487Y-17550D01*
X6429Y-17574D01*
X6372Y-17574D01*
X6315Y-17550D01*
X6287Y-17526D01*
X6258Y-17479D01*
X6229Y-17383D01*
X6229Y-17264D01*
X6258Y-17169D01*
X6287Y-17122D01*
X6315Y-17098D01*
X6372Y-17074D01*
X6772Y-17074D02*
X7144Y-17074D01*
X6944Y-17264D01*
X7029Y-17264D01*
X7087Y-17288D01*
X7115Y-17312D01*
X7144Y-17360D01*
X7144Y-17479D01*
X7115Y-17526D01*
X7087Y-17550D01*
X7029Y-17574D01*
X6858Y-17574D01*
X6801Y-17550D01*
X6772Y-17526D01*
X85358Y-17550D02*
X85444Y-17574D01*
X85587Y-17574D01*
X85644Y-17550D01*
X85673Y-17526D01*
X85701Y-17479D01*
X85701Y-17431D01*
X85673Y-17383D01*
X85644Y-17360D01*
X85587Y-17336D01*
X85473Y-17312D01*
X85415Y-17288D01*
X85387Y-17264D01*
X85358Y-17217D01*
X85358Y-17169D01*
X85387Y-17122D01*
X85415Y-17098D01*
X85473Y-17074D01*
X85615Y-17074D01*
X85701Y-17098D01*
X86244Y-17074D02*
X85958Y-17074D01*
X85930Y-17312D01*
X85958Y-17288D01*
X86015Y-17264D01*
X86158Y-17264D01*
X86215Y-17288D01*
X86244Y-17312D01*
X86273Y-17360D01*
X86273Y-17479D01*
X86244Y-17526D01*
X86215Y-17550D01*
X86158Y-17574D01*
X86015Y-17574D01*
X85958Y-17550D01*
X85930Y-17526D01*
X86473Y-17074D02*
X86844Y-17074D01*
X86644Y-17264D01*
X86730Y-17264D01*
X86787Y-17288D01*
X86815Y-17312D01*
X86844Y-17360D01*
X86844Y-17479D01*
X86815Y-17526D01*
X86787Y-17550D01*
X86730Y-17574D01*
X86558Y-17574D01*
X86501Y-17550D01*
X86473Y-17526D01*
X49758Y-10050D02*
X49844Y-10074D01*
X49987Y-10074D01*
X50044Y-10050D01*
X50073Y-10026D01*
X50101Y-9979D01*
X50101Y-9931D01*
X50073Y-9883D01*
X50044Y-9860D01*
X49987Y-9836D01*
X49873Y-9812D01*
X49815Y-9788D01*
X49787Y-9764D01*
X49758Y-9717D01*
X49758Y-9669D01*
X49787Y-9622D01*
X49815Y-9598D01*
X49873Y-9574D01*
X50015Y-9574D01*
X50101Y-9598D01*
X50301Y-9574D02*
X50673Y-9574D01*
X50473Y-9764D01*
X50558Y-9764D01*
X50615Y-9788D01*
X50644Y-9812D01*
X50673Y-9860D01*
X50673Y-9979D01*
X50644Y-10026D01*
X50615Y-10050D01*
X50558Y-10074D01*
X50387Y-10074D01*
X50330Y-10050D01*
X50301Y-10026D01*
X50901Y-9622D02*
X50930Y-9598D01*
X50987Y-9574D01*
X51130Y-9574D01*
X51187Y-9598D01*
X51215Y-9622D01*
X51244Y-9669D01*
X51244Y-9717D01*
X51215Y-9788D01*
X50873Y-10074D01*
X51244Y-10074D01*
X70358Y-2550D02*
X70444Y-2574D01*
X70587Y-2574D01*
X70644Y-2550D01*
X70673Y-2526D01*
X70701Y-2479D01*
X70701Y-2431D01*
X70673Y-2383D01*
X70644Y-2360D01*
X70587Y-2336D01*
X70473Y-2312D01*
X70415Y-2288D01*
X70387Y-2264D01*
X70358Y-2217D01*
X70358Y-2169D01*
X70387Y-2122D01*
X70415Y-2098D01*
X70473Y-2074D01*
X70615Y-2074D01*
X70701Y-2098D01*
X71215Y-2241D02*
X71215Y-2574D01*
X71073Y-2050D02*
X70930Y-2407D01*
X71301Y-2407D01*
X71787Y-2074D02*
X71673Y-2074D01*
X71615Y-2098D01*
X71587Y-2122D01*
X71530Y-2193D01*
X71501Y-2288D01*
X71501Y-2479D01*
X71530Y-2526D01*
X71558Y-2550D01*
X71615Y-2574D01*
X71730Y-2574D01*
X71787Y-2550D01*
X71815Y-2526D01*
X71844Y-2479D01*
X71844Y-2360D01*
X71815Y-2312D01*
X71787Y-2288D01*
X71730Y-2264D01*
X71615Y-2264D01*
X71558Y-2288D01*
X71530Y-2312D01*
X71501Y-2360D01*
X32858Y-2550D02*
X32944Y-2574D01*
X33087Y-2574D01*
X33144Y-2550D01*
X33173Y-2526D01*
X33201Y-2479D01*
X33201Y-2431D01*
X33173Y-2383D01*
X33144Y-2360D01*
X33087Y-2336D01*
X32973Y-2312D01*
X32915Y-2288D01*
X32887Y-2264D01*
X32858Y-2217D01*
X32858Y-2169D01*
X32887Y-2122D01*
X32915Y-2098D01*
X32973Y-2074D01*
X33115Y-2074D01*
X33201Y-2098D01*
X33430Y-2122D02*
X33458Y-2098D01*
X33515Y-2074D01*
X33658Y-2074D01*
X33715Y-2098D01*
X33744Y-2122D01*
X33773Y-2169D01*
X33773Y-2217D01*
X33744Y-2288D01*
X33401Y-2574D01*
X33773Y-2574D01*
X34344Y-2574D02*
X34001Y-2574D01*
X34173Y-2574D02*
X34173Y-2074D01*
X34115Y-2145D01*
X34058Y-2193D01*
X34001Y-2217D01*
X84408Y-25050D02*
X84494Y-25074D01*
X84636Y-25074D01*
X84694Y-25050D01*
X84722Y-25026D01*
X84751Y-24979D01*
X84751Y-24931D01*
X84722Y-24883D01*
X84694Y-24860D01*
X84636Y-24836D01*
X84522Y-24812D01*
X84465Y-24788D01*
X84436Y-24764D01*
X84408Y-24717D01*
X84408Y-24669D01*
X84436Y-24622D01*
X84465Y-24598D01*
X84522Y-24574D01*
X84665Y-24574D01*
X84751Y-24598D01*
X85265Y-24741D02*
X85265Y-25074D01*
X85122Y-24550D02*
X84979Y-24907D01*
X85351Y-24907D01*
X85608Y-25074D02*
X85722Y-25074D01*
X85779Y-25050D01*
X85808Y-25026D01*
X85865Y-24955D01*
X85894Y-24860D01*
X85894Y-24669D01*
X85865Y-24622D01*
X85836Y-24598D01*
X85779Y-24574D01*
X85665Y-24574D01*
X85608Y-24598D01*
X85579Y-24622D01*
X85551Y-24669D01*
X85551Y-24788D01*
X85579Y-24836D01*
X85608Y-24860D01*
X85665Y-24883D01*
X85779Y-24883D01*
X85836Y-24860D01*
X85865Y-24836D01*
X85894Y-24788D01*
X75058Y-25050D02*
X75144Y-25074D01*
X75287Y-25074D01*
X75344Y-25050D01*
X75373Y-25026D01*
X75401Y-24979D01*
X75401Y-24931D01*
X75373Y-24883D01*
X75344Y-24860D01*
X75287Y-24836D01*
X75173Y-24812D01*
X75115Y-24788D01*
X75087Y-24764D01*
X75058Y-24717D01*
X75058Y-24669D01*
X75087Y-24622D01*
X75115Y-24598D01*
X75173Y-24574D01*
X75315Y-24574D01*
X75401Y-24598D01*
X75915Y-24741D02*
X75915Y-25074D01*
X75773Y-24550D02*
X75630Y-24907D01*
X76001Y-24907D01*
X76487Y-24741D02*
X76487Y-25074D01*
X76344Y-24550D02*
X76201Y-24907D01*
X76573Y-24907D01*
X19758Y-25050D02*
X19844Y-25074D01*
X19987Y-25074D01*
X20044Y-25050D01*
X20073Y-25026D01*
X20101Y-24979D01*
X20101Y-24931D01*
X20073Y-24883D01*
X20044Y-24860D01*
X19987Y-24836D01*
X19873Y-24812D01*
X19815Y-24788D01*
X19787Y-24764D01*
X19758Y-24717D01*
X19758Y-24669D01*
X19787Y-24622D01*
X19815Y-24598D01*
X19873Y-24574D01*
X20015Y-24574D01*
X20101Y-24598D01*
X20673Y-25074D02*
X20330Y-25074D01*
X20501Y-25074D02*
X20501Y-24574D01*
X20444Y-24645D01*
X20387Y-24693D01*
X20330Y-24717D01*
X21187Y-24741D02*
X21187Y-25074D01*
X21044Y-24550D02*
X20901Y-24907D01*
X21273Y-24907D01*
X12258Y-25050D02*
X12344Y-25074D01*
X12487Y-25074D01*
X12544Y-25050D01*
X12572Y-25026D01*
X12601Y-24979D01*
X12601Y-24931D01*
X12572Y-24883D01*
X12544Y-24860D01*
X12487Y-24836D01*
X12372Y-24812D01*
X12315Y-24788D01*
X12287Y-24764D01*
X12258Y-24717D01*
X12258Y-24669D01*
X12287Y-24622D01*
X12315Y-24598D01*
X12372Y-24574D01*
X12515Y-24574D01*
X12601Y-24598D01*
X12972Y-24574D02*
X13029Y-24574D01*
X13087Y-24598D01*
X13115Y-24622D01*
X13144Y-24669D01*
X13172Y-24764D01*
X13172Y-24883D01*
X13144Y-24979D01*
X13115Y-25026D01*
X13087Y-25050D01*
X13029Y-25074D01*
X12972Y-25074D01*
X12915Y-25050D01*
X12887Y-25026D01*
X12858Y-24979D01*
X12829Y-24883D01*
X12829Y-24764D01*
X12858Y-24669D01*
X12887Y-24622D01*
X12915Y-24598D01*
X12972Y-24574D01*
X13458Y-25074D02*
X13572Y-25074D01*
X13629Y-25050D01*
X13658Y-25026D01*
X13715Y-24955D01*
X13744Y-24860D01*
X13744Y-24669D01*
X13715Y-24622D01*
X13687Y-24598D01*
X13629Y-24574D01*
X13515Y-24574D01*
X13458Y-24598D01*
X13429Y-24622D01*
X13401Y-24669D01*
X13401Y-24788D01*
X13429Y-24836D01*
X13458Y-24860D01*
X13515Y-24883D01*
X13629Y-24883D01*
X13687Y-24860D01*
X13715Y-24836D01*
X13744Y-24788D01*
X76908Y-17550D02*
X76994Y-17574D01*
X77136Y-17574D01*
X77194Y-17550D01*
X77222Y-17526D01*
X77251Y-17479D01*
X77251Y-17431D01*
X77222Y-17383D01*
X77194Y-17360D01*
X77136Y-17336D01*
X77022Y-17312D01*
X76965Y-17288D01*
X76936Y-17264D01*
X76908Y-17217D01*
X76908Y-17169D01*
X76936Y-17122D01*
X76965Y-17098D01*
X77022Y-17074D01*
X77165Y-17074D01*
X77251Y-17098D01*
X77765Y-17241D02*
X77765Y-17574D01*
X77622Y-17050D02*
X77479Y-17407D01*
X77851Y-17407D01*
X78165Y-17288D02*
X78108Y-17264D01*
X78079Y-17241D01*
X78051Y-17193D01*
X78051Y-17169D01*
X78079Y-17122D01*
X78108Y-17098D01*
X78165Y-17074D01*
X78279Y-17074D01*
X78336Y-17098D01*
X78365Y-17122D01*
X78394Y-17169D01*
X78394Y-17193D01*
X78365Y-17241D01*
X78336Y-17264D01*
X78279Y-17288D01*
X78165Y-17288D01*
X78108Y-17312D01*
X78079Y-17336D01*
X78051Y-17383D01*
X78051Y-17479D01*
X78079Y-17526D01*
X78108Y-17550D01*
X78165Y-17574D01*
X78279Y-17574D01*
X78336Y-17550D01*
X78365Y-17526D01*
X78394Y-17479D01*
X78394Y-17383D01*
X78365Y-17336D01*
X78336Y-17312D01*
X78279Y-17288D01*
X68458Y-17550D02*
X68544Y-17574D01*
X68687Y-17574D01*
X68744Y-17550D01*
X68773Y-17526D01*
X68801Y-17479D01*
X68801Y-17431D01*
X68773Y-17383D01*
X68744Y-17360D01*
X68687Y-17336D01*
X68573Y-17312D01*
X68515Y-17288D01*
X68487Y-17264D01*
X68458Y-17217D01*
X68458Y-17169D01*
X68487Y-17122D01*
X68515Y-17098D01*
X68573Y-17074D01*
X68715Y-17074D01*
X68801Y-17098D01*
X69315Y-17241D02*
X69315Y-17574D01*
X69173Y-17050D02*
X69030Y-17407D01*
X69401Y-17407D01*
X69573Y-17074D02*
X69944Y-17074D01*
X69744Y-17264D01*
X69830Y-17264D01*
X69887Y-17288D01*
X69915Y-17312D01*
X69944Y-17360D01*
X69944Y-17479D01*
X69915Y-17526D01*
X69887Y-17550D01*
X69830Y-17574D01*
X69658Y-17574D01*
X69601Y-17550D01*
X69573Y-17526D01*
X27258Y-10050D02*
X27344Y-10074D01*
X27487Y-10074D01*
X27544Y-10050D01*
X27573Y-10026D01*
X27601Y-9979D01*
X27601Y-9931D01*
X27573Y-9883D01*
X27544Y-9860D01*
X27487Y-9836D01*
X27373Y-9812D01*
X27315Y-9788D01*
X27287Y-9764D01*
X27258Y-9717D01*
X27258Y-9669D01*
X27287Y-9622D01*
X27315Y-9598D01*
X27373Y-9574D01*
X27515Y-9574D01*
X27601Y-9598D01*
X28173Y-10074D02*
X27830Y-10074D01*
X28001Y-10074D02*
X28001Y-9574D01*
X27944Y-9645D01*
X27887Y-9693D01*
X27830Y-9717D01*
X28373Y-9574D02*
X28773Y-9574D01*
X28515Y-10074D01*
X19758Y-10050D02*
X19844Y-10074D01*
X19987Y-10074D01*
X20044Y-10050D01*
X20073Y-10026D01*
X20101Y-9979D01*
X20101Y-9931D01*
X20073Y-9883D01*
X20044Y-9860D01*
X19987Y-9836D01*
X19873Y-9812D01*
X19815Y-9788D01*
X19787Y-9764D01*
X19758Y-9717D01*
X19758Y-9669D01*
X19787Y-9622D01*
X19815Y-9598D01*
X19873Y-9574D01*
X20015Y-9574D01*
X20101Y-9598D01*
X20673Y-10074D02*
X20330Y-10074D01*
X20501Y-10074D02*
X20501Y-9574D01*
X20444Y-9645D01*
X20387Y-9693D01*
X20330Y-9717D01*
X20901Y-9622D02*
X20930Y-9598D01*
X20987Y-9574D01*
X21130Y-9574D01*
X21187Y-9598D01*
X21215Y-9622D01*
X21244Y-9669D01*
X21244Y-9717D01*
X21215Y-9788D01*
X20873Y-10074D01*
X21244Y-10074D01*
X12258Y-10050D02*
X12344Y-10074D01*
X12487Y-10074D01*
X12544Y-10050D01*
X12572Y-10026D01*
X12601Y-9979D01*
X12601Y-9931D01*
X12572Y-9883D01*
X12544Y-9860D01*
X12487Y-9836D01*
X12372Y-9812D01*
X12315Y-9788D01*
X12287Y-9764D01*
X12258Y-9717D01*
X12258Y-9669D01*
X12287Y-9622D01*
X12315Y-9598D01*
X12372Y-9574D01*
X12515Y-9574D01*
X12601Y-9598D01*
X12972Y-9574D02*
X13029Y-9574D01*
X13087Y-9598D01*
X13115Y-9622D01*
X13144Y-9669D01*
X13172Y-9764D01*
X13172Y-9883D01*
X13144Y-9979D01*
X13115Y-10026D01*
X13087Y-10050D01*
X13029Y-10074D01*
X12972Y-10074D01*
X12915Y-10050D01*
X12887Y-10026D01*
X12858Y-9979D01*
X12829Y-9883D01*
X12829Y-9764D01*
X12858Y-9669D01*
X12887Y-9622D01*
X12915Y-9598D01*
X12972Y-9574D01*
X13372Y-9574D02*
X13772Y-9574D01*
X13515Y-10074D01*
X85358Y-2550D02*
X85444Y-2574D01*
X85587Y-2574D01*
X85644Y-2550D01*
X85673Y-2526D01*
X85701Y-2479D01*
X85701Y-2431D01*
X85673Y-2383D01*
X85644Y-2360D01*
X85587Y-2336D01*
X85473Y-2312D01*
X85415Y-2288D01*
X85387Y-2264D01*
X85358Y-2217D01*
X85358Y-2169D01*
X85387Y-2122D01*
X85415Y-2098D01*
X85473Y-2074D01*
X85615Y-2074D01*
X85701Y-2098D01*
X86244Y-2074D02*
X85958Y-2074D01*
X85930Y-2312D01*
X85958Y-2288D01*
X86015Y-2264D01*
X86158Y-2264D01*
X86215Y-2288D01*
X86244Y-2312D01*
X86273Y-2360D01*
X86273Y-2479D01*
X86244Y-2526D01*
X86215Y-2550D01*
X86158Y-2574D01*
X86015Y-2574D01*
X85958Y-2550D01*
X85930Y-2526D01*
X86787Y-2074D02*
X86673Y-2074D01*
X86615Y-2098D01*
X86587Y-2122D01*
X86530Y-2193D01*
X86501Y-2288D01*
X86501Y-2479D01*
X86530Y-2526D01*
X86558Y-2550D01*
X86615Y-2574D01*
X86730Y-2574D01*
X86787Y-2550D01*
X86815Y-2526D01*
X86844Y-2479D01*
X86844Y-2360D01*
X86815Y-2312D01*
X86787Y-2288D01*
X86730Y-2264D01*
X86615Y-2264D01*
X86558Y-2288D01*
X86530Y-2312D01*
X86501Y-2360D01*
X62858Y-2550D02*
X62944Y-2574D01*
X63087Y-2574D01*
X63144Y-2550D01*
X63173Y-2526D01*
X63201Y-2479D01*
X63201Y-2431D01*
X63173Y-2383D01*
X63144Y-2360D01*
X63087Y-2336D01*
X62973Y-2312D01*
X62915Y-2288D01*
X62887Y-2264D01*
X62858Y-2217D01*
X62858Y-2169D01*
X62887Y-2122D01*
X62915Y-2098D01*
X62973Y-2074D01*
X63115Y-2074D01*
X63201Y-2098D01*
X63715Y-2241D02*
X63715Y-2574D01*
X63573Y-2050D02*
X63430Y-2407D01*
X63801Y-2407D01*
X64344Y-2574D02*
X64001Y-2574D01*
X64173Y-2574D02*
X64173Y-2074D01*
X64115Y-2145D01*
X64058Y-2193D01*
X64001Y-2217D01*
X55358Y-2550D02*
X55444Y-2574D01*
X55587Y-2574D01*
X55644Y-2550D01*
X55673Y-2526D01*
X55701Y-2479D01*
X55701Y-2431D01*
X55673Y-2383D01*
X55644Y-2360D01*
X55587Y-2336D01*
X55473Y-2312D01*
X55415Y-2288D01*
X55387Y-2264D01*
X55358Y-2217D01*
X55358Y-2169D01*
X55387Y-2122D01*
X55415Y-2098D01*
X55473Y-2074D01*
X55615Y-2074D01*
X55701Y-2098D01*
X55901Y-2074D02*
X56273Y-2074D01*
X56073Y-2264D01*
X56158Y-2264D01*
X56215Y-2288D01*
X56244Y-2312D01*
X56273Y-2360D01*
X56273Y-2479D01*
X56244Y-2526D01*
X56215Y-2550D01*
X56158Y-2574D01*
X55987Y-2574D01*
X55930Y-2550D01*
X55901Y-2526D01*
X56787Y-2074D02*
X56673Y-2074D01*
X56615Y-2098D01*
X56587Y-2122D01*
X56530Y-2193D01*
X56501Y-2288D01*
X56501Y-2479D01*
X56530Y-2526D01*
X56558Y-2550D01*
X56615Y-2574D01*
X56730Y-2574D01*
X56787Y-2550D01*
X56815Y-2526D01*
X56844Y-2479D01*
X56844Y-2360D01*
X56815Y-2312D01*
X56787Y-2288D01*
X56730Y-2264D01*
X56615Y-2264D01*
X56558Y-2288D01*
X56530Y-2312D01*
X56501Y-2360D01*
X47858Y-2550D02*
X47944Y-2574D01*
X48087Y-2574D01*
X48144Y-2550D01*
X48173Y-2526D01*
X48201Y-2479D01*
X48201Y-2431D01*
X48173Y-2383D01*
X48144Y-2360D01*
X48087Y-2336D01*
X47973Y-2312D01*
X47915Y-2288D01*
X47887Y-2264D01*
X47858Y-2217D01*
X47858Y-2169D01*
X47887Y-2122D01*
X47915Y-2098D01*
X47973Y-2074D01*
X48115Y-2074D01*
X48201Y-2098D01*
X48401Y-2074D02*
X48773Y-2074D01*
X48573Y-2264D01*
X48658Y-2264D01*
X48715Y-2288D01*
X48744Y-2312D01*
X48773Y-2360D01*
X48773Y-2479D01*
X48744Y-2526D01*
X48715Y-2550D01*
X48658Y-2574D01*
X48487Y-2574D01*
X48430Y-2550D01*
X48401Y-2526D01*
X49344Y-2574D02*
X49001Y-2574D01*
X49173Y-2574D02*
X49173Y-2074D01*
X49115Y-2145D01*
X49058Y-2193D01*
X49001Y-2217D01*
X40358Y-2550D02*
X40444Y-2574D01*
X40587Y-2574D01*
X40644Y-2550D01*
X40673Y-2526D01*
X40701Y-2479D01*
X40701Y-2431D01*
X40673Y-2383D01*
X40644Y-2360D01*
X40587Y-2336D01*
X40473Y-2312D01*
X40415Y-2288D01*
X40387Y-2264D01*
X40358Y-2217D01*
X40358Y-2169D01*
X40387Y-2122D01*
X40415Y-2098D01*
X40473Y-2074D01*
X40615Y-2074D01*
X40701Y-2098D01*
X40930Y-2122D02*
X40958Y-2098D01*
X41015Y-2074D01*
X41158Y-2074D01*
X41215Y-2098D01*
X41244Y-2122D01*
X41273Y-2169D01*
X41273Y-2217D01*
X41244Y-2288D01*
X40901Y-2574D01*
X41273Y-2574D01*
X41787Y-2074D02*
X41673Y-2074D01*
X41615Y-2098D01*
X41587Y-2122D01*
X41530Y-2193D01*
X41501Y-2288D01*
X41501Y-2479D01*
X41530Y-2526D01*
X41558Y-2550D01*
X41615Y-2574D01*
X41730Y-2574D01*
X41787Y-2550D01*
X41815Y-2526D01*
X41844Y-2479D01*
X41844Y-2360D01*
X41815Y-2312D01*
X41787Y-2288D01*
X41730Y-2264D01*
X41615Y-2264D01*
X41558Y-2288D01*
X41530Y-2312D01*
X41501Y-2360D01*
X25358Y-2550D02*
X25444Y-2574D01*
X25587Y-2574D01*
X25644Y-2550D01*
X25673Y-2526D01*
X25701Y-2479D01*
X25701Y-2431D01*
X25673Y-2383D01*
X25644Y-2360D01*
X25587Y-2336D01*
X25473Y-2312D01*
X25415Y-2288D01*
X25387Y-2264D01*
X25358Y-2217D01*
X25358Y-2169D01*
X25387Y-2122D01*
X25415Y-2098D01*
X25473Y-2074D01*
X25615Y-2074D01*
X25701Y-2098D01*
X26273Y-2574D02*
X25930Y-2574D01*
X26101Y-2574D02*
X26101Y-2074D01*
X26044Y-2145D01*
X25987Y-2193D01*
X25930Y-2217D01*
X26787Y-2074D02*
X26673Y-2074D01*
X26615Y-2098D01*
X26587Y-2122D01*
X26530Y-2193D01*
X26501Y-2288D01*
X26501Y-2479D01*
X26530Y-2526D01*
X26558Y-2550D01*
X26615Y-2574D01*
X26730Y-2574D01*
X26787Y-2550D01*
X26815Y-2526D01*
X26844Y-2479D01*
X26844Y-2360D01*
X26815Y-2312D01*
X26787Y-2288D01*
X26730Y-2264D01*
X26615Y-2264D01*
X26558Y-2288D01*
X26530Y-2312D01*
X26501Y-2360D01*
X17858Y-2550D02*
X17944Y-2574D01*
X18087Y-2574D01*
X18144Y-2550D01*
X18173Y-2526D01*
X18201Y-2479D01*
X18201Y-2431D01*
X18173Y-2383D01*
X18144Y-2360D01*
X18087Y-2336D01*
X17973Y-2312D01*
X17915Y-2288D01*
X17887Y-2264D01*
X17858Y-2217D01*
X17858Y-2169D01*
X17887Y-2122D01*
X17915Y-2098D01*
X17973Y-2074D01*
X18115Y-2074D01*
X18201Y-2098D01*
X18773Y-2574D02*
X18430Y-2574D01*
X18601Y-2574D02*
X18601Y-2074D01*
X18544Y-2145D01*
X18487Y-2193D01*
X18430Y-2217D01*
X19344Y-2574D02*
X19001Y-2574D01*
X19173Y-2574D02*
X19173Y-2074D01*
X19115Y-2145D01*
X19058Y-2193D01*
X19001Y-2217D01*
X10358Y-2550D02*
X10444Y-2574D01*
X10587Y-2574D01*
X10644Y-2550D01*
X10672Y-2526D01*
X10701Y-2479D01*
X10701Y-2431D01*
X10672Y-2383D01*
X10644Y-2360D01*
X10587Y-2336D01*
X10472Y-2312D01*
X10415Y-2288D01*
X10387Y-2264D01*
X10358Y-2217D01*
X10358Y-2169D01*
X10387Y-2122D01*
X10415Y-2098D01*
X10472Y-2074D01*
X10615Y-2074D01*
X10701Y-2098D01*
X11072Y-2074D02*
X11129Y-2074D01*
X11187Y-2098D01*
X11215Y-2122D01*
X11244Y-2169D01*
X11272Y-2264D01*
X11272Y-2383D01*
X11244Y-2479D01*
X11215Y-2526D01*
X11187Y-2550D01*
X11129Y-2574D01*
X11072Y-2574D01*
X11015Y-2550D01*
X10987Y-2526D01*
X10958Y-2479D01*
X10929Y-2383D01*
X10929Y-2264D01*
X10958Y-2169D01*
X10987Y-2122D01*
X11015Y-2098D01*
X11072Y-2074D01*
X11787Y-2074D02*
X11672Y-2074D01*
X11615Y-2098D01*
X11587Y-2122D01*
X11529Y-2193D01*
X11501Y-2288D01*
X11501Y-2479D01*
X11529Y-2526D01*
X11558Y-2550D01*
X11615Y-2574D01*
X11729Y-2574D01*
X11787Y-2550D01*
X11815Y-2526D01*
X11844Y-2479D01*
X11844Y-2360D01*
X11815Y-2312D01*
X11787Y-2288D01*
X11729Y-2264D01*
X11615Y-2264D01*
X11558Y-2288D01*
X11529Y-2312D01*
X11501Y-2360D01*
X60958Y-17550D02*
X61044Y-17574D01*
X61187Y-17574D01*
X61244Y-17550D01*
X61273Y-17526D01*
X61301Y-17479D01*
X61301Y-17431D01*
X61273Y-17383D01*
X61244Y-17360D01*
X61187Y-17336D01*
X61073Y-17312D01*
X61015Y-17288D01*
X60987Y-17264D01*
X60958Y-17217D01*
X60958Y-17169D01*
X60987Y-17122D01*
X61015Y-17098D01*
X61073Y-17074D01*
X61215Y-17074D01*
X61301Y-17098D01*
X61501Y-17074D02*
X61873Y-17074D01*
X61673Y-17264D01*
X61758Y-17264D01*
X61815Y-17288D01*
X61844Y-17312D01*
X61873Y-17360D01*
X61873Y-17479D01*
X61844Y-17526D01*
X61815Y-17550D01*
X61758Y-17574D01*
X61587Y-17574D01*
X61530Y-17550D01*
X61501Y-17526D01*
X62215Y-17288D02*
X62158Y-17264D01*
X62130Y-17241D01*
X62101Y-17193D01*
X62101Y-17169D01*
X62130Y-17122D01*
X62158Y-17098D01*
X62215Y-17074D01*
X62330Y-17074D01*
X62387Y-17098D01*
X62415Y-17122D01*
X62444Y-17169D01*
X62444Y-17193D01*
X62415Y-17241D01*
X62387Y-17264D01*
X62330Y-17288D01*
X62215Y-17288D01*
X62158Y-17312D01*
X62130Y-17336D01*
X62101Y-17383D01*
X62101Y-17479D01*
X62130Y-17526D01*
X62158Y-17550D01*
X62215Y-17574D01*
X62330Y-17574D01*
X62387Y-17550D01*
X62415Y-17526D01*
X62444Y-17479D01*
X62444Y-17383D01*
X62415Y-17336D01*
X62387Y-17312D01*
X62330Y-17288D01*
X53458Y-17550D02*
X53544Y-17574D01*
X53687Y-17574D01*
X53744Y-17550D01*
X53773Y-17526D01*
X53801Y-17479D01*
X53801Y-17431D01*
X53773Y-17383D01*
X53744Y-17360D01*
X53687Y-17336D01*
X53573Y-17312D01*
X53515Y-17288D01*
X53487Y-17264D01*
X53458Y-17217D01*
X53458Y-17169D01*
X53487Y-17122D01*
X53515Y-17098D01*
X53573Y-17074D01*
X53715Y-17074D01*
X53801Y-17098D01*
X54001Y-17074D02*
X54373Y-17074D01*
X54173Y-17264D01*
X54258Y-17264D01*
X54315Y-17288D01*
X54344Y-17312D01*
X54373Y-17360D01*
X54373Y-17479D01*
X54344Y-17526D01*
X54315Y-17550D01*
X54258Y-17574D01*
X54087Y-17574D01*
X54030Y-17550D01*
X54001Y-17526D01*
X54573Y-17074D02*
X54944Y-17074D01*
X54744Y-17264D01*
X54830Y-17264D01*
X54887Y-17288D01*
X54915Y-17312D01*
X54944Y-17360D01*
X54944Y-17479D01*
X54915Y-17526D01*
X54887Y-17550D01*
X54830Y-17574D01*
X54658Y-17574D01*
X54601Y-17550D01*
X54573Y-17526D01*
X45958Y-17550D02*
X46044Y-17574D01*
X46187Y-17574D01*
X46244Y-17550D01*
X46273Y-17526D01*
X46301Y-17479D01*
X46301Y-17431D01*
X46273Y-17383D01*
X46244Y-17360D01*
X46187Y-17336D01*
X46073Y-17312D01*
X46015Y-17288D01*
X45987Y-17264D01*
X45958Y-17217D01*
X45958Y-17169D01*
X45987Y-17122D01*
X46015Y-17098D01*
X46073Y-17074D01*
X46215Y-17074D01*
X46301Y-17098D01*
X46530Y-17122D02*
X46558Y-17098D01*
X46615Y-17074D01*
X46758Y-17074D01*
X46815Y-17098D01*
X46844Y-17122D01*
X46873Y-17169D01*
X46873Y-17217D01*
X46844Y-17288D01*
X46501Y-17574D01*
X46873Y-17574D01*
X47215Y-17288D02*
X47158Y-17264D01*
X47130Y-17241D01*
X47101Y-17193D01*
X47101Y-17169D01*
X47130Y-17122D01*
X47158Y-17098D01*
X47215Y-17074D01*
X47330Y-17074D01*
X47387Y-17098D01*
X47415Y-17122D01*
X47444Y-17169D01*
X47444Y-17193D01*
X47415Y-17241D01*
X47387Y-17264D01*
X47330Y-17288D01*
X47215Y-17288D01*
X47158Y-17312D01*
X47130Y-17336D01*
X47101Y-17383D01*
X47101Y-17479D01*
X47130Y-17526D01*
X47158Y-17550D01*
X47215Y-17574D01*
X47330Y-17574D01*
X47387Y-17550D01*
X47415Y-17526D01*
X47444Y-17479D01*
X47444Y-17383D01*
X47415Y-17336D01*
X47387Y-17312D01*
X47330Y-17288D01*
X38458Y-17550D02*
X38544Y-17574D01*
X38687Y-17574D01*
X38744Y-17550D01*
X38773Y-17526D01*
X38801Y-17479D01*
X38801Y-17431D01*
X38773Y-17383D01*
X38744Y-17360D01*
X38687Y-17336D01*
X38573Y-17312D01*
X38515Y-17288D01*
X38487Y-17264D01*
X38458Y-17217D01*
X38458Y-17169D01*
X38487Y-17122D01*
X38515Y-17098D01*
X38573Y-17074D01*
X38715Y-17074D01*
X38801Y-17098D01*
X39030Y-17122D02*
X39058Y-17098D01*
X39115Y-17074D01*
X39258Y-17074D01*
X39315Y-17098D01*
X39344Y-17122D01*
X39373Y-17169D01*
X39373Y-17217D01*
X39344Y-17288D01*
X39001Y-17574D01*
X39373Y-17574D01*
X39573Y-17074D02*
X39944Y-17074D01*
X39744Y-17264D01*
X39830Y-17264D01*
X39887Y-17288D01*
X39915Y-17312D01*
X39944Y-17360D01*
X39944Y-17479D01*
X39915Y-17526D01*
X39887Y-17550D01*
X39830Y-17574D01*
X39658Y-17574D01*
X39601Y-17550D01*
X39573Y-17526D01*
X30958Y-17550D02*
X31044Y-17574D01*
X31187Y-17574D01*
X31244Y-17550D01*
X31273Y-17526D01*
X31301Y-17479D01*
X31301Y-17431D01*
X31273Y-17383D01*
X31244Y-17360D01*
X31187Y-17336D01*
X31073Y-17312D01*
X31015Y-17288D01*
X30987Y-17264D01*
X30958Y-17217D01*
X30958Y-17169D01*
X30987Y-17122D01*
X31015Y-17098D01*
X31073Y-17074D01*
X31215Y-17074D01*
X31301Y-17098D01*
X31873Y-17574D02*
X31530Y-17574D01*
X31701Y-17574D02*
X31701Y-17074D01*
X31644Y-17145D01*
X31587Y-17193D01*
X31530Y-17217D01*
X32215Y-17288D02*
X32158Y-17264D01*
X32130Y-17241D01*
X32101Y-17193D01*
X32101Y-17169D01*
X32130Y-17122D01*
X32158Y-17098D01*
X32215Y-17074D01*
X32330Y-17074D01*
X32387Y-17098D01*
X32415Y-17122D01*
X32444Y-17169D01*
X32444Y-17193D01*
X32415Y-17241D01*
X32387Y-17264D01*
X32330Y-17288D01*
X32215Y-17288D01*
X32158Y-17312D01*
X32130Y-17336D01*
X32101Y-17383D01*
X32101Y-17479D01*
X32130Y-17526D01*
X32158Y-17550D01*
X32215Y-17574D01*
X32330Y-17574D01*
X32387Y-17550D01*
X32415Y-17526D01*
X32444Y-17479D01*
X32444Y-17383D01*
X32415Y-17336D01*
X32387Y-17312D01*
X32330Y-17288D01*
X23458Y-17550D02*
X23544Y-17574D01*
X23687Y-17574D01*
X23744Y-17550D01*
X23773Y-17526D01*
X23801Y-17479D01*
X23801Y-17431D01*
X23773Y-17383D01*
X23744Y-17360D01*
X23687Y-17336D01*
X23573Y-17312D01*
X23515Y-17288D01*
X23487Y-17264D01*
X23458Y-17217D01*
X23458Y-17169D01*
X23487Y-17122D01*
X23515Y-17098D01*
X23573Y-17074D01*
X23715Y-17074D01*
X23801Y-17098D01*
X24373Y-17574D02*
X24030Y-17574D01*
X24201Y-17574D02*
X24201Y-17074D01*
X24144Y-17145D01*
X24087Y-17193D01*
X24030Y-17217D01*
X24573Y-17074D02*
X24944Y-17074D01*
X24744Y-17264D01*
X24830Y-17264D01*
X24887Y-17288D01*
X24915Y-17312D01*
X24944Y-17360D01*
X24944Y-17479D01*
X24915Y-17526D01*
X24887Y-17550D01*
X24830Y-17574D01*
X24658Y-17574D01*
X24601Y-17550D01*
X24573Y-17526D01*
X15958Y-17550D02*
X16044Y-17574D01*
X16187Y-17574D01*
X16244Y-17550D01*
X16273Y-17526D01*
X16301Y-17479D01*
X16301Y-17431D01*
X16273Y-17383D01*
X16244Y-17360D01*
X16187Y-17336D01*
X16073Y-17312D01*
X16015Y-17288D01*
X15987Y-17264D01*
X15958Y-17217D01*
X15958Y-17169D01*
X15987Y-17122D01*
X16015Y-17098D01*
X16073Y-17074D01*
X16215Y-17074D01*
X16301Y-17098D01*
X16673Y-17074D02*
X16730Y-17074D01*
X16787Y-17098D01*
X16815Y-17122D01*
X16844Y-17169D01*
X16873Y-17264D01*
X16873Y-17383D01*
X16844Y-17479D01*
X16815Y-17526D01*
X16787Y-17550D01*
X16730Y-17574D01*
X16673Y-17574D01*
X16615Y-17550D01*
X16587Y-17526D01*
X16558Y-17479D01*
X16530Y-17383D01*
X16530Y-17264D01*
X16558Y-17169D01*
X16587Y-17122D01*
X16615Y-17098D01*
X16673Y-17074D01*
X17215Y-17288D02*
X17158Y-17264D01*
X17130Y-17241D01*
X17101Y-17193D01*
X17101Y-17169D01*
X17130Y-17122D01*
X17158Y-17098D01*
X17215Y-17074D01*
X17330Y-17074D01*
X17387Y-17098D01*
X17415Y-17122D01*
X17444Y-17169D01*
X17444Y-17193D01*
X17415Y-17241D01*
X17387Y-17264D01*
X17330Y-17288D01*
X17215Y-17288D01*
X17158Y-17312D01*
X17130Y-17336D01*
X17101Y-17383D01*
X17101Y-17479D01*
X17130Y-17526D01*
X17158Y-17550D01*
X17215Y-17574D01*
X17330Y-17574D01*
X17387Y-17550D01*
X17415Y-17526D01*
X17444Y-17479D01*
X17444Y-17383D01*
X17415Y-17336D01*
X17387Y-17312D01*
X17330Y-17288D01*
X82558Y-10050D02*
X82644Y-10074D01*
X82787Y-10074D01*
X82844Y-10050D01*
X82873Y-10026D01*
X82901Y-9979D01*
X82901Y-9931D01*
X82873Y-9883D01*
X82844Y-9860D01*
X82787Y-9836D01*
X82673Y-9812D01*
X82615Y-9788D01*
X82587Y-9764D01*
X82558Y-9717D01*
X82558Y-9669D01*
X82587Y-9622D01*
X82615Y-9598D01*
X82673Y-9574D01*
X82815Y-9574D01*
X82901Y-9598D01*
X83444Y-9574D02*
X83158Y-9574D01*
X83130Y-9812D01*
X83158Y-9788D01*
X83215Y-9764D01*
X83358Y-9764D01*
X83415Y-9788D01*
X83444Y-9812D01*
X83473Y-9860D01*
X83473Y-9979D01*
X83444Y-10026D01*
X83415Y-10050D01*
X83358Y-10074D01*
X83215Y-10074D01*
X83158Y-10050D01*
X83130Y-10026D01*
X83701Y-9622D02*
X83730Y-9598D01*
X83787Y-9574D01*
X83930Y-9574D01*
X83987Y-9598D01*
X84015Y-9622D01*
X84044Y-9669D01*
X84044Y-9717D01*
X84015Y-9788D01*
X83673Y-10074D01*
X84044Y-10074D01*
X72258Y-10050D02*
X72344Y-10074D01*
X72487Y-10074D01*
X72544Y-10050D01*
X72573Y-10026D01*
X72601Y-9979D01*
X72601Y-9931D01*
X72573Y-9883D01*
X72544Y-9860D01*
X72487Y-9836D01*
X72373Y-9812D01*
X72315Y-9788D01*
X72287Y-9764D01*
X72258Y-9717D01*
X72258Y-9669D01*
X72287Y-9622D01*
X72315Y-9598D01*
X72373Y-9574D01*
X72515Y-9574D01*
X72601Y-9598D01*
X73115Y-9741D02*
X73115Y-10074D01*
X72973Y-9550D02*
X72830Y-9907D01*
X73201Y-9907D01*
X73373Y-9574D02*
X73773Y-9574D01*
X73515Y-10074D01*
X64758Y-10050D02*
X64844Y-10074D01*
X64987Y-10074D01*
X65044Y-10050D01*
X65073Y-10026D01*
X65101Y-9979D01*
X65101Y-9931D01*
X65073Y-9883D01*
X65044Y-9860D01*
X64987Y-9836D01*
X64873Y-9812D01*
X64815Y-9788D01*
X64787Y-9764D01*
X64758Y-9717D01*
X64758Y-9669D01*
X64787Y-9622D01*
X64815Y-9598D01*
X64873Y-9574D01*
X65015Y-9574D01*
X65101Y-9598D01*
X65615Y-9741D02*
X65615Y-10074D01*
X65473Y-9550D02*
X65330Y-9907D01*
X65701Y-9907D01*
X65901Y-9622D02*
X65930Y-9598D01*
X65987Y-9574D01*
X66130Y-9574D01*
X66187Y-9598D01*
X66215Y-9622D01*
X66244Y-9669D01*
X66244Y-9717D01*
X66215Y-9788D01*
X65873Y-10074D01*
X66244Y-10074D01*
X57258Y-10050D02*
X57344Y-10074D01*
X57487Y-10074D01*
X57544Y-10050D01*
X57573Y-10026D01*
X57601Y-9979D01*
X57601Y-9931D01*
X57573Y-9883D01*
X57544Y-9860D01*
X57487Y-9836D01*
X57373Y-9812D01*
X57315Y-9788D01*
X57287Y-9764D01*
X57258Y-9717D01*
X57258Y-9669D01*
X57287Y-9622D01*
X57315Y-9598D01*
X57373Y-9574D01*
X57515Y-9574D01*
X57601Y-9598D01*
X57801Y-9574D02*
X58173Y-9574D01*
X57973Y-9764D01*
X58058Y-9764D01*
X58115Y-9788D01*
X58144Y-9812D01*
X58173Y-9860D01*
X58173Y-9979D01*
X58144Y-10026D01*
X58115Y-10050D01*
X58058Y-10074D01*
X57887Y-10074D01*
X57830Y-10050D01*
X57801Y-10026D01*
X58373Y-9574D02*
X58773Y-9574D01*
X58515Y-10074D01*
X42258Y-10050D02*
X42344Y-10074D01*
X42487Y-10074D01*
X42544Y-10050D01*
X42573Y-10026D01*
X42601Y-9979D01*
X42601Y-9931D01*
X42573Y-9883D01*
X42544Y-9860D01*
X42487Y-9836D01*
X42373Y-9812D01*
X42315Y-9788D01*
X42287Y-9764D01*
X42258Y-9717D01*
X42258Y-9669D01*
X42287Y-9622D01*
X42315Y-9598D01*
X42373Y-9574D01*
X42515Y-9574D01*
X42601Y-9598D01*
X42830Y-9622D02*
X42858Y-9598D01*
X42915Y-9574D01*
X43058Y-9574D01*
X43115Y-9598D01*
X43144Y-9622D01*
X43173Y-9669D01*
X43173Y-9717D01*
X43144Y-9788D01*
X42801Y-10074D01*
X43173Y-10074D01*
X43373Y-9574D02*
X43773Y-9574D01*
X43515Y-10074D01*
X34758Y-10050D02*
X34844Y-10074D01*
X34987Y-10074D01*
X35044Y-10050D01*
X35073Y-10026D01*
X35101Y-9979D01*
X35101Y-9931D01*
X35073Y-9883D01*
X35044Y-9860D01*
X34987Y-9836D01*
X34873Y-9812D01*
X34815Y-9788D01*
X34787Y-9764D01*
X34758Y-9717D01*
X34758Y-9669D01*
X34787Y-9622D01*
X34815Y-9598D01*
X34873Y-9574D01*
X35015Y-9574D01*
X35101Y-9598D01*
X35330Y-9622D02*
X35358Y-9598D01*
X35415Y-9574D01*
X35558Y-9574D01*
X35615Y-9598D01*
X35644Y-9622D01*
X35673Y-9669D01*
X35673Y-9717D01*
X35644Y-9788D01*
X35301Y-10074D01*
X35673Y-10074D01*
X35901Y-9622D02*
X35930Y-9598D01*
X35987Y-9574D01*
X36130Y-9574D01*
X36187Y-9598D01*
X36215Y-9622D01*
X36244Y-9669D01*
X36244Y-9717D01*
X36215Y-9788D01*
X35873Y-10074D01*
X36244Y-10074D01*
X77858Y-2550D02*
X77944Y-2574D01*
X78087Y-2574D01*
X78144Y-2550D01*
X78173Y-2526D01*
X78201Y-2479D01*
X78201Y-2431D01*
X78173Y-2383D01*
X78144Y-2360D01*
X78087Y-2336D01*
X77973Y-2312D01*
X77915Y-2288D01*
X77887Y-2264D01*
X77858Y-2217D01*
X77858Y-2169D01*
X77887Y-2122D01*
X77915Y-2098D01*
X77973Y-2074D01*
X78115Y-2074D01*
X78201Y-2098D01*
X78744Y-2074D02*
X78458Y-2074D01*
X78430Y-2312D01*
X78458Y-2288D01*
X78515Y-2264D01*
X78658Y-2264D01*
X78715Y-2288D01*
X78744Y-2312D01*
X78773Y-2360D01*
X78773Y-2479D01*
X78744Y-2526D01*
X78715Y-2550D01*
X78658Y-2574D01*
X78515Y-2574D01*
X78458Y-2550D01*
X78430Y-2526D01*
X79344Y-2574D02*
X79001Y-2574D01*
X79173Y-2574D02*
X79173Y-2074D01*
X79115Y-2145D01*
X79058Y-2193D01*
X79001Y-2217D01*
X2858Y-2550D02*
X2944Y-2574D01*
X3087Y-2574D01*
X3144Y-2550D01*
X3172Y-2526D01*
X3201Y-2479D01*
X3201Y-2431D01*
X3172Y-2383D01*
X3144Y-2360D01*
X3087Y-2336D01*
X2972Y-2312D01*
X2915Y-2288D01*
X2887Y-2264D01*
X2858Y-2217D01*
X2858Y-2169D01*
X2887Y-2122D01*
X2915Y-2098D01*
X2972Y-2074D01*
X3115Y-2074D01*
X3201Y-2098D01*
X3572Y-2074D02*
X3629Y-2074D01*
X3687Y-2098D01*
X3715Y-2122D01*
X3744Y-2169D01*
X3772Y-2264D01*
X3772Y-2383D01*
X3744Y-2479D01*
X3715Y-2526D01*
X3687Y-2550D01*
X3629Y-2574D01*
X3572Y-2574D01*
X3515Y-2550D01*
X3487Y-2526D01*
X3458Y-2479D01*
X3429Y-2383D01*
X3429Y-2264D01*
X3458Y-2169D01*
X3487Y-2122D01*
X3515Y-2098D01*
X3572Y-2074D01*
X4344Y-2574D02*
X4001Y-2574D01*
X4172Y-2574D02*
X4172Y-2074D01*
X4115Y-2145D01*
X4058Y-2193D01*
X4001Y-2217D01*
G54D11*
X431Y-29304D02*
X234Y-29304D01*
X234Y-29229D01*
X243Y-29211D01*
X252Y-29201D01*
X271Y-29192D01*
X299Y-29192D01*
X318Y-29201D01*
X327Y-29211D01*
X337Y-29229D01*
X337Y-29304D01*
X252Y-29117D02*
X243Y-29107D01*
X234Y-29089D01*
X234Y-29042D01*
X243Y-29023D01*
X252Y-29014D01*
X271Y-29004D01*
X290Y-29004D01*
X318Y-29014D01*
X431Y-29126D01*
X431Y-29004D01*
X234Y-28882D02*
X234Y-28864D01*
X243Y-28845D01*
X252Y-28836D01*
X271Y-28826D01*
X309Y-28817D01*
X356Y-28817D01*
X393Y-28826D01*
X412Y-28836D01*
X421Y-28845D01*
X431Y-28864D01*
X431Y-28882D01*
X421Y-28901D01*
X412Y-28911D01*
X393Y-28920D01*
X356Y-28929D01*
X309Y-28929D01*
X271Y-28920D01*
X252Y-28911D01*
X243Y-28901D01*
X234Y-28882D01*
X234Y-28695D02*
X234Y-28676D01*
X243Y-28658D01*
X252Y-28648D01*
X271Y-28639D01*
X309Y-28629D01*
X356Y-28629D01*
X393Y-28639D01*
X412Y-28648D01*
X421Y-28658D01*
X431Y-28676D01*
X431Y-28695D01*
X421Y-28714D01*
X412Y-28723D01*
X393Y-28733D01*
X356Y-28742D01*
X309Y-28742D01*
X271Y-28733D01*
X252Y-28723D01*
X243Y-28714D01*
X234Y-28695D01*
X243Y-28622D02*
X234Y-28640D01*
X234Y-28668D01*
X243Y-28697D01*
X262Y-28715D01*
X281Y-28725D01*
X318Y-28734D01*
X346Y-28734D01*
X384Y-28725D01*
X402Y-28715D01*
X421Y-28697D01*
X431Y-28668D01*
X431Y-28650D01*
X421Y-28622D01*
X412Y-28612D01*
X346Y-28612D01*
X346Y-28650D01*
X431Y-28528D02*
X234Y-28528D01*
X431Y-28415D01*
X234Y-28415D01*
X431Y-28322D02*
X234Y-28322D01*
X234Y-28275D01*
X243Y-28247D01*
X262Y-28228D01*
X281Y-28218D01*
X318Y-28209D01*
X346Y-28209D01*
X384Y-28218D01*
X402Y-28228D01*
X421Y-28247D01*
X431Y-28275D01*
X431Y-28322D01*
X89481Y-1154D02*
X89284Y-1154D01*
X89284Y-1079D01*
X89293Y-1061D01*
X89303Y-1051D01*
X89321Y-1042D01*
X89350Y-1042D01*
X89368Y-1051D01*
X89378Y-1061D01*
X89387Y-1079D01*
X89387Y-1154D01*
X89303Y-967D02*
X89293Y-957D01*
X89284Y-939D01*
X89284Y-892D01*
X89293Y-873D01*
X89303Y-864D01*
X89321Y-854D01*
X89340Y-854D01*
X89368Y-864D01*
X89481Y-976D01*
X89481Y-854D01*
X89284Y-732D02*
X89284Y-714D01*
X89293Y-695D01*
X89303Y-686D01*
X89321Y-676D01*
X89359Y-667D01*
X89406Y-667D01*
X89443Y-676D01*
X89462Y-686D01*
X89471Y-695D01*
X89481Y-714D01*
X89481Y-732D01*
X89471Y-751D01*
X89462Y-761D01*
X89443Y-770D01*
X89406Y-779D01*
X89359Y-779D01*
X89321Y-770D01*
X89303Y-761D01*
X89293Y-751D01*
X89284Y-732D01*
X89481Y-479D02*
X89481Y-592D01*
X89481Y-536D02*
X89284Y-536D01*
X89312Y-554D01*
X89331Y-573D01*
X89340Y-592D01*
X89293Y-1472D02*
X89284Y-1490D01*
X89284Y-1518D01*
X89293Y-1547D01*
X89312Y-1565D01*
X89331Y-1575D01*
X89368Y-1584D01*
X89396Y-1584D01*
X89434Y-1575D01*
X89453Y-1565D01*
X89471Y-1547D01*
X89481Y-1518D01*
X89481Y-1500D01*
X89471Y-1472D01*
X89462Y-1462D01*
X89396Y-1462D01*
X89396Y-1500D01*
X89481Y-1378D02*
X89284Y-1378D01*
X89481Y-1265D01*
X89284Y-1265D01*
X89481Y-1172D02*
X89284Y-1172D01*
X89284Y-1125D01*
X89293Y-1097D01*
X89312Y-1078D01*
X89331Y-1068D01*
X89368Y-1059D01*
X89396Y-1059D01*
X89434Y-1068D01*
X89453Y-1078D01*
X89471Y-1097D01*
X89481Y-1125D01*
X89481Y-1172D01*
X89481Y-29304D02*
X89284Y-29304D01*
X89284Y-29229D01*
X89293Y-29211D01*
X89303Y-29201D01*
X89321Y-29192D01*
X89350Y-29192D01*
X89368Y-29201D01*
X89378Y-29211D01*
X89387Y-29229D01*
X89387Y-29304D01*
X89303Y-29117D02*
X89293Y-29107D01*
X89284Y-29089D01*
X89284Y-29042D01*
X89293Y-29023D01*
X89303Y-29014D01*
X89321Y-29004D01*
X89340Y-29004D01*
X89368Y-29014D01*
X89481Y-29126D01*
X89481Y-29004D01*
X89284Y-28882D02*
X89284Y-28864D01*
X89293Y-28845D01*
X89303Y-28836D01*
X89321Y-28826D01*
X89359Y-28817D01*
X89406Y-28817D01*
X89443Y-28826D01*
X89462Y-28836D01*
X89471Y-28845D01*
X89481Y-28864D01*
X89481Y-28882D01*
X89471Y-28901D01*
X89462Y-28911D01*
X89443Y-28920D01*
X89406Y-28929D01*
X89359Y-28929D01*
X89321Y-28920D01*
X89303Y-28911D01*
X89293Y-28901D01*
X89284Y-28882D01*
X89303Y-28742D02*
X89293Y-28733D01*
X89284Y-28714D01*
X89284Y-28667D01*
X89293Y-28648D01*
X89303Y-28639D01*
X89321Y-28629D01*
X89340Y-28629D01*
X89368Y-28639D01*
X89481Y-28751D01*
X89481Y-28629D01*
X89293Y-28622D02*
X89284Y-28640D01*
X89284Y-28668D01*
X89293Y-28697D01*
X89312Y-28715D01*
X89331Y-28725D01*
X89368Y-28734D01*
X89396Y-28734D01*
X89434Y-28725D01*
X89453Y-28715D01*
X89471Y-28697D01*
X89481Y-28668D01*
X89481Y-28650D01*
X89471Y-28622D01*
X89462Y-28612D01*
X89396Y-28612D01*
X89396Y-28650D01*
X89481Y-28528D02*
X89284Y-28528D01*
X89481Y-28415D01*
X89284Y-28415D01*
X89481Y-28322D02*
X89284Y-28322D01*
X89284Y-28275D01*
X89293Y-28247D01*
X89312Y-28228D01*
X89331Y-28218D01*
X89368Y-28209D01*
X89396Y-28209D01*
X89434Y-28218D01*
X89453Y-28228D01*
X89471Y-28247D01*
X89481Y-28275D01*
X89481Y-28322D01*
X431Y-1154D02*
X234Y-1154D01*
X234Y-1079D01*
X243Y-1061D01*
X252Y-1051D01*
X271Y-1042D01*
X299Y-1042D01*
X318Y-1051D01*
X327Y-1061D01*
X337Y-1079D01*
X337Y-1154D01*
X252Y-967D02*
X243Y-957D01*
X234Y-939D01*
X234Y-892D01*
X243Y-873D01*
X252Y-864D01*
X271Y-854D01*
X290Y-854D01*
X318Y-864D01*
X431Y-976D01*
X431Y-854D01*
X234Y-732D02*
X234Y-714D01*
X243Y-695D01*
X252Y-686D01*
X271Y-676D01*
X309Y-667D01*
X356Y-667D01*
X393Y-676D01*
X412Y-686D01*
X421Y-695D01*
X431Y-714D01*
X431Y-732D01*
X421Y-751D01*
X412Y-761D01*
X393Y-770D01*
X356Y-779D01*
X309Y-779D01*
X271Y-770D01*
X252Y-761D01*
X243Y-751D01*
X234Y-732D01*
X234Y-601D02*
X234Y-479D01*
X309Y-545D01*
X309Y-517D01*
X318Y-498D01*
X327Y-489D01*
X346Y-479D01*
X393Y-479D01*
X412Y-489D01*
X421Y-498D01*
X431Y-517D01*
X431Y-573D01*
X421Y-592D01*
X412Y-601D01*
X243Y-1472D02*
X234Y-1490D01*
X234Y-1518D01*
X243Y-1547D01*
X262Y-1565D01*
X281Y-1575D01*
X318Y-1584D01*
X346Y-1584D01*
X384Y-1575D01*
X402Y-1565D01*
X421Y-1547D01*
X431Y-1518D01*
X431Y-1500D01*
X421Y-1472D01*
X412Y-1462D01*
X346Y-1462D01*
X346Y-1500D01*
X431Y-1378D02*
X234Y-1378D01*
X431Y-1265D01*
X234Y-1265D01*
X431Y-1172D02*
X234Y-1172D01*
X234Y-1125D01*
X243Y-1097D01*
X262Y-1078D01*
X281Y-1068D01*
X318Y-1059D01*
X346Y-1059D01*
X384Y-1068D01*
X402Y-1078D01*
X421Y-1097D01*
X431Y-1125D01*
X431Y-1172D01*
X25056Y-22891D02*
X24859Y-22891D01*
X24859Y-22816D01*
X24868Y-22798D01*
X24877Y-22788D01*
X24896Y-22779D01*
X24924Y-22779D01*
X24943Y-22788D01*
X24952Y-22798D01*
X24962Y-22816D01*
X24962Y-22891D01*
X24877Y-22704D02*
X24868Y-22694D01*
X24859Y-22676D01*
X24859Y-22629D01*
X24868Y-22610D01*
X24877Y-22601D01*
X24896Y-22591D01*
X24915Y-22591D01*
X24943Y-22601D01*
X25056Y-22713D01*
X25056Y-22591D01*
X24859Y-22470D02*
X24859Y-22451D01*
X24868Y-22432D01*
X24877Y-22423D01*
X24896Y-22413D01*
X24934Y-22404D01*
X24981Y-22404D01*
X25018Y-22413D01*
X25037Y-22423D01*
X25046Y-22432D01*
X25056Y-22451D01*
X25056Y-22470D01*
X25046Y-22488D01*
X25037Y-22498D01*
X25018Y-22507D01*
X24981Y-22516D01*
X24934Y-22516D01*
X24896Y-22507D01*
X24877Y-22498D01*
X24868Y-22488D01*
X24859Y-22470D01*
X24924Y-22235D02*
X25056Y-22235D01*
X24849Y-22282D02*
X24990Y-22329D01*
X24990Y-22207D01*
X24868Y-22209D02*
X24859Y-22227D01*
X24859Y-22255D01*
X24868Y-22284D01*
X24887Y-22302D01*
X24906Y-22312D01*
X24943Y-22321D01*
X24971Y-22321D01*
X25009Y-22312D01*
X25027Y-22302D01*
X25046Y-22284D01*
X25056Y-22255D01*
X25056Y-22237D01*
X25046Y-22209D01*
X25037Y-22199D01*
X24971Y-22199D01*
X24971Y-22237D01*
X25056Y-22115D02*
X24859Y-22115D01*
X25056Y-22002D01*
X24859Y-22002D01*
X25056Y-21909D02*
X24859Y-21909D01*
X24859Y-21862D01*
X24868Y-21834D01*
X24887Y-21815D01*
X24906Y-21805D01*
X24943Y-21796D01*
X24971Y-21796D01*
X25009Y-21805D01*
X25027Y-21815D01*
X25046Y-21834D01*
X25056Y-21862D01*
X25056Y-21909D01*
X30056Y-1391D02*
X29859Y-1391D01*
X29859Y-1316D01*
X29868Y-1298D01*
X29877Y-1288D01*
X29896Y-1279D01*
X29924Y-1279D01*
X29943Y-1288D01*
X29952Y-1298D01*
X29962Y-1316D01*
X29962Y-1391D01*
X29877Y-1204D02*
X29868Y-1194D01*
X29859Y-1176D01*
X29859Y-1129D01*
X29868Y-1110D01*
X29877Y-1101D01*
X29896Y-1091D01*
X29915Y-1091D01*
X29943Y-1101D01*
X30056Y-1213D01*
X30056Y-1091D01*
X29859Y-970D02*
X29859Y-951D01*
X29868Y-932D01*
X29877Y-923D01*
X29896Y-913D01*
X29934Y-904D01*
X29981Y-904D01*
X30018Y-913D01*
X30037Y-923D01*
X30046Y-932D01*
X30056Y-951D01*
X30056Y-970D01*
X30046Y-988D01*
X30037Y-998D01*
X30018Y-1007D01*
X29981Y-1016D01*
X29934Y-1016D01*
X29896Y-1007D01*
X29877Y-998D01*
X29868Y-988D01*
X29859Y-970D01*
X29859Y-726D02*
X29859Y-820D01*
X29952Y-829D01*
X29943Y-820D01*
X29934Y-801D01*
X29934Y-754D01*
X29943Y-735D01*
X29952Y-726D01*
X29971Y-716D01*
X30018Y-716D01*
X30037Y-726D01*
X30046Y-735D01*
X30056Y-754D01*
X30056Y-801D01*
X30046Y-820D01*
X30037Y-829D01*
X29868Y-1709D02*
X29859Y-1727D01*
X29859Y-1755D01*
X29868Y-1784D01*
X29887Y-1802D01*
X29906Y-1812D01*
X29943Y-1821D01*
X29971Y-1821D01*
X30009Y-1812D01*
X30027Y-1802D01*
X30046Y-1784D01*
X30056Y-1755D01*
X30056Y-1737D01*
X30046Y-1709D01*
X30037Y-1699D01*
X29971Y-1699D01*
X29971Y-1737D01*
X30056Y-1615D02*
X29859Y-1615D01*
X30056Y-1502D01*
X29859Y-1502D01*
X30056Y-1409D02*
X29859Y-1409D01*
X29859Y-1362D01*
X29868Y-1334D01*
X29887Y-1315D01*
X29906Y-1305D01*
X29943Y-1296D01*
X29971Y-1296D01*
X30009Y-1305D01*
X30027Y-1315D01*
X30046Y-1334D01*
X30056Y-1362D01*
X30056Y-1409D01*
G54D18*
X46858Y-25000D02*
X46944Y-25024D01*
X47087Y-25024D01*
X47144Y-25000D01*
X47173Y-24976D01*
X47201Y-24929D01*
X47201Y-24881D01*
X47173Y-24833D01*
X47144Y-24810D01*
X47087Y-24786D01*
X46973Y-24762D01*
X46915Y-24738D01*
X46887Y-24714D01*
X46858Y-24667D01*
X46858Y-24619D01*
X46887Y-24572D01*
X46915Y-24548D01*
X46973Y-24524D01*
X47115Y-24524D01*
X47201Y-24548D01*
X47430Y-24572D02*
X47458Y-24548D01*
X47515Y-24524D01*
X47658Y-24524D01*
X47715Y-24548D01*
X47744Y-24572D01*
X47773Y-24619D01*
X47773Y-24667D01*
X47744Y-24738D01*
X47401Y-25024D01*
X47773Y-25024D01*
X48058Y-25024D02*
X48173Y-25024D01*
X48230Y-25000D01*
X48258Y-24976D01*
X48315Y-24905D01*
X48344Y-24810D01*
X48344Y-24619D01*
X48315Y-24572D01*
X48287Y-24548D01*
X48230Y-24524D01*
X48115Y-24524D01*
X48058Y-24548D01*
X48030Y-24572D01*
X48001Y-24619D01*
X48001Y-24738D01*
X48030Y-24786D01*
X48058Y-24810D01*
X48115Y-24833D01*
X48230Y-24833D01*
X48287Y-24810D01*
X48315Y-24786D01*
X48344Y-24738D01*
X84173Y-17550D02*
X84258Y-17574D01*
X84401Y-17574D01*
X84458Y-17550D01*
X84487Y-17526D01*
X84515Y-17479D01*
X84515Y-17431D01*
X84487Y-17383D01*
X84458Y-17360D01*
X84401Y-17336D01*
X84287Y-17312D01*
X84230Y-17288D01*
X84201Y-17264D01*
X84173Y-17217D01*
X84173Y-17169D01*
X84201Y-17122D01*
X84230Y-17098D01*
X84287Y-17074D01*
X84430Y-17074D01*
X84515Y-17098D01*
X85058Y-17074D02*
X84773Y-17074D01*
X84744Y-17312D01*
X84773Y-17288D01*
X84830Y-17264D01*
X84973Y-17264D01*
X85030Y-17288D01*
X85058Y-17312D01*
X85087Y-17360D01*
X85087Y-17479D01*
X85058Y-17526D01*
X85030Y-17550D01*
X84973Y-17574D01*
X84830Y-17574D01*
X84773Y-17550D01*
X84744Y-17526D01*
X85287Y-17074D02*
X85658Y-17074D01*
X85458Y-17264D01*
X85544Y-17264D01*
X85601Y-17288D01*
X85630Y-17312D01*
X85658Y-17360D01*
X85658Y-17479D01*
X85630Y-17526D01*
X85601Y-17550D01*
X85544Y-17574D01*
X85373Y-17574D01*
X85315Y-17550D01*
X85287Y-17526D01*
X86230Y-17574D02*
X85887Y-17574D01*
X86058Y-17574D02*
X86058Y-17074D01*
X86001Y-17145D01*
X85944Y-17193D01*
X85887Y-17217D01*
X75673Y-17550D02*
X75758Y-17574D01*
X75901Y-17574D01*
X75958Y-17550D01*
X75987Y-17526D01*
X76015Y-17479D01*
X76015Y-17431D01*
X75987Y-17383D01*
X75958Y-17360D01*
X75901Y-17336D01*
X75787Y-17312D01*
X75730Y-17288D01*
X75701Y-17264D01*
X75673Y-17217D01*
X75673Y-17169D01*
X75701Y-17122D01*
X75730Y-17098D01*
X75787Y-17074D01*
X75930Y-17074D01*
X76015Y-17098D01*
X76530Y-17241D02*
X76530Y-17574D01*
X76387Y-17050D02*
X76244Y-17407D01*
X76615Y-17407D01*
X76930Y-17288D02*
X76873Y-17264D01*
X76844Y-17241D01*
X76815Y-17193D01*
X76815Y-17169D01*
X76844Y-17122D01*
X76873Y-17098D01*
X76930Y-17074D01*
X77044Y-17074D01*
X77101Y-17098D01*
X77130Y-17122D01*
X77158Y-17169D01*
X77158Y-17193D01*
X77130Y-17241D01*
X77101Y-17264D01*
X77044Y-17288D01*
X76930Y-17288D01*
X76873Y-17312D01*
X76844Y-17336D01*
X76815Y-17383D01*
X76815Y-17479D01*
X76844Y-17526D01*
X76873Y-17550D01*
X76930Y-17574D01*
X77044Y-17574D01*
X77101Y-17550D01*
X77130Y-17526D01*
X77158Y-17479D01*
X77158Y-17383D01*
X77130Y-17336D01*
X77101Y-17312D01*
X77044Y-17288D01*
X77730Y-17574D02*
X77387Y-17574D01*
X77558Y-17574D02*
X77558Y-17074D01*
X77501Y-17145D01*
X77444Y-17193D01*
X77387Y-17217D01*
%LPC*%
G54D19*
X89071Y-22244D03*
G54D20*
X78701Y-11122D03*
X16801Y-7722D03*
X50472Y-18503D03*
G54D19*
X574Y-22244D03*
G54D21*
X6299Y-1523D03*
X8031Y-1523D03*
G54D22*
X37376Y-2559D03*
X37376Y-3559D03*
X37376Y-4559D03*
X44876Y-5559D03*
X44876Y-4559D03*
X44876Y-1559D03*
X37376Y-5559D03*
X52376Y-2559D03*
X52376Y-5559D03*
X52376Y-4559D03*
X52376Y-3559D03*
X59876Y-1559D03*
X59876Y-3559D03*
X52376Y-1559D03*
X36576Y-23024D03*
X36576Y-24024D03*
X34576Y-24024D03*
X34576Y-23024D03*
X35576Y-24024D03*
X35576Y-23024D03*
X37111Y-28809D03*
X35111Y-28809D03*
X33111Y-28809D03*
X36111Y-28809D03*
X34111Y-28809D03*
X38111Y-28809D03*
X44876Y-2559D03*
X44876Y-3559D03*
X67376Y-5559D03*
X67376Y-1559D03*
X67376Y-3559D03*
X67376Y-4559D03*
X67376Y-2559D03*
X59876Y-5559D03*
G54D23*
X1376Y-13509D03*
X1376Y-10509D03*
X2701Y-16622D03*
X2701Y-19622D03*
G54D24*
X3551Y-28122D03*
X6051Y-27122D03*
G54D25*
X4551Y-26122D03*
G54D26*
X6551Y-26122D03*
X2551Y-26122D03*
G54D24*
X3551Y-13122D03*
X6051Y-12122D03*
G54D25*
X4551Y-11122D03*
G54D26*
X6551Y-11122D03*
X2551Y-11122D03*
G54D24*
X5401Y-20622D03*
X7901Y-19622D03*
G54D25*
X6401Y-18622D03*
G54D26*
X8401Y-18622D03*
X4401Y-18622D03*
G54D27*
X24701Y-16622D03*
G54D28*
X23701Y-16622D03*
G54D27*
X13501Y-24122D03*
G54D28*
X12501Y-24122D03*
G54D27*
X17201Y-16622D03*
G54D28*
X16201Y-16622D03*
G54D27*
X5051Y-9122D03*
G54D28*
X4051Y-9122D03*
G54D27*
X11601Y-1621D03*
G54D28*
X10601Y-1621D03*
G54D27*
X5051Y-24122D03*
G54D28*
X4051Y-24122D03*
G54D24*
X85101Y-20622D03*
X87601Y-19622D03*
G54D25*
X86101Y-18622D03*
G54D26*
X88101Y-18622D03*
X84101Y-18622D03*
G54D24*
X49501Y-13122D03*
X52001Y-12122D03*
G54D25*
X50501Y-11122D03*
G54D26*
X52501Y-11122D03*
X48501Y-11122D03*
G54D24*
X70101Y-5622D03*
X72601Y-4622D03*
G54D25*
X71101Y-3622D03*
G54D26*
X73101Y-3622D03*
X69101Y-3622D03*
G54D24*
X32601Y-5622D03*
X35101Y-4622D03*
G54D25*
X33601Y-3622D03*
G54D26*
X35601Y-3622D03*
X31601Y-3622D03*
G54D24*
X84151Y-28122D03*
X86651Y-27122D03*
G54D25*
X85151Y-26122D03*
G54D26*
X87151Y-26122D03*
X83151Y-26122D03*
G54D24*
X74801Y-28122D03*
X77301Y-27122D03*
G54D25*
X75801Y-26122D03*
G54D26*
X77801Y-26122D03*
X73801Y-26122D03*
G54D24*
X19501Y-28122D03*
X22001Y-27122D03*
G54D25*
X20501Y-26122D03*
G54D26*
X22501Y-26122D03*
X18501Y-26122D03*
G54D24*
X12001Y-28122D03*
X14501Y-27122D03*
G54D25*
X13001Y-26122D03*
G54D26*
X15001Y-26122D03*
X11001Y-26122D03*
G54D24*
X76651Y-20622D03*
X79151Y-19622D03*
G54D25*
X77651Y-18622D03*
G54D26*
X79651Y-18622D03*
X75651Y-18622D03*
G54D24*
X68201Y-20622D03*
X70701Y-19622D03*
G54D25*
X69201Y-18622D03*
G54D26*
X71201Y-18622D03*
X67201Y-18622D03*
G54D24*
X27001Y-13122D03*
X29501Y-12122D03*
G54D25*
X28001Y-11122D03*
G54D26*
X30001Y-11122D03*
X26001Y-11122D03*
G54D24*
X19501Y-13122D03*
X22001Y-12122D03*
G54D25*
X20501Y-11122D03*
G54D26*
X22501Y-11122D03*
X18501Y-11122D03*
G54D24*
X12001Y-13122D03*
X14501Y-12122D03*
G54D25*
X13001Y-11122D03*
G54D26*
X15001Y-11122D03*
X11001Y-11122D03*
G54D24*
X85101Y-5622D03*
X87601Y-4622D03*
G54D25*
X86101Y-3622D03*
G54D26*
X88101Y-3622D03*
X84101Y-3622D03*
G54D24*
X62601Y-5622D03*
X65101Y-4622D03*
G54D25*
X63601Y-3622D03*
G54D26*
X65601Y-3622D03*
X61601Y-3622D03*
G54D24*
X55101Y-5622D03*
X57601Y-4622D03*
G54D25*
X56101Y-3622D03*
G54D26*
X58101Y-3622D03*
X54101Y-3622D03*
G54D24*
X47601Y-5622D03*
X50101Y-4622D03*
G54D25*
X48601Y-3622D03*
G54D26*
X50601Y-3622D03*
X46601Y-3622D03*
G54D24*
X40101Y-5622D03*
X42601Y-4622D03*
G54D25*
X41101Y-3622D03*
G54D26*
X43101Y-3622D03*
X39101Y-3622D03*
G54D24*
X25101Y-5622D03*
X27601Y-4622D03*
G54D25*
X26101Y-3622D03*
G54D26*
X28101Y-3622D03*
X24101Y-3622D03*
G54D24*
X17601Y-5622D03*
X20101Y-4622D03*
G54D25*
X18601Y-3622D03*
G54D26*
X20601Y-3622D03*
X16601Y-3622D03*
G54D24*
X10101Y-5622D03*
X12601Y-4622D03*
G54D25*
X11101Y-3622D03*
G54D26*
X13101Y-3622D03*
X9101Y-3622D03*
G54D24*
X60701Y-20622D03*
X63201Y-19622D03*
G54D25*
X61701Y-18622D03*
G54D26*
X63701Y-18622D03*
X59701Y-18622D03*
G54D24*
X53201Y-20622D03*
X55701Y-19622D03*
G54D25*
X54201Y-18622D03*
G54D26*
X56201Y-18622D03*
X52201Y-18622D03*
G54D24*
X45701Y-20622D03*
X48201Y-19622D03*
G54D25*
X46701Y-18622D03*
G54D26*
X48701Y-18622D03*
X44701Y-18622D03*
G54D24*
X38201Y-20622D03*
X40701Y-19622D03*
G54D25*
X39201Y-18622D03*
G54D26*
X41201Y-18622D03*
X37201Y-18622D03*
G54D24*
X30701Y-20622D03*
X33201Y-19622D03*
G54D25*
X31701Y-18622D03*
G54D26*
X33701Y-18622D03*
X29701Y-18622D03*
G54D24*
X23201Y-20622D03*
X25701Y-19622D03*
G54D25*
X24201Y-18622D03*
G54D26*
X26201Y-18622D03*
X22201Y-18622D03*
G54D24*
X15701Y-20622D03*
X18201Y-19622D03*
G54D25*
X16701Y-18622D03*
G54D26*
X18701Y-18622D03*
X14701Y-18622D03*
G54D24*
X82301Y-13122D03*
X84801Y-12122D03*
G54D25*
X83301Y-11122D03*
G54D26*
X85301Y-11122D03*
X81301Y-11122D03*
G54D24*
X72001Y-13122D03*
X74501Y-12122D03*
G54D25*
X73001Y-11122D03*
G54D26*
X75001Y-11122D03*
X71001Y-11122D03*
G54D24*
X64501Y-13122D03*
X67001Y-12122D03*
G54D25*
X65501Y-11122D03*
G54D26*
X67501Y-11122D03*
X63501Y-11122D03*
G54D24*
X57001Y-13122D03*
X59501Y-12122D03*
G54D25*
X58001Y-11122D03*
G54D26*
X60001Y-11122D03*
X56001Y-11122D03*
G54D24*
X42001Y-13122D03*
X44501Y-12122D03*
G54D25*
X43001Y-11122D03*
G54D26*
X45001Y-11122D03*
X41001Y-11122D03*
G54D24*
X34501Y-13122D03*
X37001Y-12122D03*
G54D25*
X35501Y-11122D03*
G54D26*
X37501Y-11122D03*
X33501Y-11122D03*
G54D24*
X77601Y-5622D03*
X80101Y-4622D03*
G54D25*
X78601Y-3622D03*
G54D26*
X80601Y-3622D03*
X76601Y-3622D03*
G54D27*
X48271Y-24124D03*
G54D28*
X47271Y-24124D03*
G54D27*
X62201Y-16622D03*
G54D28*
X61201Y-16622D03*
G54D27*
X54701Y-16622D03*
G54D28*
X53701Y-16622D03*
G54D27*
X47201Y-16622D03*
G54D28*
X46201Y-16622D03*
G54D27*
X39701Y-16622D03*
G54D28*
X38701Y-16622D03*
G54D27*
X83801Y-9122D03*
G54D28*
X82801Y-9122D03*
G54D27*
X73501Y-9122D03*
G54D28*
X72501Y-9122D03*
G54D27*
X66001Y-9122D03*
G54D28*
X65001Y-9122D03*
G54D27*
X32201Y-16672D03*
G54D28*
X31201Y-16672D03*
G54D27*
X58501Y-9122D03*
G54D28*
X57501Y-9122D03*
G54D27*
X34101Y-1622D03*
G54D28*
X33101Y-1622D03*
G54D27*
X41601Y-1622D03*
G54D28*
X40601Y-1622D03*
G54D27*
X49101Y-1622D03*
G54D28*
X48101Y-1622D03*
G54D27*
X56601Y-1622D03*
G54D28*
X55601Y-1622D03*
G54D27*
X26601Y-1622D03*
G54D28*
X25601Y-1622D03*
G54D27*
X51001Y-9122D03*
G54D28*
X50001Y-9122D03*
G54D27*
X64101Y-1622D03*
G54D28*
X63101Y-1622D03*
G54D27*
X71601Y-1622D03*
G54D28*
X70601Y-1622D03*
G54D27*
X79101Y-1622D03*
G54D28*
X78101Y-1622D03*
G54D27*
X86601Y-1622D03*
G54D28*
X85601Y-1622D03*
G54D27*
X36001Y-9122D03*
G54D28*
X35001Y-9122D03*
G54D27*
X43501Y-9122D03*
G54D28*
X42501Y-9122D03*
G54D27*
X85651Y-24122D03*
G54D28*
X84651Y-24122D03*
G54D27*
X76301Y-24122D03*
G54D28*
X75301Y-24122D03*
G54D27*
X69701Y-16622D03*
G54D28*
X68701Y-16622D03*
G54D27*
X78151Y-16622D03*
G54D28*
X77151Y-16622D03*
G54D27*
X21001Y-24122D03*
G54D28*
X20001Y-24122D03*
G54D27*
X86601Y-16622D03*
G54D28*
X85601Y-16622D03*
G54D27*
X4101Y-1621D03*
G54D28*
X3101Y-1621D03*
G54D24*
X2601Y-5622D03*
X5101Y-4622D03*
G54D25*
X3601Y-3622D03*
G54D26*
X5601Y-3622D03*
X1601Y-3622D03*
G54D27*
X6901Y-16622D03*
G54D28*
X5901Y-16622D03*
G54D23*
X31301Y-12122D03*
X31301Y-9122D03*
X23851Y-12122D03*
X23851Y-9122D03*
X16301Y-13022D03*
X16301Y-10022D03*
X22001Y-4622D03*
X22001Y-1622D03*
G54D27*
X28501Y-9122D03*
G54D28*
X27501Y-9122D03*
G54D27*
X21001Y-9122D03*
G54D28*
X20001Y-9122D03*
G54D27*
X13501Y-9122D03*
G54D28*
X12501Y-9122D03*
G54D27*
X19101Y-1622D03*
G54D28*
X18101Y-1622D03*
G54D29*
X351Y-29472D03*
X89401Y-322D03*
X89401Y-29472D03*
X351Y-322D03*
X24976Y-23059D03*
X29976Y-559D03*
G54D24*
X46601Y-28122D03*
X49101Y-27122D03*
G54D25*
X47601Y-26122D03*
G54D26*
X49601Y-26122D03*
X45601Y-26122D03*
G54D30*
X67301Y-28822D03*
X27901Y-28822D03*
G54D25*
X67301Y-22822D03*
X27901Y-22822D03*
G54D24*
X84201Y-20622D03*
X86701Y-19622D03*
G54D25*
X85201Y-18622D03*
G54D26*
X87201Y-18622D03*
X83201Y-18622D03*
G54D24*
X75701Y-20622D03*
X78201Y-19622D03*
G54D25*
X76701Y-18622D03*
G54D26*
X78701Y-18622D03*
X74701Y-18622D03*
G54D27*
X76201Y-16622D03*
G54D28*
X77201Y-16622D03*
G54D27*
X84701Y-16622D03*
G54D28*
X85701Y-16622D03*
M02*
