G04 (created by PCBNEW (2013-02-13 BZR 3947)-testing) date 10/16/2013 3:34:34 PM*
%MOIN*%
G04 Gerber Fmt 3.4, Leading zero omitted, Abs format*
%FSLAX34Y34*%
G01*
G70*
G90*
G04 APERTURE LIST*
%ADD10C,0*%
%ADD11C,0.00787402*%
%ADD12C,0.00393701*%
%ADD13C,0.00984252*%
%ADD14C,0.0177165*%
%ADD15C,0.015*%
%ADD16C,0.00590551*%
%ADD17C,0.008*%
%ADD18C,0.0434331*%
%ADD19C,0.0788661*%
%ADD20C,0.0709921*%
%ADD21C,0.098*%
%ADD22C,0.165*%
%ADD23C,0.075*%
%ADD24O,0.083X0.093*%
%ADD25R,0.083X0.093*%
%ADD26C,0.128*%
%ADD27O,0.068X0.05*%
%ADD28O,0.401701X0.20485*%
%ADD29C,0.106425*%
%ADD30C,0.283591*%
%ADD31C,0.0473701*%
G04 APERTURE END LIST*
G54D10*
G54D11*
X68660Y-29218D02*
X68529Y-29030D01*
X68435Y-29218D02*
X68435Y-28824D01*
X68585Y-28824D01*
X68623Y-28843D01*
X68642Y-28862D01*
X68660Y-28899D01*
X68660Y-28955D01*
X68642Y-28993D01*
X68623Y-29012D01*
X68585Y-29030D01*
X68435Y-29030D01*
X68979Y-29199D02*
X68942Y-29218D01*
X68867Y-29218D01*
X68829Y-29199D01*
X68810Y-29162D01*
X68810Y-29012D01*
X68829Y-28974D01*
X68867Y-28955D01*
X68942Y-28955D01*
X68979Y-28974D01*
X68998Y-29012D01*
X68998Y-29049D01*
X68810Y-29087D01*
X69129Y-28955D02*
X69223Y-29218D01*
X69317Y-28955D01*
X69841Y-28824D02*
X69879Y-28824D01*
X69916Y-28843D01*
X69935Y-28862D01*
X69954Y-28899D01*
X69973Y-28974D01*
X69973Y-29068D01*
X69954Y-29143D01*
X69935Y-29180D01*
X69916Y-29199D01*
X69879Y-29218D01*
X69841Y-29218D01*
X69804Y-29199D01*
X69785Y-29180D01*
X69766Y-29143D01*
X69748Y-29068D01*
X69748Y-28974D01*
X69766Y-28899D01*
X69785Y-28862D01*
X69804Y-28843D01*
X69841Y-28824D01*
X70141Y-29180D02*
X70160Y-29199D01*
X70141Y-29218D01*
X70123Y-29199D01*
X70141Y-29180D01*
X70141Y-29218D01*
X70498Y-28824D02*
X70423Y-28824D01*
X70385Y-28843D01*
X70366Y-28862D01*
X70329Y-28918D01*
X70310Y-28993D01*
X70310Y-29143D01*
X70329Y-29180D01*
X70348Y-29199D01*
X70385Y-29218D01*
X70460Y-29218D01*
X70498Y-29199D01*
X70516Y-29180D01*
X70535Y-29143D01*
X70535Y-29049D01*
X70516Y-29012D01*
X70498Y-28993D01*
X70460Y-28974D01*
X70385Y-28974D01*
X70348Y-28993D01*
X70329Y-29012D01*
X70310Y-29049D01*
G54D12*
X53786Y-28362D02*
X53842Y-28381D01*
X53936Y-28381D01*
X53973Y-28362D01*
X53992Y-28343D01*
X54011Y-28306D01*
X54011Y-28268D01*
X53992Y-28231D01*
X53973Y-28212D01*
X53936Y-28193D01*
X53861Y-28175D01*
X53823Y-28156D01*
X53805Y-28137D01*
X53786Y-28100D01*
X53786Y-28062D01*
X53805Y-28025D01*
X53823Y-28006D01*
X53861Y-27987D01*
X53955Y-27987D01*
X54011Y-28006D01*
X54180Y-28118D02*
X54180Y-28512D01*
X54180Y-28137D02*
X54217Y-28118D01*
X54292Y-28118D01*
X54329Y-28137D01*
X54348Y-28156D01*
X54367Y-28193D01*
X54367Y-28306D01*
X54348Y-28343D01*
X54329Y-28362D01*
X54292Y-28381D01*
X54217Y-28381D01*
X54180Y-28362D01*
X54686Y-28362D02*
X54648Y-28381D01*
X54573Y-28381D01*
X54536Y-28362D01*
X54517Y-28325D01*
X54517Y-28175D01*
X54536Y-28137D01*
X54573Y-28118D01*
X54648Y-28118D01*
X54686Y-28137D01*
X54704Y-28175D01*
X54704Y-28212D01*
X54517Y-28250D01*
X55042Y-28362D02*
X55004Y-28381D01*
X54929Y-28381D01*
X54892Y-28362D01*
X54873Y-28343D01*
X54854Y-28306D01*
X54854Y-28193D01*
X54873Y-28156D01*
X54892Y-28137D01*
X54929Y-28118D01*
X55004Y-28118D01*
X55042Y-28137D01*
X55211Y-28381D02*
X55211Y-28118D01*
X55211Y-27987D02*
X55192Y-28006D01*
X55211Y-28025D01*
X55229Y-28006D01*
X55211Y-27987D01*
X55211Y-28025D01*
X55567Y-28381D02*
X55567Y-28175D01*
X55548Y-28137D01*
X55511Y-28118D01*
X55436Y-28118D01*
X55398Y-28137D01*
X55567Y-28362D02*
X55529Y-28381D01*
X55436Y-28381D01*
X55398Y-28362D01*
X55379Y-28325D01*
X55379Y-28287D01*
X55398Y-28250D01*
X55436Y-28231D01*
X55529Y-28231D01*
X55567Y-28212D01*
X55811Y-28381D02*
X55773Y-28362D01*
X55754Y-28325D01*
X55754Y-27987D01*
X56204Y-28118D02*
X56354Y-28118D01*
X56260Y-27987D02*
X56260Y-28325D01*
X56279Y-28362D01*
X56317Y-28381D01*
X56354Y-28381D01*
X56485Y-28381D02*
X56485Y-27987D01*
X56654Y-28381D02*
X56654Y-28175D01*
X56635Y-28137D01*
X56598Y-28118D01*
X56542Y-28118D01*
X56504Y-28137D01*
X56485Y-28156D01*
X57010Y-28381D02*
X57010Y-28175D01*
X56992Y-28137D01*
X56954Y-28118D01*
X56879Y-28118D01*
X56842Y-28137D01*
X57010Y-28362D02*
X56973Y-28381D01*
X56879Y-28381D01*
X56842Y-28362D01*
X56823Y-28325D01*
X56823Y-28287D01*
X56842Y-28250D01*
X56879Y-28231D01*
X56973Y-28231D01*
X57010Y-28212D01*
X57198Y-28118D02*
X57198Y-28381D01*
X57198Y-28156D02*
X57217Y-28137D01*
X57254Y-28118D01*
X57310Y-28118D01*
X57348Y-28137D01*
X57367Y-28175D01*
X57367Y-28381D01*
X57554Y-28381D02*
X57554Y-27987D01*
X57592Y-28231D02*
X57704Y-28381D01*
X57704Y-28118D02*
X57554Y-28268D01*
X57854Y-28362D02*
X57892Y-28381D01*
X57967Y-28381D01*
X58004Y-28362D01*
X58023Y-28325D01*
X58023Y-28306D01*
X58004Y-28268D01*
X57967Y-28250D01*
X57910Y-28250D01*
X57873Y-28231D01*
X57854Y-28193D01*
X57854Y-28175D01*
X57873Y-28137D01*
X57910Y-28118D01*
X57967Y-28118D01*
X58004Y-28137D01*
X58435Y-28118D02*
X58585Y-28118D01*
X58491Y-27987D02*
X58491Y-28325D01*
X58510Y-28362D01*
X58548Y-28381D01*
X58585Y-28381D01*
X58773Y-28381D02*
X58735Y-28362D01*
X58716Y-28343D01*
X58698Y-28306D01*
X58698Y-28193D01*
X58716Y-28156D01*
X58735Y-28137D01*
X58773Y-28118D01*
X58829Y-28118D01*
X58866Y-28137D01*
X58885Y-28156D01*
X58904Y-28193D01*
X58904Y-28306D01*
X58885Y-28343D01*
X58866Y-28362D01*
X58829Y-28381D01*
X58773Y-28381D01*
X59373Y-28381D02*
X59373Y-27987D01*
X59410Y-28231D02*
X59523Y-28381D01*
X59523Y-28118D02*
X59373Y-28268D01*
X59748Y-28381D02*
X59710Y-28362D01*
X59691Y-28343D01*
X59673Y-28306D01*
X59673Y-28193D01*
X59691Y-28156D01*
X59710Y-28137D01*
X59748Y-28118D01*
X59804Y-28118D01*
X59841Y-28137D01*
X59860Y-28156D01*
X59879Y-28193D01*
X59879Y-28306D01*
X59860Y-28343D01*
X59841Y-28362D01*
X59804Y-28381D01*
X59748Y-28381D01*
X60048Y-28381D02*
X60048Y-28118D01*
X60048Y-28156D02*
X60066Y-28137D01*
X60104Y-28118D01*
X60160Y-28118D01*
X60198Y-28137D01*
X60216Y-28175D01*
X60216Y-28381D01*
X60216Y-28175D02*
X60235Y-28137D01*
X60272Y-28118D01*
X60329Y-28118D01*
X60366Y-28137D01*
X60385Y-28175D01*
X60385Y-28381D01*
X60741Y-28381D02*
X60741Y-28175D01*
X60722Y-28137D01*
X60685Y-28118D01*
X60610Y-28118D01*
X60572Y-28137D01*
X60741Y-28362D02*
X60704Y-28381D01*
X60610Y-28381D01*
X60572Y-28362D01*
X60554Y-28325D01*
X60554Y-28287D01*
X60572Y-28250D01*
X60610Y-28231D01*
X60704Y-28231D01*
X60741Y-28212D01*
X60929Y-28381D02*
X60929Y-28118D01*
X60929Y-28193D02*
X60947Y-28156D01*
X60966Y-28137D01*
X61004Y-28118D01*
X61041Y-28118D01*
X61247Y-27987D02*
X61285Y-27987D01*
X61322Y-28006D01*
X61341Y-28025D01*
X61360Y-28062D01*
X61379Y-28137D01*
X61379Y-28231D01*
X61360Y-28306D01*
X61341Y-28343D01*
X61322Y-28362D01*
X61285Y-28381D01*
X61247Y-28381D01*
X61210Y-28362D01*
X61191Y-28343D01*
X61172Y-28306D01*
X61154Y-28231D01*
X61154Y-28137D01*
X61172Y-28062D01*
X61191Y-28025D01*
X61210Y-28006D01*
X61247Y-27987D01*
X61622Y-27987D02*
X61660Y-27987D01*
X61697Y-28006D01*
X61716Y-28025D01*
X61735Y-28062D01*
X61754Y-28137D01*
X61754Y-28231D01*
X61735Y-28306D01*
X61716Y-28343D01*
X61697Y-28362D01*
X61660Y-28381D01*
X61622Y-28381D01*
X61585Y-28362D01*
X61566Y-28343D01*
X61547Y-28306D01*
X61529Y-28231D01*
X61529Y-28137D01*
X61547Y-28062D01*
X61566Y-28025D01*
X61585Y-28006D01*
X61622Y-27987D01*
X61885Y-27987D02*
X62147Y-27987D01*
X61979Y-28381D01*
X62316Y-28362D02*
X62316Y-28381D01*
X62297Y-28418D01*
X62278Y-28437D01*
X54320Y-28971D02*
X54320Y-28578D01*
X54320Y-28728D02*
X54358Y-28709D01*
X54433Y-28709D01*
X54470Y-28728D01*
X54489Y-28746D01*
X54508Y-28784D01*
X54508Y-28896D01*
X54489Y-28934D01*
X54470Y-28953D01*
X54433Y-28971D01*
X54358Y-28971D01*
X54320Y-28953D01*
X54676Y-28709D02*
X54676Y-29103D01*
X54676Y-28728D02*
X54714Y-28709D01*
X54789Y-28709D01*
X54826Y-28728D01*
X54845Y-28746D01*
X54864Y-28784D01*
X54864Y-28896D01*
X54845Y-28934D01*
X54826Y-28953D01*
X54789Y-28971D01*
X54714Y-28971D01*
X54676Y-28953D01*
X55033Y-28971D02*
X55033Y-28709D01*
X55033Y-28578D02*
X55014Y-28597D01*
X55033Y-28615D01*
X55051Y-28597D01*
X55033Y-28578D01*
X55033Y-28615D01*
X55220Y-28709D02*
X55220Y-29103D01*
X55220Y-28728D02*
X55257Y-28709D01*
X55332Y-28709D01*
X55370Y-28728D01*
X55389Y-28746D01*
X55407Y-28784D01*
X55407Y-28896D01*
X55389Y-28934D01*
X55370Y-28953D01*
X55332Y-28971D01*
X55257Y-28971D01*
X55220Y-28953D01*
X55576Y-28971D02*
X55576Y-28578D01*
X55745Y-28971D02*
X55745Y-28765D01*
X55726Y-28728D01*
X55689Y-28709D01*
X55632Y-28709D01*
X55595Y-28728D01*
X55576Y-28746D01*
X56101Y-28971D02*
X56101Y-28765D01*
X56082Y-28728D01*
X56045Y-28709D01*
X55970Y-28709D01*
X55932Y-28728D01*
X56101Y-28953D02*
X56064Y-28971D01*
X55970Y-28971D01*
X55932Y-28953D01*
X55914Y-28915D01*
X55914Y-28878D01*
X55932Y-28840D01*
X55970Y-28821D01*
X56064Y-28821D01*
X56101Y-28803D01*
X56289Y-28709D02*
X56289Y-28971D01*
X56289Y-28746D02*
X56307Y-28728D01*
X56345Y-28709D01*
X56401Y-28709D01*
X56439Y-28728D01*
X56457Y-28765D01*
X56457Y-28971D01*
X56607Y-28709D02*
X56701Y-28971D01*
X56795Y-28709D02*
X56701Y-28971D01*
X56664Y-29065D01*
X56645Y-29084D01*
X56607Y-29103D01*
X56964Y-28953D02*
X56964Y-28971D01*
X56945Y-29009D01*
X56926Y-29028D01*
X57432Y-28971D02*
X57432Y-28578D01*
X57526Y-28578D01*
X57582Y-28597D01*
X57620Y-28634D01*
X57638Y-28671D01*
X57657Y-28746D01*
X57657Y-28803D01*
X57638Y-28878D01*
X57620Y-28915D01*
X57582Y-28953D01*
X57526Y-28971D01*
X57432Y-28971D01*
X57882Y-28971D02*
X57845Y-28953D01*
X57826Y-28934D01*
X57807Y-28896D01*
X57807Y-28784D01*
X57826Y-28746D01*
X57845Y-28728D01*
X57882Y-28709D01*
X57938Y-28709D01*
X57976Y-28728D01*
X57995Y-28746D01*
X58013Y-28784D01*
X58013Y-28896D01*
X57995Y-28934D01*
X57976Y-28953D01*
X57938Y-28971D01*
X57882Y-28971D01*
X58145Y-28971D02*
X58351Y-28709D01*
X58145Y-28709D02*
X58351Y-28971D01*
X58970Y-28971D02*
X58970Y-28765D01*
X58951Y-28728D01*
X58913Y-28709D01*
X58838Y-28709D01*
X58801Y-28728D01*
X58970Y-28953D02*
X58932Y-28971D01*
X58838Y-28971D01*
X58801Y-28953D01*
X58782Y-28915D01*
X58782Y-28878D01*
X58801Y-28840D01*
X58838Y-28821D01*
X58932Y-28821D01*
X58970Y-28803D01*
X59157Y-28709D02*
X59157Y-28971D01*
X59157Y-28746D02*
X59176Y-28728D01*
X59213Y-28709D01*
X59269Y-28709D01*
X59307Y-28728D01*
X59326Y-28765D01*
X59326Y-28971D01*
X59682Y-28971D02*
X59682Y-28578D01*
X59682Y-28953D02*
X59644Y-28971D01*
X59569Y-28971D01*
X59532Y-28953D01*
X59513Y-28934D01*
X59494Y-28896D01*
X59494Y-28784D01*
X59513Y-28746D01*
X59532Y-28728D01*
X59569Y-28709D01*
X59644Y-28709D01*
X59682Y-28728D01*
X60394Y-28971D02*
X60263Y-28784D01*
X60169Y-28971D02*
X60169Y-28578D01*
X60319Y-28578D01*
X60357Y-28597D01*
X60376Y-28615D01*
X60394Y-28653D01*
X60394Y-28709D01*
X60376Y-28746D01*
X60357Y-28765D01*
X60319Y-28784D01*
X60169Y-28784D01*
X60713Y-28953D02*
X60676Y-28971D01*
X60601Y-28971D01*
X60563Y-28953D01*
X60544Y-28915D01*
X60544Y-28765D01*
X60563Y-28728D01*
X60601Y-28709D01*
X60676Y-28709D01*
X60713Y-28728D01*
X60732Y-28765D01*
X60732Y-28803D01*
X60544Y-28840D01*
X61069Y-28709D02*
X61069Y-29028D01*
X61051Y-29065D01*
X61032Y-29084D01*
X60994Y-29103D01*
X60938Y-29103D01*
X60901Y-29084D01*
X61069Y-28953D02*
X61032Y-28971D01*
X60957Y-28971D01*
X60919Y-28953D01*
X60901Y-28934D01*
X60882Y-28896D01*
X60882Y-28784D01*
X60901Y-28746D01*
X60919Y-28728D01*
X60957Y-28709D01*
X61032Y-28709D01*
X61069Y-28728D01*
X61425Y-28971D02*
X61425Y-28765D01*
X61407Y-28728D01*
X61369Y-28709D01*
X61294Y-28709D01*
X61257Y-28728D01*
X61425Y-28953D02*
X61388Y-28971D01*
X61294Y-28971D01*
X61257Y-28953D01*
X61238Y-28915D01*
X61238Y-28878D01*
X61257Y-28840D01*
X61294Y-28821D01*
X61388Y-28821D01*
X61425Y-28803D01*
X61782Y-28953D02*
X61744Y-28971D01*
X61669Y-28971D01*
X61632Y-28953D01*
X61613Y-28934D01*
X61594Y-28896D01*
X61594Y-28784D01*
X61613Y-28746D01*
X61632Y-28728D01*
X61669Y-28709D01*
X61744Y-28709D01*
X61782Y-28728D01*
X61950Y-28971D02*
X61950Y-28578D01*
X61988Y-28821D02*
X62100Y-28971D01*
X62100Y-28709D02*
X61950Y-28859D01*
G54D11*
X51069Y-27321D02*
X51069Y-26993D01*
X51069Y-26829D02*
X51041Y-26852D01*
X51069Y-26875D01*
X51097Y-26852D01*
X51069Y-26829D01*
X51069Y-26875D01*
X51350Y-26993D02*
X51350Y-27321D01*
X51350Y-27040D02*
X51378Y-27016D01*
X51435Y-26993D01*
X51519Y-26993D01*
X51575Y-27016D01*
X51603Y-27063D01*
X51603Y-27321D01*
X52334Y-27321D02*
X52334Y-26993D01*
X52334Y-27086D02*
X52363Y-27040D01*
X52391Y-27016D01*
X52447Y-26993D01*
X52503Y-26993D01*
X52925Y-27297D02*
X52869Y-27321D01*
X52756Y-27321D01*
X52700Y-27297D01*
X52672Y-27250D01*
X52672Y-27063D01*
X52700Y-27016D01*
X52756Y-26993D01*
X52869Y-26993D01*
X52925Y-27016D01*
X52953Y-27063D01*
X52953Y-27110D01*
X52672Y-27157D01*
X53206Y-27321D02*
X53206Y-26993D01*
X53206Y-27040D02*
X53234Y-27016D01*
X53291Y-26993D01*
X53375Y-26993D01*
X53431Y-27016D01*
X53459Y-27063D01*
X53459Y-27321D01*
X53459Y-27063D02*
X53487Y-27016D01*
X53544Y-26993D01*
X53628Y-26993D01*
X53684Y-27016D01*
X53712Y-27063D01*
X53712Y-27321D01*
X54219Y-27297D02*
X54162Y-27321D01*
X54050Y-27321D01*
X53994Y-27297D01*
X53965Y-27250D01*
X53965Y-27063D01*
X53994Y-27016D01*
X54050Y-26993D01*
X54162Y-26993D01*
X54219Y-27016D01*
X54247Y-27063D01*
X54247Y-27110D01*
X53965Y-27157D01*
X54500Y-27321D02*
X54500Y-26993D01*
X54500Y-27040D02*
X54528Y-27016D01*
X54584Y-26993D01*
X54668Y-26993D01*
X54725Y-27016D01*
X54753Y-27063D01*
X54753Y-27321D01*
X54753Y-27063D02*
X54781Y-27016D01*
X54837Y-26993D01*
X54922Y-26993D01*
X54978Y-27016D01*
X55006Y-27063D01*
X55006Y-27321D01*
X55287Y-27321D02*
X55287Y-26829D01*
X55287Y-27016D02*
X55343Y-26993D01*
X55456Y-26993D01*
X55512Y-27016D01*
X55540Y-27040D01*
X55568Y-27086D01*
X55568Y-27227D01*
X55540Y-27274D01*
X55512Y-27297D01*
X55456Y-27321D01*
X55343Y-27321D01*
X55287Y-27297D01*
X55821Y-27321D02*
X55821Y-26993D01*
X55821Y-27086D02*
X55850Y-27040D01*
X55878Y-27016D01*
X55934Y-26993D01*
X55990Y-26993D01*
X56440Y-27321D02*
X56440Y-27063D01*
X56412Y-27016D01*
X56356Y-26993D01*
X56243Y-26993D01*
X56187Y-27016D01*
X56440Y-27297D02*
X56384Y-27321D01*
X56243Y-27321D01*
X56187Y-27297D01*
X56159Y-27250D01*
X56159Y-27204D01*
X56187Y-27157D01*
X56243Y-27133D01*
X56384Y-27133D01*
X56440Y-27110D01*
X56721Y-26993D02*
X56721Y-27321D01*
X56721Y-27040D02*
X56749Y-27016D01*
X56806Y-26993D01*
X56890Y-26993D01*
X56946Y-27016D01*
X56974Y-27063D01*
X56974Y-27321D01*
X57509Y-27297D02*
X57453Y-27321D01*
X57340Y-27321D01*
X57284Y-27297D01*
X57256Y-27274D01*
X57228Y-27227D01*
X57228Y-27086D01*
X57256Y-27040D01*
X57284Y-27016D01*
X57340Y-26993D01*
X57453Y-26993D01*
X57509Y-27016D01*
X57987Y-27297D02*
X57931Y-27321D01*
X57818Y-27321D01*
X57762Y-27297D01*
X57734Y-27250D01*
X57734Y-27063D01*
X57762Y-27016D01*
X57818Y-26993D01*
X57931Y-26993D01*
X57987Y-27016D01*
X58015Y-27063D01*
X58015Y-27110D01*
X57734Y-27157D01*
X58802Y-27321D02*
X58746Y-27297D01*
X58718Y-27274D01*
X58690Y-27227D01*
X58690Y-27086D01*
X58718Y-27040D01*
X58746Y-27016D01*
X58802Y-26993D01*
X58887Y-26993D01*
X58943Y-27016D01*
X58971Y-27040D01*
X58999Y-27086D01*
X58999Y-27227D01*
X58971Y-27274D01*
X58943Y-27297D01*
X58887Y-27321D01*
X58802Y-27321D01*
X59168Y-26993D02*
X59393Y-26993D01*
X59252Y-27321D02*
X59252Y-26899D01*
X59280Y-26852D01*
X59337Y-26829D01*
X59393Y-26829D01*
X60040Y-27321D02*
X60040Y-26829D01*
X60377Y-27321D01*
X60377Y-26829D01*
X60911Y-27321D02*
X60911Y-27063D01*
X60883Y-27016D01*
X60827Y-26993D01*
X60715Y-26993D01*
X60658Y-27016D01*
X60911Y-27297D02*
X60855Y-27321D01*
X60715Y-27321D01*
X60658Y-27297D01*
X60630Y-27250D01*
X60630Y-27204D01*
X60658Y-27157D01*
X60715Y-27133D01*
X60855Y-27133D01*
X60911Y-27110D01*
X61108Y-26993D02*
X61333Y-26993D01*
X61193Y-26829D02*
X61193Y-27250D01*
X61221Y-27297D01*
X61277Y-27321D01*
X61333Y-27321D01*
X61755Y-27297D02*
X61699Y-27321D01*
X61586Y-27321D01*
X61530Y-27297D01*
X61502Y-27250D01*
X61502Y-27063D01*
X61530Y-27016D01*
X61586Y-26993D01*
X61699Y-26993D01*
X61755Y-27016D01*
X61783Y-27063D01*
X61783Y-27110D01*
X61502Y-27157D01*
X62430Y-26829D02*
X62571Y-27321D01*
X62683Y-26969D01*
X62796Y-27321D01*
X62936Y-26829D01*
X63414Y-27321D02*
X63414Y-27063D01*
X63386Y-27016D01*
X63330Y-26993D01*
X63217Y-26993D01*
X63161Y-27016D01*
X63414Y-27297D02*
X63358Y-27321D01*
X63217Y-27321D01*
X63161Y-27297D01*
X63133Y-27250D01*
X63133Y-27204D01*
X63161Y-27157D01*
X63217Y-27133D01*
X63358Y-27133D01*
X63414Y-27110D01*
X63780Y-27321D02*
X63724Y-27297D01*
X63695Y-27250D01*
X63695Y-26829D01*
X63920Y-26993D02*
X64145Y-26993D01*
X64005Y-26829D02*
X64005Y-27250D01*
X64033Y-27297D01*
X64089Y-27321D01*
X64145Y-27321D01*
X64567Y-27297D02*
X64511Y-27321D01*
X64399Y-27321D01*
X64342Y-27297D01*
X64314Y-27250D01*
X64314Y-27063D01*
X64342Y-27016D01*
X64399Y-26993D01*
X64511Y-26993D01*
X64567Y-27016D01*
X64595Y-27063D01*
X64595Y-27110D01*
X64314Y-27157D01*
X64848Y-27321D02*
X64848Y-26993D01*
X64848Y-27086D02*
X64877Y-27040D01*
X64905Y-27016D01*
X64961Y-26993D01*
X65017Y-26993D01*
G54D13*
X55633Y-25930D02*
X55867Y-25930D01*
X55568Y-26071D02*
X55794Y-25579D01*
X55897Y-26071D01*
X56687Y-25743D02*
X56646Y-26071D01*
X56594Y-25555D02*
X56433Y-25907D01*
X56737Y-25907D01*
X57060Y-25579D02*
X57106Y-25579D01*
X57150Y-25602D01*
X57171Y-25625D01*
X57188Y-25672D01*
X57200Y-25766D01*
X57185Y-25883D01*
X57150Y-25977D01*
X57121Y-26024D01*
X57095Y-26047D01*
X57045Y-26071D01*
X56998Y-26071D01*
X56954Y-26047D01*
X56934Y-26024D01*
X56916Y-25977D01*
X56904Y-25883D01*
X56919Y-25766D01*
X56954Y-25672D01*
X56983Y-25625D01*
X57010Y-25602D01*
X57060Y-25579D01*
X57350Y-26071D02*
X57786Y-25579D01*
X57481Y-25579D02*
X57525Y-25602D01*
X57543Y-25649D01*
X57514Y-25696D01*
X57464Y-25719D01*
X57420Y-25696D01*
X57402Y-25649D01*
X57432Y-25602D01*
X57481Y-25579D01*
X57704Y-26047D02*
X57733Y-26000D01*
X57716Y-25954D01*
X57672Y-25930D01*
X57622Y-25954D01*
X57593Y-26000D01*
X57610Y-26047D01*
X57654Y-26071D01*
X57704Y-26047D01*
X58310Y-26071D02*
X58372Y-25579D01*
X58489Y-25579D01*
X58556Y-25602D01*
X58597Y-25649D01*
X58615Y-25696D01*
X58627Y-25790D01*
X58618Y-25860D01*
X58583Y-25954D01*
X58553Y-26000D01*
X58501Y-26047D01*
X58427Y-26071D01*
X58310Y-26071D01*
X58993Y-26047D02*
X58943Y-26071D01*
X58849Y-26071D01*
X58805Y-26047D01*
X58788Y-26000D01*
X58811Y-25813D01*
X58841Y-25766D01*
X58890Y-25743D01*
X58984Y-25743D01*
X59028Y-25766D01*
X59046Y-25813D01*
X59040Y-25860D01*
X58800Y-25907D01*
X59204Y-26047D02*
X59248Y-26071D01*
X59341Y-26071D01*
X59391Y-26047D01*
X59421Y-26000D01*
X59423Y-25977D01*
X59406Y-25930D01*
X59362Y-25907D01*
X59292Y-25907D01*
X59248Y-25883D01*
X59230Y-25836D01*
X59233Y-25813D01*
X59262Y-25766D01*
X59312Y-25743D01*
X59382Y-25743D01*
X59426Y-25766D01*
X59623Y-26071D02*
X59664Y-25743D01*
X59684Y-25579D02*
X59658Y-25602D01*
X59678Y-25625D01*
X59705Y-25602D01*
X59684Y-25579D01*
X59678Y-25625D01*
X60109Y-25743D02*
X60059Y-26141D01*
X60030Y-26188D01*
X60003Y-26211D01*
X59954Y-26235D01*
X59883Y-26235D01*
X59839Y-26211D01*
X60071Y-26047D02*
X60021Y-26071D01*
X59927Y-26071D01*
X59883Y-26047D01*
X59863Y-26024D01*
X59845Y-25977D01*
X59863Y-25836D01*
X59892Y-25790D01*
X59919Y-25766D01*
X59968Y-25743D01*
X60062Y-25743D01*
X60106Y-25766D01*
X60343Y-25743D02*
X60302Y-26071D01*
X60337Y-25790D02*
X60364Y-25766D01*
X60414Y-25743D01*
X60484Y-25743D01*
X60528Y-25766D01*
X60545Y-25813D01*
X60513Y-26071D01*
G54D14*
X51095Y-23669D02*
X51545Y-23669D01*
X51173Y-24850D02*
X51320Y-23669D01*
X51660Y-24850D02*
X51808Y-23669D01*
X51998Y-24850D02*
X52075Y-24231D01*
X52052Y-24118D01*
X51984Y-24062D01*
X51871Y-24062D01*
X51789Y-24118D01*
X51745Y-24175D01*
X52680Y-24793D02*
X52598Y-24850D01*
X52448Y-24850D01*
X52380Y-24793D01*
X52356Y-24681D01*
X52412Y-24231D01*
X52464Y-24118D01*
X52546Y-24062D01*
X52696Y-24062D01*
X52764Y-24118D01*
X52787Y-24231D01*
X52773Y-24343D01*
X52384Y-24456D01*
X53617Y-24793D02*
X53722Y-24850D01*
X53910Y-24850D01*
X53992Y-24793D01*
X54036Y-24737D01*
X54088Y-24625D01*
X54102Y-24512D01*
X54079Y-24400D01*
X54048Y-24343D01*
X53980Y-24287D01*
X53837Y-24231D01*
X53769Y-24175D01*
X53739Y-24118D01*
X53715Y-24006D01*
X53730Y-23893D01*
X53781Y-23781D01*
X53826Y-23725D01*
X53908Y-23669D01*
X54095Y-23669D01*
X54201Y-23725D01*
X54397Y-24850D02*
X54496Y-24062D01*
X54482Y-24175D02*
X54526Y-24118D01*
X54608Y-24062D01*
X54721Y-24062D01*
X54789Y-24118D01*
X54812Y-24231D01*
X54735Y-24850D01*
X54812Y-24231D02*
X54864Y-24118D01*
X54946Y-24062D01*
X55058Y-24062D01*
X55126Y-24118D01*
X55150Y-24231D01*
X55072Y-24850D01*
X55785Y-24850D02*
X55862Y-24231D01*
X55839Y-24118D01*
X55771Y-24062D01*
X55621Y-24062D01*
X55539Y-24118D01*
X55792Y-24793D02*
X55710Y-24850D01*
X55522Y-24850D01*
X55454Y-24793D01*
X55431Y-24681D01*
X55445Y-24568D01*
X55496Y-24456D01*
X55578Y-24400D01*
X55766Y-24400D01*
X55848Y-24343D01*
X56272Y-24850D02*
X56204Y-24793D01*
X56181Y-24681D01*
X56307Y-23669D01*
X56685Y-24850D02*
X56617Y-24793D01*
X56593Y-24681D01*
X56720Y-23669D01*
X57324Y-24231D02*
X57062Y-24231D01*
X56985Y-24850D02*
X57132Y-23669D01*
X57507Y-23669D01*
X57659Y-24850D02*
X57758Y-24062D01*
X57730Y-24287D02*
X57781Y-24175D01*
X57826Y-24118D01*
X57908Y-24062D01*
X57983Y-24062D01*
X58170Y-24062D02*
X58259Y-24850D01*
X58545Y-24062D02*
X58259Y-24850D01*
X58149Y-25131D01*
X58105Y-25187D01*
X58023Y-25243D01*
X59347Y-24850D02*
X59494Y-23669D01*
X59797Y-24850D02*
X59544Y-24175D01*
X59944Y-23669D02*
X59410Y-24343D01*
X60441Y-24793D02*
X60359Y-24850D01*
X60209Y-24850D01*
X60141Y-24793D01*
X60118Y-24681D01*
X60174Y-24231D01*
X60226Y-24118D01*
X60308Y-24062D01*
X60458Y-24062D01*
X60526Y-24118D01*
X60549Y-24231D01*
X60535Y-24343D01*
X60146Y-24456D01*
X60833Y-24062D02*
X60922Y-24850D01*
X61207Y-24062D02*
X60922Y-24850D01*
X60811Y-25131D01*
X60767Y-25187D01*
X60685Y-25243D01*
X61409Y-24850D02*
X61557Y-23669D01*
X61500Y-24118D02*
X61582Y-24062D01*
X61732Y-24062D01*
X61800Y-24118D01*
X61831Y-24175D01*
X61854Y-24287D01*
X61812Y-24625D01*
X61761Y-24737D01*
X61716Y-24793D01*
X61634Y-24850D01*
X61484Y-24850D01*
X61416Y-24793D01*
X62234Y-24850D02*
X62166Y-24793D01*
X62135Y-24737D01*
X62112Y-24625D01*
X62154Y-24287D01*
X62206Y-24175D01*
X62250Y-24118D01*
X62332Y-24062D01*
X62445Y-24062D01*
X62513Y-24118D01*
X62543Y-24175D01*
X62567Y-24287D01*
X62525Y-24625D01*
X62473Y-24737D01*
X62428Y-24793D01*
X62346Y-24850D01*
X62234Y-24850D01*
X63171Y-24850D02*
X63249Y-24231D01*
X63225Y-24118D01*
X63157Y-24062D01*
X63007Y-24062D01*
X62925Y-24118D01*
X63178Y-24793D02*
X63096Y-24850D01*
X62909Y-24850D01*
X62841Y-24793D01*
X62817Y-24681D01*
X62831Y-24568D01*
X62883Y-24456D01*
X62965Y-24400D01*
X63153Y-24400D01*
X63235Y-24343D01*
X63546Y-24850D02*
X63645Y-24062D01*
X63617Y-24287D02*
X63668Y-24175D01*
X63713Y-24118D01*
X63795Y-24062D01*
X63870Y-24062D01*
X64371Y-24850D02*
X64519Y-23669D01*
X64378Y-24793D02*
X64296Y-24850D01*
X64146Y-24850D01*
X64078Y-24793D01*
X64048Y-24737D01*
X64024Y-24625D01*
X64066Y-24287D01*
X64118Y-24175D01*
X64163Y-24118D01*
X64245Y-24062D01*
X64395Y-24062D01*
X64463Y-24118D01*
G54D15*
X7051Y-28622D02*
X6351Y-28622D01*
X2751Y-28622D02*
X2051Y-28622D01*
X2051Y-28622D02*
X2051Y-27922D01*
X2051Y-24322D02*
X2051Y-23622D01*
X2051Y-23622D02*
X2751Y-23622D01*
X6351Y-23622D02*
X7051Y-23622D01*
X7051Y-23622D02*
X7051Y-24322D01*
X7051Y-27922D02*
X7051Y-28622D01*
X7051Y-13622D02*
X6351Y-13622D01*
X2751Y-13622D02*
X2051Y-13622D01*
X2051Y-13622D02*
X2051Y-12922D01*
X2051Y-9322D02*
X2051Y-8622D01*
X2051Y-8622D02*
X2751Y-8622D01*
X6351Y-8622D02*
X7051Y-8622D01*
X7051Y-8622D02*
X7051Y-9322D01*
X7051Y-12922D02*
X7051Y-13622D01*
X8901Y-21122D02*
X8201Y-21122D01*
X4601Y-21122D02*
X3901Y-21122D01*
X3901Y-21122D02*
X3901Y-20422D01*
X3901Y-16822D02*
X3901Y-16122D01*
X3901Y-16122D02*
X4601Y-16122D01*
X8201Y-16122D02*
X8901Y-16122D01*
X8901Y-16122D02*
X8901Y-16822D01*
X8901Y-20422D02*
X8901Y-21122D01*
X88601Y-21122D02*
X87901Y-21122D01*
X84301Y-21122D02*
X83601Y-21122D01*
X83601Y-21122D02*
X83601Y-20422D01*
X83601Y-16822D02*
X83601Y-16122D01*
X83601Y-16122D02*
X84301Y-16122D01*
X87901Y-16122D02*
X88601Y-16122D01*
X88601Y-16122D02*
X88601Y-16822D01*
X88601Y-20422D02*
X88601Y-21122D01*
X53001Y-13622D02*
X52301Y-13622D01*
X48701Y-13622D02*
X48001Y-13622D01*
X48001Y-13622D02*
X48001Y-12922D01*
X48001Y-9322D02*
X48001Y-8622D01*
X48001Y-8622D02*
X48701Y-8622D01*
X52301Y-8622D02*
X53001Y-8622D01*
X53001Y-8622D02*
X53001Y-9322D01*
X53001Y-12922D02*
X53001Y-13622D01*
X73601Y-6122D02*
X72901Y-6122D01*
X69301Y-6122D02*
X68601Y-6122D01*
X68601Y-6122D02*
X68601Y-5422D01*
X68601Y-1822D02*
X68601Y-1122D01*
X68601Y-1122D02*
X69301Y-1122D01*
X72901Y-1122D02*
X73601Y-1122D01*
X73601Y-1122D02*
X73601Y-1822D01*
X73601Y-5422D02*
X73601Y-6122D01*
X36101Y-6122D02*
X35401Y-6122D01*
X31801Y-6122D02*
X31101Y-6122D01*
X31101Y-6122D02*
X31101Y-5422D01*
X31101Y-1822D02*
X31101Y-1122D01*
X31101Y-1122D02*
X31801Y-1122D01*
X35401Y-1122D02*
X36101Y-1122D01*
X36101Y-1122D02*
X36101Y-1822D01*
X36101Y-5422D02*
X36101Y-6122D01*
X87651Y-28622D02*
X86951Y-28622D01*
X83351Y-28622D02*
X82651Y-28622D01*
X82651Y-28622D02*
X82651Y-27922D01*
X82651Y-24322D02*
X82651Y-23622D01*
X82651Y-23622D02*
X83351Y-23622D01*
X86951Y-23622D02*
X87651Y-23622D01*
X87651Y-23622D02*
X87651Y-24322D01*
X87651Y-27922D02*
X87651Y-28622D01*
X78301Y-28622D02*
X77601Y-28622D01*
X74001Y-28622D02*
X73301Y-28622D01*
X73301Y-28622D02*
X73301Y-27922D01*
X73301Y-24322D02*
X73301Y-23622D01*
X73301Y-23622D02*
X74001Y-23622D01*
X77601Y-23622D02*
X78301Y-23622D01*
X78301Y-23622D02*
X78301Y-24322D01*
X78301Y-27922D02*
X78301Y-28622D01*
X23001Y-28622D02*
X22301Y-28622D01*
X18701Y-28622D02*
X18001Y-28622D01*
X18001Y-28622D02*
X18001Y-27922D01*
X18001Y-24322D02*
X18001Y-23622D01*
X18001Y-23622D02*
X18701Y-23622D01*
X22301Y-23622D02*
X23001Y-23622D01*
X23001Y-23622D02*
X23001Y-24322D01*
X23001Y-27922D02*
X23001Y-28622D01*
X15501Y-28622D02*
X14801Y-28622D01*
X11201Y-28622D02*
X10501Y-28622D01*
X10501Y-28622D02*
X10501Y-27922D01*
X10501Y-24322D02*
X10501Y-23622D01*
X10501Y-23622D02*
X11201Y-23622D01*
X14801Y-23622D02*
X15501Y-23622D01*
X15501Y-23622D02*
X15501Y-24322D01*
X15501Y-27922D02*
X15501Y-28622D01*
X80151Y-21122D02*
X79451Y-21122D01*
X75851Y-21122D02*
X75151Y-21122D01*
X75151Y-21122D02*
X75151Y-20422D01*
X75151Y-16822D02*
X75151Y-16122D01*
X75151Y-16122D02*
X75851Y-16122D01*
X79451Y-16122D02*
X80151Y-16122D01*
X80151Y-16122D02*
X80151Y-16822D01*
X80151Y-20422D02*
X80151Y-21122D01*
X71701Y-21122D02*
X71001Y-21122D01*
X67401Y-21122D02*
X66701Y-21122D01*
X66701Y-21122D02*
X66701Y-20422D01*
X66701Y-16822D02*
X66701Y-16122D01*
X66701Y-16122D02*
X67401Y-16122D01*
X71001Y-16122D02*
X71701Y-16122D01*
X71701Y-16122D02*
X71701Y-16822D01*
X71701Y-20422D02*
X71701Y-21122D01*
X30501Y-13622D02*
X29801Y-13622D01*
X26201Y-13622D02*
X25501Y-13622D01*
X25501Y-13622D02*
X25501Y-12922D01*
X25501Y-9322D02*
X25501Y-8622D01*
X25501Y-8622D02*
X26201Y-8622D01*
X29801Y-8622D02*
X30501Y-8622D01*
X30501Y-8622D02*
X30501Y-9322D01*
X30501Y-12922D02*
X30501Y-13622D01*
X23001Y-13622D02*
X22301Y-13622D01*
X18701Y-13622D02*
X18001Y-13622D01*
X18001Y-13622D02*
X18001Y-12922D01*
X18001Y-9322D02*
X18001Y-8622D01*
X18001Y-8622D02*
X18701Y-8622D01*
X22301Y-8622D02*
X23001Y-8622D01*
X23001Y-8622D02*
X23001Y-9322D01*
X23001Y-12922D02*
X23001Y-13622D01*
X15501Y-13622D02*
X14801Y-13622D01*
X11201Y-13622D02*
X10501Y-13622D01*
X10501Y-13622D02*
X10501Y-12922D01*
X10501Y-9322D02*
X10501Y-8622D01*
X10501Y-8622D02*
X11201Y-8622D01*
X14801Y-8622D02*
X15501Y-8622D01*
X15501Y-8622D02*
X15501Y-9322D01*
X15501Y-12922D02*
X15501Y-13622D01*
X88601Y-6122D02*
X87901Y-6122D01*
X84301Y-6122D02*
X83601Y-6122D01*
X83601Y-6122D02*
X83601Y-5422D01*
X83601Y-1822D02*
X83601Y-1122D01*
X83601Y-1122D02*
X84301Y-1122D01*
X87901Y-1122D02*
X88601Y-1122D01*
X88601Y-1122D02*
X88601Y-1822D01*
X88601Y-5422D02*
X88601Y-6122D01*
X66101Y-6122D02*
X65401Y-6122D01*
X61801Y-6122D02*
X61101Y-6122D01*
X61101Y-6122D02*
X61101Y-5422D01*
X61101Y-1822D02*
X61101Y-1122D01*
X61101Y-1122D02*
X61801Y-1122D01*
X65401Y-1122D02*
X66101Y-1122D01*
X66101Y-1122D02*
X66101Y-1822D01*
X66101Y-5422D02*
X66101Y-6122D01*
X58601Y-6122D02*
X57901Y-6122D01*
X54301Y-6122D02*
X53601Y-6122D01*
X53601Y-6122D02*
X53601Y-5422D01*
X53601Y-1822D02*
X53601Y-1122D01*
X53601Y-1122D02*
X54301Y-1122D01*
X57901Y-1122D02*
X58601Y-1122D01*
X58601Y-1122D02*
X58601Y-1822D01*
X58601Y-5422D02*
X58601Y-6122D01*
X51101Y-6122D02*
X50401Y-6122D01*
X46801Y-6122D02*
X46101Y-6122D01*
X46101Y-6122D02*
X46101Y-5422D01*
X46101Y-1822D02*
X46101Y-1122D01*
X46101Y-1122D02*
X46801Y-1122D01*
X50401Y-1122D02*
X51101Y-1122D01*
X51101Y-1122D02*
X51101Y-1822D01*
X51101Y-5422D02*
X51101Y-6122D01*
X43601Y-6122D02*
X42901Y-6122D01*
X39301Y-6122D02*
X38601Y-6122D01*
X38601Y-6122D02*
X38601Y-5422D01*
X38601Y-1822D02*
X38601Y-1122D01*
X38601Y-1122D02*
X39301Y-1122D01*
X42901Y-1122D02*
X43601Y-1122D01*
X43601Y-1122D02*
X43601Y-1822D01*
X43601Y-5422D02*
X43601Y-6122D01*
X28601Y-6122D02*
X27901Y-6122D01*
X24301Y-6122D02*
X23601Y-6122D01*
X23601Y-6122D02*
X23601Y-5422D01*
X23601Y-1822D02*
X23601Y-1122D01*
X23601Y-1122D02*
X24301Y-1122D01*
X27901Y-1122D02*
X28601Y-1122D01*
X28601Y-1122D02*
X28601Y-1822D01*
X28601Y-5422D02*
X28601Y-6122D01*
X21101Y-6122D02*
X20401Y-6122D01*
X16801Y-6122D02*
X16101Y-6122D01*
X16101Y-6122D02*
X16101Y-5422D01*
X16101Y-1822D02*
X16101Y-1122D01*
X16101Y-1122D02*
X16801Y-1122D01*
X20401Y-1122D02*
X21101Y-1122D01*
X21101Y-1122D02*
X21101Y-1822D01*
X21101Y-5422D02*
X21101Y-6122D01*
X13601Y-6122D02*
X12901Y-6122D01*
X9301Y-6122D02*
X8601Y-6122D01*
X8601Y-6122D02*
X8601Y-5422D01*
X8601Y-1822D02*
X8601Y-1122D01*
X8601Y-1122D02*
X9301Y-1122D01*
X12901Y-1122D02*
X13601Y-1122D01*
X13601Y-1122D02*
X13601Y-1822D01*
X13601Y-5422D02*
X13601Y-6122D01*
X64201Y-21122D02*
X63501Y-21122D01*
X59901Y-21122D02*
X59201Y-21122D01*
X59201Y-21122D02*
X59201Y-20422D01*
X59201Y-16822D02*
X59201Y-16122D01*
X59201Y-16122D02*
X59901Y-16122D01*
X63501Y-16122D02*
X64201Y-16122D01*
X64201Y-16122D02*
X64201Y-16822D01*
X64201Y-20422D02*
X64201Y-21122D01*
X56701Y-21122D02*
X56001Y-21122D01*
X52401Y-21122D02*
X51701Y-21122D01*
X51701Y-21122D02*
X51701Y-20422D01*
X51701Y-16822D02*
X51701Y-16122D01*
X51701Y-16122D02*
X52401Y-16122D01*
X56001Y-16122D02*
X56701Y-16122D01*
X56701Y-16122D02*
X56701Y-16822D01*
X56701Y-20422D02*
X56701Y-21122D01*
X49201Y-21122D02*
X48501Y-21122D01*
X44901Y-21122D02*
X44201Y-21122D01*
X44201Y-21122D02*
X44201Y-20422D01*
X44201Y-16822D02*
X44201Y-16122D01*
X44201Y-16122D02*
X44901Y-16122D01*
X48501Y-16122D02*
X49201Y-16122D01*
X49201Y-16122D02*
X49201Y-16822D01*
X49201Y-20422D02*
X49201Y-21122D01*
X41701Y-21122D02*
X41001Y-21122D01*
X37401Y-21122D02*
X36701Y-21122D01*
X36701Y-21122D02*
X36701Y-20422D01*
X36701Y-16822D02*
X36701Y-16122D01*
X36701Y-16122D02*
X37401Y-16122D01*
X41001Y-16122D02*
X41701Y-16122D01*
X41701Y-16122D02*
X41701Y-16822D01*
X41701Y-20422D02*
X41701Y-21122D01*
X34201Y-21122D02*
X33501Y-21122D01*
X29901Y-21122D02*
X29201Y-21122D01*
X29201Y-21122D02*
X29201Y-20422D01*
X29201Y-16822D02*
X29201Y-16122D01*
X29201Y-16122D02*
X29901Y-16122D01*
X33501Y-16122D02*
X34201Y-16122D01*
X34201Y-16122D02*
X34201Y-16822D01*
X34201Y-20422D02*
X34201Y-21122D01*
X26701Y-21122D02*
X26001Y-21122D01*
X22401Y-21122D02*
X21701Y-21122D01*
X21701Y-21122D02*
X21701Y-20422D01*
X21701Y-16822D02*
X21701Y-16122D01*
X21701Y-16122D02*
X22401Y-16122D01*
X26001Y-16122D02*
X26701Y-16122D01*
X26701Y-16122D02*
X26701Y-16822D01*
X26701Y-20422D02*
X26701Y-21122D01*
X19201Y-21122D02*
X18501Y-21122D01*
X14901Y-21122D02*
X14201Y-21122D01*
X14201Y-21122D02*
X14201Y-20422D01*
X14201Y-16822D02*
X14201Y-16122D01*
X14201Y-16122D02*
X14901Y-16122D01*
X18501Y-16122D02*
X19201Y-16122D01*
X19201Y-16122D02*
X19201Y-16822D01*
X19201Y-20422D02*
X19201Y-21122D01*
X85801Y-13622D02*
X85101Y-13622D01*
X81501Y-13622D02*
X80801Y-13622D01*
X80801Y-13622D02*
X80801Y-12922D01*
X80801Y-9322D02*
X80801Y-8622D01*
X80801Y-8622D02*
X81501Y-8622D01*
X85101Y-8622D02*
X85801Y-8622D01*
X85801Y-8622D02*
X85801Y-9322D01*
X85801Y-12922D02*
X85801Y-13622D01*
X75501Y-13622D02*
X74801Y-13622D01*
X71201Y-13622D02*
X70501Y-13622D01*
X70501Y-13622D02*
X70501Y-12922D01*
X70501Y-9322D02*
X70501Y-8622D01*
X70501Y-8622D02*
X71201Y-8622D01*
X74801Y-8622D02*
X75501Y-8622D01*
X75501Y-8622D02*
X75501Y-9322D01*
X75501Y-12922D02*
X75501Y-13622D01*
X68001Y-13622D02*
X67301Y-13622D01*
X63701Y-13622D02*
X63001Y-13622D01*
X63001Y-13622D02*
X63001Y-12922D01*
X63001Y-9322D02*
X63001Y-8622D01*
X63001Y-8622D02*
X63701Y-8622D01*
X67301Y-8622D02*
X68001Y-8622D01*
X68001Y-8622D02*
X68001Y-9322D01*
X68001Y-12922D02*
X68001Y-13622D01*
X60501Y-13622D02*
X59801Y-13622D01*
X56201Y-13622D02*
X55501Y-13622D01*
X55501Y-13622D02*
X55501Y-12922D01*
X55501Y-9322D02*
X55501Y-8622D01*
X55501Y-8622D02*
X56201Y-8622D01*
X59801Y-8622D02*
X60501Y-8622D01*
X60501Y-8622D02*
X60501Y-9322D01*
X60501Y-12922D02*
X60501Y-13622D01*
X45501Y-13622D02*
X44801Y-13622D01*
X41201Y-13622D02*
X40501Y-13622D01*
X40501Y-13622D02*
X40501Y-12922D01*
X40501Y-9322D02*
X40501Y-8622D01*
X40501Y-8622D02*
X41201Y-8622D01*
X44801Y-8622D02*
X45501Y-8622D01*
X45501Y-8622D02*
X45501Y-9322D01*
X45501Y-12922D02*
X45501Y-13622D01*
X38001Y-13622D02*
X37301Y-13622D01*
X33701Y-13622D02*
X33001Y-13622D01*
X33001Y-13622D02*
X33001Y-12922D01*
X33001Y-9322D02*
X33001Y-8622D01*
X33001Y-8622D02*
X33701Y-8622D01*
X37301Y-8622D02*
X38001Y-8622D01*
X38001Y-8622D02*
X38001Y-9322D01*
X38001Y-12922D02*
X38001Y-13622D01*
X81101Y-6122D02*
X80401Y-6122D01*
X76801Y-6122D02*
X76101Y-6122D01*
X76101Y-6122D02*
X76101Y-5422D01*
X76101Y-1822D02*
X76101Y-1122D01*
X76101Y-1122D02*
X76801Y-1122D01*
X80401Y-1122D02*
X81101Y-1122D01*
X81101Y-1122D02*
X81101Y-1822D01*
X81101Y-5422D02*
X81101Y-6122D01*
X6101Y-6122D02*
X5401Y-6122D01*
X1801Y-6122D02*
X1101Y-6122D01*
X1101Y-6122D02*
X1101Y-5422D01*
X1101Y-1822D02*
X1101Y-1122D01*
X1101Y-1122D02*
X1801Y-1122D01*
X5401Y-1122D02*
X6101Y-1122D01*
X6101Y-1122D02*
X6101Y-1822D01*
X6101Y-5422D02*
X6101Y-6122D01*
X50101Y-28622D02*
X49401Y-28622D01*
X45801Y-28622D02*
X45101Y-28622D01*
X45101Y-28622D02*
X45101Y-27922D01*
X45101Y-24322D02*
X45101Y-23622D01*
X45101Y-23622D02*
X45801Y-23622D01*
X49401Y-23622D02*
X50101Y-23622D01*
X50101Y-23622D02*
X50101Y-24322D01*
X50101Y-27922D02*
X50101Y-28622D01*
X87701Y-21122D02*
X87001Y-21122D01*
X83401Y-21122D02*
X82701Y-21122D01*
X82701Y-21122D02*
X82701Y-20422D01*
X82701Y-16822D02*
X82701Y-16122D01*
X82701Y-16122D02*
X83401Y-16122D01*
X87001Y-16122D02*
X87701Y-16122D01*
X87701Y-16122D02*
X87701Y-16822D01*
X87701Y-20422D02*
X87701Y-21122D01*
X79201Y-21122D02*
X78501Y-21122D01*
X74901Y-21122D02*
X74201Y-21122D01*
X74201Y-21122D02*
X74201Y-20422D01*
X74201Y-16822D02*
X74201Y-16122D01*
X74201Y-16122D02*
X74901Y-16122D01*
X78501Y-16122D02*
X79201Y-16122D01*
X79201Y-16122D02*
X79201Y-16822D01*
X79201Y-20422D02*
X79201Y-21122D01*
G54D16*
X36849Y-29702D02*
X36849Y-29348D01*
X36984Y-29348D01*
X37018Y-29365D01*
X37035Y-29381D01*
X37052Y-29415D01*
X37052Y-29466D01*
X37035Y-29500D01*
X37018Y-29516D01*
X36984Y-29533D01*
X36849Y-29533D01*
X37389Y-29702D02*
X37187Y-29702D01*
X37288Y-29702D02*
X37288Y-29348D01*
X37254Y-29398D01*
X37221Y-29432D01*
X37187Y-29449D01*
X37244Y-28128D02*
X36890Y-28128D01*
X37143Y-28010D01*
X36890Y-27892D01*
X37244Y-27892D01*
X37244Y-27723D02*
X36890Y-27723D01*
X37227Y-27572D02*
X37244Y-27521D01*
X37244Y-27437D01*
X37227Y-27403D01*
X37211Y-27386D01*
X37177Y-27369D01*
X37143Y-27369D01*
X37109Y-27386D01*
X37092Y-27403D01*
X37076Y-27437D01*
X37059Y-27504D01*
X37042Y-27538D01*
X37025Y-27555D01*
X36991Y-27572D01*
X36957Y-27572D01*
X36924Y-27555D01*
X36907Y-27538D01*
X36890Y-27504D01*
X36890Y-27420D01*
X36907Y-27369D01*
X36890Y-27150D02*
X36890Y-27082D01*
X36907Y-27048D01*
X36941Y-27015D01*
X37008Y-26998D01*
X37126Y-26998D01*
X37194Y-27015D01*
X37227Y-27048D01*
X37244Y-27082D01*
X37244Y-27150D01*
X37227Y-27183D01*
X37194Y-27217D01*
X37126Y-27234D01*
X37008Y-27234D01*
X36941Y-27217D01*
X36907Y-27183D01*
X36890Y-27150D01*
X34849Y-29702D02*
X34849Y-29348D01*
X34984Y-29348D01*
X35018Y-29365D01*
X35035Y-29381D01*
X35052Y-29415D01*
X35052Y-29466D01*
X35035Y-29500D01*
X35018Y-29516D01*
X34984Y-29533D01*
X34849Y-29533D01*
X35170Y-29348D02*
X35389Y-29348D01*
X35271Y-29483D01*
X35322Y-29483D01*
X35356Y-29500D01*
X35372Y-29516D01*
X35389Y-29550D01*
X35389Y-29634D01*
X35372Y-29668D01*
X35356Y-29685D01*
X35322Y-29702D01*
X35221Y-29702D01*
X35187Y-29685D01*
X35170Y-29668D01*
X35227Y-28177D02*
X35244Y-28127D01*
X35244Y-28042D01*
X35227Y-28008D01*
X35211Y-27992D01*
X35177Y-27975D01*
X35143Y-27975D01*
X35109Y-27992D01*
X35092Y-28008D01*
X35076Y-28042D01*
X35059Y-28110D01*
X35042Y-28143D01*
X35025Y-28160D01*
X34991Y-28177D01*
X34957Y-28177D01*
X34924Y-28160D01*
X34907Y-28143D01*
X34890Y-28110D01*
X34890Y-28025D01*
X34907Y-27975D01*
X35211Y-27620D02*
X35227Y-27637D01*
X35244Y-27688D01*
X35244Y-27722D01*
X35227Y-27772D01*
X35194Y-27806D01*
X35160Y-27823D01*
X35092Y-27840D01*
X35042Y-27840D01*
X34974Y-27823D01*
X34941Y-27806D01*
X34907Y-27772D01*
X34890Y-27722D01*
X34890Y-27688D01*
X34907Y-27637D01*
X34924Y-27620D01*
X35244Y-27468D02*
X34890Y-27468D01*
X35244Y-27266D02*
X35042Y-27418D01*
X34890Y-27266D02*
X35092Y-27468D01*
X32849Y-29702D02*
X32849Y-29348D01*
X32984Y-29348D01*
X33018Y-29365D01*
X33035Y-29381D01*
X33052Y-29415D01*
X33052Y-29466D01*
X33035Y-29500D01*
X33018Y-29516D01*
X32984Y-29533D01*
X32849Y-29533D01*
X33372Y-29348D02*
X33204Y-29348D01*
X33187Y-29516D01*
X33204Y-29500D01*
X33237Y-29483D01*
X33322Y-29483D01*
X33356Y-29500D01*
X33372Y-29516D01*
X33389Y-29550D01*
X33389Y-29634D01*
X33372Y-29668D01*
X33356Y-29685D01*
X33322Y-29702D01*
X33237Y-29702D01*
X33204Y-29685D01*
X33187Y-29668D01*
X33244Y-27941D02*
X33076Y-28059D01*
X33244Y-28143D02*
X32890Y-28143D01*
X32890Y-28008D01*
X32907Y-27975D01*
X32924Y-27958D01*
X32957Y-27941D01*
X33008Y-27941D01*
X33042Y-27958D01*
X33059Y-27975D01*
X33076Y-28008D01*
X33076Y-28143D01*
X33059Y-27789D02*
X33059Y-27671D01*
X33244Y-27620D02*
X33244Y-27789D01*
X32890Y-27789D01*
X32890Y-27620D01*
X33227Y-27485D02*
X33244Y-27435D01*
X33244Y-27350D01*
X33227Y-27317D01*
X33211Y-27300D01*
X33177Y-27283D01*
X33143Y-27283D01*
X33109Y-27300D01*
X33092Y-27317D01*
X33076Y-27350D01*
X33059Y-27418D01*
X33042Y-27452D01*
X33025Y-27468D01*
X32991Y-27485D01*
X32957Y-27485D01*
X32924Y-27468D01*
X32907Y-27452D01*
X32890Y-27418D01*
X32890Y-27333D01*
X32907Y-27283D01*
X35849Y-29702D02*
X35849Y-29348D01*
X35984Y-29348D01*
X36018Y-29365D01*
X36035Y-29381D01*
X36052Y-29415D01*
X36052Y-29466D01*
X36035Y-29500D01*
X36018Y-29516D01*
X35984Y-29533D01*
X35849Y-29533D01*
X36187Y-29381D02*
X36204Y-29365D01*
X36237Y-29348D01*
X36322Y-29348D01*
X36356Y-29365D01*
X36372Y-29381D01*
X36389Y-29415D01*
X36389Y-29449D01*
X36372Y-29500D01*
X36170Y-29702D01*
X36389Y-29702D01*
X35890Y-27743D02*
X36244Y-27625D01*
X35890Y-27507D01*
X36227Y-27237D02*
X36244Y-27271D01*
X36244Y-27338D01*
X36227Y-27372D01*
X36211Y-27389D01*
X36177Y-27406D01*
X36076Y-27406D01*
X36042Y-27389D01*
X36025Y-27372D01*
X36008Y-27338D01*
X36008Y-27271D01*
X36025Y-27237D01*
X36227Y-26933D02*
X36244Y-26967D01*
X36244Y-27035D01*
X36227Y-27068D01*
X36211Y-27085D01*
X36177Y-27102D01*
X36076Y-27102D01*
X36042Y-27085D01*
X36025Y-27068D01*
X36008Y-27035D01*
X36008Y-26967D01*
X36025Y-26933D01*
X33849Y-29702D02*
X33849Y-29348D01*
X33984Y-29348D01*
X34018Y-29365D01*
X34035Y-29381D01*
X34052Y-29415D01*
X34052Y-29466D01*
X34035Y-29500D01*
X34018Y-29516D01*
X33984Y-29533D01*
X33849Y-29533D01*
X34356Y-29466D02*
X34356Y-29702D01*
X34271Y-29331D02*
X34187Y-29584D01*
X34406Y-29584D01*
X34244Y-28178D02*
X33890Y-28178D01*
X34143Y-28060D01*
X33890Y-27942D01*
X34244Y-27942D01*
X33890Y-27706D02*
X33890Y-27638D01*
X33907Y-27605D01*
X33941Y-27571D01*
X34008Y-27554D01*
X34126Y-27554D01*
X34194Y-27571D01*
X34227Y-27605D01*
X34244Y-27638D01*
X34244Y-27706D01*
X34227Y-27740D01*
X34194Y-27773D01*
X34126Y-27790D01*
X34008Y-27790D01*
X33941Y-27773D01*
X33907Y-27740D01*
X33890Y-27706D01*
X34227Y-27419D02*
X34244Y-27368D01*
X34244Y-27284D01*
X34227Y-27250D01*
X34211Y-27233D01*
X34177Y-27217D01*
X34143Y-27217D01*
X34109Y-27233D01*
X34092Y-27250D01*
X34076Y-27284D01*
X34059Y-27352D01*
X34042Y-27385D01*
X34025Y-27402D01*
X33991Y-27419D01*
X33957Y-27419D01*
X33924Y-27402D01*
X33907Y-27385D01*
X33890Y-27352D01*
X33890Y-27267D01*
X33907Y-27217D01*
X34244Y-27065D02*
X33890Y-27065D01*
X37849Y-29702D02*
X37849Y-29348D01*
X37984Y-29348D01*
X38018Y-29365D01*
X38035Y-29381D01*
X38052Y-29415D01*
X38052Y-29466D01*
X38035Y-29500D01*
X38018Y-29516D01*
X37984Y-29533D01*
X37849Y-29533D01*
X38356Y-29348D02*
X38288Y-29348D01*
X38254Y-29365D01*
X38237Y-29381D01*
X38204Y-29432D01*
X38187Y-29500D01*
X38187Y-29634D01*
X38204Y-29668D01*
X38221Y-29685D01*
X38254Y-29702D01*
X38322Y-29702D01*
X38356Y-29685D01*
X38372Y-29668D01*
X38389Y-29634D01*
X38389Y-29550D01*
X38372Y-29516D01*
X38356Y-29500D01*
X38322Y-29483D01*
X38254Y-29483D01*
X38221Y-29500D01*
X38204Y-29516D01*
X38187Y-29550D01*
X37907Y-27992D02*
X37890Y-28025D01*
X37890Y-28076D01*
X37907Y-28127D01*
X37941Y-28160D01*
X37974Y-28177D01*
X38042Y-28194D01*
X38092Y-28194D01*
X38160Y-28177D01*
X38194Y-28160D01*
X38227Y-28127D01*
X38244Y-28076D01*
X38244Y-28042D01*
X38227Y-27992D01*
X38211Y-27975D01*
X38092Y-27975D01*
X38092Y-28042D01*
X38244Y-27823D02*
X37890Y-27823D01*
X38244Y-27620D01*
X37890Y-27620D01*
X38244Y-27452D02*
X37890Y-27452D01*
X37890Y-27367D01*
X37907Y-27317D01*
X37941Y-27283D01*
X37974Y-27266D01*
X38042Y-27249D01*
X38092Y-27249D01*
X38160Y-27266D01*
X38194Y-27283D01*
X38227Y-27317D01*
X38244Y-27367D01*
X38244Y-27452D01*
G54D17*
X3808Y-25050D02*
X3894Y-25074D01*
X4037Y-25074D01*
X4094Y-25050D01*
X4122Y-25026D01*
X4151Y-24979D01*
X4151Y-24931D01*
X4122Y-24883D01*
X4094Y-24860D01*
X4037Y-24836D01*
X3922Y-24812D01*
X3865Y-24788D01*
X3837Y-24764D01*
X3808Y-24717D01*
X3808Y-24669D01*
X3837Y-24622D01*
X3865Y-24598D01*
X3922Y-24574D01*
X4065Y-24574D01*
X4151Y-24598D01*
X4522Y-24574D02*
X4579Y-24574D01*
X4637Y-24598D01*
X4665Y-24622D01*
X4694Y-24669D01*
X4722Y-24764D01*
X4722Y-24883D01*
X4694Y-24979D01*
X4665Y-25026D01*
X4637Y-25050D01*
X4579Y-25074D01*
X4522Y-25074D01*
X4465Y-25050D01*
X4437Y-25026D01*
X4408Y-24979D01*
X4379Y-24883D01*
X4379Y-24764D01*
X4408Y-24669D01*
X4437Y-24622D01*
X4465Y-24598D01*
X4522Y-24574D01*
X5237Y-24741D02*
X5237Y-25074D01*
X5094Y-24550D02*
X4951Y-24907D01*
X5322Y-24907D01*
X3808Y-10050D02*
X3894Y-10074D01*
X4037Y-10074D01*
X4094Y-10050D01*
X4122Y-10026D01*
X4151Y-9979D01*
X4151Y-9931D01*
X4122Y-9883D01*
X4094Y-9860D01*
X4037Y-9836D01*
X3922Y-9812D01*
X3865Y-9788D01*
X3837Y-9764D01*
X3808Y-9717D01*
X3808Y-9669D01*
X3837Y-9622D01*
X3865Y-9598D01*
X3922Y-9574D01*
X4065Y-9574D01*
X4151Y-9598D01*
X4522Y-9574D02*
X4579Y-9574D01*
X4637Y-9598D01*
X4665Y-9622D01*
X4694Y-9669D01*
X4722Y-9764D01*
X4722Y-9883D01*
X4694Y-9979D01*
X4665Y-10026D01*
X4637Y-10050D01*
X4579Y-10074D01*
X4522Y-10074D01*
X4465Y-10050D01*
X4437Y-10026D01*
X4408Y-9979D01*
X4379Y-9883D01*
X4379Y-9764D01*
X4408Y-9669D01*
X4437Y-9622D01*
X4465Y-9598D01*
X4522Y-9574D01*
X4951Y-9622D02*
X4979Y-9598D01*
X5037Y-9574D01*
X5179Y-9574D01*
X5237Y-9598D01*
X5265Y-9622D01*
X5294Y-9669D01*
X5294Y-9717D01*
X5265Y-9788D01*
X4922Y-10074D01*
X5294Y-10074D01*
X5658Y-17550D02*
X5744Y-17574D01*
X5887Y-17574D01*
X5944Y-17550D01*
X5972Y-17526D01*
X6001Y-17479D01*
X6001Y-17431D01*
X5972Y-17383D01*
X5944Y-17360D01*
X5887Y-17336D01*
X5772Y-17312D01*
X5715Y-17288D01*
X5687Y-17264D01*
X5658Y-17217D01*
X5658Y-17169D01*
X5687Y-17122D01*
X5715Y-17098D01*
X5772Y-17074D01*
X5915Y-17074D01*
X6001Y-17098D01*
X6372Y-17074D02*
X6429Y-17074D01*
X6487Y-17098D01*
X6515Y-17122D01*
X6544Y-17169D01*
X6572Y-17264D01*
X6572Y-17383D01*
X6544Y-17479D01*
X6515Y-17526D01*
X6487Y-17550D01*
X6429Y-17574D01*
X6372Y-17574D01*
X6315Y-17550D01*
X6287Y-17526D01*
X6258Y-17479D01*
X6229Y-17383D01*
X6229Y-17264D01*
X6258Y-17169D01*
X6287Y-17122D01*
X6315Y-17098D01*
X6372Y-17074D01*
X6772Y-17074D02*
X7144Y-17074D01*
X6944Y-17264D01*
X7029Y-17264D01*
X7087Y-17288D01*
X7115Y-17312D01*
X7144Y-17360D01*
X7144Y-17479D01*
X7115Y-17526D01*
X7087Y-17550D01*
X7029Y-17574D01*
X6858Y-17574D01*
X6801Y-17550D01*
X6772Y-17526D01*
X85358Y-17550D02*
X85444Y-17574D01*
X85587Y-17574D01*
X85644Y-17550D01*
X85673Y-17526D01*
X85701Y-17479D01*
X85701Y-17431D01*
X85673Y-17383D01*
X85644Y-17360D01*
X85587Y-17336D01*
X85473Y-17312D01*
X85415Y-17288D01*
X85387Y-17264D01*
X85358Y-17217D01*
X85358Y-17169D01*
X85387Y-17122D01*
X85415Y-17098D01*
X85473Y-17074D01*
X85615Y-17074D01*
X85701Y-17098D01*
X86244Y-17074D02*
X85958Y-17074D01*
X85930Y-17312D01*
X85958Y-17288D01*
X86015Y-17264D01*
X86158Y-17264D01*
X86215Y-17288D01*
X86244Y-17312D01*
X86273Y-17360D01*
X86273Y-17479D01*
X86244Y-17526D01*
X86215Y-17550D01*
X86158Y-17574D01*
X86015Y-17574D01*
X85958Y-17550D01*
X85930Y-17526D01*
X86473Y-17074D02*
X86844Y-17074D01*
X86644Y-17264D01*
X86730Y-17264D01*
X86787Y-17288D01*
X86815Y-17312D01*
X86844Y-17360D01*
X86844Y-17479D01*
X86815Y-17526D01*
X86787Y-17550D01*
X86730Y-17574D01*
X86558Y-17574D01*
X86501Y-17550D01*
X86473Y-17526D01*
X49758Y-10050D02*
X49844Y-10074D01*
X49987Y-10074D01*
X50044Y-10050D01*
X50073Y-10026D01*
X50101Y-9979D01*
X50101Y-9931D01*
X50073Y-9883D01*
X50044Y-9860D01*
X49987Y-9836D01*
X49873Y-9812D01*
X49815Y-9788D01*
X49787Y-9764D01*
X49758Y-9717D01*
X49758Y-9669D01*
X49787Y-9622D01*
X49815Y-9598D01*
X49873Y-9574D01*
X50015Y-9574D01*
X50101Y-9598D01*
X50301Y-9574D02*
X50673Y-9574D01*
X50473Y-9764D01*
X50558Y-9764D01*
X50615Y-9788D01*
X50644Y-9812D01*
X50673Y-9860D01*
X50673Y-9979D01*
X50644Y-10026D01*
X50615Y-10050D01*
X50558Y-10074D01*
X50387Y-10074D01*
X50330Y-10050D01*
X50301Y-10026D01*
X50901Y-9622D02*
X50930Y-9598D01*
X50987Y-9574D01*
X51130Y-9574D01*
X51187Y-9598D01*
X51215Y-9622D01*
X51244Y-9669D01*
X51244Y-9717D01*
X51215Y-9788D01*
X50873Y-10074D01*
X51244Y-10074D01*
X70358Y-2550D02*
X70444Y-2574D01*
X70587Y-2574D01*
X70644Y-2550D01*
X70673Y-2526D01*
X70701Y-2479D01*
X70701Y-2431D01*
X70673Y-2383D01*
X70644Y-2360D01*
X70587Y-2336D01*
X70473Y-2312D01*
X70415Y-2288D01*
X70387Y-2264D01*
X70358Y-2217D01*
X70358Y-2169D01*
X70387Y-2122D01*
X70415Y-2098D01*
X70473Y-2074D01*
X70615Y-2074D01*
X70701Y-2098D01*
X71215Y-2241D02*
X71215Y-2574D01*
X71073Y-2050D02*
X70930Y-2407D01*
X71301Y-2407D01*
X71787Y-2074D02*
X71673Y-2074D01*
X71615Y-2098D01*
X71587Y-2122D01*
X71530Y-2193D01*
X71501Y-2288D01*
X71501Y-2479D01*
X71530Y-2526D01*
X71558Y-2550D01*
X71615Y-2574D01*
X71730Y-2574D01*
X71787Y-2550D01*
X71815Y-2526D01*
X71844Y-2479D01*
X71844Y-2360D01*
X71815Y-2312D01*
X71787Y-2288D01*
X71730Y-2264D01*
X71615Y-2264D01*
X71558Y-2288D01*
X71530Y-2312D01*
X71501Y-2360D01*
X32858Y-2550D02*
X32944Y-2574D01*
X33087Y-2574D01*
X33144Y-2550D01*
X33173Y-2526D01*
X33201Y-2479D01*
X33201Y-2431D01*
X33173Y-2383D01*
X33144Y-2360D01*
X33087Y-2336D01*
X32973Y-2312D01*
X32915Y-2288D01*
X32887Y-2264D01*
X32858Y-2217D01*
X32858Y-2169D01*
X32887Y-2122D01*
X32915Y-2098D01*
X32973Y-2074D01*
X33115Y-2074D01*
X33201Y-2098D01*
X33430Y-2122D02*
X33458Y-2098D01*
X33515Y-2074D01*
X33658Y-2074D01*
X33715Y-2098D01*
X33744Y-2122D01*
X33773Y-2169D01*
X33773Y-2217D01*
X33744Y-2288D01*
X33401Y-2574D01*
X33773Y-2574D01*
X34344Y-2574D02*
X34001Y-2574D01*
X34173Y-2574D02*
X34173Y-2074D01*
X34115Y-2145D01*
X34058Y-2193D01*
X34001Y-2217D01*
X84408Y-25050D02*
X84494Y-25074D01*
X84636Y-25074D01*
X84694Y-25050D01*
X84722Y-25026D01*
X84751Y-24979D01*
X84751Y-24931D01*
X84722Y-24883D01*
X84694Y-24860D01*
X84636Y-24836D01*
X84522Y-24812D01*
X84465Y-24788D01*
X84436Y-24764D01*
X84408Y-24717D01*
X84408Y-24669D01*
X84436Y-24622D01*
X84465Y-24598D01*
X84522Y-24574D01*
X84665Y-24574D01*
X84751Y-24598D01*
X85265Y-24741D02*
X85265Y-25074D01*
X85122Y-24550D02*
X84979Y-24907D01*
X85351Y-24907D01*
X85608Y-25074D02*
X85722Y-25074D01*
X85779Y-25050D01*
X85808Y-25026D01*
X85865Y-24955D01*
X85894Y-24860D01*
X85894Y-24669D01*
X85865Y-24622D01*
X85836Y-24598D01*
X85779Y-24574D01*
X85665Y-24574D01*
X85608Y-24598D01*
X85579Y-24622D01*
X85551Y-24669D01*
X85551Y-24788D01*
X85579Y-24836D01*
X85608Y-24860D01*
X85665Y-24883D01*
X85779Y-24883D01*
X85836Y-24860D01*
X85865Y-24836D01*
X85894Y-24788D01*
X75058Y-25050D02*
X75144Y-25074D01*
X75287Y-25074D01*
X75344Y-25050D01*
X75373Y-25026D01*
X75401Y-24979D01*
X75401Y-24931D01*
X75373Y-24883D01*
X75344Y-24860D01*
X75287Y-24836D01*
X75173Y-24812D01*
X75115Y-24788D01*
X75087Y-24764D01*
X75058Y-24717D01*
X75058Y-24669D01*
X75087Y-24622D01*
X75115Y-24598D01*
X75173Y-24574D01*
X75315Y-24574D01*
X75401Y-24598D01*
X75915Y-24741D02*
X75915Y-25074D01*
X75773Y-24550D02*
X75630Y-24907D01*
X76001Y-24907D01*
X76487Y-24741D02*
X76487Y-25074D01*
X76344Y-24550D02*
X76201Y-24907D01*
X76573Y-24907D01*
X19758Y-25050D02*
X19844Y-25074D01*
X19987Y-25074D01*
X20044Y-25050D01*
X20073Y-25026D01*
X20101Y-24979D01*
X20101Y-24931D01*
X20073Y-24883D01*
X20044Y-24860D01*
X19987Y-24836D01*
X19873Y-24812D01*
X19815Y-24788D01*
X19787Y-24764D01*
X19758Y-24717D01*
X19758Y-24669D01*
X19787Y-24622D01*
X19815Y-24598D01*
X19873Y-24574D01*
X20015Y-24574D01*
X20101Y-24598D01*
X20673Y-25074D02*
X20330Y-25074D01*
X20501Y-25074D02*
X20501Y-24574D01*
X20444Y-24645D01*
X20387Y-24693D01*
X20330Y-24717D01*
X21187Y-24741D02*
X21187Y-25074D01*
X21044Y-24550D02*
X20901Y-24907D01*
X21273Y-24907D01*
X12258Y-25050D02*
X12344Y-25074D01*
X12487Y-25074D01*
X12544Y-25050D01*
X12572Y-25026D01*
X12601Y-24979D01*
X12601Y-24931D01*
X12572Y-24883D01*
X12544Y-24860D01*
X12487Y-24836D01*
X12372Y-24812D01*
X12315Y-24788D01*
X12287Y-24764D01*
X12258Y-24717D01*
X12258Y-24669D01*
X12287Y-24622D01*
X12315Y-24598D01*
X12372Y-24574D01*
X12515Y-24574D01*
X12601Y-24598D01*
X12972Y-24574D02*
X13029Y-24574D01*
X13087Y-24598D01*
X13115Y-24622D01*
X13144Y-24669D01*
X13172Y-24764D01*
X13172Y-24883D01*
X13144Y-24979D01*
X13115Y-25026D01*
X13087Y-25050D01*
X13029Y-25074D01*
X12972Y-25074D01*
X12915Y-25050D01*
X12887Y-25026D01*
X12858Y-24979D01*
X12829Y-24883D01*
X12829Y-24764D01*
X12858Y-24669D01*
X12887Y-24622D01*
X12915Y-24598D01*
X12972Y-24574D01*
X13458Y-25074D02*
X13572Y-25074D01*
X13629Y-25050D01*
X13658Y-25026D01*
X13715Y-24955D01*
X13744Y-24860D01*
X13744Y-24669D01*
X13715Y-24622D01*
X13687Y-24598D01*
X13629Y-24574D01*
X13515Y-24574D01*
X13458Y-24598D01*
X13429Y-24622D01*
X13401Y-24669D01*
X13401Y-24788D01*
X13429Y-24836D01*
X13458Y-24860D01*
X13515Y-24883D01*
X13629Y-24883D01*
X13687Y-24860D01*
X13715Y-24836D01*
X13744Y-24788D01*
X76908Y-17550D02*
X76994Y-17574D01*
X77136Y-17574D01*
X77194Y-17550D01*
X77222Y-17526D01*
X77251Y-17479D01*
X77251Y-17431D01*
X77222Y-17383D01*
X77194Y-17360D01*
X77136Y-17336D01*
X77022Y-17312D01*
X76965Y-17288D01*
X76936Y-17264D01*
X76908Y-17217D01*
X76908Y-17169D01*
X76936Y-17122D01*
X76965Y-17098D01*
X77022Y-17074D01*
X77165Y-17074D01*
X77251Y-17098D01*
X77765Y-17241D02*
X77765Y-17574D01*
X77622Y-17050D02*
X77479Y-17407D01*
X77851Y-17407D01*
X78165Y-17288D02*
X78108Y-17264D01*
X78079Y-17241D01*
X78051Y-17193D01*
X78051Y-17169D01*
X78079Y-17122D01*
X78108Y-17098D01*
X78165Y-17074D01*
X78279Y-17074D01*
X78336Y-17098D01*
X78365Y-17122D01*
X78394Y-17169D01*
X78394Y-17193D01*
X78365Y-17241D01*
X78336Y-17264D01*
X78279Y-17288D01*
X78165Y-17288D01*
X78108Y-17312D01*
X78079Y-17336D01*
X78051Y-17383D01*
X78051Y-17479D01*
X78079Y-17526D01*
X78108Y-17550D01*
X78165Y-17574D01*
X78279Y-17574D01*
X78336Y-17550D01*
X78365Y-17526D01*
X78394Y-17479D01*
X78394Y-17383D01*
X78365Y-17336D01*
X78336Y-17312D01*
X78279Y-17288D01*
X68458Y-17550D02*
X68544Y-17574D01*
X68687Y-17574D01*
X68744Y-17550D01*
X68773Y-17526D01*
X68801Y-17479D01*
X68801Y-17431D01*
X68773Y-17383D01*
X68744Y-17360D01*
X68687Y-17336D01*
X68573Y-17312D01*
X68515Y-17288D01*
X68487Y-17264D01*
X68458Y-17217D01*
X68458Y-17169D01*
X68487Y-17122D01*
X68515Y-17098D01*
X68573Y-17074D01*
X68715Y-17074D01*
X68801Y-17098D01*
X69315Y-17241D02*
X69315Y-17574D01*
X69173Y-17050D02*
X69030Y-17407D01*
X69401Y-17407D01*
X69573Y-17074D02*
X69944Y-17074D01*
X69744Y-17264D01*
X69830Y-17264D01*
X69887Y-17288D01*
X69915Y-17312D01*
X69944Y-17360D01*
X69944Y-17479D01*
X69915Y-17526D01*
X69887Y-17550D01*
X69830Y-17574D01*
X69658Y-17574D01*
X69601Y-17550D01*
X69573Y-17526D01*
X27258Y-10050D02*
X27344Y-10074D01*
X27487Y-10074D01*
X27544Y-10050D01*
X27573Y-10026D01*
X27601Y-9979D01*
X27601Y-9931D01*
X27573Y-9883D01*
X27544Y-9860D01*
X27487Y-9836D01*
X27373Y-9812D01*
X27315Y-9788D01*
X27287Y-9764D01*
X27258Y-9717D01*
X27258Y-9669D01*
X27287Y-9622D01*
X27315Y-9598D01*
X27373Y-9574D01*
X27515Y-9574D01*
X27601Y-9598D01*
X28173Y-10074D02*
X27830Y-10074D01*
X28001Y-10074D02*
X28001Y-9574D01*
X27944Y-9645D01*
X27887Y-9693D01*
X27830Y-9717D01*
X28373Y-9574D02*
X28773Y-9574D01*
X28515Y-10074D01*
X19758Y-10050D02*
X19844Y-10074D01*
X19987Y-10074D01*
X20044Y-10050D01*
X20073Y-10026D01*
X20101Y-9979D01*
X20101Y-9931D01*
X20073Y-9883D01*
X20044Y-9860D01*
X19987Y-9836D01*
X19873Y-9812D01*
X19815Y-9788D01*
X19787Y-9764D01*
X19758Y-9717D01*
X19758Y-9669D01*
X19787Y-9622D01*
X19815Y-9598D01*
X19873Y-9574D01*
X20015Y-9574D01*
X20101Y-9598D01*
X20673Y-10074D02*
X20330Y-10074D01*
X20501Y-10074D02*
X20501Y-9574D01*
X20444Y-9645D01*
X20387Y-9693D01*
X20330Y-9717D01*
X20901Y-9622D02*
X20930Y-9598D01*
X20987Y-9574D01*
X21130Y-9574D01*
X21187Y-9598D01*
X21215Y-9622D01*
X21244Y-9669D01*
X21244Y-9717D01*
X21215Y-9788D01*
X20873Y-10074D01*
X21244Y-10074D01*
X12258Y-10050D02*
X12344Y-10074D01*
X12487Y-10074D01*
X12544Y-10050D01*
X12572Y-10026D01*
X12601Y-9979D01*
X12601Y-9931D01*
X12572Y-9883D01*
X12544Y-9860D01*
X12487Y-9836D01*
X12372Y-9812D01*
X12315Y-9788D01*
X12287Y-9764D01*
X12258Y-9717D01*
X12258Y-9669D01*
X12287Y-9622D01*
X12315Y-9598D01*
X12372Y-9574D01*
X12515Y-9574D01*
X12601Y-9598D01*
X12972Y-9574D02*
X13029Y-9574D01*
X13087Y-9598D01*
X13115Y-9622D01*
X13144Y-9669D01*
X13172Y-9764D01*
X13172Y-9883D01*
X13144Y-9979D01*
X13115Y-10026D01*
X13087Y-10050D01*
X13029Y-10074D01*
X12972Y-10074D01*
X12915Y-10050D01*
X12887Y-10026D01*
X12858Y-9979D01*
X12829Y-9883D01*
X12829Y-9764D01*
X12858Y-9669D01*
X12887Y-9622D01*
X12915Y-9598D01*
X12972Y-9574D01*
X13372Y-9574D02*
X13772Y-9574D01*
X13515Y-10074D01*
X85358Y-2550D02*
X85444Y-2574D01*
X85587Y-2574D01*
X85644Y-2550D01*
X85673Y-2526D01*
X85701Y-2479D01*
X85701Y-2431D01*
X85673Y-2383D01*
X85644Y-2360D01*
X85587Y-2336D01*
X85473Y-2312D01*
X85415Y-2288D01*
X85387Y-2264D01*
X85358Y-2217D01*
X85358Y-2169D01*
X85387Y-2122D01*
X85415Y-2098D01*
X85473Y-2074D01*
X85615Y-2074D01*
X85701Y-2098D01*
X86244Y-2074D02*
X85958Y-2074D01*
X85930Y-2312D01*
X85958Y-2288D01*
X86015Y-2264D01*
X86158Y-2264D01*
X86215Y-2288D01*
X86244Y-2312D01*
X86273Y-2360D01*
X86273Y-2479D01*
X86244Y-2526D01*
X86215Y-2550D01*
X86158Y-2574D01*
X86015Y-2574D01*
X85958Y-2550D01*
X85930Y-2526D01*
X86787Y-2074D02*
X86673Y-2074D01*
X86615Y-2098D01*
X86587Y-2122D01*
X86530Y-2193D01*
X86501Y-2288D01*
X86501Y-2479D01*
X86530Y-2526D01*
X86558Y-2550D01*
X86615Y-2574D01*
X86730Y-2574D01*
X86787Y-2550D01*
X86815Y-2526D01*
X86844Y-2479D01*
X86844Y-2360D01*
X86815Y-2312D01*
X86787Y-2288D01*
X86730Y-2264D01*
X86615Y-2264D01*
X86558Y-2288D01*
X86530Y-2312D01*
X86501Y-2360D01*
X62858Y-2550D02*
X62944Y-2574D01*
X63087Y-2574D01*
X63144Y-2550D01*
X63173Y-2526D01*
X63201Y-2479D01*
X63201Y-2431D01*
X63173Y-2383D01*
X63144Y-2360D01*
X63087Y-2336D01*
X62973Y-2312D01*
X62915Y-2288D01*
X62887Y-2264D01*
X62858Y-2217D01*
X62858Y-2169D01*
X62887Y-2122D01*
X62915Y-2098D01*
X62973Y-2074D01*
X63115Y-2074D01*
X63201Y-2098D01*
X63715Y-2241D02*
X63715Y-2574D01*
X63573Y-2050D02*
X63430Y-2407D01*
X63801Y-2407D01*
X64344Y-2574D02*
X64001Y-2574D01*
X64173Y-2574D02*
X64173Y-2074D01*
X64115Y-2145D01*
X64058Y-2193D01*
X64001Y-2217D01*
X55358Y-2550D02*
X55444Y-2574D01*
X55587Y-2574D01*
X55644Y-2550D01*
X55673Y-2526D01*
X55701Y-2479D01*
X55701Y-2431D01*
X55673Y-2383D01*
X55644Y-2360D01*
X55587Y-2336D01*
X55473Y-2312D01*
X55415Y-2288D01*
X55387Y-2264D01*
X55358Y-2217D01*
X55358Y-2169D01*
X55387Y-2122D01*
X55415Y-2098D01*
X55473Y-2074D01*
X55615Y-2074D01*
X55701Y-2098D01*
X55901Y-2074D02*
X56273Y-2074D01*
X56073Y-2264D01*
X56158Y-2264D01*
X56215Y-2288D01*
X56244Y-2312D01*
X56273Y-2360D01*
X56273Y-2479D01*
X56244Y-2526D01*
X56215Y-2550D01*
X56158Y-2574D01*
X55987Y-2574D01*
X55930Y-2550D01*
X55901Y-2526D01*
X56787Y-2074D02*
X56673Y-2074D01*
X56615Y-2098D01*
X56587Y-2122D01*
X56530Y-2193D01*
X56501Y-2288D01*
X56501Y-2479D01*
X56530Y-2526D01*
X56558Y-2550D01*
X56615Y-2574D01*
X56730Y-2574D01*
X56787Y-2550D01*
X56815Y-2526D01*
X56844Y-2479D01*
X56844Y-2360D01*
X56815Y-2312D01*
X56787Y-2288D01*
X56730Y-2264D01*
X56615Y-2264D01*
X56558Y-2288D01*
X56530Y-2312D01*
X56501Y-2360D01*
X47858Y-2550D02*
X47944Y-2574D01*
X48087Y-2574D01*
X48144Y-2550D01*
X48173Y-2526D01*
X48201Y-2479D01*
X48201Y-2431D01*
X48173Y-2383D01*
X48144Y-2360D01*
X48087Y-2336D01*
X47973Y-2312D01*
X47915Y-2288D01*
X47887Y-2264D01*
X47858Y-2217D01*
X47858Y-2169D01*
X47887Y-2122D01*
X47915Y-2098D01*
X47973Y-2074D01*
X48115Y-2074D01*
X48201Y-2098D01*
X48401Y-2074D02*
X48773Y-2074D01*
X48573Y-2264D01*
X48658Y-2264D01*
X48715Y-2288D01*
X48744Y-2312D01*
X48773Y-2360D01*
X48773Y-2479D01*
X48744Y-2526D01*
X48715Y-2550D01*
X48658Y-2574D01*
X48487Y-2574D01*
X48430Y-2550D01*
X48401Y-2526D01*
X49344Y-2574D02*
X49001Y-2574D01*
X49173Y-2574D02*
X49173Y-2074D01*
X49115Y-2145D01*
X49058Y-2193D01*
X49001Y-2217D01*
X40358Y-2550D02*
X40444Y-2574D01*
X40587Y-2574D01*
X40644Y-2550D01*
X40673Y-2526D01*
X40701Y-2479D01*
X40701Y-2431D01*
X40673Y-2383D01*
X40644Y-2360D01*
X40587Y-2336D01*
X40473Y-2312D01*
X40415Y-2288D01*
X40387Y-2264D01*
X40358Y-2217D01*
X40358Y-2169D01*
X40387Y-2122D01*
X40415Y-2098D01*
X40473Y-2074D01*
X40615Y-2074D01*
X40701Y-2098D01*
X40930Y-2122D02*
X40958Y-2098D01*
X41015Y-2074D01*
X41158Y-2074D01*
X41215Y-2098D01*
X41244Y-2122D01*
X41273Y-2169D01*
X41273Y-2217D01*
X41244Y-2288D01*
X40901Y-2574D01*
X41273Y-2574D01*
X41787Y-2074D02*
X41673Y-2074D01*
X41615Y-2098D01*
X41587Y-2122D01*
X41530Y-2193D01*
X41501Y-2288D01*
X41501Y-2479D01*
X41530Y-2526D01*
X41558Y-2550D01*
X41615Y-2574D01*
X41730Y-2574D01*
X41787Y-2550D01*
X41815Y-2526D01*
X41844Y-2479D01*
X41844Y-2360D01*
X41815Y-2312D01*
X41787Y-2288D01*
X41730Y-2264D01*
X41615Y-2264D01*
X41558Y-2288D01*
X41530Y-2312D01*
X41501Y-2360D01*
X25358Y-2550D02*
X25444Y-2574D01*
X25587Y-2574D01*
X25644Y-2550D01*
X25673Y-2526D01*
X25701Y-2479D01*
X25701Y-2431D01*
X25673Y-2383D01*
X25644Y-2360D01*
X25587Y-2336D01*
X25473Y-2312D01*
X25415Y-2288D01*
X25387Y-2264D01*
X25358Y-2217D01*
X25358Y-2169D01*
X25387Y-2122D01*
X25415Y-2098D01*
X25473Y-2074D01*
X25615Y-2074D01*
X25701Y-2098D01*
X26273Y-2574D02*
X25930Y-2574D01*
X26101Y-2574D02*
X26101Y-2074D01*
X26044Y-2145D01*
X25987Y-2193D01*
X25930Y-2217D01*
X26787Y-2074D02*
X26673Y-2074D01*
X26615Y-2098D01*
X26587Y-2122D01*
X26530Y-2193D01*
X26501Y-2288D01*
X26501Y-2479D01*
X26530Y-2526D01*
X26558Y-2550D01*
X26615Y-2574D01*
X26730Y-2574D01*
X26787Y-2550D01*
X26815Y-2526D01*
X26844Y-2479D01*
X26844Y-2360D01*
X26815Y-2312D01*
X26787Y-2288D01*
X26730Y-2264D01*
X26615Y-2264D01*
X26558Y-2288D01*
X26530Y-2312D01*
X26501Y-2360D01*
X17858Y-2550D02*
X17944Y-2574D01*
X18087Y-2574D01*
X18144Y-2550D01*
X18173Y-2526D01*
X18201Y-2479D01*
X18201Y-2431D01*
X18173Y-2383D01*
X18144Y-2360D01*
X18087Y-2336D01*
X17973Y-2312D01*
X17915Y-2288D01*
X17887Y-2264D01*
X17858Y-2217D01*
X17858Y-2169D01*
X17887Y-2122D01*
X17915Y-2098D01*
X17973Y-2074D01*
X18115Y-2074D01*
X18201Y-2098D01*
X18773Y-2574D02*
X18430Y-2574D01*
X18601Y-2574D02*
X18601Y-2074D01*
X18544Y-2145D01*
X18487Y-2193D01*
X18430Y-2217D01*
X19344Y-2574D02*
X19001Y-2574D01*
X19173Y-2574D02*
X19173Y-2074D01*
X19115Y-2145D01*
X19058Y-2193D01*
X19001Y-2217D01*
X10358Y-2550D02*
X10444Y-2574D01*
X10587Y-2574D01*
X10644Y-2550D01*
X10672Y-2526D01*
X10701Y-2479D01*
X10701Y-2431D01*
X10672Y-2383D01*
X10644Y-2360D01*
X10587Y-2336D01*
X10472Y-2312D01*
X10415Y-2288D01*
X10387Y-2264D01*
X10358Y-2217D01*
X10358Y-2169D01*
X10387Y-2122D01*
X10415Y-2098D01*
X10472Y-2074D01*
X10615Y-2074D01*
X10701Y-2098D01*
X11072Y-2074D02*
X11129Y-2074D01*
X11187Y-2098D01*
X11215Y-2122D01*
X11244Y-2169D01*
X11272Y-2264D01*
X11272Y-2383D01*
X11244Y-2479D01*
X11215Y-2526D01*
X11187Y-2550D01*
X11129Y-2574D01*
X11072Y-2574D01*
X11015Y-2550D01*
X10987Y-2526D01*
X10958Y-2479D01*
X10929Y-2383D01*
X10929Y-2264D01*
X10958Y-2169D01*
X10987Y-2122D01*
X11015Y-2098D01*
X11072Y-2074D01*
X11787Y-2074D02*
X11672Y-2074D01*
X11615Y-2098D01*
X11587Y-2122D01*
X11529Y-2193D01*
X11501Y-2288D01*
X11501Y-2479D01*
X11529Y-2526D01*
X11558Y-2550D01*
X11615Y-2574D01*
X11729Y-2574D01*
X11787Y-2550D01*
X11815Y-2526D01*
X11844Y-2479D01*
X11844Y-2360D01*
X11815Y-2312D01*
X11787Y-2288D01*
X11729Y-2264D01*
X11615Y-2264D01*
X11558Y-2288D01*
X11529Y-2312D01*
X11501Y-2360D01*
X60958Y-17550D02*
X61044Y-17574D01*
X61187Y-17574D01*
X61244Y-17550D01*
X61273Y-17526D01*
X61301Y-17479D01*
X61301Y-17431D01*
X61273Y-17383D01*
X61244Y-17360D01*
X61187Y-17336D01*
X61073Y-17312D01*
X61015Y-17288D01*
X60987Y-17264D01*
X60958Y-17217D01*
X60958Y-17169D01*
X60987Y-17122D01*
X61015Y-17098D01*
X61073Y-17074D01*
X61215Y-17074D01*
X61301Y-17098D01*
X61501Y-17074D02*
X61873Y-17074D01*
X61673Y-17264D01*
X61758Y-17264D01*
X61815Y-17288D01*
X61844Y-17312D01*
X61873Y-17360D01*
X61873Y-17479D01*
X61844Y-17526D01*
X61815Y-17550D01*
X61758Y-17574D01*
X61587Y-17574D01*
X61530Y-17550D01*
X61501Y-17526D01*
X62215Y-17288D02*
X62158Y-17264D01*
X62130Y-17241D01*
X62101Y-17193D01*
X62101Y-17169D01*
X62130Y-17122D01*
X62158Y-17098D01*
X62215Y-17074D01*
X62330Y-17074D01*
X62387Y-17098D01*
X62415Y-17122D01*
X62444Y-17169D01*
X62444Y-17193D01*
X62415Y-17241D01*
X62387Y-17264D01*
X62330Y-17288D01*
X62215Y-17288D01*
X62158Y-17312D01*
X62130Y-17336D01*
X62101Y-17383D01*
X62101Y-17479D01*
X62130Y-17526D01*
X62158Y-17550D01*
X62215Y-17574D01*
X62330Y-17574D01*
X62387Y-17550D01*
X62415Y-17526D01*
X62444Y-17479D01*
X62444Y-17383D01*
X62415Y-17336D01*
X62387Y-17312D01*
X62330Y-17288D01*
X53458Y-17550D02*
X53544Y-17574D01*
X53687Y-17574D01*
X53744Y-17550D01*
X53773Y-17526D01*
X53801Y-17479D01*
X53801Y-17431D01*
X53773Y-17383D01*
X53744Y-17360D01*
X53687Y-17336D01*
X53573Y-17312D01*
X53515Y-17288D01*
X53487Y-17264D01*
X53458Y-17217D01*
X53458Y-17169D01*
X53487Y-17122D01*
X53515Y-17098D01*
X53573Y-17074D01*
X53715Y-17074D01*
X53801Y-17098D01*
X54001Y-17074D02*
X54373Y-17074D01*
X54173Y-17264D01*
X54258Y-17264D01*
X54315Y-17288D01*
X54344Y-17312D01*
X54373Y-17360D01*
X54373Y-17479D01*
X54344Y-17526D01*
X54315Y-17550D01*
X54258Y-17574D01*
X54087Y-17574D01*
X54030Y-17550D01*
X54001Y-17526D01*
X54573Y-17074D02*
X54944Y-17074D01*
X54744Y-17264D01*
X54830Y-17264D01*
X54887Y-17288D01*
X54915Y-17312D01*
X54944Y-17360D01*
X54944Y-17479D01*
X54915Y-17526D01*
X54887Y-17550D01*
X54830Y-17574D01*
X54658Y-17574D01*
X54601Y-17550D01*
X54573Y-17526D01*
X45958Y-17550D02*
X46044Y-17574D01*
X46187Y-17574D01*
X46244Y-17550D01*
X46273Y-17526D01*
X46301Y-17479D01*
X46301Y-17431D01*
X46273Y-17383D01*
X46244Y-17360D01*
X46187Y-17336D01*
X46073Y-17312D01*
X46015Y-17288D01*
X45987Y-17264D01*
X45958Y-17217D01*
X45958Y-17169D01*
X45987Y-17122D01*
X46015Y-17098D01*
X46073Y-17074D01*
X46215Y-17074D01*
X46301Y-17098D01*
X46530Y-17122D02*
X46558Y-17098D01*
X46615Y-17074D01*
X46758Y-17074D01*
X46815Y-17098D01*
X46844Y-17122D01*
X46873Y-17169D01*
X46873Y-17217D01*
X46844Y-17288D01*
X46501Y-17574D01*
X46873Y-17574D01*
X47215Y-17288D02*
X47158Y-17264D01*
X47130Y-17241D01*
X47101Y-17193D01*
X47101Y-17169D01*
X47130Y-17122D01*
X47158Y-17098D01*
X47215Y-17074D01*
X47330Y-17074D01*
X47387Y-17098D01*
X47415Y-17122D01*
X47444Y-17169D01*
X47444Y-17193D01*
X47415Y-17241D01*
X47387Y-17264D01*
X47330Y-17288D01*
X47215Y-17288D01*
X47158Y-17312D01*
X47130Y-17336D01*
X47101Y-17383D01*
X47101Y-17479D01*
X47130Y-17526D01*
X47158Y-17550D01*
X47215Y-17574D01*
X47330Y-17574D01*
X47387Y-17550D01*
X47415Y-17526D01*
X47444Y-17479D01*
X47444Y-17383D01*
X47415Y-17336D01*
X47387Y-17312D01*
X47330Y-17288D01*
X38458Y-17550D02*
X38544Y-17574D01*
X38687Y-17574D01*
X38744Y-17550D01*
X38773Y-17526D01*
X38801Y-17479D01*
X38801Y-17431D01*
X38773Y-17383D01*
X38744Y-17360D01*
X38687Y-17336D01*
X38573Y-17312D01*
X38515Y-17288D01*
X38487Y-17264D01*
X38458Y-17217D01*
X38458Y-17169D01*
X38487Y-17122D01*
X38515Y-17098D01*
X38573Y-17074D01*
X38715Y-17074D01*
X38801Y-17098D01*
X39030Y-17122D02*
X39058Y-17098D01*
X39115Y-17074D01*
X39258Y-17074D01*
X39315Y-17098D01*
X39344Y-17122D01*
X39373Y-17169D01*
X39373Y-17217D01*
X39344Y-17288D01*
X39001Y-17574D01*
X39373Y-17574D01*
X39573Y-17074D02*
X39944Y-17074D01*
X39744Y-17264D01*
X39830Y-17264D01*
X39887Y-17288D01*
X39915Y-17312D01*
X39944Y-17360D01*
X39944Y-17479D01*
X39915Y-17526D01*
X39887Y-17550D01*
X39830Y-17574D01*
X39658Y-17574D01*
X39601Y-17550D01*
X39573Y-17526D01*
X30958Y-17550D02*
X31044Y-17574D01*
X31187Y-17574D01*
X31244Y-17550D01*
X31273Y-17526D01*
X31301Y-17479D01*
X31301Y-17431D01*
X31273Y-17383D01*
X31244Y-17360D01*
X31187Y-17336D01*
X31073Y-17312D01*
X31015Y-17288D01*
X30987Y-17264D01*
X30958Y-17217D01*
X30958Y-17169D01*
X30987Y-17122D01*
X31015Y-17098D01*
X31073Y-17074D01*
X31215Y-17074D01*
X31301Y-17098D01*
X31873Y-17574D02*
X31530Y-17574D01*
X31701Y-17574D02*
X31701Y-17074D01*
X31644Y-17145D01*
X31587Y-17193D01*
X31530Y-17217D01*
X32215Y-17288D02*
X32158Y-17264D01*
X32130Y-17241D01*
X32101Y-17193D01*
X32101Y-17169D01*
X32130Y-17122D01*
X32158Y-17098D01*
X32215Y-17074D01*
X32330Y-17074D01*
X32387Y-17098D01*
X32415Y-17122D01*
X32444Y-17169D01*
X32444Y-17193D01*
X32415Y-17241D01*
X32387Y-17264D01*
X32330Y-17288D01*
X32215Y-17288D01*
X32158Y-17312D01*
X32130Y-17336D01*
X32101Y-17383D01*
X32101Y-17479D01*
X32130Y-17526D01*
X32158Y-17550D01*
X32215Y-17574D01*
X32330Y-17574D01*
X32387Y-17550D01*
X32415Y-17526D01*
X32444Y-17479D01*
X32444Y-17383D01*
X32415Y-17336D01*
X32387Y-17312D01*
X32330Y-17288D01*
X23458Y-17550D02*
X23544Y-17574D01*
X23687Y-17574D01*
X23744Y-17550D01*
X23773Y-17526D01*
X23801Y-17479D01*
X23801Y-17431D01*
X23773Y-17383D01*
X23744Y-17360D01*
X23687Y-17336D01*
X23573Y-17312D01*
X23515Y-17288D01*
X23487Y-17264D01*
X23458Y-17217D01*
X23458Y-17169D01*
X23487Y-17122D01*
X23515Y-17098D01*
X23573Y-17074D01*
X23715Y-17074D01*
X23801Y-17098D01*
X24373Y-17574D02*
X24030Y-17574D01*
X24201Y-17574D02*
X24201Y-17074D01*
X24144Y-17145D01*
X24087Y-17193D01*
X24030Y-17217D01*
X24573Y-17074D02*
X24944Y-17074D01*
X24744Y-17264D01*
X24830Y-17264D01*
X24887Y-17288D01*
X24915Y-17312D01*
X24944Y-17360D01*
X24944Y-17479D01*
X24915Y-17526D01*
X24887Y-17550D01*
X24830Y-17574D01*
X24658Y-17574D01*
X24601Y-17550D01*
X24573Y-17526D01*
X15958Y-17550D02*
X16044Y-17574D01*
X16187Y-17574D01*
X16244Y-17550D01*
X16273Y-17526D01*
X16301Y-17479D01*
X16301Y-17431D01*
X16273Y-17383D01*
X16244Y-17360D01*
X16187Y-17336D01*
X16073Y-17312D01*
X16015Y-17288D01*
X15987Y-17264D01*
X15958Y-17217D01*
X15958Y-17169D01*
X15987Y-17122D01*
X16015Y-17098D01*
X16073Y-17074D01*
X16215Y-17074D01*
X16301Y-17098D01*
X16673Y-17074D02*
X16730Y-17074D01*
X16787Y-17098D01*
X16815Y-17122D01*
X16844Y-17169D01*
X16873Y-17264D01*
X16873Y-17383D01*
X16844Y-17479D01*
X16815Y-17526D01*
X16787Y-17550D01*
X16730Y-17574D01*
X16673Y-17574D01*
X16615Y-17550D01*
X16587Y-17526D01*
X16558Y-17479D01*
X16530Y-17383D01*
X16530Y-17264D01*
X16558Y-17169D01*
X16587Y-17122D01*
X16615Y-17098D01*
X16673Y-17074D01*
X17215Y-17288D02*
X17158Y-17264D01*
X17130Y-17241D01*
X17101Y-17193D01*
X17101Y-17169D01*
X17130Y-17122D01*
X17158Y-17098D01*
X17215Y-17074D01*
X17330Y-17074D01*
X17387Y-17098D01*
X17415Y-17122D01*
X17444Y-17169D01*
X17444Y-17193D01*
X17415Y-17241D01*
X17387Y-17264D01*
X17330Y-17288D01*
X17215Y-17288D01*
X17158Y-17312D01*
X17130Y-17336D01*
X17101Y-17383D01*
X17101Y-17479D01*
X17130Y-17526D01*
X17158Y-17550D01*
X17215Y-17574D01*
X17330Y-17574D01*
X17387Y-17550D01*
X17415Y-17526D01*
X17444Y-17479D01*
X17444Y-17383D01*
X17415Y-17336D01*
X17387Y-17312D01*
X17330Y-17288D01*
X82558Y-10050D02*
X82644Y-10074D01*
X82787Y-10074D01*
X82844Y-10050D01*
X82873Y-10026D01*
X82901Y-9979D01*
X82901Y-9931D01*
X82873Y-9883D01*
X82844Y-9860D01*
X82787Y-9836D01*
X82673Y-9812D01*
X82615Y-9788D01*
X82587Y-9764D01*
X82558Y-9717D01*
X82558Y-9669D01*
X82587Y-9622D01*
X82615Y-9598D01*
X82673Y-9574D01*
X82815Y-9574D01*
X82901Y-9598D01*
X83444Y-9574D02*
X83158Y-9574D01*
X83130Y-9812D01*
X83158Y-9788D01*
X83215Y-9764D01*
X83358Y-9764D01*
X83415Y-9788D01*
X83444Y-9812D01*
X83473Y-9860D01*
X83473Y-9979D01*
X83444Y-10026D01*
X83415Y-10050D01*
X83358Y-10074D01*
X83215Y-10074D01*
X83158Y-10050D01*
X83130Y-10026D01*
X83701Y-9622D02*
X83730Y-9598D01*
X83787Y-9574D01*
X83930Y-9574D01*
X83987Y-9598D01*
X84015Y-9622D01*
X84044Y-9669D01*
X84044Y-9717D01*
X84015Y-9788D01*
X83673Y-10074D01*
X84044Y-10074D01*
X72258Y-10050D02*
X72344Y-10074D01*
X72487Y-10074D01*
X72544Y-10050D01*
X72573Y-10026D01*
X72601Y-9979D01*
X72601Y-9931D01*
X72573Y-9883D01*
X72544Y-9860D01*
X72487Y-9836D01*
X72373Y-9812D01*
X72315Y-9788D01*
X72287Y-9764D01*
X72258Y-9717D01*
X72258Y-9669D01*
X72287Y-9622D01*
X72315Y-9598D01*
X72373Y-9574D01*
X72515Y-9574D01*
X72601Y-9598D01*
X73115Y-9741D02*
X73115Y-10074D01*
X72973Y-9550D02*
X72830Y-9907D01*
X73201Y-9907D01*
X73373Y-9574D02*
X73773Y-9574D01*
X73515Y-10074D01*
X64758Y-10050D02*
X64844Y-10074D01*
X64987Y-10074D01*
X65044Y-10050D01*
X65073Y-10026D01*
X65101Y-9979D01*
X65101Y-9931D01*
X65073Y-9883D01*
X65044Y-9860D01*
X64987Y-9836D01*
X64873Y-9812D01*
X64815Y-9788D01*
X64787Y-9764D01*
X64758Y-9717D01*
X64758Y-9669D01*
X64787Y-9622D01*
X64815Y-9598D01*
X64873Y-9574D01*
X65015Y-9574D01*
X65101Y-9598D01*
X65615Y-9741D02*
X65615Y-10074D01*
X65473Y-9550D02*
X65330Y-9907D01*
X65701Y-9907D01*
X65901Y-9622D02*
X65930Y-9598D01*
X65987Y-9574D01*
X66130Y-9574D01*
X66187Y-9598D01*
X66215Y-9622D01*
X66244Y-9669D01*
X66244Y-9717D01*
X66215Y-9788D01*
X65873Y-10074D01*
X66244Y-10074D01*
X57258Y-10050D02*
X57344Y-10074D01*
X57487Y-10074D01*
X57544Y-10050D01*
X57573Y-10026D01*
X57601Y-9979D01*
X57601Y-9931D01*
X57573Y-9883D01*
X57544Y-9860D01*
X57487Y-9836D01*
X57373Y-9812D01*
X57315Y-9788D01*
X57287Y-9764D01*
X57258Y-9717D01*
X57258Y-9669D01*
X57287Y-9622D01*
X57315Y-9598D01*
X57373Y-9574D01*
X57515Y-9574D01*
X57601Y-9598D01*
X57801Y-9574D02*
X58173Y-9574D01*
X57973Y-9764D01*
X58058Y-9764D01*
X58115Y-9788D01*
X58144Y-9812D01*
X58173Y-9860D01*
X58173Y-9979D01*
X58144Y-10026D01*
X58115Y-10050D01*
X58058Y-10074D01*
X57887Y-10074D01*
X57830Y-10050D01*
X57801Y-10026D01*
X58373Y-9574D02*
X58773Y-9574D01*
X58515Y-10074D01*
X42258Y-10050D02*
X42344Y-10074D01*
X42487Y-10074D01*
X42544Y-10050D01*
X42573Y-10026D01*
X42601Y-9979D01*
X42601Y-9931D01*
X42573Y-9883D01*
X42544Y-9860D01*
X42487Y-9836D01*
X42373Y-9812D01*
X42315Y-9788D01*
X42287Y-9764D01*
X42258Y-9717D01*
X42258Y-9669D01*
X42287Y-9622D01*
X42315Y-9598D01*
X42373Y-9574D01*
X42515Y-9574D01*
X42601Y-9598D01*
X42830Y-9622D02*
X42858Y-9598D01*
X42915Y-9574D01*
X43058Y-9574D01*
X43115Y-9598D01*
X43144Y-9622D01*
X43173Y-9669D01*
X43173Y-9717D01*
X43144Y-9788D01*
X42801Y-10074D01*
X43173Y-10074D01*
X43373Y-9574D02*
X43773Y-9574D01*
X43515Y-10074D01*
X34758Y-10050D02*
X34844Y-10074D01*
X34987Y-10074D01*
X35044Y-10050D01*
X35073Y-10026D01*
X35101Y-9979D01*
X35101Y-9931D01*
X35073Y-9883D01*
X35044Y-9860D01*
X34987Y-9836D01*
X34873Y-9812D01*
X34815Y-9788D01*
X34787Y-9764D01*
X34758Y-9717D01*
X34758Y-9669D01*
X34787Y-9622D01*
X34815Y-9598D01*
X34873Y-9574D01*
X35015Y-9574D01*
X35101Y-9598D01*
X35330Y-9622D02*
X35358Y-9598D01*
X35415Y-9574D01*
X35558Y-9574D01*
X35615Y-9598D01*
X35644Y-9622D01*
X35673Y-9669D01*
X35673Y-9717D01*
X35644Y-9788D01*
X35301Y-10074D01*
X35673Y-10074D01*
X35901Y-9622D02*
X35930Y-9598D01*
X35987Y-9574D01*
X36130Y-9574D01*
X36187Y-9598D01*
X36215Y-9622D01*
X36244Y-9669D01*
X36244Y-9717D01*
X36215Y-9788D01*
X35873Y-10074D01*
X36244Y-10074D01*
X77858Y-2550D02*
X77944Y-2574D01*
X78087Y-2574D01*
X78144Y-2550D01*
X78173Y-2526D01*
X78201Y-2479D01*
X78201Y-2431D01*
X78173Y-2383D01*
X78144Y-2360D01*
X78087Y-2336D01*
X77973Y-2312D01*
X77915Y-2288D01*
X77887Y-2264D01*
X77858Y-2217D01*
X77858Y-2169D01*
X77887Y-2122D01*
X77915Y-2098D01*
X77973Y-2074D01*
X78115Y-2074D01*
X78201Y-2098D01*
X78744Y-2074D02*
X78458Y-2074D01*
X78430Y-2312D01*
X78458Y-2288D01*
X78515Y-2264D01*
X78658Y-2264D01*
X78715Y-2288D01*
X78744Y-2312D01*
X78773Y-2360D01*
X78773Y-2479D01*
X78744Y-2526D01*
X78715Y-2550D01*
X78658Y-2574D01*
X78515Y-2574D01*
X78458Y-2550D01*
X78430Y-2526D01*
X79344Y-2574D02*
X79001Y-2574D01*
X79173Y-2574D02*
X79173Y-2074D01*
X79115Y-2145D01*
X79058Y-2193D01*
X79001Y-2217D01*
X2858Y-2550D02*
X2944Y-2574D01*
X3087Y-2574D01*
X3144Y-2550D01*
X3172Y-2526D01*
X3201Y-2479D01*
X3201Y-2431D01*
X3172Y-2383D01*
X3144Y-2360D01*
X3087Y-2336D01*
X2972Y-2312D01*
X2915Y-2288D01*
X2887Y-2264D01*
X2858Y-2217D01*
X2858Y-2169D01*
X2887Y-2122D01*
X2915Y-2098D01*
X2972Y-2074D01*
X3115Y-2074D01*
X3201Y-2098D01*
X3572Y-2074D02*
X3629Y-2074D01*
X3687Y-2098D01*
X3715Y-2122D01*
X3744Y-2169D01*
X3772Y-2264D01*
X3772Y-2383D01*
X3744Y-2479D01*
X3715Y-2526D01*
X3687Y-2550D01*
X3629Y-2574D01*
X3572Y-2574D01*
X3515Y-2550D01*
X3487Y-2526D01*
X3458Y-2479D01*
X3429Y-2383D01*
X3429Y-2264D01*
X3458Y-2169D01*
X3487Y-2122D01*
X3515Y-2098D01*
X3572Y-2074D01*
X4344Y-2574D02*
X4001Y-2574D01*
X4172Y-2574D02*
X4172Y-2074D01*
X4115Y-2145D01*
X4058Y-2193D01*
X4001Y-2217D01*
X46858Y-25000D02*
X46944Y-25024D01*
X47087Y-25024D01*
X47144Y-25000D01*
X47173Y-24976D01*
X47201Y-24929D01*
X47201Y-24881D01*
X47173Y-24833D01*
X47144Y-24810D01*
X47087Y-24786D01*
X46973Y-24762D01*
X46915Y-24738D01*
X46887Y-24714D01*
X46858Y-24667D01*
X46858Y-24619D01*
X46887Y-24572D01*
X46915Y-24548D01*
X46973Y-24524D01*
X47115Y-24524D01*
X47201Y-24548D01*
X47430Y-24572D02*
X47458Y-24548D01*
X47515Y-24524D01*
X47658Y-24524D01*
X47715Y-24548D01*
X47744Y-24572D01*
X47773Y-24619D01*
X47773Y-24667D01*
X47744Y-24738D01*
X47401Y-25024D01*
X47773Y-25024D01*
X48058Y-25024D02*
X48173Y-25024D01*
X48230Y-25000D01*
X48258Y-24976D01*
X48315Y-24905D01*
X48344Y-24810D01*
X48344Y-24619D01*
X48315Y-24572D01*
X48287Y-24548D01*
X48230Y-24524D01*
X48115Y-24524D01*
X48058Y-24548D01*
X48030Y-24572D01*
X48001Y-24619D01*
X48001Y-24738D01*
X48030Y-24786D01*
X48058Y-24810D01*
X48115Y-24833D01*
X48230Y-24833D01*
X48287Y-24810D01*
X48315Y-24786D01*
X48344Y-24738D01*
X84173Y-17550D02*
X84258Y-17574D01*
X84401Y-17574D01*
X84458Y-17550D01*
X84487Y-17526D01*
X84515Y-17479D01*
X84515Y-17431D01*
X84487Y-17383D01*
X84458Y-17360D01*
X84401Y-17336D01*
X84287Y-17312D01*
X84230Y-17288D01*
X84201Y-17264D01*
X84173Y-17217D01*
X84173Y-17169D01*
X84201Y-17122D01*
X84230Y-17098D01*
X84287Y-17074D01*
X84430Y-17074D01*
X84515Y-17098D01*
X85058Y-17074D02*
X84773Y-17074D01*
X84744Y-17312D01*
X84773Y-17288D01*
X84830Y-17264D01*
X84973Y-17264D01*
X85030Y-17288D01*
X85058Y-17312D01*
X85087Y-17360D01*
X85087Y-17479D01*
X85058Y-17526D01*
X85030Y-17550D01*
X84973Y-17574D01*
X84830Y-17574D01*
X84773Y-17550D01*
X84744Y-17526D01*
X85287Y-17074D02*
X85658Y-17074D01*
X85458Y-17264D01*
X85544Y-17264D01*
X85601Y-17288D01*
X85630Y-17312D01*
X85658Y-17360D01*
X85658Y-17479D01*
X85630Y-17526D01*
X85601Y-17550D01*
X85544Y-17574D01*
X85373Y-17574D01*
X85315Y-17550D01*
X85287Y-17526D01*
X86230Y-17574D02*
X85887Y-17574D01*
X86058Y-17574D02*
X86058Y-17074D01*
X86001Y-17145D01*
X85944Y-17193D01*
X85887Y-17217D01*
X75673Y-17550D02*
X75758Y-17574D01*
X75901Y-17574D01*
X75958Y-17550D01*
X75987Y-17526D01*
X76015Y-17479D01*
X76015Y-17431D01*
X75987Y-17383D01*
X75958Y-17360D01*
X75901Y-17336D01*
X75787Y-17312D01*
X75730Y-17288D01*
X75701Y-17264D01*
X75673Y-17217D01*
X75673Y-17169D01*
X75701Y-17122D01*
X75730Y-17098D01*
X75787Y-17074D01*
X75930Y-17074D01*
X76015Y-17098D01*
X76530Y-17241D02*
X76530Y-17574D01*
X76387Y-17050D02*
X76244Y-17407D01*
X76615Y-17407D01*
X76930Y-17288D02*
X76873Y-17264D01*
X76844Y-17241D01*
X76815Y-17193D01*
X76815Y-17169D01*
X76844Y-17122D01*
X76873Y-17098D01*
X76930Y-17074D01*
X77044Y-17074D01*
X77101Y-17098D01*
X77130Y-17122D01*
X77158Y-17169D01*
X77158Y-17193D01*
X77130Y-17241D01*
X77101Y-17264D01*
X77044Y-17288D01*
X76930Y-17288D01*
X76873Y-17312D01*
X76844Y-17336D01*
X76815Y-17383D01*
X76815Y-17479D01*
X76844Y-17526D01*
X76873Y-17550D01*
X76930Y-17574D01*
X77044Y-17574D01*
X77101Y-17550D01*
X77130Y-17526D01*
X77158Y-17479D01*
X77158Y-17383D01*
X77130Y-17336D01*
X77101Y-17312D01*
X77044Y-17288D01*
X77730Y-17574D02*
X77387Y-17574D01*
X77558Y-17574D02*
X77558Y-17074D01*
X77501Y-17145D01*
X77444Y-17193D01*
X77387Y-17217D01*
%LPC*%
G54D18*
X6299Y-1523D03*
X8031Y-1523D03*
G54D19*
X37111Y-28809D03*
X35111Y-28809D03*
X33111Y-28809D03*
X36111Y-28809D03*
X34111Y-28809D03*
X38111Y-28809D03*
G54D20*
X1376Y-13509D03*
X1376Y-10509D03*
X2701Y-16622D03*
X2701Y-19622D03*
G54D21*
X3551Y-28122D03*
X6051Y-27122D03*
G54D22*
X4551Y-26122D03*
G54D23*
X6551Y-26122D03*
X2551Y-26122D03*
G54D21*
X3551Y-13122D03*
X6051Y-12122D03*
G54D22*
X4551Y-11122D03*
G54D23*
X6551Y-11122D03*
X2551Y-11122D03*
G54D21*
X5401Y-20622D03*
X7901Y-19622D03*
G54D22*
X6401Y-18622D03*
G54D23*
X8401Y-18622D03*
X4401Y-18622D03*
G54D24*
X24701Y-16622D03*
G54D25*
X23701Y-16622D03*
G54D24*
X13501Y-24122D03*
G54D25*
X12501Y-24122D03*
G54D24*
X17201Y-16622D03*
G54D25*
X16201Y-16622D03*
G54D24*
X5051Y-9122D03*
G54D25*
X4051Y-9122D03*
G54D24*
X11601Y-1621D03*
G54D25*
X10601Y-1621D03*
G54D24*
X5051Y-24122D03*
G54D25*
X4051Y-24122D03*
G54D21*
X85101Y-20622D03*
X87601Y-19622D03*
G54D22*
X86101Y-18622D03*
G54D23*
X88101Y-18622D03*
X84101Y-18622D03*
G54D21*
X49501Y-13122D03*
X52001Y-12122D03*
G54D22*
X50501Y-11122D03*
G54D23*
X52501Y-11122D03*
X48501Y-11122D03*
G54D21*
X70101Y-5622D03*
X72601Y-4622D03*
G54D22*
X71101Y-3622D03*
G54D23*
X73101Y-3622D03*
X69101Y-3622D03*
G54D21*
X32601Y-5622D03*
X35101Y-4622D03*
G54D22*
X33601Y-3622D03*
G54D23*
X35601Y-3622D03*
X31601Y-3622D03*
G54D21*
X84151Y-28122D03*
X86651Y-27122D03*
G54D22*
X85151Y-26122D03*
G54D23*
X87151Y-26122D03*
X83151Y-26122D03*
G54D21*
X74801Y-28122D03*
X77301Y-27122D03*
G54D22*
X75801Y-26122D03*
G54D23*
X77801Y-26122D03*
X73801Y-26122D03*
G54D21*
X19501Y-28122D03*
X22001Y-27122D03*
G54D22*
X20501Y-26122D03*
G54D23*
X22501Y-26122D03*
X18501Y-26122D03*
G54D21*
X12001Y-28122D03*
X14501Y-27122D03*
G54D22*
X13001Y-26122D03*
G54D23*
X15001Y-26122D03*
X11001Y-26122D03*
G54D21*
X76651Y-20622D03*
X79151Y-19622D03*
G54D22*
X77651Y-18622D03*
G54D23*
X79651Y-18622D03*
X75651Y-18622D03*
G54D21*
X68201Y-20622D03*
X70701Y-19622D03*
G54D22*
X69201Y-18622D03*
G54D23*
X71201Y-18622D03*
X67201Y-18622D03*
G54D21*
X27001Y-13122D03*
X29501Y-12122D03*
G54D22*
X28001Y-11122D03*
G54D23*
X30001Y-11122D03*
X26001Y-11122D03*
G54D21*
X19501Y-13122D03*
X22001Y-12122D03*
G54D22*
X20501Y-11122D03*
G54D23*
X22501Y-11122D03*
X18501Y-11122D03*
G54D21*
X12001Y-13122D03*
X14501Y-12122D03*
G54D22*
X13001Y-11122D03*
G54D23*
X15001Y-11122D03*
X11001Y-11122D03*
G54D21*
X85101Y-5622D03*
X87601Y-4622D03*
G54D22*
X86101Y-3622D03*
G54D23*
X88101Y-3622D03*
X84101Y-3622D03*
G54D21*
X62601Y-5622D03*
X65101Y-4622D03*
G54D22*
X63601Y-3622D03*
G54D23*
X65601Y-3622D03*
X61601Y-3622D03*
G54D21*
X55101Y-5622D03*
X57601Y-4622D03*
G54D22*
X56101Y-3622D03*
G54D23*
X58101Y-3622D03*
X54101Y-3622D03*
G54D21*
X47601Y-5622D03*
X50101Y-4622D03*
G54D22*
X48601Y-3622D03*
G54D23*
X50601Y-3622D03*
X46601Y-3622D03*
G54D21*
X40101Y-5622D03*
X42601Y-4622D03*
G54D22*
X41101Y-3622D03*
G54D23*
X43101Y-3622D03*
X39101Y-3622D03*
G54D21*
X25101Y-5622D03*
X27601Y-4622D03*
G54D22*
X26101Y-3622D03*
G54D23*
X28101Y-3622D03*
X24101Y-3622D03*
G54D21*
X17601Y-5622D03*
X20101Y-4622D03*
G54D22*
X18601Y-3622D03*
G54D23*
X20601Y-3622D03*
X16601Y-3622D03*
G54D21*
X10101Y-5622D03*
X12601Y-4622D03*
G54D22*
X11101Y-3622D03*
G54D23*
X13101Y-3622D03*
X9101Y-3622D03*
G54D21*
X60701Y-20622D03*
X63201Y-19622D03*
G54D22*
X61701Y-18622D03*
G54D23*
X63701Y-18622D03*
X59701Y-18622D03*
G54D21*
X53201Y-20622D03*
X55701Y-19622D03*
G54D22*
X54201Y-18622D03*
G54D23*
X56201Y-18622D03*
X52201Y-18622D03*
G54D21*
X45701Y-20622D03*
X48201Y-19622D03*
G54D22*
X46701Y-18622D03*
G54D23*
X48701Y-18622D03*
X44701Y-18622D03*
G54D21*
X38201Y-20622D03*
X40701Y-19622D03*
G54D22*
X39201Y-18622D03*
G54D23*
X41201Y-18622D03*
X37201Y-18622D03*
G54D21*
X30701Y-20622D03*
X33201Y-19622D03*
G54D22*
X31701Y-18622D03*
G54D23*
X33701Y-18622D03*
X29701Y-18622D03*
G54D21*
X23201Y-20622D03*
X25701Y-19622D03*
G54D22*
X24201Y-18622D03*
G54D23*
X26201Y-18622D03*
X22201Y-18622D03*
G54D21*
X15701Y-20622D03*
X18201Y-19622D03*
G54D22*
X16701Y-18622D03*
G54D23*
X18701Y-18622D03*
X14701Y-18622D03*
G54D21*
X82301Y-13122D03*
X84801Y-12122D03*
G54D22*
X83301Y-11122D03*
G54D23*
X85301Y-11122D03*
X81301Y-11122D03*
G54D21*
X72001Y-13122D03*
X74501Y-12122D03*
G54D22*
X73001Y-11122D03*
G54D23*
X75001Y-11122D03*
X71001Y-11122D03*
G54D21*
X64501Y-13122D03*
X67001Y-12122D03*
G54D22*
X65501Y-11122D03*
G54D23*
X67501Y-11122D03*
X63501Y-11122D03*
G54D21*
X57001Y-13122D03*
X59501Y-12122D03*
G54D22*
X58001Y-11122D03*
G54D23*
X60001Y-11122D03*
X56001Y-11122D03*
G54D21*
X42001Y-13122D03*
X44501Y-12122D03*
G54D22*
X43001Y-11122D03*
G54D23*
X45001Y-11122D03*
X41001Y-11122D03*
G54D21*
X34501Y-13122D03*
X37001Y-12122D03*
G54D22*
X35501Y-11122D03*
G54D23*
X37501Y-11122D03*
X33501Y-11122D03*
G54D21*
X77601Y-5622D03*
X80101Y-4622D03*
G54D22*
X78601Y-3622D03*
G54D23*
X80601Y-3622D03*
X76601Y-3622D03*
G54D24*
X48271Y-24124D03*
G54D25*
X47271Y-24124D03*
G54D24*
X62201Y-16622D03*
G54D25*
X61201Y-16622D03*
G54D24*
X54701Y-16622D03*
G54D25*
X53701Y-16622D03*
G54D24*
X47201Y-16622D03*
G54D25*
X46201Y-16622D03*
G54D24*
X39701Y-16622D03*
G54D25*
X38701Y-16622D03*
G54D24*
X83801Y-9122D03*
G54D25*
X82801Y-9122D03*
G54D24*
X73501Y-9122D03*
G54D25*
X72501Y-9122D03*
G54D24*
X66001Y-9122D03*
G54D25*
X65001Y-9122D03*
G54D24*
X32201Y-16672D03*
G54D25*
X31201Y-16672D03*
G54D24*
X58501Y-9122D03*
G54D25*
X57501Y-9122D03*
G54D24*
X34101Y-1622D03*
G54D25*
X33101Y-1622D03*
G54D24*
X41601Y-1622D03*
G54D25*
X40601Y-1622D03*
G54D24*
X49101Y-1622D03*
G54D25*
X48101Y-1622D03*
G54D24*
X56601Y-1622D03*
G54D25*
X55601Y-1622D03*
G54D24*
X26601Y-1622D03*
G54D25*
X25601Y-1622D03*
G54D24*
X51001Y-9122D03*
G54D25*
X50001Y-9122D03*
G54D24*
X64101Y-1622D03*
G54D25*
X63101Y-1622D03*
G54D24*
X71601Y-1622D03*
G54D25*
X70601Y-1622D03*
G54D24*
X79101Y-1622D03*
G54D25*
X78101Y-1622D03*
G54D24*
X86601Y-1622D03*
G54D25*
X85601Y-1622D03*
G54D24*
X36001Y-9122D03*
G54D25*
X35001Y-9122D03*
G54D24*
X43501Y-9122D03*
G54D25*
X42501Y-9122D03*
G54D24*
X85651Y-24122D03*
G54D25*
X84651Y-24122D03*
G54D24*
X76301Y-24122D03*
G54D25*
X75301Y-24122D03*
G54D24*
X69701Y-16622D03*
G54D25*
X68701Y-16622D03*
G54D24*
X78151Y-16622D03*
G54D25*
X77151Y-16622D03*
G54D24*
X21001Y-24122D03*
G54D25*
X20001Y-24122D03*
G54D24*
X86601Y-16622D03*
G54D25*
X85601Y-16622D03*
G54D24*
X4101Y-1621D03*
G54D25*
X3101Y-1621D03*
G54D21*
X2601Y-5622D03*
X5101Y-4622D03*
G54D22*
X3601Y-3622D03*
G54D23*
X5601Y-3622D03*
X1601Y-3622D03*
G54D24*
X6901Y-16622D03*
G54D25*
X5901Y-16622D03*
G54D20*
X31301Y-12122D03*
X31301Y-9122D03*
X23851Y-12122D03*
X23851Y-9122D03*
X16301Y-13022D03*
X16301Y-10022D03*
X22001Y-4622D03*
X22001Y-1622D03*
G54D24*
X28501Y-9122D03*
G54D25*
X27501Y-9122D03*
G54D24*
X21001Y-9122D03*
G54D25*
X20001Y-9122D03*
G54D24*
X13501Y-9122D03*
G54D25*
X12501Y-9122D03*
G54D24*
X19101Y-1622D03*
G54D25*
X18101Y-1622D03*
G54D21*
X46601Y-28122D03*
X49101Y-27122D03*
G54D22*
X47601Y-26122D03*
G54D23*
X49601Y-26122D03*
X45601Y-26122D03*
G54D26*
X67301Y-28822D03*
X27901Y-28822D03*
G54D22*
X67301Y-22822D03*
X27901Y-22822D03*
G54D21*
X84201Y-20622D03*
X86701Y-19622D03*
G54D22*
X85201Y-18622D03*
G54D23*
X87201Y-18622D03*
X83201Y-18622D03*
G54D21*
X75701Y-20622D03*
X78201Y-19622D03*
G54D22*
X76701Y-18622D03*
G54D23*
X78701Y-18622D03*
X74701Y-18622D03*
G54D24*
X76201Y-16622D03*
G54D25*
X77201Y-16622D03*
G54D24*
X84701Y-16622D03*
G54D25*
X85701Y-16622D03*
G54D27*
X88976Y-8059D03*
X88976Y-8559D03*
X88976Y-9059D03*
X88976Y-9559D03*
X88976Y-10059D03*
X88976Y-14059D03*
X88976Y-14559D03*
G54D28*
X89071Y-22244D03*
G54D29*
X88171Y-22244D03*
X88771Y-22244D03*
X89371Y-22244D03*
X89971Y-22244D03*
G54D30*
X78701Y-11122D03*
G54D29*
X79201Y-11122D03*
X78201Y-11122D03*
X78701Y-11122D03*
G54D30*
X16801Y-7722D03*
G54D29*
X17301Y-7722D03*
X16301Y-7722D03*
X16801Y-7722D03*
G54D30*
X50472Y-18503D03*
G54D29*
X50972Y-18503D03*
X49972Y-18503D03*
X50472Y-18503D03*
G54D28*
X574Y-22244D03*
G54D29*
X-325Y-22244D03*
X274Y-22244D03*
X874Y-22244D03*
X1474Y-22244D03*
G54D27*
X88976Y-11559D03*
X88976Y-12059D03*
X88976Y-12559D03*
X88976Y-13059D03*
X88976Y-13559D03*
G54D31*
X351Y-29472D03*
X89401Y-322D03*
X89376Y-29468D03*
X351Y-322D03*
X24976Y-23059D03*
X29876Y-359D03*
G54D27*
X88976Y-15059D03*
X88976Y-11059D03*
X37476Y-2059D03*
X37476Y-2559D03*
X37476Y-3059D03*
X44876Y-1559D03*
X44876Y-2559D03*
X44876Y-3059D03*
X37476Y-1559D03*
X52476Y-2559D03*
X52476Y-3059D03*
X59876Y-1559D03*
X59876Y-2059D03*
X59876Y-2559D03*
X59876Y-3059D03*
X52476Y-2059D03*
X44876Y-2059D03*
X52476Y-1559D03*
M02*
