G04 (created by PCBNEW (2013-02-13 BZR 3947)-testing) date 9/20/2013 10:49:46 AM*
%MOIN*%
G04 Gerber Fmt 3.4, Leading zero omitted, Abs format*
%FSLAX34Y34*%
G01*
G70*
G90*
G04 APERTURE LIST*
%ADD10C,0*%
%ADD11O,0.3937X0.1969*%
%ADD12C,0.2756*%
%ADD13R,0.0393701X0.122047*%
%ADD14R,0.0807X0.1575*%
%ADD15R,0.0807X0.1378*%
%ADD16O,0.0197008X0.0984252*%
%ADD17C,0.0354331*%
%ADD18R,0.0453X0.0551*%
%ADD19O,0.0748X0.016*%
%ADD20O,0.016X0.0748*%
%ADD21R,0.035X0.055*%
%ADD22R,0.055X0.035*%
%ADD23C,0.0708661*%
%ADD24C,0.0629921*%
%ADD25C,0.09*%
%ADD26C,0.157*%
%ADD27C,0.067*%
%ADD28O,0.075X0.085*%
%ADD29R,0.075X0.085*%
%ADD30C,0.0393701*%
%ADD31C,0.12*%
%ADD32C,0.016*%
%ADD33C,0.02*%
%ADD34C,0.01*%
G04 APERTURE END LIST*
G54D10*
G54D11*
X89071Y-22244D03*
G54D12*
X78701Y-11122D03*
X16801Y-7722D03*
X50472Y-18503D03*
G54D11*
X574Y-22244D03*
G54D13*
X10688Y-17223D03*
X12263Y-20727D03*
X10689Y-20727D03*
X12263Y-17223D03*
G54D14*
X9104Y-775D03*
X5226Y-775D03*
G54D15*
X5226Y-2449D03*
X9104Y-2449D03*
G54D16*
X7165Y-2449D03*
X6850Y-2449D03*
X6535Y-2449D03*
X7480Y-2449D03*
X7795Y-2449D03*
G54D17*
X6299Y-1523D03*
X8031Y-1523D03*
G54D18*
X61081Y-26226D03*
X61081Y-27092D03*
X61711Y-26226D03*
X61711Y-27092D03*
G54D19*
X55094Y-25985D03*
X55094Y-25670D03*
X55094Y-25355D03*
X55094Y-25040D03*
X55094Y-24725D03*
X55094Y-24410D03*
X55094Y-26300D03*
X55094Y-26615D03*
X55094Y-26930D03*
X55094Y-27245D03*
X55094Y-27560D03*
X59594Y-25985D03*
X59594Y-25670D03*
X59594Y-25355D03*
X59594Y-25040D03*
X59594Y-24725D03*
X59594Y-24410D03*
X59594Y-26300D03*
X59594Y-26615D03*
X59594Y-26930D03*
X59594Y-27245D03*
X59594Y-27560D03*
G54D20*
X57344Y-23735D03*
X57344Y-28235D03*
X57659Y-23735D03*
X57659Y-28235D03*
X57974Y-28235D03*
X57974Y-23735D03*
X58289Y-23735D03*
X58289Y-28235D03*
X58604Y-28235D03*
X58604Y-23735D03*
X58919Y-23735D03*
X58919Y-28235D03*
X57029Y-28235D03*
X57029Y-23735D03*
X56714Y-23735D03*
X56714Y-28235D03*
X56399Y-28235D03*
X56399Y-23735D03*
X56084Y-23735D03*
X56084Y-28235D03*
X55769Y-28235D03*
X55769Y-23735D03*
G54D21*
X5226Y-6922D03*
X5976Y-6922D03*
X62621Y-25659D03*
X63371Y-25659D03*
X62621Y-27409D03*
X63371Y-27409D03*
X54121Y-27659D03*
X53371Y-27659D03*
X54521Y-23684D03*
X53771Y-23684D03*
X61771Y-28109D03*
X61021Y-28109D03*
X61771Y-25209D03*
X61021Y-25209D03*
G54D22*
X7376Y-5534D03*
X7376Y-4784D03*
X8226Y-5534D03*
X8226Y-4784D03*
G54D21*
X59971Y-23659D03*
X60721Y-23659D03*
X54126Y-28633D03*
X53376Y-28633D03*
X62621Y-24009D03*
X61871Y-24009D03*
G54D22*
X72601Y-6747D03*
X72601Y-5997D03*
G54D21*
X69226Y-12122D03*
X68476Y-12122D03*
X72726Y-19622D03*
X71976Y-19622D03*
X39226Y-12122D03*
X38476Y-12122D03*
X65226Y-19622D03*
X64476Y-19622D03*
X61726Y-12122D03*
X60976Y-12122D03*
G54D22*
X65101Y-6747D03*
X65101Y-5997D03*
X57601Y-6747D03*
X57601Y-5997D03*
G54D21*
X54226Y-12122D03*
X53476Y-12122D03*
X57726Y-19622D03*
X56976Y-19622D03*
X42726Y-19622D03*
X41976Y-19622D03*
X3226Y-6922D03*
X3976Y-6922D03*
G54D22*
X50101Y-6747D03*
X50101Y-5997D03*
X35101Y-6747D03*
X35101Y-5997D03*
G54D21*
X35226Y-19622D03*
X34476Y-19622D03*
X28726Y-13872D03*
X29476Y-13872D03*
G54D22*
X27601Y-6747D03*
X27601Y-5997D03*
G54D21*
X51226Y-27122D03*
X50476Y-27122D03*
X48951Y-21109D03*
X48201Y-21109D03*
X46726Y-12122D03*
X45976Y-12122D03*
G54D22*
X42601Y-6747D03*
X42601Y-5997D03*
G54D21*
X24226Y-27122D03*
X23476Y-27122D03*
X16726Y-27122D03*
X15976Y-27122D03*
X27726Y-19622D03*
X26976Y-19622D03*
X21226Y-13872D03*
X21976Y-13872D03*
X20226Y-19622D03*
X19476Y-19622D03*
X13726Y-13872D03*
X14476Y-13872D03*
X8226Y-27122D03*
X7476Y-27122D03*
X6801Y-13609D03*
X6051Y-13609D03*
G54D22*
X20101Y-6747D03*
X20101Y-5997D03*
X12601Y-6747D03*
X12601Y-5997D03*
X7851Y-21747D03*
X7851Y-20997D03*
X87601Y-6997D03*
X87601Y-6247D03*
G54D21*
X86376Y-21822D03*
X85626Y-21822D03*
X88726Y-27122D03*
X87976Y-27122D03*
X79476Y-27122D03*
X78726Y-27122D03*
X84226Y-13622D03*
X84976Y-13622D03*
G54D22*
X80101Y-6747D03*
X80101Y-5997D03*
G54D21*
X76726Y-12122D03*
X75976Y-12122D03*
X81226Y-19622D03*
X80476Y-19622D03*
G54D23*
X37376Y-2559D03*
X37376Y-3559D03*
X37376Y-4559D03*
X44876Y-5559D03*
X44876Y-4559D03*
X44876Y-1559D03*
X37376Y-5559D03*
X52376Y-2559D03*
X52376Y-5559D03*
X52376Y-4559D03*
X52376Y-3559D03*
X59876Y-1559D03*
X59876Y-3559D03*
X52376Y-1559D03*
X36576Y-23024D03*
X36576Y-24024D03*
X34576Y-24024D03*
X34576Y-23024D03*
X35576Y-24024D03*
X35576Y-23024D03*
X37111Y-28809D03*
X35111Y-28809D03*
X33111Y-28809D03*
X36111Y-28809D03*
X34111Y-28809D03*
X38111Y-28809D03*
X44876Y-2559D03*
X44876Y-3559D03*
X67376Y-5559D03*
X67376Y-1559D03*
X67376Y-3559D03*
X67376Y-4559D03*
X67376Y-2559D03*
X59876Y-5559D03*
G54D24*
X1376Y-13509D03*
X1376Y-10509D03*
X2701Y-16622D03*
X2701Y-19622D03*
G54D25*
X3551Y-28122D03*
X6051Y-27122D03*
G54D26*
X4551Y-26122D03*
G54D27*
X6551Y-26122D03*
X2551Y-26122D03*
G54D25*
X3551Y-13122D03*
X6051Y-12122D03*
G54D26*
X4551Y-11122D03*
G54D27*
X6551Y-11122D03*
X2551Y-11122D03*
G54D25*
X5401Y-20622D03*
X7901Y-19622D03*
G54D26*
X6401Y-18622D03*
G54D27*
X8401Y-18622D03*
X4401Y-18622D03*
G54D28*
X24701Y-16622D03*
G54D29*
X23701Y-16622D03*
G54D28*
X13501Y-24122D03*
G54D29*
X12501Y-24122D03*
G54D28*
X17201Y-16622D03*
G54D29*
X16201Y-16622D03*
G54D28*
X5051Y-9122D03*
G54D29*
X4051Y-9122D03*
G54D28*
X11601Y-1621D03*
G54D29*
X10601Y-1621D03*
G54D28*
X5051Y-24122D03*
G54D29*
X4051Y-24122D03*
G54D25*
X85101Y-20622D03*
X87601Y-19622D03*
G54D26*
X86101Y-18622D03*
G54D27*
X88101Y-18622D03*
X84101Y-18622D03*
G54D25*
X49501Y-13122D03*
X52001Y-12122D03*
G54D26*
X50501Y-11122D03*
G54D27*
X52501Y-11122D03*
X48501Y-11122D03*
G54D25*
X70101Y-5622D03*
X72601Y-4622D03*
G54D26*
X71101Y-3622D03*
G54D27*
X73101Y-3622D03*
X69101Y-3622D03*
G54D25*
X32601Y-5622D03*
X35101Y-4622D03*
G54D26*
X33601Y-3622D03*
G54D27*
X35601Y-3622D03*
X31601Y-3622D03*
G54D25*
X84151Y-28122D03*
X86651Y-27122D03*
G54D26*
X85151Y-26122D03*
G54D27*
X87151Y-26122D03*
X83151Y-26122D03*
G54D25*
X74801Y-28122D03*
X77301Y-27122D03*
G54D26*
X75801Y-26122D03*
G54D27*
X77801Y-26122D03*
X73801Y-26122D03*
G54D25*
X19501Y-28122D03*
X22001Y-27122D03*
G54D26*
X20501Y-26122D03*
G54D27*
X22501Y-26122D03*
X18501Y-26122D03*
G54D25*
X12001Y-28122D03*
X14501Y-27122D03*
G54D26*
X13001Y-26122D03*
G54D27*
X15001Y-26122D03*
X11001Y-26122D03*
G54D25*
X76651Y-20622D03*
X79151Y-19622D03*
G54D26*
X77651Y-18622D03*
G54D27*
X79651Y-18622D03*
X75651Y-18622D03*
G54D25*
X68201Y-20622D03*
X70701Y-19622D03*
G54D26*
X69201Y-18622D03*
G54D27*
X71201Y-18622D03*
X67201Y-18622D03*
G54D25*
X27001Y-13122D03*
X29501Y-12122D03*
G54D26*
X28001Y-11122D03*
G54D27*
X30001Y-11122D03*
X26001Y-11122D03*
G54D25*
X19501Y-13122D03*
X22001Y-12122D03*
G54D26*
X20501Y-11122D03*
G54D27*
X22501Y-11122D03*
X18501Y-11122D03*
G54D25*
X12001Y-13122D03*
X14501Y-12122D03*
G54D26*
X13001Y-11122D03*
G54D27*
X15001Y-11122D03*
X11001Y-11122D03*
G54D25*
X85101Y-5622D03*
X87601Y-4622D03*
G54D26*
X86101Y-3622D03*
G54D27*
X88101Y-3622D03*
X84101Y-3622D03*
G54D25*
X62601Y-5622D03*
X65101Y-4622D03*
G54D26*
X63601Y-3622D03*
G54D27*
X65601Y-3622D03*
X61601Y-3622D03*
G54D25*
X55101Y-5622D03*
X57601Y-4622D03*
G54D26*
X56101Y-3622D03*
G54D27*
X58101Y-3622D03*
X54101Y-3622D03*
G54D25*
X47601Y-5622D03*
X50101Y-4622D03*
G54D26*
X48601Y-3622D03*
G54D27*
X50601Y-3622D03*
X46601Y-3622D03*
G54D25*
X40101Y-5622D03*
X42601Y-4622D03*
G54D26*
X41101Y-3622D03*
G54D27*
X43101Y-3622D03*
X39101Y-3622D03*
G54D25*
X25101Y-5622D03*
X27601Y-4622D03*
G54D26*
X26101Y-3622D03*
G54D27*
X28101Y-3622D03*
X24101Y-3622D03*
G54D25*
X17601Y-5622D03*
X20101Y-4622D03*
G54D26*
X18601Y-3622D03*
G54D27*
X20601Y-3622D03*
X16601Y-3622D03*
G54D25*
X10101Y-5622D03*
X12601Y-4622D03*
G54D26*
X11101Y-3622D03*
G54D27*
X13101Y-3622D03*
X9101Y-3622D03*
G54D25*
X60701Y-20622D03*
X63201Y-19622D03*
G54D26*
X61701Y-18622D03*
G54D27*
X63701Y-18622D03*
X59701Y-18622D03*
G54D25*
X53201Y-20622D03*
X55701Y-19622D03*
G54D26*
X54201Y-18622D03*
G54D27*
X56201Y-18622D03*
X52201Y-18622D03*
G54D25*
X45701Y-20622D03*
X48201Y-19622D03*
G54D26*
X46701Y-18622D03*
G54D27*
X48701Y-18622D03*
X44701Y-18622D03*
G54D25*
X38201Y-20622D03*
X40701Y-19622D03*
G54D26*
X39201Y-18622D03*
G54D27*
X41201Y-18622D03*
X37201Y-18622D03*
G54D25*
X30701Y-20622D03*
X33201Y-19622D03*
G54D26*
X31701Y-18622D03*
G54D27*
X33701Y-18622D03*
X29701Y-18622D03*
G54D25*
X23201Y-20622D03*
X25701Y-19622D03*
G54D26*
X24201Y-18622D03*
G54D27*
X26201Y-18622D03*
X22201Y-18622D03*
G54D25*
X15701Y-20622D03*
X18201Y-19622D03*
G54D26*
X16701Y-18622D03*
G54D27*
X18701Y-18622D03*
X14701Y-18622D03*
G54D25*
X82301Y-13122D03*
X84801Y-12122D03*
G54D26*
X83301Y-11122D03*
G54D27*
X85301Y-11122D03*
X81301Y-11122D03*
G54D25*
X72001Y-13122D03*
X74501Y-12122D03*
G54D26*
X73001Y-11122D03*
G54D27*
X75001Y-11122D03*
X71001Y-11122D03*
G54D25*
X64501Y-13122D03*
X67001Y-12122D03*
G54D26*
X65501Y-11122D03*
G54D27*
X67501Y-11122D03*
X63501Y-11122D03*
G54D25*
X57001Y-13122D03*
X59501Y-12122D03*
G54D26*
X58001Y-11122D03*
G54D27*
X60001Y-11122D03*
X56001Y-11122D03*
G54D25*
X42001Y-13122D03*
X44501Y-12122D03*
G54D26*
X43001Y-11122D03*
G54D27*
X45001Y-11122D03*
X41001Y-11122D03*
G54D25*
X34501Y-13122D03*
X37001Y-12122D03*
G54D26*
X35501Y-11122D03*
G54D27*
X37501Y-11122D03*
X33501Y-11122D03*
G54D25*
X77601Y-5622D03*
X80101Y-4622D03*
G54D26*
X78601Y-3622D03*
G54D27*
X80601Y-3622D03*
X76601Y-3622D03*
G54D28*
X48271Y-24124D03*
G54D29*
X47271Y-24124D03*
G54D28*
X62201Y-16622D03*
G54D29*
X61201Y-16622D03*
G54D28*
X54701Y-16622D03*
G54D29*
X53701Y-16622D03*
G54D28*
X47201Y-16622D03*
G54D29*
X46201Y-16622D03*
G54D28*
X39701Y-16622D03*
G54D29*
X38701Y-16622D03*
G54D28*
X83801Y-9122D03*
G54D29*
X82801Y-9122D03*
G54D28*
X73501Y-9122D03*
G54D29*
X72501Y-9122D03*
G54D28*
X66001Y-9122D03*
G54D29*
X65001Y-9122D03*
G54D28*
X32201Y-16672D03*
G54D29*
X31201Y-16672D03*
G54D28*
X58501Y-9122D03*
G54D29*
X57501Y-9122D03*
G54D28*
X34101Y-1622D03*
G54D29*
X33101Y-1622D03*
G54D28*
X41601Y-1622D03*
G54D29*
X40601Y-1622D03*
G54D28*
X49101Y-1622D03*
G54D29*
X48101Y-1622D03*
G54D28*
X56601Y-1622D03*
G54D29*
X55601Y-1622D03*
G54D28*
X26601Y-1622D03*
G54D29*
X25601Y-1622D03*
G54D28*
X51001Y-9122D03*
G54D29*
X50001Y-9122D03*
G54D28*
X64101Y-1622D03*
G54D29*
X63101Y-1622D03*
G54D28*
X71601Y-1622D03*
G54D29*
X70601Y-1622D03*
G54D28*
X79101Y-1622D03*
G54D29*
X78101Y-1622D03*
G54D28*
X86601Y-1622D03*
G54D29*
X85601Y-1622D03*
G54D28*
X36001Y-9122D03*
G54D29*
X35001Y-9122D03*
G54D28*
X43501Y-9122D03*
G54D29*
X42501Y-9122D03*
G54D28*
X85651Y-24122D03*
G54D29*
X84651Y-24122D03*
G54D28*
X76301Y-24122D03*
G54D29*
X75301Y-24122D03*
G54D28*
X69701Y-16622D03*
G54D29*
X68701Y-16622D03*
G54D28*
X78151Y-16622D03*
G54D29*
X77151Y-16622D03*
G54D28*
X21001Y-24122D03*
G54D29*
X20001Y-24122D03*
G54D28*
X86601Y-16622D03*
G54D29*
X85601Y-16622D03*
G54D28*
X4101Y-1621D03*
G54D29*
X3101Y-1621D03*
G54D25*
X2601Y-5622D03*
X5101Y-4622D03*
G54D26*
X3601Y-3622D03*
G54D27*
X5601Y-3622D03*
X1601Y-3622D03*
G54D28*
X6901Y-16622D03*
G54D29*
X5901Y-16622D03*
G54D24*
X31301Y-12122D03*
X31301Y-9122D03*
X23851Y-12122D03*
X23851Y-9122D03*
X16301Y-13022D03*
X16301Y-10022D03*
X22001Y-4622D03*
X22001Y-1622D03*
G54D28*
X28501Y-9122D03*
G54D29*
X27501Y-9122D03*
G54D28*
X21001Y-9122D03*
G54D29*
X20001Y-9122D03*
G54D28*
X13501Y-9122D03*
G54D29*
X12501Y-9122D03*
G54D28*
X19101Y-1622D03*
G54D29*
X18101Y-1622D03*
G54D30*
X351Y-29472D03*
X89401Y-322D03*
X89401Y-29472D03*
X351Y-322D03*
X24976Y-23059D03*
X29976Y-559D03*
G54D25*
X46601Y-28122D03*
X49101Y-27122D03*
G54D26*
X47601Y-26122D03*
G54D27*
X49601Y-26122D03*
X45601Y-26122D03*
G54D31*
X67301Y-28822D03*
X27901Y-28822D03*
G54D26*
X67301Y-22822D03*
X27901Y-22822D03*
G54D25*
X84201Y-20622D03*
X86701Y-19622D03*
G54D26*
X85201Y-18622D03*
G54D27*
X87201Y-18622D03*
X83201Y-18622D03*
G54D25*
X75701Y-20622D03*
X78201Y-19622D03*
G54D26*
X76701Y-18622D03*
G54D27*
X78701Y-18622D03*
X74701Y-18622D03*
G54D28*
X76201Y-16622D03*
G54D29*
X77201Y-16622D03*
G54D28*
X84701Y-16622D03*
G54D29*
X85701Y-16622D03*
G54D30*
X49198Y-8762D03*
X52635Y-24712D03*
X26081Y-16937D03*
X52364Y-9573D03*
X53973Y-26118D03*
X67681Y-24904D03*
X53383Y-25535D03*
X21199Y-12607D03*
X42367Y-16622D03*
X73619Y-15682D03*
X34280Y-5768D03*
X46681Y-23030D03*
X44985Y-22076D03*
X58983Y-23069D03*
X23033Y-22669D03*
X57831Y-22251D03*
X8749Y-23499D03*
X53170Y-23686D03*
X85621Y-22382D03*
X67299Y-26793D03*
X87030Y-15444D03*
X73649Y-16233D03*
X19080Y-24853D03*
X55754Y-26449D03*
X17179Y-27115D03*
X30527Y-22087D03*
X55239Y-23842D03*
X35200Y-20990D03*
X48792Y-21739D03*
X51364Y-26548D03*
X49926Y-27433D03*
X64097Y-26356D03*
X64571Y-24586D03*
X49216Y-25081D03*
X58130Y-24728D03*
X64989Y-25075D03*
X66056Y-23094D03*
X60398Y-23094D03*
X72791Y-26090D03*
X68061Y-24377D03*
X65358Y-25450D03*
X58940Y-25759D03*
X53047Y-26605D03*
X58819Y-26655D03*
X58925Y-27129D03*
X60253Y-27547D03*
X62161Y-24666D03*
X62993Y-28474D03*
X63644Y-24701D03*
X60391Y-24666D03*
X13001Y-7822D03*
X14801Y-3772D03*
X6888Y-7834D03*
X10401Y-7822D03*
X14801Y-1672D03*
X8651Y-9597D03*
X4501Y-12422D03*
X4501Y-14722D03*
X8651Y-14722D03*
X6796Y-445D03*
X35935Y-21634D03*
X52911Y-28518D03*
X59282Y-27935D03*
X62491Y-26229D03*
X60569Y-25963D03*
X22781Y-27434D03*
X55977Y-26896D03*
X58692Y-22679D03*
X57860Y-22821D03*
X32085Y-21191D03*
X56187Y-22678D03*
X4016Y-5677D03*
X62241Y-28238D03*
X61382Y-23740D03*
X63748Y-5833D03*
X64746Y-13937D03*
X55266Y-23368D03*
X33924Y-23910D03*
X35364Y-25047D03*
X55164Y-28371D03*
X59488Y-23721D03*
G54D32*
X35576Y-19197D02*
X35576Y-23024D01*
X33687Y-17308D02*
X35576Y-19197D01*
X30811Y-17308D02*
X33687Y-17308D01*
X30654Y-17151D02*
X30811Y-17308D01*
X30654Y-12769D02*
X30654Y-17151D01*
X31301Y-12122D02*
X30654Y-12769D01*
X23851Y-10877D02*
X23851Y-12122D01*
X22001Y-9027D02*
X23851Y-10877D01*
X22001Y-4622D02*
X22001Y-9027D01*
X49198Y-11213D02*
X49198Y-8762D01*
X50639Y-12654D02*
X49198Y-11213D01*
X50639Y-15832D02*
X50639Y-12654D01*
X52943Y-18137D02*
X50639Y-15832D01*
X52943Y-19164D02*
X52943Y-18137D01*
X52256Y-19852D02*
X52943Y-19164D01*
X52256Y-24906D02*
X52256Y-19852D01*
X52644Y-25294D02*
X52256Y-24906D01*
X52644Y-25683D02*
X52644Y-25294D01*
X53890Y-26930D02*
X52644Y-25683D01*
X55094Y-26930D02*
X53890Y-26930D01*
X35050Y-24549D02*
X35576Y-24024D01*
X33693Y-24549D02*
X35050Y-24549D01*
X26081Y-16937D02*
X33693Y-24549D01*
X51648Y-10289D02*
X52364Y-9573D01*
X51648Y-11405D02*
X51648Y-10289D01*
X51384Y-11668D02*
X51648Y-11405D01*
X51384Y-16104D02*
X51384Y-11668D01*
X53184Y-17904D02*
X51384Y-16104D01*
X53184Y-19771D02*
X53184Y-17904D01*
X52569Y-20385D02*
X53184Y-19771D01*
X52569Y-24646D02*
X52569Y-20385D01*
X52635Y-24712D02*
X52569Y-24646D01*
X53004Y-25081D02*
X52635Y-24712D01*
X53004Y-25683D02*
X53004Y-25081D01*
X53935Y-26615D02*
X53004Y-25683D01*
X55094Y-26615D02*
X53935Y-26615D01*
X54154Y-26300D02*
X53973Y-26118D01*
X55094Y-26300D02*
X54154Y-26300D01*
X68126Y-24904D02*
X67681Y-24904D01*
X73061Y-19969D02*
X68126Y-24904D01*
X73061Y-18600D02*
X73061Y-19969D01*
X70483Y-16022D02*
X73061Y-18600D01*
X70483Y-11991D02*
X70483Y-16022D01*
X67890Y-9398D02*
X70483Y-11991D01*
X67890Y-5073D02*
X67890Y-9398D01*
X67376Y-4559D02*
X67890Y-5073D01*
X55094Y-25985D02*
X54560Y-25985D01*
X54111Y-25535D02*
X54560Y-25985D01*
X53383Y-25535D02*
X54111Y-25535D01*
X68131Y-3313D02*
X67376Y-2559D01*
X68131Y-3313D02*
X68131Y-3313D01*
X68131Y-9038D02*
X68131Y-3313D01*
X71255Y-12162D02*
X68131Y-9038D01*
X71255Y-15129D02*
X71255Y-12162D01*
X73308Y-17182D02*
X71255Y-15129D01*
X73308Y-20061D02*
X73308Y-17182D01*
X67779Y-25591D02*
X73308Y-20061D01*
X65741Y-25591D02*
X67779Y-25591D01*
X65506Y-25826D02*
X65741Y-25591D01*
X65223Y-25826D02*
X65506Y-25826D01*
X64001Y-24604D02*
X65223Y-25826D01*
X64001Y-24276D02*
X64001Y-24604D01*
X61329Y-21604D02*
X64001Y-24276D01*
X54741Y-21604D02*
X61329Y-21604D01*
X52813Y-23532D02*
X54741Y-21604D01*
X52813Y-24238D02*
X52813Y-23532D01*
X53383Y-24808D02*
X52813Y-24238D01*
X53383Y-25535D02*
X53383Y-24808D01*
X4051Y-9122D02*
X3516Y-9122D01*
X4051Y-19346D02*
X4051Y-24122D01*
X2224Y-17520D02*
X4051Y-19346D01*
X2224Y-13333D02*
X2224Y-17520D01*
X3516Y-12042D02*
X2224Y-13333D01*
X3516Y-9122D02*
X3516Y-12042D01*
X72501Y-9122D02*
X72501Y-8536D01*
X72060Y-3080D02*
X70601Y-1622D01*
X72060Y-4093D02*
X72060Y-3080D01*
X71977Y-4175D02*
X72060Y-4093D01*
X71977Y-8012D02*
X71977Y-4175D01*
X72501Y-8536D02*
X71977Y-8012D01*
X69481Y-1036D02*
X70066Y-1622D01*
X62342Y-1036D02*
X69481Y-1036D01*
X60729Y-2650D02*
X62342Y-1036D01*
X53285Y-2650D02*
X60729Y-2650D01*
X52376Y-3559D02*
X53285Y-2650D01*
X70601Y-1622D02*
X70066Y-1622D01*
X73960Y-10580D02*
X72501Y-9122D01*
X73960Y-11593D02*
X73960Y-10580D01*
X73877Y-11675D02*
X73960Y-11593D01*
X73877Y-13348D02*
X73877Y-11675D01*
X77151Y-16622D02*
X73877Y-13348D01*
X81770Y-9122D02*
X82801Y-9122D01*
X79481Y-6833D02*
X81770Y-9122D01*
X79481Y-4078D02*
X79481Y-6833D01*
X79565Y-3995D02*
X79481Y-4078D01*
X79565Y-3085D02*
X79565Y-3995D01*
X78101Y-1622D02*
X79565Y-3085D01*
X78101Y-1622D02*
X77566Y-1622D01*
X82341Y-10167D02*
X82801Y-9707D01*
X82341Y-11811D02*
X82341Y-10167D01*
X83149Y-12619D02*
X82341Y-11811D01*
X83149Y-14169D02*
X83149Y-12619D01*
X85601Y-16622D02*
X83149Y-14169D01*
X82801Y-9122D02*
X82801Y-9707D01*
X60878Y-556D02*
X59876Y-1559D01*
X76501Y-556D02*
X60878Y-556D01*
X77566Y-1622D02*
X76501Y-556D01*
X12877Y-13832D02*
X15666Y-16622D01*
X12877Y-12350D02*
X12877Y-13832D01*
X11820Y-11293D02*
X12877Y-12350D01*
X11820Y-10087D02*
X11820Y-11293D01*
X11685Y-9952D02*
X11820Y-10087D01*
X11685Y-5600D02*
X11685Y-9952D01*
X10153Y-4068D02*
X11685Y-5600D01*
X10153Y-2655D02*
X10153Y-4068D01*
X10601Y-2206D02*
X10153Y-2655D01*
X10601Y-1621D02*
X10601Y-2206D01*
X16201Y-16622D02*
X15934Y-16622D01*
X15934Y-16622D02*
X15666Y-16622D01*
X12966Y-23072D02*
X12501Y-23536D01*
X12966Y-19589D02*
X12966Y-23072D01*
X15934Y-16622D02*
X12966Y-19589D01*
X12501Y-24122D02*
X12501Y-23536D01*
X23701Y-16622D02*
X23166Y-16622D01*
X23166Y-19202D02*
X23166Y-16622D01*
X20001Y-22367D02*
X23166Y-19202D01*
X20001Y-24122D02*
X20001Y-22367D01*
X20874Y-12932D02*
X21199Y-12607D01*
X20874Y-14330D02*
X20874Y-12932D01*
X23166Y-16622D02*
X20874Y-14330D01*
X26240Y-2261D02*
X25601Y-1622D01*
X27460Y-2261D02*
X26240Y-2261D01*
X30208Y-5008D02*
X27460Y-2261D01*
X30208Y-8758D02*
X30208Y-5008D01*
X31787Y-10337D02*
X30208Y-8758D01*
X31787Y-16085D02*
X31787Y-10337D01*
X31201Y-16672D02*
X31787Y-16085D01*
X38701Y-16622D02*
X38166Y-16622D01*
X36465Y-10585D02*
X35001Y-9122D01*
X36465Y-11495D02*
X36465Y-10585D01*
X36390Y-11570D02*
X36465Y-11495D01*
X36390Y-14845D02*
X36390Y-11570D01*
X38166Y-16622D02*
X36390Y-14845D01*
X32647Y-2661D02*
X33101Y-2207D01*
X32647Y-4801D02*
X32647Y-2661D01*
X33654Y-5809D02*
X32647Y-4801D01*
X33654Y-8310D02*
X33654Y-5809D01*
X34466Y-9122D02*
X33654Y-8310D01*
X35001Y-9122D02*
X34466Y-9122D01*
X33101Y-1622D02*
X33101Y-2207D01*
X46201Y-16622D02*
X45666Y-16622D01*
X41186Y-2207D02*
X41171Y-2192D01*
X43099Y-2207D02*
X41186Y-2207D01*
X44285Y-1020D02*
X43099Y-2207D01*
X45081Y-1020D02*
X44285Y-1020D01*
X46274Y-2214D02*
X45081Y-1020D01*
X51721Y-2214D02*
X46274Y-2214D01*
X52376Y-1559D02*
X51721Y-2214D01*
X41171Y-2192D02*
X40601Y-1622D01*
X43965Y-10585D02*
X42501Y-9122D01*
X43965Y-11495D02*
X43965Y-10585D01*
X43890Y-11570D02*
X43965Y-11495D01*
X43890Y-14845D02*
X43890Y-11570D01*
X45666Y-16622D02*
X43890Y-14845D01*
X42501Y-9122D02*
X42501Y-8536D01*
X42487Y-8536D02*
X42501Y-8536D01*
X40562Y-6612D02*
X42487Y-8536D01*
X40229Y-6612D02*
X40562Y-6612D01*
X39487Y-5871D02*
X40229Y-6612D01*
X39487Y-3985D02*
X39487Y-5871D01*
X39948Y-3525D02*
X39487Y-3985D01*
X39948Y-3415D02*
X39948Y-3525D01*
X41171Y-2192D02*
X39948Y-3415D01*
X47271Y-24124D02*
X46736Y-24124D01*
X42367Y-19954D02*
X42367Y-16622D01*
X44125Y-21713D02*
X42367Y-19954D01*
X45126Y-21713D02*
X44125Y-21713D01*
X45342Y-21928D02*
X45126Y-21713D01*
X45342Y-22730D02*
X45342Y-21928D01*
X46736Y-24124D02*
X45342Y-22730D01*
X50001Y-9122D02*
X50001Y-8536D01*
X54564Y-15759D02*
X53701Y-16622D01*
X54564Y-10504D02*
X54564Y-15759D01*
X50424Y-6365D02*
X54564Y-10504D01*
X49801Y-6365D02*
X50424Y-6365D01*
X49658Y-6508D02*
X49801Y-6365D01*
X49658Y-8193D02*
X49658Y-6508D01*
X50001Y-8536D02*
X49658Y-8193D01*
X51443Y-3491D02*
X52376Y-2559D01*
X51443Y-5346D02*
X51443Y-3491D01*
X50424Y-6365D02*
X51443Y-5346D01*
X61201Y-16622D02*
X60666Y-16622D01*
X58890Y-14845D02*
X60666Y-16622D01*
X58890Y-11570D02*
X58890Y-14845D01*
X58965Y-11495D02*
X58890Y-11570D01*
X58965Y-10585D02*
X58965Y-11495D01*
X57501Y-9122D02*
X58965Y-10585D01*
X55939Y-9122D02*
X57501Y-9122D01*
X52376Y-5559D02*
X55939Y-9122D01*
X66390Y-10511D02*
X65001Y-9122D01*
X68316Y-10511D02*
X66390Y-10511D01*
X69561Y-11755D02*
X68316Y-10511D01*
X69561Y-15761D02*
X69561Y-11755D01*
X68701Y-16622D02*
X69561Y-15761D01*
X65001Y-9122D02*
X64466Y-9122D01*
X63101Y-1622D02*
X63101Y-2207D01*
X52404Y-4587D02*
X52376Y-4559D01*
X56476Y-4587D02*
X52404Y-4587D01*
X57065Y-3998D02*
X56476Y-4587D01*
X57065Y-3955D02*
X57065Y-3998D01*
X57977Y-3042D02*
X57065Y-3955D01*
X62641Y-3042D02*
X57977Y-3042D01*
X62641Y-4218D02*
X62641Y-3042D01*
X64466Y-6043D02*
X62641Y-4218D01*
X64466Y-9122D02*
X64466Y-6043D01*
X62641Y-2667D02*
X63101Y-2207D01*
X62641Y-3042D02*
X62641Y-2667D01*
X75301Y-24122D02*
X74766Y-24122D01*
X74006Y-16069D02*
X73619Y-15682D01*
X74006Y-23362D02*
X74006Y-16069D01*
X74766Y-24122D02*
X74006Y-23362D01*
X80221Y-2207D02*
X79636Y-1622D01*
X86601Y-2207D02*
X80221Y-2207D01*
X86601Y-1622D02*
X86601Y-2207D01*
X79101Y-1622D02*
X79636Y-1622D01*
X50221Y-1036D02*
X49636Y-1622D01*
X56601Y-1036D02*
X50221Y-1036D01*
X49101Y-1622D02*
X49369Y-1622D01*
X49369Y-1622D02*
X49636Y-1622D01*
X42978Y-780D02*
X42136Y-1622D01*
X48527Y-780D02*
X42978Y-780D01*
X49369Y-1622D02*
X48527Y-780D01*
X41601Y-1622D02*
X42136Y-1622D01*
X34101Y-1622D02*
X34636Y-1622D01*
X56601Y-1622D02*
X56601Y-1036D01*
X41601Y-1622D02*
X41601Y-1036D01*
X71601Y-1622D02*
X71601Y-1036D01*
X56601Y-1622D02*
X57136Y-1622D01*
X33258Y-194D02*
X34101Y-1036D01*
X28564Y-194D02*
X33258Y-194D01*
X27136Y-1622D02*
X28564Y-194D01*
X26601Y-1622D02*
X27136Y-1622D01*
X34101Y-1622D02*
X34101Y-1036D01*
X34636Y-1622D02*
X36835Y-1622D01*
X37420Y-1036D02*
X36835Y-1622D01*
X41601Y-1036D02*
X37420Y-1036D01*
X36835Y-5017D02*
X37376Y-5559D01*
X36835Y-1622D02*
X36835Y-5017D01*
X57602Y-2087D02*
X57136Y-1622D01*
X60931Y-2087D02*
X57602Y-2087D01*
X62222Y-796D02*
X60931Y-2087D01*
X71361Y-796D02*
X62222Y-796D01*
X71601Y-1036D02*
X71361Y-796D01*
X34280Y-6715D02*
X34280Y-5768D01*
X36001Y-8436D02*
X34280Y-6715D01*
X36001Y-9122D02*
X36001Y-8436D01*
X84701Y-17207D02*
X86601Y-17207D01*
X84701Y-16622D02*
X84701Y-17207D01*
X86601Y-16622D02*
X86601Y-17207D01*
X76201Y-17207D02*
X78151Y-17207D01*
X76201Y-16622D02*
X76201Y-17207D01*
X78151Y-16622D02*
X78151Y-17207D01*
X55821Y-17207D02*
X62201Y-17207D01*
X55236Y-16622D02*
X55821Y-17207D01*
X54701Y-16622D02*
X55236Y-16622D01*
X62201Y-16622D02*
X62201Y-17207D01*
X47201Y-16622D02*
X47201Y-17207D01*
X38923Y-5106D02*
X37376Y-3559D01*
X38923Y-5652D02*
X38923Y-5106D01*
X41809Y-8538D02*
X38923Y-5652D01*
X41809Y-11356D02*
X41809Y-8538D01*
X43325Y-12872D02*
X41809Y-11356D01*
X43325Y-14777D02*
X43325Y-12872D01*
X45754Y-17207D02*
X43325Y-14777D01*
X47201Y-17207D02*
X45754Y-17207D01*
X85651Y-24088D02*
X85651Y-24122D01*
X85096Y-23533D02*
X85651Y-24088D01*
X77425Y-23533D02*
X85096Y-23533D01*
X76836Y-24122D02*
X77425Y-23533D01*
X76301Y-24122D02*
X76836Y-24122D01*
X46681Y-22464D02*
X46681Y-23030D01*
X42966Y-18749D02*
X46681Y-22464D01*
X42966Y-15097D02*
X42966Y-18749D01*
X39561Y-11692D02*
X42966Y-15097D01*
X39561Y-6744D02*
X39561Y-11692D01*
X37376Y-4559D02*
X39561Y-6744D01*
X58983Y-23136D02*
X58983Y-23069D01*
X58919Y-23200D02*
X58983Y-23136D01*
X58919Y-23735D02*
X58919Y-23200D01*
X44985Y-22670D02*
X44985Y-22076D01*
X38321Y-29334D02*
X44985Y-22670D01*
X37637Y-29334D02*
X38321Y-29334D01*
X37111Y-28809D02*
X37637Y-29334D01*
X32586Y-27283D02*
X34111Y-28809D01*
X27648Y-27283D02*
X32586Y-27283D01*
X23033Y-22669D02*
X27648Y-27283D01*
X58604Y-23121D02*
X58604Y-23735D01*
X58309Y-22827D02*
X58604Y-23121D01*
X58309Y-22729D02*
X58309Y-22827D01*
X57831Y-22251D02*
X58309Y-22729D01*
X3226Y-6922D02*
X2891Y-6922D01*
X8226Y-25104D02*
X8226Y-27122D01*
X7851Y-24729D02*
X8226Y-25104D01*
X1973Y-7839D02*
X2891Y-6922D01*
X1973Y-19847D02*
X1973Y-7839D01*
X2703Y-20577D02*
X1973Y-19847D01*
X2703Y-23807D02*
X2703Y-20577D01*
X3624Y-24729D02*
X2703Y-23807D01*
X7851Y-24729D02*
X3624Y-24729D01*
X6801Y-13609D02*
X7136Y-13609D01*
X7446Y-13919D02*
X7136Y-13609D01*
X7446Y-18970D02*
X7446Y-13919D01*
X7289Y-19128D02*
X7446Y-18970D01*
X7289Y-21142D02*
X7289Y-19128D01*
X7558Y-21411D02*
X7289Y-21142D01*
X7851Y-21411D02*
X7558Y-21411D01*
X7851Y-21747D02*
X7851Y-21411D01*
X53170Y-23965D02*
X54560Y-25355D01*
X53170Y-23686D02*
X53170Y-23965D01*
X55094Y-25355D02*
X54560Y-25355D01*
X7851Y-23499D02*
X8749Y-23499D01*
X7851Y-21747D02*
X7851Y-23499D01*
X7851Y-23499D02*
X7851Y-24729D01*
X88726Y-27122D02*
X88726Y-26686D01*
X57029Y-28235D02*
X57029Y-28769D01*
X86486Y-24446D02*
X88726Y-26686D01*
X72601Y-6747D02*
X72601Y-7082D01*
X76726Y-11206D02*
X76726Y-12122D01*
X72601Y-7082D02*
X76726Y-11206D01*
X76726Y-12122D02*
X77061Y-12122D01*
X80914Y-20060D02*
X80476Y-19622D01*
X81571Y-20060D02*
X80914Y-20060D01*
X81571Y-16632D02*
X81571Y-20060D01*
X77061Y-12122D02*
X81571Y-16632D01*
X86486Y-24109D02*
X86486Y-24446D01*
X82437Y-20060D02*
X86486Y-24109D01*
X81571Y-20060D02*
X82437Y-20060D01*
X85836Y-25096D02*
X86486Y-24446D01*
X69507Y-25096D02*
X85836Y-25096D01*
X65038Y-29564D02*
X69507Y-25096D01*
X57789Y-29564D02*
X65038Y-29564D01*
X57029Y-28804D02*
X57789Y-29564D01*
X57029Y-28769D02*
X57029Y-28804D01*
X85626Y-21822D02*
X85626Y-22257D01*
X57344Y-28235D02*
X57344Y-28769D01*
X64769Y-29324D02*
X67299Y-26793D01*
X57899Y-29324D02*
X64769Y-29324D01*
X57344Y-28769D02*
X57899Y-29324D01*
X84161Y-13121D02*
X84226Y-13186D01*
X84161Y-11599D02*
X84161Y-13121D01*
X84341Y-11418D02*
X84161Y-11599D01*
X84341Y-8833D02*
X84341Y-11418D01*
X82254Y-6747D02*
X84341Y-8833D01*
X80101Y-6747D02*
X82254Y-6747D01*
X84226Y-13404D02*
X84226Y-13186D01*
X84226Y-13404D02*
X84226Y-13622D01*
X85626Y-22377D02*
X85621Y-22382D01*
X85626Y-22257D02*
X85626Y-22377D01*
X84226Y-13622D02*
X84561Y-13622D01*
X86634Y-22257D02*
X85626Y-22257D01*
X86742Y-22149D02*
X86634Y-22257D01*
X86742Y-21827D02*
X86742Y-22149D01*
X88614Y-19955D02*
X86742Y-21827D01*
X88614Y-17825D02*
X88614Y-19955D01*
X86670Y-15882D02*
X88614Y-17825D01*
X86532Y-15882D02*
X86670Y-15882D01*
X84561Y-13911D02*
X86532Y-15882D01*
X84561Y-13622D02*
X84561Y-13911D01*
X87601Y-14873D02*
X87030Y-15444D01*
X87601Y-6997D02*
X87601Y-14873D01*
X73649Y-20084D02*
X73649Y-16233D01*
X67680Y-26053D02*
X73649Y-20084D01*
X67442Y-26053D02*
X67680Y-26053D01*
X64411Y-29084D02*
X67442Y-26053D01*
X58190Y-29084D02*
X64411Y-29084D01*
X57659Y-28553D02*
X58190Y-29084D01*
X57659Y-28235D02*
X57659Y-28553D01*
X12601Y-6747D02*
X12601Y-7082D01*
X20226Y-19622D02*
X19891Y-19622D01*
X55094Y-25670D02*
X55628Y-25670D01*
X16726Y-27122D02*
X17061Y-27122D01*
X17173Y-27122D02*
X17179Y-27115D01*
X17061Y-27122D02*
X17173Y-27122D01*
X13726Y-11733D02*
X13726Y-13872D01*
X13965Y-11495D02*
X13726Y-11733D01*
X13965Y-10745D02*
X13965Y-11495D01*
X13228Y-10008D02*
X13965Y-10745D01*
X12350Y-10008D02*
X13228Y-10008D01*
X11959Y-9617D02*
X12350Y-10008D01*
X11959Y-7724D02*
X11959Y-9617D01*
X12601Y-7082D02*
X11959Y-7724D01*
X19891Y-18492D02*
X19891Y-19622D01*
X16766Y-15367D02*
X19891Y-18492D01*
X15264Y-15367D02*
X16766Y-15367D01*
X14061Y-14165D02*
X15264Y-15367D01*
X14061Y-13872D02*
X14061Y-14165D01*
X13726Y-13872D02*
X14061Y-13872D01*
X19080Y-20767D02*
X19080Y-24853D01*
X19891Y-19957D02*
X19080Y-20767D01*
X19891Y-19622D02*
X19891Y-19957D01*
X55628Y-26324D02*
X55754Y-26449D01*
X55628Y-25670D02*
X55628Y-26324D01*
X55769Y-23735D02*
X55769Y-24269D01*
X27726Y-19622D02*
X27893Y-19622D01*
X27893Y-19622D02*
X28061Y-19622D01*
X23891Y-26786D02*
X23891Y-27122D01*
X22661Y-25556D02*
X23891Y-26786D01*
X22661Y-22535D02*
X22661Y-25556D01*
X22917Y-22278D02*
X22661Y-22535D01*
X25237Y-22278D02*
X22917Y-22278D01*
X27893Y-19622D02*
X25237Y-22278D01*
X24226Y-27122D02*
X23891Y-27122D01*
X28061Y-19622D02*
X30527Y-22087D01*
X20101Y-6747D02*
X20101Y-7082D01*
X21226Y-13872D02*
X21561Y-13872D01*
X22997Y-14006D02*
X22949Y-14053D01*
X22997Y-10569D02*
X22997Y-14006D01*
X21631Y-9203D02*
X22997Y-10569D01*
X21631Y-8612D02*
X21631Y-9203D01*
X20101Y-7082D02*
X21631Y-8612D01*
X22696Y-14307D02*
X22949Y-14053D01*
X21703Y-14307D02*
X22696Y-14307D01*
X21561Y-14165D02*
X21703Y-14307D01*
X21561Y-13872D02*
X21561Y-14165D01*
X27726Y-19087D02*
X27726Y-19622D01*
X25724Y-17085D02*
X27726Y-19087D01*
X25724Y-16827D02*
X25724Y-17085D01*
X22949Y-14053D02*
X25724Y-16827D01*
X55666Y-24269D02*
X55239Y-23842D01*
X55769Y-24269D02*
X55666Y-24269D01*
X27601Y-6747D02*
X27601Y-7082D01*
X28726Y-11733D02*
X28726Y-13872D01*
X29039Y-11420D02*
X28726Y-11733D01*
X29039Y-8520D02*
X29039Y-11420D01*
X27601Y-7082D02*
X29039Y-8520D01*
X28726Y-13872D02*
X28726Y-14307D01*
X33672Y-17633D02*
X35226Y-19186D01*
X30796Y-17633D02*
X33672Y-17633D01*
X28726Y-15563D02*
X30796Y-17633D01*
X28726Y-14307D02*
X28726Y-15563D01*
X28726Y-14307D02*
X28726Y-14307D01*
X35226Y-19404D02*
X35226Y-19186D01*
X35226Y-19404D02*
X35226Y-19622D01*
X35226Y-20965D02*
X35200Y-20990D01*
X35226Y-19622D02*
X35226Y-20965D01*
X48792Y-22286D02*
X48792Y-21739D01*
X51786Y-25280D02*
X48792Y-22286D01*
X51786Y-27925D02*
X51786Y-25280D01*
X52929Y-29069D02*
X51786Y-27925D01*
X55839Y-29069D02*
X52929Y-29069D01*
X56084Y-28824D02*
X55839Y-29069D01*
X56084Y-28235D02*
X56084Y-28824D01*
X39226Y-11206D02*
X39226Y-12122D01*
X35101Y-7082D02*
X39226Y-11206D01*
X35101Y-6747D02*
X35101Y-7082D01*
X39226Y-12122D02*
X39561Y-12122D01*
X42726Y-15286D02*
X42726Y-19622D01*
X39561Y-12122D02*
X42726Y-15286D01*
X42726Y-19622D02*
X43061Y-19622D01*
X43375Y-19622D02*
X43061Y-19622D01*
X45582Y-21829D02*
X43375Y-19622D01*
X45582Y-22436D02*
X45582Y-21829D01*
X46538Y-23392D02*
X45582Y-22436D01*
X48365Y-23392D02*
X46538Y-23392D01*
X50811Y-25838D02*
X48365Y-23392D01*
X50811Y-27433D02*
X50811Y-25838D01*
X52699Y-29321D02*
X50811Y-27433D01*
X55962Y-29321D02*
X52699Y-29321D01*
X56399Y-28884D02*
X55962Y-29321D01*
X56399Y-28235D02*
X56399Y-28884D01*
X48951Y-21109D02*
X48616Y-21109D01*
X46726Y-12122D02*
X46391Y-12122D01*
X46391Y-10871D02*
X46391Y-12122D01*
X42601Y-7082D02*
X46391Y-10871D01*
X42601Y-6747D02*
X42601Y-7082D01*
X51226Y-27122D02*
X51226Y-26686D01*
X51226Y-26686D02*
X51364Y-26548D01*
X56714Y-28909D02*
X56714Y-28235D01*
X56061Y-29562D02*
X56714Y-28909D01*
X52054Y-29562D02*
X56061Y-29562D01*
X49926Y-27433D02*
X52054Y-29562D01*
X48398Y-22232D02*
X48398Y-21558D01*
X51364Y-25198D02*
X48398Y-22232D01*
X51364Y-26548D02*
X51364Y-25198D01*
X47974Y-21558D02*
X48398Y-21558D01*
X47591Y-21175D02*
X47974Y-21558D01*
X47591Y-19068D02*
X47591Y-21175D01*
X47742Y-18917D02*
X47591Y-19068D01*
X47742Y-16355D02*
X47742Y-18917D01*
X46391Y-15004D02*
X47742Y-16355D01*
X46391Y-12122D02*
X46391Y-15004D01*
X48616Y-21378D02*
X48616Y-21109D01*
X48436Y-21558D02*
X48616Y-21378D01*
X48398Y-21558D02*
X48436Y-21558D01*
X54226Y-12122D02*
X53891Y-12122D01*
X53891Y-12457D02*
X53891Y-12122D01*
X53166Y-13181D02*
X53891Y-12457D01*
X53166Y-17132D02*
X53166Y-13181D01*
X53711Y-17676D02*
X53166Y-17132D01*
X55987Y-17676D02*
X53711Y-17676D01*
X57726Y-19415D02*
X55987Y-17676D01*
X57726Y-19572D02*
X57726Y-19415D01*
X50101Y-6747D02*
X50101Y-7082D01*
X57726Y-19622D02*
X57726Y-19609D01*
X57726Y-19609D02*
X57726Y-19572D01*
X64097Y-27883D02*
X64097Y-26356D01*
X63136Y-28844D02*
X64097Y-27883D01*
X58364Y-28844D02*
X63136Y-28844D01*
X58289Y-28769D02*
X58364Y-28844D01*
X64571Y-23612D02*
X64571Y-24586D01*
X60568Y-19609D02*
X64571Y-23612D01*
X57726Y-19609D02*
X60568Y-19609D01*
X58289Y-28235D02*
X58289Y-28769D01*
X50378Y-7082D02*
X50101Y-7082D01*
X53891Y-10595D02*
X50378Y-7082D01*
X53891Y-12122D02*
X53891Y-10595D01*
X44828Y-25081D02*
X49216Y-25081D01*
X40334Y-29575D02*
X44828Y-25081D01*
X35877Y-29575D02*
X40334Y-29575D01*
X35111Y-28809D02*
X35877Y-29575D01*
X58289Y-24570D02*
X58130Y-24728D01*
X58289Y-23735D02*
X58289Y-24570D01*
X65226Y-19622D02*
X65116Y-19622D01*
X65116Y-15176D02*
X62061Y-12122D01*
X65116Y-19622D02*
X65116Y-15176D01*
X61726Y-12122D02*
X62061Y-12122D01*
X61391Y-10871D02*
X61391Y-12122D01*
X57601Y-7082D02*
X61391Y-10871D01*
X57601Y-6747D02*
X57601Y-7082D01*
X61726Y-12122D02*
X61391Y-12122D01*
X64989Y-19749D02*
X65116Y-19622D01*
X64989Y-25075D02*
X64989Y-19749D01*
X72726Y-19622D02*
X72726Y-19186D01*
X69226Y-12122D02*
X68891Y-12122D01*
X65101Y-6747D02*
X65101Y-7082D01*
X70755Y-17215D02*
X72726Y-19186D01*
X70243Y-17215D02*
X70755Y-17215D01*
X68266Y-17215D02*
X70243Y-17215D01*
X68166Y-17115D02*
X68266Y-17215D01*
X68166Y-13181D02*
X68166Y-17115D01*
X68891Y-12457D02*
X68166Y-13181D01*
X68891Y-12122D02*
X68891Y-12457D01*
X60315Y-23177D02*
X60398Y-23094D01*
X60315Y-24223D02*
X60315Y-23177D01*
X60128Y-24410D02*
X60315Y-24223D01*
X59594Y-24410D02*
X60128Y-24410D01*
X72726Y-19622D02*
X72391Y-19622D01*
X79476Y-27122D02*
X79141Y-27122D01*
X73608Y-26908D02*
X72791Y-26090D01*
X75250Y-26908D02*
X73608Y-26908D01*
X76075Y-27732D02*
X75250Y-26908D01*
X78824Y-27732D02*
X76075Y-27732D01*
X79141Y-27415D02*
X78824Y-27732D01*
X79141Y-27122D02*
X79141Y-27415D01*
X68061Y-24216D02*
X68061Y-24377D01*
X72391Y-19887D02*
X68061Y-24216D01*
X72391Y-19622D02*
X72391Y-19887D01*
X67178Y-24216D02*
X66056Y-23094D01*
X68061Y-24216D02*
X67178Y-24216D01*
X70243Y-12095D02*
X70243Y-17215D01*
X65229Y-7082D02*
X70243Y-12095D01*
X65101Y-7082D02*
X65229Y-7082D01*
X46891Y-6332D02*
X47601Y-5622D01*
X40811Y-6332D02*
X46891Y-6332D01*
X40101Y-5622D02*
X40811Y-6332D01*
X55811Y-6332D02*
X61891Y-6332D01*
X55101Y-5622D02*
X55811Y-6332D01*
X61891Y-6332D02*
X62601Y-5622D01*
X65565Y-25243D02*
X65358Y-25450D01*
X65565Y-15262D02*
X65565Y-25243D01*
X61891Y-11587D02*
X65565Y-15262D01*
X61891Y-6332D02*
X61891Y-11587D01*
X59594Y-26300D02*
X59060Y-26300D01*
X59060Y-25879D02*
X58940Y-25759D01*
X59060Y-26300D02*
X59060Y-25879D01*
X52404Y-25962D02*
X53047Y-26605D01*
X52404Y-25543D02*
X52404Y-25962D01*
X52015Y-25154D02*
X52404Y-25543D01*
X52015Y-19612D02*
X52015Y-25154D01*
X52703Y-18924D02*
X52015Y-19612D01*
X52703Y-18277D02*
X52703Y-18924D01*
X49501Y-15076D02*
X52703Y-18277D01*
X49501Y-13122D02*
X49501Y-15076D01*
X59594Y-26615D02*
X59060Y-26615D01*
X58859Y-26615D02*
X58819Y-26655D01*
X59060Y-26615D02*
X58859Y-26615D01*
X60701Y-20622D02*
X53201Y-20622D01*
X59594Y-26930D02*
X59060Y-26930D01*
X59060Y-26994D02*
X58925Y-27129D01*
X59060Y-26930D02*
X59060Y-26994D01*
X59594Y-27245D02*
X60128Y-27245D01*
X60128Y-27422D02*
X60253Y-27547D01*
X60128Y-27245D02*
X60128Y-27422D01*
X12263Y-17223D02*
X12263Y-17993D01*
X61871Y-24009D02*
X61871Y-24444D01*
X32289Y-27987D02*
X33111Y-28809D01*
X20686Y-27987D02*
X32289Y-27987D01*
X19316Y-26617D02*
X20686Y-27987D01*
X16755Y-26617D02*
X19316Y-26617D01*
X15276Y-25138D02*
X16755Y-26617D01*
X12115Y-25138D02*
X15276Y-25138D01*
X11652Y-24675D02*
X12115Y-25138D01*
X11652Y-18605D02*
X11652Y-24675D01*
X12263Y-17993D02*
X11652Y-18605D01*
X61939Y-24444D02*
X62161Y-24666D01*
X61871Y-24444D02*
X61939Y-24444D01*
X59594Y-24725D02*
X60128Y-24725D01*
X60187Y-24666D02*
X60391Y-24666D01*
X60128Y-24725D02*
X60187Y-24666D01*
X63710Y-27757D02*
X62993Y-28474D01*
X63710Y-24767D02*
X63710Y-27757D01*
X63644Y-24701D02*
X63710Y-24767D01*
G54D33*
X14801Y-1672D02*
X14801Y-3772D01*
X13001Y-7822D02*
X14801Y-6022D01*
X14801Y-6022D02*
X14801Y-3772D01*
X8651Y-14722D02*
X8651Y-9597D01*
X10688Y-14722D02*
X8651Y-14722D01*
X4501Y-14722D02*
X4501Y-12422D01*
X61615Y-27547D02*
X61711Y-27547D01*
X61376Y-27786D02*
X61615Y-27547D01*
X61376Y-28109D02*
X61376Y-27786D01*
X61711Y-27092D02*
X61711Y-27547D01*
X61711Y-27092D02*
X62118Y-27092D01*
X5976Y-6922D02*
X6331Y-6922D01*
X38111Y-24559D02*
X36576Y-23024D01*
X38111Y-28809D02*
X38111Y-24559D01*
X55094Y-27245D02*
X55648Y-27245D01*
X61184Y-28109D02*
X61376Y-28109D01*
X61184Y-28109D02*
X61021Y-28109D01*
X63371Y-27409D02*
X63371Y-26953D01*
X61021Y-25209D02*
X60842Y-25209D01*
X61081Y-26226D02*
X61081Y-25770D01*
X63343Y-26142D02*
X63343Y-26925D01*
X63371Y-26114D02*
X63343Y-26142D01*
X63371Y-26953D02*
X63343Y-26925D01*
X62284Y-26925D02*
X62118Y-27092D01*
X63343Y-26925D02*
X62284Y-26925D01*
X53549Y-28005D02*
X53376Y-28178D01*
X53549Y-27659D02*
X53549Y-28005D01*
X53376Y-28633D02*
X53376Y-28178D01*
X60721Y-23659D02*
X60721Y-24114D01*
X59594Y-25355D02*
X60148Y-25355D01*
X60842Y-25355D02*
X60148Y-25355D01*
X60842Y-25209D02*
X60842Y-25355D01*
X60842Y-25531D02*
X61081Y-25770D01*
X60842Y-25355D02*
X60842Y-25531D01*
X10688Y-11634D02*
X10688Y-14722D01*
X10688Y-14722D02*
X10688Y-17223D01*
X6331Y-7277D02*
X6888Y-7834D01*
X6888Y-7834D02*
X10688Y-11634D01*
X6331Y-6922D02*
X6331Y-7277D01*
X6600Y-29472D02*
X351Y-29472D01*
X10311Y-25760D02*
X6600Y-29472D01*
X10311Y-18390D02*
X10311Y-25760D01*
X10688Y-18013D02*
X10311Y-18390D01*
X10688Y-17223D02*
X10688Y-18013D01*
X53771Y-23684D02*
X53771Y-24139D01*
X61021Y-24414D02*
X60721Y-24114D01*
X61021Y-25209D02*
X61021Y-24414D01*
X63371Y-25886D02*
X63371Y-26114D01*
X63371Y-25886D02*
X63371Y-25659D01*
X60790Y-23589D02*
X60721Y-23659D01*
X60790Y-23261D02*
X60790Y-23589D01*
X7795Y-1898D02*
X7795Y-2449D01*
X6796Y-899D02*
X7795Y-1898D01*
X6796Y-445D02*
X6796Y-899D01*
X6331Y-5866D02*
X6331Y-6922D01*
X7059Y-5139D02*
X6331Y-5866D01*
X8587Y-5139D02*
X7059Y-5139D01*
X8681Y-5045D02*
X8587Y-5139D01*
X8681Y-4137D02*
X8681Y-5045D01*
X7795Y-3251D02*
X8681Y-4137D01*
X7795Y-2449D02*
X7795Y-3251D01*
X54357Y-24725D02*
X53771Y-24139D01*
X55094Y-24725D02*
X54357Y-24725D01*
X53771Y-23684D02*
X53771Y-23229D01*
X56995Y-23146D02*
X56995Y-22513D01*
X57029Y-23180D02*
X56995Y-23146D01*
X57029Y-23735D02*
X57029Y-23180D01*
X35935Y-13352D02*
X35935Y-21634D01*
X34016Y-11432D02*
X35935Y-13352D01*
X34016Y-10435D02*
X34016Y-11432D01*
X30742Y-7161D02*
X34016Y-10435D01*
X30742Y-1325D02*
X30742Y-7161D01*
X29976Y-559D02*
X30742Y-1325D01*
X36576Y-22275D02*
X35935Y-21634D01*
X36576Y-23024D02*
X36576Y-22275D01*
X63267Y-25100D02*
X63371Y-25203D01*
X63267Y-23932D02*
X63267Y-25100D01*
X62596Y-23261D02*
X63267Y-23932D01*
X60790Y-23261D02*
X62596Y-23261D01*
X63371Y-25659D02*
X63371Y-25203D01*
X60790Y-22932D02*
X60790Y-23261D01*
X59726Y-21868D02*
X60790Y-22932D01*
X57641Y-21868D02*
X59726Y-21868D01*
X56995Y-22513D02*
X57641Y-21868D01*
X53021Y-28628D02*
X53021Y-28633D01*
X52911Y-28518D02*
X53021Y-28628D01*
X53376Y-28633D02*
X53021Y-28633D01*
X56782Y-22301D02*
X56995Y-22513D01*
X54699Y-22301D02*
X56782Y-22301D01*
X53771Y-23229D02*
X54699Y-22301D01*
X57029Y-26377D02*
X57029Y-23735D01*
X56133Y-27273D02*
X57029Y-26377D01*
X55677Y-27273D02*
X56133Y-27273D01*
X55648Y-27245D02*
X55677Y-27273D01*
X53371Y-27659D02*
X53460Y-27659D01*
X53460Y-27659D02*
X53549Y-27659D01*
X54499Y-27203D02*
X54540Y-27245D01*
X53858Y-27203D02*
X54499Y-27203D01*
X53460Y-27602D02*
X53858Y-27203D01*
X53460Y-27659D02*
X53460Y-27602D01*
X55094Y-27245D02*
X54540Y-27245D01*
X58919Y-28235D02*
X58919Y-27680D01*
X59027Y-27680D02*
X59282Y-27935D01*
X58919Y-27680D02*
X59027Y-27680D01*
G54D32*
X62621Y-25659D02*
X62286Y-25659D01*
X61711Y-26226D02*
X62098Y-26226D01*
X60276Y-25670D02*
X59594Y-25670D01*
X60569Y-25963D02*
X60276Y-25670D01*
X62286Y-25659D02*
X62286Y-26161D01*
X62162Y-26161D02*
X62286Y-26161D01*
X62098Y-26226D02*
X62162Y-26161D01*
X62423Y-26161D02*
X62491Y-26229D01*
X62286Y-26161D02*
X62423Y-26161D01*
X80101Y-4622D02*
X80101Y-5997D01*
X3286Y-17207D02*
X2701Y-16622D01*
X6901Y-17207D02*
X3286Y-17207D01*
X6901Y-16622D02*
X6901Y-17207D01*
X12601Y-4622D02*
X12601Y-5997D01*
X6850Y-3922D02*
X6850Y-2449D01*
X7376Y-4448D02*
X6850Y-3922D01*
X7376Y-4784D02*
X7376Y-4448D01*
X61081Y-27092D02*
X60694Y-27092D01*
X60694Y-27092D02*
X60680Y-27092D01*
X60694Y-27092D02*
X60694Y-27092D01*
X62621Y-28381D02*
X62621Y-27409D01*
X62406Y-28597D02*
X62621Y-28381D01*
X60830Y-28597D02*
X62406Y-28597D01*
X60680Y-28447D02*
X60830Y-28597D01*
X60680Y-27092D02*
X60680Y-28447D01*
X60128Y-26540D02*
X60128Y-25985D01*
X60680Y-27092D02*
X60128Y-26540D01*
X59594Y-25985D02*
X60128Y-25985D01*
X7165Y-3387D02*
X7165Y-2449D01*
X8226Y-4448D02*
X7165Y-3387D01*
X8226Y-4784D02*
X8226Y-4448D01*
X22468Y-27747D02*
X22781Y-27434D01*
X20786Y-27747D02*
X22468Y-27747D01*
X18996Y-25957D02*
X20786Y-27747D01*
X18996Y-25906D02*
X18996Y-25957D01*
X17868Y-24778D02*
X18996Y-25906D01*
X12094Y-24778D02*
X17868Y-24778D01*
X11892Y-24575D02*
X12094Y-24778D01*
X11892Y-19718D02*
X11892Y-24575D01*
X12624Y-18986D02*
X11892Y-19718D01*
X12624Y-12872D02*
X12624Y-18986D01*
X11513Y-11762D02*
X12624Y-12872D01*
X11513Y-10629D02*
X11513Y-11762D01*
X7376Y-6492D02*
X11513Y-10629D01*
X7376Y-5534D02*
X7376Y-6492D01*
X56399Y-26474D02*
X55977Y-26896D01*
X56399Y-23735D02*
X56399Y-26474D01*
X57481Y-23200D02*
X57860Y-22821D01*
X57344Y-23200D02*
X57481Y-23200D01*
X57344Y-23735D02*
X57344Y-23200D01*
X59971Y-23659D02*
X59971Y-23223D01*
X59426Y-22679D02*
X58692Y-22679D01*
X59971Y-23223D02*
X59426Y-22679D01*
X32085Y-21139D02*
X32085Y-21191D01*
X30931Y-19985D02*
X32085Y-21139D01*
X30362Y-19985D02*
X30931Y-19985D01*
X24552Y-14174D02*
X30362Y-19985D01*
X24552Y-6260D02*
X24552Y-14174D01*
X19305Y-1014D02*
X24552Y-6260D01*
X10153Y-1014D02*
X19305Y-1014D01*
X9705Y-1461D02*
X10153Y-1014D01*
X9705Y-4490D02*
X9705Y-1461D01*
X8661Y-5534D02*
X9705Y-4490D01*
X56710Y-23200D02*
X56714Y-23200D01*
X56187Y-22678D02*
X56710Y-23200D01*
X56714Y-23735D02*
X56714Y-23200D01*
X8226Y-5534D02*
X8661Y-5534D01*
X55769Y-28235D02*
X55769Y-28769D01*
X54126Y-28633D02*
X54461Y-28633D01*
X54596Y-28769D02*
X54461Y-28633D01*
X55769Y-28769D02*
X54596Y-28769D01*
X40701Y-19622D02*
X41976Y-19622D01*
X3976Y-5717D02*
X3976Y-6922D01*
X4016Y-5677D02*
X3976Y-5717D01*
X52001Y-12122D02*
X53476Y-12122D01*
X55701Y-19622D02*
X56976Y-19622D01*
X50101Y-4622D02*
X50101Y-5997D01*
X35101Y-4622D02*
X35101Y-5997D01*
X74501Y-12122D02*
X75976Y-12122D01*
X72601Y-4622D02*
X72601Y-5997D01*
X67001Y-12122D02*
X68476Y-12122D01*
X70701Y-19622D02*
X71976Y-19622D01*
X37001Y-12122D02*
X38476Y-12122D01*
X63201Y-19622D02*
X64476Y-19622D01*
X59501Y-12122D02*
X60976Y-12122D01*
X65101Y-4622D02*
X65101Y-5997D01*
X57601Y-4622D02*
X57601Y-5997D01*
X42601Y-4622D02*
X42601Y-5997D01*
X22046Y-27077D02*
X22001Y-27122D01*
X23096Y-27077D02*
X22046Y-27077D01*
X23141Y-27122D02*
X23096Y-27077D01*
X23476Y-27122D02*
X23141Y-27122D01*
X14501Y-27122D02*
X15976Y-27122D01*
X25701Y-19622D02*
X26976Y-19622D01*
X21976Y-12147D02*
X21976Y-13872D01*
X22001Y-12122D02*
X21976Y-12147D01*
X18201Y-19622D02*
X19476Y-19622D01*
X14476Y-12147D02*
X14476Y-13872D01*
X14501Y-12122D02*
X14476Y-12147D01*
X6051Y-12122D02*
X6051Y-13609D01*
X20101Y-4622D02*
X20101Y-5997D01*
X33201Y-19622D02*
X34476Y-19622D01*
X29476Y-12147D02*
X29476Y-13872D01*
X29501Y-12122D02*
X29476Y-12147D01*
X27601Y-4622D02*
X27601Y-5997D01*
X49147Y-27076D02*
X49101Y-27122D01*
X50095Y-27076D02*
X49147Y-27076D01*
X50141Y-27122D02*
X50095Y-27076D01*
X50476Y-27122D02*
X50141Y-27122D01*
X48201Y-19622D02*
X48201Y-21109D01*
X48201Y-19622D02*
X48201Y-19622D01*
X44501Y-12122D02*
X45976Y-12122D01*
X7851Y-19672D02*
X7851Y-20997D01*
X7901Y-19622D02*
X7851Y-19672D01*
X80891Y-19328D02*
X80891Y-19622D01*
X80737Y-19175D02*
X80891Y-19328D01*
X79597Y-19175D02*
X80737Y-19175D01*
X79151Y-19622D02*
X79597Y-19175D01*
X81226Y-19622D02*
X80891Y-19622D01*
X86701Y-21061D02*
X86376Y-21386D01*
X86701Y-19622D02*
X86701Y-21061D01*
X86376Y-21822D02*
X86376Y-21386D01*
X6051Y-27122D02*
X7476Y-27122D01*
X87601Y-4622D02*
X87601Y-6247D01*
X86651Y-27122D02*
X87976Y-27122D01*
X77301Y-27122D02*
X78726Y-27122D01*
X84976Y-12297D02*
X84976Y-13622D01*
X84801Y-12122D02*
X84976Y-12297D01*
G54D33*
X54476Y-27623D02*
X54540Y-27560D01*
X54476Y-27659D02*
X54476Y-27623D01*
X55094Y-27560D02*
X54540Y-27560D01*
X54121Y-27659D02*
X54476Y-27659D01*
X5621Y-6961D02*
X5581Y-6922D01*
X5621Y-11462D02*
X5621Y-6961D01*
X5413Y-11670D02*
X5621Y-11462D01*
X5413Y-15528D02*
X5413Y-11670D01*
X5901Y-16016D02*
X5413Y-15528D01*
X5901Y-16622D02*
X5901Y-16016D01*
X5226Y-6922D02*
X5581Y-6922D01*
X61771Y-25209D02*
X61771Y-24753D01*
X62621Y-24009D02*
X62266Y-24009D01*
X18101Y-1622D02*
X18101Y-2227D01*
X20001Y-9122D02*
X19446Y-9122D01*
X17628Y-2700D02*
X17628Y-4192D01*
X18101Y-2227D02*
X17628Y-2700D01*
X17431Y-4192D02*
X17628Y-4192D01*
X12501Y-9122D02*
X17431Y-4192D01*
X19446Y-6010D02*
X19446Y-9122D01*
X17628Y-4192D02*
X19446Y-6010D01*
X61771Y-28109D02*
X62126Y-28109D01*
X62241Y-28224D02*
X62241Y-28238D01*
X62126Y-28109D02*
X62241Y-28224D01*
X54521Y-23684D02*
X54658Y-23684D01*
X3101Y-1621D02*
X3101Y-2226D01*
X54540Y-23802D02*
X54540Y-24410D01*
X54658Y-23684D02*
X54540Y-23802D01*
X55094Y-24410D02*
X54540Y-24410D01*
X65138Y-13545D02*
X64746Y-13937D01*
X65138Y-12530D02*
X65138Y-13545D01*
X64016Y-11408D02*
X65138Y-12530D01*
X64016Y-6101D02*
X64016Y-11408D01*
X63748Y-5833D02*
X64016Y-6101D01*
X56084Y-23735D02*
X56084Y-23180D01*
X61498Y-23676D02*
X61498Y-23740D01*
X61621Y-23553D02*
X61498Y-23676D01*
X62121Y-23553D02*
X61621Y-23553D01*
X62266Y-23698D02*
X62121Y-23553D01*
X62266Y-24009D02*
X62266Y-23698D01*
X61498Y-24481D02*
X61771Y-24753D01*
X61498Y-23740D02*
X61498Y-24481D01*
X61498Y-23740D02*
X61382Y-23740D01*
X6535Y-4086D02*
X5019Y-5602D01*
X6535Y-2449D02*
X6535Y-4086D01*
X5226Y-5808D02*
X5019Y-5602D01*
X5226Y-6922D02*
X5226Y-5808D01*
X2634Y-2693D02*
X3101Y-2226D01*
X2634Y-4031D02*
X2634Y-2693D01*
X3903Y-5300D02*
X2634Y-4031D01*
X4718Y-5300D02*
X3903Y-5300D01*
X5019Y-5602D02*
X4718Y-5300D01*
X33924Y-22416D02*
X33924Y-23910D01*
X30383Y-18875D02*
X33924Y-22416D01*
X30383Y-18060D02*
X30383Y-18875D01*
X27648Y-15326D02*
X30383Y-18060D01*
X27648Y-12429D02*
X27648Y-15326D01*
X27009Y-11789D02*
X27648Y-12429D01*
X27009Y-10219D02*
X27009Y-11789D01*
X27501Y-9727D02*
X27009Y-10219D01*
X36388Y-24024D02*
X36576Y-24024D01*
X35364Y-25047D02*
X36388Y-24024D01*
X27501Y-9122D02*
X27501Y-9727D01*
X36111Y-25794D02*
X35364Y-25047D01*
X36111Y-28809D02*
X36111Y-25794D01*
X55454Y-23180D02*
X56084Y-23180D01*
X55266Y-23368D02*
X55454Y-23180D01*
X54974Y-23368D02*
X55266Y-23368D01*
X54658Y-23684D02*
X54974Y-23368D01*
X55094Y-27560D02*
X55648Y-27560D01*
X58604Y-28235D02*
X58604Y-27680D01*
X55648Y-27667D02*
X55648Y-27560D01*
X55164Y-28151D02*
X55648Y-27667D01*
X55164Y-28371D02*
X55164Y-28151D01*
X59594Y-25040D02*
X59040Y-25040D01*
X55648Y-27560D02*
X58428Y-27560D01*
X58483Y-27560D02*
X58604Y-27680D01*
X58428Y-27560D02*
X58483Y-27560D01*
X59040Y-24289D02*
X59040Y-25040D01*
X59488Y-23840D02*
X59040Y-24289D01*
X59488Y-23721D02*
X59488Y-23840D01*
X57659Y-24811D02*
X58464Y-25616D01*
X57659Y-23735D02*
X57659Y-24811D01*
X58428Y-25652D02*
X58464Y-25616D01*
X58428Y-27560D02*
X58428Y-25652D01*
X58464Y-25616D02*
X59040Y-25040D01*
G54D10*
G36*
X4572Y-1160D02*
X4543Y-1116D01*
X4340Y-980D01*
X4101Y-933D01*
X3862Y-980D01*
X3702Y-1087D01*
X3688Y-1055D01*
X3618Y-984D01*
X3526Y-946D01*
X3426Y-946D01*
X2676Y-946D01*
X2584Y-984D01*
X2514Y-1054D01*
X2476Y-1146D01*
X2476Y-1246D01*
X2476Y-2096D01*
X2514Y-2188D01*
X2579Y-2253D01*
X2386Y-2446D01*
X2310Y-2559D01*
X2284Y-2693D01*
X2284Y-4031D01*
X2310Y-4165D01*
X2386Y-4278D01*
X3606Y-5498D01*
X3569Y-5588D01*
X3569Y-5765D01*
X3637Y-5930D01*
X3646Y-5938D01*
X3646Y-6448D01*
X3601Y-6493D01*
X3543Y-6435D01*
X3451Y-6397D01*
X3351Y-6397D01*
X3301Y-6397D01*
X3301Y-5483D01*
X3195Y-5226D01*
X2998Y-5028D01*
X2741Y-4922D01*
X2462Y-4921D01*
X2205Y-5028D01*
X2186Y-5047D01*
X2186Y-3506D01*
X2097Y-3291D01*
X1933Y-3126D01*
X1718Y-3037D01*
X1485Y-3036D01*
X1270Y-3125D01*
X1105Y-3290D01*
X1016Y-3505D01*
X1016Y-3737D01*
X1105Y-3952D01*
X1269Y-4117D01*
X1484Y-4206D01*
X1717Y-4207D01*
X1932Y-4118D01*
X2097Y-3953D01*
X2186Y-3738D01*
X2186Y-3506D01*
X2186Y-5047D01*
X2008Y-5225D01*
X1901Y-5482D01*
X1901Y-5760D01*
X2007Y-6018D01*
X2204Y-6215D01*
X2461Y-6321D01*
X2740Y-6322D01*
X2997Y-6215D01*
X3194Y-6019D01*
X3301Y-5761D01*
X3301Y-5483D01*
X3301Y-6397D01*
X3001Y-6397D01*
X2909Y-6434D01*
X2839Y-6505D01*
X2801Y-6597D01*
X2801Y-6609D01*
X2764Y-6617D01*
X2657Y-6688D01*
X2657Y-6688D01*
X1740Y-7606D01*
X1668Y-7713D01*
X1643Y-7839D01*
X1643Y-10008D01*
X1489Y-9944D01*
X1264Y-9943D01*
X1056Y-10029D01*
X897Y-10188D01*
X811Y-10396D01*
X811Y-10620D01*
X897Y-10828D01*
X1055Y-10987D01*
X1263Y-11073D01*
X1488Y-11074D01*
X1643Y-11009D01*
X1643Y-13008D01*
X1489Y-12944D01*
X1264Y-12943D01*
X1056Y-13029D01*
X897Y-13188D01*
X811Y-13396D01*
X811Y-13620D01*
X897Y-13828D01*
X1055Y-13987D01*
X1263Y-14073D01*
X1488Y-14074D01*
X1643Y-14009D01*
X1643Y-19847D01*
X1668Y-19974D01*
X1740Y-20081D01*
X2373Y-20713D01*
X2373Y-21303D01*
X2074Y-21103D01*
X1601Y-21009D01*
X270Y-21009D01*
X270Y-766D01*
X294Y-774D01*
X471Y-761D01*
X577Y-717D01*
X591Y-633D01*
X351Y-392D01*
X345Y-398D01*
X275Y-327D01*
X280Y-322D01*
X275Y-316D01*
X345Y-245D01*
X351Y-251D01*
X356Y-245D01*
X427Y-316D01*
X422Y-322D01*
X662Y-562D01*
X747Y-547D01*
X803Y-379D01*
X793Y-241D01*
X4572Y-241D01*
X4572Y-1160D01*
X4572Y-1160D01*
G37*
G54D34*
X4572Y-1160D02*
X4543Y-1116D01*
X4340Y-980D01*
X4101Y-933D01*
X3862Y-980D01*
X3702Y-1087D01*
X3688Y-1055D01*
X3618Y-984D01*
X3526Y-946D01*
X3426Y-946D01*
X2676Y-946D01*
X2584Y-984D01*
X2514Y-1054D01*
X2476Y-1146D01*
X2476Y-1246D01*
X2476Y-2096D01*
X2514Y-2188D01*
X2579Y-2253D01*
X2386Y-2446D01*
X2310Y-2559D01*
X2284Y-2693D01*
X2284Y-4031D01*
X2310Y-4165D01*
X2386Y-4278D01*
X3606Y-5498D01*
X3569Y-5588D01*
X3569Y-5765D01*
X3637Y-5930D01*
X3646Y-5938D01*
X3646Y-6448D01*
X3601Y-6493D01*
X3543Y-6435D01*
X3451Y-6397D01*
X3351Y-6397D01*
X3301Y-6397D01*
X3301Y-5483D01*
X3195Y-5226D01*
X2998Y-5028D01*
X2741Y-4922D01*
X2462Y-4921D01*
X2205Y-5028D01*
X2186Y-5047D01*
X2186Y-3506D01*
X2097Y-3291D01*
X1933Y-3126D01*
X1718Y-3037D01*
X1485Y-3036D01*
X1270Y-3125D01*
X1105Y-3290D01*
X1016Y-3505D01*
X1016Y-3737D01*
X1105Y-3952D01*
X1269Y-4117D01*
X1484Y-4206D01*
X1717Y-4207D01*
X1932Y-4118D01*
X2097Y-3953D01*
X2186Y-3738D01*
X2186Y-3506D01*
X2186Y-5047D01*
X2008Y-5225D01*
X1901Y-5482D01*
X1901Y-5760D01*
X2007Y-6018D01*
X2204Y-6215D01*
X2461Y-6321D01*
X2740Y-6322D01*
X2997Y-6215D01*
X3194Y-6019D01*
X3301Y-5761D01*
X3301Y-5483D01*
X3301Y-6397D01*
X3001Y-6397D01*
X2909Y-6434D01*
X2839Y-6505D01*
X2801Y-6597D01*
X2801Y-6609D01*
X2764Y-6617D01*
X2657Y-6688D01*
X2657Y-6688D01*
X1740Y-7606D01*
X1668Y-7713D01*
X1643Y-7839D01*
X1643Y-10008D01*
X1489Y-9944D01*
X1264Y-9943D01*
X1056Y-10029D01*
X897Y-10188D01*
X811Y-10396D01*
X811Y-10620D01*
X897Y-10828D01*
X1055Y-10987D01*
X1263Y-11073D01*
X1488Y-11074D01*
X1643Y-11009D01*
X1643Y-13008D01*
X1489Y-12944D01*
X1264Y-12943D01*
X1056Y-13029D01*
X897Y-13188D01*
X811Y-13396D01*
X811Y-13620D01*
X897Y-13828D01*
X1055Y-13987D01*
X1263Y-14073D01*
X1488Y-14074D01*
X1643Y-14009D01*
X1643Y-19847D01*
X1668Y-19974D01*
X1740Y-20081D01*
X2373Y-20713D01*
X2373Y-21303D01*
X2074Y-21103D01*
X1601Y-21009D01*
X270Y-21009D01*
X270Y-766D01*
X294Y-774D01*
X471Y-761D01*
X577Y-717D01*
X591Y-633D01*
X351Y-392D01*
X345Y-398D01*
X275Y-327D01*
X280Y-322D01*
X275Y-316D01*
X345Y-245D01*
X351Y-251D01*
X356Y-245D01*
X427Y-316D01*
X422Y-322D01*
X662Y-562D01*
X747Y-547D01*
X803Y-379D01*
X793Y-241D01*
X4572Y-241D01*
X4572Y-1160D01*
G54D10*
G36*
X5379Y-15990D02*
X5314Y-16055D01*
X5276Y-16147D01*
X5276Y-16246D01*
X5276Y-16877D01*
X3423Y-16877D01*
X3266Y-16720D01*
X3266Y-16510D01*
X3180Y-16302D01*
X3021Y-16143D01*
X2814Y-16057D01*
X2589Y-16056D01*
X2554Y-16071D01*
X2554Y-13470D01*
X2851Y-13173D01*
X2851Y-13260D01*
X2957Y-13518D01*
X3154Y-13715D01*
X3411Y-13821D01*
X3690Y-13822D01*
X3947Y-13715D01*
X4144Y-13519D01*
X4251Y-13261D01*
X4251Y-12983D01*
X4145Y-12726D01*
X3948Y-12528D01*
X3691Y-12422D01*
X3603Y-12422D01*
X3749Y-12275D01*
X3821Y-12168D01*
X3821Y-12168D01*
X3846Y-12042D01*
X3846Y-11880D01*
X3964Y-11998D01*
X4344Y-12156D01*
X4756Y-12157D01*
X5063Y-12030D01*
X5063Y-15528D01*
X5089Y-15662D01*
X5165Y-15776D01*
X5379Y-15990D01*
X5379Y-15990D01*
G37*
G54D34*
X5379Y-15990D02*
X5314Y-16055D01*
X5276Y-16147D01*
X5276Y-16246D01*
X5276Y-16877D01*
X3423Y-16877D01*
X3266Y-16720D01*
X3266Y-16510D01*
X3180Y-16302D01*
X3021Y-16143D01*
X2814Y-16057D01*
X2589Y-16056D01*
X2554Y-16071D01*
X2554Y-13470D01*
X2851Y-13173D01*
X2851Y-13260D01*
X2957Y-13518D01*
X3154Y-13715D01*
X3411Y-13821D01*
X3690Y-13822D01*
X3947Y-13715D01*
X4144Y-13519D01*
X4251Y-13261D01*
X4251Y-12983D01*
X4145Y-12726D01*
X3948Y-12528D01*
X3691Y-12422D01*
X3603Y-12422D01*
X3749Y-12275D01*
X3821Y-12168D01*
X3821Y-12168D01*
X3846Y-12042D01*
X3846Y-11880D01*
X3964Y-11998D01*
X4344Y-12156D01*
X4756Y-12157D01*
X5063Y-12030D01*
X5063Y-15528D01*
X5089Y-15662D01*
X5165Y-15776D01*
X5379Y-15990D01*
G54D10*
G36*
X8450Y-1419D02*
X8393Y-1281D01*
X8273Y-1161D01*
X8116Y-1096D01*
X7946Y-1096D01*
X7789Y-1161D01*
X7669Y-1281D01*
X7604Y-1438D01*
X7604Y-1608D01*
X7658Y-1738D01*
X7649Y-1742D01*
X7613Y-1719D01*
X7480Y-1692D01*
X7346Y-1719D01*
X7322Y-1735D01*
X7298Y-1719D01*
X7165Y-1692D01*
X7031Y-1719D01*
X7007Y-1735D01*
X6983Y-1719D01*
X6850Y-1692D01*
X6716Y-1719D01*
X6692Y-1735D01*
X6678Y-1725D01*
X6726Y-1608D01*
X6726Y-1439D01*
X6661Y-1281D01*
X6541Y-1161D01*
X6384Y-1096D01*
X6214Y-1096D01*
X6057Y-1161D01*
X5937Y-1281D01*
X5879Y-1419D01*
X5879Y-241D01*
X8450Y-241D01*
X8450Y-1419D01*
X8450Y-1419D01*
G37*
G54D34*
X8450Y-1419D02*
X8393Y-1281D01*
X8273Y-1161D01*
X8116Y-1096D01*
X7946Y-1096D01*
X7789Y-1161D01*
X7669Y-1281D01*
X7604Y-1438D01*
X7604Y-1608D01*
X7658Y-1738D01*
X7649Y-1742D01*
X7613Y-1719D01*
X7480Y-1692D01*
X7346Y-1719D01*
X7322Y-1735D01*
X7298Y-1719D01*
X7165Y-1692D01*
X7031Y-1719D01*
X7007Y-1735D01*
X6983Y-1719D01*
X6850Y-1692D01*
X6716Y-1719D01*
X6692Y-1735D01*
X6678Y-1725D01*
X6726Y-1608D01*
X6726Y-1439D01*
X6661Y-1281D01*
X6541Y-1161D01*
X6384Y-1096D01*
X6214Y-1096D01*
X6057Y-1161D01*
X5937Y-1281D01*
X5879Y-1419D01*
X5879Y-241D01*
X8450Y-241D01*
X8450Y-1419D01*
G54D10*
G36*
X9375Y-4353D02*
X8751Y-4977D01*
X8751Y-4909D01*
X8751Y-4559D01*
X8713Y-4467D01*
X8643Y-4397D01*
X8551Y-4359D01*
X8538Y-4359D01*
X8531Y-4322D01*
X8531Y-4322D01*
X8459Y-4215D01*
X8143Y-3899D01*
X8143Y-2892D01*
X8143Y-2499D01*
X7844Y-2499D01*
X7844Y-3124D01*
X7897Y-3175D01*
X8006Y-3124D01*
X8098Y-3022D01*
X8143Y-2892D01*
X8143Y-3899D01*
X7495Y-3251D01*
X7495Y-3202D01*
X7613Y-3179D01*
X7649Y-3155D01*
X7692Y-3175D01*
X7746Y-3124D01*
X7746Y-3074D01*
X7802Y-2990D01*
X7828Y-2857D01*
X7828Y-2391D01*
X7844Y-2391D01*
X7844Y-2399D01*
X8143Y-2399D01*
X8143Y-2005D01*
X8123Y-1947D01*
X8273Y-1885D01*
X8393Y-1765D01*
X8454Y-1619D01*
X8471Y-1661D01*
X8450Y-1710D01*
X8450Y-1809D01*
X8450Y-3187D01*
X8488Y-3279D01*
X8559Y-3350D01*
X8577Y-3357D01*
X8516Y-3505D01*
X8516Y-3737D01*
X8605Y-3952D01*
X8769Y-4117D01*
X8984Y-4206D01*
X9217Y-4207D01*
X9375Y-4141D01*
X9375Y-4353D01*
X9375Y-4353D01*
G37*
G54D34*
X9375Y-4353D02*
X8751Y-4977D01*
X8751Y-4909D01*
X8751Y-4559D01*
X8713Y-4467D01*
X8643Y-4397D01*
X8551Y-4359D01*
X8538Y-4359D01*
X8531Y-4322D01*
X8531Y-4322D01*
X8459Y-4215D01*
X8143Y-3899D01*
X8143Y-2892D01*
X8143Y-2499D01*
X7844Y-2499D01*
X7844Y-3124D01*
X7897Y-3175D01*
X8006Y-3124D01*
X8098Y-3022D01*
X8143Y-2892D01*
X8143Y-3899D01*
X7495Y-3251D01*
X7495Y-3202D01*
X7613Y-3179D01*
X7649Y-3155D01*
X7692Y-3175D01*
X7746Y-3124D01*
X7746Y-3074D01*
X7802Y-2990D01*
X7828Y-2857D01*
X7828Y-2391D01*
X7844Y-2391D01*
X7844Y-2399D01*
X8143Y-2399D01*
X8143Y-2005D01*
X8123Y-1947D01*
X8273Y-1885D01*
X8393Y-1765D01*
X8454Y-1619D01*
X8471Y-1661D01*
X8450Y-1710D01*
X8450Y-1809D01*
X8450Y-3187D01*
X8488Y-3279D01*
X8559Y-3350D01*
X8577Y-3357D01*
X8516Y-3505D01*
X8516Y-3737D01*
X8605Y-3952D01*
X8769Y-4117D01*
X8984Y-4206D01*
X9217Y-4207D01*
X9375Y-4141D01*
X9375Y-4353D01*
G54D10*
G36*
X11368Y-10017D02*
X10801Y-9450D01*
X10801Y-5483D01*
X10695Y-5226D01*
X10498Y-5028D01*
X10241Y-4922D01*
X9962Y-4921D01*
X9705Y-5028D01*
X9508Y-5225D01*
X9401Y-5482D01*
X9401Y-5760D01*
X9507Y-6018D01*
X9704Y-6215D01*
X9961Y-6321D01*
X10240Y-6322D01*
X10497Y-6215D01*
X10694Y-6019D01*
X10801Y-5761D01*
X10801Y-5483D01*
X10801Y-9450D01*
X7706Y-6355D01*
X7706Y-5956D01*
X7792Y-5921D01*
X7801Y-5912D01*
X7809Y-5920D01*
X7901Y-5959D01*
X8000Y-5959D01*
X8550Y-5959D01*
X8642Y-5921D01*
X8709Y-5854D01*
X8787Y-5838D01*
X8787Y-5838D01*
X8894Y-5767D01*
X9938Y-4723D01*
X9938Y-4723D01*
X9938Y-4723D01*
X10010Y-4616D01*
X10010Y-4616D01*
X10035Y-4490D01*
X10035Y-4490D01*
X10035Y-4418D01*
X11355Y-5737D01*
X11355Y-9952D01*
X11368Y-10017D01*
X11368Y-10017D01*
G37*
G54D34*
X11368Y-10017D02*
X10801Y-9450D01*
X10801Y-5483D01*
X10695Y-5226D01*
X10498Y-5028D01*
X10241Y-4922D01*
X9962Y-4921D01*
X9705Y-5028D01*
X9508Y-5225D01*
X9401Y-5482D01*
X9401Y-5760D01*
X9507Y-6018D01*
X9704Y-6215D01*
X9961Y-6321D01*
X10240Y-6322D01*
X10497Y-6215D01*
X10694Y-6019D01*
X10801Y-5761D01*
X10801Y-5483D01*
X10801Y-9450D01*
X7706Y-6355D01*
X7706Y-5956D01*
X7792Y-5921D01*
X7801Y-5912D01*
X7809Y-5920D01*
X7901Y-5959D01*
X8000Y-5959D01*
X8550Y-5959D01*
X8642Y-5921D01*
X8709Y-5854D01*
X8787Y-5838D01*
X8787Y-5838D01*
X8894Y-5767D01*
X9938Y-4723D01*
X9938Y-4723D01*
X9938Y-4723D01*
X10010Y-4616D01*
X10010Y-4616D01*
X10035Y-4490D01*
X10035Y-4490D01*
X10035Y-4418D01*
X11355Y-5737D01*
X11355Y-9952D01*
X11368Y-10017D01*
G54D10*
G36*
X17579Y-2253D02*
X17380Y-2453D01*
X17304Y-2566D01*
X17278Y-2700D01*
X17278Y-3881D01*
X17186Y-3942D01*
X17186Y-3506D01*
X17097Y-3291D01*
X16933Y-3126D01*
X16718Y-3037D01*
X16485Y-3036D01*
X16270Y-3125D01*
X16105Y-3290D01*
X16016Y-3505D01*
X16016Y-3737D01*
X16105Y-3952D01*
X16269Y-4117D01*
X16484Y-4206D01*
X16717Y-4207D01*
X16932Y-4118D01*
X17097Y-3953D01*
X17186Y-3738D01*
X17186Y-3506D01*
X17186Y-3942D01*
X17183Y-3944D01*
X12681Y-8447D01*
X12289Y-8447D01*
X12289Y-7861D01*
X12834Y-7315D01*
X12906Y-7208D01*
X12906Y-7208D01*
X12913Y-7172D01*
X12925Y-7172D01*
X13017Y-7134D01*
X13088Y-7063D01*
X13126Y-6971D01*
X13126Y-6872D01*
X13126Y-6522D01*
X13088Y-6430D01*
X13029Y-6372D01*
X13088Y-6313D01*
X13126Y-6221D01*
X13126Y-6122D01*
X13126Y-5772D01*
X13088Y-5680D01*
X13018Y-5610D01*
X12931Y-5574D01*
X12931Y-5243D01*
X12997Y-5215D01*
X13194Y-5019D01*
X13301Y-4761D01*
X13301Y-4483D01*
X13195Y-4226D01*
X13176Y-4207D01*
X13217Y-4207D01*
X13432Y-4118D01*
X13597Y-3953D01*
X13686Y-3738D01*
X13686Y-3506D01*
X13597Y-3291D01*
X13433Y-3126D01*
X13218Y-3037D01*
X12985Y-3036D01*
X12770Y-3125D01*
X12605Y-3290D01*
X12516Y-3505D01*
X12516Y-3737D01*
X12592Y-3922D01*
X12462Y-3921D01*
X12205Y-4028D01*
X12008Y-4225D01*
X11901Y-4482D01*
X11901Y-4760D01*
X12007Y-5018D01*
X12204Y-5215D01*
X12271Y-5242D01*
X12271Y-5574D01*
X12184Y-5609D01*
X12114Y-5680D01*
X12076Y-5772D01*
X12076Y-5871D01*
X12076Y-6221D01*
X12114Y-6313D01*
X12172Y-6372D01*
X12114Y-6430D01*
X12076Y-6522D01*
X12076Y-6621D01*
X12076Y-6971D01*
X12114Y-7063D01*
X12133Y-7083D01*
X12015Y-7201D01*
X12015Y-5600D01*
X11990Y-5474D01*
X11990Y-5474D01*
X11918Y-5367D01*
X11208Y-4657D01*
X11306Y-4657D01*
X11686Y-4499D01*
X11978Y-4209D01*
X12136Y-3828D01*
X12136Y-3417D01*
X11979Y-3036D01*
X11688Y-2745D01*
X11308Y-2587D01*
X10896Y-2586D01*
X10541Y-2733D01*
X10834Y-2440D01*
X10834Y-2440D01*
X10834Y-2440D01*
X10906Y-2332D01*
X10906Y-2332D01*
X10913Y-2296D01*
X11025Y-2296D01*
X11117Y-2258D01*
X11188Y-2188D01*
X11201Y-2155D01*
X11362Y-2262D01*
X11601Y-2309D01*
X11840Y-2262D01*
X12043Y-2126D01*
X12178Y-1923D01*
X12226Y-1684D01*
X12226Y-1558D01*
X12183Y-1344D01*
X17476Y-1344D01*
X17476Y-2096D01*
X17514Y-2188D01*
X17579Y-2253D01*
X17579Y-2253D01*
G37*
G54D34*
X17579Y-2253D02*
X17380Y-2453D01*
X17304Y-2566D01*
X17278Y-2700D01*
X17278Y-3881D01*
X17186Y-3942D01*
X17186Y-3506D01*
X17097Y-3291D01*
X16933Y-3126D01*
X16718Y-3037D01*
X16485Y-3036D01*
X16270Y-3125D01*
X16105Y-3290D01*
X16016Y-3505D01*
X16016Y-3737D01*
X16105Y-3952D01*
X16269Y-4117D01*
X16484Y-4206D01*
X16717Y-4207D01*
X16932Y-4118D01*
X17097Y-3953D01*
X17186Y-3738D01*
X17186Y-3506D01*
X17186Y-3942D01*
X17183Y-3944D01*
X12681Y-8447D01*
X12289Y-8447D01*
X12289Y-7861D01*
X12834Y-7315D01*
X12906Y-7208D01*
X12906Y-7208D01*
X12913Y-7172D01*
X12925Y-7172D01*
X13017Y-7134D01*
X13088Y-7063D01*
X13126Y-6971D01*
X13126Y-6872D01*
X13126Y-6522D01*
X13088Y-6430D01*
X13029Y-6372D01*
X13088Y-6313D01*
X13126Y-6221D01*
X13126Y-6122D01*
X13126Y-5772D01*
X13088Y-5680D01*
X13018Y-5610D01*
X12931Y-5574D01*
X12931Y-5243D01*
X12997Y-5215D01*
X13194Y-5019D01*
X13301Y-4761D01*
X13301Y-4483D01*
X13195Y-4226D01*
X13176Y-4207D01*
X13217Y-4207D01*
X13432Y-4118D01*
X13597Y-3953D01*
X13686Y-3738D01*
X13686Y-3506D01*
X13597Y-3291D01*
X13433Y-3126D01*
X13218Y-3037D01*
X12985Y-3036D01*
X12770Y-3125D01*
X12605Y-3290D01*
X12516Y-3505D01*
X12516Y-3737D01*
X12592Y-3922D01*
X12462Y-3921D01*
X12205Y-4028D01*
X12008Y-4225D01*
X11901Y-4482D01*
X11901Y-4760D01*
X12007Y-5018D01*
X12204Y-5215D01*
X12271Y-5242D01*
X12271Y-5574D01*
X12184Y-5609D01*
X12114Y-5680D01*
X12076Y-5772D01*
X12076Y-5871D01*
X12076Y-6221D01*
X12114Y-6313D01*
X12172Y-6372D01*
X12114Y-6430D01*
X12076Y-6522D01*
X12076Y-6621D01*
X12076Y-6971D01*
X12114Y-7063D01*
X12133Y-7083D01*
X12015Y-7201D01*
X12015Y-5600D01*
X11990Y-5474D01*
X11990Y-5474D01*
X11918Y-5367D01*
X11208Y-4657D01*
X11306Y-4657D01*
X11686Y-4499D01*
X11978Y-4209D01*
X12136Y-3828D01*
X12136Y-3417D01*
X11979Y-3036D01*
X11688Y-2745D01*
X11308Y-2587D01*
X10896Y-2586D01*
X10541Y-2733D01*
X10834Y-2440D01*
X10834Y-2440D01*
X10834Y-2440D01*
X10906Y-2332D01*
X10906Y-2332D01*
X10913Y-2296D01*
X11025Y-2296D01*
X11117Y-2258D01*
X11188Y-2188D01*
X11201Y-2155D01*
X11362Y-2262D01*
X11601Y-2309D01*
X11840Y-2262D01*
X12043Y-2126D01*
X12178Y-1923D01*
X12226Y-1684D01*
X12226Y-1558D01*
X12183Y-1344D01*
X17476Y-1344D01*
X17476Y-2096D01*
X17514Y-2188D01*
X17579Y-2253D01*
G54D10*
G36*
X27444Y-29552D02*
X12701Y-29552D01*
X12701Y-27983D01*
X12595Y-27726D01*
X12398Y-27528D01*
X12141Y-27422D01*
X11862Y-27421D01*
X11605Y-27528D01*
X11586Y-27547D01*
X11586Y-26006D01*
X11497Y-25791D01*
X11333Y-25626D01*
X11136Y-25544D01*
X11136Y-21288D01*
X11136Y-20067D01*
X11135Y-20065D01*
X11135Y-17883D01*
X11135Y-16563D01*
X11097Y-16471D01*
X11027Y-16401D01*
X10935Y-16363D01*
X10836Y-16363D01*
X10801Y-16363D01*
X10738Y-16425D01*
X10738Y-17173D01*
X11073Y-17173D01*
X11135Y-17111D01*
X11135Y-16563D01*
X11135Y-17883D01*
X11135Y-17336D01*
X11073Y-17273D01*
X10738Y-17273D01*
X10738Y-18021D01*
X10801Y-18083D01*
X10836Y-18083D01*
X10935Y-18083D01*
X11027Y-18045D01*
X11097Y-17975D01*
X11135Y-17883D01*
X11135Y-20065D01*
X11098Y-19975D01*
X11028Y-19905D01*
X10936Y-19867D01*
X10837Y-19867D01*
X10638Y-19867D01*
X10638Y-18021D01*
X10638Y-17273D01*
X10638Y-17173D01*
X10638Y-16425D01*
X10576Y-16363D01*
X10541Y-16363D01*
X10441Y-16363D01*
X10350Y-16401D01*
X10279Y-16471D01*
X10241Y-16563D01*
X10241Y-17111D01*
X10304Y-17173D01*
X10638Y-17173D01*
X10638Y-17273D01*
X10304Y-17273D01*
X10241Y-17336D01*
X10241Y-17883D01*
X10279Y-17975D01*
X10350Y-18045D01*
X10441Y-18083D01*
X10541Y-18083D01*
X10576Y-18083D01*
X10638Y-18021D01*
X10638Y-19867D01*
X10443Y-19867D01*
X10351Y-19905D01*
X10281Y-19975D01*
X10242Y-20067D01*
X10242Y-20166D01*
X10242Y-21387D01*
X10280Y-21479D01*
X10351Y-21549D01*
X10442Y-21587D01*
X10542Y-21587D01*
X10936Y-21587D01*
X11028Y-21549D01*
X11098Y-21479D01*
X11136Y-21387D01*
X11136Y-21288D01*
X11136Y-25544D01*
X11118Y-25537D01*
X10885Y-25536D01*
X10670Y-25625D01*
X10505Y-25790D01*
X10416Y-26005D01*
X10416Y-26237D01*
X10505Y-26452D01*
X10669Y-26617D01*
X10884Y-26706D01*
X11117Y-26707D01*
X11332Y-26618D01*
X11497Y-26453D01*
X11586Y-26238D01*
X11586Y-26006D01*
X11586Y-27547D01*
X11408Y-27725D01*
X11301Y-27982D01*
X11301Y-28260D01*
X11407Y-28518D01*
X11604Y-28715D01*
X11861Y-28821D01*
X12140Y-28822D01*
X12397Y-28715D01*
X12594Y-28519D01*
X12701Y-28261D01*
X12701Y-27983D01*
X12701Y-29552D01*
X4251Y-29552D01*
X4251Y-27983D01*
X4145Y-27726D01*
X3948Y-27528D01*
X3691Y-27422D01*
X3412Y-27421D01*
X3155Y-27528D01*
X3136Y-27547D01*
X3136Y-26006D01*
X3047Y-25791D01*
X2883Y-25626D01*
X2668Y-25537D01*
X2435Y-25536D01*
X2220Y-25625D01*
X2055Y-25790D01*
X1966Y-26005D01*
X1966Y-26237D01*
X2055Y-26452D01*
X2219Y-26617D01*
X2434Y-26706D01*
X2667Y-26707D01*
X2882Y-26618D01*
X3047Y-26453D01*
X3136Y-26238D01*
X3136Y-26006D01*
X3136Y-27547D01*
X2958Y-27725D01*
X2851Y-27982D01*
X2851Y-28260D01*
X2957Y-28518D01*
X3154Y-28715D01*
X3411Y-28821D01*
X3690Y-28822D01*
X3947Y-28715D01*
X4144Y-28519D01*
X4251Y-28261D01*
X4251Y-27983D01*
X4251Y-29552D01*
X795Y-29552D01*
X803Y-29529D01*
X790Y-29351D01*
X747Y-29246D01*
X662Y-29231D01*
X422Y-29472D01*
X427Y-29477D01*
X356Y-29548D01*
X351Y-29542D01*
X345Y-29548D01*
X275Y-29477D01*
X280Y-29472D01*
X275Y-29466D01*
X345Y-29395D01*
X351Y-29401D01*
X591Y-29160D01*
X577Y-29076D01*
X408Y-29020D01*
X270Y-29029D01*
X270Y-23478D01*
X1601Y-23478D01*
X2074Y-23385D01*
X2373Y-23185D01*
X2373Y-23807D01*
X2398Y-23934D01*
X2469Y-24041D01*
X3391Y-24962D01*
X3498Y-25034D01*
X3498Y-25034D01*
X3624Y-25059D01*
X7714Y-25059D01*
X7896Y-25241D01*
X7896Y-26648D01*
X7851Y-26693D01*
X7793Y-26635D01*
X7701Y-26597D01*
X7601Y-26597D01*
X7251Y-26597D01*
X7159Y-26634D01*
X7089Y-26705D01*
X7053Y-26792D01*
X6672Y-26792D01*
X6645Y-26726D01*
X6626Y-26707D01*
X6667Y-26707D01*
X6882Y-26618D01*
X7047Y-26453D01*
X7136Y-26238D01*
X7136Y-26006D01*
X7047Y-25791D01*
X6883Y-25626D01*
X6668Y-25537D01*
X6435Y-25536D01*
X6220Y-25625D01*
X6055Y-25790D01*
X5966Y-26005D01*
X5966Y-26237D01*
X6042Y-26422D01*
X5912Y-26421D01*
X5655Y-26528D01*
X5586Y-26596D01*
X5586Y-25917D01*
X5429Y-25536D01*
X5138Y-25245D01*
X4758Y-25087D01*
X4346Y-25086D01*
X3965Y-25244D01*
X3674Y-25535D01*
X3516Y-25915D01*
X3516Y-26327D01*
X3673Y-26707D01*
X3964Y-26998D01*
X4344Y-27156D01*
X4756Y-27157D01*
X5136Y-26999D01*
X5428Y-26709D01*
X5586Y-26328D01*
X5586Y-25917D01*
X5586Y-26596D01*
X5458Y-26725D01*
X5351Y-26982D01*
X5351Y-27260D01*
X5457Y-27518D01*
X5654Y-27715D01*
X5911Y-27821D01*
X6190Y-27822D01*
X6447Y-27715D01*
X6644Y-27519D01*
X6672Y-27452D01*
X7053Y-27452D01*
X7089Y-27538D01*
X7159Y-27608D01*
X7251Y-27647D01*
X7350Y-27647D01*
X7700Y-27647D01*
X7792Y-27609D01*
X7851Y-27550D01*
X7909Y-27608D01*
X8001Y-27647D01*
X8100Y-27647D01*
X8450Y-27647D01*
X8542Y-27609D01*
X8613Y-27538D01*
X8651Y-27446D01*
X8651Y-27347D01*
X8651Y-26797D01*
X8613Y-26705D01*
X8556Y-26648D01*
X8556Y-25104D01*
X8531Y-24978D01*
X8531Y-24978D01*
X8459Y-24871D01*
X8181Y-24592D01*
X8181Y-23829D01*
X8447Y-23829D01*
X8496Y-23878D01*
X8660Y-23946D01*
X8838Y-23946D01*
X9002Y-23878D01*
X9128Y-23752D01*
X9196Y-23588D01*
X9196Y-23410D01*
X9128Y-23246D01*
X9003Y-23120D01*
X8838Y-23052D01*
X8661Y-23052D01*
X8496Y-23120D01*
X8447Y-23169D01*
X8181Y-23169D01*
X8181Y-22169D01*
X8267Y-22134D01*
X8338Y-22063D01*
X8376Y-21971D01*
X8376Y-21872D01*
X8376Y-21522D01*
X8338Y-21430D01*
X8279Y-21372D01*
X8338Y-21313D01*
X8376Y-21221D01*
X8376Y-21122D01*
X8376Y-20772D01*
X8338Y-20680D01*
X8268Y-20610D01*
X8181Y-20574D01*
X8181Y-20263D01*
X8297Y-20215D01*
X8494Y-20019D01*
X8601Y-19761D01*
X8601Y-19483D01*
X8495Y-19226D01*
X8476Y-19207D01*
X8517Y-19207D01*
X8732Y-19118D01*
X8897Y-18953D01*
X8986Y-18738D01*
X8986Y-18506D01*
X8897Y-18291D01*
X8733Y-18126D01*
X8518Y-18037D01*
X8285Y-18036D01*
X8070Y-18125D01*
X7905Y-18290D01*
X7816Y-18505D01*
X7816Y-18737D01*
X7892Y-18922D01*
X7776Y-18921D01*
X7776Y-13919D01*
X7776Y-13919D01*
X7776Y-13919D01*
X7771Y-13894D01*
X7751Y-13793D01*
X7751Y-13793D01*
X7680Y-13685D01*
X7680Y-13685D01*
X7369Y-13375D01*
X7262Y-13304D01*
X7226Y-13296D01*
X7226Y-13284D01*
X7188Y-13192D01*
X7118Y-13122D01*
X7026Y-13084D01*
X6926Y-13084D01*
X6576Y-13084D01*
X6484Y-13121D01*
X6426Y-13180D01*
X6381Y-13135D01*
X6381Y-12743D01*
X6447Y-12715D01*
X6644Y-12519D01*
X6751Y-12261D01*
X6751Y-11983D01*
X6645Y-11726D01*
X6626Y-11707D01*
X6667Y-11707D01*
X6882Y-11618D01*
X7047Y-11453D01*
X7136Y-11238D01*
X7136Y-11006D01*
X7047Y-10791D01*
X6883Y-10626D01*
X6668Y-10537D01*
X6435Y-10536D01*
X6401Y-10551D01*
X6401Y-7147D01*
X6401Y-6696D01*
X6401Y-6597D01*
X6363Y-6505D01*
X6292Y-6434D01*
X6200Y-6397D01*
X6088Y-6397D01*
X6026Y-6459D01*
X6026Y-6872D01*
X6338Y-6872D01*
X6401Y-6809D01*
X6401Y-6696D01*
X6401Y-7147D01*
X6401Y-7034D01*
X6338Y-6972D01*
X6026Y-6972D01*
X6026Y-7384D01*
X6088Y-7447D01*
X6200Y-7447D01*
X6292Y-7409D01*
X6363Y-7338D01*
X6401Y-7246D01*
X6401Y-7147D01*
X6401Y-10551D01*
X6220Y-10625D01*
X6055Y-10790D01*
X5971Y-10993D01*
X5971Y-6961D01*
X5944Y-6827D01*
X5944Y-6827D01*
X5926Y-6800D01*
X5926Y-6800D01*
X5926Y-6459D01*
X5863Y-6397D01*
X5751Y-6397D01*
X5659Y-6434D01*
X5601Y-6493D01*
X5576Y-6468D01*
X5576Y-5808D01*
X5576Y-5808D01*
X5549Y-5674D01*
X5506Y-5610D01*
X6782Y-4334D01*
X6787Y-4326D01*
X6908Y-4448D01*
X6889Y-4467D01*
X6851Y-4559D01*
X6851Y-4658D01*
X6851Y-5008D01*
X6889Y-5100D01*
X6947Y-5159D01*
X6889Y-5217D01*
X6851Y-5309D01*
X6851Y-5408D01*
X6851Y-5758D01*
X6889Y-5850D01*
X6959Y-5920D01*
X7046Y-5956D01*
X7046Y-6492D01*
X7071Y-6618D01*
X7143Y-6725D01*
X10954Y-10537D01*
X10885Y-10536D01*
X10670Y-10625D01*
X10505Y-10790D01*
X10416Y-11005D01*
X10416Y-11237D01*
X10505Y-11452D01*
X10669Y-11617D01*
X10884Y-11706D01*
X11117Y-11707D01*
X11183Y-11679D01*
X11183Y-11762D01*
X11208Y-11888D01*
X11280Y-11995D01*
X11752Y-12467D01*
X11605Y-12528D01*
X11408Y-12725D01*
X11301Y-12982D01*
X11301Y-13260D01*
X11407Y-13518D01*
X11604Y-13715D01*
X11861Y-13821D01*
X12140Y-13822D01*
X12294Y-13758D01*
X12294Y-16363D01*
X12017Y-16363D01*
X11925Y-16401D01*
X11855Y-16471D01*
X11816Y-16563D01*
X11816Y-16662D01*
X11816Y-17883D01*
X11843Y-17947D01*
X11418Y-18372D01*
X11347Y-18479D01*
X11322Y-18605D01*
X11322Y-24675D01*
X11347Y-24801D01*
X11418Y-24908D01*
X11882Y-25371D01*
X11989Y-25443D01*
X11989Y-25443D01*
X12115Y-25468D01*
X12191Y-25468D01*
X12124Y-25535D01*
X11966Y-25915D01*
X11966Y-26327D01*
X12123Y-26707D01*
X12414Y-26998D01*
X12794Y-27156D01*
X13206Y-27157D01*
X13586Y-26999D01*
X13878Y-26709D01*
X14036Y-26328D01*
X14036Y-25917D01*
X13879Y-25536D01*
X13811Y-25468D01*
X15140Y-25468D01*
X15273Y-25601D01*
X15118Y-25537D01*
X14885Y-25536D01*
X14670Y-25625D01*
X14505Y-25790D01*
X14416Y-26005D01*
X14416Y-26237D01*
X14492Y-26422D01*
X14362Y-26421D01*
X14105Y-26528D01*
X13908Y-26725D01*
X13801Y-26982D01*
X13801Y-27260D01*
X13907Y-27518D01*
X14104Y-27715D01*
X14361Y-27821D01*
X14640Y-27822D01*
X14897Y-27715D01*
X15094Y-27519D01*
X15122Y-27452D01*
X15553Y-27452D01*
X15589Y-27538D01*
X15659Y-27608D01*
X15751Y-27647D01*
X15850Y-27647D01*
X16200Y-27647D01*
X16292Y-27609D01*
X16351Y-27550D01*
X16409Y-27608D01*
X16501Y-27647D01*
X16600Y-27647D01*
X16950Y-27647D01*
X17042Y-27609D01*
X17089Y-27562D01*
X17090Y-27562D01*
X17268Y-27562D01*
X17432Y-27494D01*
X17558Y-27369D01*
X17626Y-27205D01*
X17626Y-27027D01*
X17593Y-26947D01*
X19180Y-26947D01*
X19664Y-27431D01*
X19641Y-27422D01*
X19362Y-27421D01*
X19105Y-27528D01*
X18908Y-27725D01*
X18801Y-27982D01*
X18801Y-28260D01*
X18907Y-28518D01*
X19104Y-28715D01*
X19361Y-28821D01*
X19640Y-28822D01*
X19897Y-28715D01*
X20094Y-28519D01*
X20201Y-28261D01*
X20201Y-27983D01*
X20191Y-27958D01*
X20453Y-28220D01*
X20453Y-28220D01*
X20560Y-28292D01*
X20560Y-28292D01*
X20686Y-28317D01*
X20686Y-28317D01*
X27204Y-28317D01*
X27181Y-28339D01*
X27051Y-28652D01*
X27051Y-28990D01*
X27180Y-29302D01*
X27419Y-29542D01*
X27444Y-29552D01*
X27444Y-29552D01*
G37*
G54D34*
X27444Y-29552D02*
X12701Y-29552D01*
X12701Y-27983D01*
X12595Y-27726D01*
X12398Y-27528D01*
X12141Y-27422D01*
X11862Y-27421D01*
X11605Y-27528D01*
X11586Y-27547D01*
X11586Y-26006D01*
X11497Y-25791D01*
X11333Y-25626D01*
X11136Y-25544D01*
X11136Y-21288D01*
X11136Y-20067D01*
X11135Y-20065D01*
X11135Y-17883D01*
X11135Y-16563D01*
X11097Y-16471D01*
X11027Y-16401D01*
X10935Y-16363D01*
X10836Y-16363D01*
X10801Y-16363D01*
X10738Y-16425D01*
X10738Y-17173D01*
X11073Y-17173D01*
X11135Y-17111D01*
X11135Y-16563D01*
X11135Y-17883D01*
X11135Y-17336D01*
X11073Y-17273D01*
X10738Y-17273D01*
X10738Y-18021D01*
X10801Y-18083D01*
X10836Y-18083D01*
X10935Y-18083D01*
X11027Y-18045D01*
X11097Y-17975D01*
X11135Y-17883D01*
X11135Y-20065D01*
X11098Y-19975D01*
X11028Y-19905D01*
X10936Y-19867D01*
X10837Y-19867D01*
X10638Y-19867D01*
X10638Y-18021D01*
X10638Y-17273D01*
X10638Y-17173D01*
X10638Y-16425D01*
X10576Y-16363D01*
X10541Y-16363D01*
X10441Y-16363D01*
X10350Y-16401D01*
X10279Y-16471D01*
X10241Y-16563D01*
X10241Y-17111D01*
X10304Y-17173D01*
X10638Y-17173D01*
X10638Y-17273D01*
X10304Y-17273D01*
X10241Y-17336D01*
X10241Y-17883D01*
X10279Y-17975D01*
X10350Y-18045D01*
X10441Y-18083D01*
X10541Y-18083D01*
X10576Y-18083D01*
X10638Y-18021D01*
X10638Y-19867D01*
X10443Y-19867D01*
X10351Y-19905D01*
X10281Y-19975D01*
X10242Y-20067D01*
X10242Y-20166D01*
X10242Y-21387D01*
X10280Y-21479D01*
X10351Y-21549D01*
X10442Y-21587D01*
X10542Y-21587D01*
X10936Y-21587D01*
X11028Y-21549D01*
X11098Y-21479D01*
X11136Y-21387D01*
X11136Y-21288D01*
X11136Y-25544D01*
X11118Y-25537D01*
X10885Y-25536D01*
X10670Y-25625D01*
X10505Y-25790D01*
X10416Y-26005D01*
X10416Y-26237D01*
X10505Y-26452D01*
X10669Y-26617D01*
X10884Y-26706D01*
X11117Y-26707D01*
X11332Y-26618D01*
X11497Y-26453D01*
X11586Y-26238D01*
X11586Y-26006D01*
X11586Y-27547D01*
X11408Y-27725D01*
X11301Y-27982D01*
X11301Y-28260D01*
X11407Y-28518D01*
X11604Y-28715D01*
X11861Y-28821D01*
X12140Y-28822D01*
X12397Y-28715D01*
X12594Y-28519D01*
X12701Y-28261D01*
X12701Y-27983D01*
X12701Y-29552D01*
X4251Y-29552D01*
X4251Y-27983D01*
X4145Y-27726D01*
X3948Y-27528D01*
X3691Y-27422D01*
X3412Y-27421D01*
X3155Y-27528D01*
X3136Y-27547D01*
X3136Y-26006D01*
X3047Y-25791D01*
X2883Y-25626D01*
X2668Y-25537D01*
X2435Y-25536D01*
X2220Y-25625D01*
X2055Y-25790D01*
X1966Y-26005D01*
X1966Y-26237D01*
X2055Y-26452D01*
X2219Y-26617D01*
X2434Y-26706D01*
X2667Y-26707D01*
X2882Y-26618D01*
X3047Y-26453D01*
X3136Y-26238D01*
X3136Y-26006D01*
X3136Y-27547D01*
X2958Y-27725D01*
X2851Y-27982D01*
X2851Y-28260D01*
X2957Y-28518D01*
X3154Y-28715D01*
X3411Y-28821D01*
X3690Y-28822D01*
X3947Y-28715D01*
X4144Y-28519D01*
X4251Y-28261D01*
X4251Y-27983D01*
X4251Y-29552D01*
X795Y-29552D01*
X803Y-29529D01*
X790Y-29351D01*
X747Y-29246D01*
X662Y-29231D01*
X422Y-29472D01*
X427Y-29477D01*
X356Y-29548D01*
X351Y-29542D01*
X345Y-29548D01*
X275Y-29477D01*
X280Y-29472D01*
X275Y-29466D01*
X345Y-29395D01*
X351Y-29401D01*
X591Y-29160D01*
X577Y-29076D01*
X408Y-29020D01*
X270Y-29029D01*
X270Y-23478D01*
X1601Y-23478D01*
X2074Y-23385D01*
X2373Y-23185D01*
X2373Y-23807D01*
X2398Y-23934D01*
X2469Y-24041D01*
X3391Y-24962D01*
X3498Y-25034D01*
X3498Y-25034D01*
X3624Y-25059D01*
X7714Y-25059D01*
X7896Y-25241D01*
X7896Y-26648D01*
X7851Y-26693D01*
X7793Y-26635D01*
X7701Y-26597D01*
X7601Y-26597D01*
X7251Y-26597D01*
X7159Y-26634D01*
X7089Y-26705D01*
X7053Y-26792D01*
X6672Y-26792D01*
X6645Y-26726D01*
X6626Y-26707D01*
X6667Y-26707D01*
X6882Y-26618D01*
X7047Y-26453D01*
X7136Y-26238D01*
X7136Y-26006D01*
X7047Y-25791D01*
X6883Y-25626D01*
X6668Y-25537D01*
X6435Y-25536D01*
X6220Y-25625D01*
X6055Y-25790D01*
X5966Y-26005D01*
X5966Y-26237D01*
X6042Y-26422D01*
X5912Y-26421D01*
X5655Y-26528D01*
X5586Y-26596D01*
X5586Y-25917D01*
X5429Y-25536D01*
X5138Y-25245D01*
X4758Y-25087D01*
X4346Y-25086D01*
X3965Y-25244D01*
X3674Y-25535D01*
X3516Y-25915D01*
X3516Y-26327D01*
X3673Y-26707D01*
X3964Y-26998D01*
X4344Y-27156D01*
X4756Y-27157D01*
X5136Y-26999D01*
X5428Y-26709D01*
X5586Y-26328D01*
X5586Y-25917D01*
X5586Y-26596D01*
X5458Y-26725D01*
X5351Y-26982D01*
X5351Y-27260D01*
X5457Y-27518D01*
X5654Y-27715D01*
X5911Y-27821D01*
X6190Y-27822D01*
X6447Y-27715D01*
X6644Y-27519D01*
X6672Y-27452D01*
X7053Y-27452D01*
X7089Y-27538D01*
X7159Y-27608D01*
X7251Y-27647D01*
X7350Y-27647D01*
X7700Y-27647D01*
X7792Y-27609D01*
X7851Y-27550D01*
X7909Y-27608D01*
X8001Y-27647D01*
X8100Y-27647D01*
X8450Y-27647D01*
X8542Y-27609D01*
X8613Y-27538D01*
X8651Y-27446D01*
X8651Y-27347D01*
X8651Y-26797D01*
X8613Y-26705D01*
X8556Y-26648D01*
X8556Y-25104D01*
X8531Y-24978D01*
X8531Y-24978D01*
X8459Y-24871D01*
X8181Y-24592D01*
X8181Y-23829D01*
X8447Y-23829D01*
X8496Y-23878D01*
X8660Y-23946D01*
X8838Y-23946D01*
X9002Y-23878D01*
X9128Y-23752D01*
X9196Y-23588D01*
X9196Y-23410D01*
X9128Y-23246D01*
X9003Y-23120D01*
X8838Y-23052D01*
X8661Y-23052D01*
X8496Y-23120D01*
X8447Y-23169D01*
X8181Y-23169D01*
X8181Y-22169D01*
X8267Y-22134D01*
X8338Y-22063D01*
X8376Y-21971D01*
X8376Y-21872D01*
X8376Y-21522D01*
X8338Y-21430D01*
X8279Y-21372D01*
X8338Y-21313D01*
X8376Y-21221D01*
X8376Y-21122D01*
X8376Y-20772D01*
X8338Y-20680D01*
X8268Y-20610D01*
X8181Y-20574D01*
X8181Y-20263D01*
X8297Y-20215D01*
X8494Y-20019D01*
X8601Y-19761D01*
X8601Y-19483D01*
X8495Y-19226D01*
X8476Y-19207D01*
X8517Y-19207D01*
X8732Y-19118D01*
X8897Y-18953D01*
X8986Y-18738D01*
X8986Y-18506D01*
X8897Y-18291D01*
X8733Y-18126D01*
X8518Y-18037D01*
X8285Y-18036D01*
X8070Y-18125D01*
X7905Y-18290D01*
X7816Y-18505D01*
X7816Y-18737D01*
X7892Y-18922D01*
X7776Y-18921D01*
X7776Y-13919D01*
X7776Y-13919D01*
X7776Y-13919D01*
X7771Y-13894D01*
X7751Y-13793D01*
X7751Y-13793D01*
X7680Y-13685D01*
X7680Y-13685D01*
X7369Y-13375D01*
X7262Y-13304D01*
X7226Y-13296D01*
X7226Y-13284D01*
X7188Y-13192D01*
X7118Y-13122D01*
X7026Y-13084D01*
X6926Y-13084D01*
X6576Y-13084D01*
X6484Y-13121D01*
X6426Y-13180D01*
X6381Y-13135D01*
X6381Y-12743D01*
X6447Y-12715D01*
X6644Y-12519D01*
X6751Y-12261D01*
X6751Y-11983D01*
X6645Y-11726D01*
X6626Y-11707D01*
X6667Y-11707D01*
X6882Y-11618D01*
X7047Y-11453D01*
X7136Y-11238D01*
X7136Y-11006D01*
X7047Y-10791D01*
X6883Y-10626D01*
X6668Y-10537D01*
X6435Y-10536D01*
X6401Y-10551D01*
X6401Y-7147D01*
X6401Y-6696D01*
X6401Y-6597D01*
X6363Y-6505D01*
X6292Y-6434D01*
X6200Y-6397D01*
X6088Y-6397D01*
X6026Y-6459D01*
X6026Y-6872D01*
X6338Y-6872D01*
X6401Y-6809D01*
X6401Y-6696D01*
X6401Y-7147D01*
X6401Y-7034D01*
X6338Y-6972D01*
X6026Y-6972D01*
X6026Y-7384D01*
X6088Y-7447D01*
X6200Y-7447D01*
X6292Y-7409D01*
X6363Y-7338D01*
X6401Y-7246D01*
X6401Y-7147D01*
X6401Y-10551D01*
X6220Y-10625D01*
X6055Y-10790D01*
X5971Y-10993D01*
X5971Y-6961D01*
X5944Y-6827D01*
X5944Y-6827D01*
X5926Y-6800D01*
X5926Y-6800D01*
X5926Y-6459D01*
X5863Y-6397D01*
X5751Y-6397D01*
X5659Y-6434D01*
X5601Y-6493D01*
X5576Y-6468D01*
X5576Y-5808D01*
X5576Y-5808D01*
X5549Y-5674D01*
X5506Y-5610D01*
X6782Y-4334D01*
X6787Y-4326D01*
X6908Y-4448D01*
X6889Y-4467D01*
X6851Y-4559D01*
X6851Y-4658D01*
X6851Y-5008D01*
X6889Y-5100D01*
X6947Y-5159D01*
X6889Y-5217D01*
X6851Y-5309D01*
X6851Y-5408D01*
X6851Y-5758D01*
X6889Y-5850D01*
X6959Y-5920D01*
X7046Y-5956D01*
X7046Y-6492D01*
X7071Y-6618D01*
X7143Y-6725D01*
X10954Y-10537D01*
X10885Y-10536D01*
X10670Y-10625D01*
X10505Y-10790D01*
X10416Y-11005D01*
X10416Y-11237D01*
X10505Y-11452D01*
X10669Y-11617D01*
X10884Y-11706D01*
X11117Y-11707D01*
X11183Y-11679D01*
X11183Y-11762D01*
X11208Y-11888D01*
X11280Y-11995D01*
X11752Y-12467D01*
X11605Y-12528D01*
X11408Y-12725D01*
X11301Y-12982D01*
X11301Y-13260D01*
X11407Y-13518D01*
X11604Y-13715D01*
X11861Y-13821D01*
X12140Y-13822D01*
X12294Y-13758D01*
X12294Y-16363D01*
X12017Y-16363D01*
X11925Y-16401D01*
X11855Y-16471D01*
X11816Y-16563D01*
X11816Y-16662D01*
X11816Y-17883D01*
X11843Y-17947D01*
X11418Y-18372D01*
X11347Y-18479D01*
X11322Y-18605D01*
X11322Y-24675D01*
X11347Y-24801D01*
X11418Y-24908D01*
X11882Y-25371D01*
X11989Y-25443D01*
X11989Y-25443D01*
X12115Y-25468D01*
X12191Y-25468D01*
X12124Y-25535D01*
X11966Y-25915D01*
X11966Y-26327D01*
X12123Y-26707D01*
X12414Y-26998D01*
X12794Y-27156D01*
X13206Y-27157D01*
X13586Y-26999D01*
X13878Y-26709D01*
X14036Y-26328D01*
X14036Y-25917D01*
X13879Y-25536D01*
X13811Y-25468D01*
X15140Y-25468D01*
X15273Y-25601D01*
X15118Y-25537D01*
X14885Y-25536D01*
X14670Y-25625D01*
X14505Y-25790D01*
X14416Y-26005D01*
X14416Y-26237D01*
X14492Y-26422D01*
X14362Y-26421D01*
X14105Y-26528D01*
X13908Y-26725D01*
X13801Y-26982D01*
X13801Y-27260D01*
X13907Y-27518D01*
X14104Y-27715D01*
X14361Y-27821D01*
X14640Y-27822D01*
X14897Y-27715D01*
X15094Y-27519D01*
X15122Y-27452D01*
X15553Y-27452D01*
X15589Y-27538D01*
X15659Y-27608D01*
X15751Y-27647D01*
X15850Y-27647D01*
X16200Y-27647D01*
X16292Y-27609D01*
X16351Y-27550D01*
X16409Y-27608D01*
X16501Y-27647D01*
X16600Y-27647D01*
X16950Y-27647D01*
X17042Y-27609D01*
X17089Y-27562D01*
X17090Y-27562D01*
X17268Y-27562D01*
X17432Y-27494D01*
X17558Y-27369D01*
X17626Y-27205D01*
X17626Y-27027D01*
X17593Y-26947D01*
X19180Y-26947D01*
X19664Y-27431D01*
X19641Y-27422D01*
X19362Y-27421D01*
X19105Y-27528D01*
X18908Y-27725D01*
X18801Y-27982D01*
X18801Y-28260D01*
X18907Y-28518D01*
X19104Y-28715D01*
X19361Y-28821D01*
X19640Y-28822D01*
X19897Y-28715D01*
X20094Y-28519D01*
X20201Y-28261D01*
X20201Y-27983D01*
X20191Y-27958D01*
X20453Y-28220D01*
X20453Y-28220D01*
X20560Y-28292D01*
X20560Y-28292D01*
X20686Y-28317D01*
X20686Y-28317D01*
X27204Y-28317D01*
X27181Y-28339D01*
X27051Y-28652D01*
X27051Y-28990D01*
X27180Y-29302D01*
X27419Y-29542D01*
X27444Y-29552D01*
G54D10*
G36*
X35761Y-28304D02*
X35611Y-28454D01*
X35454Y-28297D01*
X35232Y-28204D01*
X34991Y-28204D01*
X34769Y-28296D01*
X34611Y-28454D01*
X34454Y-28297D01*
X34232Y-28204D01*
X33991Y-28204D01*
X33978Y-28209D01*
X32819Y-27050D01*
X32712Y-26979D01*
X32586Y-26953D01*
X28936Y-26953D01*
X28936Y-22617D01*
X28779Y-22236D01*
X28488Y-21945D01*
X28108Y-21787D01*
X27696Y-21786D01*
X27316Y-21944D01*
X27024Y-22235D01*
X26866Y-22615D01*
X26866Y-23027D01*
X27023Y-23407D01*
X27314Y-23698D01*
X27694Y-23856D01*
X28106Y-23857D01*
X28487Y-23699D01*
X28778Y-23409D01*
X28936Y-23028D01*
X28936Y-22617D01*
X28936Y-26953D01*
X27784Y-26953D01*
X25428Y-24597D01*
X25428Y-23116D01*
X25415Y-22938D01*
X25372Y-22833D01*
X25287Y-22818D01*
X25047Y-23059D01*
X25287Y-23299D01*
X25372Y-23284D01*
X25428Y-23116D01*
X25428Y-24597D01*
X25216Y-24385D01*
X25216Y-23370D01*
X24976Y-23129D01*
X24905Y-23200D01*
X24905Y-23059D01*
X24665Y-22818D01*
X24580Y-22833D01*
X24524Y-23001D01*
X24536Y-23179D01*
X24580Y-23284D01*
X24665Y-23299D01*
X24905Y-23059D01*
X24905Y-23200D01*
X24736Y-23370D01*
X24750Y-23454D01*
X24919Y-23511D01*
X25096Y-23498D01*
X25202Y-23454D01*
X25216Y-23370D01*
X25216Y-24385D01*
X23480Y-22649D01*
X23480Y-22608D01*
X25008Y-22608D01*
X24856Y-22619D01*
X24750Y-22663D01*
X24736Y-22747D01*
X24976Y-22988D01*
X25216Y-22747D01*
X25202Y-22663D01*
X25038Y-22608D01*
X25237Y-22608D01*
X25363Y-22583D01*
X25363Y-22583D01*
X25470Y-22512D01*
X27835Y-20147D01*
X27950Y-20147D01*
X28042Y-20109D01*
X28062Y-20089D01*
X30080Y-22107D01*
X30080Y-22176D01*
X30148Y-22340D01*
X30273Y-22466D01*
X30437Y-22534D01*
X30615Y-22534D01*
X30780Y-22467D01*
X30905Y-22341D01*
X30938Y-22261D01*
X33460Y-24783D01*
X33567Y-24854D01*
X33567Y-24854D01*
X33693Y-24879D01*
X34950Y-24879D01*
X34917Y-24958D01*
X34917Y-25136D01*
X34985Y-25300D01*
X35110Y-25426D01*
X35275Y-25494D01*
X35316Y-25494D01*
X35761Y-25939D01*
X35761Y-28304D01*
X35761Y-28304D01*
G37*
G54D34*
X35761Y-28304D02*
X35611Y-28454D01*
X35454Y-28297D01*
X35232Y-28204D01*
X34991Y-28204D01*
X34769Y-28296D01*
X34611Y-28454D01*
X34454Y-28297D01*
X34232Y-28204D01*
X33991Y-28204D01*
X33978Y-28209D01*
X32819Y-27050D01*
X32712Y-26979D01*
X32586Y-26953D01*
X28936Y-26953D01*
X28936Y-22617D01*
X28779Y-22236D01*
X28488Y-21945D01*
X28108Y-21787D01*
X27696Y-21786D01*
X27316Y-21944D01*
X27024Y-22235D01*
X26866Y-22615D01*
X26866Y-23027D01*
X27023Y-23407D01*
X27314Y-23698D01*
X27694Y-23856D01*
X28106Y-23857D01*
X28487Y-23699D01*
X28778Y-23409D01*
X28936Y-23028D01*
X28936Y-22617D01*
X28936Y-26953D01*
X27784Y-26953D01*
X25428Y-24597D01*
X25428Y-23116D01*
X25415Y-22938D01*
X25372Y-22833D01*
X25287Y-22818D01*
X25047Y-23059D01*
X25287Y-23299D01*
X25372Y-23284D01*
X25428Y-23116D01*
X25428Y-24597D01*
X25216Y-24385D01*
X25216Y-23370D01*
X24976Y-23129D01*
X24905Y-23200D01*
X24905Y-23059D01*
X24665Y-22818D01*
X24580Y-22833D01*
X24524Y-23001D01*
X24536Y-23179D01*
X24580Y-23284D01*
X24665Y-23299D01*
X24905Y-23059D01*
X24905Y-23200D01*
X24736Y-23370D01*
X24750Y-23454D01*
X24919Y-23511D01*
X25096Y-23498D01*
X25202Y-23454D01*
X25216Y-23370D01*
X25216Y-24385D01*
X23480Y-22649D01*
X23480Y-22608D01*
X25008Y-22608D01*
X24856Y-22619D01*
X24750Y-22663D01*
X24736Y-22747D01*
X24976Y-22988D01*
X25216Y-22747D01*
X25202Y-22663D01*
X25038Y-22608D01*
X25237Y-22608D01*
X25363Y-22583D01*
X25363Y-22583D01*
X25470Y-22512D01*
X27835Y-20147D01*
X27950Y-20147D01*
X28042Y-20109D01*
X28062Y-20089D01*
X30080Y-22107D01*
X30080Y-22176D01*
X30148Y-22340D01*
X30273Y-22466D01*
X30437Y-22534D01*
X30615Y-22534D01*
X30780Y-22467D01*
X30905Y-22341D01*
X30938Y-22261D01*
X33460Y-24783D01*
X33567Y-24854D01*
X33567Y-24854D01*
X33693Y-24879D01*
X34950Y-24879D01*
X34917Y-24958D01*
X34917Y-25136D01*
X34985Y-25300D01*
X35110Y-25426D01*
X35275Y-25494D01*
X35316Y-25494D01*
X35761Y-25939D01*
X35761Y-28304D01*
G54D10*
G36*
X44655Y-22534D02*
X38901Y-28287D01*
X38901Y-20483D01*
X38795Y-20226D01*
X38598Y-20028D01*
X38341Y-19922D01*
X38062Y-19921D01*
X37805Y-20028D01*
X37786Y-20047D01*
X37786Y-18506D01*
X37697Y-18291D01*
X37533Y-18126D01*
X37318Y-18037D01*
X37085Y-18036D01*
X36870Y-18125D01*
X36705Y-18290D01*
X36616Y-18505D01*
X36616Y-18737D01*
X36705Y-18952D01*
X36869Y-19117D01*
X37084Y-19206D01*
X37317Y-19207D01*
X37532Y-19118D01*
X37697Y-18953D01*
X37786Y-18738D01*
X37786Y-18506D01*
X37786Y-20047D01*
X37608Y-20225D01*
X37501Y-20482D01*
X37501Y-20760D01*
X37607Y-21018D01*
X37804Y-21215D01*
X38061Y-21321D01*
X38340Y-21322D01*
X38597Y-21215D01*
X38794Y-21019D01*
X38901Y-20761D01*
X38901Y-20483D01*
X38901Y-28287D01*
X38656Y-28533D01*
X38637Y-28488D01*
X38536Y-28454D01*
X38465Y-28525D01*
X38465Y-28383D01*
X38431Y-28282D01*
X38206Y-28200D01*
X37965Y-28210D01*
X37790Y-28282D01*
X37756Y-28383D01*
X38111Y-28738D01*
X38465Y-28383D01*
X38465Y-28525D01*
X38182Y-28809D01*
X38187Y-28814D01*
X38116Y-28885D01*
X38111Y-28879D01*
X38105Y-28885D01*
X38035Y-28814D01*
X38040Y-28809D01*
X37686Y-28454D01*
X37627Y-28474D01*
X37624Y-28467D01*
X37454Y-28297D01*
X37232Y-28204D01*
X37185Y-28204D01*
X37185Y-23118D01*
X37175Y-22878D01*
X37102Y-22703D01*
X37001Y-22669D01*
X36930Y-22740D01*
X36930Y-22598D01*
X36896Y-22497D01*
X36671Y-22415D01*
X36430Y-22425D01*
X36255Y-22497D01*
X36221Y-22598D01*
X36576Y-22953D01*
X36930Y-22598D01*
X36930Y-22740D01*
X36647Y-23024D01*
X37001Y-23378D01*
X37102Y-23344D01*
X37185Y-23118D01*
X37185Y-28204D01*
X36991Y-28204D01*
X36769Y-28296D01*
X36611Y-28454D01*
X36461Y-28304D01*
X36461Y-25794D01*
X36434Y-25660D01*
X36358Y-25547D01*
X35859Y-25047D01*
X36330Y-24576D01*
X36455Y-24628D01*
X36696Y-24628D01*
X36918Y-24536D01*
X37088Y-24366D01*
X37180Y-24144D01*
X37180Y-23904D01*
X37089Y-23682D01*
X36919Y-23511D01*
X36910Y-23508D01*
X36930Y-23449D01*
X36576Y-23094D01*
X36221Y-23449D01*
X36241Y-23508D01*
X36234Y-23511D01*
X36076Y-23669D01*
X35931Y-23523D01*
X36088Y-23366D01*
X36091Y-23358D01*
X36151Y-23378D01*
X36505Y-23024D01*
X36151Y-22669D01*
X36091Y-22689D01*
X36089Y-22682D01*
X35919Y-22511D01*
X35906Y-22506D01*
X35906Y-19197D01*
X35881Y-19071D01*
X35881Y-19071D01*
X35809Y-18964D01*
X35201Y-18356D01*
X35201Y-12983D01*
X35095Y-12726D01*
X34898Y-12528D01*
X34641Y-12422D01*
X34362Y-12421D01*
X34105Y-12528D01*
X34086Y-12547D01*
X34086Y-11006D01*
X33997Y-10791D01*
X33833Y-10626D01*
X33618Y-10537D01*
X33385Y-10536D01*
X33170Y-10625D01*
X33005Y-10790D01*
X32916Y-11005D01*
X32916Y-11237D01*
X33005Y-11452D01*
X33169Y-11617D01*
X33384Y-11706D01*
X33617Y-11707D01*
X33832Y-11618D01*
X33997Y-11453D01*
X34086Y-11238D01*
X34086Y-11006D01*
X34086Y-12547D01*
X33908Y-12725D01*
X33801Y-12982D01*
X33801Y-13260D01*
X33907Y-13518D01*
X34104Y-13715D01*
X34361Y-13821D01*
X34640Y-13822D01*
X34897Y-13715D01*
X35094Y-13519D01*
X35201Y-13261D01*
X35201Y-12983D01*
X35201Y-18356D01*
X33921Y-17075D01*
X33814Y-17003D01*
X33687Y-16978D01*
X32776Y-16978D01*
X32778Y-16974D01*
X32826Y-16735D01*
X32826Y-16608D01*
X32778Y-16369D01*
X32643Y-16166D01*
X32440Y-16031D01*
X32201Y-15983D01*
X32117Y-16000D01*
X32117Y-10337D01*
X32092Y-10211D01*
X32092Y-10211D01*
X32021Y-10104D01*
X31548Y-9631D01*
X31621Y-9601D01*
X31780Y-9442D01*
X31866Y-9234D01*
X31866Y-9010D01*
X31780Y-8802D01*
X31622Y-8643D01*
X31414Y-8557D01*
X31189Y-8556D01*
X30981Y-8642D01*
X30822Y-8801D01*
X30792Y-8875D01*
X30538Y-8621D01*
X30538Y-5008D01*
X30538Y-5008D01*
X30538Y-5008D01*
X30533Y-4983D01*
X30513Y-4882D01*
X30513Y-4882D01*
X30441Y-4775D01*
X30441Y-4775D01*
X30216Y-4550D01*
X30216Y-870D01*
X29976Y-629D01*
X29736Y-870D01*
X29750Y-954D01*
X29919Y-1011D01*
X30096Y-998D01*
X30202Y-954D01*
X30216Y-870D01*
X30216Y-4550D01*
X27694Y-2027D01*
X27587Y-1956D01*
X27460Y-1931D01*
X27241Y-1931D01*
X27262Y-1926D01*
X27262Y-1926D01*
X27370Y-1855D01*
X28701Y-524D01*
X29525Y-524D01*
X29536Y-679D01*
X29580Y-784D01*
X29665Y-799D01*
X29905Y-559D01*
X29900Y-553D01*
X29929Y-524D01*
X30023Y-524D01*
X30052Y-553D01*
X30047Y-559D01*
X30287Y-799D01*
X30372Y-784D01*
X30428Y-616D01*
X30421Y-524D01*
X33122Y-524D01*
X33558Y-960D01*
X33526Y-947D01*
X33427Y-947D01*
X32677Y-947D01*
X32585Y-984D01*
X32514Y-1055D01*
X32476Y-1147D01*
X32476Y-1246D01*
X32476Y-2096D01*
X32514Y-2188D01*
X32583Y-2258D01*
X32413Y-2428D01*
X32342Y-2535D01*
X32317Y-2661D01*
X32317Y-4801D01*
X32342Y-4927D01*
X32365Y-4962D01*
X32205Y-5028D01*
X32186Y-5047D01*
X32186Y-3506D01*
X32097Y-3291D01*
X31933Y-3126D01*
X31718Y-3037D01*
X31485Y-3036D01*
X31270Y-3125D01*
X31105Y-3290D01*
X31016Y-3505D01*
X31016Y-3737D01*
X31105Y-3952D01*
X31269Y-4117D01*
X31484Y-4206D01*
X31717Y-4207D01*
X31932Y-4118D01*
X32097Y-3953D01*
X32186Y-3738D01*
X32186Y-3506D01*
X32186Y-5047D01*
X32008Y-5225D01*
X31901Y-5482D01*
X31901Y-5760D01*
X32007Y-6018D01*
X32204Y-6215D01*
X32461Y-6321D01*
X32740Y-6322D01*
X32997Y-6215D01*
X33194Y-6019D01*
X33254Y-5875D01*
X33324Y-5945D01*
X33324Y-8310D01*
X33349Y-8436D01*
X33421Y-8543D01*
X34233Y-9355D01*
X34340Y-9426D01*
X34340Y-9426D01*
X34376Y-9434D01*
X34376Y-9596D01*
X34414Y-9688D01*
X34484Y-9758D01*
X34576Y-9797D01*
X34676Y-9797D01*
X35209Y-9797D01*
X35499Y-10087D01*
X35296Y-10086D01*
X34916Y-10244D01*
X34624Y-10535D01*
X34466Y-10915D01*
X34466Y-11327D01*
X34623Y-11707D01*
X34914Y-11998D01*
X35294Y-12156D01*
X35706Y-12157D01*
X36060Y-12011D01*
X36060Y-14845D01*
X36085Y-14972D01*
X36156Y-15079D01*
X37933Y-16855D01*
X37933Y-16855D01*
X38040Y-16926D01*
X38040Y-16926D01*
X38076Y-16934D01*
X38076Y-17096D01*
X38114Y-17188D01*
X38184Y-17258D01*
X38276Y-17297D01*
X38376Y-17297D01*
X39126Y-17297D01*
X39218Y-17259D01*
X39288Y-17188D01*
X39302Y-17155D01*
X39462Y-17262D01*
X39701Y-17310D01*
X39940Y-17262D01*
X40143Y-17127D01*
X40278Y-16924D01*
X40326Y-16685D01*
X40326Y-16558D01*
X40278Y-16319D01*
X40143Y-16116D01*
X39940Y-15981D01*
X39701Y-15933D01*
X39462Y-15981D01*
X39302Y-16088D01*
X39288Y-16055D01*
X39218Y-15985D01*
X39126Y-15947D01*
X39027Y-15947D01*
X38277Y-15947D01*
X38185Y-15984D01*
X38114Y-16055D01*
X38100Y-16089D01*
X36720Y-14709D01*
X36720Y-12763D01*
X36861Y-12821D01*
X37140Y-12822D01*
X37397Y-12715D01*
X37594Y-12519D01*
X37622Y-12452D01*
X38053Y-12452D01*
X38089Y-12538D01*
X38159Y-12608D01*
X38251Y-12647D01*
X38350Y-12647D01*
X38700Y-12647D01*
X38792Y-12609D01*
X38851Y-12550D01*
X38909Y-12608D01*
X39001Y-12647D01*
X39100Y-12647D01*
X39450Y-12647D01*
X39542Y-12609D01*
X39562Y-12589D01*
X42396Y-15423D01*
X42396Y-16175D01*
X42279Y-16175D01*
X42114Y-16243D01*
X41988Y-16368D01*
X41920Y-16532D01*
X41920Y-16710D01*
X41988Y-16874D01*
X42037Y-16923D01*
X42037Y-19097D01*
X41751Y-19097D01*
X41659Y-19134D01*
X41589Y-19205D01*
X41553Y-19292D01*
X41322Y-19292D01*
X41295Y-19226D01*
X41276Y-19207D01*
X41317Y-19207D01*
X41532Y-19118D01*
X41697Y-18953D01*
X41786Y-18738D01*
X41786Y-18506D01*
X41697Y-18291D01*
X41533Y-18126D01*
X41318Y-18037D01*
X41085Y-18036D01*
X40870Y-18125D01*
X40705Y-18290D01*
X40616Y-18505D01*
X40616Y-18737D01*
X40692Y-18922D01*
X40562Y-18921D01*
X40305Y-19028D01*
X40236Y-19096D01*
X40236Y-18417D01*
X40079Y-18036D01*
X39788Y-17745D01*
X39408Y-17587D01*
X38996Y-17586D01*
X38616Y-17744D01*
X38324Y-18035D01*
X38166Y-18415D01*
X38166Y-18827D01*
X38323Y-19207D01*
X38614Y-19498D01*
X38994Y-19656D01*
X39406Y-19657D01*
X39787Y-19499D01*
X40078Y-19209D01*
X40236Y-18828D01*
X40236Y-18417D01*
X40236Y-19096D01*
X40108Y-19225D01*
X40001Y-19482D01*
X40001Y-19760D01*
X40107Y-20018D01*
X40304Y-20215D01*
X40561Y-20321D01*
X40840Y-20322D01*
X41097Y-20215D01*
X41294Y-20019D01*
X41322Y-19952D01*
X41553Y-19952D01*
X41589Y-20038D01*
X41659Y-20108D01*
X41751Y-20147D01*
X41850Y-20147D01*
X42106Y-20147D01*
X42134Y-20188D01*
X43892Y-21946D01*
X43892Y-21946D01*
X43999Y-22017D01*
X43999Y-22017D01*
X44100Y-22038D01*
X44125Y-22043D01*
X44125Y-22043D01*
X44125Y-22043D01*
X44538Y-22043D01*
X44538Y-22165D01*
X44606Y-22329D01*
X44655Y-22378D01*
X44655Y-22534D01*
X44655Y-22534D01*
G37*
G54D34*
X44655Y-22534D02*
X38901Y-28287D01*
X38901Y-20483D01*
X38795Y-20226D01*
X38598Y-20028D01*
X38341Y-19922D01*
X38062Y-19921D01*
X37805Y-20028D01*
X37786Y-20047D01*
X37786Y-18506D01*
X37697Y-18291D01*
X37533Y-18126D01*
X37318Y-18037D01*
X37085Y-18036D01*
X36870Y-18125D01*
X36705Y-18290D01*
X36616Y-18505D01*
X36616Y-18737D01*
X36705Y-18952D01*
X36869Y-19117D01*
X37084Y-19206D01*
X37317Y-19207D01*
X37532Y-19118D01*
X37697Y-18953D01*
X37786Y-18738D01*
X37786Y-18506D01*
X37786Y-20047D01*
X37608Y-20225D01*
X37501Y-20482D01*
X37501Y-20760D01*
X37607Y-21018D01*
X37804Y-21215D01*
X38061Y-21321D01*
X38340Y-21322D01*
X38597Y-21215D01*
X38794Y-21019D01*
X38901Y-20761D01*
X38901Y-20483D01*
X38901Y-28287D01*
X38656Y-28533D01*
X38637Y-28488D01*
X38536Y-28454D01*
X38465Y-28525D01*
X38465Y-28383D01*
X38431Y-28282D01*
X38206Y-28200D01*
X37965Y-28210D01*
X37790Y-28282D01*
X37756Y-28383D01*
X38111Y-28738D01*
X38465Y-28383D01*
X38465Y-28525D01*
X38182Y-28809D01*
X38187Y-28814D01*
X38116Y-28885D01*
X38111Y-28879D01*
X38105Y-28885D01*
X38035Y-28814D01*
X38040Y-28809D01*
X37686Y-28454D01*
X37627Y-28474D01*
X37624Y-28467D01*
X37454Y-28297D01*
X37232Y-28204D01*
X37185Y-28204D01*
X37185Y-23118D01*
X37175Y-22878D01*
X37102Y-22703D01*
X37001Y-22669D01*
X36930Y-22740D01*
X36930Y-22598D01*
X36896Y-22497D01*
X36671Y-22415D01*
X36430Y-22425D01*
X36255Y-22497D01*
X36221Y-22598D01*
X36576Y-22953D01*
X36930Y-22598D01*
X36930Y-22740D01*
X36647Y-23024D01*
X37001Y-23378D01*
X37102Y-23344D01*
X37185Y-23118D01*
X37185Y-28204D01*
X36991Y-28204D01*
X36769Y-28296D01*
X36611Y-28454D01*
X36461Y-28304D01*
X36461Y-25794D01*
X36434Y-25660D01*
X36358Y-25547D01*
X35859Y-25047D01*
X36330Y-24576D01*
X36455Y-24628D01*
X36696Y-24628D01*
X36918Y-24536D01*
X37088Y-24366D01*
X37180Y-24144D01*
X37180Y-23904D01*
X37089Y-23682D01*
X36919Y-23511D01*
X36910Y-23508D01*
X36930Y-23449D01*
X36576Y-23094D01*
X36221Y-23449D01*
X36241Y-23508D01*
X36234Y-23511D01*
X36076Y-23669D01*
X35931Y-23523D01*
X36088Y-23366D01*
X36091Y-23358D01*
X36151Y-23378D01*
X36505Y-23024D01*
X36151Y-22669D01*
X36091Y-22689D01*
X36089Y-22682D01*
X35919Y-22511D01*
X35906Y-22506D01*
X35906Y-19197D01*
X35881Y-19071D01*
X35881Y-19071D01*
X35809Y-18964D01*
X35201Y-18356D01*
X35201Y-12983D01*
X35095Y-12726D01*
X34898Y-12528D01*
X34641Y-12422D01*
X34362Y-12421D01*
X34105Y-12528D01*
X34086Y-12547D01*
X34086Y-11006D01*
X33997Y-10791D01*
X33833Y-10626D01*
X33618Y-10537D01*
X33385Y-10536D01*
X33170Y-10625D01*
X33005Y-10790D01*
X32916Y-11005D01*
X32916Y-11237D01*
X33005Y-11452D01*
X33169Y-11617D01*
X33384Y-11706D01*
X33617Y-11707D01*
X33832Y-11618D01*
X33997Y-11453D01*
X34086Y-11238D01*
X34086Y-11006D01*
X34086Y-12547D01*
X33908Y-12725D01*
X33801Y-12982D01*
X33801Y-13260D01*
X33907Y-13518D01*
X34104Y-13715D01*
X34361Y-13821D01*
X34640Y-13822D01*
X34897Y-13715D01*
X35094Y-13519D01*
X35201Y-13261D01*
X35201Y-12983D01*
X35201Y-18356D01*
X33921Y-17075D01*
X33814Y-17003D01*
X33687Y-16978D01*
X32776Y-16978D01*
X32778Y-16974D01*
X32826Y-16735D01*
X32826Y-16608D01*
X32778Y-16369D01*
X32643Y-16166D01*
X32440Y-16031D01*
X32201Y-15983D01*
X32117Y-16000D01*
X32117Y-10337D01*
X32092Y-10211D01*
X32092Y-10211D01*
X32021Y-10104D01*
X31548Y-9631D01*
X31621Y-9601D01*
X31780Y-9442D01*
X31866Y-9234D01*
X31866Y-9010D01*
X31780Y-8802D01*
X31622Y-8643D01*
X31414Y-8557D01*
X31189Y-8556D01*
X30981Y-8642D01*
X30822Y-8801D01*
X30792Y-8875D01*
X30538Y-8621D01*
X30538Y-5008D01*
X30538Y-5008D01*
X30538Y-5008D01*
X30533Y-4983D01*
X30513Y-4882D01*
X30513Y-4882D01*
X30441Y-4775D01*
X30441Y-4775D01*
X30216Y-4550D01*
X30216Y-870D01*
X29976Y-629D01*
X29736Y-870D01*
X29750Y-954D01*
X29919Y-1011D01*
X30096Y-998D01*
X30202Y-954D01*
X30216Y-870D01*
X30216Y-4550D01*
X27694Y-2027D01*
X27587Y-1956D01*
X27460Y-1931D01*
X27241Y-1931D01*
X27262Y-1926D01*
X27262Y-1926D01*
X27370Y-1855D01*
X28701Y-524D01*
X29525Y-524D01*
X29536Y-679D01*
X29580Y-784D01*
X29665Y-799D01*
X29905Y-559D01*
X29900Y-553D01*
X29929Y-524D01*
X30023Y-524D01*
X30052Y-553D01*
X30047Y-559D01*
X30287Y-799D01*
X30372Y-784D01*
X30428Y-616D01*
X30421Y-524D01*
X33122Y-524D01*
X33558Y-960D01*
X33526Y-947D01*
X33427Y-947D01*
X32677Y-947D01*
X32585Y-984D01*
X32514Y-1055D01*
X32476Y-1147D01*
X32476Y-1246D01*
X32476Y-2096D01*
X32514Y-2188D01*
X32583Y-2258D01*
X32413Y-2428D01*
X32342Y-2535D01*
X32317Y-2661D01*
X32317Y-4801D01*
X32342Y-4927D01*
X32365Y-4962D01*
X32205Y-5028D01*
X32186Y-5047D01*
X32186Y-3506D01*
X32097Y-3291D01*
X31933Y-3126D01*
X31718Y-3037D01*
X31485Y-3036D01*
X31270Y-3125D01*
X31105Y-3290D01*
X31016Y-3505D01*
X31016Y-3737D01*
X31105Y-3952D01*
X31269Y-4117D01*
X31484Y-4206D01*
X31717Y-4207D01*
X31932Y-4118D01*
X32097Y-3953D01*
X32186Y-3738D01*
X32186Y-3506D01*
X32186Y-5047D01*
X32008Y-5225D01*
X31901Y-5482D01*
X31901Y-5760D01*
X32007Y-6018D01*
X32204Y-6215D01*
X32461Y-6321D01*
X32740Y-6322D01*
X32997Y-6215D01*
X33194Y-6019D01*
X33254Y-5875D01*
X33324Y-5945D01*
X33324Y-8310D01*
X33349Y-8436D01*
X33421Y-8543D01*
X34233Y-9355D01*
X34340Y-9426D01*
X34340Y-9426D01*
X34376Y-9434D01*
X34376Y-9596D01*
X34414Y-9688D01*
X34484Y-9758D01*
X34576Y-9797D01*
X34676Y-9797D01*
X35209Y-9797D01*
X35499Y-10087D01*
X35296Y-10086D01*
X34916Y-10244D01*
X34624Y-10535D01*
X34466Y-10915D01*
X34466Y-11327D01*
X34623Y-11707D01*
X34914Y-11998D01*
X35294Y-12156D01*
X35706Y-12157D01*
X36060Y-12011D01*
X36060Y-14845D01*
X36085Y-14972D01*
X36156Y-15079D01*
X37933Y-16855D01*
X37933Y-16855D01*
X38040Y-16926D01*
X38040Y-16926D01*
X38076Y-16934D01*
X38076Y-17096D01*
X38114Y-17188D01*
X38184Y-17258D01*
X38276Y-17297D01*
X38376Y-17297D01*
X39126Y-17297D01*
X39218Y-17259D01*
X39288Y-17188D01*
X39302Y-17155D01*
X39462Y-17262D01*
X39701Y-17310D01*
X39940Y-17262D01*
X40143Y-17127D01*
X40278Y-16924D01*
X40326Y-16685D01*
X40326Y-16558D01*
X40278Y-16319D01*
X40143Y-16116D01*
X39940Y-15981D01*
X39701Y-15933D01*
X39462Y-15981D01*
X39302Y-16088D01*
X39288Y-16055D01*
X39218Y-15985D01*
X39126Y-15947D01*
X39027Y-15947D01*
X38277Y-15947D01*
X38185Y-15984D01*
X38114Y-16055D01*
X38100Y-16089D01*
X36720Y-14709D01*
X36720Y-12763D01*
X36861Y-12821D01*
X37140Y-12822D01*
X37397Y-12715D01*
X37594Y-12519D01*
X37622Y-12452D01*
X38053Y-12452D01*
X38089Y-12538D01*
X38159Y-12608D01*
X38251Y-12647D01*
X38350Y-12647D01*
X38700Y-12647D01*
X38792Y-12609D01*
X38851Y-12550D01*
X38909Y-12608D01*
X39001Y-12647D01*
X39100Y-12647D01*
X39450Y-12647D01*
X39542Y-12609D01*
X39562Y-12589D01*
X42396Y-15423D01*
X42396Y-16175D01*
X42279Y-16175D01*
X42114Y-16243D01*
X41988Y-16368D01*
X41920Y-16532D01*
X41920Y-16710D01*
X41988Y-16874D01*
X42037Y-16923D01*
X42037Y-19097D01*
X41751Y-19097D01*
X41659Y-19134D01*
X41589Y-19205D01*
X41553Y-19292D01*
X41322Y-19292D01*
X41295Y-19226D01*
X41276Y-19207D01*
X41317Y-19207D01*
X41532Y-19118D01*
X41697Y-18953D01*
X41786Y-18738D01*
X41786Y-18506D01*
X41697Y-18291D01*
X41533Y-18126D01*
X41318Y-18037D01*
X41085Y-18036D01*
X40870Y-18125D01*
X40705Y-18290D01*
X40616Y-18505D01*
X40616Y-18737D01*
X40692Y-18922D01*
X40562Y-18921D01*
X40305Y-19028D01*
X40236Y-19096D01*
X40236Y-18417D01*
X40079Y-18036D01*
X39788Y-17745D01*
X39408Y-17587D01*
X38996Y-17586D01*
X38616Y-17744D01*
X38324Y-18035D01*
X38166Y-18415D01*
X38166Y-18827D01*
X38323Y-19207D01*
X38614Y-19498D01*
X38994Y-19656D01*
X39406Y-19657D01*
X39787Y-19499D01*
X40078Y-19209D01*
X40236Y-18828D01*
X40236Y-18417D01*
X40236Y-19096D01*
X40108Y-19225D01*
X40001Y-19482D01*
X40001Y-19760D01*
X40107Y-20018D01*
X40304Y-20215D01*
X40561Y-20321D01*
X40840Y-20322D01*
X41097Y-20215D01*
X41294Y-20019D01*
X41322Y-19952D01*
X41553Y-19952D01*
X41589Y-20038D01*
X41659Y-20108D01*
X41751Y-20147D01*
X41850Y-20147D01*
X42106Y-20147D01*
X42134Y-20188D01*
X43892Y-21946D01*
X43892Y-21946D01*
X43999Y-22017D01*
X43999Y-22017D01*
X44100Y-22038D01*
X44125Y-22043D01*
X44125Y-22043D01*
X44125Y-22043D01*
X44538Y-22043D01*
X44538Y-22165D01*
X44606Y-22329D01*
X44655Y-22378D01*
X44655Y-22534D01*
G54D10*
G36*
X53650Y-27156D02*
X53595Y-27134D01*
X53483Y-27134D01*
X53421Y-27196D01*
X53421Y-27609D01*
X53429Y-27609D01*
X53429Y-27709D01*
X53421Y-27709D01*
X53421Y-28121D01*
X53448Y-28148D01*
X53426Y-28171D01*
X53426Y-28583D01*
X53434Y-28583D01*
X53434Y-28683D01*
X53426Y-28683D01*
X53426Y-28691D01*
X53326Y-28691D01*
X53326Y-28683D01*
X53318Y-28683D01*
X53318Y-28583D01*
X53326Y-28583D01*
X53326Y-28171D01*
X53298Y-28144D01*
X53321Y-28121D01*
X53321Y-27709D01*
X53321Y-27609D01*
X53321Y-27196D01*
X53258Y-27134D01*
X53146Y-27134D01*
X53055Y-27171D01*
X52984Y-27242D01*
X52946Y-27334D01*
X52946Y-27433D01*
X52946Y-27546D01*
X53008Y-27609D01*
X53321Y-27609D01*
X53321Y-27709D01*
X53008Y-27709D01*
X52946Y-27771D01*
X52946Y-27884D01*
X52946Y-27984D01*
X52984Y-28075D01*
X53055Y-28146D01*
X53058Y-28147D01*
X52989Y-28217D01*
X52951Y-28308D01*
X52951Y-28408D01*
X52951Y-28521D01*
X53013Y-28583D01*
X52951Y-28583D01*
X52951Y-28623D01*
X52116Y-27789D01*
X52116Y-26113D01*
X52170Y-26195D01*
X52600Y-26625D01*
X52600Y-26693D01*
X52668Y-26858D01*
X52794Y-26983D01*
X52958Y-27052D01*
X53136Y-27052D01*
X53300Y-26984D01*
X53389Y-26895D01*
X53650Y-27156D01*
X53650Y-27156D01*
G37*
G54D34*
X53650Y-27156D02*
X53595Y-27134D01*
X53483Y-27134D01*
X53421Y-27196D01*
X53421Y-27609D01*
X53429Y-27609D01*
X53429Y-27709D01*
X53421Y-27709D01*
X53421Y-28121D01*
X53448Y-28148D01*
X53426Y-28171D01*
X53426Y-28583D01*
X53434Y-28583D01*
X53434Y-28683D01*
X53426Y-28683D01*
X53426Y-28691D01*
X53326Y-28691D01*
X53326Y-28683D01*
X53318Y-28683D01*
X53318Y-28583D01*
X53326Y-28583D01*
X53326Y-28171D01*
X53298Y-28144D01*
X53321Y-28121D01*
X53321Y-27709D01*
X53321Y-27609D01*
X53321Y-27196D01*
X53258Y-27134D01*
X53146Y-27134D01*
X53055Y-27171D01*
X52984Y-27242D01*
X52946Y-27334D01*
X52946Y-27433D01*
X52946Y-27546D01*
X53008Y-27609D01*
X53321Y-27609D01*
X53321Y-27709D01*
X53008Y-27709D01*
X52946Y-27771D01*
X52946Y-27884D01*
X52946Y-27984D01*
X52984Y-28075D01*
X53055Y-28146D01*
X53058Y-28147D01*
X52989Y-28217D01*
X52951Y-28308D01*
X52951Y-28408D01*
X52951Y-28521D01*
X53013Y-28583D01*
X52951Y-28583D01*
X52951Y-28623D01*
X52116Y-27789D01*
X52116Y-26113D01*
X52170Y-26195D01*
X52600Y-26625D01*
X52600Y-26693D01*
X52668Y-26858D01*
X52794Y-26983D01*
X52958Y-27052D01*
X53136Y-27052D01*
X53300Y-26984D01*
X53389Y-26895D01*
X53650Y-27156D01*
G54D10*
G36*
X57516Y-21934D02*
X57452Y-21998D01*
X57384Y-22162D01*
X57384Y-22339D01*
X57452Y-22504D01*
X57499Y-22550D01*
X57482Y-22567D01*
X57414Y-22731D01*
X57414Y-22801D01*
X57344Y-22870D01*
X57218Y-22896D01*
X57111Y-22967D01*
X57039Y-23074D01*
X57029Y-23125D01*
X57019Y-23074D01*
X56947Y-22967D01*
X56934Y-22958D01*
X56633Y-22658D01*
X56634Y-22589D01*
X56566Y-22425D01*
X56440Y-22299D01*
X56276Y-22231D01*
X56098Y-22231D01*
X55934Y-22298D01*
X55808Y-22424D01*
X55740Y-22588D01*
X55740Y-22766D01*
X55766Y-22830D01*
X55454Y-22830D01*
X55320Y-22857D01*
X55224Y-22921D01*
X55178Y-22921D01*
X55014Y-22989D01*
X54984Y-23018D01*
X54974Y-23018D01*
X54840Y-23044D01*
X54727Y-23120D01*
X54727Y-23120D01*
X54688Y-23159D01*
X54646Y-23159D01*
X54296Y-23159D01*
X54205Y-23197D01*
X54146Y-23255D01*
X54087Y-23197D01*
X53995Y-23159D01*
X53883Y-23159D01*
X53821Y-23221D01*
X53821Y-23634D01*
X53829Y-23634D01*
X53829Y-23734D01*
X53821Y-23734D01*
X53821Y-23742D01*
X53721Y-23742D01*
X53721Y-23734D01*
X53713Y-23734D01*
X53713Y-23634D01*
X53721Y-23634D01*
X53721Y-23221D01*
X53658Y-23159D01*
X53654Y-23159D01*
X54878Y-21934D01*
X57516Y-21934D01*
X57516Y-21934D01*
G37*
G54D34*
X57516Y-21934D02*
X57452Y-21998D01*
X57384Y-22162D01*
X57384Y-22339D01*
X57452Y-22504D01*
X57499Y-22550D01*
X57482Y-22567D01*
X57414Y-22731D01*
X57414Y-22801D01*
X57344Y-22870D01*
X57218Y-22896D01*
X57111Y-22967D01*
X57039Y-23074D01*
X57029Y-23125D01*
X57019Y-23074D01*
X56947Y-22967D01*
X56934Y-22958D01*
X56633Y-22658D01*
X56634Y-22589D01*
X56566Y-22425D01*
X56440Y-22299D01*
X56276Y-22231D01*
X56098Y-22231D01*
X55934Y-22298D01*
X55808Y-22424D01*
X55740Y-22588D01*
X55740Y-22766D01*
X55766Y-22830D01*
X55454Y-22830D01*
X55320Y-22857D01*
X55224Y-22921D01*
X55178Y-22921D01*
X55014Y-22989D01*
X54984Y-23018D01*
X54974Y-23018D01*
X54840Y-23044D01*
X54727Y-23120D01*
X54727Y-23120D01*
X54688Y-23159D01*
X54646Y-23159D01*
X54296Y-23159D01*
X54205Y-23197D01*
X54146Y-23255D01*
X54087Y-23197D01*
X53995Y-23159D01*
X53883Y-23159D01*
X53821Y-23221D01*
X53821Y-23634D01*
X53829Y-23634D01*
X53829Y-23734D01*
X53821Y-23734D01*
X53821Y-23742D01*
X53721Y-23742D01*
X53721Y-23734D01*
X53713Y-23734D01*
X53713Y-23634D01*
X53721Y-23634D01*
X53721Y-23221D01*
X53658Y-23159D01*
X53654Y-23159D01*
X54878Y-21934D01*
X57516Y-21934D01*
G54D10*
G36*
X58078Y-27210D02*
X56296Y-27210D01*
X56356Y-27150D01*
X56424Y-26985D01*
X56424Y-26916D01*
X56632Y-26708D01*
X56632Y-26708D01*
X56632Y-26708D01*
X56704Y-26601D01*
X56704Y-26601D01*
X56729Y-26474D01*
X56729Y-24368D01*
X56840Y-24346D01*
X56880Y-24319D01*
X56938Y-24346D01*
X56989Y-24293D01*
X56989Y-24212D01*
X57019Y-24167D01*
X57029Y-24116D01*
X57039Y-24167D01*
X57069Y-24212D01*
X57069Y-24293D01*
X57120Y-24346D01*
X57178Y-24319D01*
X57218Y-24346D01*
X57309Y-24364D01*
X57309Y-24811D01*
X57336Y-24945D01*
X57412Y-25059D01*
X58078Y-25725D01*
X58078Y-27210D01*
X58078Y-27210D01*
G37*
G54D34*
X58078Y-27210D02*
X56296Y-27210D01*
X56356Y-27150D01*
X56424Y-26985D01*
X56424Y-26916D01*
X56632Y-26708D01*
X56632Y-26708D01*
X56632Y-26708D01*
X56704Y-26601D01*
X56704Y-26601D01*
X56729Y-26474D01*
X56729Y-24368D01*
X56840Y-24346D01*
X56880Y-24319D01*
X56938Y-24346D01*
X56989Y-24293D01*
X56989Y-24212D01*
X57019Y-24167D01*
X57029Y-24116D01*
X57039Y-24167D01*
X57069Y-24212D01*
X57069Y-24293D01*
X57120Y-24346D01*
X57178Y-24319D01*
X57218Y-24346D01*
X57309Y-24364D01*
X57309Y-24811D01*
X57336Y-24945D01*
X57412Y-25059D01*
X58078Y-25725D01*
X58078Y-27210D01*
G54D10*
G36*
X60363Y-28514D02*
X59249Y-28514D01*
X59249Y-28285D01*
X58959Y-28285D01*
X58959Y-28292D01*
X58942Y-28292D01*
X58954Y-28235D01*
X58954Y-28177D01*
X58959Y-28177D01*
X58959Y-28185D01*
X59249Y-28185D01*
X59249Y-27891D01*
X59246Y-27881D01*
X59288Y-27890D01*
X59900Y-27890D01*
X59953Y-27879D01*
X59999Y-27926D01*
X60163Y-27994D01*
X60341Y-27994D01*
X60350Y-27990D01*
X60350Y-28447D01*
X60363Y-28514D01*
X60363Y-28514D01*
G37*
G54D34*
X60363Y-28514D02*
X59249Y-28514D01*
X59249Y-28285D01*
X58959Y-28285D01*
X58959Y-28292D01*
X58942Y-28292D01*
X58954Y-28235D01*
X58954Y-28177D01*
X58959Y-28177D01*
X58959Y-28185D01*
X59249Y-28185D01*
X59249Y-27891D01*
X59246Y-27881D01*
X59288Y-27890D01*
X59900Y-27890D01*
X59953Y-27879D01*
X59999Y-27926D01*
X60163Y-27994D01*
X60341Y-27994D01*
X60350Y-27990D01*
X60350Y-28447D01*
X60363Y-28514D01*
G54D10*
G36*
X61079Y-28159D02*
X61071Y-28159D01*
X61071Y-28166D01*
X61010Y-28166D01*
X61010Y-28051D01*
X61071Y-28051D01*
X61071Y-28059D01*
X61079Y-28059D01*
X61079Y-28159D01*
X61079Y-28159D01*
G37*
G54D34*
X61079Y-28159D02*
X61071Y-28159D01*
X61071Y-28166D01*
X61010Y-28166D01*
X61010Y-28051D01*
X61071Y-28051D01*
X61071Y-28059D01*
X61079Y-28059D01*
X61079Y-28159D01*
G54D10*
G36*
X61221Y-24684D02*
X61133Y-24684D01*
X61071Y-24746D01*
X61071Y-25159D01*
X61079Y-25159D01*
X61079Y-25259D01*
X61071Y-25259D01*
X61071Y-25671D01*
X61133Y-25734D01*
X61160Y-25734D01*
X61131Y-25763D01*
X61131Y-26176D01*
X61139Y-26176D01*
X61139Y-26276D01*
X61131Y-26276D01*
X61131Y-26283D01*
X61031Y-26283D01*
X61031Y-26276D01*
X61023Y-26276D01*
X61023Y-26176D01*
X61031Y-26176D01*
X61031Y-25763D01*
X60968Y-25700D01*
X60942Y-25700D01*
X60971Y-25671D01*
X60971Y-25259D01*
X60658Y-25259D01*
X60596Y-25321D01*
X60596Y-25434D01*
X60596Y-25516D01*
X60589Y-25516D01*
X60509Y-25436D01*
X60402Y-25365D01*
X60276Y-25340D01*
X60218Y-25340D01*
X60218Y-25305D01*
X60163Y-25305D01*
X60205Y-25264D01*
X60179Y-25205D01*
X60205Y-25166D01*
X60222Y-25080D01*
X60302Y-25113D01*
X60480Y-25113D01*
X60596Y-25065D01*
X60596Y-25096D01*
X60658Y-25159D01*
X60971Y-25159D01*
X60971Y-24746D01*
X60908Y-24684D01*
X60838Y-24684D01*
X60838Y-24577D01*
X60770Y-24413D01*
X60645Y-24287D01*
X60633Y-24282D01*
X60645Y-24223D01*
X60645Y-24147D01*
X60671Y-24121D01*
X60671Y-23709D01*
X60663Y-23709D01*
X60663Y-23609D01*
X60671Y-23609D01*
X60671Y-23601D01*
X60771Y-23601D01*
X60771Y-23609D01*
X60779Y-23609D01*
X60779Y-23709D01*
X60771Y-23709D01*
X60771Y-24121D01*
X60833Y-24184D01*
X60945Y-24184D01*
X61037Y-24146D01*
X61097Y-24086D01*
X61129Y-24119D01*
X61148Y-24127D01*
X61148Y-24481D01*
X61175Y-24615D01*
X61221Y-24684D01*
X61221Y-24684D01*
G37*
G54D34*
X61221Y-24684D02*
X61133Y-24684D01*
X61071Y-24746D01*
X61071Y-25159D01*
X61079Y-25159D01*
X61079Y-25259D01*
X61071Y-25259D01*
X61071Y-25671D01*
X61133Y-25734D01*
X61160Y-25734D01*
X61131Y-25763D01*
X61131Y-26176D01*
X61139Y-26176D01*
X61139Y-26276D01*
X61131Y-26276D01*
X61131Y-26283D01*
X61031Y-26283D01*
X61031Y-26276D01*
X61023Y-26276D01*
X61023Y-26176D01*
X61031Y-26176D01*
X61031Y-25763D01*
X60968Y-25700D01*
X60942Y-25700D01*
X60971Y-25671D01*
X60971Y-25259D01*
X60658Y-25259D01*
X60596Y-25321D01*
X60596Y-25434D01*
X60596Y-25516D01*
X60589Y-25516D01*
X60509Y-25436D01*
X60402Y-25365D01*
X60276Y-25340D01*
X60218Y-25340D01*
X60218Y-25305D01*
X60163Y-25305D01*
X60205Y-25264D01*
X60179Y-25205D01*
X60205Y-25166D01*
X60222Y-25080D01*
X60302Y-25113D01*
X60480Y-25113D01*
X60596Y-25065D01*
X60596Y-25096D01*
X60658Y-25159D01*
X60971Y-25159D01*
X60971Y-24746D01*
X60908Y-24684D01*
X60838Y-24684D01*
X60838Y-24577D01*
X60770Y-24413D01*
X60645Y-24287D01*
X60633Y-24282D01*
X60645Y-24223D01*
X60645Y-24147D01*
X60671Y-24121D01*
X60671Y-23709D01*
X60663Y-23709D01*
X60663Y-23609D01*
X60671Y-23609D01*
X60671Y-23601D01*
X60771Y-23601D01*
X60771Y-23609D01*
X60779Y-23609D01*
X60779Y-23709D01*
X60771Y-23709D01*
X60771Y-24121D01*
X60833Y-24184D01*
X60945Y-24184D01*
X61037Y-24146D01*
X61097Y-24086D01*
X61129Y-24119D01*
X61148Y-24127D01*
X61148Y-24481D01*
X61175Y-24615D01*
X61221Y-24684D01*
G54D10*
G36*
X62976Y-5019D02*
X62741Y-4922D01*
X62462Y-4921D01*
X62205Y-5028D01*
X62008Y-5225D01*
X61901Y-5482D01*
X61901Y-5760D01*
X61929Y-5827D01*
X61754Y-6002D01*
X60485Y-6002D01*
X60485Y-5653D01*
X60475Y-5413D01*
X60402Y-5238D01*
X60301Y-5204D01*
X60230Y-5275D01*
X60230Y-5133D01*
X60196Y-5032D01*
X59971Y-4950D01*
X59730Y-4960D01*
X59555Y-5032D01*
X59521Y-5133D01*
X59876Y-5488D01*
X60230Y-5133D01*
X60230Y-5275D01*
X59947Y-5559D01*
X60301Y-5913D01*
X60402Y-5879D01*
X60485Y-5653D01*
X60485Y-6002D01*
X60224Y-6002D01*
X60230Y-5984D01*
X59876Y-5629D01*
X59805Y-5700D01*
X59805Y-5559D01*
X59451Y-5204D01*
X59350Y-5238D01*
X59267Y-5464D01*
X59277Y-5704D01*
X59350Y-5879D01*
X59451Y-5913D01*
X59805Y-5559D01*
X59805Y-5700D01*
X59521Y-5984D01*
X59527Y-6002D01*
X58126Y-6002D01*
X58126Y-5772D01*
X58088Y-5680D01*
X58018Y-5610D01*
X57931Y-5574D01*
X57931Y-5243D01*
X57997Y-5215D01*
X58194Y-5019D01*
X58301Y-4761D01*
X58301Y-4483D01*
X58195Y-4226D01*
X58176Y-4207D01*
X58217Y-4207D01*
X58432Y-4118D01*
X58597Y-3953D01*
X58686Y-3738D01*
X58686Y-3506D01*
X58631Y-3372D01*
X59299Y-3372D01*
X59272Y-3438D01*
X59271Y-3678D01*
X59363Y-3900D01*
X59533Y-4071D01*
X59755Y-4163D01*
X59996Y-4163D01*
X60218Y-4071D01*
X60388Y-3901D01*
X60480Y-3679D01*
X60480Y-3439D01*
X60453Y-3372D01*
X61071Y-3372D01*
X61016Y-3505D01*
X61016Y-3737D01*
X61105Y-3952D01*
X61269Y-4117D01*
X61484Y-4206D01*
X61717Y-4207D01*
X61932Y-4118D01*
X62097Y-3953D01*
X62186Y-3738D01*
X62186Y-3506D01*
X62131Y-3372D01*
X62311Y-3372D01*
X62311Y-4218D01*
X62336Y-4344D01*
X62407Y-4451D01*
X62976Y-5019D01*
X62976Y-5019D01*
G37*
G54D34*
X62976Y-5019D02*
X62741Y-4922D01*
X62462Y-4921D01*
X62205Y-5028D01*
X62008Y-5225D01*
X61901Y-5482D01*
X61901Y-5760D01*
X61929Y-5827D01*
X61754Y-6002D01*
X60485Y-6002D01*
X60485Y-5653D01*
X60475Y-5413D01*
X60402Y-5238D01*
X60301Y-5204D01*
X60230Y-5275D01*
X60230Y-5133D01*
X60196Y-5032D01*
X59971Y-4950D01*
X59730Y-4960D01*
X59555Y-5032D01*
X59521Y-5133D01*
X59876Y-5488D01*
X60230Y-5133D01*
X60230Y-5275D01*
X59947Y-5559D01*
X60301Y-5913D01*
X60402Y-5879D01*
X60485Y-5653D01*
X60485Y-6002D01*
X60224Y-6002D01*
X60230Y-5984D01*
X59876Y-5629D01*
X59805Y-5700D01*
X59805Y-5559D01*
X59451Y-5204D01*
X59350Y-5238D01*
X59267Y-5464D01*
X59277Y-5704D01*
X59350Y-5879D01*
X59451Y-5913D01*
X59805Y-5559D01*
X59805Y-5700D01*
X59521Y-5984D01*
X59527Y-6002D01*
X58126Y-6002D01*
X58126Y-5772D01*
X58088Y-5680D01*
X58018Y-5610D01*
X57931Y-5574D01*
X57931Y-5243D01*
X57997Y-5215D01*
X58194Y-5019D01*
X58301Y-4761D01*
X58301Y-4483D01*
X58195Y-4226D01*
X58176Y-4207D01*
X58217Y-4207D01*
X58432Y-4118D01*
X58597Y-3953D01*
X58686Y-3738D01*
X58686Y-3506D01*
X58631Y-3372D01*
X59299Y-3372D01*
X59272Y-3438D01*
X59271Y-3678D01*
X59363Y-3900D01*
X59533Y-4071D01*
X59755Y-4163D01*
X59996Y-4163D01*
X60218Y-4071D01*
X60388Y-3901D01*
X60480Y-3679D01*
X60480Y-3439D01*
X60453Y-3372D01*
X61071Y-3372D01*
X61016Y-3505D01*
X61016Y-3737D01*
X61105Y-3952D01*
X61269Y-4117D01*
X61484Y-4206D01*
X61717Y-4207D01*
X61932Y-4118D01*
X62097Y-3953D01*
X62186Y-3738D01*
X62186Y-3506D01*
X62131Y-3372D01*
X62311Y-3372D01*
X62311Y-4218D01*
X62336Y-4344D01*
X62407Y-4451D01*
X62976Y-5019D01*
G54D10*
G36*
X63525Y-24267D02*
X63392Y-24322D01*
X63266Y-24448D01*
X63198Y-24612D01*
X63197Y-24789D01*
X63265Y-24954D01*
X63380Y-25069D01*
X63380Y-27466D01*
X63321Y-27466D01*
X63321Y-27459D01*
X63313Y-27459D01*
X63313Y-27359D01*
X63321Y-27359D01*
X63321Y-26946D01*
X63258Y-26884D01*
X63146Y-26884D01*
X63055Y-26921D01*
X62996Y-26980D01*
X62938Y-26922D01*
X62846Y-26884D01*
X62746Y-26884D01*
X62396Y-26884D01*
X62305Y-26921D01*
X62234Y-26992D01*
X62196Y-27084D01*
X62196Y-27183D01*
X62196Y-27733D01*
X62214Y-27776D01*
X62191Y-27771D01*
X62158Y-27692D01*
X62088Y-27622D01*
X62032Y-27599D01*
X62079Y-27579D01*
X62150Y-27508D01*
X62188Y-27417D01*
X62187Y-27204D01*
X62125Y-27142D01*
X61761Y-27142D01*
X61761Y-27149D01*
X61661Y-27149D01*
X61661Y-27142D01*
X61653Y-27142D01*
X61653Y-27042D01*
X61661Y-27042D01*
X61661Y-27034D01*
X61761Y-27034D01*
X61761Y-27042D01*
X62125Y-27042D01*
X62187Y-26979D01*
X62188Y-26767D01*
X62150Y-26675D01*
X62134Y-26659D01*
X62149Y-26643D01*
X62186Y-26555D01*
X62238Y-26608D01*
X62402Y-26676D01*
X62580Y-26676D01*
X62744Y-26608D01*
X62870Y-26482D01*
X62938Y-26318D01*
X62938Y-26145D01*
X62996Y-26087D01*
X63055Y-26146D01*
X63146Y-26184D01*
X63258Y-26184D01*
X63321Y-26121D01*
X63321Y-25709D01*
X63313Y-25709D01*
X63313Y-25609D01*
X63321Y-25609D01*
X63321Y-25196D01*
X63258Y-25134D01*
X63146Y-25134D01*
X63055Y-25171D01*
X62996Y-25230D01*
X62938Y-25172D01*
X62846Y-25134D01*
X62746Y-25134D01*
X62396Y-25134D01*
X62305Y-25171D01*
X62234Y-25242D01*
X62196Y-25334D01*
X62196Y-25334D01*
X62196Y-25113D01*
X62249Y-25113D01*
X62414Y-25045D01*
X62540Y-24919D01*
X62608Y-24755D01*
X62608Y-24577D01*
X62590Y-24534D01*
X62845Y-24534D01*
X62937Y-24496D01*
X63008Y-24425D01*
X63046Y-24334D01*
X63046Y-24234D01*
X63046Y-23788D01*
X63525Y-24267D01*
X63525Y-24267D01*
G37*
G54D34*
X63525Y-24267D02*
X63392Y-24322D01*
X63266Y-24448D01*
X63198Y-24612D01*
X63197Y-24789D01*
X63265Y-24954D01*
X63380Y-25069D01*
X63380Y-27466D01*
X63321Y-27466D01*
X63321Y-27459D01*
X63313Y-27459D01*
X63313Y-27359D01*
X63321Y-27359D01*
X63321Y-26946D01*
X63258Y-26884D01*
X63146Y-26884D01*
X63055Y-26921D01*
X62996Y-26980D01*
X62938Y-26922D01*
X62846Y-26884D01*
X62746Y-26884D01*
X62396Y-26884D01*
X62305Y-26921D01*
X62234Y-26992D01*
X62196Y-27084D01*
X62196Y-27183D01*
X62196Y-27733D01*
X62214Y-27776D01*
X62191Y-27771D01*
X62158Y-27692D01*
X62088Y-27622D01*
X62032Y-27599D01*
X62079Y-27579D01*
X62150Y-27508D01*
X62188Y-27417D01*
X62187Y-27204D01*
X62125Y-27142D01*
X61761Y-27142D01*
X61761Y-27149D01*
X61661Y-27149D01*
X61661Y-27142D01*
X61653Y-27142D01*
X61653Y-27042D01*
X61661Y-27042D01*
X61661Y-27034D01*
X61761Y-27034D01*
X61761Y-27042D01*
X62125Y-27042D01*
X62187Y-26979D01*
X62188Y-26767D01*
X62150Y-26675D01*
X62134Y-26659D01*
X62149Y-26643D01*
X62186Y-26555D01*
X62238Y-26608D01*
X62402Y-26676D01*
X62580Y-26676D01*
X62744Y-26608D01*
X62870Y-26482D01*
X62938Y-26318D01*
X62938Y-26145D01*
X62996Y-26087D01*
X63055Y-26146D01*
X63146Y-26184D01*
X63258Y-26184D01*
X63321Y-26121D01*
X63321Y-25709D01*
X63313Y-25709D01*
X63313Y-25609D01*
X63321Y-25609D01*
X63321Y-25196D01*
X63258Y-25134D01*
X63146Y-25134D01*
X63055Y-25171D01*
X62996Y-25230D01*
X62938Y-25172D01*
X62846Y-25134D01*
X62746Y-25134D01*
X62396Y-25134D01*
X62305Y-25171D01*
X62234Y-25242D01*
X62196Y-25334D01*
X62196Y-25334D01*
X62196Y-25113D01*
X62249Y-25113D01*
X62414Y-25045D01*
X62540Y-24919D01*
X62608Y-24755D01*
X62608Y-24577D01*
X62590Y-24534D01*
X62845Y-24534D01*
X62937Y-24496D01*
X63008Y-24425D01*
X63046Y-24334D01*
X63046Y-24234D01*
X63046Y-23788D01*
X63525Y-24267D01*
G54D10*
G36*
X89481Y-21009D02*
X88043Y-21009D01*
X88022Y-21013D01*
X88847Y-20188D01*
X88919Y-20081D01*
X88919Y-20081D01*
X88944Y-19955D01*
X88944Y-17825D01*
X88919Y-17699D01*
X88919Y-17699D01*
X88847Y-17592D01*
X87138Y-15883D01*
X87283Y-15823D01*
X87409Y-15698D01*
X87477Y-15534D01*
X87477Y-15464D01*
X87834Y-15107D01*
X87834Y-15107D01*
X87834Y-15107D01*
X87906Y-14999D01*
X87906Y-14999D01*
X87931Y-14873D01*
X87931Y-7419D01*
X88018Y-7384D01*
X88088Y-7313D01*
X88126Y-7221D01*
X88126Y-7122D01*
X88126Y-6772D01*
X88088Y-6680D01*
X88030Y-6622D01*
X88088Y-6563D01*
X88126Y-6471D01*
X88126Y-6372D01*
X88126Y-6022D01*
X88088Y-5930D01*
X88018Y-5860D01*
X87931Y-5824D01*
X87931Y-5243D01*
X87997Y-5215D01*
X88194Y-5019D01*
X88301Y-4761D01*
X88301Y-4483D01*
X88195Y-4226D01*
X88176Y-4207D01*
X88217Y-4207D01*
X88432Y-4118D01*
X88597Y-3953D01*
X88686Y-3738D01*
X88686Y-3506D01*
X88597Y-3291D01*
X88433Y-3126D01*
X88218Y-3037D01*
X87985Y-3036D01*
X87770Y-3125D01*
X87605Y-3290D01*
X87516Y-3505D01*
X87516Y-3737D01*
X87592Y-3922D01*
X87462Y-3921D01*
X87205Y-4028D01*
X87136Y-4096D01*
X87136Y-3417D01*
X86979Y-3036D01*
X86688Y-2745D01*
X86308Y-2587D01*
X85896Y-2586D01*
X85516Y-2744D01*
X85224Y-3035D01*
X85066Y-3415D01*
X85066Y-3827D01*
X85223Y-4207D01*
X85514Y-4498D01*
X85894Y-4656D01*
X86306Y-4657D01*
X86687Y-4499D01*
X86978Y-4209D01*
X87136Y-3828D01*
X87136Y-3417D01*
X87136Y-4096D01*
X87008Y-4225D01*
X86901Y-4482D01*
X86901Y-4760D01*
X87007Y-5018D01*
X87204Y-5215D01*
X87271Y-5242D01*
X87271Y-5824D01*
X87185Y-5859D01*
X87114Y-5930D01*
X87076Y-6022D01*
X87076Y-6121D01*
X87076Y-6471D01*
X87114Y-6563D01*
X87173Y-6622D01*
X87114Y-6680D01*
X87076Y-6772D01*
X87076Y-6871D01*
X87076Y-7221D01*
X87114Y-7313D01*
X87184Y-7383D01*
X87271Y-7419D01*
X87271Y-14737D01*
X87010Y-14997D01*
X86941Y-14997D01*
X86777Y-15065D01*
X86651Y-15191D01*
X86583Y-15355D01*
X86583Y-15466D01*
X85245Y-14128D01*
X85293Y-14109D01*
X85363Y-14038D01*
X85401Y-13946D01*
X85401Y-13847D01*
X85401Y-13297D01*
X85363Y-13205D01*
X85306Y-13148D01*
X85306Y-12607D01*
X85394Y-12519D01*
X85501Y-12261D01*
X85501Y-11983D01*
X85395Y-11726D01*
X85376Y-11707D01*
X85417Y-11707D01*
X85632Y-11618D01*
X85797Y-11453D01*
X85886Y-11238D01*
X85886Y-11006D01*
X85801Y-10800D01*
X85801Y-5483D01*
X85695Y-5226D01*
X85498Y-5028D01*
X85241Y-4922D01*
X84962Y-4921D01*
X84705Y-5028D01*
X84686Y-5047D01*
X84686Y-3506D01*
X84597Y-3291D01*
X84433Y-3126D01*
X84218Y-3037D01*
X83985Y-3036D01*
X83770Y-3125D01*
X83605Y-3290D01*
X83516Y-3505D01*
X83516Y-3737D01*
X83605Y-3952D01*
X83769Y-4117D01*
X83984Y-4206D01*
X84217Y-4207D01*
X84432Y-4118D01*
X84597Y-3953D01*
X84686Y-3738D01*
X84686Y-3506D01*
X84686Y-5047D01*
X84508Y-5225D01*
X84401Y-5482D01*
X84401Y-5760D01*
X84507Y-6018D01*
X84704Y-6215D01*
X84961Y-6321D01*
X85240Y-6322D01*
X85497Y-6215D01*
X85694Y-6019D01*
X85801Y-5761D01*
X85801Y-5483D01*
X85801Y-10800D01*
X85797Y-10791D01*
X85633Y-10626D01*
X85418Y-10537D01*
X85185Y-10536D01*
X84970Y-10625D01*
X84805Y-10790D01*
X84716Y-11005D01*
X84716Y-11237D01*
X84792Y-11422D01*
X84670Y-11421D01*
X84671Y-11418D01*
X84671Y-11418D01*
X84671Y-8833D01*
X84646Y-8707D01*
X84646Y-8707D01*
X84574Y-8600D01*
X82488Y-6513D01*
X82380Y-6442D01*
X82254Y-6417D01*
X80575Y-6417D01*
X80530Y-6372D01*
X80588Y-6313D01*
X80626Y-6221D01*
X80626Y-6122D01*
X80626Y-5772D01*
X80588Y-5680D01*
X80518Y-5610D01*
X80431Y-5574D01*
X80431Y-5243D01*
X80497Y-5215D01*
X80694Y-5019D01*
X80801Y-4761D01*
X80801Y-4483D01*
X80695Y-4226D01*
X80676Y-4207D01*
X80717Y-4207D01*
X80932Y-4118D01*
X81097Y-3953D01*
X81186Y-3738D01*
X81186Y-3506D01*
X81097Y-3291D01*
X80933Y-3126D01*
X80718Y-3037D01*
X80485Y-3036D01*
X80270Y-3125D01*
X80105Y-3290D01*
X80016Y-3505D01*
X80016Y-3737D01*
X80092Y-3922D01*
X79962Y-3921D01*
X79895Y-3949D01*
X79895Y-3085D01*
X79870Y-2959D01*
X79870Y-2959D01*
X79798Y-2852D01*
X79230Y-2284D01*
X79340Y-2262D01*
X79543Y-2127D01*
X79596Y-2048D01*
X79988Y-2440D01*
X80095Y-2512D01*
X80095Y-2512D01*
X80221Y-2537D01*
X86601Y-2537D01*
X86727Y-2512D01*
X86834Y-2440D01*
X86906Y-2333D01*
X86931Y-2207D01*
X86931Y-2202D01*
X87043Y-2127D01*
X87178Y-1924D01*
X87226Y-1685D01*
X87226Y-1558D01*
X87178Y-1319D01*
X87043Y-1116D01*
X86840Y-981D01*
X86601Y-933D01*
X86362Y-981D01*
X86202Y-1088D01*
X86188Y-1055D01*
X86118Y-985D01*
X86026Y-947D01*
X85927Y-947D01*
X85177Y-947D01*
X85085Y-984D01*
X85014Y-1055D01*
X84976Y-1147D01*
X84976Y-1246D01*
X84976Y-1877D01*
X80358Y-1877D01*
X79870Y-1388D01*
X79762Y-1317D01*
X79664Y-1297D01*
X79543Y-1116D01*
X79340Y-981D01*
X79101Y-933D01*
X78862Y-981D01*
X78702Y-1088D01*
X78688Y-1055D01*
X78618Y-985D01*
X78526Y-947D01*
X78427Y-947D01*
X77677Y-947D01*
X77585Y-984D01*
X77514Y-1055D01*
X77500Y-1089D01*
X76734Y-323D01*
X76627Y-251D01*
X76575Y-241D01*
X88957Y-241D01*
X88949Y-264D01*
X88962Y-442D01*
X89005Y-547D01*
X89090Y-562D01*
X89330Y-322D01*
X89325Y-316D01*
X89396Y-245D01*
X89401Y-251D01*
X89407Y-245D01*
X89477Y-316D01*
X89472Y-322D01*
X89477Y-327D01*
X89407Y-398D01*
X89401Y-392D01*
X89161Y-633D01*
X89175Y-717D01*
X89344Y-774D01*
X89481Y-764D01*
X89481Y-21009D01*
X89481Y-21009D01*
G37*
G54D34*
X89481Y-21009D02*
X88043Y-21009D01*
X88022Y-21013D01*
X88847Y-20188D01*
X88919Y-20081D01*
X88919Y-20081D01*
X88944Y-19955D01*
X88944Y-17825D01*
X88919Y-17699D01*
X88919Y-17699D01*
X88847Y-17592D01*
X87138Y-15883D01*
X87283Y-15823D01*
X87409Y-15698D01*
X87477Y-15534D01*
X87477Y-15464D01*
X87834Y-15107D01*
X87834Y-15107D01*
X87834Y-15107D01*
X87906Y-14999D01*
X87906Y-14999D01*
X87931Y-14873D01*
X87931Y-7419D01*
X88018Y-7384D01*
X88088Y-7313D01*
X88126Y-7221D01*
X88126Y-7122D01*
X88126Y-6772D01*
X88088Y-6680D01*
X88030Y-6622D01*
X88088Y-6563D01*
X88126Y-6471D01*
X88126Y-6372D01*
X88126Y-6022D01*
X88088Y-5930D01*
X88018Y-5860D01*
X87931Y-5824D01*
X87931Y-5243D01*
X87997Y-5215D01*
X88194Y-5019D01*
X88301Y-4761D01*
X88301Y-4483D01*
X88195Y-4226D01*
X88176Y-4207D01*
X88217Y-4207D01*
X88432Y-4118D01*
X88597Y-3953D01*
X88686Y-3738D01*
X88686Y-3506D01*
X88597Y-3291D01*
X88433Y-3126D01*
X88218Y-3037D01*
X87985Y-3036D01*
X87770Y-3125D01*
X87605Y-3290D01*
X87516Y-3505D01*
X87516Y-3737D01*
X87592Y-3922D01*
X87462Y-3921D01*
X87205Y-4028D01*
X87136Y-4096D01*
X87136Y-3417D01*
X86979Y-3036D01*
X86688Y-2745D01*
X86308Y-2587D01*
X85896Y-2586D01*
X85516Y-2744D01*
X85224Y-3035D01*
X85066Y-3415D01*
X85066Y-3827D01*
X85223Y-4207D01*
X85514Y-4498D01*
X85894Y-4656D01*
X86306Y-4657D01*
X86687Y-4499D01*
X86978Y-4209D01*
X87136Y-3828D01*
X87136Y-3417D01*
X87136Y-4096D01*
X87008Y-4225D01*
X86901Y-4482D01*
X86901Y-4760D01*
X87007Y-5018D01*
X87204Y-5215D01*
X87271Y-5242D01*
X87271Y-5824D01*
X87185Y-5859D01*
X87114Y-5930D01*
X87076Y-6022D01*
X87076Y-6121D01*
X87076Y-6471D01*
X87114Y-6563D01*
X87173Y-6622D01*
X87114Y-6680D01*
X87076Y-6772D01*
X87076Y-6871D01*
X87076Y-7221D01*
X87114Y-7313D01*
X87184Y-7383D01*
X87271Y-7419D01*
X87271Y-14737D01*
X87010Y-14997D01*
X86941Y-14997D01*
X86777Y-15065D01*
X86651Y-15191D01*
X86583Y-15355D01*
X86583Y-15466D01*
X85245Y-14128D01*
X85293Y-14109D01*
X85363Y-14038D01*
X85401Y-13946D01*
X85401Y-13847D01*
X85401Y-13297D01*
X85363Y-13205D01*
X85306Y-13148D01*
X85306Y-12607D01*
X85394Y-12519D01*
X85501Y-12261D01*
X85501Y-11983D01*
X85395Y-11726D01*
X85376Y-11707D01*
X85417Y-11707D01*
X85632Y-11618D01*
X85797Y-11453D01*
X85886Y-11238D01*
X85886Y-11006D01*
X85801Y-10800D01*
X85801Y-5483D01*
X85695Y-5226D01*
X85498Y-5028D01*
X85241Y-4922D01*
X84962Y-4921D01*
X84705Y-5028D01*
X84686Y-5047D01*
X84686Y-3506D01*
X84597Y-3291D01*
X84433Y-3126D01*
X84218Y-3037D01*
X83985Y-3036D01*
X83770Y-3125D01*
X83605Y-3290D01*
X83516Y-3505D01*
X83516Y-3737D01*
X83605Y-3952D01*
X83769Y-4117D01*
X83984Y-4206D01*
X84217Y-4207D01*
X84432Y-4118D01*
X84597Y-3953D01*
X84686Y-3738D01*
X84686Y-3506D01*
X84686Y-5047D01*
X84508Y-5225D01*
X84401Y-5482D01*
X84401Y-5760D01*
X84507Y-6018D01*
X84704Y-6215D01*
X84961Y-6321D01*
X85240Y-6322D01*
X85497Y-6215D01*
X85694Y-6019D01*
X85801Y-5761D01*
X85801Y-5483D01*
X85801Y-10800D01*
X85797Y-10791D01*
X85633Y-10626D01*
X85418Y-10537D01*
X85185Y-10536D01*
X84970Y-10625D01*
X84805Y-10790D01*
X84716Y-11005D01*
X84716Y-11237D01*
X84792Y-11422D01*
X84670Y-11421D01*
X84671Y-11418D01*
X84671Y-11418D01*
X84671Y-8833D01*
X84646Y-8707D01*
X84646Y-8707D01*
X84574Y-8600D01*
X82488Y-6513D01*
X82380Y-6442D01*
X82254Y-6417D01*
X80575Y-6417D01*
X80530Y-6372D01*
X80588Y-6313D01*
X80626Y-6221D01*
X80626Y-6122D01*
X80626Y-5772D01*
X80588Y-5680D01*
X80518Y-5610D01*
X80431Y-5574D01*
X80431Y-5243D01*
X80497Y-5215D01*
X80694Y-5019D01*
X80801Y-4761D01*
X80801Y-4483D01*
X80695Y-4226D01*
X80676Y-4207D01*
X80717Y-4207D01*
X80932Y-4118D01*
X81097Y-3953D01*
X81186Y-3738D01*
X81186Y-3506D01*
X81097Y-3291D01*
X80933Y-3126D01*
X80718Y-3037D01*
X80485Y-3036D01*
X80270Y-3125D01*
X80105Y-3290D01*
X80016Y-3505D01*
X80016Y-3737D01*
X80092Y-3922D01*
X79962Y-3921D01*
X79895Y-3949D01*
X79895Y-3085D01*
X79870Y-2959D01*
X79870Y-2959D01*
X79798Y-2852D01*
X79230Y-2284D01*
X79340Y-2262D01*
X79543Y-2127D01*
X79596Y-2048D01*
X79988Y-2440D01*
X80095Y-2512D01*
X80095Y-2512D01*
X80221Y-2537D01*
X86601Y-2537D01*
X86727Y-2512D01*
X86834Y-2440D01*
X86906Y-2333D01*
X86931Y-2207D01*
X86931Y-2202D01*
X87043Y-2127D01*
X87178Y-1924D01*
X87226Y-1685D01*
X87226Y-1558D01*
X87178Y-1319D01*
X87043Y-1116D01*
X86840Y-981D01*
X86601Y-933D01*
X86362Y-981D01*
X86202Y-1088D01*
X86188Y-1055D01*
X86118Y-985D01*
X86026Y-947D01*
X85927Y-947D01*
X85177Y-947D01*
X85085Y-984D01*
X85014Y-1055D01*
X84976Y-1147D01*
X84976Y-1246D01*
X84976Y-1877D01*
X80358Y-1877D01*
X79870Y-1388D01*
X79762Y-1317D01*
X79664Y-1297D01*
X79543Y-1116D01*
X79340Y-981D01*
X79101Y-933D01*
X78862Y-981D01*
X78702Y-1088D01*
X78688Y-1055D01*
X78618Y-985D01*
X78526Y-947D01*
X78427Y-947D01*
X77677Y-947D01*
X77585Y-984D01*
X77514Y-1055D01*
X77500Y-1089D01*
X76734Y-323D01*
X76627Y-251D01*
X76575Y-241D01*
X88957Y-241D01*
X88949Y-264D01*
X88962Y-442D01*
X89005Y-547D01*
X89090Y-562D01*
X89330Y-322D01*
X89325Y-316D01*
X89396Y-245D01*
X89401Y-251D01*
X89407Y-245D01*
X89477Y-316D01*
X89472Y-322D01*
X89477Y-327D01*
X89407Y-398D01*
X89401Y-392D01*
X89161Y-633D01*
X89175Y-717D01*
X89344Y-774D01*
X89481Y-764D01*
X89481Y-21009D01*
G54D10*
G36*
X89481Y-29027D02*
X89458Y-29020D01*
X89281Y-29032D01*
X89175Y-29076D01*
X89161Y-29160D01*
X89401Y-29401D01*
X89407Y-29395D01*
X89477Y-29466D01*
X89472Y-29472D01*
X89477Y-29477D01*
X89407Y-29548D01*
X89401Y-29542D01*
X89396Y-29548D01*
X89325Y-29477D01*
X89330Y-29472D01*
X89090Y-29231D01*
X89005Y-29246D01*
X88949Y-29414D01*
X88959Y-29552D01*
X84851Y-29552D01*
X84851Y-27983D01*
X84744Y-27726D01*
X84548Y-27528D01*
X84291Y-27422D01*
X84012Y-27421D01*
X83755Y-27528D01*
X83736Y-27547D01*
X83736Y-26006D01*
X83647Y-25791D01*
X83482Y-25626D01*
X83268Y-25537D01*
X83035Y-25536D01*
X82820Y-25625D01*
X82655Y-25790D01*
X82566Y-26005D01*
X82566Y-26237D01*
X82654Y-26452D01*
X82819Y-26617D01*
X83034Y-26706D01*
X83267Y-26707D01*
X83482Y-26618D01*
X83646Y-26453D01*
X83736Y-26238D01*
X83736Y-26006D01*
X83736Y-27547D01*
X83558Y-27725D01*
X83451Y-27982D01*
X83451Y-28260D01*
X83557Y-28518D01*
X83754Y-28715D01*
X84011Y-28821D01*
X84289Y-28822D01*
X84547Y-28715D01*
X84744Y-28519D01*
X84851Y-28261D01*
X84851Y-27983D01*
X84851Y-29552D01*
X75501Y-29552D01*
X75501Y-27983D01*
X75395Y-27726D01*
X75198Y-27528D01*
X74941Y-27422D01*
X74662Y-27421D01*
X74405Y-27528D01*
X74208Y-27725D01*
X74101Y-27982D01*
X74101Y-28260D01*
X74207Y-28518D01*
X74404Y-28715D01*
X74661Y-28821D01*
X74940Y-28822D01*
X75197Y-28715D01*
X75394Y-28519D01*
X75501Y-28261D01*
X75501Y-27983D01*
X75501Y-29552D01*
X67759Y-29552D01*
X67782Y-29543D01*
X68021Y-29304D01*
X68151Y-28991D01*
X68151Y-28653D01*
X68022Y-28341D01*
X67783Y-28101D01*
X67471Y-27972D01*
X67133Y-27971D01*
X67073Y-27996D01*
X69643Y-25426D01*
X75033Y-25426D01*
X74924Y-25535D01*
X74766Y-25915D01*
X74766Y-26327D01*
X74870Y-26578D01*
X74172Y-26578D01*
X74297Y-26453D01*
X74386Y-26238D01*
X74386Y-26006D01*
X74297Y-25791D01*
X74133Y-25626D01*
X73918Y-25537D01*
X73685Y-25536D01*
X73470Y-25625D01*
X73305Y-25790D01*
X73228Y-25977D01*
X73170Y-25837D01*
X73044Y-25711D01*
X72880Y-25643D01*
X72702Y-25643D01*
X72538Y-25711D01*
X72412Y-25837D01*
X72344Y-26001D01*
X72344Y-26179D01*
X72412Y-26343D01*
X72537Y-26469D01*
X72702Y-26537D01*
X72771Y-26537D01*
X73375Y-27141D01*
X73375Y-27141D01*
X73482Y-27212D01*
X73482Y-27212D01*
X73583Y-27233D01*
X73608Y-27238D01*
X73608Y-27238D01*
X73608Y-27238D01*
X75114Y-27238D01*
X75841Y-27965D01*
X75949Y-28037D01*
X75949Y-28037D01*
X76075Y-28062D01*
X78824Y-28062D01*
X78950Y-28037D01*
X78950Y-28037D01*
X79057Y-27965D01*
X79374Y-27648D01*
X79375Y-27647D01*
X79701Y-27647D01*
X79793Y-27609D01*
X79863Y-27538D01*
X79901Y-27446D01*
X79901Y-27347D01*
X79901Y-26797D01*
X79863Y-26705D01*
X79793Y-26635D01*
X79701Y-26597D01*
X79602Y-26597D01*
X79252Y-26597D01*
X79160Y-26634D01*
X79101Y-26693D01*
X79043Y-26635D01*
X78951Y-26597D01*
X78852Y-26597D01*
X78502Y-26597D01*
X78410Y-26634D01*
X78339Y-26705D01*
X78303Y-26792D01*
X77922Y-26792D01*
X77895Y-26726D01*
X77876Y-26707D01*
X77917Y-26707D01*
X78132Y-26618D01*
X78297Y-26453D01*
X78386Y-26238D01*
X78386Y-26006D01*
X78297Y-25791D01*
X78133Y-25626D01*
X77918Y-25537D01*
X77685Y-25536D01*
X77470Y-25625D01*
X77305Y-25790D01*
X77216Y-26005D01*
X77216Y-26237D01*
X77292Y-26422D01*
X77162Y-26421D01*
X76905Y-26528D01*
X76708Y-26725D01*
X76601Y-26982D01*
X76601Y-27260D01*
X76660Y-27402D01*
X76212Y-27402D01*
X75966Y-27157D01*
X76006Y-27157D01*
X76387Y-26999D01*
X76678Y-26709D01*
X76836Y-26328D01*
X76836Y-25917D01*
X76679Y-25536D01*
X76569Y-25426D01*
X84383Y-25426D01*
X84274Y-25535D01*
X84116Y-25915D01*
X84116Y-26327D01*
X84273Y-26707D01*
X84564Y-26998D01*
X84944Y-27156D01*
X85356Y-27157D01*
X85736Y-26999D01*
X86028Y-26709D01*
X86186Y-26328D01*
X86186Y-25917D01*
X86029Y-25536D01*
X85905Y-25412D01*
X85963Y-25401D01*
X85963Y-25401D01*
X86070Y-25329D01*
X86486Y-24913D01*
X87109Y-25537D01*
X87035Y-25536D01*
X86820Y-25625D01*
X86655Y-25790D01*
X86566Y-26005D01*
X86566Y-26237D01*
X86642Y-26422D01*
X86512Y-26421D01*
X86255Y-26528D01*
X86058Y-26725D01*
X85951Y-26982D01*
X85951Y-27260D01*
X86057Y-27518D01*
X86254Y-27715D01*
X86511Y-27821D01*
X86789Y-27822D01*
X87047Y-27715D01*
X87244Y-27519D01*
X87272Y-27452D01*
X87553Y-27452D01*
X87589Y-27538D01*
X87659Y-27608D01*
X87751Y-27647D01*
X87850Y-27647D01*
X88200Y-27647D01*
X88292Y-27609D01*
X88351Y-27550D01*
X88409Y-27608D01*
X88501Y-27647D01*
X88600Y-27647D01*
X88950Y-27647D01*
X89042Y-27609D01*
X89112Y-27538D01*
X89151Y-27446D01*
X89151Y-27347D01*
X89151Y-26797D01*
X89113Y-26705D01*
X89046Y-26638D01*
X89031Y-26560D01*
X89031Y-26560D01*
X88959Y-26453D01*
X88959Y-26453D01*
X86816Y-24310D01*
X86816Y-24109D01*
X86790Y-23983D01*
X86790Y-23983D01*
X86719Y-23876D01*
X85672Y-22828D01*
X85710Y-22828D01*
X85874Y-22761D01*
X86000Y-22635D01*
X86020Y-22587D01*
X86634Y-22587D01*
X86761Y-22562D01*
X86761Y-22562D01*
X86859Y-22496D01*
X86903Y-22716D01*
X87170Y-23117D01*
X87571Y-23384D01*
X88043Y-23478D01*
X89481Y-23478D01*
X89481Y-29027D01*
X89481Y-29027D01*
G37*
G54D34*
X89481Y-29027D02*
X89458Y-29020D01*
X89281Y-29032D01*
X89175Y-29076D01*
X89161Y-29160D01*
X89401Y-29401D01*
X89407Y-29395D01*
X89477Y-29466D01*
X89472Y-29472D01*
X89477Y-29477D01*
X89407Y-29548D01*
X89401Y-29542D01*
X89396Y-29548D01*
X89325Y-29477D01*
X89330Y-29472D01*
X89090Y-29231D01*
X89005Y-29246D01*
X88949Y-29414D01*
X88959Y-29552D01*
X84851Y-29552D01*
X84851Y-27983D01*
X84744Y-27726D01*
X84548Y-27528D01*
X84291Y-27422D01*
X84012Y-27421D01*
X83755Y-27528D01*
X83736Y-27547D01*
X83736Y-26006D01*
X83647Y-25791D01*
X83482Y-25626D01*
X83268Y-25537D01*
X83035Y-25536D01*
X82820Y-25625D01*
X82655Y-25790D01*
X82566Y-26005D01*
X82566Y-26237D01*
X82654Y-26452D01*
X82819Y-26617D01*
X83034Y-26706D01*
X83267Y-26707D01*
X83482Y-26618D01*
X83646Y-26453D01*
X83736Y-26238D01*
X83736Y-26006D01*
X83736Y-27547D01*
X83558Y-27725D01*
X83451Y-27982D01*
X83451Y-28260D01*
X83557Y-28518D01*
X83754Y-28715D01*
X84011Y-28821D01*
X84289Y-28822D01*
X84547Y-28715D01*
X84744Y-28519D01*
X84851Y-28261D01*
X84851Y-27983D01*
X84851Y-29552D01*
X75501Y-29552D01*
X75501Y-27983D01*
X75395Y-27726D01*
X75198Y-27528D01*
X74941Y-27422D01*
X74662Y-27421D01*
X74405Y-27528D01*
X74208Y-27725D01*
X74101Y-27982D01*
X74101Y-28260D01*
X74207Y-28518D01*
X74404Y-28715D01*
X74661Y-28821D01*
X74940Y-28822D01*
X75197Y-28715D01*
X75394Y-28519D01*
X75501Y-28261D01*
X75501Y-27983D01*
X75501Y-29552D01*
X67759Y-29552D01*
X67782Y-29543D01*
X68021Y-29304D01*
X68151Y-28991D01*
X68151Y-28653D01*
X68022Y-28341D01*
X67783Y-28101D01*
X67471Y-27972D01*
X67133Y-27971D01*
X67073Y-27996D01*
X69643Y-25426D01*
X75033Y-25426D01*
X74924Y-25535D01*
X74766Y-25915D01*
X74766Y-26327D01*
X74870Y-26578D01*
X74172Y-26578D01*
X74297Y-26453D01*
X74386Y-26238D01*
X74386Y-26006D01*
X74297Y-25791D01*
X74133Y-25626D01*
X73918Y-25537D01*
X73685Y-25536D01*
X73470Y-25625D01*
X73305Y-25790D01*
X73228Y-25977D01*
X73170Y-25837D01*
X73044Y-25711D01*
X72880Y-25643D01*
X72702Y-25643D01*
X72538Y-25711D01*
X72412Y-25837D01*
X72344Y-26001D01*
X72344Y-26179D01*
X72412Y-26343D01*
X72537Y-26469D01*
X72702Y-26537D01*
X72771Y-26537D01*
X73375Y-27141D01*
X73375Y-27141D01*
X73482Y-27212D01*
X73482Y-27212D01*
X73583Y-27233D01*
X73608Y-27238D01*
X73608Y-27238D01*
X73608Y-27238D01*
X75114Y-27238D01*
X75841Y-27965D01*
X75949Y-28037D01*
X75949Y-28037D01*
X76075Y-28062D01*
X78824Y-28062D01*
X78950Y-28037D01*
X78950Y-28037D01*
X79057Y-27965D01*
X79374Y-27648D01*
X79375Y-27647D01*
X79701Y-27647D01*
X79793Y-27609D01*
X79863Y-27538D01*
X79901Y-27446D01*
X79901Y-27347D01*
X79901Y-26797D01*
X79863Y-26705D01*
X79793Y-26635D01*
X79701Y-26597D01*
X79602Y-26597D01*
X79252Y-26597D01*
X79160Y-26634D01*
X79101Y-26693D01*
X79043Y-26635D01*
X78951Y-26597D01*
X78852Y-26597D01*
X78502Y-26597D01*
X78410Y-26634D01*
X78339Y-26705D01*
X78303Y-26792D01*
X77922Y-26792D01*
X77895Y-26726D01*
X77876Y-26707D01*
X77917Y-26707D01*
X78132Y-26618D01*
X78297Y-26453D01*
X78386Y-26238D01*
X78386Y-26006D01*
X78297Y-25791D01*
X78133Y-25626D01*
X77918Y-25537D01*
X77685Y-25536D01*
X77470Y-25625D01*
X77305Y-25790D01*
X77216Y-26005D01*
X77216Y-26237D01*
X77292Y-26422D01*
X77162Y-26421D01*
X76905Y-26528D01*
X76708Y-26725D01*
X76601Y-26982D01*
X76601Y-27260D01*
X76660Y-27402D01*
X76212Y-27402D01*
X75966Y-27157D01*
X76006Y-27157D01*
X76387Y-26999D01*
X76678Y-26709D01*
X76836Y-26328D01*
X76836Y-25917D01*
X76679Y-25536D01*
X76569Y-25426D01*
X84383Y-25426D01*
X84274Y-25535D01*
X84116Y-25915D01*
X84116Y-26327D01*
X84273Y-26707D01*
X84564Y-26998D01*
X84944Y-27156D01*
X85356Y-27157D01*
X85736Y-26999D01*
X86028Y-26709D01*
X86186Y-26328D01*
X86186Y-25917D01*
X86029Y-25536D01*
X85905Y-25412D01*
X85963Y-25401D01*
X85963Y-25401D01*
X86070Y-25329D01*
X86486Y-24913D01*
X87109Y-25537D01*
X87035Y-25536D01*
X86820Y-25625D01*
X86655Y-25790D01*
X86566Y-26005D01*
X86566Y-26237D01*
X86642Y-26422D01*
X86512Y-26421D01*
X86255Y-26528D01*
X86058Y-26725D01*
X85951Y-26982D01*
X85951Y-27260D01*
X86057Y-27518D01*
X86254Y-27715D01*
X86511Y-27821D01*
X86789Y-27822D01*
X87047Y-27715D01*
X87244Y-27519D01*
X87272Y-27452D01*
X87553Y-27452D01*
X87589Y-27538D01*
X87659Y-27608D01*
X87751Y-27647D01*
X87850Y-27647D01*
X88200Y-27647D01*
X88292Y-27609D01*
X88351Y-27550D01*
X88409Y-27608D01*
X88501Y-27647D01*
X88600Y-27647D01*
X88950Y-27647D01*
X89042Y-27609D01*
X89112Y-27538D01*
X89151Y-27446D01*
X89151Y-27347D01*
X89151Y-26797D01*
X89113Y-26705D01*
X89046Y-26638D01*
X89031Y-26560D01*
X89031Y-26560D01*
X88959Y-26453D01*
X88959Y-26453D01*
X86816Y-24310D01*
X86816Y-24109D01*
X86790Y-23983D01*
X86790Y-23983D01*
X86719Y-23876D01*
X85672Y-22828D01*
X85710Y-22828D01*
X85874Y-22761D01*
X86000Y-22635D01*
X86020Y-22587D01*
X86634Y-22587D01*
X86761Y-22562D01*
X86761Y-22562D01*
X86859Y-22496D01*
X86903Y-22716D01*
X87170Y-23117D01*
X87571Y-23384D01*
X88043Y-23478D01*
X89481Y-23478D01*
X89481Y-29027D01*
M02*
