G04 (created by PCBNEW (2013-02-13 BZR 3947)-testing) date 3/7/2013 9:21:44 AM*
%MOIN*%
G04 Gerber Fmt 3.4, Leading zero omitted, Abs format*
%FSLAX34Y34*%
G01*
G70*
G90*
G04 APERTURE LIST*
%ADD10C,0.08*%
%ADD11C,0.009*%
%ADD12O,0.0513X0.073*%
%ADD13O,0.0592X0.1025*%
%ADD14R,0.083X0.093*%
%ADD15O,0.083X0.093*%
%ADD16C,0.0670551*%
%ADD17C,0.073*%
%ADD18C,0.098*%
G04 APERTURE END LIST*
G54D10*
G54D11*
X111176Y-3741D02*
X111176Y-3661D01*
X21276Y-3661D02*
X21276Y-3741D01*
X21276Y-33641D02*
X21276Y-3741D01*
X111176Y-33641D02*
X21276Y-33641D01*
X111176Y-3741D02*
X111176Y-33641D01*
X21276Y-3661D02*
X111176Y-3661D01*
G54D12*
X28096Y-6385D03*
X28411Y-5754D03*
X28726Y-6385D03*
X29041Y-5754D03*
X29356Y-6385D03*
G54D13*
X27289Y-4317D03*
X30163Y-4317D03*
G54D14*
X53566Y-32920D03*
G54D15*
X54566Y-32920D03*
X55566Y-32920D03*
X56566Y-32920D03*
X57566Y-32920D03*
X58566Y-32920D03*
X59566Y-32920D03*
X60566Y-32920D03*
X61566Y-32920D03*
X62566Y-32920D03*
X63566Y-32920D03*
X64566Y-32920D03*
X64566Y-31920D03*
X64566Y-30920D03*
X64566Y-29920D03*
X64566Y-28920D03*
X64566Y-27920D03*
X64566Y-26920D03*
X63566Y-26920D03*
X62566Y-26920D03*
X61566Y-26920D03*
X60566Y-26920D03*
X59566Y-26920D03*
X58566Y-26920D03*
X57566Y-26920D03*
X56566Y-26920D03*
X55566Y-26920D03*
X54566Y-26920D03*
X53566Y-26920D03*
X57566Y-27920D03*
X57566Y-31920D03*
X45076Y-24441D03*
G54D14*
X46076Y-24441D03*
G54D15*
X71376Y-16941D03*
G54D14*
X72376Y-16941D03*
G54D15*
X78876Y-16941D03*
G54D14*
X79876Y-16941D03*
G54D15*
X86376Y-16941D03*
G54D14*
X87376Y-16941D03*
G54D15*
X93876Y-16941D03*
G54D14*
X94876Y-16941D03*
G54D15*
X104176Y-16941D03*
G54D14*
X105176Y-16941D03*
G54D15*
X33850Y-31941D03*
G54D14*
X34850Y-31941D03*
G54D15*
X41350Y-31941D03*
G54D14*
X42350Y-31941D03*
G54D15*
X68450Y-32091D03*
G54D14*
X69450Y-32091D03*
G54D15*
X96676Y-31941D03*
G54D14*
X97676Y-31941D03*
G54D15*
X106050Y-31941D03*
G54D14*
X107050Y-31941D03*
G54D15*
X37576Y-24441D03*
G54D14*
X38576Y-24441D03*
G54D15*
X56376Y-16941D03*
G54D14*
X57376Y-16941D03*
G54D15*
X52576Y-24441D03*
G54D14*
X53576Y-24441D03*
G54D15*
X60076Y-24441D03*
G54D14*
X61076Y-24441D03*
G54D15*
X67576Y-24441D03*
G54D14*
X68576Y-24441D03*
G54D15*
X75076Y-24441D03*
G54D14*
X76076Y-24441D03*
G54D15*
X82576Y-24441D03*
G54D14*
X83576Y-24441D03*
G54D15*
X90076Y-24441D03*
G54D14*
X91076Y-24441D03*
G54D15*
X98501Y-24441D03*
G54D14*
X99501Y-24441D03*
G54D15*
X106976Y-24441D03*
G54D14*
X107976Y-24441D03*
G54D15*
X27276Y-24441D03*
G54D14*
X28276Y-24441D03*
G54D15*
X63876Y-16941D03*
G54D14*
X64876Y-16941D03*
G54D15*
X24476Y-9441D03*
G54D14*
X25476Y-9441D03*
G54D15*
X31976Y-9441D03*
G54D14*
X32976Y-9441D03*
G54D15*
X39476Y-9441D03*
G54D14*
X40476Y-9441D03*
G54D15*
X46976Y-9441D03*
G54D14*
X47976Y-9441D03*
G54D15*
X54476Y-9441D03*
G54D14*
X55476Y-9441D03*
G54D15*
X61976Y-9441D03*
G54D14*
X62976Y-9441D03*
G54D15*
X69476Y-9441D03*
G54D14*
X70476Y-9441D03*
G54D15*
X76976Y-9441D03*
G54D14*
X77976Y-9441D03*
G54D15*
X84476Y-9441D03*
G54D14*
X85476Y-9441D03*
G54D15*
X91976Y-9441D03*
G54D14*
X92976Y-9441D03*
G54D15*
X99476Y-9441D03*
G54D14*
X100476Y-9441D03*
G54D15*
X106976Y-9441D03*
G54D14*
X107976Y-9441D03*
G54D15*
X25426Y-16941D03*
G54D14*
X26426Y-16941D03*
G54D15*
X25401Y-31941D03*
G54D14*
X26401Y-31941D03*
G54D15*
X33876Y-16941D03*
G54D14*
X34876Y-16941D03*
G54D15*
X41376Y-16941D03*
G54D14*
X42376Y-16941D03*
G54D15*
X48876Y-16941D03*
G54D14*
X49876Y-16941D03*
G54D16*
X47476Y-30441D03*
X47476Y-29441D03*
X47476Y-28441D03*
X47476Y-31441D03*
G54D17*
X32076Y-20391D03*
X32076Y-24391D03*
G54D16*
X27376Y-16891D03*
X24476Y-16941D03*
G54D18*
X28776Y-20441D03*
X26276Y-21441D03*
X105676Y-12941D03*
X103176Y-13941D03*
X26926Y-12941D03*
X24426Y-13941D03*
X107540Y-27941D03*
X105040Y-28941D03*
X26901Y-27941D03*
X24401Y-28941D03*
X40976Y-5441D03*
X38476Y-6441D03*
X78476Y-5441D03*
X75976Y-6441D03*
X93476Y-5441D03*
X90976Y-6441D03*
X33476Y-5441D03*
X30976Y-6441D03*
X25976Y-5441D03*
X23476Y-6441D03*
X48476Y-5441D03*
X45976Y-6441D03*
X63476Y-5441D03*
X60976Y-6441D03*
X55976Y-5441D03*
X53476Y-6441D03*
X70976Y-5441D03*
X68476Y-6441D03*
X46576Y-20441D03*
X44076Y-21441D03*
X85976Y-5441D03*
X83476Y-6441D03*
X42850Y-27941D03*
X40350Y-28941D03*
X35350Y-27941D03*
X32850Y-28941D03*
X91576Y-20441D03*
X89076Y-21441D03*
X84076Y-20441D03*
X81576Y-21441D03*
X76576Y-20441D03*
X74076Y-21441D03*
X69076Y-20441D03*
X66576Y-21441D03*
X61576Y-20441D03*
X59076Y-21441D03*
X54076Y-20441D03*
X51576Y-21441D03*
X100976Y-5441D03*
X98476Y-6441D03*
X39076Y-20441D03*
X36576Y-21441D03*
X95376Y-12941D03*
X92876Y-13941D03*
X87876Y-12941D03*
X85376Y-13941D03*
X80376Y-12941D03*
X77876Y-13941D03*
X72876Y-12941D03*
X70376Y-13941D03*
X65376Y-12941D03*
X62876Y-13941D03*
X57876Y-12941D03*
X55376Y-13941D03*
X50376Y-12941D03*
X47876Y-13941D03*
X42876Y-12941D03*
X40376Y-13941D03*
X35376Y-12941D03*
X32876Y-13941D03*
X108476Y-5441D03*
X105976Y-6441D03*
X98176Y-27941D03*
X95676Y-28941D03*
X108476Y-20441D03*
X105976Y-21441D03*
X100001Y-20441D03*
X97501Y-21441D03*
X69946Y-28091D03*
X67446Y-29091D03*
M02*
